<?xml version="1.0" encoding="utf-8"?>
<!-- Generator: Adobe Illustrator 21.0.0, SVG Export Plug-In . SVG Version: 6.00 Build 0)  -->
<svg version="1.1" id="Слой_1" xmlns="http://www.w3.org/2000/svg" xmlns:xlink="http://www.w3.org/1999/xlink" x="0px" y="0px"
	 viewBox="0 0 804.1 369" style="enable-background:new 0 0 804.1 369;" xml:space="preserve">
<style type="text/css">
	.st0{fill:#FFFFFF;}
</style>
<g>
	<g>
		<path class="st0" d="M186.4,218.6c-11.5-3.5-20.7,2.6-22,14.7c-0.3,3.2,0,6.6-5,7.2c-2.8,0.3-3.2,3.4-3.3,6
			c-0.1,2.7,1.6,3.4,3.7,3.7c3.1,0.4,4.1,2.5,4.2,5.2c0.1,2.7,0.1,5.3,0.1,8c0.1,8.7,0.1,17.3,0.2,26c0,4.5,3.1,5.1,6.5,4.7
			c3.1-0.4,7.3,0.7,6.7-5.2c-0.5-5.4-0.1-11-0.1-16.5c0-5.3,0.1-10.7,0-16c-0.1-4.2,0.8-6.9,5.8-6.2c3.9,0.5,4.9-2.2,4.9-5.3
			c0-3-1.2-4.9-4.8-4.8c-5.6,0.1-7.2-2.8-5.2-8c1.5-3.7,4.5-4.2,7.8-3.7c3,0.4,4.2-0.7,4.6-3.6C191.1,221.4,189.6,219.6,186.4,218.6
			z M203.2,219.3c-5.1,0-6.3,2-6.8,8.6c-0.5,6.5,4.2,3.6,7.1,4.5c1.9-1.7,6.7,2.8,6.7-3.1C210.3,221.4,208.6,219.3,203.2,219.3z
			 M208.8,240.5c-3.2-0.4-6.7-0.7-9.9,0c-2.7,0.6-2.3,3.6-2.3,6c0,12.6,0.1,25.3,0.1,37.9c0,9,0,8.8,8.9,8.9c3.5,0,4.1-1.3,4-4.3
			c-0.2-7.5-0.1-15-0.1-22.4c0-7.5,0-15,0-22.4C209.5,242.9,210.1,240.7,208.8,240.5z M152.4,219.3c-14.5-3.7-22.7,2.1-23.1,16.6
			c-0.1,2.9-0.7,4.5-3.8,4.2c-2.6-0.2-4.1,1-4,3.8c0.1,2.6-0.6,5.7,3.2,6.2c3.5,0.5,4.3,2.9,4.3,5.7c0.1,5.8,0,11.6,0,17.4h0.2
			c0,3.8,0,7.6,0,11.5c0,8.6,0,8.4,8.7,8.6c3.4,0,4.6-0.8,4.5-4.4c-0.2-10.8,0-21.6-0.1-32.4c-0.1-4,1.8-6.2,5.5-6.2
			c5.9,0,4.3-4,4.6-7.2c0.3-4.2-2.8-2.7-4.7-2.9c-2.2-0.2-4.4-0.4-5.2-2.9c-0.7-2.4-0.2-4.6,1.5-6.5c2-2.1,4.5-3,7.2-2.5
			c4.2,0.8,4-2.5,4.7-4.8C156.9,220.5,154.6,219.9,152.4,219.3z M58.2,147.3c2.2,0,4.3,0.1,6.5,0c2.4-0.2,3.2,0.7,3.2,3.1
			c-0.1,6,0,12,0,18c0,5.5,0.2,11-0.1,16.5c-0.2,3.9,0.2,5.9,5.2,5.8c4.6-0.1,5-1.8,4.9-5.6c-0.2-8.5-0.1-17-0.1-25.4
			c0-11.1,0-11.1,11-12.5c2.2-0.3,4.3-0.6,4-3.8c-0.2-2.9-1.3-4-4.3-3.9c-10.1,0.2-20.3,0.1-30.4,0c-3,0-4.9,0.1-4.9,4.1
			C53,147.8,55.5,147.3,58.2,147.3z M124.8,167c0.1,6.7,0.4,13.3,0.2,20c-0.1,3.7,2,3.5,4.4,3.4c2.3-0.1,4.6,0.6,4.5-3.3
			c-0.3-7.6,0-15.3-0.2-23c-0.2-7.9-5.9-12.4-13.7-10.8c-2.6,0.5-5,1.8-7.4,2.8c-1.8,0.8-2.7,0.7-2.7-1.7c0.1-3.8-0.2-7.7,0.1-11.5
			c0.2-3.4-1.5-3.7-4.2-3.7c-2.5,0-4.4-0.1-4.3,3.5c0.3,7.1,0.1,14.3,0.1,21.5c0,7.5,0.1,15-0.1,22.5c-0.1,2.9,1,3.4,3.7,3.6
			c4.1,0.3,5-1.2,4.9-5c-0.2-6.3-0.6-12.7,0.5-18.9c0.8-4.2,3.4-7,7.9-6.9C123.1,159.6,124.7,162.8,124.8,167z M158,191.5
			c8.5,0.9,13.6-1.9,17.3-9.8c-4-2-7.2-0.9-10.4,1.4c-4.3,3-8.8,2-11.5-2.3c-0.9-1.4-2-2.9-1.2-4.6c0.8-1.7,2.6-1.8,4.3-1.8
			c5,0,10-0.1,15,0c4.1,0.1,5.6-2,5.4-5.9c-0.4-7.5-6.3-14.1-14-15.3c-8.6-1.4-16.4,3-19,10.9c-1.6,4.8-1.6,9.8-0.3,14.7
			C145.4,186.8,149.8,190.7,158,191.5z M159.9,159.5c2.6,0.3,4.8,1.2,6.1,3.6c2.4,4.3,1.4,6.1-3.5,6.2c-1.2,0-2.3,0-3.5,0
			c-2.9,0.1-5.9,0.3-6.3-3.6C152.3,162.8,156.4,159.5,159.9,159.5z M83.7,218.5c-17.3-2.4-32,6.1-37.4,22.1
			c-1.2,3.4-1.9,7.1-2.4,10.7c-2,14.8,0.9,28.2,13.8,37.1c12.7,8.7,26.8,9,40.2,1.7c12.9-7,16.9-19.3,16.7-33.3c0-2.2,0.1-4.3,0-6.5
			C113.3,232.8,101.9,221.1,83.7,218.5z M97.7,270.7c-3.1,8.1-9.4,11.9-17.7,12.2c-8.1,0.3-14.5-3.1-18.2-10.7
			c-5.1-10.6-5-21.2,0-31.7c3.2-6.7,9.6-10.3,17.4-10.3c10.5,0.1,16.7,5.3,19.6,15.6C101.3,254.4,100.8,262.6,97.7,270.7z
			 M682.7,165.5c1.4-0.2,1.7-1.5,2.5-2.3c2.7-2.7,6-4.2,9.6-4.9c5.1-0.9,10,1.4,12.4,5.5c2.9,4.9,2.6,10.5-1.4,15.3
			c-5.8,6.9-11.9,13.4-17.9,20.2c-3.3,3.7-5.7,7.7-5.2,13c0.3,3.1,1.4,4.2,4.8,3.6c8.1-1.5,15.9-0.8,22.9,4.1
			c0.8,0.5,1.4,1.6,2.6,0.8c0.7-17.1,1.5-34.2,2-51.3c0.3-9.9-6.1-17.4-15.6-18.8C690.1,149.3,682,156.6,682.7,165.5z M651.3,224.3
			c1.3,0,2.3-0.4,2.5-1.8c0.1-1.4-0.7-2.1-2.1-2.3c-1.3-0.1-2.7-0.2-4-0.2c-11.3,0-22.6,0-34,0v-0.1c-11.8,0-23.6,0-35.5,0
			c-1.8,0-4.6-0.1-4.6,1.9c0,2.2,2.7,2.5,4.7,2.5c4,0,8,0.1,12,0c7.8-0.1,7.9,0,8,7.6c0.1,14.6,0.3,29.3,0.4,43.9
			c0.1,7.8,0.3,15.6,0.3,23.5c0,3.9,2,4.5,5.2,3.7c2.8-0.7,2.1-3.1,2.1-4.9c0-22.3-0.1-44.6-0.2-66.9c0-6.7,0.2-7,7.2-6.9
			c9,0,18,0,27,0.1C644,224.3,647.7,224.2,651.3,224.3z M257.8,278.3c-1.9,4.1-5.2,5.5-9.2,5.5c-4.2,0-8-1.6-9.8-5.7
			c-3.3-7.6-3.7-15.6-0.3-23.2c3.1-7.1,13.6-8.4,17.7-2c2.4,3.9,5,4,8.5,3.1c1.5-0.3,2.9-0.7,4.4-0.9c1.9-0.2,2.6-0.6,1.5-2.8
			c-4.5-8.8-11.3-13.7-21.4-13.4c-15,0.1-23.6,6.9-25.4,20.5c-0.8,5.9-0.7,11.9,0.5,17.9c1.7,7.9,6.4,13,13.8,15.6
			c5.1,1.8,10.4,2.1,15.7,1.3c8.3-1.3,15.2-7.2,17.3-15.2c0.3-1.1,0.9-2.2-0.3-3.2C267.6,273.1,259.6,274.4,257.8,278.3z
			 M745.6,183.8c0-39.8,0-79.6,0-119.4c0-15.9-9-25.1-25-25.1c-78.4,0-156.9,0-235.3,0c-17,0-25.6,8.4-25.6,25.4
			c-0.1,79.3-0.1,158.6,0,237.8c0,15.8,9.1,24.7,24.8,24.7c78.8,0,157.6,0,236.3,0c16.1,0,24.8-8.9,24.8-25.1
			C745.5,262.7,745.6,223.2,745.6,183.8z M743.2,302.4c0,15.5-7.5,22.8-23.1,22.8c-78.4,0-156.9,0-235.3,0
			c-14.1,0-22.4-8.2-22.4-22.2c0-79.9,0-159.9,0.1-239.8c0-13.8,7.2-20.9,20.9-21c39.8,0,79.6,0,119.4,0c39.6,0,79.3,0,118.9,0
			c14.4,0,21.5,7.1,21.5,21.4C743.2,143.2,743.2,222.8,743.2,302.4z M576.1,180.1c0.7-1.7,1-3.6,1-5.4c0.1-16.1,0.3-32.3-0.1-48.4
			c-0.3-12.2-7.3-19.8-19.5-21.5c-11.2-1.6-22.5-1.8-33.9-1.7c-14.5,0.2-22.1,7.7-22.4,22.1c-0.3,15-0.7,30-0.9,44.9
			c0,3-0.9,5.1-3.5,6.6c-2.5,1.5-4.4,3.4-4.7,6.6c-0.4,3.4-2.6,4.9-5.9,4.6c-4.8-0.5-6,2.1-6,6.3c0.1,14.3,0.1,28.6,0.1,43
			c0,5.8,1,6.7,6.7,6.7c9,0.1,18,0.1,27,0c3-0.1,4.1,0.7,4,3.9c-0.2,4.8-0.1,9.7,0.1,14.5c0.3,4.8,3.1,7.1,7.9,6.9
			c6.5-0.3,10.2-4.7,10.2-12.3c0.1-18.6,0.2-37.3,0.2-55.9c0-3.9,0.5-7.7,2-11.4c0.7,3,1,6,1,9.1c0.1,19.1,0.1,38.3,0.2,57.4
			c0,2.3,0.2,4.7,0.7,6.9c1.1,4.6,4.9,7.3,9.5,7.2c4.9-0.1,7.1-3.2,8-7.4c0.4-1.9,0.4-4,0.4-6c0.3-39,0.6-77.9,1-116.9
			c0-2.2-0.6-4.6,1.4-6.9c1.8,2.4,1.5,4.9,1.5,7.3c0.1,11,0.1,22,0.1,33c0,2.3,0,4.7,1,6.9c1.2,2.7,3.1,4.2,6.2,4.2
			C572.6,184.4,574.9,183,576.1,180.1z M510.1,187.2c-0.5,1.8-2.2,0.9-3.3,1c-1,0.1-2,0-3.4,0c-2.3-0.9-7.2,2.2-7.1-4.1
			c0-2.2,0.9-3.4,3.3-3.2c3.1,0.3,6.3,0,8.9,2.3C509.7,184.3,510.5,185.7,510.1,187.2z M518.2,186.3c-0.1,0.6-0.7,1.3-1.1,1.4
			c-0.9,0.2-1.5-0.6-1.6-1.5c-0.4-2.8-0.9-5.6-0.9-8.4c-0.1-13,0-26,0-39c0-2.3,0-4.6,1.9-6.4c2.1,1.2,2,3.1,2,4.9
			c0,15.3,0,30.6,0,45.9C518.5,184.3,518.5,185.3,518.2,186.3z M723.5,191.6c0-8-0.1-16-0.2-24c0-2.1-0.8-3.5-3.3-3.4
			c-2.4,0-2.6,1.7-2.6,3.4c0,1.8-0.1,3.7-0.1,5.5c0,23.1-0.1,46.3-0.1,69.4c0,6.9-0.8,7.6-7.8,7.6c-14.8,0-29.6,0-44.4-0.2
			c-2.9,0-4.5,0.2-4.5,3.9c0.2,15.5,0.2,31,0,46.4c0,3.4,1.3,3.8,4.2,3.7c2.6,0,4.2,0,4.2-3.6c-0.1-11.3,0.4-22.6,0.5-34
			c0.1-4.7,1.8-6.9,6.9-6.9c11.5-0.1,23,0.1,34.5,0.5c4.8,0.2,6.8,2.1,6.7,7c-0.2,11.2,0,22.3-0.1,33.5c0,2.1,0.2,3.5,2.9,3.5
			c2.4,0,3.3-0.8,3.3-3.1c-0.1-1.7,0.1-3.3,0.1-5c0-20.5,0-41,0-61.4h0C723.5,220.3,723.6,206,723.5,191.6z M699.8,244.4
			c8.6-1.4,13.2-6.7,12.4-14c-0.7-7.4-6.7-12.3-15.6-12.3c-0.4,0-1.4,0-2.4,0.2c-15.3,2.9-30.6,5.8-45.9,8.9c-5,1-8.1,4.4-9.3,9.3
			c-1.1,4.3-2.1,8.7-3.2,13c-3.7,14.1-7.4,28.2-11.1,42.4c-1.1,4.4,1.1,8.4,5.3,10c4.2,1.5,7.5,0,9.7-4.5c0.6-1.2,1.1-2.4,1.5-3.7
			c4.4-13,8.8-26.1,13.1-39.2c1.6-4.9,4.4-7.2,9.7-7.5C675.9,246.2,687.9,246.3,699.8,244.4z M309.6,239.5
			c-13.7-2.8-25.8,4.8-29.2,18.3c-1.4,5.6-1.1,11.1-0.3,16.8c2.8,20.2,24.9,24.3,37.7,17.1c3.9-2.2,6.6-5.6,8.4-9.6
			c0.4-0.8,1.1-1.7,0-2.7c-2.3-2-11.5-1.5-13.3,0.9c-2.8,3.8-6.3,5.1-10.9,3.9c-4.7-1.2-7.2-4.6-8.5-8.9c-0.9-3.1,0-5.2,3.8-5.1
			c4.5,0.1,9,0,13.5,0c4.7,0,9.3,0,14,0c2.1,0,3.4-0.5,3.7-3C330.3,254.5,321.8,242,309.6,239.5z M312.1,262.3c-2.3-0.1-4.7,0-7,0v0
			c-2,0-4,0.1-6,0c-4.6-0.1-6.2-2.6-4.5-6.8c1.9-4.5,7.4-7.3,12.4-6.1c4.4,1.1,7.7,5.7,7.7,10.4
			C314.7,261.9,313.9,262.3,312.1,262.3z M694.6,144.7c7.3,0.1,12.9-6.5,13.1-15.3c0.2-8.7-6.8-16.5-14.7-16.5
			c-7.6,0-12.8,6-12.8,14.8C680.1,137.5,686.1,144.6,694.6,144.7z M539.9,99.1c8.1,0.1,15.4-7.5,15.2-15.9
			c-0.2-8.7-7.8-16.6-16.1-16.6c-8.1,0-14.8,7.4-14.7,16.3C524.4,91.6,531.5,99,539.9,99.1z M635.8,217.9
			c10.1-1.7,21.1-3.5,32.1-5.3c4.5-0.7,7.9-3.2,10.8-6.6c7.3-8.9,14.7-17.6,22-26.5c5.7-7,6-12,1.1-16c-5-4.1-9.7-2.8-15.4,4.4
			c-5.9,7.4-11.6,15-17.5,22.4c-2.9,3.7-6.5,6.1-11.1,7.1c-8.2,1.8-16.5,3.9-24.7,5.8c-5.7,1.4-7.6,3.7-7,8.4
			C626.7,215.6,630.2,218.1,635.8,217.9z"/>
	</g>
</g>
<g>
	<g>
		<path d="M79.2,230.3c-7.9-0.1-14.3,3.6-17.4,10.3c-5,10.5-5.1,21.1,0,31.7c3.7,7.6,10.1,10.9,18.2,10.7c8.3-0.3,14.6-4,17.7-12.2
			c3.1-8.1,3.6-16.3,1.2-24.9C96,235.6,89.7,230.4,79.2,230.3z M159,169.3c1.2,0,2.3,0,3.5,0c4.9,0,6-1.9,3.5-6.2
			c-1.4-2.4-3.6-3.3-6.1-3.6c-3.5,0-7.5,3.3-7.2,6.1C153.1,169.6,156.1,169.4,159,169.3z M743.2,17.2c-232.5,0.2-465.1,0.2-697.6,0
			c-12.7,0-21.5,4-26,16.2v299.8c4.4,11.8,12.9,16.2,25.4,16.1c232.7-0.2,465.4-0.2,698.1,0c12.7,0,21.5-4,25.9-16.2V33.4
			C764.7,21.2,755.9,17.2,743.2,17.2z M143.7,164.1c2.6-7.9,10.4-12.3,19-10.9c7.7,1.2,13.6,7.8,14,15.3c0.2,4-1.2,6-5.4,5.9
			c-5-0.1-10,0-15,0c-1.7,0-3.5,0-4.3,1.8c-0.8,1.7,0.4,3.2,1.2,4.6c2.8,4.3,7.2,5.4,11.5,2.3c3.3-2.3,6.4-3.4,10.4-1.4
			c-3.7,7.9-8.8,10.7-17.3,9.8c-8.2-0.9-12.6-4.8-14.6-12.7C142.1,173.9,142.1,169,143.7,164.1z M57.9,139.4
			c10.1,0.1,20.3,0.2,30.4,0c3-0.1,4.1,1.1,4.3,3.9c0.3,3.2-1.8,3.5-4,3.8c-11,1.4-11,1.4-11,12.5c0,8.5-0.2,17,0.1,25.4
			c0.1,3.7-0.3,5.5-4.9,5.6c-4.9,0.1-5.4-1.9-5.2-5.8c0.3-5.5,0.1-11,0.1-16.5c0-6-0.1-12,0-18c0.1-2.4-0.8-3.3-3.2-3.1
			c-2.2,0.2-4.3,0-6.5,0c-2.7,0-5.2,0.5-5.1-3.8C53.1,139.5,54.9,139.3,57.9,139.4z M114.6,256.8c0.3,14-3.7,26.4-16.7,33.3
			c-13.4,7.2-27.5,7-40.2-1.7c-12.9-8.9-15.8-22.3-13.8-37.1c0.5-3.6,1.2-7.2,2.4-10.7c5.4-16,20.1-24.6,37.4-22.1
			c18.1,2.6,29.6,14.3,30.8,31.8C114.7,252.5,114.6,254.6,114.6,256.8z M110.6,166.4c-1.2,6.3-0.7,12.6-0.5,18.9
			c0.1,3.8-0.8,5.4-4.9,5c-2.7-0.2-3.8-0.7-3.7-3.6c0.2-7.5,0.1-15,0.1-22.5c0-7.2,0.2-14.3-0.1-21.5c-0.1-3.6,1.7-3.5,4.3-3.5
			c2.7,0,4.5,0.2,4.2,3.7c-0.3,3.8,0,7.7-0.1,11.5c-0.1,2.4,0.8,2.5,2.7,1.7c2.4-1,4.8-2.3,7.4-2.8c7.8-1.7,13.5,2.9,13.7,10.8
			c0.2,7.7-0.1,15.3,0.2,23c0.2,3.9-2.2,3.3-4.5,3.3c-2.4,0.1-4.5,0.3-4.4-3.4c0.2-6.6-0.1-13.3-0.2-20c-0.1-4.1-1.6-7.3-6.3-7.4
			C114.1,159.5,111.4,162.2,110.6,166.4z M151.3,228.4c-2.8-0.5-5.3,0.3-7.2,2.5c-1.7,1.9-2.3,4.1-1.5,6.5c0.8,2.5,3,2.7,5.2,2.9
			c2,0.2,5.1-1.2,4.7,2.9c-0.2,3.2,1.3,7.3-4.6,7.2c-3.7,0-5.5,2.2-5.5,6.2c0.1,10.8-0.1,21.6,0.1,32.4c0.1,3.6-1.1,4.4-4.5,4.4
			c-8.7-0.1-8.7,0-8.7-8.6c0-3.8,0-7.6,0-11.5h-0.2c0-5.8,0.1-11.6,0-17.4c-0.1-2.8-0.9-5.2-4.3-5.7c-3.8-0.5-3.1-3.7-3.2-6.2
			c-0.1-2.8,1.4-4,4-3.8c3.2,0.2,3.8-1.4,3.8-4.2c0.3-14.5,8.5-20.4,23.1-16.6c2.2,0.6,4.4,1.3,3.5,4.2
			C155.3,225.9,155.4,229.2,151.3,228.4z M190.6,224.8c-0.4,2.8-1.6,4-4.6,3.6c-3.3-0.5-6.3,0-7.8,3.7c-2.1,5.2-0.4,8,5.2,8
			c3.6-0.1,4.8,1.8,4.8,4.8c0,3.1-0.9,5.8-4.9,5.3c-5-0.7-6,2-5.8,6.2c0.2,5.3,0,10.7,0,16c0,5.5-0.4,11,0.1,16.5
			c0.6,5.9-3.6,4.8-6.7,5.2c-3.4,0.4-6.5-0.2-6.5-4.7c-0.1-8.7-0.1-17.3-0.2-26c0-2.7,0-5.3-0.1-8c-0.1-2.7-1.1-4.8-4.2-5.2
			c-2.1-0.3-3.8-0.9-3.7-3.7c0.1-2.6,0.5-5.7,3.3-6c4.9-0.5,4.6-4,5-7.2c1.3-12.1,10.5-18.2,22-14.7
			C189.6,219.6,191.1,221.4,190.6,224.8z M209.5,266.6c0,7.5-0.1,15,0.1,22.4c0.1,3-0.5,4.4-4,4.3c-8.9-0.1-8.9,0.1-8.9-8.9
			c0-12.6,0-25.3-0.1-37.9c0-2.3-0.4-5.4,2.3-6c3.1-0.7,6.6-0.5,9.9,0c1.3,0.2,0.7,2.3,0.7,3.6C209.6,251.6,209.5,259.1,209.5,266.6
			z M203.6,232.3c-2.9-0.8-7.6,2-7.1-4.5c0.5-6.7,1.6-8.6,6.8-8.6c5.4,0,7.1,2.1,7.1,10C210.3,235.2,205.4,230.6,203.6,232.3z
			 M271.2,279.1c-2.1,8-9,13.9-17.3,15.2c-5.4,0.8-10.7,0.5-15.7-1.3c-7.4-2.6-12.1-7.7-13.8-15.6c-1.3-6-1.3-12-0.5-17.9
			c1.8-13.6,10.4-20.4,25.4-20.5c10.1-0.3,16.9,4.6,21.4,13.4c1.1,2.2,0.4,2.5-1.5,2.8c-1.5,0.2-2.9,0.5-4.4,0.9
			c-3.5,0.8-6.1,0.7-8.5-3.1c-4-6.4-14.5-5.1-17.7,2c-3.4,7.7-3,15.6,0.3,23.2c1.8,4.1,5.5,5.7,9.8,5.7c4,0,7.3-1.4,9.2-5.5
			c1.8-4,9.8-5.3,13.1-2.4C272.1,277,271.5,278.1,271.2,279.1z M328.6,267.3c-0.3,2.5-1.6,3-3.7,3c-4.7,0-9.3,0-14,0
			c-4.5,0-9,0.1-13.5,0c-3.8-0.1-4.7,2-3.8,5.1c1.3,4.4,3.8,7.7,8.5,8.9c4.5,1.2,8.1-0.1,10.9-3.9c1.8-2.5,10.9-3,13.3-0.9
			c1.1,0.9,0.3,1.9,0,2.7c-1.8,4-4.5,7.4-8.4,9.6c-12.8,7.2-34.9,3.1-37.7-17.1c-0.8-5.7-1.1-11.2,0.3-16.8
			c3.3-13.6,15.4-21.2,29.2-18.3C321.8,242,330.3,254.5,328.6,267.3z M745.6,183.8c0,39.5,0,78.9,0,118.4c0,16.2-8.7,25.1-24.8,25.1
			c-78.8,0-157.6,0-236.3,0c-15.7,0-24.8-9-24.8-24.7c0-79.3,0-158.6,0-237.8c0-16.9,8.6-25.4,25.6-25.4c78.4,0,156.9,0,235.3,0
			c16,0,25,9.2,25,25.1C745.5,104.2,745.6,144,745.6,183.8z M721.7,42.2c-39.6,0-79.3,0-118.9,0c-39.8,0-79.6,0-119.4,0
			c-13.8,0-20.9,7.2-20.9,21c-0.1,79.9-0.1,159.9-0.1,239.8c0,14,8.4,22.2,22.4,22.2c78.4,0,156.9,0,235.3,0
			c15.6,0,23.1-7.3,23.1-22.8c0-79.6,0-159.2,0-238.8C743.2,49.3,736,42.2,721.7,42.2z M715,169.5c-0.6,17.1-1.3,34.2-2,51.3
			c-1.2,0.8-1.8-0.3-2.6-0.8c-7-4.9-14.8-5.6-22.9-4.1c-3.4,0.6-4.5-0.5-4.8-3.6c-0.5-5.3,1.9-9.3,5.2-13c6-6.7,12.1-13.3,17.9-20.2
			c4-4.8,4.3-10.4,1.4-15.3c-2.4-4.1-7.3-6.4-12.4-5.5c-3.6,0.6-6.9,2.2-9.6,4.9c-0.8,0.8-1.1,2.1-2.5,2.3
			c-0.7-9,7.5-16.2,16.7-14.9C708.9,152.1,715.3,159.6,715,169.5z M693,112.9c7.9,0,14.8,7.8,14.7,16.5c-0.2,8.9-5.8,15.4-13.1,15.3
			c-8.4-0.1-14.4-7.2-14.4-17.1C680.2,118.9,685.4,112.9,693,112.9z M633.2,203.3c8.2-1.9,16.4-4,24.7-5.8c4.6-1,8.2-3.5,11.1-7.1
			c5.8-7.5,11.6-15,17.5-22.4c5.7-7.2,10.4-8.5,15.4-4.4c4.9,4,4.6,9.1-1.1,16c-7.3,8.9-14.7,17.6-22,26.5
			c-2.9,3.5-6.3,5.9-10.8,6.6c-11,1.8-21.9,3.6-32.1,5.3c-5.6,0.1-9.2-2.4-9.7-6.3C625.5,206.9,627.5,204.6,633.2,203.3z M539,66.6
			c8.2,0,15.9,7.9,16.1,16.6c0.2,8.4-7.1,16-15.2,15.9c-8.4-0.1-15.5-7.5-15.6-16.2C524.2,74,531,66.6,539,66.6z M563.3,180.2
			c-1-2.2-1-4.5-1-6.9c0-11,0-22-0.1-33c0-2.4,0.3-4.9-1.5-7.3c-1.9,2.3-1.3,4.7-1.4,6.9c-0.4,39-0.7,77.9-1,116.9c0,2,0,4-0.4,6
			c-0.9,4.2-3.1,7.3-8,7.4c-4.6,0.1-8.4-2.6-9.5-7.2c-0.5-2.2-0.7-4.6-0.7-6.9c-0.1-19.1-0.1-38.3-0.2-57.4c0-3-0.3-6-1-9.1
			c-1.5,3.7-2,7.5-2,11.4c-0.1,18.6-0.1,37.3-0.2,55.9c0,7.6-3.7,11.9-10.2,12.3c-4.8,0.3-7.6-2-7.9-6.9c-0.3-4.8-0.4-9.7-0.1-14.5
			c0.1-3.2-1-3.9-4-3.9c-9,0.2-18,0.1-27,0c-5.7,0-6.6-1-6.7-6.7c-0.1-14.3,0-28.6-0.1-43c0-4.3,1.2-6.8,6-6.3
			c3.4,0.3,5.5-1.2,5.9-4.6c0.4-3.2,2.2-5.1,4.7-6.6c2.6-1.5,3.5-3.6,3.5-6.6c0.2-15,0.6-30,0.9-44.9c0.3-14.4,7.9-21.9,22.4-22.1
			c11.3-0.1,22.7,0.1,33.9,1.7c12.1,1.7,19.2,9.3,19.5,21.5c0.4,16.1,0.2,32.3,0.1,48.4c0,1.8-0.4,3.7-1,5.4
			c-1.1,2.9-3.4,4.3-6.6,4.3C566.4,184.4,564.4,182.9,563.3,180.2z M606.2,231.1c0.1,22.3,0.1,44.6,0.2,66.9c0,1.9,0.8,4.2-2.1,4.9
			c-3.1,0.8-5.2,0.2-5.2-3.7c0-7.8-0.2-15.6-0.3-23.5c-0.2-14.6-0.3-29.3-0.4-43.9c-0.1-7.6-0.2-7.7-8-7.6c-4,0-8,0-12,0
			c-2,0-4.7-0.3-4.7-2.5c0-1.9,2.8-1.9,4.6-1.9c11.8,0,23.6,0,35.5,0v0.1c11.3,0,22.6,0,34,0c1.3,0,2.7,0.1,4,0.2
			c1.3,0.1,2.2,0.9,2.1,2.3c-0.1,1.5-1.1,1.8-2.5,1.8c-3.7,0-7.3,0-11,0c-9,0-18,0-27-0.1C606.5,224.2,606.2,224.4,606.2,231.1z
			 M654.2,254.5c-4.2,13.1-8.7,26.1-13.1,39.2c-0.4,1.3-0.9,2.5-1.5,3.7c-2.2,4.6-5.4,6.1-9.7,4.5c-4.2-1.5-6.4-5.6-5.3-10
			c3.6-14.1,7.4-28.2,11.1-42.4c1.1-4.3,2.1-8.7,3.2-13c1.2-5,4.4-8.3,9.3-9.3c15.3-3.1,30.6-6,45.9-8.9c1-0.2,2-0.2,2.4-0.2
			c8.9,0.1,14.8,5,15.6,12.3c0.7,7.3-3.8,12.6-12.4,14c-11.8,1.9-23.9,1.9-35.8,2.6C658.7,247.3,655.8,249.6,654.2,254.5z
			 M723.6,296c0,1.7-0.2,3.3-0.1,5c0.1,2.3-0.9,3.1-3.3,3.1c-2.7,0-2.9-1.4-2.9-3.5c0-11.2-0.2-22.3,0.1-33.5c0.1-4.9-1.8-6.9-6.7-7
			c-11.5-0.4-23-0.6-34.5-0.5c-5.1,0-6.8,2.3-6.9,6.9c-0.1,11.3-0.5,22.6-0.5,34c0,3.5-1.6,3.5-4.2,3.6c-2.8,0-4.2-0.4-4.2-3.7
			c0.2-15.5,0.2-31,0-46.4c-0.1-3.7,1.5-4,4.5-3.9c14.8,0.1,29.6,0.1,44.4,0.2c7,0,7.8-0.7,7.8-7.6c0-23.1,0.1-46.3,0.1-69.4
			c0-1.8,0-3.7,0.1-5.5c0-1.7,0.2-3.4,2.6-3.4c2.4,0,3.2,1.4,3.3,3.4c0.1,8,0.2,16,0.2,24c0,14.3,0,28.6,0,43h0
			C723.6,255.1,723.6,275.6,723.6,296z M516.5,132.5c-2,1.8-1.9,4.1-1.9,6.4c0,13-0.1,26,0,39c0,2.8,0.6,5.6,0.9,8.4
			c0.1,0.9,0.6,1.7,1.6,1.5c0.5-0.1,1-0.9,1.1-1.4c0.3-0.9,0.3-2,0.3-3c0-15.3,0-30.6,0-45.9C518.5,135.6,518.6,133.7,516.5,132.5z
			 M508.5,183.3c-2.6-2.2-5.8-2-8.9-2.3c-2.4-0.2-3.3,1-3.3,3.2c-0.1,6.2,4.8,3.2,7.1,4.1c1.4,0,2.4,0.1,3.4,0
			c1.2-0.2,2.9,0.8,3.3-1C510.5,185.7,509.7,184.3,508.5,183.3z M307,249.3c-4.9-1.2-10.5,1.6-12.4,6.1c-1.7,4.2-0.1,6.6,4.5,6.8
			c2,0.1,4,0,6,0v0c2.3,0,4.7-0.1,7,0c1.8,0.1,2.7-0.4,2.6-2.5C314.7,255.1,311.4,250.4,307,249.3z"/>
	</g>
</g>
</svg>
