<?xml version="1.0" encoding="utf-8"?>
<!-- Generator: Adobe Illustrator 21.0.0, SVG Export Plug-In . SVG Version: 6.00 Build 0)  -->
<svg version="1.1" id="Слой_1" xmlns="http://www.w3.org/2000/svg" xmlns:xlink="http://www.w3.org/1999/xlink" x="0px" y="0px"
	 viewBox="0 0 500 500" style="enable-background:new 0 0 500 500;" xml:space="preserve">
<style type="text/css">
	.st0{fill:#E0AB27;}
</style>
<g>
	<g>
		<path d="M369,45.1c-4.9,0-9.9,0-14.8,0c-11.4,0-13.6,1.8-16.5,13c-1,3.9-1.1,8.3-6.3,11.3c1.6-9.1-4.1-10.8-10.2-12
			c-17.8-3.5-35.9-4.3-54-4.6c-28-0.4-55.9-0.6-83.6,4.5c-6.4,1.2-12.2,3-10.6,12.8c-6.4-4.4-6.3-9.9-7.5-14.7
			c-1.9-7.2-6-10.8-13.6-10.4c-4.9,0.3-9.9,0.1-14.8,0.1c-12.6,0-15.4,2.7-14.3,15.6c3.8,43.9,14.3,86.1,33.3,126
			c16.8,35.3,40.7,65.2,68.6,92.3c6.7,6.5,9.6,13.5,9.4,23c-0.2,12.4-3.2,23.6-12,32c-8.7,8.3-19.1,14.3-32.2,11.8
			c-1.1-0.2-2.4,0.1-3.5-0.1c-7.7-1.4-11.8,1.6-12.6,9.6c-0.4,4.4-0.7,10.6-3.5,12.5c-6.6,4.5-6,11.2-7.9,17.1
			c-2.4,7.8-4.4,15.8-6.1,23.9c-2.7,12.4-7.5,24.3-8.3,37c-0.6,9-0.1,9.2,8.7,9.2c62.3,0,124.5,0,186.8,0c13.5,0,15.1-2.1,12-15.7
			c-0.1-0.2-0.2-0.4-0.2-0.7c-5.3-20.9-10.6-41.9-15.9-62.8c-0.3-1.4-0.4-3.4-1.3-3.9c-7.3-4.1-6.8-11.8-8.1-18.2
			c-1.3-6.3-3.9-8.5-10.3-8.2c-11.6,0.5-22.8,1-33.1-7.5c-9-7.5-14.5-16.4-16-27.1c-1.7-11.7-2.4-24.1,9.3-32.6
			c2.4-1.8,4.3-4.4,6.4-6.5c47.8-46.9,76.5-103.9,89.1-169.4c2.8-14.8,5.4-29.6,6.1-44.6C381.8,48,378.7,45.2,369,45.1z M337,378.8
			c4.7,19.4,9.7,38.7,14.5,58c0.5,2,1,4.1,1.2,6.2c0.9,8.8,0.7,8.9-8.3,8.9c-31,0-62,0-93.1,0c-31,0-62-0.3-93,0.2
			c-7,0.1-7.9-2.6-7.3-8.1c1.1-9.6,4.3-18.7,6.5-28.1c2.9-12.3,6.3-24.5,9.2-36.9c1.1-4.9,3.1-6.8,8.5-6.8
			c51.2,0.2,102.4,0.2,153.7,0C334.1,372.3,335.9,374.3,337,378.8z M317.7,349c6,0,8.5,1.5,9.7,7.6c2.4,12.3,2.8,12.2-9.5,12.2
			c-22.1,0-44.1,0-66.2,0v0.1c-23.7,0-47.4-0.1-71.1,0.1c-5.4,0.1-7-1-5.4-6.7c3.6-13.1,3.4-13.2,17.2-13.2
			C234.2,349.1,276,349.2,317.7,349z M378.1,58.4c-0.9,11.2-2.2,22.4-4.1,33.5c-7.9,46.6-23.4,90.3-49.9,129.7
			c-13.7,20.4-29.8,38.8-47.6,55.5c-12.6,11.8-11,25.7-7.8,39.6c2.7,12.1,9.8,21.8,21.4,28.1h-76.6c1.3-2.5,3.6-3.4,5.4-4.5
			c11.8-7.7,16.2-19.3,18-32.7c1.9-14.6-3.5-25.2-14.1-35.3c-47.8-45.4-77-101.2-90.2-165.5c-3.2-15.6-6.1-31.4-6.7-47.4
			c-0.4-10.3,0.8-11.5,10.9-11.5c4.5,0,8.9,0,13.4,0c8.9,0,10.7,1.4,12.8,10.5c0.9,3.7,1.6,7.4,3.8,10.5c1.7,2.4,4,4.2,7.1,3.6
			c3.5-0.7,2.4-3.7,2.2-5.8c-0.3-4.2,2.5-5.1,5.6-5.9c11.2-3,22.7-3.9,34.2-4.4c32.2-1.2,64.4-1.9,96.4,2.3
			c3.7,0.5,7.4,1.3,11.1,2.1c3.7,0.8,5.9,2.6,5.3,6.8c-0.2,1.8-0.7,4,1.7,4.7c2.3,0.7,4.1-0.7,5.6-2.2c2.9-3,3.8-6.9,4.7-10.8
			C343,49.1,344.3,48,354.7,48c4.5,0,8.9,0,13.4,0C376.8,48.1,378.8,49.7,378.1,58.4z M285.4,400c0-8-4.5-12.7-12.5-12.8
			c-2.8,0-5.6,0-8.4,0.2c-0.8,0.1-2,0.4-2.4,1c-0.9,1.4,0.6,1.7,1.3,2.5c3.7,4.3,2.5,15.8-3,20.7c5,0.3,8.6,0.5,12.2,0.6
			C280.9,412.4,285.4,408,285.4,400z M269.4,399.6c1.5-3-2.4-8.5,4.1-8.6c5.6-0.1,7.6,3.7,7.6,8.8c0,4.9-1.5,9-7.5,8.7
			C266.5,408.3,271.3,402.4,269.4,399.6z M209.1,435.4c-1.1-3.8-2.5-7.5-3.9-11.3c-0.8-2.1-1-5-4.2-4.8c-2.6,0.2-2.7,2.8-3.6,4.7
			c-2.9,6.2-2.9,13.7-9.5,18.6c3.3,2.2,5.9,1,8.4,1.2c2.7,0.2,5.5-0.3,1.3-3.2c-1.9-1.4-1.4-3.4-0.2-4.2c2.2-1.4,5.1-1.6,7.3,0
			c1.4,1,2.5,3.1-0.4,4.4c-2.4,1.1-2.1,2.9,0.2,2.9c3.4,0.1,7.2,1.5,11-1.9C211.8,440.6,210,438.5,209.1,435.4z M202.7,431.5
			c-0.2,0.4-2.1,0.5-2.4,0.1c-1.9-2.2,0.1-4.1,0.7-8.1C202.2,427.4,203.8,429.2,202.7,431.5z M195.6,412.2
			c8.4,0.2,12.6-3.4,12.8-11.4c0.3-8.9-3.9-13.5-12.4-13.5c-2.8,0-5.6,0.1-8.4,0.1c-1,0-1.9,0.1-2.3,1.1c-0.5,1.2,0.6,1.4,1.1,2.1
			c4.3,5.2,3.5,15.7-3,21.5C188.7,412.2,192.2,412.1,195.6,412.2z M197.3,390.9c5.7,0.3,7.2,4.3,7.5,8.4c0,3.4-0.9,5.8-2.7,7.7
			c-2,2.1-4.8,1.9-7.2,1.4c-2.9-0.7-1.8-3.4-2-5.3c-0.1-1.4-0.3-2.8,0-4.2C193.5,395.8,190.6,390.6,197.3,390.9z M313,412.1
			c8.7,0.1,9.9-1.5,5.9-10.5c-0.9,5.2-3,8.4-8.8,6.9c-2.7-0.7-1.8-2.9-2-4.6c-0.1-1.1-0.2-2.6,1.2-2.9c2.4-0.4,2.3,1.6,2.8,3.2
			c0.3,1,1,1.6,2.5,0.8c0.6-4,1.2-8.1-0.4-12.1c-2.3,0-1.9,1.5-2.5,2.3c-2.2,3.2-3.5,2.3-3.7-1.2c-0.1-2.1,1.3-2.9,3.1-3
			c2.3-0.1,4.8-0.4,5.7,2.7c0.4,1.5-0.2,3.4,1.9,4.2c3.2-5.6,2.6-10.2-1.4-10.4c-9.3-0.4-18.7-0.2-28-0.1c-2,0-2.9,0.8-1.4,3
			c4.5,6.5,4,15.2-2,21.6C295.6,412.1,304.3,412,313,412.1z M295.3,392.6c0.7-2.7,3.2-2.2,5.2-1.9c5.3,0.8,3.4,5.2,3,7.8
			c-0.5,3.5,3.4,8.8-3.1,10.5c-2.1,0.5-4.7,0.4-5.3-1.8c-0.7-2.4-0.1-5.1-0.1-7.6c-0.1,0-0.2,0-0.3,0
			C294.9,397.2,294.7,394.8,295.3,392.6z M246.4,419.6c-6,0.1-10-1.4-14.7,1c9,4.1,2.7,9.3,2.6,14c-1.3-4.1-2.2-8.2-3.2-12.3
			c-0.4-1.6-0.8-3.4-2.9-3.3c-2,0.1-2.6,1.9-2.9,3.5c-0.8,3.9-1.5,7.8-2.2,11.7c-1-4.8-6.5-10,3-14.9c-6.5,0.4-10.4-0.8-15.7,1.6
			c5.4,1.4,6,4.8,6.6,8.3c0.6,3.2,1.5,6.4,2.3,9.6c0.5,2,0.4,4.7,3,4.9c3,0.2,2.6-2.6,3.1-4.6c0.9-3.8,1.9-7.7,3.1-12.9
			c0.8,4.2,1.4,7.1,2,10c0.6,2.8-0.2,7.3,3.7,7.3c3.7,0,3-4.6,3.9-7.3C239.8,430.8,238.7,424.2,246.4,419.6z M177.3,95
			c-0.2-1.9-0.3-3.7-3-3.9c-12.7-0.9-18.8-9.2-21.9-20.5c-0.9-3.3-3-4-5.8-3.6c-4.7,0.6-2.9,4.2-2.7,6.6c3.3,30.7,11.3,60.3,22.7,89
			c10.7,27,24.7,52,43.8,74.9c0.5-1.1,0.8-1.3,0.7-1.5C192.9,190.7,181.3,143.7,177.3,95z M199.9,219.1
			C169.6,174,153,124.4,147.7,70.8c2.7,6.7,6.2,12.5,11.4,17.3c2.3,2.1,4.6,4.4,7.7,4.7c6.5,0.6,7.8,4.3,8.3,10.1
			c3.3,38.5,12.1,75.9,24.9,112.3C200.4,216.4,201.1,217.4,199.9,219.1z M310.8,419.9c-5.7-2.3-11.6-0.1-19-0.6
			c5.1,4.2,7.6,16,5.4,19.6c-0.4,0.7-1.4,1.3-2.2,1.5c-1.6,0.3-1.7-1.1-1.9-2.2c-0.4-1.6,1.1-4.5-1.9-4.3c-2.4,0.2-1.2,3.1-1.7,4.7
			c-0.2,0.7-0.6,1.2-1.4,0.7c-1.3-7.4-1.3-7.4-0.3-10c2.6-6.6,0.6-10.1-6.2-10.4c-4.5-0.2-9,0.4-13.6,0.6c6.3,4.1,3.9,9.9,4.2,14.9
			c0.1,2.5,0.7,5.4-3.1,6.1c-3.5,0.6-5.8-0.7-6.9-4.3c-1.3-4.3-2.8-8.5-4.3-12.7c-0.7-1.9-1-4.5-3.8-4.4c-2.7,0-3.1,2.5-3.8,4.4
			c-2,5.2-4,10.5-6,15.8c-0.5,1.5-3.8,1-2.7,3.3c1,2.3,3.3,0.8,5.1,0.9c1.2,0.1,2.4,0.3,3.5,0.2c0.8-0.1,1.8-0.6,2.2-1.2
			c0.7-1.1-0.3-1.7-1.2-2c-3-0.8-2.5-2.6-1-4.1c1.9-1.8,4.6-1.4,6.6-0.5c1.9,0.8,2.4,2.7,0.2,4.4c-2.4,1.9-1.5,3.3,1.2,3.3
			c6.3,0.2,12.7,0.1,19,0c0.8,0,2-0.4,2.4-1c0.7-1.4-0.4-1.9-1.6-2.3c-3.1-1.1-2.3-3.8-1.9-6c0.4-2.3,2.6-1.5,4.1-1.5
			c3.3,0,3.7,2.2,3.6,4.8c-0.2,2.8,0.5,5.7,3.7,5.9c6.9,0.4,13.8,0.6,20.7,0c6-0.5,8.7-5.1,9.1-10.8
			C317.7,427.3,316.4,422.2,310.8,419.9z M255,431.8c-0.3,0.3-1.6,0.3-1.9,0c-2.1-2.3,0.2-4,0.9-6.8
			C255.6,428,256.7,429.8,255,431.8z M280.2,429.2c-2.1,0.2-4.2,0.2-4.2-3c0-3,1.4-4.1,4.5-4.1c1.9,0.3,4.6,0.1,4.6,3.4
			C285,428.6,282.5,429,280.2,429.2z M305.3,440.2c-7.1-0.4-2.5-6.1-4.1-9c1.4-3.1-2.6-8.8,4.8-8.6c6.1,0.2,7.1,4.4,7.1,9.1
			C313.1,436.6,311.1,440.5,305.3,440.2z M357,67c-3.9-0.3-4.8,1.8-5.8,5.3c-2.3,8.3-7.1,16-15.7,17.4c-8.2,1.4-8.6,5.7-9.1,11.8
			c-2.6,31.9-9.2,63.1-18.6,93.7c-4.1,13.4-9,26.4-14.1,39.6c2,0.1,2.7-0.8,3.4-1.7c36.6-47.1,55.3-101.3,63-159.8
			C360.5,70.9,361.7,67.3,357,67z M305.1,215.4c4-14,8.1-27.4,11.8-40.9c6.4-23.6,10.7-47.6,12.6-71.9c0.4-5.1,1.4-8.2,7.3-9.8
			c8.9-2.5,13.9-9.9,17.2-18.3c0.5-1.4,0.9-2.8,1.6-5C361.8,93.2,326.5,194.6,305.1,215.4z M252.4,403.7c-2.4-3.4-4.4-6.9-5.7-10.6
			c-2.1-6.2-6-6.7-13.1-4.5c0.2-0.2,0.3-0.3,0.5-0.5c-4.4-0.5-7.7-0.9-12,0.1c3.9,4,5.7,15.1,3.7,18.9c-1,2-2.7,2.5-4.7,2.3
			c-1.9-0.2-4.3-0.8-4.2-3c0.1-6.1-3-12.9,4.2-17.8c-3.4-1.8-6.5-0.8-9.3-1c-1.6-0.1-3,1.4-1.4,2.6c4.8,3.5,2.5,8.2,2.4,12.3
			c0,6.1,1.6,10.2,8.3,10.5c6,0.3,9.3-3.4,9.5-10.4c0.1-4.5-1-9.3,2.5-13.5c7.6,2.3,5.3,7.1,5.6,11.1c0.4,4.2,0.4,8.3-3.9,11.3
			c4.1,0,7.9,1.3,12.4-0.7c-8.4-3.7-3.8-10.3-3.9-15.8c2.2,4.6,4.4,9.2,6.6,13.8c0.9,2,2,4.1,4.6,3.5c2.4-0.5,1.7-3,2-4.7
			c1-6-2.2-12.6,3.1-18c1-1-0.4-2.3-1.6-2.2c-2.9,0.3-6-1.1-9.3,1.3C255.7,392.8,252.2,398.5,252.4,403.7z"/>
	</g>
</g>
<g>
	<g>
		<path class="st0" d="M200.3,431.6c0.3,0.4,2.2,0.2,2.4-0.1c1.1-2.3-0.5-4-1.7-7.9C200.4,427.5,198.4,429.4,200.3,431.6z
			 M281.1,399.8c0-5.1-2-8.9-7.6-8.8c-6.6,0.1-2.7,5.6-4.1,8.6c1.9,2.8-2.9,8.7,4.3,9C279.6,408.8,281.1,404.7,281.1,399.8z
			 M192.9,403.1c0.2,2-0.9,4.6,2,5.3c2.5,0.6,5.2,0.8,7.2-1.4c1.8-1.9,2.7-4.3,2.7-7.7c-0.3-4.2-1.8-8.2-7.5-8.4
			c-6.7-0.3-3.8,4.9-4.4,8.1C192.6,400.3,192.8,401.7,192.9,403.1z M351.6,436.8c-4.8-19.3-9.8-38.6-14.5-58c-1.1-4.5-3-6.5-8.1-6.5
			c-51.2,0.2-102.4,0.2-153.7,0c-5.4,0-7.3,1.9-8.5,6.8c-2.9,12.3-6.4,24.5-9.2,36.9c-2.2,9.4-5.4,18.5-6.5,28.1
			c-0.6,5.5,0.3,8.2,7.3,8.1c31-0.5,62-0.2,93-0.2c31,0,62,0,93.1,0c9,0,9.2-0.1,8.3-8.9C352.6,440.9,352.1,438.9,351.6,436.8z
			 M263.5,390.9c-0.7-0.8-2.3-1.1-1.3-2.5c0.4-0.6,1.5-1,2.4-1c2.8-0.2,5.6-0.2,8.4-0.2c8,0.1,12.5,4.7,12.5,12.8
			c0,8-4.5,12.4-12.7,12.3c-3.6-0.1-7.3-0.4-12.2-0.6C266,406.7,267.2,395.3,263.5,390.9z M211.9,387.6c2.9,0.2,5.9-0.8,9.3,1
			c-7.1,4.9-4.1,11.7-4.2,17.8c0,2.1,2.3,2.8,4.2,3c2,0.2,3.7-0.4,4.7-2.3c2-3.8,0.2-14.8-3.7-18.9c4.3-1.1,7.6-0.7,12-0.1
			c-0.2,0.2-0.3,0.3-0.5,0.5c7.1-2.1,10.9-1.7,13.1,4.5c1.3,3.7,3.3,7.2,5.7,10.6c-0.3-5.2,3.3-10.9-3.6-14.9c3.3-2.4,6.4-1,9.3-1.3
			c1.3-0.1,2.6,1.2,1.6,2.2c-5.4,5.3-2.1,12-3.1,18c-0.3,1.8,0.4,4.2-2,4.7c-2.5,0.6-3.6-1.5-4.6-3.5c-2.2-4.6-4.4-9.2-6.6-13.8
			c0,5.4-4.6,12,3.9,15.8c-4.5,2-8.3,0.7-12.4,0.7c4.3-3,4.3-7.1,3.9-11.3c-0.4-3.9,1.9-8.8-5.6-11.1c-3.6,4.2-2.4,9-2.5,13.5
			c-0.2,7-3.5,10.7-9.5,10.4c-6.7-0.4-8.4-4.5-8.3-10.5c0-4.1,2.4-8.8-2.4-12.3C208.8,389,210.3,387.5,211.9,387.6z M186.5,390.6
			c-0.6-0.7-1.6-1-1.1-2.1c0.4-1,1.4-1.1,2.3-1.1c2.8,0,5.6-0.1,8.4-0.1c8.4,0,12.7,4.6,12.4,13.5c-0.3,7.9-4.4,11.6-12.8,11.4
			c-3.4-0.1-6.9,0-12.2,0C190,406.4,190.8,395.8,186.5,390.6z M204.6,443.5c-2.4,0-2.6-1.8-0.2-2.9c2.9-1.3,1.8-3.4,0.4-4.4
			c-2.2-1.5-5.1-1.3-7.3,0c-1.2,0.7-1.7,2.8,0.2,4.2c4.2,3,1.3,3.5-1.3,3.2c-2.5-0.2-5.1,0.9-8.4-1.2c6.6-4.8,6.7-12.4,9.5-18.6
			c0.9-1.9,1-4.5,3.6-4.7c3.2-0.2,3.4,2.7,4.2,4.8c1.4,3.7,2.8,7.5,3.9,11.3c0.9,3.1,2.6,5.3,6.4,6.3
			C211.8,445.1,207.9,443.6,204.6,443.5z M234,443.5c-3.9,0-3.1-4.5-3.7-7.3c-0.6-2.9-1.2-5.7-2-10c-1.2,5.2-2.2,9-3.1,12.9
			c-0.5,1.9-0.1,4.8-3.1,4.6c-2.7-0.2-2.6-2.9-3-4.9c-0.8-3.2-1.7-6.3-2.3-9.6c-0.6-3.5-1.2-6.9-6.6-8.3c5.3-2.4,9.2-1.2,15.7-1.6
			c-9.5,4.9-3.9,10-3,14.9c0.7-3.9,1.4-7.8,2.2-11.7c0.3-1.6,0.9-3.4,2.9-3.5c2.1-0.1,2.6,1.6,2.9,3.3c0.9,4.1,1.8,8.2,3.2,12.3
			c0.1-4.7,6.4-9.9-2.6-14c4.8-2.4,8.7-0.9,14.7-1c-7.7,4.5-6.6,11.2-8.5,16.6C237,438.9,237.8,443.5,234,443.5z M317.3,432.8
			c-0.4,5.7-3.1,10.3-9.1,10.8c-6.8,0.6-13.8,0.4-20.7,0c-3.2-0.2-3.8-3-3.7-5.9c0.1-2.6-0.3-4.8-3.6-4.8c-1.5,0-3.7-0.8-4.1,1.5
			c-0.4,2.1-1.2,4.9,1.9,6c1.2,0.5,2.3,0.9,1.6,2.3c-0.3,0.6-1.6,1-2.4,1c-6.3,0.1-12.7,0.1-19,0c-2.6-0.1-3.6-1.4-1.2-3.3
			c2.2-1.7,1.6-3.6-0.2-4.4c-2-0.9-4.7-1.4-6.6,0.5c-1.5,1.5-2,3.3,1,4.1c0.9,0.2,1.9,0.9,1.2,2c-0.4,0.6-1.4,1.1-2.2,1.2
			c-1.1,0.2-2.3-0.1-3.5-0.2c-1.7-0.2-4,1.4-5.1-0.9c-1.1-2.3,2.2-1.9,2.7-3.3c2-5.3,4-10.5,6-15.8c0.7-1.9,1.1-4.4,3.8-4.4
			c2.8,0,3.1,2.5,3.8,4.4c1.5,4.2,3,8.4,4.3,12.7c1.1,3.5,3.4,4.9,6.9,4.3c3.8-0.6,3.2-3.6,3.1-6.1c-0.3-5,2.1-10.8-4.2-14.9
			c4.5-0.2,9.1-0.8,13.6-0.6c6.9,0.3,8.8,3.8,6.2,10.4c-1,2.6-1,2.6,0.3,10c0.8,0.4,1.2,0,1.4-0.7c0.5-1.7-0.7-4.5,1.7-4.7
			c3-0.2,1.5,2.7,1.9,4.3c0.3,1.2,0.3,2.5,1.9,2.2c0.8-0.1,1.8-0.8,2.2-1.5c2.2-3.6-0.3-15.4-5.4-19.6c7.4,0.5,13.3-1.8,19,0.6
			C316.4,422.2,317.7,427.3,317.3,432.8z M313,412.1c-8.7-0.1-17.4,0-27.1,0c6-6.4,6.5-15.1,2-21.6c-1.5-2.2-0.6-3,1.4-3
			c9.3-0.1,18.7-0.3,28,0.1c4.1,0.2,4.6,4.8,1.4,10.4c-2.1-0.8-1.4-2.7-1.9-4.2c-0.9-3.1-3.4-2.8-5.7-2.7c-1.9,0.1-3.2,0.9-3.1,3
			c0.2,3.5,1.4,4.4,3.7,1.2c0.6-0.8,0.2-2.4,2.5-2.3c1.6,4,1,8.2,0.4,12.1c-1.6,0.8-2.2,0.2-2.5-0.8c-0.4-1.5-0.4-3.6-2.8-3.2
			c-1.5,0.3-1.3,1.8-1.2,2.9c0.1,1.7-0.7,3.9,2,4.6c5.8,1.5,7.9-1.7,8.8-6.9C322.8,410.6,321.7,412.3,313,412.1z M180.6,369
			c23.7-0.2,47.4-0.1,71.1-0.1v-0.1c22.1,0,44.1,0,66.2,0c12.4,0,12,0.1,9.5-12.2c-1.2-6.1-3.7-7.7-9.7-7.6
			c-41.8,0.3-83.5,0.1-125.3,0.1c-13.9,0-13.6,0.1-17.2,13.2C173.6,368,175.2,369,180.6,369z M368.1,48c-4.5,0-8.9,0-13.4,0
			c-10.4,0-11.7,1.1-14.1,11.5c-0.9,3.9-1.8,7.8-4.7,10.8c-1.5,1.5-3.3,2.9-5.6,2.2c-2.5-0.7-2-3-1.7-4.7c0.5-4.2-1.7-6.1-5.3-6.8
			c-3.7-0.8-7.3-1.6-11.1-2.1c-32-4.3-64.2-3.6-96.4-2.3c-11.4,0.4-23,1.4-34.2,4.4c-3.1,0.8-5.9,1.6-5.6,5.9
			c0.2,2.1,1.3,5.1-2.2,5.8c-3.2,0.6-5.4-1.2-7.1-3.6c-2.2-3.1-3-6.9-3.8-10.5c-2.1-9.1-3.9-10.5-12.8-10.5c-4.5,0-8.9,0-13.4,0
			c-10,0-11.3,1.2-10.9,11.5c0.7,16,3.5,31.7,6.7,47.4c13.2,64.3,42.4,120.1,90.2,165.5c10.5,10,16,20.6,14.1,35.3
			c-1.8,13.4-6.2,24.9-18,32.7c-1.8,1.2-4,2-5.4,4.5h76.6c-11.6-6.3-18.7-16.1-21.4-28.1c-3.2-14-4.8-27.8,7.8-39.6
			c17.8-16.7,33.9-35.1,47.6-55.5c26.5-39.5,42-83.2,49.9-129.7c1.9-11.1,3.2-22.3,4.1-33.5C378.8,49.7,376.8,48.1,368.1,48z
			 M210.4,237.5c-19.1-22.8-33.1-47.9-43.8-74.9c-11.4-28.7-19.3-58.3-22.7-89c-0.3-2.4-2-6,2.7-6.6c2.8-0.4,4.9,0.3,5.8,3.6
			c3.1,11.2,9.2,19.5,21.9,20.5c2.7,0.2,2.8,2,3,3.9c4,48.8,15.6,95.7,33.8,141.1C211.1,236.2,210.9,236.4,210.4,237.5z M360.2,73.3
			c-7.7,58.5-26.4,112.7-63,159.8c-0.7,0.9-1.4,1.9-3.4,1.7c5.1-13.2,10-26.3,14.1-39.6c9.3-30.6,16-61.8,18.6-93.7
			c0.5-6.1,0.9-10.5,9.1-11.8c8.5-1.4,13.4-9.2,15.7-17.4c1-3.5,1.9-5.6,5.8-5.3C361.7,67.3,360.5,70.9,360.2,73.3z M303.6,398.5
			c0.4-2.6,2.3-7-3-7.8c-2-0.3-4.5-0.8-5.2,1.9c-0.6,2.2-0.4,4.6-0.6,6.9c0.1,0,0.2,0,0.3,0c0,2.6-0.5,5.3,0.1,7.6
			c0.6,2.3,3.2,2.4,5.3,1.8C307,407.3,303,402,303.6,398.5z M280.5,422.1c-3.1,0-4.5,1.1-4.5,4.1c0,3.2,2.1,3.2,4.2,3
			c2.3-0.2,4.9-0.6,4.9-3.6C285.1,422.3,282.3,422.5,280.5,422.1z M305.9,422.6c-7.3-0.2-3.4,5.5-4.8,8.6c1.7,2.9-2.9,8.6,4.1,9
			c5.8,0.3,7.7-3.6,7.7-8.5C313.1,427,312.1,422.8,305.9,422.6z M253.1,431.7c0.3,0.3,1.6,0.3,1.9,0c1.7-1.9,0.6-3.8-1-6.8
			C253.3,427.7,251,429.4,253.1,431.7z"/>
	</g>
</g>
</svg>
