<?xml version="1.0" encoding="utf-8"?>
<!-- Generator: Adobe Illustrator 21.0.0, SVG Export Plug-In . SVG Version: 6.00 Build 0)  -->
<svg version="1.1" id="Слой_1" xmlns="http://www.w3.org/2000/svg" xmlns:xlink="http://www.w3.org/1999/xlink" x="0px" y="0px"
	 viewBox="35 0 1000 1000" style="enable-background:new 0 0 1000 1000;" xml:space="preserve">
<g>
	<g>
		<path d="M198.1,461.6c3.2,2,6.5,2.2,9.8,0.3c3.2-1.8,6.5-2.1,10-1.2c5.6,1.5,11.2,2.9,16.8,4.2c7.9,1.9,15.7,3.9,23.9,3.4
			c2.9,0,5.8,0.2,8.6,0c11.5-1.1,20.9-6.2,27.9-15.5c5.8-7.6,8.2-16.3,8.2-25.9c0.1-13.3-5.4-23.3-16.9-30
			c-5.5-3.2-11.4-5.5-17.5-7.3c-18.9-5.6-38.5-7.3-57.6-11.6c-1.6-0.4-4.8,1.8-5.6,3.4c-2.4,4.8-3.1,9.9-3,15.1
			c0.2,7.2,9.2,14.7,15.9,9.6c4.9-3.7,10.5-4.5,16.4-4.1c11.6,0.7,22.8,3.4,33.7,7.3c3.8,1.4,7.5,3.2,10.2,6.3
			c1.8,2.1,3.4,4.7,4.3,7.3c1.5,4.4-1,9.7-4.9,11.8c-5.2,2.8-10.8,4.1-16.7,3.2c-18.2-2.9-36.4-6-53.3-14.1
			c-1.5-0.8-3.2-1.3-4.8-1.9c-2.6-1-6.1,0.5-7.2,3.1c-3.4,8.1-4.4,16.7-5,25.3C191.1,455.2,194,459,198.1,461.6z M285.5,564.5
			c3.4-0.3,6.3-3.3,6.7-6.9c0.6-5.2,0.7-10.4,1.5-15.5c1.3-8.2,0.3-16.2-1.1-24.1c-3.3-17.7-14.2-28.7-31.6-33
			c-6.7-1.6-13.8-2.4-20.6-2.3c-10.4,0.2-20.7,1.6-30.3,6.2c-9.3,4.5-15.8,11.5-19.2,21.3c-3,8.8-4.7,17.9-4.3,27.3
			c0.3,5.2,0.3,10.4,1.1,15.6c0.6,3.9,1.8,7.9,3.4,11.6c2.6,6.1,10.5,9.3,15.8,5.9c5.7-3.7,11.7-4.6,18.1-4.6
			c16.2-0.2,32.4-0.5,48.6-0.8C277.4,565,281.5,564.8,285.5,564.5z M271.5,531.5c-2.2,0.6-4.5,1.2-6.7,1.3
			c-8.6,0.4-17.2,0.5-26.9,0.8c-6.4,0-13.9,0.2-21.4-0.1c-2.8-0.1-5.6-0.9-8.3-1.7c-2.5-0.7-3.4-5.4-1.5-7.3
			c0.8-0.8,1.5-1.9,2.5-2.3c3.1-1.5,6.1-3.6,9.4-4.1c15.4-2.3,30.9-2.3,46.4-0.3c3.5,0.5,6.5,2.2,8.7,5
			C275.8,525.5,274.6,530.6,271.5,531.5z M382.3,778.7c-8-3.3-15.8-2.8-23.1,2.1c-5.4,3.7-5.9,9.7-1.6,14.7c0.8,0.9,1.7,1.6,2.5,2.4
			c2.6,2.8,3.3,6.1,2.4,9.6c-1.8,7.9-3.8,15.7-5.8,23.6c-0.4,1.4-1.3,1.9-2.5,1.4c-0.5-0.2-1-0.7-1.1-1.2
			c-1.6-6.1-3.3-12.3-4.5-18.5c-1.9-9.6-3.3-19.3-5.1-29c-0.6-3.1-2.7-5.2-5.6-6c-7.5-2.2-14.9-1.4-21.9,2.2
			c-4.8,2.4-8.9,8.8-4.6,14.4c6.3,8.3,8.8,17.4,7.2,27.7c-0.5,3.4-1.4,6.8-2.4,10.1c-0.5,1.5-1.6,2.8-2.6,4
			c-0.7,0.8-2.4-1.2-2.9-3.7c-3.1-14.7-7.3-29.2-8.5-44.2c-0.1-1.7-0.5-3.4-1-5.1c-0.9-3-3-4.9-6-5.7c-2.2-0.6-4.5-0.7-5.5-0.9
			c-7.9,0-12.2,0.9-16.4,3.2c-4.7,2.6-7.2,9.2-4.3,13.3c4.7,6.8,6.9,14.5,8.7,22.4c1.9,8.4,4,16.9,6.4,25.2
			c3.2,11.1,6.8,22.1,10.4,33.1c1.4,4.3,5,6,9.5,5.6c8.9-0.9,15.2-5.2,18.6-13.5c1.6-3.7,2.8-7.6,4.4-11.3c0.3-0.7,1.4-1.2,2.3-1.6
			c0.2-0.1,0.9,0.7,1.1,1.2c2.1,6.6,4.1,13.2,6.3,19.8c1.3,4,5.4,6.4,9.5,5.9c8.8-1,15.4-5.3,18.5-13.6c4-10.8,7.8-21.8,10.7-32.9
			c3.8-14.5,6.8-29.3,10-43.9c0.4-1.7,0.4-3.4,0.5-5.1C385.9,782.3,384.1,779.5,382.3,778.7z M752.7,342.9
			c-5.7,0.5-11.4,1.7-17.1,2.7c-2.9,0.5-4.8,3.5-4.6,6.3c0.3,4.8,2,8.9,4.7,12.8c3.3,4.6,12.8,8.2,18,1.8c0.4-0.4,0.6-1,1.1-1.4
			c3.9-3.3,7.6-2.6,9.5,2c1.5,3.7,2.7,7.5,3.9,11.4c0.7,2.4-1.2,6.2-3.5,7.3c-3.1,1.5-6.3,2.7-9.5,4c-1.6,0.7-3.5,1-4.7,2
			c-1.2,1-2.3,2.9-2.2,4.3c0.6,8.8,3.8,16.8,9.3,23.7c3.8,4.7,13.5,5.3,16.7,0.1c3.8-6.1,9.5-9.8,15.1-13.9
			c13.5-9.8,27-19.7,40.3-29.8c4.1-3.1,7.9-6.8,11.4-10.5c1.5-1.6,2.1-4,2.8-5.2c0-1.5,0.1-2.1,0-2.7c-1.3-7.5-4-14.4-8.3-20.6
			c-3.7-5.3-11.3-7.4-16.8-3.6c-6.1,4.2-12.6,5.1-19.5,5.5C783.7,340.2,768.2,341.4,752.7,342.9z M800.2,360.5
			c-2.3,4.3-6.7,5.9-10.4,8.5c-1.9,1.3-4.7,0.3-5.8-1.8c-1.5-2.8-0.8-6.5,1.1-7.7c3.1-2,6.6-1.5,10.6-1.8c1,0.3,2.6,0.7,4.1,1.3
			C800.2,359,800.4,360.1,800.2,360.5z M232.1,352.5c7.3-1.8,13.5,1,19.7,4.3c17.3,9.3,35.3,17,51.8,27.8c0.9,0.6,2.1,0.9,3.1,1.4
			c1.8,0.8,5,0,6.4-1.4c3.3-3.4,5.1-7.6,6.1-12.2c1-4.9-0.7-9.1-4-12.7c-2.7-2.9-6-3-9.6-1.8c-0.5,0.2-1.1,0.3-0.7,0.2
			c-4.6,1-7.9,0.3-11.1-1.3c-6.1-3.2-12.2-6.6-18.2-9.9c-0.4-0.2-0.7-0.9-0.7-1.4c0-0.4,0.5-1.1,0.8-1.1c18.4-0.2,36.7-4,55.2-3.4
			c3.1,0.1,5.5-1.6,7-4.3c2.2-4,4.6-8,6.3-12.3c1-2.6,1-5.6,0.9-8.5c-0.2-4.7-4.7-11.5-11.5-10.2c-3.6,0.7-6.9,0.4-10.1-1.3
			c-20.9-11-43.3-19.1-62.1-33.8c-2.3-1.8-6-0.9-7.6,1.5c-3,4.3-5.2,8.9-6.4,14.1c-1.4,6.4,4.2,16.6,12.7,14
			c4.7-1.4,9.1-0.9,13.4,1.3c5.6,2.9,11.3,5.7,16.9,8.7c1.2,0.6,1.6,1.8,0.9,2.9c-0.2,0.4-0.9,0.6-1.4,0.7
			c-16.1,0.5-32.3,1.4-48.4,1.4c-8.2,0-13,3.7-15.9,10.7c-1.3,3.2-2.7,6.4-3.6,9.7c-1.4,5.4,0.1,10.3,3.9,14.4
			C227.6,351.4,229.7,353.1,232.1,352.5z M441.8,160.7c3.6,19.3,9.8,38,12.7,57.5c0.7,4.5,4.3,7.2,8.5,6.8c0.6-0.1,1.2,0,1.7-0.1
			c14.6-3.3,29.3-6.5,43.9-10c2.7-0.7,5.4-2.2,7.7-3.8c3.5-2.5,5.1-6.1,4.9-10.5c-0.2-3.9-3.1-7-6.5-6.4c-4.5,0.8-9.1,1.8-13.6,2.7
			c-2.8,0.6-5.6,1.4-8.4,1.9c-5.5,0.9-10.3-2.3-11.7-7.9c-0.7-2.8-1.2-5.7-1.8-8.5c-1.6-7.4-2-11,8.1-13.7c2.2-0.6,4.3-1.8,6.2-3
			c3.1-1.9,4.7-5,5.4-8.5c0.9-4.5-2.4-8.3-6.8-7.6c-4.6,0.7-9.1,1.5-12.2,2c-5,0.5-8.2-1.6-9.1-5.4c-0.5-2.2-0.6-4.6-0.5-6.8
			c0.2-3.4,3.7-6.8,6.9-6.5c2.8,0.2,5.7,0.7,8.4,1.4c5.1,1.3,9.1-0.6,12.4-4.2c3.7-4.1,4.7-9.1,3.3-14.5c-0.7-2.8-3.7-5-6.4-4.8
			c-1.1,0.1-2.3,0.1-3.4,0.3c-15.2,3.3-30.5,6.5-45.7,9.9c-2.8,0.6-5.4,1.9-8,3.2c-5.3,2.7-9.5,12.8-4.6,17.8
			C438.5,147.4,440.6,154,441.8,160.7z M372.8,175.7c5.3,3,8.7,7.4,11.5,12.5c10,18.2,21.7,35.5,29.8,54.7c0.2,0.5,0.7,0.9,1,1.4
			c1,1.7,4.3,2.9,6.1,2.3c7.7-2.7,14.7-6.7,20.6-12.3c0.4-0.4,0.7-0.9,1.1-1.3c3.3-3.8,3.8-13.7-1.7-17.1
			c-4.4-2.8-8.5-5.8-11.1-10.6C419.8,186,407,168,399,147.5c-0.4-1-1.3-2-2.2-2.6c-0.9-0.6-2.1-0.8-3.2-1.1
			c-1.1,0.2-2.4,0.1-3.4,0.7c-6,3.5-12.1,6.7-17.8,10.7C365.4,160.2,365.5,171.6,372.8,175.7z M769.9,835.7
			c-0.9-2.2-0.6-4.7,0.7-6.6c1.9-2.9,4.3-5.4,6.1-8.4c5.5-9.2,5.7-18.6,0.5-28c-3.5-6.4-9.3-10.3-16-12.6c-12.8-4.4-26-5.3-39.3-3
			c-3.3,0.6-6.6,2-9.6,3.7c-4.5,2.5-7.2,9-4.9,13.5c3.6,7,3.8,14.4,3.8,21.9c0,7.5,0,15,0,22.5c0.1,0,0.2,0,0.2,0
			c-0.3,10.4-0.6,20.8-0.9,31.1c-0.1,5,2.2,8,6.9,8.1c5.7,0.1,11.6,0.3,17.2-0.5c6.3-0.8,12.6-7.1,8.8-15.3c-1-2.1-2-4.2-2.5-6.4
			c-0.7-3.4-1.2-6.8,0.3-10.1c0.2-0.4,1-0.8,1.3-0.7c0.9,0.5,2.1,1.1,2.5,1.9c3.8,8.4,7.5,16.9,11.2,25.3c1.5,3.5,4.3,5.5,8,5.8
			c4,0.3,8.1,0.4,12.1,0c2.2-0.2,4.4-1.2,6.4-2.3c5-2.8,6.5-9,2.9-13.2C778.8,854.5,773.8,845.4,769.9,835.7z M747.4,815.9
			c-0.5,0.9-1.7,1.5-2.7,1.9c-1.2,0.5-3.5-1.3-3.7-2.8c-0.3-2.8-0.5-5.7-0.8-8.7c0.4-2.2,0.7-4.4,1.1-6.7c0.2-1.3,2.7-2.9,4-2.3
			c1,0.4,2.3,1.1,2.6,1.9C750.3,804.8,750.2,810.5,747.4,815.9z M694.7,860.3c-5.2-0.3-10.4-0.3-15.5-0.5
			c-12.7-0.5-15.2-3.1-14.8-15.6c0-1.2,0.1-2.3,0.3-3.4c0.4-3.7,2.2-6.5,5.8-7.9c3.8-1.4,7.8-2.3,11.4-4c3.8-1.8,6.4-5.1,6.3-9.5
			c-0.1-1.5-1.2-3.3-2.4-4.2c-1.3-0.9-3.3-1-4.9-1.2c-3.4-0.3-6.9-0.4-10.3-0.7c-2.6-0.3-5.2-3-5.6-5.9c-0.2-1.7-0.3-3.5-0.1-5.2
			c0.4-4.4,4.1-7.3,8.3-6.8c3,0.3,5.3,1.9,7.9,3.1c2,0.9,4.5,1.3,6.6,1c7.5-1.2,12.7-8.9,11.5-16.7c-0.2-1.5-1.6-3.2-2.9-3.9
			c-1.9-1.1-4.3-1.9-6.5-2c-15-0.2-30-0.2-45,0c-2.2,0-4.5,0.8-6.7,1.5c-6.8,2-11.6,10.6-7.7,16.4c3.4,5.1,3.9,10.7,3.9,16.5
			c0,9.2,0,18.5,0,27.7c0.1,0,0.2,0,0.3,0c-0.5,10.9-0.9,21.9-1.4,32.8c-0.1,1.7,2.3,4.8,3.9,5.3c1.7,0.4,3.4,1.1,5,1.1
			c14.4,0.1,28.8,0.1,43.3,0c2.2,0,4.6-0.7,6.7-1.5c4-1.5,6.6-4.5,7.6-8.7C700.4,864.3,698.1,860.5,694.7,860.3z M785.1,505.4
			c5.2-7.2,12.6-11.7,19.3-17.1c5.8-4.7,11.1-5.3,17.1-0.6c2.2,1.7,5.1,2.7,7.8,3.7c10.3,4,29.3-1.4,34.7-15.6
			c2.7-7.1,4.7-14.4,3.9-22c-1-8.6-2.6-17.1-4.4-25.5c-0.7-3.3-2.6-6.4-4.4-9.3c-3.2-4.9-10.7-6.7-15.3-3.6c-4.4,3-8.6,5.5-14.1,6.1
			c-21.2,2.1-42.1,7.1-63.5,7.4c-0.6,0-1.1,0.2-1.7,0.3c-2.1,0.3-4.5,2.5-4.7,4.5c-1,8.1-0.5,16.1,3.2,23.6
			c2.1,4.2,9.2,8.8,14.6,5.2c5.5-3.7,11.4-5.4,17.8-6.1c0.8-0.1,1.7,1,2.4,1.6c0.2,0.2-0.1,1.3-0.4,1.5c-7.2,4.7-14.4,9.6-21.9,13.8
			c-10.3,5.9-10.2,5.6-9.4,17.6c0.5,7.2,3.5,13.1,8.2,18.2C778.3,509.3,782.4,509,785.1,505.4z M826.2,452.2
			c5.7-1,11.4-1.6,17.2-0.7c1.6,0.2,3.8,2.1,3.3,3.3c-0.5,1.5-1.5,3.5-2.7,3.9c-3.2,1.1-6.7,1.5-10.2,2.2c-2.8-0.7-5.6-1.3-8.2-2.3
			c-0.9-0.3-1.5-1.6-2-2.6C823,454.7,824.7,452.4,826.2,452.2z M709.9,321.5c4.7,3.9,10.1,5.8,16.1,4.7c5.6-1.1,11.3-2.4,16.7-4.4
			c9.7-3.7,19.3-7.7,28.7-11.9c12.1-5.4,24-11.1,36-16.8c1.6-0.7,3-1.7,4.5-2.6c1.6-1,2.7-4.5,2-6.2c-2.8-6.5-6.9-11.9-12.7-16
			c-3.5-2.5-7.4-3.1-11.5-1.9c-2.9,0.9-5.2,2.5-6,5.6c-0.4,1.6-0.3,3.4-0.4,5.2c-0.1,3.8-2,6.6-5.1,8.5c-7.9,4.8-16.4,8.5-25.1,11.4
			c-0.8,0.3-2.1-0.4-3-0.8c-0.1-0.1-0.1-1.3,0.2-1.6c10.2-11.7,19.2-24.5,30.4-35.3c1.6-1.6,3.2-3.3,4.8-5c1.4-1.5,1.5-4.5,0.5-6.5
			c-3.1-6.3-7.5-11.6-13-15.9c-0.9-0.7-2-1.2-3-1.7c-3.3-1.5-6.6-1.5-10-0.1c-3,1.3-4,3.6-4.7,6.6c-3.1,11.9-10.2,20.4-21.7,25.1
			c-4.7,2-9.4,3.9-14.6,4.5c11.6-15.8,23.6-31.2,37.6-44.9c3.7-3.6,4.2-6.9,1.2-10.7c-3.6-4.5-7.4-8.8-11.4-12.9
			c-1.5-1.5-3.9-2.4-6.1-3.1c-4.2-1.4-10.5,1.4-11.2,5.6c-1.1,7.3-5.1,12.6-9.6,18c-13.3,15.9-25.8,32.6-37.2,49.9
			c-1.6,2.4-3,4.9-4.2,7.6c-1,2.2-0.4,4.6,1,6.5c5.3,7,12.4,10.4,21.1,9.1c6.2-0.9,12.2-2.6,18.3-4c-2,7.4-7.4,12.8-11.2,19
			C703.6,312.4,704.4,316.9,709.9,321.5z M871.6,528.7c-0.3-2.8-1.4-5.6-2.9-8c-3.3-5.4-10-8-14.8-5c-4.2,2.6-8.6,3.1-13.3,2.9
			c-2.3-0.1-4.7,0-6.9-0.4c-12-2.2-24.1-2.4-36.2-3.4c-8-0.7-16-1.6-23.2-5.5c0,0-0.1-0.1-0.1-0.1c0,0-0.1,0-0.1,0c0,0,0,0,0,0l0,0
			h0c0,0,0.3,0.2,0.3,0.2c-4.1,1.6-6.5,4.6-7.2,8.9c-1.2,8-2.7,15.9-3.6,23.9c-0.6,5.1-0.9,10.4-0.4,15.5
			c1.7,16.9,9.8,29.6,26.1,35.6c15.3,5.6,31.1,8,47.6,4.1c14-3.3,23.9-11.1,28.9-24.7C871,558.7,873.1,543.9,871.6,528.7z
			 M848.7,562.2c-3.6,3-8.1,4.2-12.7,4.7c-2.8,0.3-5.7,0.3-7.7,0.4c-11.8-0.2-22.5-2.5-33.2-4.8c-3.9-0.8-7.7-2.4-10.5-5.6
			c-1.5-1.8-2.3-4-1.7-6.4c0.5-2.2,2.7-4.4,4.8-4.4c4.6-0.1,9.2-0.2,13.7,0.1c8.6,0.7,17.1,1.6,25.7,2.6c5.7,0.7,11.3,1.7,17,2.7
			c1.6,0.3,3.4,1,4.6,2.1c1.1,1,2.2,2.8,2.2,4.3C850.8,559.3,849.9,561.2,848.7,562.2z M521.6,843.9c0-9.2,0-18.5,0-27.7h0.1
			c0-5.8-0.1-11.6,0-17.3c0.1-4,0.5-8.1,1-12.1c1-6.9-2.6-9.7-8.8-9.7c-3.4,0-6.9,0.7-10.2,1.7c-8,2.4-12,12.1-6.1,17.6
			c3.6,3.4,4.7,7.8,4.7,12.6c0,4.6,0.1,9.2-0.1,13.9c0,1-0.9,1.9-1.3,2.8c-0.9-0.5-2.3-0.7-2.7-1.4c-8.1-13.3-16.8-26.3-23.4-40.5
			c-1.3-2.7-3.1-5-6.1-5.8c-8.1-2.3-16-1.8-23.5,2.3c-4.5,2.5-7.6,8.9-5.2,13.4c4,7.6,4.1,15.5,4.1,23.6
			c-0.1,16.8-0.3,33.5-0.4,50.3c0,2.3,0.2,4.6,0.8,6.8c0.2,1,1.3,2,2.2,2.5c6.7,3.1,15.7,1.5,21-3.5c3.6-3.4,4.3-8.4,1.3-12.5
			c-2.4-3.3-5.4-6.2-5.4-10.6c-0.1-6.9,0-13.8,0.1-20.7c0-0.3,0.7-0.8,1.2-0.9c0.5-0.1,1.2,0.1,1.5,0.5
			c7.9,12.7,15.9,25.5,23.7,38.3c1.2,2,2.1,4.1,3.3,6.1c1.6,2.6,4.1,4.3,7.1,4.4c5.2,0.1,10.5,0.5,15.5-0.5
			c8.2-1.5,13.4-10.1,9.1-16.9C521.7,855.4,521.6,849.6,521.6,843.9z M642.8,221.8c1.8,2.4,2,5.5,0.6,8.2c-1.9,3.5-4.2,6.9-6.2,10.3
			c-1.4,2.4-0.7,6.1,1.4,7.8c6,4.6,12.6,8.2,19.7,10.7c5.5,1.9,10.2,0.1,14.1-4c1.1-1.1,2.2-3.3,1.9-4.5c-2.2-7.7,0.4-14.7,2.3-21.9
			c4.5-17.3,8.8-34.6,13-51.9c0.8-3.3,1.4-6.8,1.6-8.1c0.5-6.3-1.1-10.4-4.2-12.9c-5.5-4.3-11.3-7.9-18-10.1
			c-5.8-1.9-14.4,1.5-15.6,7.4c-1.8,8.7-7.4,14-13.2,19.6c-14.2,13.5-28.3,27.1-42.4,40.7c-1.2,1.2-2.1,2.7-2.8,4.3
			c-0.4,0.9-0.4,2.4,0.1,3.3c3.8,6.4,12.3,10.6,19.1,9.2c5.5-1.1,9.5-4,10-10.2c0.1-1.6,0.6-3.4,1.4-4.8c0.5-0.8,1.9-1.7,2.8-1.6
			C634.5,213.9,639.3,217,642.8,221.8z M645.2,193.6c2.5-3,5.1-5.9,7.9-8.6c0.6-0.6,2.3-1,3-0.6c0.6,0.4,0.6,1.9,1,3.3
			c-1.3,3.4-2.6,7-4,10.7c-0.8,2.1-3.7,3.1-5.6,2.3C644.8,199.4,643.5,195.7,645.2,193.6z M425.1,848.2c0.2-20.2-1.3-40.4,1.1-60.6
			c0.7-6-0.9-9.8-8.2-10.6c-7-0.8-13.8-0.7-20.4,2.2c-5.2,2.2-9.2,9.5-6.6,14.3c3.8,7,3.9,14.4,3.9,21.9c0,8.1,0,16.2,0,24.3h-0.4
			c0,9.2,0,18.5,0,27.7c0,1.7,0.1,3.4,0.2,5.2c0.1,2,2.3,4.5,4.2,4.9c7.4,1.5,14.9,1.6,22.3-0.1c6.8-1.5,11.6-9.5,8.1-16.2
			C427.1,857.1,425,853,425.1,848.2z M391,234.1c-8.6-17.3-21.8-29.6-38.9-38.1c-4.7-2.3-9.8-3.4-14.4-3.3c-8.4,0-15.4,2.4-22,6.4
			c-12.6,7.7-22.5,18-30.9,30c-0.7,0.9-1.2,2-1.7,3c-2.2,4.4-2.2,8.9,0,13.3c1.1,2.1,2.3,4.4,4.8,4.6c8.8,0.7,14.7,6,20.5,11.9
			c13.7,14,28.6,27,41.2,42.1c1.4,1.7,4.7,2,6.4,0.6c8.6-6.8,17.4-13.4,24.8-21.6c3.1-3.4,5.9-7.2,8.3-11.1
			C396.4,259.8,397.5,247.3,391,234.1z M370.1,265c-0.3,3.7-4.4,6.3-7.5,4.7c-2-1.1-4.2-2.1-5.8-3.6c-11.9-11.6-23.8-23.3-35.6-35.1
			c-1.2-1.2-2.1-2.7-2.9-4.3c-1-2.1-1.3-4.4,0.1-6.6c1.1-1.7,4.1-3.1,6-2.6c2.7,0.8,5.7,1.4,8.1,2.8c14.5,8.7,26.3,20.4,35.3,34.7
			C369.8,258.2,370.7,261.4,370.1,265z M615.7,846.2c0.3-20.8-1.3-41.6,1.4-62.4c0.1-0.5,0-1.3-0.3-1.7c-1-1.3-1.9-3.2-3.2-3.7
			c-7.7-3-14.8-1.6-20.8,4.1c-3.8,3.6-4.6,8.4-1.4,12.3c3.1,3.8,4.9,7.8,4.8,12.6c-0.1,5.2,0,10.4-0.1,15.6c0,0.8-1.1,1.7-1.8,2.3
			c-0.1,0.1-1.2-0.3-1.4-0.6c-7.6-12.9-15.2-25.9-22.8-38.9c-0.9-1.5-1.4-3.3-2.6-4.4c-1.6-1.5-3.5-3.2-5.6-3.8
			c-7.6-2-15-1.1-21.8,2.8c-4.4,2.5-8.7,9.1-5.3,14.8c4.5,7.2,5.7,15,5.4,23.3c-0.2,7.5,0,15,0,22.6c0.2,0,0.3,0,0.4,0
			c-0.6,6.9-1.4,13.8-1.9,20.7c-0.3,3.4-0.3,6.9,0,10.3c0.2,2.4,1.9,4.3,4.2,5c7.2,2.2,13.7,1.2,19.2-4.2c3-3,4.1-7.7,1.8-11.1
			c-3.8-5.5-5.1-11.5-5-18c0.1-2.3,0-4.6,0.1-6.9c0-1.1,0.2-2.3,0.4-3.4c0.1-0.5,0.6-1.4,0.8-1.4c1.1,0.1,2.7,0.1,3.1,0.7
			c7.8,12.9,15.5,25.7,23,38.8c2.6,4.5,6.1,6.8,11.2,6.8c3.5,0,6.9,0,10.4-0.3c1.7-0.1,3.4-0.7,5-1.4c5.6-2.4,10.3-9.5,6.4-15.5
			C616.3,856.5,615.6,851.4,615.7,846.2z"/>
	</g>
</g>
<g>
	<path d="M622.7,713.3c-3.6-5.6-4.3-11.8-4.1-18.3c0.1-4.6,0.2-9.2,0-13.9c-0.3-6.9-3.7-12-9.6-15.5c-2.5-1.5-5.1-2.8-7.6-4.1
		c-4.5-2.4-6.7-6.2-7-11.2c-0.2-2.9-0.5-5.8-0.4-8.7c0.2-22.5,0.5-45.1,0.8-67.6c0.1-4.7,1-9.1,3.6-13.2c1.5-2.4,2.6-5.4,2.6-8.1
		c0.1-5.7-0.4-11.5-1.1-17.2c-0.7-4.9-4.5-8-9.5-8.6c-5.7-0.6-11.5-0.9-17.2-1.8c-4.2-0.6-7.4-3.1-9.4-6.9
		c-3.1-5.7-5.4-11.8-4.9-18.2c0.5-6.6-0.3-12.6-3.3-18.5c-1.9-3.7-2.2-7.8-1.6-11.8c0.9-6.3,1.9-12.6,3-18.8c0.4-2.3,1.8-4.3,4-5.3
		c2.1-1,4.3-1.6,6.5-2.5c3.6-1.4,5.4-4.2,5.8-7.9c0.8-6.9,1.3-14-1.2-20.6c-2.4-6.1-2.6-12.2-2.5-18.7c0.2-13.9,0.3-27.7-0.4-41.6
		c-0.4-7.5-0.8-14.9,0.1-22.4c1.1-8.6,1.1-17.3-0.4-25.9c-0.8-4.7-3-8.6-7.2-11.4c-3.4-2.2-6.5-4.8-9.7-7.2
		c-7-5.4-10.7-12.1-8.4-21.1c0.3-1.1,0.5-2.3,0.5-3.4c0.5-8.8-4.8-17-13.4-20.2c-1.6-0.6-3.4-0.8-5.1-0.5
		c-10.4,1.6-17.2,12.2-13.9,21.8c1.1,3.3,2.8,6.3,4,9.6c1.6,4.4,0.1,9.6-3.6,12.5c-2.7,2.1-5.7,4-8.5,5.9
		c-5.9,4.1-9.9,9.6-11.4,16.8c-1,5.1-2.5,10.2-2.9,15.3c-0.8,10.4-3.3,20.5-4.9,30.8c-1.9,12-3.8,23.9-5.4,35.9
		c-0.4,2.7,0.4,5.7,1.4,8.3c0.4,1.2,2.6,2,4.2,2.3c0.9,0.2,2.3-0.6,3-1.3c3.4-3.4,4.6-7.9,5.9-12.3c1.8-6.1,3.5-12.2,5.4-18.3
		c2-6.6,4.1-13.1,6.7-21.7c0.8,7.3,0.2,12.3-1.1,17.4c-1.9,7.4-2.5,14.9-1.5,22.4c2.1,15.5,2.3,30.9,0.7,46.5
		c-1.7,16.7,0.5,33.5,4,49.9c0.8,3.6,0.2,6.9-1.9,9.9c-3.7,5.2-7.2,10.4-9.3,16.6c-0.7,2.2-1.7,4.3-2.8,6.3c-2,3.7-5,6.5-9,7.7
		c-5.5,1.7-11.1,3.4-16.8,4c-11.7,1.3-12.8,4.6-15.5,15.2c-0.4,1.7-0.7,3.4-0.9,5.1c-0.4,3.5-0.3,7.1,1.7,10.1
		c3.8,5.6,4.2,11.8,4.1,18.2c-0.1,20.8,0,41.6-0.1,62.4c-0.1,13.4,1.4,15.7-11.1,25.3c-1.4,1-2.4,2.5-3.6,3.8
		c-3.4,4.1-5.5,8.8-5.8,14.2c-0.1,1.7-0.2,3.5-0.2,5.2c0.2,7.7-1.7,14.5-6,21.2c-7.3,11.4-6.4,28,1.2,39.4
		c7.8,11.6,6.9,10.6,19,12.7c7.5,1.3,14.9,1.6,22.4,1.6c15,0,30,0,45.1,0.1c16.2,0.1,32.4,0.2,48.5,0.5c13.4,0.2,26.5-2.1,39.6-3.9
		c1.7-0.2,3.4-0.8,5-1.5c3.3-1.3,6.3-3.3,7.4-6.8c2.1-6.6,4-13.3,5.9-19.9C626.6,725.3,626.3,719.1,622.7,713.3z M453.2,684.8
		c-0.4,0.8-1.7,1.6-2.7,1.7c-1,0.1-2.3-0.5-2.9-1.3c-2.6-3.4-2.1-7.2,1.5-10.5c0.7-0.6,2.2-0.9,3.1-0.6c0.8,0.3,1.6,1.5,1.9,2.5
		c0.4,1,0.2,2.2,0.4,3.8C454.1,681.6,453.9,683.3,453.2,684.8z M568,533.7c0.7-0.7,1.6-1.7,2.3-1.6c6.1,1,12.2,2.2,18.2,3.5
		c1.7,0.3,3.4,3.2,3.5,5.3c0,2.1-2.5,4.4-4.4,4.2c-7.5-1.1-13.7-4.9-19.2-9.9C568.1,534.8,567.8,533.9,568,533.7z M555.7,526.2
		c-0.6,3.3-4.7,5.8-7.7,4.5c-0.5-0.2-0.9-2.8-0.3-3.3c1.4-1.4,3.2-2.5,5.1-3.1C553.4,524,554.7,525.5,555.7,526.2z M552.1,494.3
		c-0.3,1.1-1.8,2.4-2.9,2.5c-2,0.2-3.3-2.3-2.5-5.1c0.3-1.1,1.9-1.8,2.8-2.6C551.6,489.4,552.9,491.6,552.1,494.3z M548.1,321.6
		c0.3-0.3,1.1-0.5,1.5-0.4c0.4,0.1,0.9,0.8,0.8,1.2c-3.1,12.3,0.2,26.6,0.6,39.1c0.1,2.2-1,10.9-1.1,13.8c-0.8-1.1-3.9-9.9-3.9-10.3
		c0.5-10.8,1.1-21.6-1.2-32.3C544,328.7,545.4,324.9,548.1,321.6z M541.5,399.4c5.1,1,7.8,4.6,9.2,9.3c0.6,2.2,0.9,4.5,1,6.8
		c0.1,5.2,0.4,10.4-0.1,15.5c-1.4,13.7-3.1,27.4-4.8,41c-0.1,0.7-1.7,1.3-2.7,1.6c-0.4,0.1-1.2-0.3-1.4-0.7c-1-1.4-2.3-2.8-2.6-4.3
		c-0.6-3.4-0.9-6.8-1-10.3c-0.1-8.6-0.3-17.3,0-25.9c0.4-11.6-0.8-22.9-4.1-33.9C537.1,398.8,539.3,399,541.5,399.4z M539.5,503.6
		c0.1,0.2-0.7,0.9-1.2,1c-1.1,0.3-2.2,0.4-3.8,0.7c-1.2-0.2-3-0.3-4.5-1c-0.7-0.3-0.9-1.8-1.1-2.8c-0.1-0.3,0.7-0.9,1.2-1.1
		c2.8-1.2,5.6-0.9,8.2,0.4C539,501.2,539.2,502.6,539.5,503.6z M533.6,449.5c-1.4,11-0.3,21.7,2.2,32.4c0.4,1.6,0.3,3.4-0.1,5
		c-0.2,0.8-1.5,1.8-2.4,1.9c-1,0.2-2.6-0.3-3-1c-1-2-2-4.2-2.1-6.4c-0.2-7.5-0.1-14.9-0.1-21.1c0.4-8.8,0.8-16.2,1.2-23.7
		c0.1-2.3,2-4.7,2.8-3.8c0.7,0.8,1.5,1.8,1.5,2.8C533.8,440.3,534.2,445,533.6,449.5z M530.5,262.3c2.4,0.7,3,2.5,2.1,4.9
		c-0.6,2.5-2.4,4-4.3,2.9c-1.3-0.8-2.3-3.3-2.2-5C526.1,262.7,528.1,261.6,530.5,262.3z M523.4,404.8c1.5,6.3,0.2,12.7,0.2,19
		c-0.1,10.4-0.6,20.7-2.7,31c-1.4,6.7-1.2,13.7-1.9,20.6c-0.1,0.7-1.6,1.3-2.6,1.7c-0.3,0.1-1.1-0.3-1.5-0.7c-0.8-0.8-1.6-1.7-2-2.7
		c-0.6-1.6-1-3.3-1.2-5c-0.6-7.5-0.9-15,1.1-22.4c0.9-3.4,1.4-6.9,0.4-10.3c-2.8-10.2-1.8-20.7-1.9-31c0-3.4,1-4.5,3.8-4.6
		C520,400.2,522.7,401.8,523.4,404.8z M519.7,493.6c-0.6,1.1-1.1,2.3-1.9,3.2c-0.2,0.3-1.4,0.2-1.8-0.2c-2.2-1.7-1.9-5.3,0.4-6.6
		c0.5-0.3,1.6-0.2,1.8,0.2C518.8,491.2,519.2,492.4,519.7,493.6z M503.8,331.8c-1,1.4-2.3,2.6-2.9,4.1c-1,2.6-1.5,5.4-2.3,8.2
		c-1.2,4.2-2,8.5-3.8,12.5c-0.8,4.8-2.3,9.4-5,13.6c0.4-5.7,1.4-11.2,3.8-16.2c0.4-4.7,0.8-9.3,2.2-13.9c1.2-4.3,0.9-9,1.2-13.5
		c0.3-5,0.5-10,2.9-14.6c0.3,2.7,0.5,5.4,0.9,8c0.3,1.7,2.7,2.5,4.2,1.3c0.8-0.6,1.3-1.6,1.9-2.5c8.4,6.3,10.8,14,5.5,23.7
		c-2.4-3.1-0.9-7.6-4.1-10.3C507.2,331.2,504.6,330.7,503.8,331.8z M488.2,547.4c3.7-5.7,8.9-8.7,16.1-9.4c3,0.4,6.5,0.6,9.9,1.3
		c10.9,2.5,21.9,2.6,32.6-0.2c8.7-2.3,15.9-0.3,22.6,5.1c1.3,1.1,2.6,2.3,3.8,3.4c0.9,0.8,0.8,1.4-0.3,1.7c-0.5,0.2-1,0.7-1.6,0.7
		c-26,0.2-52,0.3-78,0.4c-1.6,0-3.2-0.9-4.7-1.6C488.3,548.8,488,547.7,488.2,547.4z M536.4,580.1c-2.3,18.4-2.1,36.9-2.5,55.4
		c-0.3,11.6-0.3,23.1-0.7,34.7c-0.1,2.3-0.7,4.5-1.3,6.7c-0.4,1.7-3.7,3.8-5.5,3.6c-5.4-0.5-10.6-4.6-11-9.5c-0.6-7.5-0.7-15-1-22.5
		c0.6-10.4,1.2-20.8,2.4-31.1c1.3-11.5,1.1-23.1,1.6-34.6c0.2-4.6,0.3-9.2,0.6-13.8c0.3-3.3,3.5-6,7.3-6.2c1.7-0.1,3.5,0,5.1,0.5
		c2.3,0.7,4.3,2.3,4.5,4.7C536.5,572,536.9,576.1,536.4,580.1z M460.9,541.3c1.1-2.9,3.8-4.4,6.6-5c6.2-1.4,12.4-2.4,18.7-3.6
		c0.5-0.1,1.2,0.3,1.5,0.7c0.3,0.4,0.3,1,0.4,1.5c-0.2,0.5-0.4,1.1-0.8,1.5c-6,6.7-13.6,10.6-22.4,11.9c-1.3,0.2-3.5-1-4.1-2.2
		C460.1,544.9,460.3,542.8,460.9,541.3z M595.6,709.3c-0.2,1.7-0.7,3.4-1.4,5c-1.2,2.8-3.4,4.9-6.4,5.3c-4.6,0.6-9.2,0.9-13.8,0.9
		c-16.2,0.1-32.3,0-48.5,0c0-0.1,0-0.2,0-0.3c-17.3,0-34.7,0-52,0c-2.9,0-5.7-0.5-8.6-0.9c-1.7-0.2-4-3.3-4.1-5.1
		c-0.4-5.3,0.4-10.3,2.6-15.2c1-2.3,3.1-3.7,5.4-3.8c4.6-0.2,9.2,0,13.8,0.3c8.1,0.4,16.1,1.4,24.2,1.5c24.8,0.3,49.7,0.3,74.5,0.4
		c1.7,0,3.5,0,5.2,0.1C593.4,698,596.5,701.9,595.6,709.3z M609.1,681c-0.3,1.1-0.8,2.3-1.7,2.9c-1.8,1.3-3.8,2.5-5.9,3.4
		c-4.9,2.1-8.2-0.3-7.6-6.9c0.3-1.1,0.9-4,1.9-6.6c0.3-0.9,1.5-1.7,2.5-2.1c3.8-1.4,6.7,0.5,9.2,3
		C609.2,676.3,609.7,678.6,609.1,681z"/>
	<path d="M517.6,704.7c-5.5-2-11.1-3.1-16.9-2.5c-9.7,0.9-19.4,1.7-29.2,0.8c-1.9-0.2-4.7,2.2-4.8,4.2c-0.1,1.6,0.4,3.4,1.1,4.8
		c0.4,0.9,1.6,1.8,2.6,2c5.5,1.4,11,3.1,16.9,2.1c3.3-0.6,6.8-0.5,8.6-0.6c7.9,0,14.2,0.1,20.5,0c2,0,3.9-2.6,4.1-4.9
		C520.7,708.3,519.2,705.3,517.6,704.7z"/>
	<path d="M584.3,703c-4-0.4-8.3-1.6-12-0.7c-8,2-16,1.1-24,1.1c-4,0-8,0.4-12,0.8c-1.8,0.2-4.4,3.6-3.7,5.1c0.7,1.5,1.8,3.3,3.1,3.8
		c3.2,1.1,6.7,1.7,10.1,1.9c5.2,0.3,10.4,0.1,15.6,0.1c0-0.1,0-0.1,0-0.2c5.2,0,10.4,0,15.6,0c2.3,0,4.6-0.2,6.9-0.5
		c2.5-0.3,5-3.7,4.7-6.4C588.3,706,586.1,703.2,584.3,703z"/>
</g>
</svg>
