<?xml version="1.0" encoding="utf-8"?>
<!-- Generator: Adobe Illustrator 17.0.0, SVG Export Plug-In . SVG Version: 6.00 Build 0)  -->
<!DOCTYPE svg PUBLIC "-//W3C//DTD SVG 1.1//EN" "http://www.w3.org/Graphics/SVG/1.1/DTD/svg11.dtd">
<svg version="1.1" id="Layer_1" xmlns="http://www.w3.org/2000/svg" xmlns:xlink="http://www.w3.org/1999/xlink" x="0px" y="0px"
	 width="350px" height="350px" viewBox="-20 20 350 350" enable-background="new 0 0 350 350" xml:space="preserve">
<g>
	<path fill="#0B0B0B" d="M51.484,114.133c4.111-13.983,10.444-27.485,19.683-38.828c9.781-12.008,21.654-21.107,36.315-26.457
		c8.023-2.928,16.387-4.158,24.74-5.519c2.294-0.051,4.588-0.102,6.882-0.153c8.317,0.786,16.102,2.483,19.872,11.298
		c0.785,1.835,2.101,1.31,3.459,0.607c3.73-1.93,7.632-3.149,11.879-3.536c10.601-0.968,20.899,0.612,31.113,3.198
		c1.788,0.736,3.576,1.471,5.364,2.207c1.004,0.465,2.008,0.929,3.012,1.394c3.057,1.85,6.115,3.7,9.172,5.55
		c11.657,8.829,20.111,20.337,27.43,32.794c2.256,5.159,4.512,10.319,6.768,15.478c3.506,10.68,6.6,21.468,8.562,32.554
		c0.257,3.057,0.513,6.114,0.77,9.171c-0.144,8.24-0.046,16.468-2.149,24.576c-1.599,6.163-4.549,11.784-6.457,17.804
		c-1.737,2.718-2.667,5.689-2.881,8.908c-1.026,15.465-1.991,30.935-3.16,46.389c-0.29,3.837,0.317,7.931-2.173,11.382
		c-1.656,2.294-4.777,3.849-7.037,5.495c-1.534,1.118-4.335,3.525-6.372,2.289c-2.076-1.259-0.269-5.64,0.196-7.318
		c1.385-4.988,2.416-10.061,3.905-15.024c1.538-5.124,2.354-10.728,3.393-15.985c0.978-4.945,0.736-10.017,0.408-15.015
		c-0.179-2.725-0.39-5.449-0.454-8.179c-0.058-2.477-1.939-2.614-3.837-2.502c-2.226,0.13-1.742,1.743-1.627,3.08
		c0.119,1.388,0.392,2.761,0.541,4.147c0.781,7.271,0.467,14.207-5.989,19.226c-1.809,0.744-3.619,1.487-5.428,2.231
		c-6.147,0.865-12.285,1.788-18.498,2.085c-7.894,0.378-15.814,0.404-23.137-2.964c-8.874-4.081-14.107-11.571-17.663-20.39
		c-0.262-1.073-0.635-2.132-0.768-3.22c-0.765-6.256,0.343-5.595-6.9-6.505c-2.639-0.347-5.273-0.706-7.951-0.482
		c-6.956,0.582-6.905,0.581-8.088,7.524c-0.269,1.582-0.882,3.152-1.586,4.607c-4.547,9.406-10.626,17.342-21.322,20.123
		c-12.346,3.211-24.7,1.604-36.795-1.296c-9.113-2.185-12.302-7.305-11.873-16.69c0.127-2.779,0.554-5.543,0.784-8.319
		c0.118-1.427,0.165-2.978-1.915-2.925c-1.623,0.042-3.307-0.027-3.509,2.417c-1.006,12.196-1.327,24.317,3.153,36.027
		c0.575,2.864,0.908,5.789,2.148,8.484c0.793,4.192,1.684,8.37,2.328,12.585c0.237,1.553,1.623,3.527,0.249,4.657
		c-1.661,1.367-3.012-1.248-4.736-1.352c-2.229-1.424-4.014-3.643-6.914-3.867c-2.937-4.067-4.539-8.594-4.693-13.62
		c0.108-4.703,0.293-9.409-0.489-14.081c-0.553-8.978-1.17-17.953-1.632-26.937c-0.228-4.432,0.145-9.075-2.045-13.022
		c-5.575-10.043-7.952-20.965-9.656-32.127c-0.218-4.333-0.437-8.665-0.655-12.997c-0.625-12.405,2.589-26.182,5.987-38.039
		C51.302,114.757,51.393,114.444,51.484,114.133z M139.09,189.137c-1.539,0.018-3.174-0.693-4.545,0.6
		c-0.084,0.095-0.214,0.179-0.237,0.287c-0.017,0.078,0.086,0.242,0.171,0.274c4.67,1.785,9.042,3.843,10.511,9.315
		c0.392,1.46,1.865,0.957,2.954,0.873c3.4-0.261,6.798-0.559,10.197-0.842c1.493,0.262,2.977,0.648,4.48,0.748
		c1.301,0.087,3.103,1.028,3.831-0.575c2.237-4.924,5.429-8.631,11.173-9.859c-11.476-1.145-22.724-0.749-33.961-0.836
		C142.14,189.127,140.615,189.132,139.09,189.137z M68.931,198.89c-0.563,0.989-0.887,1.975,0.028,2.95
		c2.908,2.022,4.898,1.544,6.198-1.953c2.064-5.551,6.098-8.857,12.014-9.685c3.503-0.491,7.012-1.063,10.537-1.251
		c12.009-0.64,24.026-1.125,36.041-1.67c1.006-0.049,2.012-0.098,3.018-0.147c1.575-0.134,3.149-0.267,4.724-0.401
		c4.037,0.305,8.071,0.193,12.102-0.123c4.175,0.057,8.35,0.115,12.528,0.172c6.471,0.712,12.967,0.749,19.466,0.718
		c9.881,0.484,19.767,0.879,29.641,1.476c9.463,0.573,18.712,1.656,22.36,12.66c0.63,1.902,2.394,1.452,3.92,1.257
		c1.347-0.172,2.139-0.813,1.983-2.234c-0.644-5.864,0.023-11.964-3.324-17.333c-3.707-5.947-4.959-12.638-5.796-19.466
		c-0.231-1.883,1.138-5.121-0.979-5.354c-2.281-0.252-1.664,3.079-2.168,4.925c-1.027,3.756-3.261,6.148-5.831,6.09
		c3.749-5.157,4.726-10.937,4.446-17.018c-0.027-0.58,0.132-1.392-0.721-1.532c-1.001-0.164-1.295,0.638-1.399,1.39
		c-0.121,0.875-0.036,1.777-0.111,2.661c-0.665,7.874-4.206,14.177-10.421,19.012c-0.379-0.25-0.758-0.501-1.137-0.751
		c1.339-2.299,3.933-3.97,3.677-7.223c-1.984,0.248-2.758,1.832-3.685,3.047c-2.102,2.755-4.672,4.945-7.619,6.67
		c-1.169,0.684-2.554,1.91-3.979,0.251c3.098-3.42,6.154-6.866,7.049-11.621c5.953-11.796,2.925-37.926-5.038-43.085
		c0,4.048,0.224,8.082-0.063,12.079c-0.288,3.999-0.317,8.204-3.652,12.3c1.691-25.331-10.926-40.769-31.597-51.11
		c-2.918-1.319-5.888-2.45-9.15-2.521l0.017,0.004c-0.67-0.631-1.468-0.701-2.322-0.532c-1.268-0.019-2.537-0.038-3.805-0.057
		c-14.215,0.687-24.998,7.435-33.176,18.785c-10.604,14.671-13.074,31.115-10.094,49.059c-2.164-0.81-2.722-2.138-3.411-3.505
		c-2.61-5.181-2.859-10.99-4.516-16.418c-0.439-2.865-0.804-5.745-1.36-8.587c-0.189-0.964,0.71-2.676-0.991-2.774
		c-1.386-0.08-1.931,1.325-2.314,2.616c-2.271,7.641-2.64,15.384-1.356,23.227l0,0.001c-0.217,3.128,0.438,6.155,1.067,9.185
		c0.922,6.054,4.637,10.156,9.684,13.4c-7.075-0.558-11.036-5.896-15.851-9.891c0.782,4.907,5.482,6.462,8.632,10.709
		c-6.503-2.231-10.188-6.213-13.709-10.41c-1.353-2.429-2.566-4.913-3.184-7.651c-1.392-6.166-0.883-12.286,0.236-18.432
		c0.206-1.132,1.379-3.111-0.536-3.51c-1.474-0.308-1.397,1.646-1.722,2.841c-2.138,7.871-1.753,15.773-0.413,23.693
		c0.185,1.096,0.902,2.684-0.473,2.946c-1.478,0.281-1.741-1.495-1.907-2.693c-0.241-1.749-0.13-3.547-0.82-5.23
		c-0.258-0.629-0.648-1.216-1.337-1.02c-0.361,0.103-0.738,0.745-0.801,1.186c-0.158,1.122-0.189,2.269-0.189,3.405
		c-0.001,6.54-0.925,13.024-4.23,18.639c-3.322,5.645-3.868,11.636-4.18,17.826L68.931,198.89z M168.792,201.913
		c-0.665,3.873,0.562,7.58,1.714,11.062c3.559,10.761,9.96,18.755,21.887,21.187c10.013,2.042,19.89,1.125,29.809-0.345
		c3.234-0.411,6.435-0.922,9.166-2.914c2.84-1.383,4.137-3.745,4.775-6.781c1.471-6.999-0.03-13.891-0.761-20.757
		c-0.635-5.964-4.379-9.799-10.521-10.779c-14.46-2.307-28.996-2.325-43.527-0.994c-3.458,0.317-6.949,1.34-9.498,4.128
		C169.996,197.38,168.62,199.266,168.792,201.913z M108.639,191.046c-7.553,0.62-15.239-0.758-22.684,1.649
		c-5.287,1.71-8.635,4.927-9.505,10.623c-0.885,5.794-0.947,11.64-1.161,17.456c-0.23,6.268,3.059,10.159,9.114,11.851
		c9.632,2.692,19.496,3.435,29.398,2.638c5.384-0.433,10.819-1.424,15.36-4.9c7.84-6.001,12.278-13.999,13.69-23.661
		c1.248-8.54-1.85-12.902-10.305-14.665C124.648,190.391,116.645,190.544,108.639,191.046z"/>
	<path fill="#0B0B0B" d="M83.436,332.922c-2.305-0.522-4.515,0.354-6.779,0.461c-1.705,0.08-3.551,0.187-3.87-2.003
		c-0.352-2.417,1.613-1.887,3.064-2.159c1.539-0.289,3.001-0.986,4.497-1.504c1.773-4.738,0.571-9.629,0.743-14.449
		c0.034-5.583,0.121-11.166,0.082-16.748c-0.021-3.089-1.346-4.786-4.789-4.073c-1.629,0.337-3.565,0.527-3.713-1.916
		c-0.142-2.364,1.687-2.655,3.411-2.423c10.4,1.405,20.786,0.327,31.172-0.099c3.277-0.134,4.802,1.058,4.347,4.423
		c-0.512,3.781-0.731,7.563-0.372,11.388c0.143,1.525-0.181,3.277-2.362,3.089c-1.72-0.148-2.722-1.183-2.603-3.083
		c0.112-1.773,0.026-3.562,0.209-5.326c0.367-3.538-1.373-5.19-4.694-5.534c-1.134-0.117-2.274-0.254-3.411-0.243
		c-13.273,0.127-10.967-1.02-11.442,11.423c-0.169,4.417,2.673,3.746,5.284,3.752c2.888,0.007,5.108-0.871,4.811-4.336
		c-0.183-2.136-1.709-5.296,1.789-5.321c3.715-0.027,2.504,3.475,2.124,5.619c-0.857,4.839-0.387,9.598,0.203,14.385
		c0.225,1.828,0.435,3.936-2.126,3.975c-2.423,0.037-2.505-1.97-2.433-3.87c0.215-5.704-2.108-7.417-7.808-6.002
		c-1.476,0.366-1.778,1.242-1.773,2.453c0.015,3.427,0.139,6.854,0.088,10.279c-0.042,2.79,1.343,3.902,3.973,3.831
		c0.759-0.02,1.547-0.13,2.273,0.026c1.192,0.256,2.688,0.236,3.056,1.799c0.441,1.87-1.057,2.321-2.338,2.876
		C90.522,333.217,87.02,332.445,83.436,332.922z"/>
	<path fill="#0B0B0B" d="M110.739,333.547c-1.82-0.128-3.566-0.358-3.723-2.743c0.801-1.198,1.682-2.355,3.353-1.951
		c2.963,0.717,4.145-1.064,5.008-3.394c4.038-10.903,8.146-21.781,12.079-32.722c0.969-2.696,2.017-5.141,5.266-5.053
		c3.124,0.085,3.943,2.713,4.785,5.164c1.844,5.36,3.521,10.783,5.939,15.929c0.748,2.159,1.495,4.318,2.243,6.477
		c1.28,3.56,2.568,7.117,3.838,10.681c0.897,2.516,2.59,3.762,5.27,3.08c2.102-0.535,3.848-0.018,3.975,2.151
		c0.134,2.298-1.964,2.281-3.638,2.108c-5.452-0.563-10.887-0.39-16.341,0.023c-1.431,0.109-3.693,0.672-3.775-1.897
		c-0.085-2.663,2.131-2.427,3.839-2.427c5.521,0.001,5.624,0.004,3.553-5.338c-0.806-2.079-0.455-4.915-3.28-5.908
		c-2.94-1.047-6.012,0.07-8.928-0.451c-4.561-0.816-6.751,0.901-8.174,5.28c-1.996,6.146-2.023,6.471,4.51,6.373
		c0.623-0.009,1.248,0.088,1.873,0.135c1.248,0.685,1.944,1.692,1.317,3.085c-0.649,1.443-2.117,1.237-3.313,1.141
		C121.176,332.876,115.948,332.433,110.739,333.547z M132.629,294.149c-0.305,0.003-0.609,0.006-0.914,0.009
		c-0.978,3.084-1.869,6.199-2.949,9.248c-3.491,9.856-3.517,9.846,6.972,9.436c0.38-0.015,0.762,0.001,1.142,0.023
		c1.198,0.068,1.71-0.572,1.367-1.637C136.409,305.524,134.508,299.84,132.629,294.149z"/>
	<path fill="#0B0B0B" d="M213.284,333.54c-0.709,0.031-1.419,0.061-2.128,0.092c-1.154-0.681-2.867-1.17-2.449-2.851
		c0.446-1.79,2.244-1.675,3.736-1.648c1.089,0.02,2.235,0.567,3.152-0.485c2.022-0.657,2.054-2.381,2.06-4.026
		c0.031-9.27,0.072-18.541-0.008-27.811c-0.029-3.33-2.024-4.804-5.919-4.755c-4.261,0.053-5.751,1.193-5.806,4.747
		c-0.039,2.532,0.195,5.068,0.306,7.602c0.078,1.787-0.733,3.152-2.511,3.153c-2.008,0.001-2.916-1.612-2.692-3.422
		c0.533-4.304,0.691-8.567,0.091-12.886c-0.286-2.054,0.668-3.338,3.079-3.2c10.913,0.624,21.831,0.339,32.744-0.014
		c2.998-0.097,3.884,1.467,3.524,4.025c-0.55,3.915-0.89,7.78-0.071,11.724c0.349,1.682-0.162,3.404-2.394,3.549
		c-2.483,0.161-2.941-1.445-2.798-3.471c0.143-2.024,0.287-4.049,0.434-6.073c0.269-3.718-1.122-5.339-4.914-5.724
		c-4.761-0.483-6.718,0.738-7.083,4.584c-0.891,9.379-0.308,18.78-0.315,28.171c-0.003,3.522,1.855,5.073,5.441,4.362
		c1.308-0.259,2.677-0.078,3.252,1.287c0.61,1.446-0.272,2.394-1.58,2.977C224.717,333.095,218.993,331.919,213.284,333.54z"/>
	<path fill="#0B0B0B" d="M196.837,317.302c-0.232,2.199-0.463,4.397-0.695,6.596c-5.353,9.226-12.539,12.439-22.541,10.08
		c-8.315-1.962-14.08-9.787-14.648-19.946c-0.113-2.024-0.087-4.056-0.125-6.084c0.922-7.18,3.598-13.466,9.275-18.226
		c0.241-0.09,0.481-0.18,0.722-0.27c0.287-0.182,0.575-0.365,0.862-0.547c4.106-1.625,8.309-2.619,12.766-1.974
		c3.363,0.73,6.009,2.757,8.727,5.245c0.642-2.26-1.507-5.681,2.765-5.458c1.833,1.527,1.591,3.565,1.331,5.579
		c-0.456,3.533-0.591,7.035,0.04,10.587c0.319,1.793,0.543,4.14-2.132,4.41c-3.001,0.303-3.083-1.97-2.897-4.12
		c0.426-4.926-1.158-8.672-6.021-10.569c-2.374-1.5-4.946-1.573-7.597-1.049c-6.671,1.316-10.512,6.299-11.47,14.874
		c-0.024,3.15-0.326,6.329-0.006,9.444c0.475,4.636,2.22,8.836,6.115,11.723c4.325,3.205,9.094,3.601,13.925,1.359
		c3.976-1.845,6.344-4.895,5.825-9.584c0.263-2.704,1.071-4.789,4.469-3.924c0.302,0.29,0.603,0.581,0.905,0.871
		c0.134,0.321,0.269,0.642,0.403,0.963L196.837,317.302z"/>
	<path fill="#0B0B0B" d="M217.187,174.033c-0.547,0.391-1.095,1.289-1.779,0.648c-0.501-0.47,0.017-1.105,0.642-1.399
		C216.429,173.532,216.808,173.782,217.187,174.033z"/>
</g>
</svg>
