<?xml version="1.0" encoding="utf-8"?>
<!-- Generator: Adobe Illustrator 21.0.0, SVG Export Plug-In . SVG Version: 6.00 Build 0)  -->
<svg version="1.1" id="Слой_1" xmlns="http://www.w3.org/2000/svg" xmlns:xlink="http://www.w3.org/1999/xlink" x="0px" y="0px"
	 viewBox="0 -20 1000 1000" style="enable-background:new 0 0 1000 1000;" xml:space="preserve">
<g>
	<g>
		<path d="M291.8,692.8c-3.6,0.1-7.3,0.1-9.4,0.1c-4.2-0.8-6.8-1.4-9.5-1.7c-0.6-0.1-1.9,1-1.9,1.5c0.4,5,0.8,10,1.5,14.9
			c0.4,2.4,2.2,3.9,4.7,4.4c3.6,0.7,7.2,1.5,10.8,2c7.8,1,15.5,0.6,23-2.1c6-2.2,9.9-6.4,11.7-12.5c2.3-8.2,0.6-15.4-5.6-21.3
			c-2-1.9-4.2-3.5-6.3-5.3c-2.8-2.3-5.7-4.6-8.4-7c-1-0.9-1.6-2.2-2.3-3.3c-0.5-0.9-0.1-1.6,0.8-2.3c2.4-1.8,5.1-1.9,7.8-1.7
			c3.6,0.4,7.2,1.1,10.8,1.4c0.6,0.1,1.8-0.9,1.9-1.5c0.5-5.5,0.1-10.9-1.3-16.2c-0.3-1.1-1.7-2.5-2.8-2.8c-9.4-2.3-19-3.4-28.5-1.3
			c-5.9,1.3-11,4.4-14.6,9.5c-3.1,4.4-3.9,9.3-2.4,14.3c0.8,2.6,2,5.2,3.5,7.4c2.1,3,4.5,5.7,7.1,8.3c2.6,2.6,5.5,4.8,8.3,7.2
			c1,0.9,1.9,1.9,2.9,2.9c0.9,0.9,1.2,3.2,0.5,3.8C293.3,692.1,292.6,692.8,291.8,692.8z M351.5,692.4c-3.6,1.3-7.2,0.6-11.3,0.3
			c-2.7-0.5-5.8-1.1-8.9-1.5c-0.5-0.1-1.7,1.1-1.7,1.7c-0.6,5.5,0.2,10.9,2.4,16.1c0.5,1.1,1.8,2.3,2.9,2.6
			c7.1,1.7,14.3,3.1,21.7,2.7c5.1-0.2,10-1.2,14.6-3.3c5.3-2.3,9-6.4,10.2-12.1c1.8-9.2,0-17.2-8-23.1c-2.6-1.9-5.1-3.9-7.5-6
			c-1.8-1.4-3.5-3-5.1-4.5c-0.6-0.6-1.1-1.5-1.6-2.2c-0.7-0.9-0.1-2.8,0.9-3.5c2-1.3,4.3-1.6,6.6-1.3c3.6,0.4,7.2,1.2,10.8,1.8
			c1.7,0.3,3.6-1.5,3.3-3.4c-0.6-5-1.2-10-2.1-14.9c-0.2-1-1.7-2.3-2.9-2.6c-8.9-2.3-18-3.2-27.2-1.5c-7.6,1.4-13.5,5.4-17.2,12.3
			c-2.1,3.8-2.4,7.8-1.1,11.9c1.6,4.8,4.2,9.2,7.8,12.7c3.6,3.5,7.5,6.7,11.1,10.1c1.3,1.2,2.3,2.7,3.5,4.1
			C353.3,690,352.5,692,351.5,692.4z M279.2,733.5c-1.4,0-2.7,0.4-4.1,0.5c-1.6,0.2-2.5,1.4-2.9,2.6c-0.5,1.7-0.6,3.6-0.6,5.4
			c-0.1,9.1,0,18.3,0,27.4h0c0,9.1,0,18.3,0,27.4c0,2.3,0.2,4.5,0.4,6.8c0.1,1.7,1.9,3.5,3.5,3.7c0.4,0.1,0.9,0.3,1.3,0.3
			c17.4,0,34.7,0,52.1,0c0.9,0,1.8-0.3,2.6-0.7c0.7-0.4,1.6-1.1,1.8-1.9c1.4-4.5,1.1-9,0.3-13.5c-0.2-1-1.7-2.2-2.8-2.5
			c-1.7-0.6-3.6-0.6-5.4-0.6c-6.4-0.1-12.8,0-19.2-0.1c-4.9-0.1-7.1-1.8-6.3-4.9c0.8-2.9,3.5-2.4,5.6-2.6c3.2-0.2,6.4-0.1,9.6-0.1
			c2.7,0,5.5-0.1,8.2-0.2c2.9-0.1,4.8-2.2,5-5.4c0.1-0.9,0.1-1.8,0.1-2.7c0.2-10.5-0.6-11.3-10.3-11.3c-4.1,0-8.2,0-12.3-0.1
			c-1.3,0-2.7-0.4-4-0.6c-0.9-0.2-2.3-2.1-2.1-3.1c0.3-1.4,0.9-2.7,2.4-3c2.7-0.4,5.4-0.6,8.1-0.6c6.4-0.1,12.8-0.1,19.2-0.2
			c2.4,0,4.5-2,4.5-4.2c0-4.1,0.1-8.2-0.3-12.3c-0.1-1-1.4-2.2-2.5-2.8c-1.1-0.6-2.7-0.7-4-0.7C311.2,733.5,295.2,733.5,279.2,733.5
			z M669.8,712.6c1.3,0,2.7-0.3,4-0.7c0.8-0.3,1.5-1,1.9-1.7c0.5-0.7,0.8-1.7,0.8-2.6c0.2-2.7,0.3-5.5,0.3-8.2
			c0.1-4.1,0-8.2,0.1-12.3c0.1-4.1,0.9-5.9,2.3-5.7c2.2,0.2,2.8,2.1,3.6,3.5c2.7,4.8,5.2,9.6,7.9,14.4c8.3,15.1,5.1,13.2,21.7,13.4
			c3.7,0,7.3,0,11-0.1c1.4,0,2.8-0.1,4-0.6c1.1-0.5,2-1.6,2.7-2.7c0.4-0.7,0.4-1.8,0.4-2.7c0-20.6,0-41.1,0-61.7
			c0-1.3-0.3-2.7-0.7-4c-0.3-0.8-1.1-1.8-1.8-1.9c-6.3-1.3-12.7-1.2-19-0.2c-1,0.2-2.3,1.6-2.7,2.6c-0.6,1.7-0.7,3.6-0.7,5.4
			c-0.1,5.9,0.1,11.9-0.1,17.8c-0.1,2.5,1,5.4-1.2,7.6c-3.6-0.2-3.8-3.5-5-5.7c-3.5-6.4-6.8-12.9-10.3-19.4c-1.1-2-2.1-4.1-3.4-5.9
			c-1-1.5-2.4-2.9-4.4-2.9c-8.2,0-16.4,0.1-24.6,0.2c-1.4,0-3.3,2.2-3.4,3.8c-0.2,2.3-0.4,4.5-0.4,6.8c0,8.7,0,17.4,0,26h0
			c0,6.9,0,13.7,0,20.6C652.7,715,651.5,712.6,669.8,712.6z M203.6,709.2c0.6-1.2,1.2-2.5,1.6-3.8c3.1-9.7,4.4-8.9,12.6-9.1
			c4.1-0.1,8.2,0.1,12.3,0.3c1.9,0.1,3.5,1.3,4.3,3c1.2,2.5,2.3,5,3,7.6c1.2,4.5,4.2,5.5,8.3,5.4c2.3-0.1,4.6,0,6.8,0
			c0,0.1,0,0.2,0,0.3c3.6-0.3,7.2-0.6,10.8-0.9c1-0.1,2.2-2.1,1.8-3.2c-0.5-1.7-1-3.5-1.7-5.2c-7.6-19.6-15.2-39.1-22.8-58.6
			c-0.5-1.3-1.2-2.5-1.8-3.7c-0.9-1.7-2.4-2.8-4.3-2.8c-8.2-0.1-16.4-0.1-24.6-0.1c-3.2,0-5,1.9-6.3,4.4c-0.6,1.2-1.1,2.5-1.6,3.8
			c-7.7,17.5-15.3,35.1-23,52.6c-1.3,2.9-2.4,5.9-3.5,8.9c-0.7,1.8,0.5,4.1,2.2,4.2c7.3,0.1,14.6,0.2,21.8,0.2
			C201.4,712.4,202.7,710.9,203.6,709.2z M220,664.5c0.2-0.3,0.7-0.6,0.9-0.6c0.8,0.4,1.8,0.7,2.1,1.4c1.3,2.8,2.5,5.6,3.6,8.5
			c0.6,1.6-0.7,3.3-2.8,3.6c-0.9,0.1-1.8,0.1-2.6,0.2c-0.9-0.1-2,0.1-2.6-0.4c-1-0.7-2.3-1.9-2.3-2.8
			C216.4,670.7,218.3,667.6,220,664.5z M449.4,692.5c-1.3,0.3-2.7,0.7-4,0.7c-5,0-10-0.6-14.9-2c-1.8-0.5-3.6,1.2-3.3,3.2
			c0.6,4.5,1.1,9,1.9,13.5c0.3,1.9,1.7,3.4,3.6,3.8c5.8,1,11.7,2,17.6,2.7c6,0.7,11.8-0.6,17.5-2.6c4-1.4,7.3-3.8,9.5-7.5
			c4.3-7.6,4.9-17.9-2.6-25.2c-2-1.9-4.1-3.7-6.2-5.4c-3.1-2.6-6.4-5.2-9.5-7.9c-1-0.9-1.6-2.2-2.2-3.4c-0.5-0.9-0.1-1.6,0.8-2.3
			c2-1.4,4.2-1.9,6.5-1.6c3.6,0.4,7.2,1.1,10.8,1.7c1.7,0.3,3.4-1.4,3.3-3.3c0-1.4,0-2.7,0-3.8c-0.4-3.5-0.7-6.6-1.1-9.8
			c-0.3-2-1.6-3.4-3.4-3.9c-9-2-18-3-27.2-1.4c-5.1,0.9-9.4,3.4-13.2,6.8c-6,5.5-7.3,14-3.5,21.3c2.1,4.1,4.9,7.7,8.2,10.8
			c3,2.8,6.2,5.3,9.2,8.1c1.3,1.2,2.3,2.8,3.4,4.2C451.4,690.1,450.6,692.3,449.4,692.5z M559.6,711.8c7.7,1.5,15.4,1,23.1,0.5
			c1.9-0.1,3.3-1.4,4.1-3.2c0.2-0.4,0.4-0.8,0.6-1.2c4.6-12.4,3-11.4,16.4-11.5c3.2,0,6.4,0.1,9.6,0.3c1.9,0.1,3.4,1.3,4.2,3
			c0.8,1.6,1.5,3.3,2,5.1c2.2,7.6,4.1,7.8,10.6,7.9c3.6,0,7.3,0.1,10.9,0c1.8-0.1,3.6-0.4,5.3-0.9c0.6-0.2,1.4-1.3,1.4-1.9
			c-0.3-2.2-0.6-4.5-1.4-6.5c-6.4-16.6-12.9-33.1-19.4-49.7c-6.9-17.5-3.8-15.1-22.1-15.1c-4.1,0-8.2-0.1-12.3,0
			c-2.5,0-4.2,1.4-5.4,3.5c-0.4,0.8-0.9,1.6-1.3,2.4c-8.9,20.5-17.8,41-26.6,61.5c-0.5,1.2-0.9,2.6-0.9,3.9
			C558.3,710.5,559,711.7,559.6,711.8z M603.6,664.4c0.3-0.4,1.9-0.3,2.1,0.1c1.3,2.3,2.4,4.7,3.4,7.2c1.4,3.7-0.2,5.8-5,5.9
			c-0.6-0.1-2-0.2-3.2-0.6c-0.7-0.3-1.6-1.2-1.6-1.8C599.6,671.2,601,667.5,603.6,664.4z M456.3,771.7c1,16,9.4,27.3,24.3,33.6
			c6.4,2.7,13.2,3.6,20.1,3.1c2.3,0,4.6,0.2,6.9,0c12-1,21.9-6.1,29.7-15.2c6.2-7.3,9.5-16,8.7-25.3c-1.4-16.1-9.9-27.7-26.5-33.3
			c-12-4.1-24.3-3.8-36.5-0.1c-6.2,1.9-11.7,5.2-16.3,9.9C459.2,751.9,455.6,761.3,456.3,771.7z M488,760.6
			c5.1-9.4,17.1-9.4,23.2-3.1c2.9,3.1,4.9,6.5,5,10.8c0,2.3,0,4.5-0.3,6.8c-1.1,7.3-7.8,13.2-15,13.4c-7.1,0.2-13.8-5.7-14.9-13.3
			c-0.2-1.3-0.2-2.7-0.3-3.7C485.6,767.4,486.2,763.9,488,760.6z M485.2,654c0.1,1.7,1.8,3.5,3.5,3.6c4.1,0.3,8.2,0.4,12.3,0.7
			c2.3,0.1,4.5,2.1,4.5,4.3c0.2,6.8,0.2,13.7,0.3,20.5c0.1,8.2,0.2,16.4,0.3,24.6c0,2.5,2,4.6,4.1,4.7c6.8,0,13.7-0.1,20.5-0.2
			c1.6,0,3.3-2,3.5-3.7c0.2-1.8,0.3-3.6,0.3-5.5c0-11,0-21.9,0-32.9c0-2.7,0.2-5.5,0.5-8.2c0.1-1.7,2-3.5,3.6-3.6
			c4.1-0.3,8.2-0.4,12.3-0.6c3.1-0.2,4.8-2,4.9-5.4c0.1-3.2,0-6.4-0.2-9.6c-0.1-2.2-2.3-4.3-4.5-4.3c-10,0-20.1,0-30.1,0v-0.2
			c-8.2,0-16.4,0-24.7,0c-10.9,0-11.6,0.9-11.5,11.6C484.9,651.3,485.1,652.6,485.2,654z M389.1,708.6c0.1,1.7,1.8,3.6,3.4,3.7
			c6.8,0.1,13.7,0.1,20.5,0.1c1.8,0,3.6-1.8,3.7-3.4c0.2-2.3,0.4-4.5,0.4-6.8c0-8.7,0-17.4,0-26h0c0-6.9,0-13.7,0-20.6
			c0-4.1-0.1-8.2-0.2-12.3c-0.1-2.3-2-4.5-4.3-4.5c-6.8,0-13.7,0-20.5,0.2c-0.9,0-2.3,1.6-2.6,2.7c-0.6,2.2-0.8,4.5-0.8,6.7
			c-0.1,18.3,0,36.5,0,54.8C388.7,705,388.9,706.8,389.1,708.6z M717.3,829.6c-2.6-0.7-5.3-1.5-8-1.5c-13.7-0.1-27.4,0-41.1,0
			c-0.9,0-1.9,0.1-2.6,0.6c-1.1,0.7-2.4,1.7-2.7,2.8c-0.6,2.2-0.7,4.5-0.7,6.8c-0.1,9.1,0,18.3,0,27.4h0c0,8.2,0,16.4,0,24.7
			c0,2.7,0.1,5.5,0.6,8.2c0.2,1.1,1.4,2.7,2.4,2.9c7.2,1.5,14.5,1.5,21.7,0c0.7-0.1,1.5-1.2,1.7-2c0.4-1.3,0.5-2.7,0.5-4.1
			c0.1-12.8,0.1-25.5,0.2-38.3c0-2.2,0.3-4.5,0.7-6.7c0.1-0.7,1.1-1.5,1.9-1.7c4.2-1.5,8.1-0.7,11.6,1.9c1.6,1.2,2.3,4.6,1.2,6.2
			c-0.8,1.1-1.7,2.4-2.8,2.8c-2.1,0.8-4.4,1.1-6.6,1.6c-2.7,0.6-4.1,2.4-3.4,4.7c1.5,5.2,3.1,10.5,4.7,15.7c8,25.8,2.1,20.5,31,20.4
			c0.4,0,1-0.3,1.2-0.6c0.5-0.7,1.2-1.5,1.2-2.2c0-1.3-0.3-2.7-0.7-4c-2.1-5.5-4.3-11-6.6-16.5c-1.7-4.1-2.1-7.7,2.3-10.7
			c3-2.1,4.7-5.4,6.2-8.8C735.7,848.9,732.1,833.7,717.3,829.6z M665.3,791.8c6.4-0.1,12.8-0.1,19.2,0c1.9,0,3.4,1.1,4.2,3
			c0.8,2.1,1.9,4.2,2.5,6.4c1.3,4.6,4,7,8.9,6.7c2.3-0.1,4.6,0,10,0c0,0,3.2-0.1,6.4-0.3c1.7-0.1,3.1-2.2,2.6-4
			c-0.6-2.2-1.3-4.4-2.1-6.5c-7.1-18.3-14.3-36.7-21.4-55c-0.7-1.7-1.3-3.4-2.1-5c-0.8-1.7-2.2-3.1-4.2-3.1
			c-9.1-0.1-18.3-0.1-27.4,0.1c-1.1,0-2.3,1.3-3.2,2.2c-0.9,1-1.5,2.3-2,3.6c-9,20.5-17.9,41.1-26.9,61.6c-0.4,0.8-0.6,1.7-0.9,2.6
			c-0.4,1.1,0.7,3.2,1.7,3.2c4.1,0.3,8.2,0.7,12.3,0.7c13.9-0.2,12.9,1.7,17.9-11.6c0.3-0.9,0.8-1.6,1.2-2.5
			C662.7,792.4,664.1,791.8,665.3,791.8z M670.3,768.7c1.1-2.9,2.4-5.7,3.6-8.6c0.1-0.3,0.7-0.7,1-0.6c0.8,0.1,1.9,0.3,2.2,0.8
			c1.1,1.9,2.1,4,2.8,6c1.5,4.1,0.2,5.9-4.1,5.9c-0.9,0-1.8-0.1-2.7-0.1C671,771.9,669.6,770.5,670.3,768.7z M645,882.7
			c-3.2-0.3-6.4,0-9.6-0.1c-3.2-0.1-6.4-0.3-9.5-0.6c-1.2-0.1-2.3-1.5-2.2-3c0.2-1.3,0.4-2.8,2-3.2c1.3-0.3,2.6-0.7,4-0.7
			c4.1-0.1,8.2-0.1,12.3-0.1c9.4-0.1,10.2-0.9,10-10.2c0-2.3-0.4-4.5-0.9-6.7c-0.2-0.7-1.1-1.6-1.9-1.8c-1.7-0.5-3.6-0.7-5.4-0.8
			c-5-0.1-10.1,0-15.1-0.2c-1.3,0-2.6-0.7-3.8-1.2c-1-0.4-1.4-1.2-1-2.2c0.3-0.7,0.8-1.9,1.3-2c2.6-0.5,5.3-1,8-1.1
			c6.8-0.3,13.7-0.3,20.5-0.5c1.6,0,2.7-1.2,3-2.4c1.5-4.9,1.5-9.9,0.1-14.8c-0.3-1.1-1.7-2.2-2.8-2.6c-1.7-0.6-3.6-0.6-5.4-0.6
			c-14.6,0-29.3-0.1-43.9,0c-1.8,0-3.6,0.2-5.4,0.4c-1.7,0.2-3.4,1.9-3.6,3.6c-0.2,1.8-0.4,3.6-0.4,5.4c0,9.1,0,18.3,0,27.4h0
			c0,9.1,0,18.3,0,27.4c0,2.3,0,4.6,0.6,6.8c0.3,1,1.7,1.9,2.8,2.5c0.7,0.4,1.8,0.5,2.7,0.5c16.5,0,32.9,0.1,49.4,0
			c1.3,0,2.7-0.3,4-0.7c0.8-0.3,1.7-1.1,1.9-1.8c1.2-4.9,2.2-10.2-0.5-14.6C653.9,880.9,649,883.1,645,882.7z M780.5,789.8
			c-2.2-0.4-4.5-0.6-6.7-0.7c-5.9-0.2-11.8-0.3-17.8-0.4c-1.6,0-3.4-1.8-3.4-3.6c-0.2-5.5-0.3-10.9-0.4-16.4
			c-0.1-10-0.1-20.1-0.2-30.1c0-2.6-1.7-4.6-4-4.7c-6.8-0.1-13.7-0.1-20.5,0.2c-1,0-2.5,1.4-2.8,2.5c-0.6,2.2-0.7,4.5-0.7,6.8
			c-0.1,9.1,0,18.3,0,27.4h0c0,9.1-0.1,18.3,0,27.4c0,2.2,0.2,4.6,0.9,6.7c0.3,1.1,1.7,2.1,2.8,2.6c1.2,0.5,2.7,0.5,4,0.5
			c14.6,0,29.2,0,43.8,0c1.4,0,2.8,0,4-0.4c1.1-0.5,2.6-1.4,2.9-2.5c1.5-4.4,1.3-9,0-13.4C782.2,790.8,781.2,789.9,780.5,789.8z
			 M805.1,645.2c-0.1-4.9-1.8-6.8-6.4-6.9c-9.1-0.1-18.3,0-27.4,0v-0.1c-8.7,0-17.4,0-26.1,0c-10.5-0.1-11.7,1-11.4,11.8
			c0,1.4,0.3,2.7,0.5,4.1c0.2,1.4,2.3,3.4,3.8,3.5c4.1,0.2,8.2,0.3,12.3,0.5c3.1,0.2,4.8,2,5,5.3c0.1,3.2,0.2,6.4,0.2,9.6
			c0,9.6,0,19.2,0,28.8c0,2.3,0.2,4.6,0.4,6.8c0.1,1.5,2.1,3.5,3.7,3.5c6.8,0.1,13.7,0.1,20.5,0.1c1.3,0,3.5-2.2,3.6-3.6
			c0.2-3.2,0.4-6.4,0.5-9.6c0.1-9.6,0-19.2,0-28.8c0-2.7,0.2-5.5,0.4-8.2c0.1-1.4,2.3-3.7,3.6-3.8c4.1-0.2,8.2-0.4,12.3-0.6
			c2.5-0.1,4.3-1.8,4.4-4.3C805.1,650.7,805.2,648,805.1,645.2z M622.4,807.5c1.8,0,3.6-1.8,3.7-3.4c0.1-1.4,0.3-2.7,0.3-4.1
			c0-9.6,0-19.2,0-28.8h0c0-7.3,0-14.6,0-21.9c0-3.2,0-6.4-0.1-9.6c-0.2-4.8-1.6-6.1-6.9-6.2c-1.4,0-2.7,0-4.1,0
			c-14.1,0-13.9-0.4-13.9,13.2c0,4.6,0.1,9.1,0,13.7c0,1.8-0.3,3.6-0.6,5.4c0,0.2-0.7,0.5-1,0.5c-0.4,0-1,0-1.2-0.2
			c-0.9-1-1.8-2.1-2.4-3.3c-4.5-8.4-9-16.9-13.5-25.4c-1.1-2.1-2.8-3.7-5.3-3.7c-8.2,0-16.4,0.1-24.6,0.2c-1.7,0-3.4,1.8-3.6,3.5
			c-0.1,1.4-0.3,2.7-0.3,4.1c-0.1,8.7-0.1,17.4-0.1,26c0,11.4,0.1,22.8,0.2,34.3c0,4.1,1.8,5.9,5.8,6c4.6,0.1,9.1,0,13.7-0.1
			c2.3-0.1,4.4-2.1,4.5-4.4c0.2-6.8,0.2-13.7,0.4-20.5c0.1-2.3,0.4-4.5,0.7-6.7c0-0.3,0.6-0.5,1-0.6c0.4-0.1,1-0.2,1.2,0
			c3.6,3.7,5.1,8.6,7.6,12.9c3.2,5.5,6.2,11.2,9.4,16.7c0.9,1.6,2.6,2.6,4.6,2.6C605.9,807.6,614.1,807.6,622.4,807.5z M362,805.6
			c4.3,1.5,8.7,2.5,13.4,2.9c9.2,0.7,18.3,0.4,27.4-0.7c10.3-1.3,10.9-2.7,10.9-11.9c0-3.7,0-7.3,0-11h0c0-3.7,0-7.3,0-11
			c0-0.9,0-1.8,0-2.7c-0.2-5.9-1.5-7.3-7.3-7.4c-6.8-0.1-13.7,0-20.5,0.2c-2.6,0-4.4,1.8-4.5,4.2c-0.1,3.2,0,6.4-0.2,9.6
			c-0.1,3.2,1.7,4.9,4.2,6.5c0.6,0.4,1,1.5,0.8,2.3c-0.1,0.7-0.8,1.8-1.4,2c-7.8,1.8-14-1.2-16.8-8.1c-0.5-1.3-0.9-2.6-1.2-3.9
			c-2-9,2.7-17.6,11.2-21c3.5-1.3,7-1.9,10.7-2.1c5.5-0.2,10.9,0.9,16.2,2.2c4,1,6-1,5.7-5.1c-0.3-3.6-0.7-7.3-1.2-10.9
			c-0.5-3.5-1.8-5.1-4.9-5.7c-3.6-0.7-7.2-1.5-10.8-1.9c-9.6-1.3-19.2-0.6-28.5,2.2c-11.6,3.4-20.4,10.4-24.4,22.1
			c-1.6,4.7-2.7,9.8-2.7,14.8C338.2,787.1,344.8,799.6,362,805.6z M591.7,863.6c0-2.4-2-4.8-4.1-4.8c-8.2-0.1-16.4-0.1-24.6,0
			c-1.3,0-3.3,2.4-3.4,3.8c-0.1,1.8-0.3,3.6-0.3,5.5c-0.1,5.5-0.1,5.5,4.9,11.6c0.8,1,0.4,3-0.7,3.5c-0.8,0.4-1.7,0.9-2.5,0.9
			c-8.4,0-14-4.3-15.8-12.3c-2-8.8,2.3-20.6,14.5-22.5c5-0.8,10-1,15-0.4c3.6,0.5,7.2,1.2,10.8,1.8c1.1,0.2,2.7-1.2,2.9-2.3
			c0.7-5.5-0.2-10.9-1.2-16.3c-0.2-1.1-1.7-2.1-2.8-2.7c-1.1-0.7-2.5-1.1-3.9-1.3c-10-1.7-20-1.8-30-0.5c-4.4,0.5-8.9,2-13,3.9
			c-7.2,3.2-13.1,8.3-16.5,15.7c-3.1,6.7-4.9,13.8-4.5,21.2c0.9,15,7.8,26,22.3,31.4c2.6,1,5.2,1.7,7.8,2.4
			c13.6,3.4,27.2,1.7,40.7-0.8c2.1-0.4,4-2.5,4.1-4.8c0.3-5.5,0.4-10.9,0.6-16.4c-0.2,0-0.3,0-0.5,0
			C591.7,874.6,591.8,869.1,591.7,863.6z M263.7,807.3c0.9-0.1,2.3-2.2,2.1-3.1c-0.4-1.8-0.8-3.6-1.4-5.3c-2.2-6-4.6-12-6.8-18
			c-0.9-2.3-0.5-4.5,1.5-6.1c4.5-3.6,7.2-8.3,8.7-13.7c2.8-9.9-2.4-21.3-11.6-25.2c-3.9-1.7-7.9-2.4-12-2.4c-13.3-0.1-26.5,0-39.8,0
			c-1.3,0-2.7,0.3-4,0.8c-0.8,0.3-1.7,1.1-1.8,1.8c-0.5,2.2-0.9,4.5-0.9,6.7c-0.1,16.5,0,32.9-0.1,49.4
			c-0.1,16.7-0.4,15.6,15.8,15.6c2.3,0,4.6-0.1,6.8-0.3c2.3-0.2,4.3-2.1,4.3-4.5c0.1-7.3,0-14.6,0-21.9c0.1,0,0.3,0,0.4,0
			c0-7.8,0-15.5,0-23.3c0-2.6,1.6-4.4,4.1-4.4c2.7,0.1,5.5,0.2,8.1,0.9c1.7,0.4,2.9,2.1,3.5,3.9c0.5,1.9-0.6,4.8-2.6,5.9
			c-1.6,0.9-3.2,1.7-5,2.2c-6.5,1.9-6.5,1.9-4.7,8c2.4,7.9,4.7,15.8,7.1,23.6c0.7,2.2,1.4,4.3,2.3,6.5c0.7,1.8,2,3.1,4,3.2
			C249.1,808,256.4,808.3,263.7,807.3z M337.3,831.6c-0.2-1.5-2.1-3.3-3.8-3.3c-9.1-0.1-18.3-0.1-27.4-0.1c-2.4,0-4.1,1.5-4.7,4.2
			c-1.8,7.6-3.5,15.2-5.2,22.7c-0.3,1.3-0.7,2.6-1.1,3.9c-0.1,0.4-0.7,1-0.9,0.9c-0.8-0.2-2.1-0.5-2.2-1c-1.4-7.2-2.6-14.4-3.8-21.6
			c-0.3-1.8-0.6-3.6-1-5.4c-0.3-1.6-2.3-3.4-3.8-3.6c-0.5-0.1-0.9-0.3-1.3-0.3c-9.2,0-18.3-0.1-27.5,0c-3,0-4.9,2.1-5.1,5.3
			c-0.1,2.3-0.2,4.6-0.2,6.9c0,8.2,0,16.5,0,24.7h0c0,3.7,0,7.3,0,11c0.1,7.3,0.2,14.6,0.3,22c0,1.8,1.7,3.6,3.3,3.8
			c5,0.7,10,0.7,15,0c1.6-0.2,3.3-2,3.3-3.8c0.2-4.1,0.3-8.2,0.3-12.3c0.1-5,0.1-10.1,0.2-15.1c0-0.6,0.7-1.2,1.1-1.8
			c0.5,0.7,1.2,1.3,1.4,2.1c1,3.5,1.8,7.1,2.6,10.6c1.2,5.4,2.3,10.7,3.5,16.1c0.5,2.4,2.5,4.4,4.7,4.4c5.5,0.1,11,0.1,16.5-0.1
			c2-0.1,3.3-1.5,3.9-3.4c0.7-2.2,1.3-4.4,1.8-6.6c1.4-5.8,2.6-11.6,4-17.3c0.1-0.3,0.6-0.7,1-0.8c1.2-0.4,1.9,0,1.9,1.3
			c0.1,6.4,0.2,12.8,0.4,19.2c0.1,1.8,0.3,3.7,0.8,5.4c0.2,0.8,1.1,1.7,1.9,1.9c5.9,1.1,11.8,1.1,17.7,0c1-0.2,2-1.6,2.6-2.7
			c0.4-0.7,0.4-1.8,0.4-2.7c0-20.6,0-41.2,0-61.8C337.8,833.4,337.5,832.5,337.3,831.6z M428.8,891.4c-5.1-13.2-10-26.4-15.4-39.5
			c-12.3-29.9-3.5-23.1-36.9-23.8c-0.5,0-0.9,0.1-1.4,0.1c-2.5,0.2-4.3,1.5-5.2,3.7c-5.7,12.9-11.5,25.8-17.1,38.8
			c-4,9.2-7.9,18.4-11.9,27.7c-0.4,1,0.7,3,1.7,3.2c7.7,1.1,15.4,0.9,23.2,0.2c1.2-0.1,2.5-1.1,3.3-2.1c0.8-1,1.2-2.4,1.7-3.7
			c4.2-10.4,2.5-10.1,14.6-10.2c2.7,0,5.5,0.1,8.2,0c3.5,0,6.2,1,7.4,4.7c0.7,2.2,1.8,4.2,2.5,6.4c1.3,4.2,4.3,5.5,8.4,5.4
			c1.8-0.1,3.7,0,5.5,0v-0.3c3.6,0,7.3,0,10.9,0c1.5,0,3.1-2.4,2.7-4C430.2,895.7,429.6,893.5,428.8,891.4z M389.4,866.6
			c-0.9,0.1-1.8,0.2-2.7,0.2c-0.9-0.1-1.8-0.2-2.7-0.4c-1.1-0.2-2.4-2.1-2-3c1.1-2.9,2.2-5.8,3.6-8.6c0.3-0.6,1.4-0.9,2.2-1.2
			c0.2-0.1,0.8,0.3,0.9,0.6c1.2,2.9,2.4,5.8,3.4,8.7C392.7,864.4,391.2,866.3,389.4,866.6z M446.8,804.9c0.4-1.7,0.7-3.6,0.7-5.4
			c0.1-9.6,0-19.2,0-28.7h0c0-9.1,0-18.2,0-27.4c0-2.3-0.1-4.6-0.6-6.8c-0.3-1-1.7-2.4-2.8-2.5c-7.2-1-14.5-1-21.8,0.1
			c-1,0.2-1.9,1.7-2.5,2.8c-0.4,0.7-0.4,1.8-0.4,2.7c0,20.5,0,41.1,0,61.6c0,1.3,0.3,2.7,0.8,4c0.3,0.8,1.1,1.8,1.8,1.9
			c7.7,1.1,15.4,1.5,23-0.3C445.8,806.7,446.6,805.6,446.8,804.9z M513.3,833.5c-0.2-3.3-2-5.3-5-5.4c-5-0.1-10-0.1-15.1,0
			c-3,0.1-4.8,2.1-4.9,5.4c-0.1,6.9-0.1,13.7-0.2,20.6c0,2.3-0.2,4.5-0.4,6.8c0,0.2,0,0.4,0,0.5c-0.1-0.1-0.3-0.2-0.9,0.2
			c-0.3,0.2-1,0.2-1.2-0.1c-0.9-1-1.9-2-2.6-3.1c-4.3-8.1-8.7-16.1-12.7-24.3c-2.3-4.7-5.8-6.6-10.9-6.3c-5.5,0.2-11,0-16.5,0.1
			c-1.4,0-2.9,0-4,0.5c-1.1,0.5-2.3,1.7-2.6,2.8c-0.6,2.2-0.7,4.5-0.7,6.8c-0.1,8.7,0,17.4,0,26.1h0c0,9.1,0,18.3,0,27.4
			c0,2.3,0.2,4.6,0.4,6.8c0.1,1.7,1.8,3.3,3.6,3.4c4.6,0.2,9.1,0.3,13.7,0.3c4.2,0,6.1-1.7,6.2-5.6c0.2-5.9,0.1-11.9,0.3-17.8
			c0.1-2.3,0.4-4.5,0.8-6.7c0-0.3,0.5-0.7,0.8-0.9c1-0.5,1.8-0.3,2.3,0.6c2,3.6,4.1,7.1,6.1,10.7c3.2,5.6,6.3,11.1,9.5,16.7
			c1,1.7,2.5,2.8,4.4,2.8c8.7,0,17.3-0.1,26-0.3c1.6,0,3.2-2,3.3-3.8c0.1-1.8,0.3-3.6,0.3-5.5c0-18.3,0-36.6,0-54.8
			C513.5,836.3,513.4,834.9,513.3,833.5z"/>
	</g>
</g>
<g>
	<g>
		<path d="M310,274.2c1.6,0.7,3.3,1.4,5.1,2c4.4,1.3,7.1,4.2,7.5,8.8c0.2,2.9,1.1,5.4,3,7.5c2.9,3.3,3.9,7.2,3.7,11.4
			c-0.1,2.7-0.6,5.4-0.7,8.1c0,1.3,0,3.2,0.8,3.8c4.1,3.3,5.1,8.6,8.3,12.5c5.8,7.1,10.6,14.8,13.3,23.7c1.1,3.6,3.3,6.4,6.5,8.6
			c3.8,2.6,7.4,5.2,12.3,5.6c2.6,0.2,5.1,1.8,7.7,2.7c1.7,0.6,3.7-0.9,4-2.7c0.8-4.7-0.2-9.1-2.2-13.3c-0.5-1-1.9-1.9-3.1-2.3
			c-1.2-0.4-2.7-0.2-4.1,0c-4.7,0.6-8-1.5-10.5-5c-2.9-4.1-5.7-8.3-8.5-12.5c-7.4-10.7-12.2-22.5-14.4-35.3
			c-1-5.5-2.9-10.5-5.7-15.3c-1.6-2.7-2.9-5.7-4.2-8.5c-0.6-1.4,0.5-4.1,1.9-4.8c1.2-0.6,2.5-1.2,3.8-1.5c5.7-1.1,11.1,0.3,15.5,3.8
			c3.9,3.1,7.4,6.7,11,10.3c2.4,2.4,3.3,5.4,2.8,8.8c-1.2,9.3,1.1,18.2,3.3,27c0.4,1.6,1.9,3,3.1,4.4c1,1.2,4,0.6,4.7-0.9
			c0.6-1.2,1.4-2.5,1.5-3.7c0.7-8.7,1.4-17.4-0.7-25.9c-1.2-4.9-1.9-9.9-1.5-15c0.7-8.5,3.2-16.2,10.8-21.2c3.4-2.2,4.8-5.3,4.9-9.3
			c0.1-2.3,0.4-4.5,0.7-6.8c0.2-1.6,2.1-3.2,3.9-3.3c1.4-0.1,2.7,0.1,4.1,0.1c2.5,0,4.5-1.1,6-2.8c1.8-2,3.5-4.2,5-6.5
			c1.2-1.9,2.1-4.1,3.1-6.1c2-4.2,5-7.6,8.5-10.6c1.6-1.3,4.3-1.8,4.8-0.5c0.5,1.1,0.7,2.6,0.5,3.8c-0.3,1.3-1.2,2.4-1.8,3.7
			c-0.8,1.6-1.5,3.3-2.1,5c-0.7,2,1.2,5.1,3.2,5.2c1.8,0.1,3.6-0.3,5.4-0.1c0.6,0,1.7,1,1.7,1.5c0,0.7-0.7,1.7-1.4,2
			c-2.1,0.9-4.2,1.7-6.4,2.3c-4,0.9-8.1,1.5-12.1,2.5c-6.3,1.5-12,4.3-17,8.6c-2.2,1.9-1.9,5.9,0.8,6.9c2.1,0.8,4.6,2.1,6.5,1.6
			c6.6-1.6,12.6,0.4,18.8,2c3.1,0.8,6.4,1.6,9.4,1.1c7.7-1.3,15.4-2.2,23.2-2.4c2.1-0.1,4.7-1,6.3-2.4c5-4.4,8.4-9.7,5.9-16.8
			c1.3,0.1,2.7,0,4,0.2c7.2,0.7,12.7-2,16-8.3c2.1-4,4.9-6.2,9.2-7.3c1.6-0.4,3.1-2,4.3-3.3c2.2-2.3,4.1-4.9,6.2-7.3
			c3.9-4.5,7.8-9,12-13.3c3.6-3.7,6.5-4,11-0.8c3.7,2.6,7.4,5.4,10.7,8.6c4.8,4.6,9.9,7.8,16.9,7.8c3.1,0,6.3,1.2,9.4,1.7
			c5.1,0.8,9.5,3,13.5,6.4c3.1,2.7,6.3,5.4,9.8,7.5c4.3,2.5,6.6,6.2,8.1,10.6c2.7,8.3,5.7,16.4,9.6,24.3c2.8,5.8,4.1,12.1,4.6,18.5
			c0.7,10,1.7,20.1,2.6,30.1c0.2,2.4,2.7,4.3,4.9,3.4c3.6-1.5,6.8-2.4,10.1,0.7c0.9,0.8,3.1-0.3,3.3-1.5c0.3-1.3,0.7-2.7,0.5-4
			c-0.6-4.3-2.7-7.7-6-10.5c-3.6-3.1-3.8-7.1-2.7-11.3c1.6-6.2,3.5-12.3,5.3-18.5c0.3-0.9,0.7-1.7,1.2-2.4c1.3-2,3.2-3.2,5.5-3.9
			c1.5-0.5,4.1,1,4.4,2.4c0.2,1.3,0.6,2.7,0.6,4.1c0.3,15.6,0.6,31.1,0.7,46.7c0,3.2-0.4,6.4-1.1,9.5c-1.4,5.7-4.2,10.1-10.6,11.2
			c-2.2,0.4-4.4,1.3-6.6,1.6c-1.9,0.3-3.6-0.4-4.9-1.9c-0.9-1.1-1.6-2.3-2.6-3.2c-0.6-0.5-1.7-0.7-2.5-0.5c-0.7,0.2-1.7,1.1-1.8,1.8
			c-1.2,9.1-1.2,18.2,0,27.3c0.1,0.4,0.4,0.8,0.6,1.2c0.4,1,2.6,2,3.5,1.5c0.8-0.4,1.8-0.7,2.4-1.3c3.3-3.3,6.8-5.8,11.6-6.8
			c3.5-0.7,6.6-3,10-4.4c4.8-2,7-5.8,7.4-10.6c0.5-5.5,0.6-11,0.9-16.5c0.3-5,0.3-10.1,1-15.1c1.1-7.7,1.6-15.5,1.8-23.3
			c0.1-6.4,0.4-12.8,0.4-19.2c0-5,1.9-9.2,6.3-11.4c5.1-2.6,8.9-6.2,11.9-11c2.5-4,6.5-6.3,10.5-8.6c1.6-1,1.5-3.7-0.2-4.6
			c-2.4-1.2-4.9-2.3-7.5-3.3c-4.3-1.6-8.7-2.9-12.4-5.8c-3.1-2.4-5.1-5.3-3.7-9.5c0.1-0.4,0.3-0.9,0.5-1.3c1-2.5,0.1-4.4-1.9-6
			c-1.1-0.9-2.2-1.6-3.3-2.5c-2.4-1.9-3.4-4.5-2.8-7.3c1.6-7.3,1.9-14.5,0.1-21.8c-0.3-1.3-0.2-2.8,0.1-4.1c0.8-4.7-0.5-9-1.9-13.4
			c-4.6-14.5-10.8-28.2-17.2-41.9c-1.7-3.7-3.6-7.4-3.9-11.6c-0.4-4.8-2.9-8.7-5.8-12.2c-4.3-5.4-9.3-10.1-15.2-13.7
			c-4.3-2.6-8.7-5.1-12.9-7.8c-2.3-1.4-5.1-2.7-6.6-4.7c-4.2-5.7-10.5-7.1-16.6-8.8c-2.6-0.7-5.5-0.8-8.2-0.7
			c-5.4,0.2-9.8-1.7-13.8-5.1c-1-0.9-1.9-2-3.1-2.7c-1.5-1-3.1-2.4-4.8-2.5c-6.7-0.6-12-3.9-17.2-7.9c-6.1-4.6-13.3-6.3-20.8-5.5
			c-9.1,0.9-18.1,2.3-27.2,3.7c-9.1,1.4-17.8,4.2-26.1,8.3c-12.7,6.3-25.5,12.4-38.1,19.1c-13.8,7.3-27.2,15.1-40.1,23.9
			c-4.5,3.1-8.8,6.6-13,10.1c-1.4,1.1-2.3,2.8-3.4,4.3c-0.9,1.3-0.3,4.2,1.1,4.9c2.9,1.5,5.9,2.7,9.2,2c2.2-0.4,4.4-1.1,6.6-1.7
			c0.2,0.8,0.3,1.7,0.6,2.4c0.6,1.3,1.6,2.2,3.1,1.9c1.7-0.4,3.4-0.9,5-1.7c3.5-1.7,6.9-3.5,10.3-5.3c-2.9,2.7-5.8,5.4-8.6,8.2
			c-1,0.9-2.1,1.9-2.6,3.1c-0.4,1.1-0.4,2.6,0,3.8c0.2,0.6,1.5,1.1,2.3,1.1c1.8,0.1,3.6,0.1,5.4-0.3c7.2-1.6,13.6-5.1,19.6-9.2
			c3.7-2.5,7.1-5.5,11.5-6.9c-0.9,2-2.1,4.1-1.3,6.3c1.1,3.1-0.2,5.1-2.3,7.1c-10.6,9.9-10.6,9.9-24.6,13.2
			c-1.8,0.4-3.7,0.4-5.3,0.9c-1.7,0.6-3.2,1.7-4.7,2.5c-1.2-4.2-3.9-6.1-8.3-5.4c0,0,0,0,0,0c0,0,0,0,0,0c0,0,0,0,0,0
			c0,0,0.1-0.2,0.1-0.2l0,0c-0.1,0-0.1,0.1-0.2,0.2c-0.6-1.7-1.5-3.5-3.3-3.7c-1.6-0.2-3.7,0.1-5,1c-1.7,1.2-3.1,3-4.4,4.8
			c-1.3,1.8-0.3,4.3,1.9,5.4c0.8,0.4,1.7,0.5,2.5,0.7c-0.1,0.1-0.1,0.1-0.2,0.2l0.2-0.2c-3.9,4.5-7.7,9-11.5,13.6
			c-1.5,1.8-3.2,3.1-5.6,3.6c-2.2,0.5-4.3,1.5-6.6,1.9c-4.7,0.8-7.2,3.9-8.6,7.9c-3.2,9.2-5.3,18.5-2.9,28.2
			c1.4,5.5,1,10.8,0.1,16.3c-1.2,6.8-2.1,13.6-3,20.4c-0.3,2.7-0.5,5.5,0.1,8.2c0.8,4-0.2,7.2-2.6,10.2c-1.2,1.4-2.3,2.9-3.3,4.4
			c-1,1.4-0.6,3.3,1,4.9c0.6,0.6,1.5,1,2.2,1.7c1.5,1.5,1.6,3.5,0,4.6c-2.6,1.8-5.3,3.5-8,5.3c-1.5,1-2.9,2.2-4.3,3.4
			C308.1,270.4,308.6,273.5,310,274.2z M476.3,199.7c8-3.9,14.2-9.5,19-16.9c0.2-0.4,1.5-0.2,2.3-0.1c0.3,0,0.7,0.8,0.6,1.1
			c-0.9,4.9-1.4,9.9-2.8,14.6c-1.5,5-5,8.5-10.4,9.9c-4.5,1.2-8.8,1.9-12.9-1.2c-0.6-0.5-1.6-0.6-2.4-0.8c0.4-0.4,0.9-0.7,1.4-1
			c-0.1,0.1-0.3,0.1-0.4,0.2c-0.3,0.3-0.7,0.5-1,0.8c0,0,0,0,0,0C471.8,204,473.6,201,476.3,199.7z M801.4,520.3
			c-2.2-1.6-4.6-3-7.1-3.9c-5.6-2-11.4-3.5-17-5.4c-21.3-6.9-42.6-13.9-63.9-20.9c-17.9-5.9-36.3-9.2-54.8-12.4
			c-7.2,0.3-13.3-2.6-19.1-6.7c-1.9-1.3-3.8-2.7-5.9-3.5c-6.1-2.6-9.4-7-9.6-13.7c0-1.3-0.5-2.7-1-4c-3.6-8.8-8.8-15.9-18.7-18.3
			c1.5-3.8,3-7.6,4.5-11.4c2.8-7.3,4.7-14.8,4.8-22.7c0-0.9,0.1-1.9-0.2-2.7c-0.3-0.8-0.9-1.7-1.6-1.9c-0.7-0.2-2,0-2.4,0.5
			c-1.3,1.8-2.5,3.8-3.4,5.9c-3,6.2-5.7,12.5-8.8,18.6c-7.4,14.3-16.5,27.4-27.1,39.5c-0.3,0.3-0.8,0.5-1.2,0.4
			c-0.9-0.2-1.4-0.9-1.1-2c0.8-3.1,1.6-6.2,2.3-9.3c0.3-1.3,0.8-2.6,1.1-4c0.5-2.1-0.4-4.6-1.6-4.7c-2.2-0.1-3.3,1.5-4.2,3
			c-1.2,1.9-2.2,4-3.3,6c-1.5,2.8-3,5.7-4.4,8.5c-7.2,14.6-18.9,24.4-33.1,31.7c-5.4,2.7-11,4.2-17.1,4.2
			c-11.9,0.1-23.7-0.2-35.5-2.7c-12.9-2.7-24.4-7.8-34.1-16.5c-6.1-5.5-11.6-11.7-17.3-17.6c-1.9-2-3.5-4.2-5.5-6.1
			c-0.5-0.5-1.6-0.6-2.5-0.6c-1,0-2.1,1.9-1.9,3.2c0.3,1.8,0.5,3.7,1,5.4c1.3,3.9,3.5,7.4,6.1,10.7c8.7,10.6,17.8,20.9,28,30.2
			c4,3.7,8.4,7.1,12.9,10.2c5.6,4,12,6.6,18.7,8.2c3.6,0.9,7.2,1.2,10.8,0c7.9-2.8,16-3.6,24.3-4.1c5.9-0.4,11.8-1.5,17.6-2.7
			c8.3-1.7,15.5-5.4,21.6-11.3c8.2-8,16.3-16,23.1-25.3c4.1-5.5,8.1-11.1,12.1-16.7c2.1-3,4.1-6,6.2-9c0.8-1.1,1.5-2.4,2.5-3.3
			c0.9-0.8,2.2-1.5,3.4-1.9c0.9-0.3,2.1,1.4,2.1,3.1c0.1,11,0.3,22-2.6,32.7c-0.7,2.6-1.6,5.3-0.5,8c0.1,0.3,0.6,0.6,1,0.7
			c0.4,0.1,1.1,0.1,1.3-0.1c1.2-1.4,2.6-2.7,3.3-4.2c3.8-8.3,7.9-16.5,10.3-25.4c0.1-0.3,0.6-0.6,1-0.6c0.4,0,1,0.1,1.2,0.4
			c2.3,3,3,6.6,4,10.1c0.9,3.2,2.6,5.7,5.4,7.7c4.1,3,8,6,12,9.2c2.9,2.3,6.1,4.1,9.7,4.9c3.6,0.8,7.1,1.7,10.7,2.5
			c8,1.9,16.1,3.5,24,5.6c9.3,2.5,18.5,5.3,28,6.8c7,1.1,13.3,3.3,18.5,8.3c3.1,2.9,6.8,4.6,10.8,5.7c7.1,1.9,14.1,3.9,21.5,4
			c4.1,0.1,8.2,0.7,12.2,1.5c7.2,1.4,14.3,3.1,21.5,4.5c1.7,0.3,3.6,0.4,5.4,0.1c1.4-0.2,2.6-1.2,2.7-2.7
			C802.4,522.8,802.2,521,801.4,520.3z M552.9,550.9c-2.9,1.4-5.6,3.1-8.3,4.8c-5.1,3-10.3,6-15.3,9.1c-6.3,3.9-12.8,4.6-19.6,1.6
			c-6.7-2.9-13.6-5.5-20.3-8.4c-5.1-2.2-10.4-3.4-15.9-4.1c-6.3-0.7-10.6,1.7-13.7,6.9c-2.2,3.6-3.5,7.5-3.8,11.6
			c-0.5,6.5,1,12.7,3.3,18.7c0.9,2.2,2.9,3.7,5.2,4c3.6,0.6,7.2,1,10.9,1.1c10.1,0.1,20.1,0,30.2,0.1c9.6,0,19.2,0.1,28.8-0.1
			c5-0.1,10-0.7,15-1.1c8.1-0.7,14.7-4.7,20.9-9.6c9.9-7.9,8.8-22.5,3.2-29.8C568,548.6,560.9,546.8,552.9,550.9z M331.8,145.1
			c0.8,0.2,1.9,0.5,2.5,0.2c2.4-1.5,3.4-4.1,4.7-6.5c1.1-2.2,2.8-3.3,5.4-3.3c1.9,0,3.3-1.4,4.2-3c2-3.5,3.9-7.1,5.7-10.8
			c0.6-1.2,0.5-2.6,0.5-2.6c0.2-2.5-1.2-3.9-2.5-4.1c-2.4-0.4-4.5,0.3-6.3,1.7c-7.9,5.9-13.1,13.7-15.1,23.4c-0.3,1.3,0,2.7,0.1,4
			C331,144.4,331.4,145,331.8,145.1z M547.6,250.7c6-2.2,12-4.4,18.1-6.6c0.4-0.2,0.9-0.3,1.3-0.4c1.8-0.2,3.7-0.5,5.4-0.3
			c2.3,0.2,4.5,0.9,6.7,1.3c3.8,0.6,6.9,2.1,8.8,5.7c0.6,1.1,1.7,2.1,2.9,2.8c0.6,0.4,1.8,0.4,2.6,0.1c0.7-0.3,1.4-1.2,1.6-2
			c0.3-0.8,0.3-1.9,0-2.7c-1.4-3.9-2.9-7.7-4.5-11.5c-1.6-3.6-4.3-6-8.2-6.5c-4.6-0.7-8.9-1.9-13.2-3.5c-5.3-2-10.7-2.4-16.2-1.6
			c-5,0.7-10,1.3-15,1.3c-5.6-0.1-10.8,1.6-15.9,3.9c-9.3,4.2-9.9,5.9-6,15.7c0.9,2.4,2.7,3.6,5,4.2c3.1,0.9,6.2,1.6,9.2,2.6
			c0.9,0.3,2.9-0.1,2.3,2.1c-3.3,1.8-6.6,3.3-9.7,5.3c-5.9,3.8-10.5,8.8-13,15.4c-0.2,0.6,0.5,1.6,1,2.4c0.2,0.3,0.8,0.4,1.3,0.4
			c2.9-0.1,4.8-2.3,7.1-3.6c1.1,6,2.4,6.8,6.5,3.8c1.1-0.8,2-1.9,3.1-2.7c1.7-1.2,3.7-1.4,5.1-0.3c1.4,1.1,2.7,2.4,4.2,3.5
			c6.6,4.7,12.5,4.8,18.6-0.8c3.5-3.2,6.5-4.7,10.9-2.7c1.6,0.7,3.5,1,5.3,1.3c2.6,0.5,6-1.1,7.1-3.2c1.4-2.8,1-7.1-1-9
			c-1.3-1.3-2.7-2.6-4.2-3.5c-5.1-3.2-10.6-5.4-16.5-6.7c-3.9-0.9-7.8-1.5-11.9-2.8C546.9,251.3,547.2,250.8,547.6,250.7z
			 M441.9,400.4c4,1.4,8.1,1,13.6,1.2c2.3-0.1,6,0,9.6-0.7c10-1.8,20-1.6,30.1-1.9c18.9-0.5,37.2-4.3,54.7-11.4
			c4.6-1.9,9-4.5,13.2-7.2c2.2-1.4,4-3.7,5.7-5.8c2.5-3.3,1.9-8-1.3-11.2c-0.6-0.6-1.5-1-2.4-1.3c-1.1-0.5-3.3,0.3-3.5,1.4
			c-0.8,4-1.3,8.3-4.9,10.9c-8.8,6.6-17.8,12.8-29.2,14c-2.7,0.3-5.4,0.8-8.1,1.1c-13.6,1.6-27.2,3.7-40.9,3.5
			c-2.3,0-4.6,0.4-6.8,0.8c-7.8,1.4-15.4,1.5-23.1-0.7c-1.7-0.5-3.6-0.3-5.4-0.3c-1.5,0-3.4,1.7-3.8,3.4
			C438.8,397.8,440.3,399.8,441.9,400.4z M415.4,482.3c-7.5-12.8-11.5-26.9-14.4-41.3c-0.2-0.9-0.6-1.8-0.6-2.7
			c0-0.8,0.1-2.1,0.7-2.4c0.6-0.4,1.7,0.1,2.6,0.2c3.5,0.3,5.3-1.7,4.5-4.7c-0.1-0.4-0.1-0.9-0.3-1.3c-3.4-7.5-6.7-15-10.2-22.5
			c-1.4-2.9-7.4-3.2-9.6-0.4c-1,1.3-1.5,3.5-1.2,5.1c1.8,9,3.9,17.9,5.9,26.8c1.1,4.9,2.4,9.8,3.5,14.7c0.5,2.4-0.2,4.6-1.8,6.4
			c-5,5.5-11.1,9.6-18.4,11.4c-8,2-16,3.9-24.1,5.3c-11.8,2.1-23.3,5.2-34.5,9c-19.5,6.7-38.9,13.6-58.2,20.7
			c-17.6,6.5-34.8,14-51.8,22c-2,0.9-3.8,2.5-5.4,4c-0.5,0.4-0.5,1.7-0.4,2.5c0.1,1.1,2.2,2.1,3.2,1.9c0.9-0.2,1.8-0.4,2.6-0.7
			c13.8-6.2,28.2-10.8,42.5-15.7c4.8-1.6,9.7-2.7,14.7-3.5c9.5-1.5,18.9-3.4,28.4-5.2c5.4-1.1,10.8-2.6,14.9-6.6
			c5.9-5.7,13.1-8.1,20.9-9.5c4.9-0.9,9.9-2.1,14.5-4c8.1-3.3,16.5-5.6,25-7.1c10.1-1.8,19.6-4.6,26.9-12.4c0.3-0.3,0.7-0.5,1.1-0.8
			c1.6-1.1,4-1,5,0.5c2.5,3.8,4.8,7.7,7.4,11.6c1.2,1.9,2.6,3.7,4.2,5.3c0.5,0.5,1.7,0.6,2.6,0.5c1.1,0,2.1-2.1,1.7-3.2
			C416.5,484.8,416.1,483.4,415.4,482.3z M465.5,356.6c-0.8,0.2-3.6,0.4-6.1,1.3c-1.1,0.4-2.3,1.8-2.5,2.9c-0.2,1,0.9,2.4,1.6,3.4
			c0.5,0.7,1.5,1.2,2.3,1.3c8.1,1.6,15.6,4.9,23.2,8c2.1,0.9,4.3,1.6,6.4,2.2c3.2,1,6.4,1,9.4-0.4c8.7-4,17.3-8.1,25.9-12.3
			c0.8-0.4,1.3-1.3,1.9-1.9c1.6-1.5,0.7-4.6-1.5-5.5c-2.6-1.1-5.3-1.4-8-0.5c-2.6,0.9-5.1,2-7.5,3.2c-3.3,1.6-6.4,3.5-9.7,4.9
			c-5.3,2.3-10.6,2.3-15.9-0.3c-2.4-1.2-4.8-2.6-7.2-3.9C474.6,357.3,471.1,356.4,465.5,356.6z M472.7,271.1
			c-10.4-9-22.1-14.6-36.2-12.9c-5.4,0.6-10.8,1.8-16,3.4c-7.5,2.4-14,6.6-19.4,12.4c-1.7,1.9-1.8,5.4-0.2,7.6
			c1.3,1.8,4.2,3.1,6,2.4c3.4-1.2,6.8-2.7,10.2-3.9c1.8-0.7,3.6-0.2,5.1,1c2.1,1.7,4,3.8,6.3,5.1c4.9,2.8,9.6,2.1,13.9-1.6
			c1.4-1.2,2.4-2.8,3.9-3.8c1-0.7,2.6-1,3.8-0.9c1.8,0.2,3.5,1.1,5.2,1.6c3.3,0.8,5-1,6.1-3.8c2.3,1.5,4.5,3,6.8,4.4
			c1.7,1,3.6,0.8,5.1-0.3c1.5-1.1,2.3-2.8,2.2-4.8C475.4,274.7,474.4,272.6,472.7,271.1z"/>
	</g>
</g>
</svg>
