<?xml version="1.0" encoding="utf-8"?>
<!-- Generator: Adobe Illustrator 21.0.0, SVG Export Plug-In . SVG Version: 6.00 Build 0)  -->
<svg version="1.1" id="Слой_1" xmlns="http://www.w3.org/2000/svg" xmlns:xlink="http://www.w3.org/1999/xlink" x="0px" y="0px"
	 viewBox="0 0 1000 1000" style="enable-background:new 0 0 1000 1000;" xml:space="preserve">
<g>
	<g>
		<path d="M763,604.6c0.1-11.2-1.2-22.2-4.2-32.9c-1-3.4-1.8-7,0.3-10.3c4.3-6.8,3.6-14,1.8-21.2c-0.7-2.7-2-5.6,0.1-7.9
			c8.2-9.3,4.7-18.8,0.7-28.3c-1.5-3.5-3-7.1-1.6-10.9c5.7-15.2,0.9-29.9-1.6-44.7c-0.8-4.8-3.3-9.4-7.8-11.6
			c-5.3-2.6-9.3-6.5-13.8-10.1c-6.9-5.4-15.2-8.8-23.5-11.9c-13.9-5.3-27.8-10.3-40.8-17.9c-17.8-10.4-35.5-21.8-56.2-25.4
			c-18.5-3.2-28.9-15-37.2-30.1c-1.6-2.9-3.2-5.7-5.1-8.4c-1.7-2.5-3.2-5.8-5.7-7c-5.6-2.7-5.4-7.3-5.1-12c0.3-4.3,1.1-8.5,1.9-12.7
			c5-25.2,16.5-48.5,22.1-73.6c4.6-20.3,10.9-40.4,13.4-61c2.1-17.6,0.4-35.7-0.7-53.6c-0.7-10.7-4.8-21.1-12.1-28.9
			c-14.7-15.6-32.2-27.5-52.3-35.4c-2.7-1-7-5.7-9.2,1.2c-0.3,0.9-1.8,0.3-2.7-0.3c-9.1-6.4-19.6-6.8-29.8-4.9
			c-8.8,1.6-17.3-3.6-26,0c-7.4,3-15.5,4.6-22.8,7.9c-10.3,4.6-22.1,7.2-30.3,15.2c-13.2,13-23,28.7-25.2,47.7
			c-1.8,15.5-6.5,30.5-7.1,46.3c-0.2,5.7,0.8,10.5,4.9,14.4c8.8,8.5,14.3,18.5,17.4,29.7c0,5.1-0.8,10.1-0.4,15.2
			c0.4,5.2,2.1,10.2,3.8,15.2c3.7,11.1,7.2,22.2,10.7,33.3c2.6,8.3,5.2,16.7,7.8,25c2.4,7.6,4.8,15.2,5.2,23.2
			c0.2,4.4-0.2,8.7-1.2,13c-4.3,4-8,8.1-11.9,12.1c-6.5,6.8-14.2,11.4-23.6,12.4c-10.7,1.1-20.8,4-30.6,8.1
			c-25.5,10.8-50.1,23.9-76.7,32.2c-6.5,2-12.6,5.3-18.9,7.7c-16.7,6.3-26.2,17.5-30.7,35.5c-6.2,24.9-9.7,50.4-18,74.8
			c-0.3,0.9-0.3,2-0.3,3c-0.1,18.7-2.8,37.3-5.7,55.6c-5.4,33.9-13,67.4-16.8,101.5h122.8c-2.9-4-2.7-8.1-1.1-12.7
			c3.4-9.9,7.3-19.3,14.3-27.4c4.4-5.1,11.2-5.7,18.1-2.9c2.3,0.9,5.8,2.6,9.2,1.5c1.6-0.5,3.5-0.7,5.2-0.7c9.9-0.1,10.7,1,6.6,9.7
			c-4.8,10.4-5.3,21.3-3.7,32.4h391c2.4-14.3,7.7-28.4,4.9-43.3C762.9,621.8,763,613.2,763,604.6z M477.6,621.9
			c-0.5,1.1-1.4,2.7-2.7,2.1c-6.1-2.9-12.9-2-19.1-3.8c-2.9-0.8-3.7-4-3.9-6.8c-0.5-4.8-0.7-9.5-1.1-16c4.6-10.4-0.2-22.8,1-35.1
			c0.7-7.4-4-15.4-1.2-23.5c0.7-2.1,1-4.5,2.1-6.4c3.9-6.7,6.2-6.1,11.5-0.8c8.4,8.3,4.9,18.5,2.8,26.2c-2.2,8.1-0.7,13,3.9,18.2
			c6,6.8,6,13.6,0.6,21c-2.8,3.8-11.5,5.7-6.2,12.9c3.1,4.2,5.1,9.9,11.3,11.2C477,621.3,478.2,620.5,477.6,621.9z M490.5,593.2
			c-0.2,3.8-0.8,7.5-1.4,12.7c-5-4.7-7.9-8.6-4.7-14.3c0.7-1.2,1.6-2.8,3.5-2.5C490,589.6,490.6,591.5,490.5,593.2z M537.5,433.2
			c-6.7,10.7-6.1,23.2-8.4,34.8c-3.3,16.5-8.5,32.3-14.3,48.1c-0.1-13.9-0.2-27.6-3.4-41.2c-0.7-3-3.4-5.6-3-8.2
			c0.5-3.8-2.4-8,2.7-11.5c3.6-2.5,1.4-8.1,2.2-12c2.6-12.2,0.8-25.8,9.7-36.7c5.7,7.2,9.5,15.5,14.1,23.2
			C537.6,430.8,538.2,432,537.5,433.2z M550.6,255.3c0.1,2.5,0.7,5.2-0.5,7.4c-3.4,6.2-4.9,13.1-7.4,19.7c-1.4,3.7-2.8,8.8-6.6,9.7
			c-9.1,2.1-11.8,8.9-14.7,16.2c-2.6,6.8-7.7,8-12.5,3.9c-6.1,10.7-18.5,6.9-28.2,10.8c-5.3-2.2-11.7-3.7-16.3-5.8
			c-3.8-1.7-7.8-3.6-9.7-7.2c0,1.3-0.4,2.6-1.1,3.7c-0.3,0.5-0.6,1-0.7,1.5c-0.1,1.3,1.2,2.1,2.4,2.7c7.3,3.4,14.5,6.8,21.8,10.2
			c0.3,1.5-1.3,2.9-2.8,2.5c3.3,1.1,8.4-0.3,11.1-2.9c4,0.6,9.4-1.2,9.4,3.1c0,5.9-7.7,5.2-12.4,6.6c-0.3,0.1-0.5,0.8-0.7,1.2
			c0.1,1.5,1.4,2,2.5,2.6c7.4,4.3,16.4,3.8,23.8,9c2.4,1.7,7.6,0.2,10,4.7c0.6,1.2,2.3,0,3.3-0.7c2.5-1.7,5.3-3.1,7.4-5.1
			c2-1.9,3.4-4.1,6-1.2c1.9,2.1,3.1,3.5,1.7,7.4c-2.6,7.8-10.5,12.6-10.9,21.4c-0.2,5.4-1.3,11.5-6.1,14c-4,2.1-4,4-2.8,7.9
			c-6.4-8.2-11.5-6.6-17.7-0.3c-3.1,3.2-8.4,6-13.4,4.3c-8.9-2.9-12.1,4.1-15.4,9c-3.7,5.6,4,5.2,6.3,7.6c2.2,2.4,4.1,4.3,3.6,7.8
			c-0.6,4.1-4.1,1.7-6,2.7c-4.4,2.5-13.3-0.8-11.7,9c-3.4,0.2-1.2-4.6-4.9-4c0,1-0.3,2,0,2.8c1.2,2.9-0.4,7.9,3.4,8.3
			c3.8,0.3,4-4.5,4.9-7.5c0.8-2.8,1.5-5.2,5.3-5.2c-0.7,3-5.7,4.7,0.5,8.5c4.1,2.5,5.3,10.3,11.6,12.5c0.3,0.1,0.4,2,0,2.7
			c-1.9,3.8,0.7,6.1,2.4,8.9c1.5,2.6,4.3,4.9,2.6,8.7c-10-10.1-9.9-10-18.9-0.8c-3.2,3.3-4.1,5.6-0.4,9.3c3.9,3.8,7.5,7.9,9.9,13.1
			c2.5-5.7,9-5.4,13.3-11.1c-0.8,4.8-1.8,7.5-3.7,9.4c-5.8,5.7-3.3,11.4-0.2,16.9c4.4,7.8,6.3,7.5,12.9,1.5c5.8-5.3,6.9-9.8,1-15.4
			c-1.1-1-1.8-2.4-2.7-3.7c-4.8-7.1-3.4-14.8,3.7-20.6c1.2,1.6,1.5,3.8,0.3,5c-6.6,6.7-2.1,11.8,1.7,17.6
			c6.6,10.1,5.8,17.9-2.1,26.8c-2.8,3.2-3.2,5.6-0.5,9.2c1.8,2.4,5.9,4.5,3.7,8.9c-0.7-0.2-1.3-0.2-1.6-0.5
			c-6.8-9.1-13.6-18.2-20.4-27.3c-5.7-7.7-5.7-7.7-12.4-0.9c-4.1,4.2-4.2,4.3-7-0.5c-0.7-1.2-1.5-1.5-2.3-1.1
			c-6.3,3-7.7-3.9-11.6-5.6c-9.4-4.1,0.2-7.2,0.1-10.8c0-0.5,0.1-1,0.4-1.5c6.8-10.8-2.5-22.8,2.4-33.9c0.5-1.1-4.4-3.8-4.9-6.1
			c-2.6-11.3-3.7-22.9-4.1-34.5c-0.1-2.1,1-4.1,3.3-4.4c2.5-0.4,3.8,1.9,4.4,3.5c1,3,2,5.4,6.5,5.3c-1.7-4.5-2.9-8.5-2.2-12.8
			c0.4-2.4,1.4-4.4,4.5-3.8c2.9,0.6,8-2.9,6.7-4.8c-4.5-6.8,4.5-8.4,4.7-13.4c0.1-1.5,3.4-2.8,1.2-5.5c-2.1-2.6-4.1-1-6-0.1
			c-9.3,4.5-16.9,10.9-22.3,19.8c-2.1,3.5-3.9,7.5-8.3,11c-5-28.3-7.9-55.5-4.9-83.4c-0.4,0.3-0.7,0.7-1.1,1c1.7-5.5,2.7-11.2,3-17
			c0.3-5.7-0.2-11.6-2.9-16.5c-1.2-2.3-0.9-5.7-2.4-7.9c-7.3-10.9-10.2-23.3-12.7-36.1c-2-10.1-5.1-20.2-6.2-30.4
			c-0.1-2.8-0.3-5.6-0.4-8.4c0.1-2.9,0.4-5.8,1-8.6c0.5-2.3,1.2-4.6,1.1-7c-0.1-1.9-0.8-3.9-2.2-5.2c0-0.4,0-0.9,0.1-1.3
			c3.2,3.1,5.9,1.9,9,0.8c-5.6-7.1-10.1-15-8.6-23.7c2.2-13.1,12.3-23.1,15.4-36.1c4.3,5.6,1.2,11.9,3,17.1
			c13-3.4,11.1-14.8,13.5-23.7c0.9-3.5,2-6.7,3.9-9.8c5.8-9.6,13.3-17.7,21.9-24.7c12.4-10.1,33.6-10.3,42.8,1.2
			c8,10,18,18.8,22,31.8c1.3,4.1,3.2,7.5,6.9,10.8c2.8,2.5,4.2,8.6,1.6,13.9c-2.3,4.9-5.1,10.8,1,15.1c6.8,4.8,3.4,8.3-1.4,10.2
			c-9.6,3.9-19.6,7.2-30.2,7.2c-4.4,0-8.7-0.1-11,4.4c-2,0.1-4.1,0.5-6,1.1c-1.8,0.6-3.6,1.3-5.4,1.1c-1.5-0.2-2.8-1-4-1.9
			c-0.3-1.8-2.1-2.2-3.7-2.8c-0.4-0.2-0.8-0.3-1.3-0.4c-0.6-0.3-1.3-0.6-2.1-0.8c-6.1-2.3-13.1-2.3-19.7-2.1
			c-7.5,0.1-14.9,0.3-22.3,1.4c-0.4,0.1-0.8,0.1-1.2,0.2c-2.7,0.1-5.4,0.4-7.6,1.7c-1.4,0.4-2.8,0.8-4.2,1.2
			c0.8,0.1,1.7,0.1,2.5,0.1c0,0-0.1,0.1-0.1,0.1c0.6-0.1,1.1-0.2,1.7-0.2c1-0.1,2-0.2,3-0.4c6-0.8,12-1.6,18-2.5c-0.2,0-0.5,0-0.7,0
			c0.3,0,0.5,0,0.8,0c0,0-0.1,0-0.1,0c0.4,0,0.7,0,1.1,0c1.5,0,3,0.1,4.5,0.2c-7.1,1.6-12.5,7.1-19.2,9.6c-1.2,0.4-1.8,1.8-1.3,3.2
			c0.6,1.5,1.9,1.5,3.1,1.3c2.2-0.4,4.4-0.8,6.2-2.5c1.2-1.1,2.4-2.4,4.3-0.1c6.5,7.7,10,7.6,16.8-0.4c2.3,7.8,5.6,8,11.1,2.4
			c1.3-1.3,2.6-2.7,3.8-4c1.1,1.8,2.1,3.8,2.8,5.8c0.3,0.8,0.5,1.7,0.7,2.5c-0.6,0.5-1.2,1.1-1.8,1.6c-3.8,3.6-2.4,7.3,2.4,6.1
			c0.1,0,0.3-0.1,0.4-0.1c0.1,4.6-0.6,9.3-2,13.6c-5.9,1.3-11.9,2.7-17.8,4c-5.9,1.3-12,2.7-17.8,1.1c-7-1.9-12.7-7.9-16.2-14.8
			c-3.5-6.9-5.3-14.7-7-22.4c-4.7,16.4,6,36,21.5,39.4c6.7,1.5,13.6,0.2,20.4-1c8.7-1.6,18.7-4.2,22.6-12.9c1-2.3-1.1-19.6-2.2-23.7
			c1.7,0.4,3.6,0.6,5.8,0.4c2.6-0.2,5.1-0.7,7.7-1c-1.2,2.3-1.4,4.8,2.7,7.4c1.7,1.1,1.1,6.2,1,9.4c-0.2,5.1-0.8,10.2,0.7,15.1
			c1.7,5.9-1.1,10.5-4.2,14.6c-6.3,8.3-6.5,7.8,3.9,10.6c4.4,1.2,8.4-0.9,12.6,0c1.4,0.3,2.2-0.9,2.9-2c5-6.9,2.7-14.9,2.2-22
			c1.2,0.4,2.6,0.5,3.9,0.6c2.9,0.2,5.7,0.3,8.6,0.5c2.6,0.1,5.1,0.3,7.7,0.4c14.3,2.4,15.1,4.2,12,17.7
			C549.9,246.6,550.4,251,550.6,255.3z M456,396.6c4,0,7,0.3,5.9,5.7C459,401.4,456.8,400.1,456,396.6z M557.8,219.6
			c-2.1,0.7-4.4,0.9-6.6,1c-7.9,0.5-15.8,0.5-23.8,0.2c-3.1-0.1-6.5-0.5-9.3-1.7c-1.1-6-3.4-11.7,1.4-17.7c2.2-2.7,3-6.5,4.4-9.8
			c5.7,2.9,9,10.3,14.3,11.3c6,1.2,10.4,4.5,15.6,6.5c3.9,1.5,4.2,5.2,4.7,8C558.8,218.4,558.5,219,557.8,219.6z M538.9,255
			c-3.6-1.6-9.5-2.1-12.5-0.2c-14.7,9.5-31.3,10.2-47.7,12.3c-3.2,0.4-6.5,0.1-9.7,0.1c10,3.7,20.1,1.9,30.1,3.1
			c3.7,0.4,4.9,1,4.6,5.4c-0.7,8.8,4.8,12.5,13,9.2c4.5-1.8,8.4-4.2,10.4-9.1c2.2-5.4,5.3-10.2,10.6-13.3
			C540.6,260.7,541.7,256.3,538.9,255z M487.5,381.2c-11.3-5.6-17.3-16.2-27.2-22.3C472.5,379.1,476.6,385.7,487.5,381.2z
			 M463.2,506.9c4.1-0.6,6.7-4.6,8.9-8.2c-1.9-4-5.7-8.7-8.4-7.7c-3.4,1.3-6.3,6.4-7.2,10.4C455.7,504.8,460.4,507.3,463.2,506.9z
			 M506.3,391.5c-5.1-10.4-12.3-6.1-25.8,1.2C488.8,389.3,497.4,392.1,506.3,391.5z"/>
	</g>
</g>
<g>
	<g>
		<path d="M465.8,726h3.7l0,36.1c0,0.3,0.3,0.6,0.6,0.6l4.3,0c0.2,0,0.3-0.1,0.4-0.2c0.1-0.1,0.2-0.3,0.2-0.4l0-36.1h3.7
			c0.3,0,0.6-0.3,0.6-0.6v-4.3c0-0.3-0.3-0.6-0.6-0.6h-12.8c-0.3,0-0.6,0.3-0.6,0.6v4.3C465.2,725.8,465.4,726,465.8,726z
			 M453.9,747.5v14.6c0,0.3,0.3,0.6,0.6,0.6h4.3c0.3,0,0.6-0.3,0.6-0.6v-14.6c2.6-1.1,4.3-3.6,4.3-6.5v-19.9c0-0.3-0.3-0.6-0.6-0.6
			h-4.3c-0.3,0-0.6,0.3-0.6,0.6V741c0,0.8-0.7,1.5-1.5,1.5c-0.8,0-1.5-0.7-1.5-1.5v-19.9c0-0.3-0.3-0.6-0.6-0.6h-4.3
			c-0.3,0-0.6,0.3-0.6,0.6V741C449.6,743.9,451.3,746.4,453.9,747.5z M433.2,762.7l4.3,0c0.3,0,0.6-0.3,0.6-0.6l0-16.3l3.1,16.4
			c0.1,0.3,0.3,0.5,0.6,0.5l4.3,0c0.2,0,0.3-0.1,0.4-0.2c0.1-0.1,0.2-0.3,0.2-0.4l0-41c0-0.3-0.3-0.6-0.6-0.6l-4.3,0
			c-0.2,0-0.3,0.1-0.4,0.2c-0.1,0.1-0.2,0.3-0.2,0.4l0,15.9L438,721c-0.1-0.3-0.3-0.5-0.6-0.5l-4.3,0c-0.2,0-0.3,0.1-0.4,0.2
			c-0.1,0.1-0.2,0.3-0.2,0.4l0,41C432.5,762.5,432.8,762.7,433.2,762.7z M353.8,780.6v28.1c0,3.9,3.2,7,7,7c3.9,0,7-3.2,7-7v-28.1
			c0-3.9-3.2-7-7-7C357,773.5,353.8,776.7,353.8,780.6z M362.4,780.6v28.1c0,0.8-0.7,1.5-1.5,1.5s-1.5-0.7-1.5-1.5v-28.1
			c0-0.8,0.7-1.5,1.5-1.5S362.4,779.7,362.4,780.6z M327.3,762.7h11.4c0.3,0,0.6-0.3,0.6-0.6v-4.3c0-0.3-0.3-0.6-0.6-0.6h-6.5v-17.7
			h3.7c0.3,0,0.6-0.3,0.6-0.6v-4.3c0-0.3-0.3-0.6-0.6-0.6h-3.7v-8h6.5c0.3,0,0.6-0.3,0.6-0.6v-4.3c0-0.3-0.3-0.6-0.6-0.6h-11.4
			c-0.3,0-0.6,0.3-0.6,0.6v41C326.6,762.5,326.9,762.7,327.3,762.7z M472.5,810.2c-0.3,0-0.6,0.3-0.6,0.6v4.3c0,0.3,0.3,0.6,0.6,0.6
			h8.6c0.3,0,0.6-0.3,0.6-0.6v-4.3c0-0.3-0.3-0.6-0.6-0.6h-1.5V779h1.5c0.3,0,0.6-0.3,0.6-0.6v-4.3c0-0.3-0.3-0.6-0.6-0.6h-8.6
			c-0.3,0-0.6,0.3-0.6,0.6v4.3c0,0.3,0.3,0.6,0.6,0.6h1.5v31.2H472.5z M352,726h1.5v31.2H352c-0.3,0-0.6,0.3-0.6,0.6v4.3
			c0,0.3,0.3,0.6,0.6,0.6h8.6c0.3,0,0.6-0.3,0.6-0.6v-4.3c0-0.3-0.3-0.6-0.6-0.6H359V726h1.5c0.3,0,0.6-0.3,0.6-0.6v-4.3
			c0-0.3-0.3-0.6-0.6-0.6H352c-0.3,0-0.6,0.3-0.6,0.6v4.3C351.4,725.8,351.7,726,352,726z M324.6,774.3l7.2,41
			c0.1,0.3,0.3,0.5,0.6,0.5h4.2c0.3,0,0.6-0.2,0.6-0.5l1-5.5l1,5.5c0.1,0.3,0.3,0.5,0.6,0.5h4.2c0.3,0,0.6-0.2,0.6-0.5l7.2-41
			c0-0.2,0-0.4-0.1-0.5c-0.1-0.1-0.3-0.2-0.5-0.2h-4.3c-0.3,0-0.6,0.2-0.6,0.5l-4.3,26.6l-1-6.1l3.5-20.2c0-0.2,0-0.4-0.1-0.5
			c-0.1-0.1-0.3-0.2-0.5-0.2h-4.3c-0.3,0-0.6,0.2-0.6,0.5l-0.7,5l-0.7-5c0-0.3-0.3-0.5-0.6-0.5h-4.3c-0.2,0-0.4,0.1-0.5,0.2
			c-0.1,0.1-0.2,0.3-0.1,0.5l3.5,20.2l-1,6.1l-4.3-26.6c0-0.3-0.3-0.5-0.6-0.5h-4.3c-0.2,0-0.4,0.1-0.5,0.2
			C324.6,773.9,324.6,774.1,324.6,774.3z M438.3,773.5h-4.2c-0.3,0-0.6,0.2-0.6,0.5l-5.2,41c0,0.2,0,0.3,0.1,0.5
			c0.1,0.1,0.3,0.2,0.5,0.2h4.3c0.3,0,0.6-0.2,0.6-0.5l0.9-8h2.9l1,8c0,0.3,0.3,0.5,0.6,0.5h4.3c0.2,0,0.3-0.1,0.5-0.2
			c0.1-0.1,0.2-0.3,0.1-0.5l-5.2-41C438.9,773.8,438.6,773.5,438.3,773.5z M435.4,801.7l0.8-6.7l0.8,6.7H435.4z M377.9,815.7
			c3.9,0,7-3.2,7-7v-34.6c0-0.3-0.3-0.6-0.6-0.6H380c-0.3,0-0.6,0.3-0.6,0.6v34.6c0,0.8-0.7,1.5-1.5,1.5s-1.5-0.7-1.5-1.5v-34.6
			c0-0.3-0.3-0.6-0.6-0.6h-4.3c-0.3,0-0.6,0.3-0.6,0.6v34.6C370.9,812.6,374,815.7,377.9,815.7z M403.5,774.2v41
			c0,0.3,0.3,0.6,0.6,0.6h6.4c3.9,0,7-3.2,7-7l0-28.1c0-3.9-3.2-7-7-7h-6.4C403.8,773.5,403.5,773.8,403.5,774.2z M409,779h1.5
			c0.8,0,1.5,0.7,1.5,1.5l0,28.1c0,0.8-0.7,1.5-1.5,1.5H409V779z M415.8,762.7h4.3c0.3,0,0.6-0.2,0.6-0.5l1-8h2.9l1,8
			c0,0.3,0.3,0.5,0.6,0.5h4.3c0.2,0,0.3-0.1,0.5-0.2c0.1-0.1,0.2-0.3,0.1-0.5l-5.2-41c0-0.3-0.3-0.5-0.6-0.5H421
			c-0.3,0-0.6,0.2-0.6,0.5l-5.2,41c0,0.2,0,0.3,0.1,0.5C415.5,762.7,415.6,762.7,415.8,762.7z M423.1,741.9l0.8,6.7h-1.6
			L423.1,741.9z M397.5,762.7c3.9,0,7-3.2,7-7v-28.1c0-3.9-3.2-7-7-7c-3.9,0-7,3.2-7,7v28.1C390.4,759.6,393.6,762.7,397.5,762.7z
			 M395.9,727.6c0-0.8,0.7-1.5,1.5-1.5c0.8,0,1.5,0.7,1.5,1.5v28.1c0,0.8-0.7,1.5-1.5,1.5c-0.8,0-1.5-0.7-1.5-1.5V727.6z M374,762.7
			h6.4c3.9,0,7-3.2,7-7l0-28.1c0-3.9-3.2-7-7-7H374c-0.3,0-0.6,0.3-0.6,0.6v41C373.4,762.5,373.7,762.7,374,762.7z M378.9,726h1.5
			c0.8,0,1.5,0.7,1.5,1.5l0,28.1c0,0.8-0.7,1.5-1.5,1.5h-1.5V726z M625.8,815.7h4.3c0.3,0,0.6-0.2,0.6-0.5l1-8h2.9l1,8
			c0,0.3,0.3,0.5,0.6,0.5h4.3c0.2,0,0.3-0.1,0.5-0.2c0.1-0.1,0.2-0.3,0.1-0.5l-5.2-41c0-0.3-0.3-0.5-0.6-0.5H631
			c-0.3,0-0.6,0.2-0.6,0.5l-5.2,41c0,0.2,0,0.3,0.1,0.5C625.5,815.7,625.6,815.7,625.8,815.7z M633.1,795l0.8,6.7h-1.6L633.1,795z
			 M626.6,868.7h4.3c0.3,0,0.6-0.3,0.6-0.6v-14.6c2.6-1.1,4.3-3.6,4.3-6.5v-19.9c0-0.3-0.3-0.6-0.6-0.6h-4.3c-0.3,0-0.6,0.3-0.6,0.6
			V847c0,0.8-0.7,1.5-1.5,1.5c-0.8,0-1.5-0.7-1.5-1.5v-19.9c0-0.3-0.3-0.6-0.6-0.6h-4.3c-0.3,0-0.6,0.3-0.6,0.6V847
			c0,2.8,1.7,5.4,4.3,6.5v14.6C626,868.5,626.3,868.7,626.6,868.7z M653.6,778.4v-4.3c0-0.3-0.3-0.6-0.6-0.6h-12.8
			c-0.3,0-0.6,0.3-0.6,0.6v4.3c0,0.3,0.3,0.6,0.6,0.6h3.7l0,36.1c0,0.3,0.3,0.6,0.6,0.6l4.3,0c0.2,0,0.3-0.1,0.4-0.2
			c0.1-0.1,0.2-0.3,0.2-0.4l0-36.1h3.7C653.3,779,653.6,778.8,653.6,778.4z M600.3,859h-4.3c-0.3,0-0.6,0.3-0.6,0.6v2.1
			c0,3.9,3.2,7,7,7c3.9,0,7-3.2,7-7v-12.5c0-5.5-3.4-7.5-5.7-8.8c-2-1.2-2.9-1.7-2.9-4v-2.8c0-0.8,0.7-1.5,1.5-1.5
			c0.8,0,1.5,0.7,1.5,1.5v2.1c0,0.3,0.3,0.6,0.6,0.6h4.3c0.3,0,0.6-0.3,0.6-0.6v-2.1c0-3.9-3.2-7-7-7c-3.9,0-7,3.2-7,7v2.8
			c0,5.5,3.4,7.5,5.6,8.8c2,1.2,2.9,1.7,2.9,4.1v12.5c0,0.8-0.7,1.5-1.5,1.5c-0.8,0-1.5-0.7-1.5-1.5v-2.1
			C601,859.2,600.7,859,600.3,859z M608.9,762.7h4.3c0.3,0,0.6-0.3,0.6-0.6v-19.3l4.1,19.4c0.1,0.3,0.3,0.5,0.6,0.5h4.4
			c0.2,0,0.4-0.1,0.5-0.2c0.1-0.1,0.2-0.3,0.1-0.5l-5.3-25.1l4.9-15.6c0.1-0.2,0-0.4-0.1-0.5c-0.1-0.2-0.3-0.3-0.5-0.3H618
			c-0.3,0-0.5,0.2-0.6,0.4l-3.7,11.5v-11.3c0-0.3-0.3-0.6-0.6-0.6h-4.3c-0.3,0-0.6,0.3-0.6,0.6v41
			C608.2,762.5,608.5,762.7,608.9,762.7z M603,916.2c-0.3,0-0.6,0.3-0.6,0.6v4.3c0,0.3,0.3,0.6,0.6,0.6h8.6c0.3,0,0.6-0.3,0.6-0.6
			v-4.3c0-0.3-0.3-0.6-0.6-0.6H610v-31.2h1.5c0.3,0,0.6-0.3,0.6-0.6v-4.3c0-0.3-0.3-0.6-0.6-0.6H603c-0.3,0-0.6,0.3-0.6,0.6v4.3
			c0,0.3,0.3,0.6,0.6,0.6h1.5v31.2H603z M618.8,773.5c-0.2,0-0.3,0.1-0.4,0.2c-0.1,0.1-0.2,0.3-0.2,0.4l0,12.8h-3.1l0-12.8
			c0-0.3-0.3-0.6-0.6-0.6l-4.3,0c-0.2,0-0.3,0.1-0.4,0.2c-0.1,0.1-0.2,0.3-0.2,0.4l0,41c0,0.3,0.3,0.6,0.6,0.6l4.3,0
			c0.2,0,0.3-0.1,0.4-0.2c0.1-0.1,0.2-0.3,0.2-0.4l0-22.6h3.1l0,22.6c0,0.3,0.3,0.6,0.6,0.6l4.3,0c0.2,0,0.3-0.1,0.4-0.2
			c0.1-0.1,0.2-0.3,0.2-0.4l0-41c0-0.3-0.3-0.6-0.6-0.6L618.8,773.5z M650.7,832.1c0.3,0,0.6-0.3,0.6-0.6v-4.3
			c0-0.3-0.3-0.6-0.6-0.6h-11.4c-0.3,0-0.6,0.3-0.6,0.6v41c0,0.3,0.3,0.6,0.6,0.6h11.4c0.3,0,0.6-0.3,0.6-0.6v-4.3
			c0-0.3-0.3-0.6-0.6-0.6h-6.5v-17.7h3.7c0.3,0,0.6-0.3,0.6-0.6v-4.3c0-0.3-0.3-0.6-0.6-0.6h-3.7v-8H650.7z M662.9,836.3h4.3
			c0.3,0,0.6-0.3,0.6-0.6v-2.1c0-3.9-3.2-7-7-7c-3.9,0-7,3.2-7,7v2.8c0,5.5,3.4,7.5,5.6,8.8c2,1.2,2.9,1.7,2.9,4.1v12.5
			c0,0.8-0.7,1.5-1.5,1.5c-0.8,0-1.5-0.7-1.5-1.5v-2.1c0-0.3-0.3-0.6-0.6-0.6h-4.3c-0.3,0-0.6,0.3-0.6,0.6v2.1c0,3.9,3.2,7,7,7
			c3.9,0,7-3.2,7-7v-12.5c0-5.5-3.4-7.5-5.7-8.8c-2-1.2-2.9-1.7-2.9-4v-2.8c0-0.8,0.7-1.5,1.5-1.5s1.5,0.7,1.5,1.5v2.1
			C662.3,836.1,662.6,836.3,662.9,836.3z M664.6,747.5v14.6c0,0.3,0.3,0.6,0.6,0.6h4.3c0.3,0,0.6-0.3,0.6-0.6v-14.6
			c2.6-1.1,4.3-3.6,4.3-6.5v-19.9c0-0.3-0.3-0.6-0.6-0.6h-4.3c-0.3,0-0.6,0.3-0.6,0.6V741c0,0.8-0.7,1.5-1.5,1.5
			c-0.8,0-1.5-0.7-1.5-1.5v-19.9c0-0.3-0.3-0.6-0.6-0.6h-4.3c-0.3,0-0.6,0.3-0.6,0.6V741C660.3,743.9,662,746.4,664.6,747.5z
			 M635.3,762.7l4.3,0c0.2,0,0.3-0.1,0.4-0.2c0.1-0.1,0.2-0.3,0.2-0.4l0-16.3l3.1,16.5c0.1,0.3,0.3,0.5,0.6,0.5h4.2
			c0.3,0,0.5-0.2,0.6-0.5l3.1-16.4l0,16.3c0,0.3,0.3,0.6,0.6,0.6l4.3,0c0.3,0,0.6-0.3,0.6-0.6l0-40.7c0-0.2-0.1-0.3-0.2-0.4
			c-0.1-0.1-0.3-0.2-0.4-0.2h-4.2c-0.3,0-0.5,0.2-0.6,0.5l-5.9,27.3l-5.9-27.3c-0.1-0.3-0.3-0.5-0.6-0.5l-4.2,0
			c-0.3,0-0.6,0.3-0.6,0.6l0,40.7c0,0.2,0.1,0.3,0.2,0.4C635,762.7,635.2,762.7,635.3,762.7z M669.8,773.5c-0.3,0-0.6,0.3-0.6,0.6
			v8.6c0,0.3,0.3,0.6,0.6,0.6h4.3c0.3,0,0.6-0.3,0.6-0.6v-8.6c0-0.3-0.3-0.6-0.6-0.6H669.8z M660.7,809.2c-2.1,0-3.8,1.7-3.8,3.8
			c0,2.1,1.7,3.8,3.8,3.8c2.1,0,3.8-1.7,3.8-3.8C664.5,810.9,662.8,809.2,660.7,809.2z M667.7,783.3v-2.8c0-3.9-3.2-7-7-7
			c-3.9,0-7,3.2-7,7v2.1c0,0.3,0.3,0.6,0.6,0.6h4.3c0.3,0,0.6-0.3,0.6-0.6v-2.1c0-0.8,0.7-1.5,1.5-1.5s1.5,0.7,1.5,1.5v2.8
			c0,3.5-1,6.5-2,9.7c-1.1,3.5-2.3,7-2.3,11.4v2.1c0,0.3,0.3,0.6,0.6,0.6h4.3c0.3,0,0.6-0.3,0.6-0.6v-2.1c0-3.5,1-6.5,2-9.7
			C666.6,791.2,667.7,787.7,667.7,783.3z M594,774.2v4.3c0,0.3,0.3,0.6,0.6,0.6h3.7l0,36.1c0,0.3,0.3,0.6,0.6,0.6l4.3,0
			c0.2,0,0.3-0.1,0.4-0.2c0.1-0.1,0.2-0.3,0.2-0.4l0-36.1h3.7c0.3,0,0.6-0.3,0.6-0.6v-4.3c0-0.3-0.3-0.6-0.6-0.6h-12.8
			C594.3,773.5,594,773.8,594,774.2z M519.5,773.5c-3.9,0-7,3.2-7,7v28.1c0,3.9,3.2,7,7,7c3.9,0,7-3.2,7-7v-28.1
			C526.5,776.7,523.4,773.5,519.5,773.5z M521,808.7c0,0.8-0.7,1.5-1.5,1.5c-0.8,0-1.5-0.7-1.5-1.5v-28.1c0-0.8,0.7-1.5,1.5-1.5
			c0.8,0,1.5,0.7,1.5,1.5V808.7z M528,779h3.7l0,36.1c0,0.3,0.3,0.6,0.6,0.6l4.3,0c0.2,0,0.3-0.1,0.4-0.2c0.1-0.1,0.2-0.3,0.2-0.4
			l0-36.1h3.7c0.3,0,0.6-0.3,0.6-0.6v-4.3c0-0.3-0.3-0.6-0.6-0.6H528c-0.3,0-0.6,0.3-0.6,0.6v4.3C527.4,778.8,527.7,779,528,779z
			 M481.4,762.7l4.3,0c0.2,0,0.3-0.1,0.4-0.2c0.1-0.1,0.2-0.3,0.2-0.4l0-22.6h3.1l0,22.6c0,0.3,0.3,0.6,0.6,0.6l4.3,0
			c0.2,0,0.3-0.1,0.4-0.2c0.1-0.1,0.2-0.3,0.2-0.4l0-41c0-0.3-0.3-0.6-0.6-0.6l-4.3,0c-0.2,0-0.3,0.1-0.4,0.2
			c-0.1,0.1-0.2,0.3-0.2,0.4l0,12.8h-3.1l0-12.8c0-0.3-0.3-0.6-0.6-0.6l-4.3,0c-0.2,0-0.3,0.1-0.4,0.2c-0.1,0.1-0.2,0.3-0.2,0.4
			l0,41C480.8,762.5,481.1,762.7,481.4,762.7z M522.1,826.5c-0.2,0-0.4,0.1-0.5,0.2c-0.1,0.1-0.2,0.3-0.1,0.5l3.5,20.2l-1,6.1
			l-4.3-26.6c0-0.3-0.3-0.5-0.6-0.5h-4.3c-0.2,0-0.4,0.1-0.5,0.2c-0.1,0.1-0.2,0.3-0.1,0.5l7.2,41c0.1,0.3,0.3,0.5,0.6,0.5h4.2
			c0.3,0,0.6-0.2,0.6-0.5l1-5.5l1,5.5c0.1,0.3,0.3,0.5,0.6,0.5h4.2c0.3,0,0.6-0.2,0.6-0.5l7.2-41c0-0.2,0-0.4-0.1-0.5
			c-0.1-0.1-0.3-0.2-0.5-0.2h-4.3c-0.3,0-0.6,0.2-0.6,0.5l-4.3,26.6l-1-6.1l3.5-20.2c0-0.2,0-0.4-0.1-0.5c-0.1-0.1-0.3-0.2-0.5-0.2
			H529c-0.3,0-0.6,0.2-0.6,0.5l-0.7,5l-0.7-5c0-0.3-0.3-0.5-0.6-0.5H522.1z M501.1,774.2v4.3c0,0.3,0.3,0.6,0.6,0.6h1.5v31.2h-1.5
			c-0.3,0-0.6,0.3-0.6,0.6v4.3c0,0.3,0.3,0.6,0.6,0.6h8.6c0.3,0,0.6-0.3,0.6-0.6v-4.3c0-0.3-0.3-0.6-0.6-0.6h-1.5V779h1.5
			c0.3,0,0.6-0.3,0.6-0.6v-4.3c0-0.3-0.3-0.6-0.6-0.6h-8.6C501.4,773.5,501.1,773.8,501.1,774.2z M498.5,726h1.5v31.2h-1.5
			c-0.3,0-0.6,0.3-0.6,0.6v4.3c0,0.3,0.3,0.6,0.6,0.6h8.6c0.3,0,0.6-0.3,0.6-0.6v-4.3c0-0.3-0.3-0.6-0.6-0.6h-1.5V726h1.5
			c0.3,0,0.6-0.3,0.6-0.6v-4.3c0-0.3-0.3-0.6-0.6-0.6h-8.6c-0.3,0-0.6,0.3-0.6,0.6v4.3C497.8,725.8,498.1,726,498.5,726z
			 M511.3,762.7l4.3,0c0.3,0,0.6-0.3,0.6-0.6l0-16.3l3.1,16.4c0.1,0.3,0.3,0.5,0.6,0.5l4.3,0c0.2,0,0.3-0.1,0.4-0.2
			c0.1-0.1,0.2-0.3,0.2-0.4l0-41c0-0.3-0.3-0.6-0.6-0.6l-4.3,0c-0.2,0-0.3,0.1-0.4,0.2c-0.1,0.1-0.2,0.3-0.2,0.4l0,15.9l-3.1-16.1
			c-0.1-0.3-0.3-0.5-0.6-0.5l-4.3,0c-0.2,0-0.3,0.1-0.4,0.2c-0.1,0.1-0.2,0.3-0.2,0.4l0,41C510.6,762.5,510.9,762.7,511.3,762.7z
			 M534.7,762.7c3.9,0,7-3.2,7-7v-12.5c0-0.3-0.3-0.6-0.6-0.6h-6.4c-0.3,0-0.6,0.3-0.6,0.6v4.3c0,0.3,0.3,0.6,0.6,0.6h1.5v7.6
			c0,0.8-0.7,1.5-1.5,1.5c-0.8,0-1.5-0.7-1.5-1.5v-28.1c0-0.8,0.7-1.5,1.5-1.5c0.8,0,1.5,0.7,1.5,1.5v2.1c0,0.3,0.3,0.6,0.6,0.6h4.3
			c0.3,0,0.6-0.3,0.6-0.6v-2.1c0-3.9-3.2-7-7-7c-3.9,0-7,3.2-7,7v28.1C527.7,759.6,530.8,762.7,534.7,762.7z M598.2,762.7
			c3.9,0,7-3.2,7-7v-12.5c0-5.5-3.4-7.5-5.7-8.8c-2-1.2-2.9-1.7-2.9-4v-2.8c0-0.8,0.7-1.5,1.5-1.5c0.8,0,1.5,0.7,1.5,1.5v2.1
			c0,0.3,0.3,0.6,0.6,0.6h4.3c0.3,0,0.6-0.3,0.6-0.6v-2.1c0-3.9-3.2-7-7-7c-3.9,0-7,3.2-7,7v2.8c0,5.5,3.4,7.5,5.6,8.8
			c2,1.2,2.9,1.7,2.9,4.1v12.5c0,0.8-0.7,1.5-1.5,1.5c-0.8,0-1.5-0.7-1.5-1.5v-2.1c0-0.3-0.3-0.6-0.6-0.6h-4.3
			c-0.3,0-0.6,0.3-0.6,0.6v2.1C591.2,759.6,594.3,762.7,598.2,762.7z M554.6,726h1.5v31.2h-1.5c-0.3,0-0.6,0.3-0.6,0.6v4.3
			c0,0.3,0.3,0.6,0.6,0.6h8.6c0.3,0,0.6-0.3,0.6-0.6v-4.3c0-0.3-0.3-0.6-0.6-0.6h-1.5V726h1.5c0.3,0,0.6-0.3,0.6-0.6v-4.3
			c0-0.3-0.3-0.6-0.6-0.6h-8.6c-0.3,0-0.6,0.3-0.6,0.6v4.3C553.9,725.8,554.2,726,554.6,726z M576.3,815.7c3.9,0,7-3.2,7-7v-28.1
			c0-3.9-3.2-7-7-7c-3.9,0-7,3.2-7,7v28.1C569.3,812.6,572.4,815.7,576.3,815.7z M574.8,780.6c0-0.8,0.7-1.5,1.5-1.5
			c0.8,0,1.5,0.7,1.5,1.5v28.1c0,0.8-0.7,1.5-1.5,1.5c-0.8,0-1.5-0.7-1.5-1.5V780.6z M543.4,868.7h11.4c0.3,0,0.6-0.3,0.6-0.6v-4.3
			c0-0.3-0.3-0.6-0.6-0.6h-6.5v-17.7h3.7c0.3,0,0.6-0.3,0.6-0.6v-4.3c0-0.3-0.3-0.6-0.6-0.6h-3.7v-8h6.5c0.3,0,0.6-0.3,0.6-0.6v-4.3
			c0-0.3-0.3-0.6-0.6-0.6h-11.4c-0.3,0-0.6,0.3-0.6,0.6v41C542.8,868.5,543,868.7,543.4,868.7z M552.8,815.7h6.4c3.9,0,7-3.2,7-7
			l0-28.1c0-3.9-3.2-7-7-7h-6.4c-0.3,0-0.6,0.3-0.6,0.6v41C552.2,815.5,552.5,815.7,552.8,815.7z M557.7,779h1.5
			c0.8,0,1.5,0.7,1.5,1.5l0,28.1c0,0.8-0.7,1.5-1.5,1.5h-1.5V779z M459.5,815.6c0.1-0.1,0.2-0.3,0.2-0.4l0-41c0-0.3-0.3-0.6-0.6-0.6
			l-4.3,0c-0.2,0-0.3,0.1-0.4,0.2c-0.1,0.1-0.2,0.3-0.2,0.4l0,15.9l-3.1-16.1c-0.1-0.3-0.3-0.5-0.6-0.5l-4.3,0
			c-0.2,0-0.3,0.1-0.4,0.2c-0.1,0.1-0.2,0.3-0.2,0.4l0,41c0,0.3,0.3,0.6,0.6,0.6l4.3,0c0.3,0,0.6-0.3,0.6-0.6l0-16.3l3.1,16.4
			c0.1,0.3,0.3,0.5,0.6,0.5l4.3,0C459.3,815.7,459.4,815.7,459.5,815.6z M604,968.3h-7.4c-0.2,0-0.4,0.2-0.4,0.4v2.5
			c0,0.2,0.2,0.4,0.4,0.4h7.4c0.2,0,0.4-0.2,0.4-0.4v-2.5C604.4,968.4,604.2,968.3,604,968.3z M599.2,921.6c0.1-0.1,0.2-0.3,0.2-0.4
			l0-41c0-0.3-0.3-0.6-0.6-0.6l-4.3,0c-0.2,0-0.3,0.1-0.4,0.2c-0.1,0.1-0.2,0.3-0.2,0.4l0,12.8h-3.1l0-12.8c0-0.3-0.3-0.6-0.6-0.6
			l-4.3,0c-0.2,0-0.3,0.1-0.4,0.2c-0.1,0.1-0.2,0.3-0.2,0.4l0,41c0,0.3,0.3,0.6,0.6,0.6l4.3,0c0.2,0,0.3-0.1,0.4-0.2
			c0.1-0.1,0.2-0.3,0.2-0.4l0-22.6h3.1l0,22.6c0,0.3,0.3,0.6,0.6,0.6l4.3,0C598.9,921.8,599.1,921.7,599.2,921.6z M585.4,762.7h4.3
			c0.2,0,0.3-0.1,0.5-0.2c0.1-0.1,0.2-0.3,0.1-0.5l-5.2-41c0-0.3-0.3-0.5-0.6-0.5h-4.2c-0.3,0-0.6,0.2-0.6,0.5l-5.2,41
			c0,0.2,0,0.3,0.1,0.5c0.1,0.1,0.3,0.2,0.5,0.2h4.3c0.3,0,0.6-0.2,0.6-0.5l1-8h2.9l1,8C584.8,762.5,585.1,762.7,585.4,762.7z
			 M581.6,748.7l0.8-6.7l0.8,6.7H581.6z M632.5,954.5H630c-0.2,0-0.3,0.1-0.3,0.3l-2.5,15.3l-0.6-3.5l2-11.7c0-0.1,0-0.2-0.1-0.3
			s-0.2-0.1-0.3-0.1h-2.5c-0.2,0-0.3,0.1-0.3,0.3l-0.4,2.9l-0.4-2.9c0-0.2-0.2-0.3-0.4-0.3h-2.5c-0.1,0-0.2,0-0.3,0.1
			c-0.1,0.1-0.1,0.2-0.1,0.3l2,11.7l-0.6,3.5l-2.5-15.3c0-0.2-0.2-0.3-0.3-0.3h-2.5c-0.1,0-0.2,0-0.3,0.1s-0.1,0.2-0.1,0.3l4.1,23.6
			c0,0.2,0.2,0.3,0.3,0.3h2.4c0.2,0,0.3-0.1,0.3-0.3l0.6-3.2l0.6,3.2c0,0.2,0.2,0.3,0.3,0.3h2.4c0.2,0,0.3-0.1,0.3-0.3l4.1-23.6
			c0-0.1,0-0.2-0.1-0.3C632.7,954.6,632.6,954.5,632.5,954.5z M620.7,921.1l0-16.3l3.1,16.4c0.1,0.3,0.3,0.5,0.6,0.5l4.3,0
			c0.2,0,0.3-0.1,0.4-0.2c0.1-0.1,0.2-0.3,0.2-0.4l0-41c0-0.3-0.3-0.6-0.6-0.6l-4.3,0c-0.2,0-0.3,0.1-0.4,0.2
			c-0.1,0.1-0.2,0.3-0.2,0.4l0,15.9l-3.1-16.1c-0.1-0.3-0.3-0.5-0.6-0.5l-4.3,0c-0.2,0-0.3,0.1-0.4,0.2c-0.1,0.1-0.2,0.3-0.2,0.4
			l0,41c0,0.3,0.3,0.6,0.6,0.6l4.3,0C620.4,921.8,620.7,921.5,620.7,921.1z M611.4,954.5h-3.7c-0.2,0-0.4,0.2-0.4,0.4v23.6
			c0,0.2,0.2,0.4,0.4,0.4h3.7c2.2,0,4.1-1.8,4.1-4.1l0-16.2C615.5,956.4,613.6,954.5,611.4,954.5z M612.3,974.8
			c0,0.5-0.4,0.9-0.9,0.9h-0.9v-18h0.9c0.5,0,0.9,0.4,0.9,0.9L612.3,974.8z M593.9,868.1v-4.3c0-0.3-0.3-0.6-0.6-0.6h-1.5V832h1.5
			c0.3,0,0.6-0.3,0.6-0.6v-4.3c0-0.3-0.3-0.6-0.6-0.6h-8.6c-0.3,0-0.6,0.3-0.6,0.6v4.3c0,0.3,0.3,0.6,0.6,0.6h1.5v31.2h-1.5
			c-0.3,0-0.6,0.3-0.6,0.6v4.3c0,0.3,0.3,0.6,0.6,0.6h8.6C593.7,868.7,593.9,868.5,593.9,868.1z M542.1,879.5h-4.2
			c-0.3,0-0.6,0.2-0.6,0.5l-5.2,41c0,0.2,0,0.3,0.1,0.5c0.1,0.1,0.3,0.2,0.5,0.2h4.3c0.3,0,0.6-0.2,0.6-0.5l0.9-8h2.9l1,8
			c0,0.3,0.3,0.5,0.6,0.5h4.3c0.2,0,0.3-0.1,0.5-0.2c0.1-0.1,0.2-0.3,0.1-0.5l-5.2-41C542.6,879.8,542.4,879.5,542.1,879.5z
			 M539.2,907.7l0.8-6.7l0.8,6.7H539.2z M529.9,879.5l-4.3,0c-0.2,0-0.3,0.1-0.4,0.2c-0.1,0.1-0.2,0.3-0.2,0.4l0,12.8H522l0-12.8
			c0-0.3-0.3-0.6-0.6-0.6l-4.3,0c-0.2,0-0.3,0.1-0.4,0.2c-0.1,0.1-0.2,0.3-0.2,0.4l0,41c0,0.3,0.3,0.6,0.6,0.6l4.3,0
			c0.2,0,0.3-0.1,0.4-0.2c0.1-0.1,0.2-0.3,0.2-0.4l0-22.6h3.1l0,22.6c0,0.3,0.3,0.6,0.6,0.6l4.3,0c0.2,0,0.3-0.1,0.4-0.2
			c0.1-0.1,0.2-0.3,0.2-0.4l0-41C530.5,879.8,530.3,879.5,529.9,879.5z M514.3,879.5h-12.8c-0.3,0-0.6,0.3-0.6,0.6v4.3
			c0,0.3,0.3,0.6,0.6,0.6h3.7l0,36.1c0,0.3,0.3,0.6,0.6,0.6l4.3,0c0.2,0,0.3-0.1,0.4-0.2c0.1-0.1,0.2-0.3,0.2-0.4l0-36.1h3.7
			c0.3,0,0.6-0.3,0.6-0.6v-4.3C514.9,879.8,514.6,879.5,514.3,879.5z M573,868.5c0.1-0.2,0.2-0.4,0.1-0.5l-4.3-14.8
			c2.2-1.2,3.6-3.6,3.6-6.1l0-13.5c0-3.9-3.2-7-7-7h-6.4c-0.3,0-0.6,0.3-0.6,0.6v41c0,0.3,0.3,0.6,0.6,0.6h4.3
			c0.3,0,0.6-0.3,0.6-0.6v-12.2l3.6,12.4c0.1,0.3,0.3,0.4,0.6,0.4h4.5C572.7,868.7,572.9,868.7,573,868.5z M565.4,848.6h-1.5V832
			h1.5c0.8,0,1.5,0.7,1.5,1.5l0,13.5C566.9,847.9,566.2,848.6,565.4,848.6z M583.1,879.5h-12.8c-0.3,0-0.6,0.3-0.6,0.6v4.3
			c0,0.3,0.3,0.6,0.6,0.6h3.7l0,36.1c0,0.3,0.3,0.6,0.6,0.6l4.3,0c0.2,0,0.3-0.1,0.4-0.2c0.1-0.1,0.2-0.3,0.2-0.4l0-36.1h3.7
			c0.3,0,0.6-0.3,0.6-0.6v-4.3C583.8,879.8,583.5,879.5,583.1,879.5z M559.8,879.5H547c-0.3,0-0.6,0.3-0.6,0.6v4.3
			c0,0.3,0.3,0.6,0.6,0.6h3.7l0,36.1c0,0.3,0.3,0.6,0.6,0.6l4.3,0c0.2,0,0.3-0.1,0.4-0.2c0.1-0.1,0.2-0.3,0.2-0.4l0-36.1h3.7
			c0.3,0,0.6-0.3,0.6-0.6v-4.3C560.4,879.8,560.2,879.5,559.8,879.5z M671.7,954.5h-7.4c-0.2,0-0.4,0.2-0.4,0.4v2.5
			c0,0.2,0.2,0.4,0.4,0.4h2.1l0,20.8c0,0.2,0.2,0.4,0.4,0.4h2.5c0.1,0,0.2,0,0.2-0.1c0.1-0.1,0.1-0.2,0.1-0.2l0-20.8h2.1
			c0.2,0,0.4-0.2,0.4-0.4v-2.5C672.1,954.7,671.9,954.5,671.7,954.5z M722,757.2h-6.5v-36.1c0-0.3-0.3-0.6-0.6-0.6h-4.3
			c-0.3,0-0.6,0.3-0.6,0.6v41c0,0.3,0.3,0.6,0.6,0.6H722c0.3,0,0.6-0.3,0.6-0.6v-4.3C722.6,757.5,722.3,757.2,722,757.2z
			 M706.4,720.5h-11.4c-0.3,0-0.6,0.3-0.6,0.6v41c0,0.3,0.3,0.6,0.6,0.6h11.4c0.3,0,0.6-0.3,0.6-0.6v-4.3c0-0.3-0.3-0.6-0.6-0.6
			h-6.5v-17.7h3.7c0.3,0,0.6-0.3,0.6-0.6v-4.3c0-0.3-0.3-0.6-0.6-0.6h-3.7v-8h6.5c0.3,0,0.6-0.3,0.6-0.6v-4.3
			C707,720.8,706.8,720.5,706.4,720.5z M684.4,720.5c-3.9,0-7,3.2-7,7v2.8c0,5.5,3.4,7.5,5.6,8.8c2,1.2,2.9,1.7,2.9,4.1v12.5
			c0,0.8-0.7,1.5-1.5,1.5c-0.8,0-1.5-0.7-1.5-1.5v-2.1c0-0.3-0.3-0.6-0.6-0.6H678c-0.3,0-0.6,0.3-0.6,0.6v2.1c0,3.9,3.2,7,7,7
			c3.9,0,7-3.2,7-7v-12.5c0-5.5-3.4-7.5-5.7-8.8c-2-1.2-2.9-1.7-2.9-4v-2.8c0-0.8,0.7-1.5,1.5-1.5c0.8,0,1.5,0.7,1.5,1.5v2.1
			c0,0.3,0.3,0.6,0.6,0.6h4.3c0.3,0,0.6-0.3,0.6-0.6v-2.1C691.5,723.7,688.3,720.5,684.4,720.5z M743.8,756.2
			c-2.1,0-3.8,1.7-3.8,3.8c0,1,0.4,2,1.1,2.7l-1.4,3.9c-0.1,0.2,0,0.4,0.1,0.6c0.1,0.2,0.3,0.3,0.5,0.3h4.5c0.3,0,0.5-0.2,0.6-0.4
			l2-5.8c0,0,0,0,0,0c0.1-0.4,0.2-0.8,0.2-1.2C747.6,757.9,745.9,756.2,743.8,756.2z M674.9,862.2c-2.1,0-3.8,1.7-3.8,3.8
			c0,1,0.4,2,1.1,2.7l-1.4,3.9c-0.1,0.2,0,0.4,0.1,0.6c0.1,0.2,0.3,0.3,0.5,0.3h4.5c0.3,0,0.5-0.2,0.6-0.4l2-5.8c0,0,0,0,0,0
			c0.1-0.4,0.2-0.8,0.2-1.2C678.7,863.9,677,862.2,674.9,862.2z M737.5,720.5h-11.4c-0.3,0-0.6,0.3-0.6,0.6v41
			c0,0.3,0.3,0.6,0.6,0.6h4.3c0.3,0,0.6-0.3,0.6-0.6v-22.6h3.7c0.3,0,0.6-0.3,0.6-0.6v-4.3c0-0.3-0.3-0.6-0.6-0.6h-3.7v-8h6.5
			c0.3,0,0.6-0.3,0.6-0.6v-4.3C738.2,720.8,737.9,720.5,737.5,720.5z M661.5,954.5l-2.5,0c-0.1,0-0.2,0-0.2,0.1
			c-0.1,0.1-0.1,0.2-0.1,0.2v7.4H657l0-7.4c0-0.2-0.2-0.4-0.4-0.4l-2.5,0c-0.1,0-0.2,0-0.2,0.1c-0.1,0.1-0.1,0.2-0.1,0.2l0,23.6
			c0,0.2,0.2,0.4,0.4,0.4h2.5c0.1,0,0.2,0,0.2-0.1c0.1-0.1,0.1-0.2,0.1-0.2l0-13h1.8l0,13c0,0.2,0.2,0.4,0.4,0.4h2.5
			c0.1,0,0.2,0,0.2-0.1c0.1-0.1,0.1-0.2,0.1-0.2l0-23.6C661.9,954.7,661.7,954.5,661.5,954.5z M640.2,975.7h-0.9v-18h0.9
			c0.2,0,0.4-0.2,0.4-0.4v-2.5c0-0.2-0.2-0.4-0.4-0.4h-4.9c-0.2,0-0.4,0.2-0.4,0.4v2.5c0,0.2,0.2,0.4,0.4,0.4h0.9v18h-0.9
			c-0.2,0-0.4,0.2-0.4,0.4v2.5c0,0.2,0.2,0.4,0.4,0.4h4.9c0.2,0,0.4-0.2,0.4-0.4V976C640.6,975.8,640.4,975.7,640.2,975.7z
			 M646.8,954.5c-2.2,0-4.1,1.8-4.1,4.1v16.2c0,2.2,1.8,4.1,4.1,4.1c2.2,0,4.1-1.8,4.1-4.1v-7.2c0-0.2-0.2-0.4-0.4-0.4h-3.7
			c-0.2,0-0.4,0.2-0.4,0.4v2.5c0,0.2,0.2,0.4,0.4,0.4h0.9v4.4c0,0.5-0.4,0.9-0.9,0.9c-0.5,0-0.9-0.4-0.9-0.9v-16.2
			c0-0.5,0.4-0.9,0.9-0.9c0.5,0,0.9,0.4,0.9,0.9v1.2c0,0.2,0.2,0.4,0.4,0.4h2.5c0.2,0,0.4-0.2,0.4-0.4v-1.2
			C650.8,956.4,649,954.5,646.8,954.5z M656.9,919c0-2.1-1.7-3.8-3.8-3.8s-3.8,1.7-3.8,3.8c0,2.1,1.7,3.8,3.8,3.8
			S656.9,921.1,656.9,919z M506.3,868.7c3.9,0,7-3.2,7-7v-12.5c0-5.5-3.4-7.5-5.7-8.8c-2-1.2-2.9-1.7-2.9-4v-2.8
			c0-0.8,0.7-1.5,1.5-1.5c0.8,0,1.5,0.7,1.5,1.5v2.1c0,0.3,0.3,0.6,0.6,0.6h4.3c0.3,0,0.6-0.3,0.6-0.6v-2.1c0-3.9-3.2-7-7-7
			c-3.9,0-7,3.2-7,7v2.8c0,5.5,3.4,7.5,5.6,8.8c2,1.2,2.9,1.7,2.9,4.1v12.5c0,0.8-0.7,1.5-1.5,1.5c-0.8,0-1.5-0.7-1.5-1.5v-2.1
			c0-0.3-0.3-0.6-0.6-0.6h-4.3c-0.3,0-0.6,0.3-0.6,0.6v2.1C499.2,865.6,502.4,868.7,506.3,868.7z M646.3,914.7v-12.5
			c0-0.3-0.3-0.6-0.6-0.6h-6.4c-0.3,0-0.6,0.3-0.6,0.6v4.3c0,0.3,0.3,0.6,0.6,0.6h1.5v7.6c0,0.8-0.7,1.5-1.5,1.5
			c-0.8,0-1.5-0.7-1.5-1.5v-28.1c0-0.8,0.7-1.5,1.5-1.5c0.8,0,1.5,0.7,1.5,1.5v2.1c0,0.3,0.3,0.6,0.6,0.6h4.3c0.3,0,0.6-0.3,0.6-0.6
			v-2.1c0-3.9-3.2-7-7-7c-3.9,0-7,3.2-7,7v28.1c0,3.9,3.2,7,7,7C643.1,921.8,646.3,918.6,646.3,914.7z M491.7,773.5h-6.4
			c-0.3,0-0.6,0.3-0.6,0.6v41c0,0.3,0.3,0.6,0.6,0.6h6.4c3.9,0,7-3.2,7-7l0-28.1C498.8,776.7,495.6,773.5,491.7,773.5z M493.2,808.7
			c0,0.8-0.7,1.5-1.5,1.5h-1.5V779h1.5c0.8,0,1.5,0.7,1.5,1.5L493.2,808.7z M346.1,916.2h-1.5v-31.2h1.5c0.3,0,0.6-0.3,0.6-0.6v-4.3
			c0-0.3-0.3-0.6-0.6-0.6h-8.6c-0.3,0-0.6,0.3-0.6,0.6v4.3c0,0.3,0.3,0.6,0.6,0.6h1.5v31.2h-1.5c-0.3,0-0.6,0.3-0.6,0.6v4.3
			c0,0.3,0.3,0.6,0.6,0.6h8.6c0.3,0,0.6-0.3,0.6-0.6v-4.3C346.7,916.5,346.4,916.2,346.1,916.2z M339.5,868.2
			c0.1,0.3,0.3,0.5,0.6,0.5l4.3,0c0.2,0,0.3-0.1,0.4-0.2c0.1-0.1,0.2-0.3,0.2-0.4l0-41c0-0.3-0.3-0.6-0.6-0.6l-4.3,0
			c-0.2,0-0.3,0.1-0.4,0.2c-0.1,0.1-0.2,0.3-0.2,0.4l0,15.9l-3.1-16.1c-0.1-0.3-0.3-0.5-0.6-0.5l-4.3,0c-0.2,0-0.3,0.1-0.4,0.2
			c-0.1,0.1-0.2,0.3-0.2,0.4l0,41c0,0.3,0.3,0.6,0.6,0.6l4.3,0c0.3,0,0.6-0.3,0.6-0.6l0-16.3L339.5,868.2z M323.7,826.5h-4.2
			c-0.3,0-0.6,0.2-0.6,0.5l-5.2,41c0,0.2,0,0.3,0.1,0.5c0.1,0.1,0.3,0.2,0.5,0.2h4.3c0.3,0,0.6-0.2,0.6-0.5l1-8h2.9l1,8
			c0,0.3,0.3,0.5,0.6,0.5h4.3c0.2,0,0.3-0.1,0.5-0.2c0.1-0.1,0.2-0.3,0.1-0.5l-5.2-41C324.2,826.8,324,826.5,323.7,826.5z
			 M320.7,854.7l0.8-6.7l0.8,6.7H320.7z M362.1,861.7l0-28.1c0-3.9-3.2-7-7-7h-6.4c-0.3,0-0.6,0.3-0.6,0.6v41c0,0.3,0.3,0.6,0.6,0.6
			h6.4C358.9,868.7,362.1,865.6,362.1,861.7z M356.6,861.7c0,0.8-0.7,1.5-1.5,1.5h-1.5V832h1.5c0.8,0,1.5,0.7,1.5,1.5L356.6,861.7z
			 M365.9,879.5h-6.4c-0.3,0-0.6,0.3-0.6,0.6v41c0,0.3,0.3,0.6,0.6,0.6h6.4c3.9,0,7-3.2,7-7l0-28.1
			C373,882.7,369.8,879.5,365.9,879.5z M367.5,914.7c0,0.8-0.7,1.5-1.5,1.5h-1.5v-31.2h1.5c0.8,0,1.5,0.7,1.5,1.5L367.5,914.7z
			 M383,879.5c-3.9,0-7,3.2-7,7v28.1c0,3.9,3.2,7,7,7c3.9,0,7-3.2,7-7v-28.1C390,882.7,386.9,879.5,383,879.5z M384.5,914.7
			c0,0.8-0.7,1.5-1.5,1.5s-1.5-0.7-1.5-1.5v-28.1c0-0.8,0.7-1.5,1.5-1.5s1.5,0.7,1.5,1.5V914.7z M384.1,868.1v-4.3
			c0-0.3-0.3-0.6-0.6-0.6h-1.5V832h1.5c0.3,0,0.6-0.3,0.6-0.6v-4.3c0-0.3-0.3-0.6-0.6-0.6h-8.6c-0.3,0-0.6,0.3-0.6,0.6v4.3
			c0,0.3,0.3,0.6,0.6,0.6h1.5v31.2h-1.5c-0.3,0-0.6,0.3-0.6,0.6v4.3c0,0.3,0.3,0.6,0.6,0.6h8.6C383.8,868.7,384.1,868.5,384.1,868.1
			z M275.3,720.5h-11.4c-0.3,0-0.6,0.3-0.6,0.6v41c0,0.3,0.3,0.6,0.6,0.6h11.4c0.3,0,0.6-0.3,0.6-0.6v-4.3c0-0.3-0.3-0.6-0.6-0.6
			h-6.5v-17.7h3.7c0.3,0,0.6-0.3,0.6-0.6v-4.3c0-0.3-0.3-0.6-0.6-0.6h-3.7v-8h6.5c0.3,0,0.6-0.3,0.6-0.6v-4.3
			C275.9,720.8,275.6,720.5,275.3,720.5z M319.7,773.5c-0.3,0-0.6,0.3-0.6,0.6v8.6c0,0.3,0.3,0.6,0.6,0.6h4.3c0.3,0,0.6-0.3,0.6-0.6
			v-8.6c0-0.3-0.3-0.6-0.6-0.6H319.7z M290.8,720.5h-11.4c-0.3,0-0.6,0.3-0.6,0.6v41c0,0.3,0.3,0.6,0.6,0.6h4.3
			c0.3,0,0.6-0.3,0.6-0.6v-22.6h3.7c0.3,0,0.6-0.3,0.6-0.6v-4.3c0-0.3-0.3-0.6-0.6-0.6h-3.7v-8h6.5c0.3,0,0.6-0.3,0.6-0.6v-4.3
			C291.4,720.8,291.2,720.5,290.8,720.5z M300,720.5c-3.9,0-7,3.2-7,7v28.1c0,3.9,3.2,7,7,7c3.9,0,7-3.2,7-7v-28.1
			C307,723.7,303.9,720.5,300,720.5z M301.5,755.7c0,0.8-0.7,1.5-1.5,1.5c-0.8,0-1.5-0.7-1.5-1.5v-28.1c0-0.8,0.7-1.5,1.5-1.5
			c0.8,0,1.5,0.7,1.5,1.5V755.7z M315.5,762.1v-12.2l3.6,12.4c0.1,0.3,0.3,0.4,0.6,0.4h4.5c0.2,0,0.4-0.1,0.5-0.2
			c0.1-0.2,0.2-0.4,0.1-0.5l-4.3-14.8c2.2-1.2,3.6-3.6,3.6-6.1l0-13.5c0-3.9-3.2-7-7-7h-6.4c-0.3,0-0.6,0.3-0.6,0.6v41
			c0,0.3,0.3,0.6,0.6,0.6h4.3C315.2,762.7,315.5,762.5,315.5,762.1z M315.5,726h1.5c0.8,0,1.5,0.7,1.5,1.5l0,13.5
			c0,0.8-0.7,1.5-1.5,1.5h-1.5V726z M253.2,720.5h-6.4c-0.3,0-0.6,0.3-0.6,0.6v41c0,0.3,0.3,0.6,0.6,0.6h6.4c3.9,0,7-3.2,7-7l0-14.7
			c0-1.6-0.5-3.1-1.5-4.3c0.9-1.2,1.5-2.7,1.5-4.3l0-4.9C260.3,723.7,257.1,720.5,253.2,720.5z M254.8,755.7c0,0.8-0.7,1.5-1.5,1.5
			h-1.5v-17.7h1.5c0.8,0,1.5,0.7,1.5,1.5L254.8,755.7z M254.8,732.5c0,0.8-0.7,1.5-1.5,1.5h-1.5v-8h1.5c0.8,0,1.5,0.7,1.5,1.5
			L254.8,732.5z M399.1,826.5h-11.4c-0.3,0-0.6,0.3-0.6,0.6v41c0,0.3,0.3,0.6,0.6,0.6h4.3c0.3,0,0.6-0.3,0.6-0.6v-22.6h3.7
			c0.3,0,0.6-0.3,0.6-0.6v-4.3c0-0.3-0.3-0.6-0.6-0.6h-3.7v-8h6.5c0.3,0,0.6-0.3,0.6-0.6v-4.3C399.7,826.8,399.4,826.5,399.1,826.5z
			 M466.1,879.5h-6.4c-0.3,0-0.6,0.3-0.6,0.6v41c0,0.3,0.3,0.6,0.6,0.6h6.4c3.9,0,7-3.2,7-7l0-28.1
			C473.1,882.7,469.9,879.5,466.1,879.5z M467.6,914.7c0,0.8-0.7,1.5-1.5,1.5h-1.5v-31.2h1.5c0.8,0,1.5,0.7,1.5,1.5L467.6,914.7z
			 M453.5,826.5h-11.4c-0.3,0-0.6,0.3-0.6,0.6v41c0,0.3,0.3,0.6,0.6,0.6h11.4c0.3,0,0.6-0.3,0.6-0.6v-4.3c0-0.3-0.3-0.6-0.6-0.6
			h-6.5v-17.7h3.7c0.3,0,0.6-0.3,0.6-0.6v-4.3c0-0.3-0.3-0.6-0.6-0.6h-3.7v-8h6.5c0.3,0,0.6-0.3,0.6-0.6v-4.3
			C454.2,826.8,453.9,826.5,453.5,826.5z M447.7,879.5h-12.8c-0.3,0-0.6,0.3-0.6,0.6v4.3c0,0.3,0.3,0.6,0.6,0.6h3.7l0,36.1
			c0,0.3,0.3,0.6,0.6,0.6l4.3,0c0.2,0,0.3-0.1,0.4-0.2c0.1-0.1,0.2-0.3,0.2-0.4l0-36.1h3.7c0.3,0,0.6-0.3,0.6-0.6v-4.3
			C448.3,879.8,448,879.5,447.7,879.5z M495.6,826.5l-4.3,0c-0.2,0-0.3,0.1-0.4,0.2c-0.1,0.1-0.2,0.3-0.2,0.4l0,15.9l-3.1-16.1
			c-0.1-0.3-0.3-0.5-0.6-0.5l-4.3,0c-0.2,0-0.3,0.1-0.4,0.2c-0.1,0.1-0.2,0.3-0.2,0.4l0,41c0,0.3,0.3,0.6,0.6,0.6l4.3,0
			c0.3,0,0.6-0.3,0.6-0.6l0-16.3l3.1,16.4c0.1,0.3,0.3,0.5,0.6,0.5l4.3,0c0.2,0,0.3-0.1,0.4-0.2c0.1-0.1,0.2-0.3,0.2-0.4l0-41
			C496.2,826.8,496,826.5,495.6,826.5z M483.1,879.5c-3.9,0-7,3.2-7,7v28.1c0,3.9,3.2,7,7,7c3.9,0,7-3.2,7-7v-28.1
			C490.2,882.7,487,879.5,483.1,879.5z M484.7,914.7c0,0.8-0.7,1.5-1.5,1.5c-0.8,0-1.5-0.7-1.5-1.5v-28.1c0-0.8,0.7-1.5,1.5-1.5
			c0.8,0,1.5,0.7,1.5,1.5V914.7z M480.5,868.5c0.1-0.1,0.2-0.3,0.1-0.5l-5.2-41c0-0.3-0.3-0.5-0.6-0.5h-4.2c-0.3,0-0.6,0.2-0.6,0.5
			l-5.2,41c0,0.2,0,0.3,0.1,0.5c0.1,0.1,0.3,0.2,0.5,0.2h4.3c0.3,0,0.6-0.2,0.6-0.5l1-8h2.9l1,8c0,0.3,0.3,0.5,0.6,0.5h4.3
			C480.2,868.7,480.4,868.7,480.5,868.5z M471.9,854.7l0.8-6.7l0.8,6.7H471.9z M400,810.2h-6.5v-36.1c0-0.3-0.3-0.6-0.6-0.6h-4.3
			c-0.3,0-0.6,0.3-0.6,0.6v41c0,0.3,0.3,0.6,0.6,0.6H400c0.3,0,0.6-0.3,0.6-0.6v-4.3C400.6,810.5,400.3,810.2,400,810.2z
			 M415.7,879.5l-4.3,0c-0.2,0-0.3,0.1-0.4,0.2c-0.1,0.1-0.2,0.3-0.2,0.4l0,15.9l-3.1-16.1c-0.1-0.3-0.3-0.5-0.6-0.5l-4.3,0
			c-0.2,0-0.3,0.1-0.4,0.2c-0.1,0.1-0.2,0.3-0.2,0.4l0,41c0,0.3,0.3,0.6,0.6,0.6l4.3,0c0.3,0,0.6-0.3,0.6-0.6l0-16.3l3.1,16.4
			c0.1,0.3,0.3,0.5,0.6,0.5l4.3,0c0.2,0,0.3-0.1,0.4-0.2c0.1-0.1,0.2-0.3,0.2-0.4l0-41C416.3,879.8,416,879.5,415.7,879.5z
			 M438.4,868.6c0.1-0.1,0.2-0.3,0.2-0.4l0-41c0-0.3-0.3-0.6-0.6-0.6l-4.3,0c-0.2,0-0.3,0.1-0.4,0.2c-0.1,0.1-0.2,0.3-0.2,0.4
			l0,12.8H430l0-12.8c0-0.3-0.3-0.6-0.6-0.6l-4.3,0c-0.2,0-0.3,0.1-0.4,0.2c-0.1,0.1-0.2,0.3-0.2,0.4l0,41c0,0.3,0.3,0.6,0.6,0.6
			l4.3,0c0.2,0,0.3-0.1,0.4-0.2c0.1-0.1,0.2-0.3,0.2-0.4l0-22.6h3.1l0,22.6c0,0.3,0.3,0.6,0.6,0.6l4.3,0
			C438.1,868.7,438.3,868.7,438.4,868.6z M422.3,832c0.3,0,0.6-0.3,0.6-0.6v-4.3c0-0.3-0.3-0.6-0.6-0.6h-12.8
			c-0.3,0-0.6,0.3-0.6,0.6v4.3c0,0.3,0.3,0.6,0.6,0.6h3.7l0,36.1c0,0.3,0.3,0.6,0.6,0.6l4.3,0c0.2,0,0.3-0.1,0.4-0.2
			c0.1-0.1,0.2-0.3,0.2-0.4l0-36.1H422.3z M426.3,879.5c-3.9,0-7,3.2-7,7v28.1c0,3.9,3.2,7,7,7c3.9,0,7-3.2,7-7v-28.1
			C433.3,882.7,430.2,879.5,426.3,879.5z M427.8,914.7c0,0.8-0.7,1.5-1.5,1.5c-0.8,0-1.5-0.7-1.5-1.5v-28.1c0-0.8,0.7-1.5,1.5-1.5
			c0.8,0,1.5,0.7,1.5,1.5V914.7z"/>
	</g>
</g>
</svg>
