<?xml version="1.0" encoding="utf-8"?>
<!-- Generator: Adobe Illustrator 21.0.0, SVG Export Plug-In . SVG Version: 6.00 Build 0)  -->
<svg version="1.1" id="Layer_1" xmlns="http://www.w3.org/2000/svg" xmlns:xlink="http://www.w3.org/1999/xlink" x="0px" y="0px"
	 viewBox="0 0 500 500" style="enable-background:new 0 0 500 500;" xml:space="preserve">
<g>
	<path d="M258,23.5c2.2,0.4,4.5,0.8,6.7,1.3c6,1.1,11.9,2.5,17.3,5.4c2.6,1.4,4,3.6,5.5,5.9c2.5,3.7,3.9,7.9,4.6,12.3
		c0.2,1.1,0,2.1,0.2,3.2c0.5,2.7,2.1,4,4.7,4.3c3.6,0.3,6.7,1.9,9.4,4.2c2.8,2.3,5.8,4.6,8.4,7.1c4.8,4.7,8.2,10.3,10.1,16.9
		c0.4,1.5,0.3,3,0.5,4.4c0.4,4.3,0.8,8.5,1.1,12.8c0.2,3.7,0.6,7.4,0.5,11c-0.2,6-0.5,11.9-1.9,17.8c-0.4,1.6-0.9,2.9-2.3,4
		c1.1,0.5,1.8-0.1,2.6-0.1c1.5,0,2.5,0.7,3.2,1.8c1,1.7,1.8,3.5,2.6,5.2c-0.7,0.4-1.1,0.2-1.6-0.2c-0.3-0.3-0.6-0.7-1.1-0.9
		c-0.5-0.2-0.8-0.9-1.5-0.4c-0.7,0.5-0.7,1.1-0.5,1.8c0.6,2.6,1.2,5.2,1.9,7.7c0.4,1.5,0.2,3,0.2,4.8c-1.3-0.6-2-1.7-3-2.3
		c-1.6-1-3.5-1.4-5-2.6c-2.5-1.9-3.1-4.8-3.5-7.6c-1.6-11.6-3.4-23.1-8.2-33.9c-1.4-3.1-2.3-6.3-3.3-9.6c-1.2-3.8-2.7-7.5-4-11.3
		c-0.9-2.5-1.1-5.2-1.5-7.8c-0.3-2.5-0.4-5.1-0.8-7.7c-0.2-1.5-1.3-2.2-2.1-3.2c-2.5-3.2-4.9-6.4-7.8-9.2c-2.6-2.6-5.9-4-9.3-4.7
		c-4.7-1-9.6-1.3-14.4-1.9c-3.2-0.4-6.5-1-9.7-1.5c-1.2-0.2-2.5-0.1-3.2,1.1c-0.3,0.5-0.4,0.4-0.8,0.2c-1.7-0.9-3.5-0.8-5.4-0.4
		c-1.5,0.3-3-0.1-4.5-0.2c-4-0.4-7.6,1.3-11.3,2.5c-4.9,1.6-9.7,3.4-14.2,5.6c-5.7,2.8-10.6,6.6-15.5,10.5
		c-3.5,2.8-5.2,6.8-7.6,10.4c-0.5,0.7-0.1,1,0.3,1.3c1,0.8,1.3,1.7,0.6,2.8c-0.5,0.9-0.5,1.4,0.8,1.5c0.8,0,1.2,0.4,0.9,1.4
		c-0.3,0.9,0.3,1.8,0.7,2.6c0.6,1.4,1.4,2.7,1.8,4.2c0.7,2.8-0.4,5.2-1.3,7.7c-1.6,4.3-3.2,8.5-4.8,12.8c-0.3,0.8-0.5,1.8-0.1,2.4
		c1.5,2.5,0.6,5,0.2,7.5c-1.1,5.6-1.5,11.1-1,16.8c0.3,3.3,1,6.8-0.6,10.1c-0.3,0.6-0.2,1.6-1.2,1.6c-0.8,0-1.5-0.6-1.8-1.5
		c-1.3-4.3-4.7-5.8-8.6-6.6c-0.9-0.2-1.9-0.1-2.7-0.4c-1.9-0.7-2-2.4-2.3-4c-0.9-5-1.5-10.1-1.8-15.2c-0.2-2.8-0.4-5.6-0.7-8.3
		c-0.4-3.5-0.8-7-1.2-10.6c0-0.4,0-0.8,0-1.3c0-3.7,0-7.3,0-11c0.1-9.6,2.5-18.4,8-26.4c3.1-4.5,6.2-8.9,10.3-12.5
		c3.1-2.7,6.4-5.1,9.6-7.8c6.1-5.1,12.7-9.5,19.2-13.8c5.1-3.4,10.4-6.3,16.4-7.7c2.6-0.6,5.2-0.7,7.8-1.1c1.8-0.3,3.7-0.3,5.5-0.9
		C250.9,23.5,254.4,23.5,258,23.5z M216.9,310.7c-0.1-2.8,0-5.6-0.4-8.4c-0.4-3.7-0.4-7.3,0.3-10.9c0.2-1-0.5-1.6-1.2-1.6
		c-1,0-1-0.3-0.8-1c0.3-1.4,0.5-2.7,0.5-4.1c0-3.8-0.4-7.6-1-11.4c-0.6-3.8-1.6-7.6-2.9-11.2c-2.1-5.8-3.7-11.7-3.6-18
		c0-2.2,0-4.4,0-6.6c0-0.5,0.1-1-0.5-1.2c-0.5-0.2-0.8,0.3-1,0.6c-1.6,2.1-3,4.3-3.6,6.9c-0.9,3.8-1.7,7.7-2.5,11.5
		c-0.2,0.9-0.7,1.7-1.3,2.4c-1.3,1.8-3.3,1.4-5,1.6c-6.4,0.6-12.5,2.2-18.6,4c-4,1.2-7.9,2.9-11.7,4.5c-5.4,2.3-11.1,4-16.1,7
		c-2.4,1.4-4.9,2.9-6.5,5.1c-2.5,3.2-5.3,3.8-9,2.8c-2-0.5-4-0.8-6.1-0.8c-2.3,0-4.5,0.4-6.8,0.6c-4.2,0.5-8.4,1.2-12.6,2.1
		c-5.5,1.2-10.8,3.2-16.1,5c-4.2,1.5-8.2,3.2-11.4,6.5c-0.2,0.2-0.5,0.5-0.6,0.4c-2.1-0.8-1.3,0.9-1.3,1.5c0,19.2,0,38.5-0.1,57.7
		c0,1.7,0.5,2,2,2c113.1,0,226.2,0,339.4,0c1.5,0,2-0.3,2-1.9c-0.1-33.2,0-66.3,0-99.5c0-0.3,0-0.6,0-0.9c0.1-0.8-0.4-1.2-1-1.2
		c-1.8,0-3.7-0.2-5.5,0.1c-3,0.5-5.9,1.7-8.6,3.1c-2.1,1.1-4.4,1.4-6.7,0.8c-0.8-0.2-1.5-0.8-2.4-1c-3.3-0.7-6.6-1-10-0.9
		c-1.6,0-3.2-0.2-4.7-0.8c-2.5-0.9-4.9-2.2-7.5-3c-4.7-1.4-9.6-0.8-14.4-1.2c-2.1-0.2-4.2-0.5-6.1-1.5c-3.2-1.7-6.3-3.7-9.9-4.5
		c-1.1-0.2-2-0.7-2.9-1.4c-4.7-3.6-9.2-7.4-12.9-12c-2.5-3.1-4.6-6.5-6.2-10.2c-1.4-3.3-3.6-5.9-7-7.3c-0.4-0.2-0.9-0.5-1.2-0.2
		c-0.4,0.3-0.5,0.9-0.4,1.4c0.1,0.3,0.2,0.7,0.4,1c0.9,1.9,1.5,3.9,1.4,5.9c-0.1,3-1.1,5.8-2.7,8.4c-2.3,3.8-5,7.4-7.7,10.9
		c-5.6,7.4-11,14.9-16,22.8c-5.5,8.7-11.4,17.1-16.6,26c-4.8,8.1-9.1,16.5-13.7,24.8c-0.3,0.5-0.3,1.4-1.1,1.3
		c-0.6-0.1-1-0.8-1.1-1.4c-0.9-4.1-3.4-7.7-3.7-12c-0.2-3.1-0.6-6.2,0.4-9.3c1.8-5.7,6.1-9.5,10.5-13c2.6-2.1,5.8-3.3,8.4-5.3
		c1.3-1,1.6-1.7,0.8-3.1c-0.6-1.1-1.5-2-2.2-2.9c-3.1-4.2-6.4-8.2-10.7-11.3c-3.1-2.3-6.5-3.3-10.2-1.6c-1.1,0.5-2.2,0.4-3.4-0.1
		c-0.8-0.3-0.9-0.5-0.2-1.1c0.4-0.3,0.8-0.8,0.5-1.3c-0.3-0.5-1-0.3-1.4-0.2c-1.6,0.5-3.2,1.2-4.6,2.1c-4.6,2.9-8.4,6.6-11.8,10.8
		c-2.7,3.3-5.1,6.9-6.8,10.8c-0.9,2-1.7,4-2,6.4c1.2-0.8,2.1-1.4,3.1-2c1.6-1,2.7-2.3,2.9-4.3c0-0.7,0.4-1,1-1.2
		c2.4-1,3.6-0.4,4,2.2c1,5.8-0.2,11.1-4.3,15.4c-3.5,3.7-5.7,7.9-6.7,12.9c-0.5,2.5-1.4,4.9-2.8,7.1
		C216.9,313.2,216.9,311.9,216.9,310.7z M288.1,198.8c-1.1-0.3-1,0.7-1.3,1.3c-0.3,0.9-1,1.1-1.8,1.1c-1-0.1-1.6,0.3-1.7,1.4
		c-0.1,1.5-1.1,2-2.5,2.1c-2.6,0.2-4.8,1.2-5.8,3.8c-0.1,0.3-0.2,0.8-0.6,0.8c-1.8,0.1-3.1,1.3-4.7,1.8c-0.6,0.2-1.3,0.4-1.8,0.1
		c-1.7-1-3.4-0.6-4.8,0.5c-1.8,1.4-3.9,1.2-5.8,0.8c-3.5-0.7-6.8-0.6-10.2,0.3c-2.8,0.8-5.7,1.6-8.8,0.5c-1.1-0.4-2.5-0.2-3.7,0
		c-3.2,0.6-6.3,1.4-9.6,1.2c-0.9-0.1-1.7,0.1-2.4,0.7c-0.2,0.2-0.6,0.6-0.1,0.7c1.6,0.7,2.6,2.4,4.4,2.8c3.7,0.9,7.4,1.5,11.1,2.3
		c2.9,0.6,6,0.4,8.8,1.3c2.4,0.8,4.7,2,7.5,2.2c-0.4,0.2-0.7,0.5-1,0.5c-0.5,0-0.9,0-0.9,0.7c0.1,0.8,0.7,0.5,1.1,0.5
		c1.2,0,2.4,0,3.6,0c1.8,0.1,3-0.7,4.1-2.3c0.7,0.8,1.3,1.6,2,2.2c1.7,1.5,2.7,3.2,1.5,5.6c-0.5,1-0.1,2.4,1,2.8
		c1.1,0.5,1.5-0.8,1.9-1.6c0.4-0.7,0.7-1.8,1.5-1.6c1.5,0.4,1.3-0.7,1.4-1.3c0.7-2.7,2.8-4.3,5.5-4.1c0.6,0,0.7-0.1,0.8-0.6
		c0.1-0.4-0.2-0.8,0.4-1.1c0.6,1.3,1.6,2.4,2.4,3.5c0.7,0.9,1.2,1.8,0.5,3.1c-0.5,0.8,0.3,1.1,0.9,1.2c0.4,0.1,0.8,0,1.4,0
		c-0.5,1.2-2.5,1.3-2,3.1c4.2-2.3,8.4-4.2,12.5-6.4c6.3-3.3,12-7.3,17.1-12.3c1.6-1.6,1.6-4.2,0.8-5.7c-0.5-0.8-0.3-1.2,0.2-1.7
		c2-1.8,2-4.3,2.5-6.6c0-0.2,0-0.6-0.2-0.7c-0.3-0.2-0.6-0.1-0.8,0.2c-0.2,0.2-0.1,0.7-0.6,0.6c-0.5-0.7,0.1-1.2,0.3-1.8
		c0.3-0.8,0.5-1.7-0.2-2.3c-0.7-0.6-1.4,0.1-2.1,0.5c-1.2,0.6-1.8,1.8-2.6,2.8c-0.9,1.2-2.4,2.5-3.5,2.9c0.1-0.3,0.2-0.5,0.3-0.7
		c1.3-2.4,0.7-3.8-1.7-4.9c-1.2-0.5-2.2-1.1-2.1-2.7c0.1-0.8-0.5-0.5-1-0.4c-1.8,0.5-2,0.4-2.1-1.4c0-0.1,0-0.1,0-0.2
		c0.1-0.7-0.3-1.2-0.8-1.3c-0.6-0.2-0.7,0.5-0.9,0.9c-1.6,3-3.5,5.5-6.8,7.1C289.1,200,289.4,199.2,288.1,198.8z M271.6,135.8
		c-0.7-1.6-2.1-2.8-2.6-4.5c-0.1-0.4-0.7-0.9-0.2-1.3c0.5-0.4,0.7,0.3,1.1,0.6c0.9,0.7,2.6,0.7,3.4-0.2c0.9-1,0.3-1.9-0.3-2.7
		c-1.3-1.7-2.8-3.2-4.4-4.6c-1.4-1.3-2.2-2.8-3-4.4c-0.4-0.7-0.1-0.9,0.5-1.2c1.2-0.7,2.4,0,3.6-0.1c0.7-0.1,1.9,0.4,2-0.3
		c0.1-0.7-1.2-0.7-1.9-1c-0.1,0-0.1-0.2-0.3-0.5c0.4-0.3,0.8-0.6,1.3-1c0.9-0.7,1.8-1.2,2.5-2c0.6-0.6,1.4-0.7,2-0.4
		c0.6,0.3,0.2,1,0.2,1.6c0.1,2.9,1.1,3.7,3.3,4c3.1,0.4,6,1.2,8.7,2.7c1.5,0.8,3,1.6,4.7,0.4c0.7-0.5,1.8-0.3,2.2-1.2
		c0.9-1.8,1.7-3.7,0.9-5.8c-1.2-3.3-3.9-4.7-7-5.6c-0.7-0.2-1.6-0.9-1.6,0.8c0,0.8-0.6,0.3-0.9,0.2c-5.1-1.1-10-0.6-14.6,2.1
		c-2.2,1.3-4.1,2.9-6,4.3c-0.9-1.6-1.2-3.1,0.1-4.6c0.6-0.6-0.2-0.5-0.5-0.7c-0.9-0.4-1.9-0.9-1.2-2.3c0.4-0.8,1.1-1.4,1.9-1.7
		c1.5-0.6,3.1-0.3,5.2-0.3c-1.4,1.6-3.3,2.5-3.5,4.8c3.2-2.3,6.4-3.9,10.2-4c-0.4-1.3-2.1-0.8-2.5-2.1c1.2-0.1,2.3-0.4,3.5-0.6
		c2-0.5,4.1-0.6,5.9,0.6c0.9,0.6,1.8,0.8,2.6,0.6c3-0.9,5,0.7,7,2.5c1.7,1.5,3.5,2.9,5.9,3.3c1,0.2,2.1,0.1,2.5-0.4
		c0.5-0.6,0.4-1.8,0-2.7c-2-4.5-5.4-7.7-9.8-9.6c-5-2.2-10.3-3.1-15.8-2.9c-1.3,0.1-2.3-0.3-3.3-1c-0.8-0.6-1.7-1.1-2.7-0.8
		c-4.5,1.4-8,3.7-9,8.8c-0.4,2.2-1.4,4.3-3.5,5.6c-0.7,0.4-1,1.1-0.6,2.1c0.5,1.2,0.7,2.4,1,3.7c0.8,3.5,1.7,6.9,3.7,10
		c1,1.6,1.6,3.4,2.1,5.3c1.1,4,3.8,6.6,7.6,8.4C272.2,137,271.9,136.4,271.6,135.8z M287,114.3c0.6,1.8-0.6,2.5-1.7,3.5
		C285.4,116.2,286.2,115.3,287,114.3z M240.7,105c-0.7-0.9-1-1.7,0-2.6c0.8-0.7,0.8-1.6,0.1-2.3c-1-1.1-2-2.1-3.5-2.5
		c-2.3-0.5-4.5-0.6-6.6,0.4c-1.4,0.7-2.8,1.2-4.2,1.8c-3.9,1.6-8.1,2.1-12,3.7c-6.1,2.5-9.8,6.9-11.4,13.2c-0.3,1.3,0.4,1.9,1.7,1.5
		c1-0.4,1.9-0.9,2.8-1.5c2.6-1.7,4.9-3.8,7.6-5.4c3.9-2.3,8.5-1.8,12.6-3c2-0.6,4.1-0.2,6.2-0.5c2.7-0.4,5.4-1.1,8.4-0.6
		C241.8,106.3,241.2,105.7,240.7,105z M229.6,110.3c-3.1,2.5-6.7,4.1-10.5,4.8c-3.1,0.6-5.4,2.2-7.4,4.5c-0.3,0.3-0.6,0.6-0.4,1.1
		c0.2,0.4,0.5,0.5,1,0.3c0.8-0.4,0.8,0.3,0.8,0.8c0,0.6,0,1.1,0.8,1.3c2.2,0.5,3.5-0.2,4.9-2c0.8-1,1-2.3,1.9-3.2
		c1.4,1.5,2.6,3.3,5,3c1.6-0.2,3.1-0.6,4.7-0.9c1.4-0.3,2.2-1.8,1.8-3.3c-0.1-0.4-0.2-0.8-0.2-1.2c-0.1-1.3,0.3-1.6,1.5-0.9
		c0.6,0.4,1.3,0.7,2,1.1c1.9,1.1,3.9,1.9,6.5,1.7c-2.8-3.1-6.3-4.6-9.9-6.3c2-0.6,3.4,1.1,5.1,0.3
		C235.2,108.6,232.5,107.9,229.6,110.3z M268.1,146.9c1.5-0.9,1.9-1.8,1.4-3.5c-0.2-0.8-0.5-1.5-0.8-2.3c-0.4-1-1-1.4-2.1-1.5
		c-2.2-0.1-3.8,1-5.1,2.6c-1.2,1.5-2.3,3.1-2.7,5.1c-0.2,0.8-0.5,1.7,1,1.8c1,0,1.9,0.7,2.7,1.4c2.2,2,4.7,2.9,7.6,2
		c5.2-1.6,6.7-6.5,3.7-10.3c-0.5,1.4-0.7,2.9-1.4,4.2c-1.5,2.9-3.3,3.8-6.4,1.9C266.7,147.8,267.4,147.3,268.1,146.9z M274.8,174.6
		c-0.4,1.1-0.6,2.1-0.5,3.2c0.1,1.2,0.6,2.4,1.8,2.9c1,0.4,1.6-0.6,2.3-1.2c1.5-1.3,2.3-3.2,3.8-4.5c0.7-0.6,0.1-0.8-0.4-1.1
		c-1.9-0.9-3.8-2-5.8-2.7c-3.3-1.1-6.6-1.6-10.4,0.3C269,172,271.4,174.7,274.8,174.6z M320.3,170.9c1.3-2.2,1.5-4.6,1.4-7
		c0-0.5-0.2-1.2,0.7-1c1.2,0.4,2.6,0.4,3.7,1.3c0.6,0.5,1.5,0.8,2.3,0.2c0.4-0.4,1-0.7,0.8-1.4c-0.2-1-1-1.5-1.8-1.7
		c-2.6-0.8-2.8-0.9-2.8-3.6c0-1-0.3-1.9-0.6-3c-2.4,2.4-3.6,5.3-4.2,8.5c-0.6,3.2-0.7,6.3-1,9.8
		C319.6,172.4,319.9,171.6,320.3,170.9z M245.4,145.4c-0.3,1.8,0.4,2.4,2.2,2.5c0.6,0,1.1,0,1.7,0.2c2.4,0.6,3.7-0.4,4.2-3.1
		c0.3-1.8-1-3.2-3.1-3.4c-0.4,0-0.8,0-1.2,0C246.5,141.1,245.7,143.2,245.4,145.4z M331.4,160.1c-0.5,1.8-0.5,3.7-1.6,5.2
		c-0.5,0.7-1.7,1.2-1.7,1.8c0,0.9,1.4,1.1,2,1.8c0.2,0.2,0.4,0.5,0.6,0.5c0.5,0,0.6,0.9,1.2,0.4c0.4-0.4,0.3-1,0.1-1.5
		c-0.1-0.2-0.4-0.4-0.5-0.6c-0.3-0.7-0.6-1.1,0.3-1.8c1.1-0.8,1.5-2,1.5-3.5c0-1.8-0.6-3.6-0.5-5.4
		C331.9,157.9,331.7,159,331.4,160.1z M237.3,177.4c5,0,8.3-3.3,11.8-6.1C244.6,172.1,241.3,175.5,237.3,177.4z M180.7,151
		c0.5-0.2,0.9-0.6,0.2-0.9c-1.4-0.5-2.9-0.8-4.3,0c-1.2,0.8-2.1,1.9-2.1,3.7C176.7,152.8,178.7,151.9,180.7,151z M196.2,192.2
		c-0.3-0.5-0.4-1.1-0.7-1.7c-0.8-1.5-1-3.2-2.1-4.6c-0.4-0.6-0.8-0.6-1.3-0.3c-0.5,0.2-0.3,0.6-0.1,1c1,2.1,1.9,4.3,2.8,6.4
		c0.1,0.2,0.1,0.5,0.5,0.5C195.7,193.2,196.9,193.4,196.2,192.2z M292,254c-0.8,2-2.7,3.5-3.1,6.1C292.7,258.4,293.6,256.4,292,254z
		"/>
	<path d="M98.1,375.7c-0.8,0-3-0.2-6.5-0.7c-0.2,3.1-0.3,7.3-0.3,12.4l0,11.4c2.2-0.1,4.4-0.1,6.7-0.1c1,0,1.8,0.3,2.5,1
		c0.6,0.7,1,1.5,1,2.4c0,0.9-0.3,1.8-1,2.4c-0.7,0.7-1.5,1-2.5,1c-0.9,0-2.4,0-4.2,0.1c-1.9,0-3.3,0.1-4.2,0.1c-1.1,0-2.8,0.1-5,0.4
		c-2.2,0.3-3.9,0.4-5,0.4c-1,0-1.8-0.3-2.5-1c-0.7-0.7-1-1.5-1-2.4c0-0.9,0.3-1.8,1-2.4c0.7-0.7,1.6-1,2.6-1c1.2,0,2.8-0.1,4.7-0.4
		c0-2,0-5.8,0-11.5c0-4.6,0.2-9,0.5-13.2l-5.4,0.2c-1,0-1.8-0.3-2.5-1c-0.7-0.7-1-1.5-1-2.5c0-1,0.3-1.8,1-2.4
		c0.6-0.6,1.3-0.9,2.2-1c1.4-0.1,3.8-0.2,7.3-0.2c3.1,0,7.2,0.4,12.1,1.1c2,0.3,2.9,1.5,2.9,3.5c0,1.1-0.4,1.9-1.1,2.6
		C99.6,375.5,98.9,375.7,98.1,375.7z M148.4,407.2c-0.8,0-2-0.8-3.6-2.3c-1.5,0.7-2.8,1.3-4,1.7c-1.2,0.4-2.1,0.6-2.9,0.6
		c-4,0-6.9-1.1-8.9-3.3c-2-2.2-3-5.5-3-9.8c0-4.1,1.5-7.6,4.4-10.5c2.9-2.9,6.4-4.4,10.5-4.4c1.6,0,3.4,0.5,5.4,1.4
		c2.5,1.1,3.7,2.4,3.7,3.8c0,0.6-0.2,1.1-0.6,1.6c-0.2,0.7-0.3,1.5-0.4,2.5s-0.1,2.2-0.1,3.6c0,3.2,0.2,5.5,0.7,6.9
		c0,0.2,0.4,1,1.1,2.6c0.6,1.4,1,2.3,1,2.5c0,0.9-0.3,1.6-1,2.2C150.1,406.9,149.3,407.2,148.4,407.2z M142.3,390
		c0-0.5,0-1.2,0.1-1.9c0.1-0.7,0.2-1.5,0.3-2.4c-0.3-0.2-0.6-0.3-0.9-0.4c-0.3-0.1-0.5-0.1-0.7-0.1c-2.2,0-4.2,0.9-5.9,2.7
		c-1.7,1.8-2.5,3.9-2.5,6.3c0,2.3,0.4,4,1.2,5.1c0.8,1.1,2,1.7,3.6,1.7c1,0,2-0.2,2.9-0.5c0.9-0.3,1.8-0.9,2.6-1.5
		C142.5,395.1,142.3,392,142.3,390z M161.6,383.3c2.5-3,4.8-4.5,7.1-4.5c2.5,0,4.4,1,5.6,3c1-0.9,2.1-1.6,3.3-2.1
		c1.2-0.5,2.5-0.7,3.9-0.7c3.2,0,5.4,1.7,6.6,5c0.2,0.7,0.6,3,1.1,6.9c0.5,2.7,1.1,7.3,1.8,13.7c0.1,1-0.3,1.8-1,2.4
		c-0.7,0.6-1.5,0.9-2.5,0.9c-1.9,0-3-1-3.3-2.9c-0.3-1.7-0.6-4.2-0.9-7.4c-0.3-3.5-0.6-6-0.8-7.4c-0.4-3-1-4.6-1.7-4.6
		c-0.4,0-1.2,0.4-2.6,1.2c-1.3,0.8-2.3,1.4-3,2c0,1.9,0.2,4.7,0.7,8.3c0.5,3.7,0.7,6.5,0.7,8.3c0,1-0.3,1.8-1,2.4
		c-0.6,0.6-1.5,1-2.4,1c-1,0-1.8-0.3-2.4-1c-0.6-0.6-1-1.4-1-2.4c0-1.9-0.2-4.8-0.6-8.5c-0.4-3.8-0.6-6.6-0.6-8.5
		c0-1.1-0.1-1.9-0.3-2.6c-1.9,1.1-3.8,3-5.7,5.7c-0.1,0.1-0.2,0.3-0.4,0.5c-0.1,3.4-0.1,6.1-0.1,8.1c0,0.5,0,1.1,0,1.9
		c0,0.8,0,1.4,0,1.8c0,0.9-0.4,1.6-1.1,2.2c-0.7,0.5-1.5,0.7-2.4,0.7c-1.4,0-2.3-0.6-2.8-1.9c-0.3-0.8-0.5-2.2-0.5-4v-9.5
		c0-0.8,0-2.1-0.1-3.7c-0.1-1.6-0.1-2.9-0.1-3.7c0-1.5,0.3-2.9,0.8-4.1c0.6-1.5,1.5-2.3,2.7-2.3c0.9,0,1.7,0.4,2.5,1.1
		c0.7,0.7,1.1,1.5,1.1,2.4C161.8,380.8,161.7,381.5,161.6,383.3z M235.7,404.8c-3.8,1.5-8.7,2.2-14.5,2.2c-1,0-1.9-0.4-2.7-1.3
		c-0.8-0.8-1.2-1.8-1.2-2.7v-27c0-1.2-0.1-2.3-0.1-3.5c0-1.3,0-2.4,0.1-3.3c0.2-1.6,1.7-2.6,4.3-2.9c1.3-0.4,3.3-0.6,6.2-0.6
		c3.1,0,6.1,1,8.9,3.1c3.3,2.4,5,5.4,5,9c0,2-0.3,3.6-1,4.9c-0.5,1.1-1.5,2.2-2.8,3.5c1.6,0.8,3,2,4.2,3.6c1.4,1.8,2.1,3.6,2.1,5.4
		c0,2.3-1.2,4.4-3.6,6.4C239.1,403.1,237.4,404.1,235.7,404.8z M227.9,372.7c-2.1,0-3.4,0-3.8,0.1l0,5.4l0,5.3
		c1.5,0.2,2.6,0.2,3.4,0.2c5-0.4,7.6-2.3,7.6-5.7c0-1.2-0.7-2.4-2.2-3.5C231.2,373.3,229.6,372.7,227.9,372.7z M230.7,390.7
		c-1.5,0-3.7-0.1-6.7-0.2v9.5c2.8-0.2,5.9-0.7,9.2-1.7c2.9-0.8,4.3-1.8,4.3-2.7c0-1.3-1-2.5-2.8-3.5
		C233.3,391.3,232,390.9,230.7,390.7z M260.7,407c-3.9,0-7.1-1-9.6-2.9c-2.8-2.1-4.1-5.1-4.1-9c0-4.3,1.1-7.9,3.3-10.9
		c2.4-3.3,5.7-4.9,9.8-4.9c2.9,0,5.2,0.5,7.1,1.4c2.5,1.3,3.7,3.2,3.7,5.9c0,1.9-1,3.5-3,5c-0.9,0.7-2.8,1.6-5.6,2.9l-8.3,3.8
		c0.8,0.9,1.7,1.5,2.9,2c1.1,0.4,2.4,0.7,3.8,0.7c2.2,0,4.1-0.5,5.6-1.4c1.4-0.8,2.5-1.2,3.3-1.2c1.7,0,2.6,0.9,2.6,2.6
		c0,1.9-1.4,3.5-4.1,4.7C265.7,406.5,263.3,407,260.7,407z M260,385.4c-1.5,0-2.8,0.5-3.9,1.6c-1.1,1.1-2,2.6-2.6,4.7
		c1.9-0.8,3.7-1.7,5.6-2.5c2.2-1,4-2,5.3-2.9C263.2,385.7,261.8,385.4,260,385.4z M301,384.3c-1.8,3.8-4.6,9.9-8.5,18.1
		c-2.1,4.4-3.7,8.1-4.8,11c-0.3,1.1-0.9,2.6-1.6,4.7c-0.6,1.6-1.6,2.4-3.2,2.4c-0.9,0-1.8-0.3-2.5-0.9c-0.7-0.6-1.1-1.4-1.1-2.4
		c0-1.6,1.7-6.2,5.2-14c-1.8-3.7-4.7-9.1-8.6-16.3c-0.4-0.6-0.8-1.3-1.2-2c-0.4-0.8-0.7-1.5-0.7-2.1c0-0.9,0.4-1.7,1.1-2.4
		c0.7-0.7,1.5-1,2.4-1c1.1,0,1.9,0.4,2.5,1.2c2.3,3.2,5.1,8,8.2,14.5c1.8-4,2.8-6.4,3.2-7.3c1.2-2.5,2.3-4.7,3.4-6.7
		c0.7-1.2,1.7-1.8,2.9-1.8c0.9,0,1.7,0.3,2.5,1c0.7,0.6,1.1,1.4,1.1,2.4C301.4,383.2,301.3,383.7,301,384.3z M314.6,407.3
		c-3,0-5.7-1.1-7.8-3.2c-2.4-2.4-3.7-5.5-3.8-9.4c-0.1-3.7,0.9-7.1,3-10c2.5-3.5,6-5.2,10.4-5.2c3.3,0,5.9,1.4,7.8,4.1
		c1.7,2.4,2.6,5.5,2.6,9.1c0,3.9-1,7.3-3.1,10.1C321.5,405.8,318.4,407.3,314.6,407.3z M316.1,386.1c-2,0-3.6,0.9-4.8,2.8
		c-1,1.6-1.5,3.5-1.5,5.6c0,2,0.6,3.6,1.7,4.7c0.9,0.9,1.9,1.3,3.1,1.3c1.4,0,2.7-0.5,3.7-1.5c1.2-1.2,1.8-2.8,1.9-4.8
		C320.5,388.9,319.1,386.2,316.1,386.1z M350.4,407.6c-2,0-3.2-1-3.4-3.1c-0.2-1.7-0.5-3.5-0.7-5.3c-0.2-1.9-0.4-3.6-0.4-5.3
		c0-0.4,0-1.2,0.1-2.3c0.1-1.1,0.1-1.8,0.1-2.3c0-0.1,0-0.4,0-0.9c0-0.5,0-0.9,0-1.2c0-1.4-0.3-2.1-1-2.1c-1.4,0-2.8,0.9-4.1,2.8
		c-1.4,1.9-2.4,4.2-3.2,7.1c0,0.6-0.1,1.3-0.2,2.3c-0.1,0.8-0.1,1.5-0.1,2.3c0,0.5-0.1,1.2-0.2,2.2c-0.1,1-0.2,1.7-0.2,2.2
		c0,1-0.3,1.8-1,2.5c-0.6,0.7-1.5,1-2.5,1c-1,0-1.8-0.3-2.4-1c-0.6-0.6-1-1.5-1-2.4c0-0.5,0-1.2-0.1-2.2c-0.1-1-0.1-1.7-0.1-2.2
		c0-1.7,0.1-4,0.3-6.9c0.2-3,0.3-5.3,0.3-6.9c0-0.5,0-1.3-0.1-2.3c-0.1-1-0.1-1.8-0.1-2.3c0-1,0.3-1.8,1-2.4
		c0.7-0.6,1.5-0.9,2.5-0.9c2.2,0,3.3,1.3,3.5,4l0,0.3c2.4-2.5,4.9-3.7,7.6-3.7c3.1,0,5.3,1.3,6.4,4c0.8,1.8,1.2,4.5,1.2,8.1v1.8
		c0,0.8,0,1.3,0,1.7c0,1.3,0.2,3,0.5,5.1c0.4,2.1,0.5,3.8,0.5,5.1c0,0.9-0.3,1.7-1,2.4C352.2,407.3,351.4,407.6,350.4,407.6z
		 M368.8,407.4c-3.6,0-6.7-1.1-9.1-3.2c-2.6-2.2-3.9-5.2-3.9-8.9c0-3.4,1.2-6.9,3.5-10.5c2.6-4.1,5.7-6.2,9.2-6.2
		c1.7,0,3.7,0.5,6,1.4c2.8,1.2,4.2,2.5,4.2,4c0,0.8-0.3,1.6-0.8,2.2c-0.6,0.7-1.4,1-2.3,1c-0.7,0-1.6-0.4-2.6-1.2s-2.5-1.2-4.5-1.2
		c-1.3,0-2.6,1.3-4.1,3.8c-1.4,2.5-2.1,4.6-2.1,6.4c0,1.8,0.6,3.2,1.9,4.2c1.2,1,2.7,1.4,4.7,1.4c1.1,0,2.5-0.4,4-1.3
		c1.6-0.9,2.6-1.3,3-1.3c0.9,0,1.6,0.3,2.3,1c0.6,0.7,1,1.4,1,2.3c0,1.3-1.4,2.6-4.2,4C372.4,406.8,370.4,407.4,368.8,407.4z
		 M395.9,407c-3.9,0-7.1-1-9.6-2.9c-2.8-2.1-4.1-5.1-4.1-9c0-4.3,1.1-7.9,3.3-10.9c2.4-3.3,5.7-4.9,9.8-4.9c2.9,0,5.2,0.5,7.1,1.4
		c2.5,1.3,3.7,3.2,3.7,5.9c0,1.9-1,3.5-3,5c-0.9,0.7-2.8,1.6-5.6,2.9l-8.3,3.8c0.8,0.9,1.7,1.5,2.9,2c1.1,0.4,2.4,0.7,3.8,0.7
		c2.2,0,4.1-0.5,5.6-1.4c1.4-0.8,2.5-1.2,3.3-1.2c1.7,0,2.6,0.9,2.6,2.6c0,1.9-1.4,3.5-4.1,4.7C400.9,406.5,398.4,407,395.9,407z
		 M395.2,385.4c-1.5,0-2.8,0.5-3.9,1.6c-1.1,1.1-2,2.6-2.6,4.7c1.9-0.8,3.7-1.7,5.6-2.5c2.2-1,4-2,5.3-2.9
		C398.4,385.7,397,385.4,395.2,385.4z M420,408.5c-1.1,0-2.1-0.4-2.9-1.1c-0.8-0.7-1.2-1.5-1.2-2.4c0-0.9,0.4-1.7,1.2-2.4
		c0.8-0.7,1.8-1.1,2.9-1.1c1.2,0,2.1,0.3,2.9,1c0.8,0.7,1.1,1.5,1.1,2.5c0,0.9-0.4,1.7-1.2,2.4C422.1,408.1,421.1,408.5,420,408.5z"
		/>
	<path d="M190,462.5c-1.3-0.1-2.6-1.6-3.9-4.7c-0.9-2-1.6-4.3-2.2-6.9c-1.2,0.2-3.2,0.4-6,0.6c-2.6,0.2-4.6,0.4-6,0.7
		c-0.8,1.9-2.1,4.7-3.9,8.4c-0.7,1.2-1.7,1.8-3,1.8c-0.9,0-1.7-0.3-2.4-1c-0.7-0.6-1.1-1.4-1.1-2.4c0-0.9,1.2-3.8,3.6-8.8
		c-0.2-0.5-0.3-1-0.3-1.5c0.1-0.8,0.9-1.4,2.4-1.9c2.3-4.2,4.9-8.5,7.8-13c4.1-6.4,6.6-9.6,7.6-9.6c1.8,0,3,1.1,3.6,3.4
		c0.3,1.8,0.8,4.5,1.6,8.2c1,4.9,2.2,10.5,3.7,16.8c0.1,0.5,0.5,1.6,1.3,3.4c0.6,1.5,0.9,2.6,0.9,3.3c0,1-0.4,1.8-1.1,2.5
		C191.7,462.2,190.9,462.5,190,462.5z M180.8,436.4c-1.3,2.3-3.1,5.4-5.3,9.3c0.7-0.2,1.9-0.3,3.5-0.4c1.8-0.1,3-0.2,3.5-0.3
		C182,442.8,181.4,439.9,180.8,436.4z M206.2,458c0,3.2-1.1,4.8-3.4,4.8c-1,0-1.8-0.3-2.4-1s-1-1.5-1-2.5v-35.2c0-1,0.3-1.8,1-2.4
		c0.7-0.6,1.5-0.9,2.4-0.9s1.8,0.3,2.4,0.9c0.6,0.6,0.9,1.4,0.9,2.4V458z M244,439.3c-1.7,6.6-3.5,12.7-5.2,18.1
		c-0.5,1.5-1.3,3.1-2.4,4.7c-0.8,1.1-1.8,1.7-3.2,1.7c-2.1,0-3.7-2.1-4.9-6.2c-0.4-1.6-1-4.5-1.6-8.7c-0.3,0.7-0.6,1.2-0.6,1.5
		c-0.9,2.1-2.1,5.4-3.8,9.8c-0.2,0.7-0.6,1.3-1.1,1.7c-0.7,1.1-1.7,1.7-3.1,1.8c-0.8,0-1.6-0.7-2.4-2.1c-0.9-1.5-1.6-3.4-2.2-5.7
		c-0.5-2.1-1.3-6.7-2.4-13.7c-0.2-1.5-0.3-2.7-0.3-3.6c0-0.9,0.3-1.7,1-2.3c0.7-0.6,1.5-0.9,2.5-0.9c1.8,0,2.9,0.9,3.3,2.7
		c0.2,0.9,0.4,2.1,0.5,3.5c0.2,2,0.3,3.2,0.4,3.5c0.2,1.3,0.5,3.5,1,6.5c1.2-3.4,2.6-7.7,4.2-12.8c0.7-2.2,1.9-3.3,3.8-3.3
		c1.8,0,3,1.2,3.6,3.7c0.4,1.7,0.8,4,1.3,6.7c0.7,4,1.1,6.4,1.2,7.2c0.1-0.5,1.4-5.7,3.9-15.5c0.4-1.5,1.4-2.2,3.1-2.2
		c0.9,0,1.8,0.3,2.5,0.9c0.7,0.6,1.1,1.4,1.1,2.3C244.1,438.7,244.1,439,244,439.3z M268.3,463.1c-0.8,0-2-0.8-3.6-2.3
		c-1.5,0.7-2.8,1.3-4,1.7c-1.2,0.4-2.1,0.6-2.9,0.6c-4,0-6.9-1.1-8.9-3.3c-2-2.2-3-5.5-3-9.8c0-4.1,1.5-7.6,4.4-10.5
		c2.9-2.9,6.4-4.4,10.5-4.4c1.6,0,3.4,0.5,5.4,1.4c2.5,1.1,3.7,2.4,3.7,3.8c0,0.6-0.2,1.1-0.6,1.6c-0.2,0.7-0.3,1.5-0.4,2.5
		c-0.1,1-0.1,2.2-0.1,3.6c0,3.2,0.2,5.5,0.7,6.9c0,0.2,0.4,1,1.1,2.6c0.6,1.4,1,2.3,1,2.5c0,0.9-0.3,1.6-1,2.2
		C270,462.8,269.2,463.1,268.3,463.1z M262.2,446c0-0.5,0-1.2,0.1-1.9c0.1-0.7,0.2-1.5,0.3-2.4c-0.3-0.2-0.6-0.3-0.9-0.4
		c-0.3-0.1-0.5-0.1-0.7-0.1c-2.2,0-4.2,0.9-5.9,2.7c-1.7,1.8-2.5,3.9-2.5,6.3c0,2.3,0.4,4,1.2,5.1c0.8,1.1,2,1.7,3.6,1.7
		c1,0,2-0.2,2.9-0.5c0.9-0.3,1.8-0.9,2.6-1.5C262.4,451,262.2,448,262.2,446z M299.6,440.2c-1.8,3.8-4.6,9.9-8.5,18.1
		c-2.1,4.4-3.7,8.1-4.8,11c-0.3,1.1-0.9,2.6-1.6,4.7c-0.6,1.6-1.6,2.4-3.2,2.4c-0.9,0-1.8-0.3-2.5-0.9c-0.7-0.6-1.1-1.4-1.1-2.4
		c0-1.6,1.7-6.2,5.2-14c-1.8-3.7-4.7-9.1-8.6-16.3c-0.4-0.6-0.8-1.3-1.2-2c-0.4-0.8-0.7-1.5-0.7-2.1c0-0.9,0.4-1.7,1.1-2.4
		c0.7-0.7,1.5-1,2.4-1c1.1,0,1.9,0.4,2.5,1.2c2.3,3.2,5.1,8,8.2,14.5c1.8-4,2.8-6.4,3.2-7.3c1.2-2.5,2.3-4.7,3.4-6.7
		c0.7-1.2,1.7-1.8,2.9-1.8c0.9,0,1.7,0.3,2.5,1c0.7,0.6,1.1,1.4,1.1,2.4C300,439.1,299.9,439.6,299.6,440.2z M320.4,443.1
		c-1.6,0-2.6-0.7-2.9-2.1c-0.7-0.1-1.3-0.2-2-0.2c-4,0-5.9,0.6-5.9,1.7c0,0.7,1.2,1.6,3.6,2.7c3.3,1.5,5.5,2.7,6.6,3.6
		c2.4,1.8,3.6,3.8,3.6,6c0,2.9-1.3,5.1-3.9,6.6c-2.1,1.2-4.7,1.8-7.8,1.8c-2.2,0-4.2-0.3-6-1c-2.5-0.9-3.7-2.3-3.7-4.2
		c0-1.7,1-2.5,2.9-2.5c0.8,0,1.9,0.2,3.3,0.7c1.4,0.5,2.5,0.7,3.3,0.7c3.3,0,5-0.7,5-2.1c0-0.9-1.2-1.8-3.5-2.9
		c-3.4-1.5-5.6-2.7-6.5-3.3c-2.3-1.7-3.5-3.7-3.5-6.1c0-3.4,1.8-5.7,5.3-6.9c2.1-0.7,5.2-1,9.4-1c1.6,0,2.9,0.2,3.7,0.7
		c1.1,0.6,1.6,1.7,1.6,3.3C322.8,441.6,322,443.1,320.4,443.1z M336,464.4c-1.1,0-2.1-0.4-2.9-1.1c-0.8-0.7-1.2-1.5-1.2-2.4
		c0-0.9,0.4-1.7,1.2-2.4c0.8-0.7,1.8-1.1,2.9-1.1c1.2,0,2.1,0.3,2.9,1c0.8,0.7,1.1,1.5,1.1,2.5c0,0.9-0.4,1.7-1.2,2.4
		C338,464,337.1,464.4,336,464.4z"/>
</g>
</svg>
