<?xml version="1.0" encoding="utf-8"?>
<!-- Generator: Adobe Illustrator 21.0.0, SVG Export Plug-In . SVG Version: 6.00 Build 0)  -->
<svg version="1.1" id="Слой_1" xmlns="http://www.w3.org/2000/svg" xmlns:xlink="http://www.w3.org/1999/xlink" x="0px" y="0px"
	 viewBox="0 0 1000 1000" style="enable-background:new 0 0 1000 1000;" xml:space="preserve">
<style type="text/css">
	.st0{fill:#F2F2F2;}
	.st1{fill:#1C1A20;}
	.st2{fill:#631289;}
</style>
<g>
	<g>
		<path class="st0" d="M294.6,142.6c2.2,1.2,4.5,2,6.7,2.7c7,2,14,1.6,21.1-0.5c1.4-0.4,2.7-0.9,4.1-1.4c0,0,0,0,0,0
			c3.8-3.2,8.1-4.3,13-3.6c0,0,0,0,0,0c0.2-0.4,0.4-0.8,0.6-1.2c2.3-5.3-1.5-9.5-4-13.4c-7-11-16.5-20.8-12.5-35.7
			c0.8-3.1-1.6-3.6-4-2c-6.3,4.4-12,9-11.5,17.9c0.2,4.5,0.7,9.2-1.7,13.3c-0.1,0.2-0.2,0.5-0.4,0.7c0,4-0.5,6.2-5.4,3.4
			c-4.9-2.8-9.3-5.5-10.6-11c-0.2-0.7-0.3-1.4-0.3-2.2c-4.5,0.3-3.1,3.9-2.7,6c1.8,9.1,3.4,18.2,8.3,26.3c0,0,0.1,0,0.1,0
			c0,0,0,0,0,0c0,0.1,0,0.1,0,0.2l-0.3,0.4L294.6,142.6z M326.6,128.4c3,8.1,1.2,11.6-6.6,12.9c-5.2,0.9-12.5,0.1-18.6-2.8
			C312.8,139.7,319.4,133.5,326.6,128.4z M311.2,204.6c1.7,0.5,3.7,0.1,5.9,0.1c-1.1,4.6-4.7,6.8-7.9,9.3c0,0,0,0,0,0
			c-1.4,4.8,3.5,6.7,4.7,10.3c5.2,2.7,9.1,0.7,12.8-3.1c3.6-3.7,4-7.2,2.4-12.3c-1.8-5.8-2-12.1-2.6-18.2c-0.3-3.3-0.7-6.3-3.8-8.1
			c-0.1,0-0.2,0.1-0.3,0.1c0.1-0.1,0.1-0.1,0.2-0.2c0,0,0,0,0,0c-2.5-2-4.9-4-7.4-6c0,0,0,0,0,0c-7.7-2.6-7.2,5.7-11,8.3
			c0,0,0,0,0,0c0,0.5,0,1,0,1.5c0,0,0.1,0,0.1,0.1c0,0,0,0,0.1,0c3.5-0.8,7.7,1.7,10.2-3.6c1.3-2.7,4.6,0.4,7,0.8c0,0,0,0,0,0
			c0,0,0,0,0,0c0,0,0,0,0,0c0.4,2.5,3.6,3.8,3.1,7.2c-4.8-0.2-9.5-0.8-11.7,5.6c-1.2,3.5-4.8,2.4-7-0.3c-2.2-2.7-2.8-6-2.1-9.4
			c-5.1,0.8-3,4.7-2.5,7.3C302.7,199.2,305.9,203.1,311.2,204.6z M322.1,205.8c2.9-1.3,3.6,1,4.1,3.3c0.9,1.1,1,2.1,0,3.2
			c-0.4,0.1-0.8,0.3-1,0.5c0.3-0.2,0.6-0.4,1-0.5c-0.4,1.8-0.5,3.8-2.3,4.9c0,0,0.1,0.1,0.1,0.1c-0.7,3.4-2.6,5.4-6.2,4.6
			c-1.9-0.4-3-2.4-2.7-4.4C315.7,212.6,317.1,208,322.1,205.8z M609.9,121.2c-1.4,0.3-4.2,0.8-3.4,3.5c0.7,2.2,2.9,1.8,4.8,2
			c14.8,1.4,25.7-5.6,34.5-16.5c1.7-2.1,5.6-4.4,2.6-8.1c-3.1-3.8-6.3-1.8-10.3,0.1c4.8,1,6.6,3.1,3.3,6.6c-2.7,2.8-5.2,6.2-9.5,6.7
			c-3.3,2.5-5.9,6.5-11.3,6.1c1.1-5.2,6.6-5.3,8-9c0,0,0.1,0,0.1,0c0.6-0.1,1.1-0.3,1.7-0.4c0.8-1.3,1.6-2.6,2.9-4.5
			c-3.1,0.9-5.1,1.7-4.7,4.8C621.5,113.5,616.8,119.6,609.9,121.2z M290.3,210.5c0-0.6-0.1-1.2,0-1.7c-0.5-1.2-1-2.3-1.4-3.5
			c0,0,0,0,0,0c-0.5,0.3-0.8,0.7-1.1,1.1c-0.4,0.6-0.7,1.2-0.9,2.1c-0.8,3.5-2.4,6.9-0.8,10.5c0.1,0.3,1.6,0.3,2.1-0.1
			c0.4-0.2,0.6-0.4,0.9-0.7c1.5-1.4,1.7-3.1,1.6-4.8C290.5,212.4,290.4,211.4,290.3,210.5z M667.3,177c-4.2-2.9-5.6-7.7-7.9-11.9
			c-1.1-2-0.4-5.5-3.9-5.9c-2,2.3-1.4,5-1,7.7c0,0,0,0,0,0c-0.4,1.2-0.6,3.3-1.2,3.4c-2.7,0.6-4.3-1.6-5.6-3.5
			c-2.2-3.3-2.6-6.9-0.4-10.3c1.6-2.5,3.9-2.2,6-0.5c-0.4-0.8-0.2-1.3,0.8-1.3c-3.6-3.7-7.1-10.8-11.3-0.4c-0.5,1.2-2.4,2.1-3.8,2.7
			c-0.8,0.3-1.4,0.7-1.7,1c-1.5,1.5,1.1,2.9,1.7,4.3c4,2.5,7.2,5.7,7.5,10.7c0.3,3.6,2.3,6.1,4.7,8.5c0.2-0.7,0.2-1.4,0.3-2.2
			c0.2-2.4,0.4-4.7,3.4-5.6c2.1-0.6,4,0.5,4.5,3c5.4,3,3.1,8.1,3.2,12.5c0.1,3.2-2.9,2.7-4.6,1.7c-1.7-0.9-3-2.5-4.3-3.9
			c-0.2-0.2-0.5-0.5-0.7-0.7c-0.6,0.5-1.1,1.1-1.7,1.6c1,1,1.8,2.2,2.6,3.5c2.1,3.3,4.1,6.7,9.1,6.1c0.5-0.3,1-0.5,1.5-0.7
			c0.1,0,0.2,0,0.4-0.1c1.4-1.8,2.6-3.9,5.1-4.6c0,0,0,0,0,0c0,0-0.4-0.4-0.4-0.4c0,0,0,0,0,0C674.1,186.1,673.5,181.2,667.3,177z
			 M651.9,153.3C652.1,153,652.1,153.2,651.9,153.3L651.9,153.3z M308.1,238c-5.5-1-5.6,3.3-7.1,6.5c0.6,0.1,1.2,0.3,1.9,0.4
			c2.7,0.4,4-3.4,6.8-2.7c0,0,0,0,0,0c0,0,0,0,0,0C310,240.5,311.4,238.6,308.1,238z M655.9,85.4c0.1,0.1,0.2,0.2,0.4,0.4
			c0.1,0.1,0.2,0.2,0.2,0.3c0.2,0.3,0.4,0.7,0.5,1c2,1.9,2.7,4.2,2.6,6.9c0,0.5,0,1-0.1,1.5c0,0,0,0,0,0c0,0,0,0,0,0
			c0.9,0.9,0.8,1.8,0,2.7c0,0,0,0,0,0c0.5,1.2,0.9,2.4,1.4,3.6c3.1,8,5.9,16.3,3.9,26.8c0,0.1,0.1,0.2,0.1,0.3
			c5.7-4.5,6.1-7.9,4.4-12.4c-2.7-7-4.4-14.3-4.4-21.9c-0.1-12.2-14.9-20.9-26.8-14.7C645.1,80.1,652.5,77.8,655.9,85.4z
			 M649.4,79.1c2,0.2,4.2,0.5,5.5,2.1C653.2,80.2,651.3,79.5,649.4,79.1c-1-0.1-1.9-0.2-2.6-0.5C647.6,78.7,648.5,78.8,649.4,79.1z
			 M575.3,96.1C575.3,96.1,575.3,96.1,575.3,96.1c1.1,1.6,2.2,3.1,3.3,4.7c0.6,0,1.2,0,1.8,0c13.6-0.1,27.3-0.3,40.9-0.4
			c1.3,0,2.6,0,3.9,0c0,0,0,0,0,0c0,0,0,0,0,0c-0.2-5.2-5.2-1.1-6.8-3.5c0,0,0,0,0,0c-0.8-0.1-1.6-0.1-2.3-0.1c-3.2-0.1-6.3,0-9.5,0
			c-4.8,0-9.6-0.3-14.3-2c-1.3-0.5-2.6-1.1-3.9-1.8c-3-0.2-5.7-1.1-8.1-3c0,0,0,0,0,0c-0.2-0.1-0.4-0.1-0.7-0.2
			c-1.5-0.4-3.1-0.9-4.6-1.3c-0.6-0.2-1.2-0.3-1.9-0.5C573.8,90.7,574.5,93.4,575.3,96.1C575.3,96.1,575.3,96.1,575.3,96.1z
			 M549,117.9c-0.9,4.8,1.3,7.3,6.7,7.4c6,0.1,11.6,2.1,14.8,7.9c0.4,0.7,1,1.3,1.7,1.7c0,0,0-0.1,0-0.1c0,0,0,0,0,0
			c1,0,1.8,0.3,2.5,0.8c0.8,0.5,1.5,1.3,2.2,2c3.6,3.8,7.6,6.8,12.2,1.8c3.5-3.8,1.9-14.8-2.8-16.6c-6.4-2.4-12.3-5.5-18.4-10.1
			c-0.6,4.4,3.1,9-1.5,10.1c-4.4,1-7-3.4-7-7.1c0-8.5-6.1-11.5-11.5-15.1c-0.6-0.4-1.2-0.8-1.7-1.2l0.1,0.1c0,0-0.1-0.1-0.1-0.1
			c0,0,0,0,0,0c0,0,0.1,0.1,0.1,0.1c0,0,0,0,0,0c0,0-0.1,0-0.1,0C545.8,105.8,550.2,111.3,549,117.9z M573,119.9
			c6.2,2.4,12.1,4.7,12.4,12.7c0.1,1.6-0.1,3.3-1.9,4.1c-1.9,0.8-3.1-0.6-3.9-1.9C576.8,130.2,570.6,127.3,573,119.9z M320.6,288.1
			c-0.1-3.5-0.2-6.9,1.1-10.2c0.8-2.1,1.8-4.1,4.3-4.1c3.3,0.1,2.4,2.8,2.5,4.8c0.1,1.9,0,3.8,0,6.6c4.6-3.9,3.6-7.9,3.6-11.8
			c0,0,0,0,0,0c-0.4-0.3-0.4-0.8-0.2-1.2c-0.3-0.4-0.5-0.9-0.6-1.3c-0.4-0.1-0.8-0.3-1.2-0.6c0,0,0,0,0,0c0,0,0,0,0,0
			c-8.6-2-11.3,3.9-13.8,10.3l0,0c-0.8,7.6-0.2,15.6-4.7,22.5c-0.7,1-0.5,2.6-0.7,3.9c-0.3,2.6,1.2,4.4,3.2,4.9
			c3.1,0.8,3.4-2.6,3.6-4.1c0.5-4,0.3-8.1,1.6-12c0.1-0.2,0.1-0.3,0.2-0.5c0.4-2.3,0.7-4.6,1.1-7L320.6,288.1z M416.9,302.2
			c-4.3-2.4-9.5-2.5-13.7,0.5c-3.9,2.8-8.2,3.9-12.7,4.3c-6.5,0.5-9.7,3.5-9.3,10.3c0.2,2.9-0.7,5.8-0.9,8.8
			c-0.1,1.5-1.2,3.8,0.7,4.2c1.9,0.4,4.1-0.7,6.1-1.3c1.9-0.5,1.8-1.6,1.6-3.6c-1.5-10.7-1-11.2,10.7-14.2c0.5-0.2,1-0.3,1.5-0.5
			c0.8-0.6,1.6-1.4,2.5-1.9c2.5-1.5,5.2-3.3,7.9-0.9c2.9,2.6,0.6,5.2-0.8,7.7c-0.5,1.1-0.9,2.2-1.4,3.3c0,0,0,0,0,0
			c0,0,0.2-0.1,0.2-0.1c0,0-0.1,0.1-0.1,0.1c0,0,0,0,0,0c0,0,0.1-0.1,0.1-0.1c0,0,0,0.1,0,0.1c4.8-0.5,8.5-2.3,9.1-7.7
			C418.6,308.1,420.2,304,416.9,302.2z M455.8,89.3c0.2,0.1,0.3,0.2,0.5,0.3c4.6-0.2,9.1-0.5,13.7-0.7c7.4-6.5,16.3-11.5,19.7-21.7
			c-0.5,0.3-1,0.5-1.6,0.7c0.2-0.3,0.5-0.7,0.7-1.1c-4.1-1.2-7.7,0.9-11.2,2.5c-4.9,2.3-9.9,4-15.3,3.9c-3.6-0.1-6.9,0.5-10.1,1.7
			c-1.5,0.5-2.9,1.2-4.4,2c-2.3,4-8.4,6.2-6,12.4c1.4-0.1,2.7-0.2,4.1-0.3c0.6-0.2,1.2-0.2,1.8,0c0.9,0,1.8,0,2.7,0
			c0.1,0,0.2,0,0.4,0c0,0,0,0,0,0C452.6,88.2,454.3,88.5,455.8,89.3z M451.7,83.5c-0.5-2.5,1.8-3,3.5-3.5c6.7-2.4,13.5-4.6,21.7-5.3
			c-4.5,8.7-13.3,13.3-20.7,11.6C454.4,85.8,452.1,85.6,451.7,83.5z M421.2,207.6c-2.9,0.1-4.8-1.1-6.9-3.1
			c-4.8-4.6-10.5-2.9-12.2,3.4c-1.2,4.3-3.8,7-7.5,8.8c-2.9,1.4-5.6,2.9-8,5.2c-7.3,7.2-6.4,13.7,3.2,17.2
			c7.2,2.6,16.1,2.4,16.2,13.3c7.6,1.3,11.7-2.9,11.2-9.6c-0.7-9.5,3.5-14,12-16c0,0,0,0,0,0c3.2-4.2,7.8-8.6,5.5-14.2
			C432.3,207.2,426.4,207.4,421.2,207.6z M424.8,225.2c-2.1,1-4.6,1.4-6.9,2.1c-1.3,0.3-3,0.2-3.8,1c-5.5,5.7-10.3,8-18.1,8.1
			c-4.9,0.4-7.9-1.7-7.9-6.7c0-4.5,1.9-7.8,7.1-7.7c4.8,0.1,8.9-0.1,9.6-6.6c0.4-3.4,4-4,7.1-4c3.5-0.1,6.9,0.1,10.4,0.4
			c3.4,0.3,7.6,0.3,8.3,4.7C431.2,220.7,428.4,223.5,424.8,225.2z M476.6,116C476.6,116,476.6,116,476.6,116c4.3-1.9,9.8,4,13.5-2.1
			C480.9,107.1,478.2,107.6,476.6,116z M682.8,316c-3.6-4.8-7.1-9.7-10.8-14.4c-2.4-3.1-2.1-4.6,2-5.1c1.8-0.2,4.7,1,4.5-2.7
			c-0.1-2.3,0.2-4.5-2.6-6.1c-2.9-1.6-5-5-7.9-6.6c-5.3-2.9-2.8-5.1,0-7.6c10.6-9.1,10.9-10.5-1-14.9c-0.5,0-1.1,0.1-1.7,0.2
			c-1.2,0-2.4-0.3-3.4-0.9c-0.3-0.3-0.6-0.7-0.9-1c-1.4-0.6-1.8-1.7-1.8-3c0-0.9,0.1-1.9,0.2-2.9c0,0,0,0,0,0c0,0,0,0,0,0
			c0.5-2.6,0.9-5.2,1.6-7.7c0.7-2.3,2.3-4.7-0.1-6.6c-2.4-1.9-5.7-2.5-8.3-0.8c-7.7,5.1-7.6,0-7.6-5.5c0-4.9,2.4-11.7-1.9-14.2
			c-4.3-2.5-9.2,2.5-13.5,5c-0.4,0.2-1-0.1-1.9-0.1c-1.1-5.6,0.4-11.7-2.6-17c-1.8-3.3-4.3-5.8-7.3-2.3c-7.1,8.2-10.9,4.9-13.8-3.3
			c-0.3-0.7-0.9-1.3-1.3-2c-5.5-8-9.5-7.8-13.6,0.7c-1.1,2.3-2.1,4.7-3.2,7.2c-4.1-3.1-7.8-6.2-11.8-8.7c-2.6-1.7-6-4.2-8.8-2.8
			c-3,1.5-1.4,5.7-1.7,8.8c-0.3,2.2,1.5,4.7-1.3,6.9c-2.8-2.6-6.3-3.8-9.8-5c-11-3.7-11.3-3.7-10.8,7.8c0.1,4.1-0.8,4.4-4.3,3.7
			c-6.6-1.2-13.4-1-20.1-0.6c-0.2,2.6,0.3,4.9,1.2,7c1.2,2.9,3.1,5.4,5.1,8c1.1,1.3,3.2,2.8,2,4.8c-1.1,1.8-3.3,1-5.1,1
			c-2.5,0-5,0-7.5,0c-0.4,0.1-0.8,0.1-1.2,0.1c-1.3,0.1-2.7,0.1-4,0.1c-3,0.1-5,0.1-6.2,0.4c-0.2,0.2-0.4,0.4-0.6,0.7
			c-1.1,2.1,0.9,3.4,2.1,4.7c2.7,2.7,5.4,5.4,9.1,6.6c0,0,0,0,0,0c0.2-0.6,0.3-1.1,0.5-1.6c-0.8-2.8-5.9-4.7-2.9-7.2
			c3.1-2.6,8.2-0.7,12.3,0.4c12-1.1,20.8,6.3,30.1,11.9c4.2,2.5,3.6,4.2-1,5.9c0,0,0,0,0,0c0,0,0,0,0,0c-10.3,1-19.8-2.1-29.2-5.8
			c-1.3-0.5-3.8-0.5-3.5-3c-2.1,1.4-3.7-2.4-5.8-0.7c0,0.1,0,0.2-0.1,0.3c0,0-0.1-0.2-0.1-0.2c0.1-0.1,0.2-0.1,0.2-0.2
			c0,0,0-0.1,0-0.1c-0.2,0.1-0.3,0.2-0.5,0.3c0,0,0,0,0,0c0.1,0,0.2,0.1,0.3,0.1c0,0,0-0.1,0-0.1l0.1,0.2c0,0-0.1,0-0.1,0
			c0.3,1.7,0.6,2.7-2,3.4c-5.8,1.6-11.3,4.2-16.9,6.2c-0.8,0.3-1.5,0.6-2.1,1c-1,0.7-1.6,1.7-1.5,3.4c0,0,0,0,0,0
			c0,0,0.2,0.3,0.2,0.3c0,0,0,0,0,0c0.8,0.2,1.6,0.5,2.4,0.7c5.4,1.6,10.7,3.2,16.1,4.8c3.8,2.3,3.2,3.9-0.4,6.1
			c-4.7,2.9-9,6.5-15,11c5.8-0.3,9.3,1.3,12.6-0.8c8-5.2,17-5.6,26-5.7c0,0,0,0,0.1,0c6.8,0,13.6-0.2,20.4,0.2
			c5,0.3,4.6,2.3,0.8,4.5c0,0,0,0,0,0c-0.1,0-0.1,0-0.2,0.1c-2,0.9-4.4,0.8-6,2.9c0.2,0.1,0.4,0.1,0.6,0.1c0,0,0.1,0,0.1,0
			c4.6,1,8.8,0.4,12.9-1.7c0,0,0,0,0,0c0.2-0.4,0.4-0.7,0.7-1c1.9-2.1,5.2-2.9,5.7-6.2c-0.8-0.7-1.5-1.3-2.3-2
			c0.5,0.2,1,0.3,1.4,0.6c-0.4-0.3-0.9-0.5-1.4-0.6l-0.5,0.1c-3.2-1.9-6.6-2.8-10.1-3.3c-4.2-0.6-8.5-0.4-12.7-0.3
			c-11,0.3-21.4-1.6-31.5-5.5c-0.1-0.1-0.1-0.1-0.2-0.2c-2.1-2-6.5-2.7-5.1-6.6c1.2-3.5,5-1.6,7.8-1.7c0,0,0,0,0,0c0,0,0,0,0,0
			c8.9,1.3,17.8,2.6,26.7,3.8c7.4,1.1,14.8,0.6,22.1-1.1c2-0.5,5.2-0.3,4.3-4.1c0,0,0,0,0,0c0,0,0,0,0,0c-1.9-0.8-3.7-1.7-4.8-3.6
			c-1.4-0.7-2.9-1.4-3.3-3.2l0,0.1c0,0,0,0,0,0c0,0,0,0,0,0v0c0,0,0,0,0,0c-16.5-9.9-26.3-19-31-29.8c6,2.6,11,4.8,15.9,6.9
			c1,0.3,2,0.6,3,0.8c0,0,0,0,0,0c8.2,2.2,12.5,9,17.3,15.1l0-0.2c0,0,0,0,0,0c0,0,0,0,0,0l0,0c0,0,0,0,0,0c5.8,2.9,11.6,5.7,18,8.9
			c0.3-0.1,0.5-0.3,0.8-0.4c0.2-0.1,0.3-0.3,0.5-0.5c0-7.6-2.1-14.1-3.9-20.6c-2.2-8.2-5-16.3-7.4-24.5c-0.6-2.1-1.9-5.1,0.9-6.3
			c2.7-1.2,2.9,2.5,4.5,3.6c1.7,1.2,3.6,2.3,4.2,4.6c0,0,0,0,0,0c5.2,5.5,7.1,12.3,8.4,19.5c0.9,5,1.6,10,3.8,14.7
			c1.4,3,2.4,6.2,6.5,5.9c4.1-0.3,6-3.1,6.7-6.9c1.8-9.3,5.2-18,8.8-26.6c1.1-2.6,2.3-6.7,5.4-6.2c3.7,0.6,3.2,5.1,3.4,8.2
			c0.5,7-1.4,13.7-3.1,20.3c0.7,1.2,0.7,2.5,0,3.7c0,0,0,0,0,0c-0.3,2.7,1.3,5.7-1.2,8c0,0.4,0.1,0.9,0.1,1.3c0,0,0,0,0,0
			c1.8,4.8,4.8,6.4,9.7,4.2c3.9-1.7,7.9-3.2,11.3-5.9c0.3-0.4,0.5-0.9,0.9-1.3c4.7-4.1,11.8-7.2,15.4-2.5c3.5,4.6-3.4,8.8-7.3,12.1
			c-3.8,3.3-7.7,6.5-11.5,9.7c0,0,0,0,0,0c0,0,0,0,0,0c-0.5,1-0.9,2.2-2.4,1.8c-1.5,10.1,1.9,13.8,12.6,13.4
			c7.6-0.3,15.1-0.5,20.8,5.9c1.3,1.5,4.3,2.3,3.3,4.9c-1,2.6-3.6,1.6-5.7,1.5c-5.3-0.2-10.6-0.3-15.8-1.7c-2.4-0.7-5.1-0.2-7.6-0.1
			c-0.3,0-0.5,0-0.8,0c-0.5,0.8-0.3,1.5,0.1,2.1c1.6,2.2,7.3,3.1,2,7c-0.1,0.6-0.3,1.2-0.4,1.7c-0.2,0.6-0.3,1.2-0.5,1.8
			c4.5,1.4,9,2.8,13.5,4.3c0,0,0,0,0,0c0.5,2.5,3,2.4,4.6,3.4c2,3.1,3.1,8,8.2,6.9c2.2-0.5,4.4-0.5,6.5-0.3c2.4,0.2,4.7,0.5,7.1,0.6
			c0,0,0,0,0,0c0.2-0.7,0.3-1.3,0.5-1.9v0C683.3,316.6,683.1,316.3,682.8,316z M570.6,226.8C570.6,226.8,570.6,226.8,570.6,226.8
			c3.6,4.1,7.7,10.3,4,13.9c-2.9,2.8-7.5-4-10.9-6.8c-7.4-6-12.2-14.1-16.8-22.3c-0.8-1.4-1.6-2.9-0.4-4.5c0.9-1.1,2.1-0.6,2.9,0
			C556.9,213.1,567.1,216.3,570.6,226.8z M601,238.8c-0.9,2.9-3.3,4.5-6.2,2.1c-5.5-4.8-5.7-30.8-0.4-36.8c-2.7-3.9,2.3-4.8,2.7-7.6
			C605.2,210.1,605.6,224.2,601,238.8z M641,231c-0.3,2.8-0.4,5.9-2.8,8.1c0.2,2.1-1.4,2.9-2.7,3.9c0,0,0,0,0,0h0
			c-1,0.9-1.4,3-3.4,2.1c0.4,1.6-0.5,1.8-1.9,1.4l0.3,0.5c0,0,0,0,0,0c0,0,0,0,0,0l0,0c0,0,0,0,0,0c-3,4-5.6,4.2-6.2-1.3
			c-0.5-4.3-0.9-8.8,2.5-12.4c0,0,0,0-0.1,0c0,0,0,0,0,0c0,0,0,0,0,0l0,0c1-2.4,2.6-4.2,4.8-5.5c0.5-0.4,1-0.7,1.5-1.1h0
			c1.8-1.6,3.8-4.1,6.1-2.9C641.6,225,641.3,228.4,641,231z M659.9,272.4c-5.1,2.4-10.5,1.1-15.8,1.3c-6.2,0.2-4.8-3.6-2.9-6.7
			c5.1-8.2,12-8.7,23-3.2c5.8,2.9,1.5,3.8-0.3,5.5C663.3,271.2,662,272.3,659.9,272.4z M672,313.4c-3,3.3-4.6-0.3-6.8-1.3
			c-0.7-0.3-1.4-0.7-2.1-1c-0.3-0.1-0.5-0.3-0.8-0.4c-0.3-0.2-0.5-0.4-0.8-0.6c-1.2-0.9-2.4-1.8-3.5-2.7c-0.1-0.1-0.2-0.1-0.3-0.2
			c-0.1-0.2-0.2-0.3-0.3-0.5c-2.1-3.5-8-6.6-5-9.8c2.9-3.2,8,1.9,11.9,4c2.3,1.3,4.4,3.2,5.8,5.4C671.5,308.2,675.1,310,672,313.4z
			 M625,272.3c0-0.4-0.1-0.9-0.1-1.3c-0.5,0-1-0.1-1.6-0.1c-7.9-0.9-14.4-3.5-18.5-11.7c-2.5-5-7.8-5-12.8-3.4
			c-0.7,0.2-1.4,0.5-2.1,0.8c0,0,0,0,0,0c0,0,0,0,0,0c-1.9,2-3.7,4-5.6,6c0.1,0.9,0,1.7-0.2,2.5c-0.9,3.2-3.3,6.1-1.1,10.2
			c1.1,2-1,2-2.9,1.9c-0.5,0-1,0-1.4,0c-1.3,2.9-3.9,5.6-3.1,9c0.1,0.6,0.3,1.2,0.7,1.8c0,0,0,0,0,0c0.6,0.1,1.3,0.2,1.9,0.2v0
			c0-0.8,0-1.4,0-2.1c0.2-6.9,0.8-6.7,8-3.5c1.6,0.7,3,2.5,4.8,0.3c-0.6-0.8-1-1.7-1.4-2.6c-0.8-2.1-1.1-4.3-1.4-6.5
			c-0.6-4.3-0.7-9.1,3.8-11.5c3.8-2,7.2-1,10,1.5c0.7,0.6,1.3,1.3,1.9,2c0,0,0,0,0,0c0,0,0,0,0,0c3.6,3.3,1.4,8,2.8,12
			c3.2,0.1,6.6-4,9.5-0.3c2.6,3.2-0.2,6.6-1,9.8c-0.3,1.1-1,2-1.8,3c-0.4,0.5-0.8,1-1.2,1.5c0,0,0,0,0,0c2.5,2.3,5.3,1.6,8.1,0.9
			c0,0,0,0,0,0c0.1-0.4,0.3-0.7,0.4-1.1c1.6-4.4,3.3-8.7,4.9-13.1c0,0,0,0,0,0c-0.1-0.6-0.1-1.2-0.2-1.8
			C625.3,275.1,625.2,273.7,625,272.3z M490.7,149.4C490.7,149.4,490.7,149.4,490.7,149.4c7.5,1.9,9.9-2.5,10.6-8.8
			c0.3-2.4,0.2-4.8,0.3-7.2c0,0,0,0,0,0c-4.6-4.2-11.9-5.2-13.5-13.4c-2.3,3.4-1.4,5.1-0.7,6.8c0.1,0.1,0.2,0.2,0.3,0.3
			c3,3.2,6,6.5,8.9,9.7h0c0.2,0.2,0.4,0.5,0.6,0.7c0.3,0.1,0.5,0.2,0.8,0.3c0.1,0.4,0.1,0.8,0.1,1.2c0.3,0.8,0.4,1.6,0,2.3
			c-0.2,0.4-0.4,0.7-0.7,1.1c-2.3,2.3-5.4,2.2-8.3,1.1c-4-1.5-7.9-3.7-12.3-2.4c-8.8,2.5-8.8,2.7-14.3-4.6c-0.2-0.2-0.3-0.4-0.5-0.6
			c-2.3-2.5-5.7-5.1-2.9-8.8c2.6-3.4,6.3-2.7,9.6-0.5c0,0,0.1,0,0.1,0.1c0.4,0.1,0.8,0.2,1.1,0.3c0.2,0,0.4,0.1,0.6,0.1c0,0,0,0,0,0
			c0,0,0,0,0,0c2.2-1.4,4.1,1.9,6.5,0.7c-0.6-2.6,1.5-7-2.5-6.5c-7.8,0.9-16.9-6.1-23.4,3.5v0c0,3,0,6.1,0,9.1
			c7.1,4.8,10.2,11.4,9.3,20c-0.2,1.6-1.1,4.1,1.4,4.8c2.1,0.6,3.4-1.4,4.6-2.7C473.2,148.8,480.7,144.7,490.7,149.4
			C490.7,149.4,490.7,149.4,490.7,149.4z M380.4,123.8c-0.1-1.7,0.7-4.4-1.9-4.5c-2.5-0.1-5.6,0.4-5.3,4.4c0,0,0.6,0.3,0.6,0.3
			l-0.1,0.6c2.2,1.2,1.6,6,5.2,4.9C381.1,128.9,380.5,125.9,380.4,123.8z M370.7,116.3c-3-1.7-4.4-4.1-3.4-7.4
			c0.9-2.9,3.6-2.7,6-2.9c9.5-0.7,17.9-2.6,17.5-15c0-1.3,1.2-3.1,2.3-4.1c4-3.4,5.9-6.8,2.1-11.7c-1.7-2.2-0.7-3.5,2.1-2.9
			c0,0,0,0,0,0c0,0,0,0,0,0c0.4-0.4,0.8-0.8,1.2-1.1c-2.3-3.5-5.8-4.5-9.6-4c-12.6,1.8-26.3-0.2-36,11.2c-2,2.3-4.7,3.5-7.3-0.1
			c-1.2-1.7-3.1-1.9-4.6,0.2c4.3,2.4,3.1,5.4,1,8.6c-1.7,2.4-3.8,4.2-6.6,1.7c-2.5-2.2-1.9-4.7,0.3-6.9c1.1-1.1,2.3-2,3.5-3.1
			c-3.9-0.3-8.7-1.8-9.6,4.1c-0.8,5-0.8,10.2-0.8,15.2c0,2.3,0.6,4.9,4,5c5,0.1,5.7,4,6.7,7.7c0.9,3.6,1.3,8.2,5.5,9.2
			C354,122.3,363.3,125.1,370.7,116.3z M358.5,118.5c-6.6,2.1-10.3-2.4-13.7-6.9c-3.4-4.5-2.4-9.7-0.6-14.6c1.7-4.5,5.9-3.9,9.6-3.9
			c4.8,0,3.5,3.9,3.7,6.5c0.3,4.4,1.6,9.2-1.5,13.1C352.5,117.2,360.4,114.6,358.5,118.5z M362.3,110c-3.7-7.3-3.2-14.4,1.4-21.2
			c0.6-1.4,1.3-2.8,1.9-4.1c-0.5-2.6,0.9-5.2,2.6-5.7c2.8-0.9,3.8,2.4,5.4,4.2c0,0,0,0,0,0c0,0,0,0,0,0c0,0,0,0,0,0l0,0
			c6.5,2.5,9.4,7.3,9.1,14.3c-0.1,2.7-0.5,3.5-3.8,2.8C367.1,98,367,98.2,362.3,110z M356.4,163.5c-3.5-2.9-5.4-6-6-10.4
			c-0.1-0.4-0.4-0.5-0.8-0.4c-0.6,0.2-1.3,0.7-1.8,1c-2.6,10.1-1.2,13.5,5.9,14.7c0,0,0,0,0,0c0.6-0.7,2-1.3,2.9-1.9
			C357.7,165.8,358.1,165,356.4,163.5z M350.4,130.4c-4.3,2.2-8.1,4.5-7.5,9.7c0,0.3,0.1,0.7,0.2,1.1c0,0,0,0,0,0c0,0,0,0,0,0
			c0.5,0.5,1,1,1.5,1.6c0,0,0-0.1,0-0.1c0,0.1,0,0.1,0,0.2c0.3-0.1,0.5-0.2,0.8-0.4C350.4,139.9,348.1,134.2,350.4,130.4z
			 M386.8,143.4c0.5-1.7-1.4-2.3-2.5-3.3c-0.5-0.4-2.2-1-2.1,0.9c0.1,4-3.5,3.2-5.5,3.8c-7.3,2-11.3,7.9-16,12.9
			c-1,1.1-1.5,2.1-0.4,3.5c1.5,1.7,2.4,0.4,3.1-0.6c3.8-5.2,9.5-6.7,15.3-7.9C383.7,151.8,385.8,148.4,386.8,143.4z M373.8,133.7
			c-0.2,1.4-3.5,3.2-0.4,4c2,0.6,3.9,3.2,6.3,1.3c1-0.8,0.2-1.8,0-2.8C378.8,132.7,376.5,132.7,373.8,133.7z M342.6,285.3
			C342.6,285.3,342.5,285.2,342.6,285.3C342.5,285.2,342.5,285.2,342.6,285.3c-2.9-0.5-5.8-0.8-9.1,0.8c5.9,5.5,0.5,9.2-1.9,13.4
			c-0.1,0.2-0.1,0.4-0.1,0.6c-0.8,3.9,1.1,8.1-0.2,12c-0.2,0.7-0.5,1.3-1,2c0,0,0,0,0,0c-0.9,1.5-1.2,5.3-3.7,1.1
			c-1.2-2-1.1-4.8-4.2-5.6c-3.1,3.7-0.9,8.2-1.9,12.2c0.6,1.5,1.1,3,1.7,4.5c6.9-0.1,14-9.4,14.5-18.2c0.2-4.7-1.8-10.3,4.5-13
			c0.5-0.9,1.1-1.8,1.6-2.7l0,0C342.7,290.1,342.6,287.7,342.6,285.3z"/>
	</g>
</g>
<g>
	<g>
		<path class="st1" d="M638,251.6c1.3-1.5,2.1-2.9,2.1-3.9c-3.4,2.7-7.4,4.2-11.3,5.9c-4.9,2.2-7.9,0.7-9.7-4.2c0,0,0,0,0,0
			c-0.5,0.5-0.9,0.9-1.2,1.4c-1.1,1.8-0.6,3.7,0.5,5.7c2.1,3.7,5.5,2.9,8.5,2C631.2,257.2,635.5,254.3,638,251.6z M290.8,110.7
			c-0.4-0.4-0.7-0.7-1.2-1c0,0,0,0,0,0c0.1,0.8,0.2,1.5,0.3,2.2C290.2,111.5,290.5,111.1,290.8,110.7z M620.2,240
			C620.2,240,620.2,240,620.2,240c-2.3,2.4-1,5.3-1.2,8C621.5,245.7,619.9,242.7,620.2,240z M624.2,245.7c0.6,5.5,3.2,5.3,6.2,1.3
			c0,0,0,0,0,0l0,0c0,0,0,0,0,0c0,0,0,0,0,0c-4.8-3.6-3-9-3.6-13.7c3.9,0.2,5.1-1.9,4.6-5.5c-2.2,1.3-3.8,3.1-4.8,5.5l0,0
			c0,0,0,0,0,0c0,0,0,0,0,0c0,0,0,0,0.1,0C623.3,236.9,623.7,241.4,624.2,245.7z M358.5,118.5c1.9-3.9-6-1.4-2.5-5.8
			c3.1-4,1.9-8.7,1.5-13.1c-0.2-2.6,1.2-6.5-3.7-6.5c-3.7,0-7.9-0.6-9.6,3.9c-1.8,4.9-2.8,10,0.6,14.6
			C348.2,116.1,351.8,120.7,358.5,118.5z M351,97.6c3.8,0.5,4.3,3.3,4.2,6.1c-1.1,3.1-0.4,8.1-4.7,7.3c-4.8-0.8-3.5-6.4-4.3-9.9
			C345.6,98.1,348.4,97.3,351,97.6z M379,100.3c3.3,0.6,3.6-0.1,3.8-2.8c0.3-7-2.6-11.8-9.1-14.3l0,0c0,0,0,0,0,0c0,0,0,0,0,0
			c0,0,0,0,0,0c-1.6-1.8-2.6-5.1-5.4-4.2c-1.7,0.5-3.1,3.2-2.6,5.7c0,0,0,0,0,0c2.6-0.5,5.3-0.9,7.9-1.4c-0.8,3.6,2.7,4.7,4.2,6.9
			c1.8,2.6,3.9,5.8-0.9,7.6c-1.2,0.4-2.2,0.7-3.3,0.9c-0.7,0-1.4,0-2.1,0c-0.6,0-1.2,0-1.7,0c-3.8-0.8-6-4.2-6.1-9.9
			c-4.6,6.9-5.1,13.9-1.4,21.2C367,98.2,367.1,98,379,100.3z M408.9,318.9C408.9,318.9,408.9,318.9,408.9,318.9
			C408.9,318.9,408.9,318.9,408.9,318.9C408.9,318.9,408.9,318.9,408.9,318.9z M401.5,311.7c0.9,0.1,2-0.5,3.2-1
			c1.6,0,3.1,0.2,4.2,1.3c0.1,0.6,0.1,1.5,0.1,2.5c-0.4,1.5-0.8,2.9,0,4.4c0,0,0,0,0,0c0.5-1.1,0.9-2.2,1.4-3.3
			c1.4-2.5,3.7-5.1,0.8-7.7c-2.7-2.4-5.4-0.6-7.9,0.9c-0.9,0.5-1.6,1.3-2.5,1.9c-0.5,0.2-1,0.3-1.5,0.5
			C400,311.6,400.7,311.7,401.5,311.7z M603.9,265.6C603.9,265.6,603.9,265.6,603.9,265.6c-0.6-0.7-1.2-1.4-1.9-2
			c-2.8-2.5-6.2-3.5-10-1.5c-4.5,2.4-4.4,7.1-3.8,11.5c0.3,2.2,0.6,4.4,1.4,6.5c0.4,0.9,0.8,1.8,1.4,2.6c3.3-1.7,1.5-4.7,1.5-7.1
			C592.4,263.1,592.3,263.1,603.9,265.6z M512.4,247.7c2.1-1.6,3.8,2.1,5.8,0.7c-0.3,2.5,2.1,2.5,3.5,3c9.3,3.7,18.9,6.8,29.2,5.8
			c0,0,0,0,0,0c-3.1-0.9-6.3-1.8-9.4-2.6c-5.9-1.6-11.7-3.3-17.6-4.9c-1.3-0.6-2.5-1.3-3.7-2.1c-0.6-0.4-1.2-0.8-1.9-1
			c0.2-2.2,0.7-4.3,2.2-6c0.4-0.4,0.8-0.8,1.3-1.2c-4.1-1.1-9.2-3-12.3-0.4c-3,2.5,2.1,4.3,2.9,7.2c-0.2,0.5-0.3,1.1-0.5,1.6
			C512.1,247.8,512.3,247.7,512.4,247.7C512.5,247.7,512.4,247.7,512.4,247.7z M564.1,275.4c-0.2-2.3-1.9-2.8-3.7-3.6
			c-6.9-3.1-14.1-3.2-21.3-2.7c-8.8,0.6-17-1.6-25.2-3.8c-2.2-0.6-4.9-1.8-5.5-4.2c0,0,0,0,0,0c-0.6-2.4,3.1-1.5,3.9-3.2
			c0,0,0,0,0,0c-2.7,0.1-6.5-1.8-7.8,1.7c-1.4,3.9,3.1,4.6,5.1,6.6c0.1,0.1,0.2,0.1,0.2,0.2c10.1,3.9,20.5,5.8,31.5,5.5
			c4.2-0.1,8.5-0.2,12.7,0.3C557.5,272.6,560.9,273.5,564.1,275.4z M540.6,280.8c1.8-0.1,3.7-0.3,5.5-0.4c0.7,0,1.5-0.2,2.2-0.3
			c-0.9,0-1.9,0.1-2.9,0.2C543.8,280.5,542.2,280.6,540.6,280.8z M512.4,248.1c0-0.1,0.1-0.2,0.1-0.3c-0.1,0.1-0.1,0.1-0.2,0.2
			C512.2,247.9,512.4,248.1,512.4,248.1z M460.6,162.1c3.1,0.4,6.5,0.8,8.6-2.7c4.9-8.1,12-11.6,21.5-10c0,0,0,0,0,0
			c-10-4.7-17.5-0.6-24.2,6.6c-1.2,1.3-2.5,3.3-4.6,2.7c-2.5-0.8-1.6-3.3-1.4-4.8c0.9-8.6-2.2-15.2-9.3-20c0.2,1.6-0.2,3.9,0.7,4.5
			c6,4.6,5.9,10.8,5.6,17.4C457.2,158.4,456.8,161.6,460.6,162.1z M512.2,247.9c0,0,0,0.1,0,0.1c0,0,0.1,0,0.1,0L512.2,247.9z
			 M491.2,258.6c0.6-0.4,1.3-0.7,2.1-1c5.7-2,11.2-4.6,16.9-6.2c2.6-0.7,2.3-1.7,2-3.4c-0.1,0-0.2-0.1-0.3-0.1c0,0,0,0,0,0
			c0,0,0,0,0,0c-3.8-1.2-6.4-3.9-9.1-6.6c-1.2-1.2-3.2-2.5-2.1-4.7c0.2-0.3,0.4-0.5,0.6-0.7c1.2-0.3,3.2-0.3,6.2-0.4
			c1.3,0,2.7,0,4-0.1c0.4,0,0.8-0.1,1.2-0.1c2.5,0,5,0,7.5,0c1.8,0,4,0.8,5.1-1c1.2-2-0.9-3.4-2-4.8c-2-2.5-3.9-5.1-5.1-8
			c-0.9-2.1-1.4-4.4-1.2-7c0,0,0,0,0,0c0,0,0,0,0,0c0,0,0,0,0,0c0,0,0,0,0,0c-1.7,3.6-1.4,7.1,0.4,10.7c3.1,5.8,0.2,7.9-5.3,8
			c-3.5,0.1-7,0-10.4,0.1c-5,0.1-6.1,2.5-4,6.8c4.7,9.4,4.7,9.4-4.6,14.4c-1.4,0.8-3,1.2-4.2,2.2c-2.7,2.2-3.2,4.2,0.9,5.4
			c0,0,0,0,0,0C489.6,260.4,490.2,259.4,491.2,258.6z M693.5,266.8c1,8.1,2.5,16.1,4,25.2c3.9-4.7,1-9.2,3.1-12.7
			c-0.4-3.2,1-6.8-2.1-9.4c0.4,0,1.1,0.2,1.2,0.1c0.4-1.5-1-1.3-1.7-1.9c0,0,0,0,0,0c-1.1-10.3-1-20.7-5-30.5c0,0,0,0,0,0
			c-1.7,0.9-2,2.4-1.9,4.1C692,250,692.5,258.4,693.5,266.8z M675.7,282.4c-3-3-5.3-7.5,0.3-11.4c2.7-1.9,5.8-5,2-8.6
			c-3.4-3.3-6.7-8-12.6-4.2c0,0,0,0,0,0c0,0,0,0,0,0c-1-0.3-1.9-0.5-2.9-0.8c-0.2-2.5-1-4.8-3.2-6.3c0,0,0,0,0,0
			c-0.1,1-0.2,2-0.2,2.9c0,1.3,0.4,2.4,1.8,3c0.3,0.3,0.6,0.7,0.9,1c1,0.7,2.2,0.9,3.4,0.9c0.6-0.1,1.1-0.2,1.7-0.2
			c11.9,4.4,11.7,5.8,1,14.9c-2.9,2.5-5.3,4.7,0,7.6c3,1.6,5,4.9,7.9,6.6c2.8,1.6,2.5,3.7,2.6,6.1c0.2,3.7-2.7,2.5-4.5,2.7
			c-4,0.5-4.4,2-2,5.1c3.7,4.7,7.2,9.6,10.8,14.4c0.2,0.3,0.4,0.6,0.7,0.9c0.4,0.4,0.9,0.7,1.2,1.1c1,1.4,1.7,1.1,1.4-0.5
			c-0.3-1.5-1.3-2.9-1.7-4.4c-1.2-4.3-6.7-8.4-4.3-12.3C685.4,292.4,681,287.9,675.7,282.4z M450.9,89.1
			C450.9,89.1,450.9,89.1,450.9,89.1c-0.1,0-0.2,0-0.4,0c-0.9,0-1.8,0-2.7,0c-0.6-0.2-1.2-0.2-1.8,0c-1.4,0.1-2.7,0.2-4.1,0.3
			c7.5,2.5,15,3.2,22.5,1.4c1.9-0.4,3.7-1,5.6-1.8c0,0,0,0,0,0c0,0,0,0,0,0c-4.6,0.2-9.1,0.5-13.7,0.7c-0.6,0.2-1.2,0.3-1.8,0.4
			c-0.9,0.1-1.7,0.1-2.5-0.3C451.7,89.6,451.3,89.4,450.9,89.1C450.9,89.1,450.9,89.1,450.9,89.1z M671.8,291.7c1-2.6-2-3.4-3.3-4.9
			c-5.6-6.4-13.2-6.2-20.8-5.9c-10.7,0.4-14.1-3.3-12.6-13.4c1.5,0.3,1.8-0.9,2.4-1.8c0,0,0,0,0,0c-1.2,0.2-2.3,0.4-2.5,1.8
			c0,0,0,0,0.1,0c-0.8,0.6-1.5,1.3-2,2.1c-2.8,3.9-2.4,9.1,2,10.9c9.9,4.1,5.6,6.2-0.7,8.5c1.7,4.2,3.9,7.7,7.3,10.1
			c0.7,0.5,1.5,1,2.4,1.4c5.3-3.8-0.5-4.8-2-7c-0.4-0.6-0.6-1.3-0.1-2.1c0.3,0,0.5,0,0.8,0c2.5-0.1,5.2-0.5,7.6,0.1
			c5.2,1.4,10.5,1.5,15.8,1.7C668.2,293.3,670.9,294.3,671.8,291.7z M663.4,288.1c-0.3,1.7-2.1,1.9-3.2,1.5c-4.5-2-10.1-0.1-14.1-4
			c5.1-0.1,10.1-2.3,15-0.2C662.3,285.8,663.7,286.5,663.4,288.1z M625,270.8c0.3-1.5-0.3-3.1-1.6-2.9c-8.6,0.9-12-5.1-15.7-11.2
			c-1.3-2.1-3.8-3.5-5.7-5.2c10.2-9.9,9.3-25.2,16.6-37.1c2.6,3.5,1.7,6.7,1.6,9.8c-0.1,2.8-1.5,5.7-1.4,8.5
			c0.1,1.3,0.4,2.5,1.3,3.8c0,0,0,0,0,0c1.7-6.7,3.6-13.4,3.1-20.3c-0.2-3.1,0.3-7.5-3.4-8.2c-3.1-0.5-4.3,3.6-5.4,6.2
			c-3.6,8.7-7.1,17.4-8.8,26.6c-0.7,3.8-2.7,6.5-6.7,6.9c-4.1,0.3-5.1-2.8-6.5-5.9c-2.2-4.7-2.9-9.7-3.8-14.7
			c-1.3-7.2-3.2-14-8.4-19.5c0,0,0,0,0,0c-0.6-2.3-2.5-3.4-4.2-4.6c-1.6-1.2-1.9-4.8-4.5-3.6c-2.8,1.2-1.5,4.3-0.9,6.3
			c2.3,8.2,5.1,16.3,7.4,24.5c1.8,6.5,3.9,13,3.9,20.6c-0.2,0.2-0.3,0.3-0.5,0.5c-0.2,0.2-0.5,0.3-0.8,0.4c-6.5-3.2-12.3-6.1-18-8.9
			c0,0,0,0,0,0l0,0c0,0,0,0,0,0c0,0,0,0,0,0l0,0.2c-4.8-6.1-9.1-12.9-17.3-15.1c0,0,0,0,0,0c0.4,1,0.9,1.9,1.6,2.7
			c3.1,4.1,8.3,6.2,10.8,10.9c0.6,1.2,1.7,1.7,2.9,1.8c0.3,0.3,0.5,0.5,0.8,0.8c0.6,0.5,1.2,0.9,1.9,1.2c0.3,0.2,0.7,0.3,1,0.5
			c2.8,3.8,7,5.7,11.5,6.6c2.2,0.5,4,0.3,5.3-0.4c0.3,0.1,0.6,0.3,0.9,0.4c0-0.4,0-0.7,0-1.1c1.6-1.4,2.3-3.9,2.1-7.2
			c-0.4-8.6-3.4-16.5-5.8-24.6c-1.1-3.7-4.1-8,0.1-10.9c0.4,0.5,0.8,1,1.2,1.5c0.4,0.5,0.7,0.9,1,1.4c0.6,2,1.7,3.9,2,5.9
			c0.7,5,2.6,9.9,4.4,14.7c0.5,2.8,1.2,5.6,2.4,8.2c0.2,0.5,0.5,1.1,0.7,1.6c1.1,4.7,1.4,9.5-0.1,14.6c0,0,0,0,0,0
			c0.7-0.3,1.4-0.5,2.1-0.8c5-1.6,10.3-1.6,12.8,3.4c4.2,8.3,10.6,10.9,18.5,11.7c0.5,0.1,1,0.1,1.6,0.1c0,0.4,0.1,0.9,0.1,1.3
			c0.2,1.4,0.3,2.8,0.5,4.2c0.1,0.6,0.1,1.2,0.2,1.8c0,0,0,0,0,0C630.1,275.3,630,272.7,625,270.8z M658.2,307.1
			C658.2,307.1,658.2,307.1,658.2,307.1C658.2,307.1,658.2,307.1,658.2,307.1C658.2,307.1,658.2,307.1,658.2,307.1z M584.3,262.4
			c-7,2.9-2.7,10.1-5.6,14.5h0c0.4,0,0.9,0,1.4,0c1.9,0.1,4,0,2.9-1.9c-2.3-4,0.2-7,1.1-10.2C584.2,264.1,584.4,263.3,584.3,262.4z
			 M631.8,244.8c-0.7,0.4-1.3,0.9-1.7,1.7c1.5,0.4,2.4,0.2,1.9-1.4c2,0.9,2.4-1.2,3.4-2.1h0C634,243,632.4,243.1,631.8,244.8z
			 M628.7,112.3C628.7,112.3,628.7,112.3,628.7,112.3c0,0-0.1,0.2-0.1,0.2C628.6,112.4,628.6,112.3,628.7,112.3
			C628.7,112.3,628.7,112.3,628.7,112.3z M620.6,121.5c5.5,0.4,8-3.6,11.3-6.1c-0.5-1.1-1-2.2-1.5-3.3c-0.6,0.1-1.1,0.3-1.7,0.4
			c0,0-0.1,0-0.1,0C627.1,116.2,621.7,116.3,620.6,121.5z M606.5,96.7c3.2,0,6.3-0.1,9.5,0c0.8,0,1.6,0.1,2.3,0.1c0,0,0,0,0,0
			c1.4-1.2,4,0.5,5.3-2.7c-12.1,1.7-23.6-1.3-35.3-1.3c0,0,0,0,0,0c1.3,0.7,2.6,1.3,3.9,1.8C596.8,96.4,601.6,96.7,606.5,96.7z
			 M648.5,265.4c6.6-4,10.4-3.1,15.5,3.8c1.8-1.7,6.2-2.7,0.3-5.5c-11-5.5-17.9-4.9-23,3.2c-1.9,3.1-3.4,6.8,2.9,6.7
			c5.3-0.1,10.7,1.2,15.8-1.3c-3.4-0.1-6.9-0.3-10.3-0.4c-1.9-0.1-4-0.4-4.4-2.6C644.8,267,647,266.4,648.5,265.4z M578.6,100.9
			c-1.1-1.6-2.2-3.1-3.3-4.7c0,0,0,0,0,0c-2.9,4.3-0.1,4.8,3.2,4.8c0.4,2.7,2.3,3.1,4.6,3.1c12,0.1,24,0.2,36,0.2
			c2.7,0,5.4-0.3,6.1-3.8c0,0,0,0,0,0c-1.3,0-2.6,0-3.9,0c-13.6,0.1-27.3,0.3-40.9,0.4C579.8,100.8,579.2,100.9,578.6,100.9z
			 M639,223.7c-2.3-1.2-4.3,1.3-6.1,2.9h0c8.9,1.1,3.3,8.4,5.3,12.5c2.4-2.2,2.4-5.3,2.8-8.1C641.3,228.4,641.6,225,639,223.7z
			 M451.2,124.7L451.2,124.7c6.4-9.6,15.6-2.5,23.4-3.5c3.9-0.5,1.9,3.9,2.5,6.5c-2.4,1.2-4.3-2.1-6.5-0.7c0,0,0,0,0,0
			c0.1,1.5,1,2.4,2.3,3c3,1.4,4.5,3.9,3.7,7.1c-0.5,1.9-2.5,2.6-4.4,3c-3.7,0.7-5.4-1.9-6.8-4.4c-2.3-4.2-3-8.1,3.4-9
			c0,0,0.1,0,0.1,0c0,0-0.1,0-0.1-0.1c-3.4-2.1-7.1-2.8-9.6,0.5c-2.8,3.7,0.6,6.3,2.9,8.8c0.2,0.2,0.4,0.4,0.5,0.6
			c5.5,7.3,5.5,7.2,14.3,4.6c4.4-1.2,8.3,0.9,12.3,2.4c2.9,1.1,6,1.1,8.3-1.1c0.4-0.4,0.6-0.7,0.7-1.1c0.3-0.8,0.3-1.6,0-2.3
			c0-0.4-0.1-0.8-0.1-1.2c-0.3-0.1-0.5-0.2-0.8-0.3c-0.2-0.2-0.4-0.5-0.6-0.7h0c-0.1,0.2-0.2,0.4-0.2,0.6c-2.9,6.8-7.8,1.7-11.8,1.3
			c-2.9-0.3-5.4-2-4.2-5.4c1.1-3.2,2-7.2,7-6.5c-0.6-1.7-1.5-3.4,0.7-6.8c1.6,8.2,8.8,9.2,13.5,13.4c0,0,0,0,0,0h0
			c2.4-4.5-1.6-5.3-4.1-6.9c-1.7-1.1-4.2-1.6-2.8-4.6c1.1-2.3,2.8-2.8,5.3-2.3c4.1,0.9,8.1,1.3,12.2-3c-8-2-15.4,0.2-22.1-2.7
			c-3.7,6-9.2,0.2-13.5,2.1c0,0,0,0,0,0c0,0,0,0,0,0c-5.8-0.5-11.4,2.1-17.2,0.7C452.4,115,449.8,117.8,451.2,124.7
			C451.2,124.7,451.2,124.7,451.2,124.7z M565.4,256.4c0.1-0.5,0.2-0.9,0.2-1.3c0.2-2.3-1.1-2.6-2.6-2.6c-0.1-0.1-0.1-0.1-0.2-0.2
			c-0.6-0.5-1.1-1-1.7-1.5c-0.8-0.8-1.7-1.5-2.5-2.2c-0.5-0.4-1-0.8-1.6-1.1c-1.5-4.3-5.9-6-9.3-8.4c-4.7-3.4-9.3-6.8-13.4-11.4
			c1.1-0.5,2.1-0.7,3.1-0.9c1.7-0.3,3.4-0.2,5,0c-5-2.2-9.9-4.3-15.9-6.9c4.7,10.8,14.4,19.9,31,29.8c0,0,0,0,0,0v0c0,0,0,0,0,0
			c0,0,0,0,0,0l0-0.1c0.4,1.8,1.9,2.5,3.3,3.2C561.7,254.7,563.5,255.6,565.4,256.4C565.4,256.4,565.4,256.4,565.4,256.4z
			 M456.2,86.3c7.4,1.7,16.2-2.9,20.7-11.6c-8.2,0.7-15,2.9-21.7,5.3c-1.6,0.6-4,1.1-3.5,3.5C452.1,85.6,454.4,85.8,456.2,86.3z
			 M466.4,80.4c-2.4,2.5-4.6,3-7.8,2.4C460.9,80.3,463.1,80.2,466.4,80.4z M487.6,127.2c-0.1-0.1-0.2-0.2-0.3-0.3c0,0.1,0,0.3,0,0.4
			C487.4,127.3,487.5,127.2,487.6,127.2z M549.3,207c-0.8-0.6-2-1.1-2.9,0c-1.2,1.5-0.4,3.1,0.4,4.5c4.6,8.2,9.5,16.4,16.8,22.3
			c3.5,2.8,8.1,9.6,10.9,6.8c3.6-3.6-0.4-9.7-4.1-13.9c0,0,0,0,0,0C567.1,216.3,556.9,213.1,549.3,207z M569.9,235
			c-5.3-7.7-14.8-10.2-15.8-20c8.8,0.3,8.8,11.1,16.5,11.8c-0.2,0.1-0.3,0.2-0.4,0.4c0.2-0.1,0.3-0.2,0.5-0.4
			C570.4,229,570.2,231.3,569.9,235z M566,275.9c-0.4-0.3-0.9-0.5-1.4-0.6c0.8,0.7,1.5,1.3,2.3,2C566.8,276.6,566.5,276.2,566,275.9
			z M594.8,240.8c2.9,2.5,5.3,0.9,6.2-2.1c4.6-14.5,4.2-28.7-3.9-42.4c-0.5,2.8-5.4,3.7-2.7,7.6C589.2,210,589.3,236.1,594.8,240.8z
			 M594.5,204c0.1,0.2,0.3,0.4,0.5,0.4C594.8,204.3,594.7,204.1,594.5,204c1.4-0.2,3.1-3.8,4,0c2.4,10.5,4.7,21.2-0.6,33.2
			C591.4,225.7,592.3,214.9,594.5,204z M312.4,236.8c-4.4-4.1-10.7-2.4-14.5-0.1c-3.6,2.2,1.7,5.2,3.2,7.8c1.5-3.1,1.6-7.5,7.1-6.5
			c3.3,0.6,1.9,2.4,1.5,4.1C313.9,242,315.2,239.4,312.4,236.8z M705.8,397.8c-6.8,0.5-8.4,4.9-8.3,11.3c0.3,15.7,5.3,30.6,7.1,46.1
			c0,0,0,0,0,0c0,0,0,0,0,0v18c0.8,0,1.6-0.1,2.4-0.1c0.9-5.9,0.6-11.9,0.2-17.9h0c-0.5-6.9-1.1-13.9-1.3-20.8
			c-0.1-4.5,0.6-8.9,6.2-11.2c0.4,5.8-3,11-0.7,18.6c3.6-12.6,7.2-23,5.3-34.1C715.5,401.5,712.5,397.2,705.8,397.8z M651.9,153.3
			C652.1,153.2,652.1,153,651.9,153.3L651.9,153.3z M723.5,401.9c-1.6-10.5-0.8-23.5-15.1-27.5c-2.4-0.7-2.2-2.4-1.5-4.5
			c0.8-2.5,1.2-5.2,1.7-7.9l0.4-0.4c0,0-0.2-0.5-0.2-0.5c0,0,0,0,0,0c0-1.2,0-2.5,0-3.7c0,0,0,0,0,0c-8.1,0.6-13.5-3.3-17.4-10.1
			c-3.8-6.4-8.4-12.2-13.7-17.5c-2.6-2.6-5-5.2-6.5-8.4c4-2.4,8.6,0.6,11.9-2.6c0,0,0,0,0,0c-2.4-0.1-4.7-0.4-7.1-0.6
			c-2.1-0.1-4.3-0.2-6.5,0.3c-5.1,1.1-6.1-3.8-8.2-6.9c-1.6-1.1-4-1-4.6-3.4c0,0,0,0,0,0c-4.5-1.4-9-2.8-13.5-4.3c0,0,0,0,0,0
			c-8.8-1.5-15.3-7.5-22.8-11.5c0,0,0,0,0,0c0,0,0,0,0,0c-2.8,0.7-5.6,1.4-8.1-0.9c0,0,0,0,0,0c-11.6,1-22.7-3.3-34.1-3.7
			c0,0,0,0,0,0v0c-0.6-0.1-1.3-0.2-1.9-0.2c0,0,0,0,0,0c-5.6,0.5-11.2,1.3-15.8-3.1c0,0,0,0,0,0c0,0,0,0,0,0
			c-4.1,2.1-8.3,2.6-12.9,1.7c0,0-0.1,0-0.1,0c-0.2,0-0.4-0.1-0.6-0.1c1.5-2.1,4-2,6-2.9c0.1,0,0.1,0,0.2-0.1c0,0,0,0,0,0
			c0,0,0,0,0,0c0,0-0.1-0.1-0.1-0.1c-3.4-3.5-6.9,0.1-10.4,0.1c-6.7-0.1-13.4,0-20.4,0c2.7-3.3,8.6,1.2,9.7-4.5c0,0,0,0,0-0.1
			c0,0,0,0-0.1,0c-9.1,0.1-18.1,0.5-26,5.7c-3.3,2.1-6.8,0.5-12.6,0.8c6.1-4.5,10.3-8.1,15-11c3.6-2.2,4.1-3.8,0.4-6.1
			c-5.4-1.6-10.7-3.2-16.1-4.8c-0.8-0.2-1.6-0.5-2.4-0.7c0,0,0,0,0,0c1.6,4.3,5.1,5.7,9.2,6.5c4.1,0.8,5.6,4,2.2,6
			c-6.9,4.1-11.9,10.6-19.6,13.6c-17.8,6.8-36.8,10.3-53,21.1c-3.5,2.3-6.4,2.3-7-3.3c-0.7-6.8-3.9-9.3-11.7-9
			c-8,0.3-12.8,7.8-20.5,7c-7.8-0.8-11.8,3.7-12.7,10.2c-1.8,12.5-6.2,22.2-19.7,25.4c-0.9,0.2-1.7,1.3-2.4,2.1
			c-7.6,8-17.3,12.9-27.4,16.5c-7.9,2.8-16,2-22.3-4.7c-14.3-15.4-22.4-33.4-22.2-54.6c0.1-15,0.4-30.1,0.6-45.1
			c0.1-7.3-0.5-14.9,9.3-17.9c-3.7,0-7.2,1.1-8.6-3.1c-1.3-4-0.4-7.4,3.2-9.8c1.3-0.9,2.7-1.9,3.7-3.1c2.9-3.3,2.3-9.9-0.9-11.4
			c0,0.6,0,1.1,0,1.7c0.1,1,0.2,1.9,0.3,2.9c0.1,1.8-0.1,3.5-1.6,4.8c-0.3,0.2-0.6,0.5-0.9,0.7c-0.5,0.3-2,0.3-2.1,0.1
			c-1.6-3.6,0-7,0.8-10.5c0.2-0.8,0.5-1.5,0.9-2.1c0.3-0.4,0.7-0.8,1.1-1.1c0,0,0,0,0,0c0,0,0,0,0,0c-1.6-1.9-3.1-4.1-2.5-6.5
			c1.2-4.4-4-10.8,3.7-13.3c-2.1-4.8-6.9-8.6-5.4-14.8c0.1-0.3,0-0.5,0-0.8c-0.2-4-0.1-8-0.7-11.9c-1.7-10.8,0.8-14.4,11.4-15.6
			c0-0.1,0-0.1,0-0.2c0,0,0,0,0,0c0,0-0.1,0-0.1,0c-4.9-8.1-6.5-17.2-8.3-26.3c-0.4-2.2-1.9-5.7,2.7-6c0,0,0,0,0,0
			c1.5-3.7,5.5-5.5,6.7-9.7c0.9-3.2,4.3-2.6,6.9-2.3c3,0.3,2.6,2.9,2.6,5c0.1,5.4,0.1,10.8,0.2,16.1c0,0.2,0,0.4,0,0.6
			c0.1-0.2,0.2-0.5,0.4-0.7c2.4-4.2,1.9-8.9,1.7-13.3c-0.5-8.9,5.2-13.6,11.5-17.9c2.3-1.6,4.8-1,4,2c-4,14.9,5.5,24.8,12.5,35.7
			c2.5,3.9,6.3,8.1,4,13.4c-0.2,0.4-0.4,0.8-0.6,1.2c0,0,0,0,0,0c0,0,0,0,0,0c0.7,1.5,1.8,2.2,3.5,1.5l0,0c-0.2,1.2,0.5,1.7,1.6,1.6
			c1.1,3.6,2.2,7.2,3.3,10.8c0.5-0.3,1.2-0.8,1.8-1c0.4-0.1,0.7-0.1,0.8,0.4c0.7,4.4,2.5,7.5,6,10.4c1.7,1.4,1.3,2.3,0.3,3
			c-0.9,0.7-2.3,1.2-2.9,1.9c0,0,0,0,0,0v0c3.1,2.6,5.5,0.4,7.7-1.3c6.8-5.4,13.4-10.5,22.5-11.9c6.6-1.1,10.3-11,5.1-14.6
			c-8.1-5.7-5.2-13-5.8-19.8c-0.4-4.1-0.1-7.5-5.8-6.8c-1.8,0.2-4.1,0-3.8-2.8c0.2-2.1,2-2.4,3.6-2.3c4.6,0.1,8-2.1,11.6-4.7
			c7.1-5.2,7.2-13.7,10.2-20.7c5.7-13.2,5.1-13.5-6.8-20.4c4.8-4.6,10.2-3.9,16.3-3c14.5,2.1,28.6,6.9,43.5,5.3
			c6.1-0.6,12.2-1.5,18.3-2.3c2.2-0.3,5-0.9,5.5,1.7c0.7,3.4-2.8,3.4-4.9,3.8c-6,1.3-12.1,2.1-18.1,3.4c-3.5,0.8-3.5,1.1-5.2,4.9
			c1.4-0.8,2.9-1.4,4.4-2c3.2-1.2,6.6-1.7,10.1-1.7c5.4,0.1,10.4-1.6,15.3-3.9c3.5-1.6,7.1-3.7,11.2-2.5c-0.2,0.4-0.4,0.7-0.7,1.1
			c0.5-0.2,1-0.5,1.6-0.7c0,0,0,0,0,0c2.9-1.8,6.1-1.4,9.3-1.7c7.5-0.7,12.9,4.5,19.5,6c13.3,3.1,21.6,10.2,23.5,24
			c0.2,1.8,1.6,1.8,2.8,2.4c0.3,0.7-0.1,2,1.4,1.5c0,0,0.1,0,0.1,0c0,0,0,0,0,0c0,0-0.1-0.1-0.1-0.1c0,0,0,0,0,0
			c0,0,0.1,0.1,0.1,0.1l-0.1-0.1c0.6,0.4,1.1,0.8,1.7,1.2c5.5,3.6,11.5,6.6,11.5,15.1c0,3.6,2.7,8.1,7,7.1c4.6-1.1,0.9-5.7,1.5-10.1
			c6.1,4.6,12,7.7,18.4,10.1c4.6,1.8,6.3,12.9,2.8,16.6c-4.6,5-8.6,2-12.2-1.8c-0.7-0.7-1.4-1.5-2.2-2c-0.7-0.5-1.5-0.8-2.5-0.8
			c0,0,0,0,0,0c3.4,4.9,5.9,11.4,13.5,10.2c7.7-1.3,7.7-8.2,7.9-13.8c0.2-5.3-0.7-11.8-7.1-12.9c-6-1-9.4-4.8-13-8.5
			c-2.4-2.4-5.1-4.8-8.2-4.7c-7.4,0.4-11-4.5-15-9.1c-4-4.6-3-9.1,2.9-10.8c6.9-2.1,13.8-2.3,19.8,2.8c0.6,0.2,1.2,0.3,1.9,0.5
			c1.5,0.4,3.1,0.9,4.6,1.3c0.2,0.1,0.4,0.1,0.7,0.2c0,0,0,0,0,0l0,0c0.6-0.8,1.2-2.5,1.6-2.4c12.1,1.8,23.8,1.8,34.5-5.3
			c0.8-0.5,2.1-0.5,3.1-0.5c12.4,0.2,24.7,1.4,36.8,4.5l-0.2,0c-0.7,3.7-1.2,7.4,3.4,9.1c0,0,0,0,0,0c0.1-0.5,0.1-1,0.1-1.5
			c0.1-2.6-0.6-5-2.6-6.9c-0.2-0.3-0.3-0.7-0.5-1c-0.1-0.1-0.2-0.2-0.2-0.3c-0.1-0.1-0.2-0.3-0.4-0.4c-3.4-7.7-10.8-5.3-17.9-5.6
			c11.9-6.2,26.7,2.5,26.8,14.7c0,7.6,1.7,14.9,4.4,21.9c1.7,4.5,1.3,8-4.4,12.4c0-0.1-0.1-0.2-0.1-0.3c2-10.5-0.8-18.8-3.9-26.8
			c-0.5-1.2-0.9-2.4-1.4-3.6c0,0,0,0,0,0c0,0,0,0,0,0c-4.1,10.8,1.5,20.7,3.8,30.5c2.7,12,8.6,23.3,7.4,36.2c-0.2,2.2,0,4.7-2.7,5
			c-1.9,0.2-3.7-1-4-3.2c-1.1-9-7.8-14.4-12.9-20.8c-2.7-3.4-6.7-3.8-8.6-0.5c-2.1,3.5-4.8,6.3-7.1,9.5c-3,4.4-1.7,7,3.6,7.6
			c-0.6-1.5-3.2-2.9-1.7-4.3c0.3-0.3,0.9-0.7,1.7-1c1.4-0.6,3.3-1.4,3.8-2.7c4.2-10.5,7.7-3.3,11.3,0.4c0.7,1,0.5,1.4-0.8,1.3
			c-0.1-0.6,0.2-1,0.8-1.3c-1,0-1.2,0.4-0.8,1.3c-2.2-1.7-4.4-2-6,0.5c-2.1,3.4-1.8,7,0.4,10.3c1.3,1.9,2.8,4.1,5.6,3.5
			c0.6-0.1,0.8-2.2,1.2-3.4c0,0,0,0,0,0c-0.4-2.7-1-5.3,1-7.7c3.6,0.4,2.8,3.8,3.9,5.9c2.3,4.2,3.7,9,7.9,11.9
			c6.2,4.3,6.8,9.1,2,14.8c0,0,0,0,0,0c0,0,0.4,0.4,0.4,0.4c0,0,0,0,0,0c-2.5,0.6-3.7,2.8-5.1,4.6c-0.1,0-0.2,0-0.4,0.1
			c-0.5,0.2-1,0.4-1.5,0.7c-5,0.6-7-2.9-9.1-6.1c-0.8-1.2-1.6-2.5-2.6-3.5c-1.6,4.9,1.9,8.3,4.4,11.2c2.2,2.7,6.5,3.9,8.2-1.7
			l0.1,0.4c4.4,0.8,7.1-0.2,6.1-5.2c0.3-0.4,0.7-0.7,1.1-1c5.1-0.7,8.5,0.9,9.3,7.5c0.3,2.3,1.2-0.7,1.9-1.1c0,0,0,0,0,0
			c-0.2-1.3-0.4-2.7-0.7-4c-4.3-20.1-13.7-39.5-6.2-60.9c1.9-5.5,1.8-11.6,2.5-17.5c1.6-13.7-0.2-26.2-11.6-35.8
			c-3-2.6-5.2-6.1-7.7-9.2c-7.3-8.9-14-10-22.7-2.7c-9.1,7.8-19.5,10.6-31.2,10.6c-15.3,0-30.6-1.1-45.8,1.2
			c-8,1.2-15.1-1.4-22.2-5.1c-22.7-11.9-46.2-20-72.6-14.9c-18.2,3.5-36.2,2.2-53.4-5.7c-7.3-3.4-15.5-4.1-22.9-1.2
			c-19.2,7.5-39.5,11.9-57.3,23c-7.3,4.5-14.5,9.4-22.5,12.4c-22.2,8.4-30.1,27.4-34.1,47.7c-3.9,20-2,40.6,0.4,60.9l-0.1,0.6
			c0,0,0.4,0.3,0.4,0.3c0.4,10.1,0.7,20.1,1.1,30.2c-0.1,2-0.2,4.1-0.3,6.1c-1.3,8.1-5.3,15.9-3.1,24.5c2.8,11.3,2.7,22.9,2.5,34.5
			c-0.3,15.9,2.4,31.3,8.2,46.3c3.6,9.1,2.2,19,0.6,28.5c-0.6,3.3-3,5.7-6.5,6.6c-5.1,1.3-8,5.2-10.7,9.3
			c-5.8,9.1-7.2,19.2-5.7,29.5c3.4,24.1,2.3,48.9,11.2,72c3.5,9.2,3.3,20,10.6,27.5c13,13.4,19.1,30.4,26.2,47
			c5.7,13.2,7.4,28.2,16.3,39.9c20.6,27.3,45.6,49.9,75,67.4c0,0,0,0,0,0c0.6,0.3,1.3,0.7,1.9,1c11.5,8.7,22.5,17.9,37.3,21.1
			c13.1,2.8,26,6.9,39,10.2c24.2,6.1,48.3,14.3,73.6,10.3c20.8-3.2,42.5-5.5,57.3-23.6c3.7-4.6,7.6-9,11-13.8
			c11.1-15.5,25.1-28.8,33.7-46.1c12.6-25.5,25-51,29.3-79.5c0.7-4.4,2.4-7,7.5-7.6c8.5-1,12.2-7.1,13.4-14.9
			c3.3-22.3,10.2-43.8,12.2-66.4c0.6-7.2,2.4-14.3,4.5-21.3C724.4,424.9,725.3,413.3,723.5,401.9z M650.2,164.5
			c-0.8-0.1-1.6-2-1.8-3.2c-0.4-1.8,0.7-3.2,2.6-3.2c1.9,0,1.4,1.9,1.7,2.8C652.5,162.8,652.3,164.8,650.2,164.5z M333.1,113.4
			c-1.8-0.3-2.6-1.6-2.8-3.3c-0.2-2.2,1.4-2.6,3-2.5c1.9,0,2.8,1.2,2.7,3C335.9,112.4,335.1,113.7,333.1,113.4z M345.5,142.5
			c-0.3,0.1-0.5,0.3-0.8,0.4c0-0.1,0-0.1,0-0.2c0,0,0,0.1,0,0.1c-0.5-0.5-1-1-1.5-1.6c0,0,0,0,0,0c0,0,0,0,0,0
			c-0.1-0.4-0.1-0.7-0.2-1.1c-0.6-5.2,3.2-7.5,7.5-9.7C348.1,134.2,350.4,139.9,345.5,142.5z M342.8,127.8c-0.6-0.3-1.3-2.1-0.9-2.5
			c2.2-3.2,5.1-0.9,9.2-1.5C348.1,127.7,345.9,129.2,342.8,127.8z M382.2,141c0-1.9,1.7-1.3,2.1-0.9c1.1,1,3,1.6,2.5,3.3
			c-1,5-3.1,8.4-8.1,9.4c-5.8,1.2-11.5,2.6-15.3,7.9c-0.7,1-1.6,2.3-3.1,0.6c-1.1-1.4-0.6-2.4,0.4-3.5c4.7-5.1,8.6-11,16-12.9
			C378.7,144.3,382.3,145.1,382.2,141z M373.8,133.7c2.8-1,5-1,5.9,2.5c0.3,1,1,2.1,0,2.8c-2.4,1.9-4.4-0.8-6.3-1.3
			C370.3,136.9,373.6,135.1,373.8,133.7z M378.5,119.3c2.6,0.1,1.8,2.9,1.9,4.5c0.2,2,0.7,5.1-1.5,5.7c-3.6,1.1-3-3.7-5.2-4.9
			c0,3,0,6,0,9c-2.5-0.4-5.3,1.4-4.5,3c5.2,10.4-6.1,10-9.1,15.1c-0.7-4.5,2.7-10.2-4.4-12.1c-0.2-0.1-0.3-0.9-0.3-1.4
			c0.4-4.1,13-14.5,17.8-14.7c0.2,0.3,0.3,0.6,0.5,1l0.1-0.6c0,0-0.6-0.3-0.6-0.3C372.9,119.8,376,119.2,378.5,119.3z M353.2,72.8
			c0.9,0.8,0.1,1.9-0.9,2.6c-3.8,2.8-5.5-0.5-8.7-3C347.7,72.1,350.6,70.6,353.2,72.8z M329.8,83.1c0.9-5.9,5.7-4.4,9.6-4.1
			c0,0,0,0,0,0c0.6-0.1,1.2-0.2,1.7-0.3c1.4-2.2,3.4-1.9,4.6-0.2c2.6,3.6,5.3,2.4,7.3,0.1c9.7-11.4,23.4-9.4,36-11.2
			c3.8-0.5,7.3,0.4,9.6,4c-0.4,0.4-0.8,0.8-1.2,1.1c0,0,0,0,0,0c0,0,0,0,0,0c-2.8-0.6-3.8,0.7-2.1,2.9c3.8,4.9,1.9,8.3-2.1,11.7
			c-1.1,1-2.4,2.7-2.3,4.1c0.4,12.4-8,14.3-17.5,15c-2.4,0.2-5.2,0-6,2.9c-1,3.3,0.4,5.8,3.4,7.4c-7.4,8.8-16.7,6-25.6,3.8
			c-4.2-1-4.6-5.5-5.5-9.2c-0.9-3.7-1.6-7.6-6.7-7.7c-3.4,0-4-2.7-4-5C328.9,93.2,329,88.1,329.8,83.1z M380.2,326
			c0.2-2.9,1.1-5.9,0.9-8.8c-0.4-6.8,2.8-9.7,9.3-10.3c4.5-0.4,8.8-1.5,12.7-4.3c4.2-3,9.4-2.9,13.7-0.5c3.2,1.8,1.7,5.8,1.4,8.9
			c-0.6,5.4-4.4,7.2-9.1,7.7c0,0,0-0.1,0-0.1c0,0-0.1,0.1-0.1,0.1c0,0,0,0,0,0c0,0-0.1,0.1-0.1,0.1c-0.5,0.5-1.1,1.1-1.6,1.6
			c-3,3.4-8.5,1.2-11.5,5.5c-1.1,1.6-3.1-1.2-3.9-2.8c-1.3-2.7-0.7-5.2,1.7-7.1c2-1.5,5.4-1.4,5.6-5c-11.7,3-12.2,3.5-10.7,14.2
			c0.3,2,0.4,3-1.6,3.6c-2,0.6-4.2,1.6-6.1,1.3C379.1,329.8,380.1,327.5,380.2,326z M283.3,377.2c2.5-0.9,9.4-6.6,8.3,3.5
			c-0.1,1.1,1.1,1.6,2.3,1.4c8.5-1.1,15.1,4.2,15.3,12.2c-3.7,1-6.2-2.3-9.5-2.9c-12.9-2.4-26.2,5.8-29.5,18.5
			c-0.8,2.9-1.5,5.9-2.6,9.9C261.1,401,268.2,382.3,283.3,377.2z M337.5,602.1c0.3,0.2,0.7,0.3,1.1,0.2c2.1,0.9,4.1,1.9,6.2,2.8
			c-1,2.8,3.1,2.8,2.8,5.1c2.2,5.8,9.6,5.9,12.6,11.1C354.3,623,342.3,612.7,337.5,602.1z M341.9,592.2c3.6-3,5.4-0.8,8,1.9
			C345.6,595.5,344.1,593.4,341.9,592.2z M679.3,525.4c0.1,3.8-3.9,5.5-4.1,9.3c-1.3-6.1-2.6-12.3-4-18.6c-3.1-0.7-4,5.8-8.4,2.3
			c4.2,7.9,10.2,14.5,6.2,23.7c0,0,0,0,0,0c-1.1,0.2-3-0.9-3.1,1.2c-0.2,2.6,2.1,3.3,3.9,4.2c1.6,6.7-3.3,12.2-3.3,18.5
			c-1.1,0.3-2.2,1.9-3.3,0c-1-7-0.6-14.2-3.5-20.8c-1.8,7.2-1.8,14.2,1.4,21c0,0,0,0,0,0c0,0,0,0,0,0c-1.9,5.2,4.8,11-1.1,15.9
			c-3.4-5-3.5,0.1-3.4,1.4c0.3,7.3-4.3,13-5.6,19.8c-1.7-6.4,1.5-12.6-0.2-18.8c0-1.2,0-2.4,0-3.6c-0.3-6.1,2.3-12.9-4.1-17.6
			c1.5,5.8-0.3,12.2,2.8,17.7c0,0,0,0,0,0c0,0,0,0,0,0c-1,0.7-2.3,2.2-2.8,1.9c-3-1.6-2,0.9-2.1,2c-0.2,2.7,1.5,2,3,1.6
			c0,6-0.6,11.9-1.9,17.8c-3.7-0.9-1.7-3.4-2.1-5.2c0,0,0,0,0,0c0.8-3,2.6-6.2-2-7.5c-0.1-0.1-0.2-0.2-0.3-0.2c0,0,0,0,0,0
			c0,0,0,0,0,0c0,0-0.1-0.1-0.1-0.1c0.8-5.7,0-11.5,0.8-17.4c0.6-4.3-3.2-0.8-5-1.2c-3.1-0.6-4.6,2.6-3.5,3.3c5.2,3,2,7,1.7,10.4
			c-0.5,5.1,2,5.7,5.9,5c0.1,0.1,0.2,0.2,0.3,0.3c0.1,2.4,0.2,4.9,0.3,7.3c-1.8,3,2.6,10.4-6.4,8.5c-2.3-0.5-1.5,2.9-1.7,4.6
			c-0.7,4.8,1,9.8-1,15c-3.1-2.5-0.8-6.1-3.9-8.9c-0.2,4-5.4,6.2-1.8,10.7c0.2,0.3,0.1,1.4,0,1.4c-11.1,2.1-3.6,12.6-8.1,17.6
			c-1,1.1-0.9,3.4-2.9,3.4c-2.2,0-2.3-1.8-2.3-3.4c0.1-2.6-1.4-4.7-3.6-4.4c-3.2,0.5,0.3,3.6-1.2,5.1c-3,0.1-2.7-3.4-4.6-4.8
			c0-0.1-0.1-0.2-0.2-0.3c0,0.1,0,0.2,0,0.2c-0.4-0.2-0.8-0.4-1.3-0.5c0.5,3.7,3.5,7.3,0.5,11c-1.9,3.3-1.3,6.1,0.6,9.3
			c1.5,2.6,0.9,6,0.1,9.1c0,0-0.5-0.2-0.5-0.2l-0.4,0.4c-3.6-1.3-2.7-4.9-3.8-7.5c0.6-3.8-0.9-7.2-2.4-10.6c-0.7-2.4-1-5-3.7-7
			c0.2,4.1-8.1,3.2-4.6,9c0,0,0,0,0,0c0,0,0,0,0,0c0.8,5.6,2.1,11,6.4,15.1c-1.2,1.7,0,4.7-3.7,5.3c-3.1,0.5-3.6,3.9-3.2,6.9
			c0,0,0,0,0,0c-0.4,0-0.8,0.1-1.1,0.1c-2.2-0.8-4.3-1.9-6.6-2.4c-5.5-1.2-6.3-4.4-9.7-9.5c-3.6-5.3-3.7-11.6-7.2-16.6
			c-0.2-0.2-0.5-0.4-0.7-0.6c-1.6-2-0.8-6.6-4.8-5.4c-2.9,0.9-4.8,4.1-3.4,7.8c-2.3,1.3-4.6,2.7-7.4,2.6c-2.9-0.1-4.9,2.1-5.1,4.2
			c-0.3,2.8,4-0.9,4.5,2.6c-2.3,3.2-7.3,2.3-9.9,6c3.1,2.7,10.8,1.3,9.7,6.2c-0.9,3.8,4,8.6-1.6,11.3c1.4,0.9,1.3,2.2,0.9,3.5
			c-2.3,0.6-5-4-7,0.5c-1.8-4.5-5.8-2.5-8.9-3.1c0.6-3.3-2.5-4.7-3.8-7.1c3.2-2.7,5.5-4.9-1.1-6.3c-7.9-1.6-15.6-2.7-22.2,3.5
			c-3,2.8-3.9,2.2-4.7-1.8c-0.7-3.5-3.8-4.6-5.8-1.1c-2.1,3.7-9.4,8.1,0,12.2c1.6,0.7,0.8,3.9-0.5,3.6c-4.1-1.1-9,2.9-12.4-2.2
			c-3-4.7-8.6-3.2-12.9-5c-8.1-3.3-16.5-6-25.3-7c0-0.7,0-1.4,0-2.2c4.6-2.1,9.3,3,14.9,0.1c-9.4-3.3-17.9-5.8-26.7-7.3l0,0
			c-3-3.9-5.8-0.8-8.6,0.3c0,0,0,0,0,0c0.5-7.3,0.5-7.3,8.9-4.1c3.3-2.3-2.3-3.7-0.4-6.2c4.9,1.3,9.9,2.7,15.1,4.1
			c-0.4-4.7,0.7-8.8-7-6.3c-5.9,2-14.3,2.6-17.8-6.4c3.2-0.4,5.1-4.7,8.9-4.6c-11.9-3.9-22.7-9.1-34.9-12.4
			c5.1-3.7,9.9,1.5,15.8-1.6c-7.4-1.8-13.3-3.9-19.9-7.6c2.6-0.2,4.2-0.3,5.8-0.5c1.5-0.2,2.7-0.9,2.6-2.4c-0.1-1.5-1.5-2-2.8-2.3
			c-4.7-1-9.4-2.1-14.1-3c-2.4-0.5-4.7-0.8-6.3-3c4.1-2.6,8.3,0.6,14.8-0.5c-11-6.5-23.7-3.2-32.1-12.3c5.4-1.5,9.5,3.4,14.8,2.5
			c-10.9-6.6-21.2-12.9-31.4-19.1c2.9-2.1,6.7,1,10.4-0.8c-3.1-5.3-8.7-7.2-13.5-8.9c-5.3-1.8,0.4,2-0.9,3.5
			c-2.7,3.5-6.3,7.2-4.2,12.5c0,0-0.5,0.1-0.5,0.1c0,0,0,0,0,0c-3.9,0-5.3-2.9-6.9-5.7c-6.9-12.3-11.1-25.5-14.8-39
			c-0.8-3-0.4-5.8,2.1-7.1c3.1-1.7,2.7,2.3,4.1,3.5c3.9,3.3,3.6,3.4,4.3,7.9c0.9,5.6,1,11.4,5.5,16.2c-1.1-11.2-2.2-22.4-3.3-33.6
			c-0.3-2.8-1.5-5.1,0-8.4c1.4-3-1.7-5.7-5.1-6.8c-3.2-1-6.4-0.7-9.6-0.2c-12,1.8-20.8-3.3-25.5-13.8
			c-10.3-22.6-15.4-46.4-14.1-71.4c0.1-1.3,0.4-2.7,0.7-4c0.2-0.7,0.7-1.4,1.4-2.8c3.7,7.5,3,15.4,5.5,22.4c2.6,7.4,0.1,15,2.5,22.3
			c0,0,0,0,0,0c0.7,3.3,1.1,6.8,4.2,8.9c-0.1,1.4-0.1,2.8,1.6,3.5c0,3.3,2.2,4.2,4.8,5.3c1.5-4.2-1.7-4.9-3.7-6.4h0
			c-0.6-0.8-1.2-1.7-1.8-2.5c0,0-0.1,0.1-0.3,0.2c0-0.1-0.1-0.1-0.1-0.2c0.1,0,0.2,0,0.3,0c-1-3-2-6.1-3.1-9.1
			c-2.4-21.5,7.5-40.6,9.9-62.2c4.5,2.1,3.1,5.3,4.2,5.5c4,0.7-0.6,8,5.4,6.8c5.2-1.1,8.7-3.7,9-9.6c0.3-6.3,0.8-12.7,8.3-17.3
			c4.7,22.1,19.2,40,23.8,63.6c2.8-6.4,2.1-10.9-0.1-15.3c3.3-2.7,1.6-5.5,0.1-8.3c0.2-1.3,0.3-2.6,0.5-3.9c3.6-0.5,1.7-2.6,1.3-4.3
			c7-18.2,6.8-37.5,8.2-56.5c0.2-2.6-0.2-5.4,1.4-7.8c5.7,2.7,8.9-1.2,12.1-4.8c14.6-15.2,31.7-26.6,51.8-33.2c0.3,0.3,0.7,0.7,1,1
			c0.1,0.3,0.2,0.5,0.2,0.7c-3.5,7.6-12.3,11.1-15.4,19.3c-0.8,2.1-2.2,3.4-0.1,5.4c2.8,2.7,3.4-0.8,5.1-1.4
			c8.3-3.4,14.9-11.3,25.9-7.9c3.4,1.1,9.5,2.1,12.2,0c4.1-3.1,8.2-1.6,12.1-2.4c2.4-0.5,5.3,0.1,3.2,3.9c-1.1,2,0.5,6.8-4.8,4.5
			c-2.6-1.1-5.4-1.6-8.1-2.4c-0.1,0-0.2,0.1-0.3,0.1c-0.1,0-0.1,0.1-0.2,0.1c0,0-0.1,0-0.1,0.1c-0.8,0.1-1.6,0.1-2.5,0.2v0
			c0,0,0,0,0,0c-0.3,0.2-0.7,0.4-1,0.5c0.1,0.2,0.3,0.3,0.4,0.5c-1.5-0.3-3.1-0.5-4.6-0.8c-1.8-0.4-4.1-3.9-5.1-1.4
			c-1,2.3-5.1,4.9-1.9,8.1c2.1,2.1,2,5.1,0.7,6.4c-1.4,1.4-3.4-1.5-5.4-1.9c-1.9-2.2-4-3.8-7-4c-1.3,3.2,2.5,3.9,2.7,6.1
			c-0.1,0.3-0.3,0.7-0.4,1c-6.2-1-9.8,3.2-11.1,7.8c-1.1,4.1-2.9,7.2-5.3,10.1c-4.6,5.3-4,10.7-1,16.4c-1.1,1.3-0.6,2.8-0.6,4.3
			c-0.1,0-0.1,0.1-0.2,0.1c-0.8,0.3-1.6,0.5-2.3,0.8c0.2,0.2,0.3,0.4,0.5,0.5c1,0.2,1.9,0.2,2.1-1.1c2,0.1,3.2-1.3,4.6-2.4
			c0,0,0,0,0,0c3.8-3.4,6.2-9.1,13-8c1.3,0.2,3.1-2,2.5-3.5c-3.2-9.5,4.3-13,9.9-16.8c8.6-5.8,18.7-7.3,28.9-8.4
			c12.3-1.3,21.9,1.7,27.2,13.3c-0.6,3.3-7.3-1.3-5.6,4.7c0,0-0.1,0-0.1,0l0,0c0,0,0,0,0,0c0,0,0.1,0.1,0.1,0.1
			c-12.5-10.6-26.7-13.1-42.1-8.3c-8,2.5-13.3,8.2-15,16.5c6.8,2.7,9.2-5.2,14.8-5c0.3,5.2,0.6,10.3,0.9,15.6
			c-0.1,0.2-0.2,0.4-0.4,0.6c-1.2-0.3-2.2-0.5-3.1-0.8c-1.2-0.4-2.3-1.5-3.5-0.1c-0.1,2.4,1.8,3.2,3.4,4c19.7,9.8,39.4,4.9,58.9-0.4
			c4.9-1.3,4.6-5.5,0.2-8.3c-3.6-2.3-8-3.8-9.3-8.5c0.6-0.2,1.2-0.3,1.7-0.4c1.7,0.9,2.5,3.8,5.1,3.3c6.9-1.5,11.9,1.8,16.5,6.8
			c2.1,2.2,4.8,6.6,8.5,3.5c5.2-4.4,2,3.4,4.5,2.5c1.3-5,2.8-10,3.7-15.1c1.3-7.1-4.5-19.3-9.9-22.6c-0.2-0.3-0.4-0.6-0.6-0.9
			c-0.2-0.6-0.3-1.1-0.4-1.7c0.2-0.4,0.3-0.9,0.5-1.3c0,0,0,0,0,0c3.2-2.7,2.3-7,3.8-10.4c1.5-3.4,3-6.8,1-10.8
			c-2.6,2.5-0.7,7-4.7,8.2c-0.2-4.3-0.1-8.5-0.6-12.7c-0.4-3.3-0.6-7.3-4.1-9.2c-10.5-5.9-21.4-11-33.9-8.2
			c-20.4,4.6-41.1,6.8-61.8,8.8c4.5-5.4,11.2-7.3,17.3-9.2c20-6.3,39.5-14.9,60.6-17.1c2.9-0.3,5.8-0.8,8.7,0.1
			c2.3,2,4.6,4.1,6.9,6.1c1.7,1.4,3.4,2.3,4.4-0.7c1.9,6.6,12.2,4.3,13,12.2c0,0,1.4,0.1,2-0.1c1.4-0.6,2-2.2,1.4-3.4
			c-1.9-3.9-4.1-7.5-6.2-11.3c0,0,0,0,0,0c5.2-1.2,11,4.5,15.9-1.1c0.8,0,1.5-0.1,2.3-0.1c3.5,3,3.9-1.7,6.5-2.9
			c-1.4,3.9,1.3,5.3,3.4,7.2c0,0,0,0,0,0c-4.9-0.6-5,2.9-5.1,6.2c0,0,0,0,0,0c0,0,0,0,0,0c-1.8,4.7-1.8,9.5-2.4,15.4
			c4.2-3.7,6.3-7.4,7.6-11.7c1.6-2.6,2.7-5.3,2.1-8.4c3.6-1,3.2-5.3,6.3-7.4c0.3,3.2-2.1,5.8-1,8.7c-2.7,0.3-4.2,1.4-3.3,4.4
			c-2.4,2.2-2.9,5.2-3.9,9c4.8-1.8,5.9-5.3,7.1-8.6c0,0,0,0,0,0c0,0,0,0,0,0c0.9-0.3,1.2-1.8,2.5-1.6c0.1,0,0.1,0.1,0.1,0.1
			c0.2,0,0.3,0.1,0.5,0.1c2.9,1.3,4.5-1,6.5-2.5c3.1-2.2,5.7-5.3,9.7-6.1c0,0,0,0,0,0c2-0.6,3.1,2.6,5.3,1.3
			c21.2-2.9,40.7,2.3,58.8,13.3c6.8,4.2,13.1,9.2,19,14.8c2.2,2.1,3.6,4.4,1.2,6.7c-2.5,2.5-3.6-0.9-4.8-2.1
			c-10.5-10.2-22.9-12.6-36.8-10c0,0,0,0,0,0c0,0,0,0,0,0c0-1.5-0.6-3.6,2-3.2c3.6,0.6,6.1-1.8,9.4-2.9c-4.4-0.6-7.6-4.9-12.4-2.9
			c-6.1-3.6-11.3,0.5-16.6,2.3c-3.3,1.1-6.3,2.1-9.8,2.2c-11,0.1-18.7,7.7-19,18.4c-0.1,1.9,1.6,2.7,2.6,3.7
			c1.4,1.4,1.1,3.6,0.2,4.3c-12.4,10.2-12.4,26.8-20.1,39.4c-2.6,4.3,0.6,10.4,2.2,15.5c2.6,8.2,2.5,17.2,6.9,24.9
			c8.2,0.4,11.9,7.5,17.6,11.7c8.6,6.4,17.2,12.8,25.9,19.1c4.5,3.3,9.5,1.4,15.6,1.7c-13.9-8.1-29.5-11.4-38.6-24.2
			c-3.6-5-6.4-10.4-12.6-12.7c-1.4-0.5-1.9-2.9-1.1-2.7c3.4,0.8,0.5-5.4,5.2-3.8c6.5,2.2,13.5,2.9,19.5,6.8c1.4,0.9,3,2.8,4.9,1
			c0.6-0.6,0.5-2,0.6-3c0.3-3.1-2.2-2.6-3.8-2.6c-6.7,0-11.2-5-18.9-7c5.7-2.9,9.6-1.6,13.5-0.5c8.8,2.4,17.6,5.2,26.9,3
			c4.3-1,8.8-2.1,12.4-6.7c-5.5-1.5-9.9,2.4-14.9,0.4c4.7-9.6,2.9-18.6-3.5-26.8c8.6-1.3,13.6,3.7,17.5,10.4
			c2.6,4.5,4.7,9.3,9.1,12.5c-1.1-10.1-3.2-19.4-12.2-25.6c-8.8-6-18.4-5.4-28.2-3.1c12.2-7.5,21.3-11.5,32.4-1.5
			c6.2,5.6,12.6,10.5,15.6,18.7c0.7,2.1,2.7,4.2,4.7,1.5c2-2.9,3.3-6.7,2.6-10.1c-0.8-4.2-3.9-6.3-8.9-4.7c3-2.7,6.3-4.3,5.8-9.4
			c-0.4-3.5,3.7-5.1,7.4-4.9c0,0,0,0,0,0c0,0,0.3,0,0.3,0c-0.7,3.1,0.6,4.3,3.1,2.4c2.3-1.8,4.9-4,3.5-7.7c0,0,0,0,0,0
			c0-1.3,0-2.6,0.1-3.9c0.4-0.2,0.7-0.5,1-0.9c1.3,0.1,2.5,0.2,3.8,0.2c3.1,4.4,2.7,9.8,3.1,14.7c1.4,19,2.3,38,3.5,57
			c0.4,6-0.3,11.7-1.7,17.5c-2.9,1.6-4,4.6-5.6,7.2c-0.1,0-0.2,0-0.2,0c0,0,0,0.3,0.1,0.3c0,0.1-0.1,0.1-0.1,0.2
			c4,0.1,3.5-6,7.7-5.6C683.3,471.1,678.9,498.1,679.3,525.4z M464.5,337.6c0.6-1.8,2.5-1.1,4-1c1.6,0.2,2.2,1.1,1.7,2.7
			c-1,1.2-2,2.7-3.8,1.3C465.5,339.9,464.3,338.3,464.5,337.6z M516.1,356.4c-0.1,0-0.2,0-0.2,0.1c-1.8,0.5-1.3,2.1-1.5,3.3
			c0,0.4-0.1,0.7-0.2,1c-0.1,0-0.1,0-0.2,0c0,0-0.1,0-0.1,0c0,0,0,0,0,0c-0.2,0.3-0.3,0.5-0.4,0.8c-0.2,0.5-0.1,1,0.3,1.5
			c0.2,0.2,0.5,0.4,0.8,0.5c0,0,0,0,0,0c-0.7,2.8-3.2,2.9-5.4,3.5c0.1-0.1,0.1-0.1,0.2-0.2c0.2-0.2,0.3-0.4,0.3-0.6
			c0.7-2.1-3.2-2.8-2.3-5c1.9-1.8,4.4,1,6.4-0.5c-4.5-5-7.1-13.3-16.6-9.1c0,0,0,0,0,0c0,0-0.1,0-0.1,0.1c-0.2,0.1-0.4,0.3-0.6,0.4
			c-0.3,0.2-0.5,0.3-0.8,0.5c-3.5-1.2-2.9-6.4-7.3-7.3c-1-0.2-7.2-1.9-4.9-5.3c1.7-2.5,6.4-2.4,10-1c7.8,2.9,14.9,7.9,23.9,7.7
			C516.2,350.2,512.5,352.9,516.1,356.4z M509.2,371.2c0.6,1.9,3.1,3.6,0.6,5.5c-0.8,0.6-2.9,0.6-3.7,0c-2.3-2-3.4-4.8-2.5-7.9
			c0.8-2.5,2.4-2.4,4.2-0.8c0,0,0.2,0,0.4-0.2c-0.1,0.2-0.2,0.3-0.3,0.5c0,0.1-0.1,0.3,0,0.4C508.1,369.6,509,370.4,509.2,371.2z
			 M472.3,375.1c14.2,1.2,14.8,17.2,27,20.3c-9.4,0.2-17.3,4.8-27.7,4.6C476.4,391.9,477.7,383.9,472.3,375.1z M467.2,395.9
			c-2,2.1-4.7,2.4-7.8,2.5c-3.4-0.1-7-1.2-9.2-4.6c-1.6-2.5-3.1-5.9-0.3-8c3.1-2.3,4.4,1.3,5.9,3.3c2.1,3,4.4,4.8,7.7,1.5
			c1.7-1.7,3.8-4.2,5.9-1.6C471.3,391.4,469,394,467.2,395.9z M637.2,341.8c8-2.1,11.3,1.2,10.5,9.2c-3.3-1.1-5.1,1.9-7.2,3.3
			c-4,2.6-5.4,0.4-6.9-2.5C642.5,348.4,642.5,348.2,637.2,341.8z M604.3,392.2c0.6,3.5,1.1,7.2,5.6,7.7c4.5,0.5,4.8-3.3,6.1-6.1
			c0.6-1.2,1.5-2.4,3-2.3c2.1,0.2,2.1,2.1,2.3,3.6c0.7,5.5-3.7,9.7-10.1,9.8c-7.5,0.1-12.9-5.1-12.1-11.8c0.2-1.5-0.1-3.6,2-3.8
			C603,389.1,604,390.5,604.3,392.2z M583.5,406.1c3,0.3,1.6,3.7,0.9,7.5c-3.6-5.3-6.5-8.7-11.7-4.7c-3.3,2.5-3.8-2.1-3.8-2.6
			c0.5-5.5-0.9-11.7,4.4-15.9c1.3-1,2.3-4,4.1-1.1c1.1,1.7,4.7,3.1,2.1,5.9C573.4,401.8,573.9,405.2,583.5,406.1z M578.8,401
			c6.6-1.9,10.2-6.6,15-11.3c1.5,5.7,2.6,10,3.7,14.3c-3.7,1.6-6.2-1.6-9.1-1.8C585.6,401.9,582.7,403.3,578.8,401z M719.6,419.1
			c-4.4,17.3-6,34.9-8.7,52.3c-1.5,9.9-3.9,19.5-7,29c-1.2,3.7-1.8,7.3-1.6,11.1c0.5,10.7-5.2,18.2-12.6,24.7
			c-2.7,2.4-5,0.8-4.6-2.2c1.6-13.9-2.9-28.2,2.3-41.9c1-2.5,1.7-5.5,4-6.8c11.1-6.6,9.4-16.9,8.2-27c-0.6-5.2-1.7-10.4-5.5-14.9
			c-0.4,9.6,3.6,19.1-0.1,29.7c-1.9-5.1,0.1-10-3.5-14.4c-1.6,6.2,0.9,12.5-4,17.4c1-14.4-1.5-30.3,3.9-42.9
			c5.4-12.8,3.5-25.3,6.5-37.6c1.5-6.2,0.8-15,9.9-15.2c8.4-0.2,10.3,7.7,12,14.1C720.9,402.4,721.6,411.2,719.6,419.1z
			 M652.9,186.3c0.3,0.2,0.5,0.5,0.7,0.7c1.4,1.4,2.7,3,4.3,3.9c1.7,1,4.6,1.5,4.6-1.7c-0.1-4.3,2.2-9.5-3.2-12.5
			c-0.5-2.5-2.4-3.6-4.5-3c-2.9,0.8-3.2,3.2-3.4,5.6c-0.1,0.8-0.1,1.5-0.3,2.2c0,0,0,0,0,0C650.9,183.4,651.8,184.9,652.9,186.3
			C652.9,186.3,652.9,186.3,652.9,186.3z M656.3,177.1c0.9-0.2,1.9-0.1,2.7-0.2c0.1,0,0.1,0,0.2,0c0,0,0,0,0,0.1
			c0,3.5,3.3,6.9,0.2,11c-0.3-0.2-0.6-0.5-0.9-0.7c-2.4-1.9-4.1-4.2-4-7.6C654.5,177.9,655.3,177.3,656.3,177.1z M666,110.7
			c0.4,1.9,0.9,3.8,1.3,5.7C666.9,114.5,666.5,112.5,666,110.7z M649.4,79.1c1.9,0.5,3.8,1.2,5.5,2.1
			C653.6,79.6,651.4,79.3,649.4,79.1z M645.4,549.7c4.2,3.9-2.8,10.4,5.8,12.1C649.9,557.7,654.2,552.1,645.4,549.7z M647.6,420.8
			c-8.3,2.4-16.8,2.7-25.1,4c9.6,0.6,19.4,4.3,28.2-3.5c1.8-1.2,3.5-2.5,5.3-3.7C652.4,416.9,650,418.8,647.6,420.8z M649.4,79.1
			c-0.9-0.2-1.7-0.4-2.6-0.5C647.5,78.8,648.4,78.9,649.4,79.1z M656.2,417.6c0-0.1,0-0.2-0.1-0.2c0,0-0.1,0.1-0.1,0.1c0,0,0,0,0,0
			c0,0-0.1,0.1-0.1,0.1C656,417.6,656.1,417.6,656.2,417.6l-0.1-0.1C656.2,417.5,656.2,417.6,656.2,417.6z M514,360.7l-0.1,0.2
			C513.9,360.8,513.9,360.8,514,360.7C514,360.7,514,360.7,514,360.7z M696.4,486.8c-2.4,1.8-2,4.1-0.6,6.4c0.8,1.4,1.6,3,3.4,2.9
			c2.6-0.2,3.7-2.4,4.1-4.3c1.5-6,4.4-11.9,2.2-18.6C703.6,478.7,700.9,483.3,696.4,486.8z M513.8,360.8
			C513.8,360.8,513.9,360.9,513.8,360.8c0.1,0,0.1-0.1,0.2-0.1C513.9,360.8,513.9,360.8,513.8,360.8z M310.5,242.5
			c-0.3-0.2-0.6-0.3-0.9-0.3c-2.8-0.7-4.1,3.1-6.8,2.7C305.5,248,306.9,247.5,310.5,242.5C310.5,242.5,310.5,242.5,310.5,242.5
			C310.5,242.5,310.5,242.5,310.5,242.5L310.5,242.5z M439.7,216.5c2.8-4.2-1.4-6.1-3.3-8.7c-2.7-3.6-6.5-3.9-10.7-3.7
			c-4.1,0.2-8.1-1.8-10.3-5.1c-2.8-4.3,2.9-5.5,4.2-8.3c0.2-0.4,0-1-0.1-1.7c-2.8-1.4-4.4,0.7-6.1,2.2
			c-13.6,12.2-28.5,22.7-42.2,34.9c-12.8,11.3-24.1,23-30.6,39c-1.4,3.4-2.8,8.6-8.6,8.3c0,0,0,0,0,0c0,0,0,0,0,0
			c0,3.8,0.9,7.9-3.6,11.8c0-2.7,0.1-4.7,0-6.6c-0.1-2,0.8-4.7-2.5-4.8c-2.4,0-3.5,2-4.3,4.1c-1.2,3.3-1.2,6.8-1.1,10.2v0
			c2.3-2.2,0.4-6.5,4.4-8.2c0,5.3,2.1,10.2-0.2,15.4c-2,4.5-3.4,1.8-4.9,0.2c-0.1-0.1-0.2-0.2-0.3-0.3c-0.1,0.2-0.1,0.3-0.2,0.5
			c-1.3,3.9-1.1,8-1.6,12c-0.2,1.5-0.5,4.9-3.6,4.1c-2.1-0.5-3.6-2.4-3.2-4.9c0.2-1.3,0-2.9,0.7-3.9c4.5-6.9,3.9-14.8,4.7-22.5l0,0
			c-2.5-1.9-2.3,0.4-2.6,1.8c-1.6,6.9-2.4,14.2-5.2,20.6c-2.4,5.4-0.1,8.7,3.2,10.5c4,2.2,6,5.6,8.9,8.5c0.9-4-1.2-8.6,1.9-12.2
			c3.1,0.8,3,3.6,4.2,5.6c2.5,4.2,2.8,0.4,3.7-1.1c-2.1-4.3-6.7-7.6-5.1-13.4c0.6-2.2,2.3-3.4,3.8-4.8c0.9,1.2,1.8,2.3,2.6,3.5
			c2.4-4.3,7.8-8,1.9-13.4c3.3-1.6,6.2-1.3,9.1-0.9c0,0,0,0,0,0c0.7-3.8-7.5-2.1-4.6-6.2c4-5.7,6-12.1,9.4-18
			c7.5-12.9,19-22.2,28.8-33.8c-0.5,7.2,3.1,12.3,8,14.4c7.6,3.1,14.8,6.8,21.8,10.9c-0.1-10.9-9-10.7-16.2-13.3
			c-9.6-3.5-10.5-10-3.2-17.2c2.4-2.3,5.1-3.9,8-5.2c3.8-1.8,6.4-4.5,7.5-8.8c1.7-6.4,7.5-8,12.2-3.4c2.1,2.1,4,3.2,6.9,3.1
			c5.2-0.2,11.1-0.4,13.4,5c2.4,5.6-2.2,10-5.5,14.2c0,0,0,0,0,0c0,0,0,0,0,0C438.6,229.5,437,220.6,439.7,216.5z M331.3,270.7
			c-0.1-0.4-0.1-0.8-0.2-1.2c-0.4,0.2-0.7,0.5-1.1,0.7c0,0,0,0,0,0c0.3,0.3,0.7,0.5,1.2,0.6c0.1,0.5,0.3,0.9,0.6,1.3
			c0.6-0.3,1.8-0.8,1.8-0.9C333.1,270,332.2,270.5,331.3,270.7z M317.2,204.6c-2.3,0-4.2,0.4-5.9-0.1c-5.3-1.5-8.6-5.4-9.6-10.6
			c-0.5-2.5-2.6-6.5,2.5-7.3c-0.8,3.5-0.2,6.7,2.1,9.4c2.1,2.6,5.8,3.8,7,0.3c2.2-6.4,6.9-5.8,11.7-5.6c0.5-3.4-2.7-4.7-3.1-7.2
			c0,0,0,0,0,0c0,0,0,0,0,0c0,0,0,0,0,0c-2.4-0.4-5.7-3.5-7-0.8c-2.5,5.3-6.7,2.8-10.2,3.6c0,0,0,0-0.1,0c0,0-0.1,0-0.1-0.1
			c0-0.5,0-1,0-1.5c0,0,0,0,0,0c-10.5,0.9-10.4,0.9-6.1,10.1c1.9,4.2,4.1,8,7.7,10.7c2.9,2.2,3.6,4.9,3.3,8.3c0,0,0,0,0,0
			C312.4,211.4,316,209.2,317.2,204.6z M294.6,142.6c5.9,7.2,24.3,9.4,31.4,3.8c0.6-0.5,0.4-2,0.5-3c0,0,0,0,0,0
			c-1.4,0.5-2.7,1-4.1,1.4c-7.1,2.1-14.1,2.5-21.1,0.5C299.1,144.7,296.8,143.8,294.6,142.6z M408.9,318.9c0,0,0.1,0,0.1,0
			c0,0,0.1-0.1,0.1-0.1C409.2,318.7,409,318.9,408.9,318.9z M333.4,214.4c-2.3-7.4-1.9-14.7-2.4-22.1c-0.8-11.4-7.1-17.4-15.7-15.7
			c0,0,0,0,0,0c0,0,0,0,0,0c2.5,2,4.9,4,7.4,6c0,0,0,0,0,0c-0.1,0.1-0.1,0.1-0.2,0.2c0.1,0,0.2-0.1,0.3-0.1c3.2,1.8,3.5,4.8,3.8,8.1
			c0.6,6.1,0.8,12.4,2.6,18.2c1.6,5.1,1.2,8.6-2.4,12.3c-3.7,3.8-7.7,5.7-12.8,3.1c2.9,5.7,7.9,4.2,11.6,2.1
			C330,223.9,335,219.4,333.4,214.4z M622.7,576.1c0.6,6.4,1.1,12.8,1.7,19.2c-0.2,1.2,0.6,1.3,1.4,1.2c0.2,0,0.4-0.8,0.6-1.2
			c0,0,0,0,0,0c0,0,0,0,0,0c0,0,0,0,0,0c0,0,0,0,0,0C627,588.7,627.4,582.1,622.7,576.1z M322.2,326.4c3.6,6.3,6.6,1.6,9.2-0.8
			c9.2-8.1,7.9-19.8,9.7-30.4c0,0,0,0,0,0c-6.2,2.7-4.2,8.3-4.5,13C336.2,317,329.1,326.2,322.2,326.4z M301.3,138.6
			c6.1,2.8,13.4,3.7,18.6,2.8c7.8-1.3,9.6-4.8,6.6-12.9C319.4,133.5,312.8,139.7,301.3,138.6z M430.6,216.5
			c-0.7-4.4-4.9-4.4-8.3-4.7c-3.5-0.3-6.9-0.5-10.4-0.4c-3,0-6.7,0.6-7.1,4c-0.7,6.4-4.8,6.6-9.6,6.6c-5.2-0.1-7.1,3.2-7.1,7.7
			c0,5,3,7.1,7.9,6.7c7.9-0.2,12.6-2.4,18.1-8.1c0.8-0.8,2.5-0.6,3.8-1c2.3-0.6,4.7-1,6.9-2.1C428.4,223.5,431.2,220.7,430.6,216.5z
			 M424.5,219.4c-2.2,2.9-5.2,4.3-9,4.2c-3.7-0.1-6.3,0.5-6.9,5.4c-0.5,4.8-5.6,3.8-8.8,4.2c-3.4-0.1-7.6,0.7-7.6-3.9
			c0-3.8,3.5-5.2,6.9-5.2c4.3,0,7.7-0.6,9.1-5.6c0.4-1.3,3.5-1.9,5.5-2.8c3.3-1.5,6.7-1.8,9.9,0.3
			C425,216.7,425.4,218.2,424.5,219.4z M342.6,285.3L342.6,285.3c0.1,2.4,0.1,4.8,0.2,7.2l0,0c0.2,0.1,0.4,0.4,0.7,0.4
			c0.2,0,0.5-0.1,0.7-0.2C341.2,290.7,351.8,285.9,342.6,285.3z M288.3,258.3c0.6,2.3,2.6,1.5,4,0.9c5.4-2.4,10.8-5,16.2-7.5
			c-4-2.3-7-0.1-9.9,1.2c-5.8,2.5-10.4,3.8-8.9-6.2C284.7,250.9,287.4,254.8,288.3,258.3z M315.6,127L315.6,127
			C315.6,127,315.6,127,315.6,127C315.6,127,315.6,127,315.6,127L315.6,127c0-0.1-0.1-0.1-0.1-0.2c0,0,0,0-0.1,0l0,0c0,0,0,0,0,0
			c0,0,0,0,0,0l0,0c0,0,0,0.1,0,0.1C315.4,126.9,315.5,127,315.6,127z M326.1,209.1c-0.4-2.3-1.2-4.6-4.1-3.3
			c-4.9,2.2-6.4,6.8-7.1,11.6c-0.3,2,0.8,4,2.7,4.4c3.5,0.8,5.5-1.2,6.2-4.6c0,0-0.1-0.1-0.1-0.1c1.8-1.1,1.9-3.1,2.3-4.9
			c-0.4,0.1-0.7,0.3-1,0.5c0.2-0.2,0.6-0.4,1-0.5C327.1,211.3,327,210.2,326.1,209.1z M419.3,623.4c-12.5-6.3-24.6-13.9-33.8-24.4
			c-9.2-10.5-15.3-24.4-14.2-38.3c0.3-3.4,0.9-6.8,0.3-10.2c-0.5-2.5-1.6-4.8-2.8-7c-3.1-6.2-5.8-12.5-8.3-18.9
			c-2.2-5.7-3.2-12.7-6.1-18c-0.6-1.1-1.6-2.4-2.7-3.5c-0.4-1.4-1-2.9-1.7-4.4c-0.3,1.1-0.4,2.1-0.4,3c-1.1-0.4-2.3-0.3-3.2,1
			c-1.2,1.5-0.1,5.7-0.6,7.7c-0.6,2.3-3.3,4.8-2.3,7.3c1.3,3.1,6.2,1.6,8.9,3.5c2.5,1.6,2.4,5.2,2.8,8.1c0.1,0.5,0.2,0.9,0.3,1.4
			c-2.4-1-4.9-1.6-7.9-0.4c-4.5-2.5-6.8-4.7-7.8-8.4c-0.4-1.6-3.1-2.7-5-3.6c-1.1-0.5-2.2,0.7-1.9,1.7c1,3.4-0.8,5.5-2.4,8.3
			c-1.2,2.1-3.1,6.8,1.9,8.7c0,0,0,0,0,0c-1,1.4,0,3.8-2.2,4.5c-0.2,0.5-0.2,0.9,0.2,1.3c-0.9,3,1.3,2,2.6,2.2
			c2.2,1.7,4.5,3.4,6.6,5.3c1,0.9,4,1.8,2.6,3.2c-6.4,6,2,3.4,2.8,5.1c2.3,0.4,4.8,7.7,6.7-0.3c2.4,0.4,6.5,5.3,6.7,0.6
			c0.2-4.2,2.1-3,3.1-2.5c1.4,0.6,2.6,1.5,3.9,1.2c-1.4,7.4-2.2,14.9-0.2,22.1c2.5,9.3,9.4,16.8,16.4,23.4
			c10.2,9.7,21.3,18.5,33.1,26.3c0.6,0.4,1.2,0.8,1.9,1.1c-0.5,0.3-1,0.7-1.3,1.3c-0.8,1.4,0.8,2.5,2.1,2.7c2.6,0.3,4.4-1.4,6-3
			c0-0.5-0.1-0.9-0.3-1.3c0.3-0.4,0.6-0.8,0.7-1.2C424.3,626.4,421.6,624.5,419.3,623.4z M336.2,540.1c0.5-0.4,0.7-0.7,0.6-0.9
			c0,0,0.1-0.1,0.1-0.1c2.2-1.2,4.5-0.8,6.7,0c-2.1-1-4.3-1-6.5-0.5c-0.3,0.1-0.5,0.2-0.8,0.2c-0.1-0.1-0.3-0.1-0.5-0.2c0,0,0,0,0,0
			c5.1-4.5,8.7,0.6,13,2C344.6,541.8,340.5,537.7,336.2,540.1z M338.1,530.4h9.1c-0.2,0.1-0.3,0.1-0.5,0.2c3.3,2.5,6.5,2.9,9.4,3.6
			c0.3,0.1,0.5,0.3,0.8,0.4c1,2,2.3,3.9,3.9,5.5c-0.9-0.3-2-0.4-2.9-0.6C350.9,537.9,344.4,535.4,338.1,530.4z M367.3,548
			c-0.4,2.2-0.9,4.4-1.4,6.6c-3.1-3.4-4.7-7.9-9.5-10c2.3-1.5,5.5,1,5.7-2.4c0-0.4-0.1-0.8-0.2-1.1c0.9,0.7,1.8,1.4,2.7,1.9
			c1,0.5,2,1,2.5,2C367.7,545.9,367.5,547,367.3,548z M593.9,471c-4.2,3.3-2.3,6.7-1.1,9.9c2,5.3,4.5,10.4,6.1,15.7
			c1.1,3.8-1.9,10.2-3.7,8.9c-6.8-4.8-11.5,1.2-17.1,1.9c-1.3-4,2.3-8.8-2-11.7c-3.4,2.2-7.4,3.6-9.4,6.4c-3.2,4.5-1.9-4.2-6.1-1.3
			c-4.3,2.9-9.6,7.2-15.1,7.1c-7-0.1-5,4.9-4.5,7.3c1.8,9.4,11.9,12.5,19.8,6.4c2.8-2.1,5.4-4.2,9.3-3.6c-9,11.1-18,12.4-30.3,4.6
			c-2.1-1.3-4.1,0.1-6-0.1c-5.7-0.5-13,3.1-16.3-5.1c3.2,0.3,6.5,0.5,9.7,0.8c-2.1-2.1-4.3-2.7-6.6-2.4c3.2-6.2,9.8,0.9,13.6-3.3
			c-3.2-6.7-8.9-9.7-15.6-9.2c-6.4,0.4-11.6-0.7-14.3-6.5c-1.2-2.6-2.8-1.9-4.3-2c-2.6-0.2-2.9,2.3-2.9,4c-0.1,5,1.2,9.9,6.3,11.9
			c2.5,1,3.3,1.3,1.6,3.5c-4.2,5.4,0.3,7.7,3.9,9.3c2.1,0.9,5,2.7,4.7,3.6c-2.1,8,5.3,10.1,9,13.4c6.6,5.9,13.9,13.3,23.7,11.7
			c10.9-1.8,21.5-6.5,28.4-15.3c2.6-3.3,3.1-9,6.2-13.3c2-2.8,5.7-4.1,6.4-7.9c0.8-5,4.8-4.4,8.5-4.9c4.4-0.6,4.7,2.9,5.9,5.2
			c3.6,6.6,5.7,13.9,8.1,21c1.6,4.7,2.2,10.1,6.8,13.6c-3.8-10.9,3-20.3,4.2-30.4c1-8.1,0.9-14.9-1.6-22.3
			C614.7,484.9,601,481.2,593.9,471z M417.7,430.6c2.2,2.1,4.5,4.3,6.7,6.4c1.6,1.6,3.3,3.1,5.2,4.2c2,1.1,4.3,1.7,6.5,1.1
			c0.6-0.2,1.3-0.5,1.7-1c0.3-0.5,0.4-1.1,0.3-1.6c-0.2-1.7-1.6-3.1-3.1-4c-1.5-0.8-3.2-1.2-4.9-1.8c-1.2-0.4-2.5-1-2.9-2.2
			c-0.3-0.8,0-1.6,0.2-2.4c0.5-1.9,0.5-4.4-1.3-5.3c-0.9-0.5-2.1-0.2-3.1-0.5c-1-0.3-1.8-1-2.5-1.7c-4.8-4.1-11.5-4.3-7.2,3.6
			C414.4,427.4,416.1,429.1,417.7,430.6z M334,503.1c2.5,1.2,5.2,2.7,7.9-2.5c-3.4,1.3-5.6-1.9-8.3,0.6
			C333.3,501.4,333.6,502.9,334,503.1z M347.8,574.7c2.1,3,4.4,3.3,8.2,1.1C352.8,574.2,350.8,573.1,347.8,574.7z M329.8,541.3
			c0,0,0.4,0.1,0.4,0.1c0,0,0,0,0,0c0,0,0.1,0,0.1,0c0,0,0,0,0,0L329.8,541.3z M442.1,452.2c6.2,1.4,11.2,4.2,16.5-2.1
			C452.7,449.3,447.8,448.8,442.1,452.2z M297.9,512c5.9,5.5,13,3.6,19.8,3C311.7,510.7,304.6,513.2,297.9,512z M428.4,647.3
			c1,0.3,2.1,0.7,3.1,1C430.3,647.6,429.3,647.3,428.4,647.3z M571.6,425.6c-1.3,0.6-3.7-1.6-3.8,0.9c-0.2,11.7-1.5,23.6,3.7,35.5
			c0.4-3.3,0.7-6,1-8.2c3.9,3,9.2,4.3,12.4,10.3c0.3-6.1,1.2-9.6-2.4-14.4c-5.1-6.9-12-14-10.7-24c0.1-0.2,0.2-0.3,0.2-0.5
			c0,0,0,0,0,0c0,0,0,0,0,0c0,0,0,0,0,0c0-0.1-0.1-0.1-0.1-0.2c0,0-0.1,0-0.1,0C571.8,425.3,571.7,425.4,571.6,425.6z M316.5,429.6
			c-7.4-1.9-12.4,1-15.4,7.7c-1.9,4.1-4.8,7.7-6.9,11.4c-2.1,3.9-9.4,9.4-0.9,14.6c-1.5,3.6,2.6,4.4,3.5,6.9
			c0.7-1.4,1.5-2.7,2.2-4.1c0,0,0,0,0,0c1.5,1.7,2.9,0.8,4.1-0.4c6.5-6.3,7.8-6.1,10.5,2.1c0.2,0.7,0.6,1.3,1.3,2.8
			c1-3.6,1.3-6.3,0.2-9.1c-2.5-6-1.9-11.9,0.3-17.9c1.5-4,2-8.3,3-12.4c0,0,0,0,0,0c0.9-0.5,2-1.3,1.2-2.2
			C318.7,428,317.3,428.2,316.5,429.6z M321.2,482.7c0.7,5.1,1.8,9,5.4,14.2C327,490.4,326.5,486.1,321.2,482.7z M446.3,417.1
			c16.5-4.6,34.4-1.7,50.5-8.8c1.5-0.7,2.6,0.5,3,1.9c0.4,1.3-0.5,2.1-1.7,2.2c-4.1,0.3-4.8,3.7-5.7,6.6c-1.4,4.2-4.4,6.3-8.4,5.7
			c-3.7-0.6-6.8,1-10.2,1.4c-10.1,0.9-18.3,7-28.8,10.7c5.1,2.5,9.2,0,13.4,0.2c1.3,0.1,2.9-0.3,3.4,1.3c0.5,1.4,0,2.9-1.7,2.9
			c-1.8,0-3.3-0.1-2.6,2.4c0.6,1.9,2.2,2.1,3.9,1.8c7.6-1.2,14.2-4.6,20.5-8.9c12.7-8.8,20.2-22.7,32.6-31.7
			c-9.5-4.9-17.8,0-26.3,1.6c-19.1,3.6-38.1,7.7-55.7-5c-2-1.5-3-0.4-3.3,1.4C428.1,408.4,440.5,418.7,446.3,417.1z M333.2,513.6
			c0.8,0.1,2.5,0.7,2.3-0.8c-0.3-2.4-1.3-4.6-5.2-5.1C331.6,510,329.3,513.3,333.2,513.6z M585.2,624c-2.1-0.1-1.4-3-0.5-5.6
			c1.4-3.9,5.3-8.7,0-12.9c2.5-3.5,0.4-5.5-2.3-7.3c0,0,0,0,0,0c-2.5-5.4-5.4,0.8-8.8-0.2c-14.4-4.3-29.1-7.7-44.4-5
			c-3.6,0.6-6.6,0-9.9-1.7c-10-5-17.2-2.1-19,7.2c0.1,0.8,0.2,1.7,0.2,2.5c0,0,0,0,0,0c-0.8,2.2-3.3,1.7-4.7,2.9
			c-2.4,2.9-1.8,6.4-2.3,9.8c0,0,0,0,0,0c-0.2,7.6-3.7,12.2-11.5,13c-1,0.1-3.2,0.3-2.6,2.8c1.8,7.3,0.5,8.5-7.4,7.4
			c-0.3,0.9,0,1.5,0.9,1.9c0,0,0,0,0,0c-0.8-0.1-1,0.2-0.7,0.9c0,0,0,0,0,0c-5.4,0.4-10.5,2.7-16.3,1.9c-5.6-0.8-0.1,3.4-1.4,4.9
			c-1.5-1.7-3.4-2.2-5.4-1c-0.3,0.2,0,2,0.5,2.5c1.2,1.3,1.7,5.2,4.6,1.7c0.1,0,0.1,0,0.2,0.1c0,0,0-0.1,0.1-0.1
			c5.2,1,10.4,4.2,15.7,0c0.5-0.4,1.9-0.4,2.3,0c5.8,6.2,9.2,1.7,14-1.9c2.3-1.8,5.1-4.7,8.8-4.8c1.1,0,2.9,0.8,2.7-1.6
			c-0.1-1.8-3.1-0.3-3-2.6c2.8-0.7,5.4,0.4,8,0.6c9.9,0.8,16.6-4.6,13.1-10.9c-3.9-7,0.6-5.5,4.1-5.6c1.8,0,3.6,0.8,5.5,1.2
			c1.1,2.7,2.9,4.8,5.2,6.5c1.6,1.2,2.2,0.2,2-1.5c2.7,1.4,5.8,0.9,8.6,3.1c4.2,3.2,16.6,0.9,18.5-2.5c3.3-5.8,8.2-6,11.4-0.4
			c2.3,3.9,4.1,8.2,6.5,12c1.5,2.3,3.2,4.7,7.1,2.6c4.4-2.3,8.7-5.9,6.9-9.8C590.4,630.9,592.4,624.2,585.2,624z M471.8,636.6
			c0,0.1,0,0.1,0,0.2l0,0c0,0,0,0,0,0c0,0,0.1,0,0.1,0c0-0.1,0-0.1,0-0.2C472,636.6,471.9,636.6,471.8,636.6z M470.9,636.4
			c0.3,0,0.6,0.1,1,0.1c-0.1-0.3-0.1-0.6-0.2-0.9C471.4,635.9,471.1,636.2,470.9,636.4z M544.7,574.9c6.1,2.3,12.3,2.7,21,1.4
			C557.1,574.7,550.8,575.6,544.7,574.9z M602.6,596.2c1.3,3.3,4.1,5.6,6.9,7.7c1.7,1.2,3,0.2,4.1-1.1c0.8-1,1.6-2.1,2.8-3.7
			c-3.9-2.1-7.4-4-10.9-5.6C605.2,593.4,601.7,593.9,602.6,596.2z M557.6,560.9c-0.5,0-1.1-0.1-1.6,0c-14.1,3-28.4,0.9-42.6,1
			c-6.5,0-11.3,1.2-15.9,5.3c-8.1,7-15.7,14.6-25.9,18.8c-3.3,1.4-6.7,3-8.7,6.6c2.7,1.6,7.5,4.3,8.5,2.4c4.6-8.9,14.9-9.3,21-15.4
			c10.9-10.9,23.8-13.3,38.6-10.3c11,2.2,22.2,4.4,33.5,3c10.3-1.3,18.2,1.9,24.6,10c2.9,3.7,6.8,6.6,12.7,8.6
			C594.9,574.7,572.8,560.2,557.6,560.9z M459.2,560.3C459.2,560.3,459.2,560.3,459.2,560.3c5.2-9.2,5.4-20,10.9-29.5
			c5.9-10.3,9.6-21.5,20.2-28.5c2.4-1.6,4.3-4.2,4.6-8c0.9-10.2,2.2-20.4,6.7-30.1c-19.8,10.4-34.7,25.6-44.9,45.3
			c-8,4.3-7.8,13-10.7,20.1c-2.9,7.2,1,6.9,6,5.3c-1.5,3.6,2.6,10.7-6,10c0-1.6,1.3-4-1.3-4.4c-2.2-0.3-1.7,2.1-1.6,3.4
			c0,1.2,0.5,2.5,0.8,3.7h0c-0.2,4.5,1.1,8.5,3.6,12.1C454,566.6,455.7,566.7,459.2,560.3z M455.3,524.2c1.2-0.5,2.5-0.5,3.9-0.1
			c0.4,0.3,0.8,0.6,1.2,0.9c-0.2-0.5-0.7-0.7-1-1.2c-0.6-1.6-1.3-3.2-2.1-4.7c-0.1-0.5-0.3-1-0.5-1.5c-0.2-0.4-0.4-0.6-0.7-0.6
			c-0.1-0.1-0.2-0.3-0.3-0.4c0,0,0-0.1,0-0.1c0.2,0,0.3,0,0.3,0c-0.1-0.1-0.1-0.2-0.2-0.3c0-0.1,0.1-0.2,0.1-0.3
			c0,0,0.1,0.6,0.1,0.6c3.2,2.5,6.1,5.2,4,9.8c0,0,0,0-0.1,0c0,0,0,0,0,0l0,0c-2-1.8-4-1.8-6-0.1
			C454.3,525.4,454.7,524.8,455.3,524.2z M525.5,654.1c-4.4-0.9-4.3,4-6.1,6.7c-2.1,3.2-4.2,8.7-10.5,7.2c2.8,6.7,7.9,6.3,12.6,5.6
			c4.9-0.7,8.3-4.9,9.5-8.7C532.1,661,530.7,655.3,525.5,654.1z M443.5,503.8c0.3-8.6-5-16.8-11.7-22.4c-7.1-5.9-15.7-9.5-23.8-13.9
			c-4.2-2.3-8.3-4.8-12-7.8c-3.5-2.9-5.7-8.6-9-11c-1.1-0.8-1.9-0.8-2.3-0.4c-0.4-0.6-0.9-1.2-1.3-1.8c0.4,0.7,0.7,1.4,1.1,2.1
			c-0.5,0.9-0.5,2.6-0.1,4.3c1,4.4,5.3,9.2,8.4,12.2c5.7,5.4,12.9,8.9,19.6,13c6.5,3.9,12.6,8.5,18.7,13c3.3,2.5,6.9,5.2,8.1,9.2
			c1.7,5.4-1.4,11-3.7,16.1c-6.1,13.6-7.7,29.1-4.3,43.6c0.3-0.3,0.5-0.6,0.7-0.9c0.1,0.9,0.2,1.7,0.3,2.6c-0.1-0.9-0.1-1.9-0.1-2.8
			c3-4.2,2.8-10.1,1.9-15.3c-0.2-1.1-0.4-2.2-0.6-3.3c1.6-9.7,4.6-19.2,8.5-28.6C443.1,509,443.6,506.3,443.5,503.8z M437.6,519.5
			c-2.5,5.1-4.1,10.3-5,15.5c-0.3-2.8-0.2-5.6,0.7-8.2c1-2.9,2.9-5.5,4.6-8.1C437.8,519,437.7,519.3,437.6,519.5z M427.1,634.2
			c4,0.4,6.3,3.4,10.9,0.9C433.9,635.1,432.1,630.8,427.1,634.2z M466.7,638.9c-4.7-5.2-8.6-6.3-15.1-2.5
			C457.4,637.3,461.4,638,466.7,638.9z M440.3,667.7c9.1,5.9,12.2,5.9,20.2,0.1C453.8,669.4,447,669.4,440.3,667.7z"/>
	</g>
</g>
<g>
	<g>
		<path class="st2" d="M575.5,285.9c-0.7-3.4,1.8-6,3.1-9h0c2.8-4.5-1.4-11.7,5.6-14.5c1.9-2,3.7-4,5.6-6c0,0,0,0,0,0
			c1.5-5.1,1.2-10,0.1-14.6c-0.3-0.5-0.5-1.1-0.7-1.6c-1.2-2.6-1.9-5.4-2.4-8.2c-1.8-4.8-3.6-9.7-4.4-14.7c-0.3-2-1.4-3.9-2-5.9
			c-0.3-0.5-0.7-0.9-1-1.4c-0.4-0.5-0.8-1-1.2-1.5c-4.2,2.9-1.2,7.3-0.1,10.9c2.4,8.1,5.4,16,5.8,24.6c0.1,3.3-0.5,5.8-2.1,7.2
			c0,0.4,0,0.7,0,1.1c-0.3-0.1-0.6-0.3-0.9-0.4c-1.3,0.7-3,0.9-5.3,0.4c-4.4-1-8.7-2.8-11.5-6.6c-0.3-0.2-0.7-0.3-1-0.5
			c-0.7-0.3-1.3-0.8-1.9-1.2c-0.3-0.2-0.6-0.5-0.8-0.8c-1.2-0.1-2.2-0.6-2.9-1.8c-2.5-4.6-7.7-6.8-10.8-10.9
			c-0.6-0.8-1.2-1.7-1.6-2.7c0,0,0,0,0,0c0,0,0,0,0,0c-1-0.3-2-0.6-3-0.8c-1.6-0.2-3.3-0.3-5,0c-1,0.2-2,0.4-3.1,0.9
			c4.1,4.6,8.6,8,13.4,11.4c3.4,2.4,7.8,4.1,9.3,8.4c0.6,0.3,1.1,0.7,1.6,1.1c0.9,0.7,1.7,1.4,2.5,2.2c0.6,0.5,1.2,1,1.7,1.5
			c0.1,0.1,0.1,0.1,0.2,0.2c1.6,0,2.8,0.3,2.6,2.6c0,0.4-0.1,0.8-0.2,1.3c0,0,0,0,0,0c0.9,3.8-2.3,3.6-4.3,4.1
			c-7.3,1.7-14.7,2.2-22.1,1.1c-8.9-1.3-17.8-2.6-26.7-3.8c0,0,0,0,0,0c-0.8,1.8-4.5,0.8-3.9,3.2c0,0,0,0,0,0
			c0.6,2.3,3.3,3.6,5.5,4.2c8.3,2.2,16.5,4.4,25.2,3.8c7.2-0.5,14.5-0.4,21.3,2.7c1.8,0.8,3.5,1.4,3.7,3.6l0.5-0.1
			c0.6,0.1,1,0.3,1.4,0.6c0.4,0.3,0.7,0.7,0.8,1.4c-0.5,3.3-3.8,4.2-5.7,6.2c-0.3,0.3-0.5,0.6-0.7,1c0,0,0,0,0,0
			c4.6,4.4,10.2,3.6,15.8,3.1c0,0,0,0,0,0c0,0,0,0,0,0C575.9,287.1,575.6,286.5,575.5,285.9z M552.1,278.6
			c-6.8-0.4-13.6-0.1-20.4-0.2c0,0,0,0,0,0.1c-1.1,5.7-7.1,1.3-9.7,4.5c7,0,13.7-0.1,20.4,0c3.5,0,7-3.6,10.4-0.1
			c0,0,0.1,0.1,0.1,0.1c0,0,0,0,0,0C556.7,280.9,557.1,278.9,552.1,278.6z M541.5,254.7c3.1,0.9,6.3,1.8,9.4,2.6c0,0,0,0,0,0
			c4.6-1.7,5.2-3.4,1-5.9c-9.3-5.6-18.1-12.9-30.1-11.9c-0.5,0.4-0.9,0.8-1.3,1.2c-1.5,1.7-2.1,3.7-2.2,6c0.7,0.3,1.3,0.6,1.9,1
			c1.2,0.8,2.5,1.4,3.7,2.1C529.8,251.4,535.7,253.1,541.5,254.7z M634.4,289c6.3-2.3,10.6-4.4,0.7-8.5c-4.4-1.8-4.8-7-2-10.9
			c0.5-0.8,1.2-1.5,2-2.1c0,0,0,0-0.1,0c0.3-1.4,1.4-1.7,2.5-1.8c0,0,0,0,0,0c3.8-3.2,7.7-6.4,11.5-9.7c3.9-3.4,10.9-7.5,7.3-12.1
			c-3.5-4.6-10.6-1.6-15.4,2.5c-0.4,0.3-0.6,0.8-0.9,1.3c0.1,1.1-0.7,2.5-2.1,3.9c-2.5,2.7-6.8,5.7-11,6.9c-3,0.9-6.3,1.7-8.5-2
			c-1.2-2-1.6-3.9-0.5-5.7c0.3-0.5,0.7-1,1.2-1.4c0,0,0,0,0,0c0,0,0,0,0,0c-0.1-0.4-0.1-0.9-0.1-1.3c0.2-2.7-1.1-5.6,1.2-8
			c0,0,0,0,0,0c0,0,0,0,0,0c0.6-1.2,0.7-2.5,0-3.7c0,0,0,0,0,0c-0.9-1.3-1.3-2.5-1.3-3.8c-0.1-2.8,1.3-5.7,1.4-8.5
			c0.1-3,1-6.3-1.6-9.8c-7.4,12-6.4,27.2-16.6,37.1c1.9,1.7,4.4,3.1,5.7,5.2c3.7,6,7,12,15.7,11.2c1.2-0.1,1.9,1.5,1.6,2.9
			c5,2,5.1,4.5,0.7,7.5c0,0,0,0,0,0c0,0,0,0,0,0c-1.6,4.4-3.3,8.7-4.9,13.1c-0.1,0.4-0.3,0.7-0.4,1.1c0,0,0,0,0,0
			c7.5,4.1,14,10,22.8,11.5c0,0,0,0,0,0c0.2-0.6,0.3-1.2,0.5-1.8c0.1-0.6,0.3-1.2,0.4-1.7c-0.9-0.4-1.6-0.9-2.4-1.4
			C638.3,296.6,636.1,293.2,634.4,289z M606.7,277.6c-1.4-3.9,0.8-8.6-2.8-12c0,0,0,0,0,0c-11.6-2.6-11.5-2.6-11.4,9.9
			c0,2.4,1.8,5.4-1.5,7.1c-1.8,2.2-3.2,0.4-4.8-0.3c-7.2-3.1-7.9-3.4-8,3.5c0,0.6,0,1.3,0,2.1c0,0,0,0,0,0
			c11.5,0.3,22.5,4.6,34.1,3.7c0,0,0,0,0,0c0,0,0,0,0,0c0.4-0.5,0.8-1,1.2-1.5c0.8-1,1.6-1.9,1.8-3c0.8-3.2,3.6-6.6,1-9.8
			C613.3,273.5,610,277.7,606.7,277.6z M594.5,204c-2.2,10.9-3.1,21.7,3.4,33.2c5.3-12,3-22.7,0.6-33.2
			C597.6,200.2,595.9,203.8,594.5,204c0.2,0.1,0.4,0.3,0.5,0.4C594.7,204.4,594.6,204.2,594.5,204z M554,215
			c1,9.9,10.6,12.3,15.8,20c0.3-3.7,0.5-6,0.7-8.2c-0.2,0.1-0.3,0.2-0.5,0.4c0.1-0.2,0.3-0.3,0.4-0.4
			C562.8,226.1,562.8,215.3,554,215z M355.7,139.7c7.1,1.9,3.7,7.6,4.4,12.1c3-5.2,14.3-4.8,9.1-15.1c-0.8-1.6,2-3.4,4.5-3
			c0-3,0-6,0-9c-0.2-0.3-0.3-0.6-0.5-1c-4.7,0.2-17.4,10.6-17.8,14.7C355.4,138.8,355.5,139.7,355.7,139.7z M408.9,318.9
			C408.9,318.9,408.9,318.9,408.9,318.9C408.9,318.9,408.9,318.9,408.9,318.9c-0.8-1.5-0.4-2.9,0-4.4c0.1-1,0-1.9-0.1-2.5
			c-1.1-1.1-2.6-1.3-4.2-1.3c-1.1,0.5-2.3,1.1-3.2,1c-0.8,0.1-1.5-0.1-2.2-0.4c-0.2,3.6-3.6,3.5-5.6,5c-2.5,1.9-3.1,4.3-1.7,7.1
			c0.8,1.6,2.8,4.3,3.9,2.8c2.9-4.3,8.5-2.1,11.5-5.5c0.6-0.5,1.1-1.2,1.7-1.7C409,318.8,409,318.9,408.9,318.9
			C408.9,318.9,408.9,318.9,408.9,318.9z M346.3,101.2c0.8,3.5-0.6,9.1,4.3,9.9c4.3,0.7,3.6-4.3,4.7-7.3c0.1-2.9-0.4-5.7-4.2-6.1
			C348.4,97.3,345.6,98.1,346.3,101.2z M369.9,98.6c0.5,0,1.1,0,1.7,0c0.7,0,1.4,0,2.1,0c1-0.2,2.1-0.5,3.3-0.9
			c4.9-1.8,2.7-5,0.9-7.6c-1.6-2.2-5-3.3-4.2-6.9c-2.6,0.5-5.3,0.9-7.9,1.4c0,0,0,0,0,0c-0.6,1.4-1.3,2.8-1.9,4.1
			C363.8,94.4,366,97.8,369.9,98.6z M341.9,125.3c-0.3,0.5,0.3,2.3,0.9,2.5c3.1,1.3,5.3-0.1,8.3-4.1
			C346.9,124.4,344,122.1,341.9,125.3z M289.6,109.7c0.5,0.3,0.9,0.7,1.2,1c-0.4,0.4-0.7,0.7-0.9,1.1c1.3,5.5,5.7,8.2,10.6,11
			c4.9,2.8,5.4,0.6,5.4-3.4c0-0.2,0-0.4,0-0.6c0-5.4-0.1-10.8-0.2-16.1c0-2.1,0.4-4.6-2.6-5c-2.6-0.3-6-0.9-6.9,2.3
			C295.1,104.2,291.2,106,289.6,109.7C289.6,109.7,289.6,109.7,289.6,109.7C289.6,109.7,289.6,109.7,289.6,109.7z M335.5,88.9
			c2.7,2.4,4.9,0.7,6.6-1.7c2.1-3.1,3.3-6.2-1-8.6c-0.6,0.1-1.2,0.2-1.7,0.3c0,0,0,0,0,0c-1.2,1-2.4,2-3.5,3.1
			C333.7,84.2,333.1,86.8,335.5,88.9z M333.1,113.4c2,0.3,2.7-1,2.9-2.8c0.1-1.9-0.8-3-2.7-3c-1.7,0-3.2,0.4-3,2.5
			C330.5,111.8,331.3,113.2,333.1,113.4z M352.3,75.4c0.9-0.7,1.7-1.8,0.9-2.6c-2.5-2.2-5.5-0.8-9.6-0.5
			C346.8,74.9,348.5,78.2,352.3,75.4z M450.9,89.1C450.9,89.1,450.9,89.1,450.9,89.1c0.4,0.3,0.8,0.5,1.2,0.7
			c0.8,0.3,1.6,0.4,2.5,0.3c0.6-0.1,1.2-0.2,1.8-0.4c-0.2-0.1-0.3-0.2-0.5-0.3C454.3,88.5,452.6,88.2,450.9,89.1z M466.4,80.4
			c-3.2-0.2-5.4-0.1-7.8,2.4C461.7,83.4,463.9,82.9,466.4,80.4z M583.5,136.7c1.8-0.8,1.9-2.5,1.9-4.1c-0.3-8-6.2-10.3-12.4-12.7
			c-2.4,7.4,3.8,10.4,6.6,14.9C580.4,136.1,581.6,137.5,583.5,136.7z M709.6,344.6c-1.7-5-4.4-9.8-5-14.8c-1.8-16.8-2.7-33.6-4-50.5
			c-2.1,3.5,0.8,8-3.1,12.7c-1.5-9.1-3-17.1-4-25.2c-1-8.4-1.6-16.8-2.3-25.2c-0.1-1.7,0.2-3.2,1.9-4.1c0,0,0,0,0,0
			c-2.7-13.4-7-26.5-10.9-39.6c0,0,0,0,0,0c-0.7,0.4-1.6,3.4-1.9,1.1c-0.8-6.6-4.2-8.2-9.3-7.5c-0.4,0.3-0.8,0.7-1.1,1
			c1,5-1.7,6-6.1,5.2l-0.1-0.4c-1.7,5.7-6,4.4-8.2,1.7c-2.4-2.9-5.9-6.3-4.4-11.2c0.6-0.5,1.1-1.1,1.7-1.6c0,0,0,0,0,0
			c-1-1.4-2-2.9-1.7-4.8c0,0,0,0,0,0c-2.4-2.4-4.4-4.8-4.7-8.5c-0.4-5-3.5-8.2-7.5-10.7c-5.2-0.6-6.6-3.2-3.6-7.6
			c2.2-3.3,5-6,7.1-9.5c1.9-3.3,5.9-2.9,8.6,0.5c5.1,6.4,11.9,11.8,12.9,20.8c0.3,2.2,2.1,3.4,4,3.2c2.7-0.3,2.5-2.9,2.7-5
			c1.2-12.9-4.6-24.2-7.4-36.2c-2.2-9.8-7.8-19.7-3.8-30.5c0,0,0,0,0,0c0.8-0.9,0.9-1.8,0-2.7c0,0,0,0,0,0c-4.6-1.7-4.1-5.4-3.4-9.1
			l0.2,0c-12.1-3.1-24.4-4.3-36.8-4.5c-1.1,0-2.3-0.1-3.1,0.5c-10.7,7.1-22.4,7.1-34.5,5.3c-0.4-0.1-1.1,1.6-1.6,2.4l0,0
			c2.4,1.9,5.1,2.8,8.1,3c0,0,0,0,0,0c11.7,0,23.2,3,35.3,1.3c-1.3,3.1-3.9,1.4-5.3,2.7c1.7,2.4,6.6-1.7,6.8,3.5c0,0,0,0,0,0
			c-0.6,3.5-3.4,3.8-6.1,3.8c-12,0-24-0.1-36-0.2c-2.3,0-4.2-0.3-4.6-3.1c-3.4,0-6.1-0.5-3.2-4.8c0,0,0,0,0,0
			c-0.7-2.7-1.5-5.5-2.2-8.2c-6-5.1-12.8-4.9-19.8-2.8c-5.9,1.8-7,6.2-2.9,10.8c4,4.6,7.7,9.5,15,9.1c3-0.2,5.8,2.2,8.2,4.7
			c3.7,3.7,7,7.5,13,8.5c6.4,1.1,7.3,7.6,7.1,12.9c-0.2,5.6-0.2,12.5-7.9,13.8c-7.6,1.3-10.1-5.3-13.5-10.2c0,0,0,0,0,0c0,0,0,0,0,0
			c0,0,0,0.1,0,0.1c-0.7-0.5-1.3-1-1.7-1.7c-3.3-5.8-8.8-7.7-14.8-7.9c-5.4-0.1-7.5-2.6-6.7-7.4c1.2-6.6-3.2-12.1-2.8-18.4
			c-1.5,0.5-1.1-0.9-1.4-1.5c-1.1-0.5-2.5-0.5-2.8-2.4c-1.9-13.8-10.2-21-23.5-24c-6.6-1.5-12-6.7-19.5-6c-3.2,0.3-6.4-0.1-9.3,1.7
			c0,0,0,0,0,0c-3.4,10.1-12.3,15.2-19.7,21.7c0,0,0,0,0,0c0,0,0,0,0,0c-1.9,0.8-3.7,1.4-5.6,1.8c-7.5,1.8-15,1.1-22.5-1.4
			c-2.4-6.3,3.7-8.4,6-12.4c1.7-3.8,1.7-4.1,5.2-4.9c6-1.3,12.1-2.1,18.1-3.4c2.1-0.5,5.6-0.4,4.9-3.8c-0.5-2.6-3.3-2-5.5-1.7
			c-6.1,0.8-12.2,1.6-18.3,2.3c-14.9,1.6-29.1-3.3-43.5-5.3c-6.1-0.9-11.5-1.6-16.3,3c11.8,6.9,12.4,7.2,6.8,20.4
			c-3,7-3.1,15.5-10.2,20.7c-3.6,2.6-7,4.9-11.6,4.7c-1.6,0-3.4,0.3-3.6,2.3c-0.3,2.8,2,3.1,3.8,2.8c5.7-0.8,5.4,2.7,5.8,6.8
			c0.7,6.8-2.3,14.2,5.8,19.8c5.1,3.6,1.5,13.6-5.1,14.6c-9.1,1.5-15.8,6.5-22.5,11.9c-2.1,1.7-4.6,3.9-7.7,1.3v0
			c-7.2-1.3-8.5-4.6-5.9-14.7c-1.1-3.6-2.2-7.2-3.3-10.8c-1.1,0-1.8-0.4-1.6-1.6l0,0c-1.7,0.7-2.8,0-3.5-1.5c0,0,0,0,0,0
			c-4.9-0.7-9.2,0.4-13,3.6c0,0,0,0,0,0c0,0,0,0,0,0c-0.2,1,0.1,2.5-0.5,3c-7.1,5.7-25.5,3.4-31.4-3.8l0.5,0.1l0.3-0.4
			c-10.7,1.3-13.1,4.8-11.4,15.6c0.6,3.9,0.5,7.9,0.7,11.9c0,0.3,0.1,0.5,0,0.8c-1.5,6.1,3.3,10,5.4,14.8c-7.7,2.6-2.5,8.9-3.7,13.3
			c-0.7,2.4,0.9,4.6,2.5,6.5c0,0,0,0,0,0c0.5,1.2,1,2.3,1.4,3.5c3.2,1.5,3.8,8.1,0.9,11.4c-1,1.2-2.4,2.2-3.7,3.1
			c-3.6,2.5-4.5,5.8-3.2,9.8c1.3,4.2,4.9,3.2,8.6,3.1c-9.7,3-9.2,10.6-9.3,17.9c-0.2,15-0.5,30.1-0.6,45.1
			c-0.1,21.2,7.9,39.2,22.2,54.6c6.3,6.7,14.4,7.5,22.3,4.7c10.1-3.6,19.8-8.5,27.4-16.5c0.7-0.8,1.5-1.9,2.4-2.1
			c13.4-3.2,17.9-12.9,19.7-25.4c0.9-6.5,5-11,12.7-10.2c7.7,0.8,12.5-6.7,20.5-7c7.8-0.3,11,2.2,11.7,9c0.6,5.6,3.6,5.6,7,3.3
			c16.2-10.8,35.2-14.3,53-21.1c7.7-3,12.7-9.5,19.6-13.6c3.3-2,1.9-5.2-2.2-6c-4.1-0.8-7.7-2.2-9.2-6.5c0,0,0,0,0,0c0,0,0,0,0,0
			c0,0-0.2-0.3-0.2-0.3c-4.1-1.1-3.7-3.2-0.9-5.4c1.2-1,2.8-1.4,4.2-2.2c9.3-5,9.2-5,4.6-14.4c-2.1-4.2-0.9-6.7,4-6.8
			c3.5-0.1,7,0,10.4-0.1c5.5-0.1,8.4-2.2,5.3-8c-1.9-3.6-2.1-7.1-0.4-10.7c0,0,0,0,0,0c0,0,0,0,0,0c0,0,0,0,0,0c0,0,0,0,0,0
			c6.7-0.4,13.4-0.6,20.1,0.6c3.5,0.6,4.5,0.3,4.3-3.7c-0.4-11.5-0.2-11.5,10.8-7.8c3.5,1.2,7.1,2.3,9.8,5c2.8-2.2,1.1-4.7,1.3-6.9
			c0.4-3-1.3-7.2,1.7-8.8c2.8-1.4,6.2,1.1,8.8,2.8c4,2.5,7.7,5.6,11.8,8.7c1.1-2.5,2.1-4.8,3.2-7.2c4.1-8.5,8.1-8.7,13.6-0.7
			c0.5,0.7,1.1,1.3,1.3,2c2.9,8.2,6.7,11.4,13.8,3.3c3-3.5,5.5-1,7.3,2.3c3,5.4,1.5,11.5,2.6,17c0.9,0.1,1.6,0.3,1.9,0.1
			c4.3-2.5,9.2-7.5,13.5-5c4.3,2.6,1.9,9.3,1.9,14.2c0,5.4-0.1,10.5,7.6,5.5c2.6-1.7,5.9-1.2,8.3,0.8c2.4,1.9,0.7,4.3,0.1,6.6
			c-0.7,2.5-1.1,5.1-1.6,7.7c0,0,0,0,0,0c2.3,1.5,3,3.8,3.2,6.3c1,0.3,1.9,0.5,2.9,0.8c0,0,0,0,0,0c0,0,0,0,0,0
			c5.9-3.8,9.2,0.9,12.6,4.2c3.8,3.7,0.7,6.8-2,8.6c-5.6,4-3.3,8.4-0.3,11.4c5.4,5.5,9.7,10,4.4,18.4c-2.4,3.8,3.1,8,4.3,12.3
			c0.4,1.5,1.4,2.9,1.7,4.4c0.3,1.6-0.4,1.8-1.4,0.5c-0.3-0.4-0.8-0.7-1.2-1.1v0c-0.2,0.6-0.3,1.3-0.5,1.9c0,0,0,0,0,0c0,0,0,0,0,0
			c-3.3,3.2-7.8,0.2-11.9,2.6c1.5,3.3,3.9,5.9,6.5,8.4c5.3,5.3,10,11,13.7,17.5c4,6.8,9.3,10.7,17.4,10.1c0,0,0,0,0,0
			C712.4,353.4,711.1,349,709.6,344.6z M304.4,184.9c3.8-2.6,3.3-10.9,11-8.3c0,0,0,0,0,0c8.6-1.7,14.8,4.3,15.7,15.7
			c0.5,7.4,0.1,14.7,2.4,22.1c1.6,4.9-3.4,9.4-7.8,11.9c-3.8,2.2-8.7,3.6-11.6-2.1c-1.2-3.6-6.1-5.5-4.7-10.3c0,0,0,0,0,0
			c0,0,0,0,0,0c0.3-3.3-0.4-6.1-3.3-8.3c-3.6-2.7-5.8-6.5-7.7-10.7C294,185.8,293.8,185.8,304.4,184.9z M309.7,242.2
			c0.3,0.1,0.6,0.2,0.9,0.3l0,0c0,0,0,0,0,0c0,0,0,0,0,0c-3.6,5-5.1,5.5-7.6,2.4c-0.6-0.1-1.2-0.3-1.9-0.4c-1.5-2.6-6.8-5.6-3.2-7.8
			c3.8-2.3,10.2-4,14.5,0.1C315.2,239.4,313.9,242,309.7,242.2C309.7,242.2,309.7,242.2,309.7,242.2
			C309.7,242.2,309.7,242.2,309.7,242.2z M292.3,259.2c-1.4,0.6-3.4,1.3-4-0.9c-0.9-3.6-3.7-7.5,1.3-11.6c-1.5,10,3.1,8.7,8.9,6.2
			c2.9-1.2,5.8-3.5,9.9-1.2C303.1,254.2,297.7,256.8,292.3,259.2z M439.7,216.5c-2.8,4.1-1.2,13-10.6,10.3c0,0,0,0,0,0
			c-8.5,2-12.7,6.5-12,16c0.5,6.6-3.6,10.9-11.2,9.6c-7.1-4-14.2-7.8-21.8-10.9c-4.8-2-8.5-7.1-8-14.4
			c-9.9,11.7-21.3,20.9-28.8,33.8c-3.4,5.9-5.5,12.4-9.4,18c-2.9,4.1,5.3,2.4,4.6,6.2c0,0,0,0,0,0c0,0,0,0,0,0c0,0,0,0.1,0,0.1v0
			c9.3,0.6-1.4,5.5,1.6,7.4c-0.2,0.1-0.5,0.2-0.7,0.2c-0.2,0-0.4-0.3-0.7-0.4c-0.5,0.9-1.1,1.8-1.6,2.7c0,0,0,0,0,0
			c-1.8,10.6-0.5,22.3-9.7,30.4c-2.7,2.3-5.6,7.1-9.2,0.8c-0.6-1.5-1.1-3-1.7-4.5c-2.9-2.9-4.9-6.4-8.9-8.5
			c-3.3-1.8-5.5-5.1-3.2-10.5c2.8-6.4,3.5-13.7,5.2-20.6c0.3-1.4,0.1-3.7,2.6-1.8c2.4-6.3,5.2-12.3,13.8-10.3c0,0,0,0,0,0
			c0.4-0.2,0.7-0.5,1.1-0.7c0.1,0.4,0.1,0.8,0.2,1.2c0.9-0.2,1.8-0.7,2.3,0.6c0,0.1-1.2,0.6-1.8,0.9c-0.2,0.5-0.1,0.9,0.2,1.2
			c0,0,0,0,0,0c5.7,0.3,7.2-5,8.6-8.3c6.6-16,17.8-27.7,30.6-39c13.7-12.2,28.7-22.7,42.2-34.9c1.7-1.6,3.3-3.7,6.1-2.2
			c0,0.7,0.3,1.3,0.1,1.7c-1.4,2.8-7,4-4.2,8.3c2.2,3.3,6.1,5.3,10.3,5.1c4.2-0.2,8,0.1,10.7,3.7
			C438.4,210.3,442.5,212.3,439.7,216.5z M499.9,119.7c-2.4-0.5-4.1,0-5.3,2.3c-1.5,3,1.1,3.6,2.8,4.6c2.5,1.6,6.5,2.4,4.1,6.9h0
			c-0.1,2.4,0,4.8-0.3,7.2c-0.7,6.3-3.1,10.6-10.6,8.8c0,0,0,0,0,0c-9.5-1.6-16.6,1.9-21.5,10c-2.1,3.5-5.4,3-8.6,2.7
			c-3.8-0.5-3.4-3.7-3.2-6.3c0.4-6.5,0.5-12.8-5.6-17.4c-0.9-0.7-0.5-3-0.7-4.5c0-3,0-6.1,0-9.1c0,0,0,0,0,0c-1.4-6.9,1.2-9.7,8.2-8
			c5.8,1.4,11.4-1.2,17.2-0.7c0,0,0,0,0,0c1.6-8.5,4.3-8.9,13.5-2.1c6.7,2.9,14.1,0.7,22.1,2.7C508,121,504,120.5,499.9,119.7z
			 M611.3,126.7c-1.8-0.2-4.1,0.3-4.8-2c-0.8-2.7,1.9-3.2,3.4-3.5c6.9-1.6,11.6-7.7,18.6-8.9c-0.4-3,1.6-3.9,4.7-4.8
			c-1.2,1.9-2,3.2-2.9,4.5c0.5,1.1,1,2.2,1.5,3.3c4.4-0.5,6.9-3.8,9.5-6.7c3.3-3.5,1.5-5.6-3.3-6.6c3.9-1.9,7.2-3.8,10.3-0.1
			c3.1,3.7-0.9,6-2.6,8.1C637,121.1,626.1,128.1,611.3,126.7z M626.8,233.3c0.6,4.7-1.1,10.1,3.6,13.7l-0.3-0.5
			c0.4-0.8,1-1.3,1.7-1.7c0.6-1.7,2.1-1.8,3.7-1.8c0,0,0,0,0,0c1.4-1,2.9-1.8,2.7-3.9c-2-4.1,3.6-11.3-5.3-12.5
			c-0.5,0.4-1,0.7-1.5,1.1C631.9,231.3,630.7,233.5,626.8,233.3z M487.3,127.3c0-0.1,0-0.3,0-0.4c-5-0.7-5.9,3.3-7,6.5
			c-1.2,3.4,1.3,5.1,4.2,5.4c4,0.4,8.9,5.5,11.8-1.3c0.1-0.2,0.2-0.4,0.2-0.6c-3-3.2-6-6.5-8.9-9.7
			C487.5,127.2,487.4,127.3,487.3,127.3z M648.4,161.3c0.2,1.2,1.1,3.1,1.8,3.2c2.1,0.3,2.2-1.7,2.5-3.6c-0.3-0.9,0.2-2.7-1.7-2.8
			C649,158.1,648,159.5,648.4,161.3z M653.4,156c1.2,0.2,1.5-0.3,0.8-1.3C653.5,155,653.3,155.4,653.4,156z M658.4,187.1
			c0.3,0.2,0.6,0.5,0.9,0.7c3.2-4.1-0.2-7.5-0.2-11c0,0,0,0,0-0.1c0,0-0.1,0-0.2,0c-0.9,0.1-1.9,0.1-2.7,0.2c-1,0.2-1.8,0.8-1.9,2.5
			C654.3,183,656.1,185.2,658.4,187.1z M670.2,306.3c-1.4-2.2-3.6-4.1-5.8-5.4c-3.8-2.1-8.9-7.2-11.9-4c-3,3.2,2.9,6.4,5,9.8
			c0.1,0.2,0.2,0.3,0.3,0.5c0.1,0.1,0.2,0.1,0.3,0.2c1.2,0.9,2.4,1.8,3.5,2.7c0.3,0.2,0.5,0.4,0.8,0.6c0.3,0.1,0.5,0.3,0.8,0.4
			c0.7,0.3,1.4,0.7,2.1,1c2.1,1,3.7,4.5,6.8,1.3C675.1,310,671.5,308.2,670.2,306.3z M663.4,288.1c0.3-1.6-1-2.3-2.3-2.8
			c-4.9-2-9.9,0.2-15,0.2c4,3.9,9.5,2,14.1,4C661.2,290,663.1,289.8,663.4,288.1z M659.9,272.4c2.1-0.1,3.4-1.2,4.1-3.1
			c-5.1-7-8.9-7.9-15.5-3.8c-1.6,1-3.7,1.6-3.3,3.9c0.4,2.2,2.5,2.5,4.4,2.6C653.1,272.1,656.5,272.2,659.9,272.4z M423.7,215.9
			c-3.2-2.1-6.6-1.8-9.9-0.3c-1.9,0.9-5.1,1.5-5.5,2.8c-1.4,5.1-4.8,5.6-9.1,5.6c-3.4,0-6.9,1.4-6.9,5.2c0,4.7,4.1,3.8,7.6,3.9
			c3.3-0.4,8.3,0.7,8.8-4.2c0.6-5,3.1-5.6,6.9-5.4c3.8,0.2,6.8-1.3,9-4.2C425.4,218.2,425,216.7,423.7,215.9z M472.8,130
			c-1.3-0.6-2.2-1.5-2.3-3c0,0,0,0,0,0c-0.2,0-0.4-0.1-0.6-0.1c-0.4-0.1-0.8-0.2-1.1-0.3c0,0-0.1,0-0.1,0c-6.4,1-5.7,4.9-3.4,9
			c1.4,2.5,3.1,5.1,6.8,4.4c1.9-0.4,3.9-1.1,4.4-3C477.3,133.9,475.8,131.4,472.8,130z M331.4,300.1c0-0.2,0.1-0.4,0.1-0.6
			c-0.9-1.2-1.8-2.3-2.6-3.5c-1.5,1.4-3.1,2.6-3.8,4.8c-1.6,5.8,2.9,9.1,5.1,13.4c0,0,0,0,0,0c0.4-0.7,0.8-1.3,1-2
			C332.5,308.3,330.6,304.1,331.4,300.1z M324.9,279.9c-4,1.8-2.1,6-4.4,8.2v0l0,0.2c-0.4,2.3-0.7,4.6-1.1,7
			c0.1,0.1,0.2,0.2,0.3,0.3c1.6,1.6,2.9,4.3,4.9-0.2C327.1,290.1,325,285.2,324.9,279.9z"/>
	</g>
</g>
<g>
	<g>
		<path d="M341.5,759.5c1.7,10.3,2.4,17.8,2.3,22.7v4.9c0.4,0.3,0.6,0.5,0.6,0.7c0,1.3,0.1,2.1,0.4,2.4c0.4,0.5,1.5,0.7,3.2,0.7
			c2.3,0,3.5-0.7,3.5-2.1v-1.7c-0.1-0.7,0-1.3,0.2-1.7c-2-12.4-3-24.8-2.9-37.2l0.1-8.6c-0.7-0.9-1.9-1.3-3.9-1.3
			c-0.4,0.5-1.1,0.8-2.1,0.8c-1.3,0-2,0-2.2,0.1c-3.2,9-5.5,15.8-7,20.3c-1.7-4.9-2.9-8.4-3.6-10.4c-2-5.5-3.4-8.3-4.3-8.3
			c-0.8-0.7-1.6-1.5-2.4-2.2c-0.4-0.2-1.6-0.3-3.5-0.3c-1.2,0-1.9,0.9-2.1,2.7v4.3c0,29.3,1.2,44.2,3.6,44.8
			c1.1,0.3,2.3,0.5,3.6,0.8c0.9-0.4,1.4-1.2,1.4-2.2c0-3.9-0.4-9.6-1.2-17.4c-0.8-7.7-1.2-13.5-1.2-17.4v-2.2
			c2.4,7,4.2,11.3,5.1,13.1c0.7,2.6,1.1,4.1,1.1,4.3c0.7,1.6,1.7,2.6,2.9,2.7c0.3,0.1,0.7,0.2,1.3,0.6c0.6,0.3,1.1,0.5,1.4,0.5
			c0.5,0,1.1-0.7,2-2.2c0.1-1.2,0.6-2.8,1.3-5c0.8-2.2,1.2-3.8,1.3-5L341.5,759.5z M372,769.7c3.4-12.7,5.8-20.7,7.3-23.9
			c-1-1.1-2.3-1.8-3.8-2.1c-1.5-0.3-2.4-0.6-2.6-0.8l-1.2,0.7l-2.3,9.3c-1,4-1.9,7.1-2.7,9.2c-1.2-7.1-2.2-11.5-3.1-13.3
			c-1-1.4-1.6-2.3-1.9-2.6c-0.8-1-1.8-1.6-3.2-2c-0.9-0.2-2.2-0.4-3.9-0.4l-0.4,1.4c0,1.6,1.5,5.9,4.6,13c3.1,7.1,5.2,10.9,6.3,11.5
			c-1.4,8.4-2.9,14.5-4.5,18.2c-0.2,0.4-0.2,0.6-0.2,0.7c0,0.4,0.3,0.8,1,1.3c0.7,0.5,1.1,0.8,1.1,0.9l0.8,0.1c1.2,0,2-0.2,2.3-0.7
			C366.7,788.2,368.9,781.4,372,769.7z M387.4,858c-0.3-0.2-0.5-0.5-0.5-0.9c0-0.2,0.1-0.5,0.2-0.8c-0.9-1.5-1.7-2.2-2.4-2.2
			c-1.1,0-3.1,0.5-6,1.6c-2.9,1.1-5,1.6-6.4,1.6c-0.3-1.2-0.4-2.8-0.4-4.9c0-2.4-0.1-4-0.2-5c4.7-1.2,7.9-1.8,9.8-1.8h0.7
			c0.2-0.1,0.6-0.5,1-1.3c0.5-0.7,0.7-1.2,0.7-1.5c0-0.6-0.2-1.1-0.7-1.6c-0.1-1.5-1.2-2.8-3.3-3.8c-1.2,2-3.3,2.9-6.3,2.7L372,840
			c-0.2-2-0.4-5.3-0.5-10c-0.2-4.3-0.4-7.6-0.7-9.9c1.5-1,3.5-1.6,6.2-1.6l6.5-0.2c0.5-0.5,0.8-1.2,0.8-1.9c0-0.4-0.1-0.9-0.3-1.6
			c-0.2-0.7-0.3-1.2-0.3-1.6c0-0.4,0.1-0.8,0.3-1.2c-0.6-1.2-1.4-2.1-2.5-2.6c-0.7,0.3-2.6,0.7-5.7,1.4c-3.1,0.6-5.1,0.9-5.8,0.9
			c-0.4,0-1.1-0.2-2-0.5c-0.9-0.3-1.5-0.5-2-0.5c-1.1,0-1.6,0.6-1.6,1.7c0,0.7,0.2,1.6,0.5,2.8c0.3,1.2,0.5,2.2,0.5,2.8
			c0,0.7-0.2,1.4-0.5,2c1.2,11.5,1.7,23.3,1.7,35.5v3c0,3.5,1.1,5.3,3.4,5.3c0.3,0,0.7-0.1,1.1-0.4c2.8-0.4,5.1-0.8,7-1.2
			c2.3-0.4,4-0.6,5.2-0.7c2.7-0.4,4.1-0.8,4.1-1.3c0-0.1,0-0.2-0.1-0.4v-0.5C387.2,858.8,387.3,858.4,387.4,858z M352.3,837
			c6.4-5.8,9.5-11.3,9.5-16.7c0-3.2-0.9-5.7-2.6-7.7c-1.7-1.9-4.1-2.9-7.2-2.9c-0.9,0-2.2,0.1-3.8,0.4c-1.7,0.3-2.9,0.4-3.8,0.4
			c-0.3,0-0.8-0.1-1.5-0.3c-0.7-0.2-1.2-0.3-1.5-0.3c-0.4,0-0.8,0.1-1.2,0.4c-0.4,3.8-0.6,8.4-0.6,13.6c0,2.7,0.1,6.9,0.2,12.3
			c0.1,5.5,0.2,9.6,0.2,12.3c0,4.3-0.1,8.1-0.4,11.6c0.8,0.8,1.3,1.5,1.5,2.2c0.5,0.1,1.5,0.2,3,0.6c1.4,0.3,2.5,0.5,3.1,0.5
			c3.3,0,6.7-1.4,9.9-4.2c3.3-2.8,4.9-5.8,4.9-9.1c0-3.7-0.8-6.5-2.3-8.5C358.3,840,355.8,838.4,352.3,837z M346.9,828.8
			c0-4.2,0.2-7.8,0.7-10.9h0.6c3,0,4.5,1.8,4.5,5.5c0,3.9-1.9,7.4-5.8,10.2l-0.1-2.9V828.8z M351.3,853.6c-1.5,2.5-2.9,3.8-3.9,3.8
			c-0.3,0-0.4-0.4-0.4-1.1c0-0.4,0-0.9,0.1-1.7c0.1-0.7,0.1-1.3,0.1-1.7c0-0.6-0.1-1-0.2-1.2c0-1.4-0.1-4.2-0.2-8.5
			c0.3-0.3,0.7-0.5,1.2-0.5c0.4,0,1.5,0.5,3.4,1.4l1.5,1.7c0.4,0.5,0.7,1.3,0.7,2.3C353.4,849.5,352.7,851.3,351.3,853.6z
			 M249.8,759.2c0,13.8,0.6,22.9,1.7,27.5c0.3,1.2,1.2,2.2,2.7,2.9c1.3,0.6,2.6,0.9,4,0.9c5.9,0,10.2-1.8,12.8-5.3
			c2.3-3,3.5-7.6,3.5-13.7l-1-16.8c-0.2-4.3-0.2-7.6-0.2-9.7c-0.2-4.1-1.4-6.1-3.6-6.1c-1.4,0-3,0.6-4.9,1.8
			c1.2,3.8,1.8,8.4,1.8,13.9c0,2,0.2,5,0.6,9.1c0.4,4,0.6,7,0.6,9.1c0,3-0.4,5.8-1.2,8.2c-1,3.4-2.7,5.1-5,5.1c-1.7,0-2.7-0.3-3.1-1
			c-1-1.8-1.5-7-1.5-15.9v-13.6c0-6.7,0.4-10.8,1.3-12.3c0.3,0,0.5-0.3,0.8-0.9c0.3-0.6,0.5-1,0.7-1.1c-0.5-1-1.1-1.6-1.8-1.6
			c-0.5,0-1.2,0.2-2,0.5c-0.9,0.4-1.5,0.5-2,0.5l-0.6-0.2c-0.3,0.3-0.9,0.5-1.9,0.7c-1,0.2-1.6,0.4-1.8,0.6c0.2,0.5,0.3,2.1,0.3,4.6
			c0,1.4-0.1,3.5-0.2,6.3C249.8,755.7,249.8,757.8,249.8,759.2z M253.5,760.9L253.5,760.9c-0.1-0.1-0.2-0.3-0.2-0.5L253.5,760.9z
			 M703.4,783.8v4.9c0.9,1.5,2,2.3,3.4,2.3c0.8,0,3.8-0.6,9.1-1.7c5.3-1.2,8.1-1.9,8.4-2.1c-0.2-0.4-0.2-1.1-0.1-1.8
			c0.2-1.1,0.3-1.7,0.3-1.9c0-1.5-1.3-2.3-3.8-2.3c-4.3,2.1-7.6,3.2-10,3.2c-0.2-2.6-0.5-10.8-0.7-24.4c-0.2-12.2-0.7-19.3-1.4-21.5
			c-0.3-1-1.4-1.6-3.2-1.6c-1.4,0-2.5,0.5-3.4,1.6c0.1,2.1,0.1,4.3,0,6.5c-0.1,4.2-0.2,6.4-0.2,6.5c0,3.2,0.3,8.6,0.9,16.2
			C703.3,774.6,703.5,780,703.4,783.8z M212.1,742.8l-1.2,0.7l-2.3,9.3c-1,4-1.9,7.1-2.7,9.2c-1.2-7.1-2.2-11.5-3.1-13.3
			c-1-1.4-1.6-2.3-1.9-2.6c-0.8-1-1.8-1.6-3.2-2c-0.9-0.2-2.2-0.4-3.9-0.4l-0.4,1.4c0,1.6,1.5,5.9,4.6,13c3.1,7.1,5.2,10.9,6.3,11.5
			c-1.4,8.4-2.9,14.5-4.5,18.2c-0.2,0.4-0.2,0.6-0.2,0.7c0,0.4,0.3,0.8,1,1.3c0.7,0.5,1.1,0.8,1.1,0.9l0.8,0.1c1.2,0,2-0.2,2.3-0.7
			c1.3-1.9,3.5-8.7,6.6-20.4c3.4-12.7,5.8-20.7,7.3-23.9c-1-1.1-2.3-1.8-3.8-2.1C213.2,743.3,212.3,743,212.1,742.8z M674.7,759.2
			c0,13.8,0.6,22.9,1.7,27.5c0.3,1.2,1.2,2.2,2.7,2.9c1.3,0.6,2.6,0.9,4,0.9c5.9,0,10.2-1.8,12.8-5.3c2.3-3,3.5-7.6,3.5-13.7
			l-1-16.8c-0.2-4.3-0.2-7.6-0.2-9.7c-0.2-4.1-1.4-6.1-3.6-6.1c-1.4,0-3,0.6-4.9,1.8c1.2,3.8,1.8,8.4,1.8,13.9c0,2,0.2,5,0.6,9.1
			c0.4,4,0.6,7,0.6,9.1c0,3-0.4,5.8-1.2,8.2c-1,3.4-2.7,5.1-5,5.1c-1.7,0-2.7-0.3-3.1-1c-1-1.8-1.5-7-1.5-15.9v-13.6
			c0-6.7,0.4-10.8,1.3-12.3c0.3,0,0.5-0.3,0.8-0.9c0.3-0.6,0.5-1,0.7-1.1c-0.5-1-1.1-1.6-1.8-1.6c-0.5,0-1.2,0.2-2,0.5
			c-0.9,0.4-1.5,0.5-2,0.5l-0.6-0.2c-0.3,0.3-0.9,0.5-1.9,0.7c-1,0.2-1.6,0.4-1.8,0.6c0.2,0.5,0.3,2.1,0.3,4.6
			c0,1.4-0.1,3.5-0.2,6.3C674.8,755.7,674.7,757.8,674.7,759.2z M678.4,760.9L678.4,760.9c-0.1-0.1-0.2-0.3-0.2-0.5L678.4,760.9z
			 M727,745c0,0.3,0.1,0.4,0.3,0.4c0.3,4.6,0.4,8.7,0.4,12.3v31.1c1.4,1.5,3.2,2.2,5.5,2.2c6.4,0,11.6-2.5,15.7-7.6
			c3.9-4.7,5.8-10.3,5.8-16.8c0-7.1-2.2-13.2-6.6-18.4c-4.6-5.6-10.4-8.4-17.3-8.4c-1.6,0-2.6,0.1-2.9,0.2c-0.6,0.2-0.9,0.6-0.9,1.2
			c0,0.1,0,0.3,0.1,0.6v0.7c0,0.4-0.1,0.7-0.2,0.9c0.3,0.2,0.4,0.4,0.2,0.7L727,745z M734.1,749.2v-3.5c3.9,1.6,6.8,4.9,8.7,9.6
			c1.5,3.8,2.3,8.2,2.3,13.2c0,5.3-3,10.7-9,16c-0.5-9.6-0.8-15-0.9-16.1C734.3,759.1,734,752.7,734.1,749.2z M302.8,846.4
			c-1.5-7.7-2.3-12.7-2.3-15.1c0-1.4-0.2-3.5-0.7-6.3c-0.5-2.7-0.7-4.8-0.7-6.3c0-1,0.1-1.9,0.3-2.9c-2.6-2-4.1-3.1-4.4-3.4
			c-0.4-0.1-1-0.2-1.8-0.6c-0.8-0.3-1.4-0.5-1.9-0.5c-0.5,0-1,0.2-1.4,0.7c-0.5,4.5-2.3,12.6-5.3,24.4c-2.7,10.8-4.1,18.7-4.1,23.9
			c0,0.2,0.2,0.4,0.6,0.7c0.4,0.2,0.6,0.4,0.7,0.7c0.8,0.9,1.8,1.3,3,1.3c0.9,0,2.1-0.2,3.5-0.6c1.8-0.5,2.6-1,2.6-1.6
			c0-0.4-0.2-0.8-0.6-1.2c0.2-3.3,0.5-5.4,1.1-6.3c3.3-0.5,4.8-0.7,4.4-0.7c0.5,0,0.9,0.1,1.3,0.2c0.2,2,0.4,4,0.6,6
			c0.4,2.3,1.6,3.5,3.6,3.5c2.8,0,4,0,3.7-0.1l1.6-1.2C305.6,859,304.4,854.1,302.8,846.4z M294.1,848c-1,0.1-1.7,0.3-2.1,0.7
			c1.5-7.6,2.4-12.5,2.5-14.7c0.9,6,1.5,10.6,1.7,13.6C295.8,847.8,295.1,847.9,294.1,848z M282.8,793c1.2-1.6,1.7-2.9,1.7-3.8
			c0-0.2,0-0.5-0.1-0.9c-0.1-0.4-0.1-0.7-0.1-0.9c0-0.4,0.1-0.8,0.4-1.2c-0.2-0.7-0.6-1.4-1.2-2.1c-0.7-0.7-1.3-1-2-1
			c-0.8,0-1.8,0.4-2.9,1.1c-1.1,0.7-1.6,1.5-1.6,2.2c0,0.9,1.1,2.1,3.3,3.6c0,0.3-0.4,1-1.1,2c-0.7,1-1.1,1.7-1.1,2.1
			c0,0.9,0.6,1.3,1.8,1.3C280.6,795.4,281.6,794.6,282.8,793z M231.7,738.1c-7.2,0-10.8,8.6-10.8,25.9c0,6.4,1.1,12.1,3.4,17.1
			c2.9,6.5,7.2,9.7,12.8,9.7c3.9,0,6.7-3.9,8.6-11.6c1.2-5.1,1.8-10.6,1.8-16.3c0-5.5-1.2-10.8-3.7-15.7
			C240.7,741.1,236.7,738.1,231.7,738.1z M237.8,776.3c-1.2,5.4-2.4,8.5-3.5,9.4c-3.8-8.4-5.7-16.3-5.7-23.5c0-6.7,1.1-12.7,3.2-18
			c2,1.8,3.8,5.1,5.3,10.1c1.4,4.4,2.1,8.3,2.1,11.4C239.4,768.2,238.9,771.7,237.8,776.3z M254.2,812.5c-1.6,0-2.6,0.1-2.9,0.2
			c-0.6,0.2-0.9,0.6-0.9,1.2c0,0.1,0,0.3,0.1,0.6v0.7c0,0.4-0.1,0.7-0.2,0.9c0.3,0.2,0.4,0.4,0.2,0.7l-0.2,0.8
			c0,0.3,0.1,0.4,0.3,0.4c0.3,4.6,0.4,8.7,0.4,12.3v31.1c1.4,1.5,3.2,2.2,5.5,2.2c6.4,0,11.6-2.5,15.7-7.6
			c3.9-4.7,5.8-10.3,5.8-16.8c0-7.1-2.2-13.2-6.6-18.4C266.9,815.3,261.1,812.5,254.2,812.5z M259.4,857.2c-0.5-9.6-0.8-15-0.9-16.1
			c-0.9-9.3-1.3-15.7-1.2-19.3v-3.5c3.9,1.6,6.8,4.9,8.7,9.6c1.5,3.8,2.3,8.2,2.3,13.2C268.4,846.4,265.4,851.8,259.4,857.2z
			 M412.5,856.1c0-1.5-1.3-2.3-3.8-2.3c-4.3,2.1-7.6,3.2-10,3.2c-0.2-2.6-0.5-10.8-0.7-24.4c-0.2-12.2-0.7-19.3-1.4-21.5
			c-0.3-1-1.4-1.6-3.2-1.6c-1.4,0-2.5,0.5-3.4,1.6c0.1,2.1,0.1,4.3,0,6.5c-0.1,4.2-0.2,6.4-0.2,6.5c0,3.2,0.3,8.6,0.9,16.2
			c0.5,6.9,0.7,12.2,0.6,16.1v4.9c0.9,1.5,2,2.3,3.4,2.3c0.8,0,3.8-0.6,9.1-1.7c5.3-1.2,8.1-1.9,8.4-2.1c-0.2-0.4-0.2-1.1-0.1-1.8
			C412.4,857,412.5,856.3,412.5,856.1z M469.7,737.7c-1.6-0.9-3.3-1.3-4.9-1.3c-1.2,0-2.4,0.5-3.6,1.4c-1.2,0.9-1.8,2-1.8,3.1
			c0,0.9,0.2,1.9,0.7,3c0.5,1.2,1.1,1.9,1.8,2.2c0.2,0.1,0.8,0.1,1.8,0.1c2.3,0,4.9-0.7,7.9-2.2c0.7-1.1,1-2,1-2.6
			C472.7,739.9,471.7,738.7,469.7,737.7z M464.4,741.9c-0.2,0-0.4,0-0.6-0.1c0.1-0.1,0.5-0.3,1.1-0.8c0.4-0.3,0.8-0.5,1.2-0.5
			c0.1,0,0.3,0.1,0.7,0.2c0.3,0.1,0.6,0.2,0.8,0.2c0.1,0,0.2,0,0.3-0.1C466.8,741.6,465.6,741.9,464.4,741.9z M713.7,846.4
			c-1.5-7.7-2.3-12.7-2.3-15.1c0-1.4-0.2-3.5-0.7-6.3c-0.5-2.7-0.7-4.8-0.7-6.3c0-1,0.1-1.9,0.3-2.9c-2.6-2-4.1-3.1-4.4-3.4
			c-0.4-0.1-1-0.2-1.8-0.6c-0.8-0.3-1.4-0.5-1.9-0.5c-0.5,0-1,0.2-1.4,0.7c-0.5,4.5-2.3,12.6-5.3,24.4c-2.7,10.8-4.1,18.7-4.1,23.9
			c0,0.2,0.2,0.4,0.6,0.7c0.4,0.2,0.6,0.4,0.7,0.7c0.8,0.9,1.8,1.3,3,1.3c0.9,0,2.1-0.2,3.5-0.6c1.8-0.5,2.6-1,2.6-1.6
			c0-0.4-0.2-0.8-0.6-1.2c0.2-3.3,0.5-5.4,1.1-6.3c3.3-0.5,4.8-0.7,4.4-0.7c0.5,0,0.9,0.1,1.3,0.2c0.2,2,0.4,4,0.6,6
			c0.4,2.3,1.6,3.5,3.6,3.5c2.8,0,4,0,3.7-0.1l1.6-1.2C716.5,859,715.3,854.1,713.7,846.4z M705,848c-1,0.1-1.7,0.3-2.1,0.7
			c1.5-7.6,2.4-12.5,2.5-14.7c0.9,6,1.5,10.6,1.7,13.6C706.7,847.8,706,847.9,705,848z M672.4,762.8c0-5.5-1.2-10.8-3.7-15.7
			c-3-6-7-9-12-9c-7.2,0-10.8,8.6-10.8,25.9c0,6.4,1.1,12.1,3.4,17.1c2.9,6.5,7.2,9.7,12.8,9.7c3.9,0,6.7-3.9,8.6-11.6
			C671.8,774,672.4,768.6,672.4,762.8z M662.8,776.3c-1.2,5.4-2.4,8.5-3.5,9.4c-3.8-8.4-5.7-16.3-5.7-23.5c0-6.7,1.1-12.7,3.2-18
			c2,1.8,3.8,5.1,5.3,10.1c1.4,4.4,2.1,8.3,2.1,11.4C664.4,768.2,663.9,771.7,662.8,776.3z M679.2,837c6.4-5.8,9.5-11.3,9.5-16.7
			c0-3.2-0.9-5.7-2.6-7.7c-1.7-1.9-4.1-2.9-7.2-2.9c-0.9,0-2.2,0.1-3.8,0.4c-1.7,0.3-2.9,0.4-3.8,0.4c-0.3,0-0.8-0.1-1.5-0.3
			c-0.7-0.2-1.2-0.3-1.5-0.3c-0.4,0-0.8,0.1-1.2,0.4c-0.4,3.8-0.6,8.4-0.6,13.6c0,2.7,0.1,6.9,0.2,12.3c0.1,5.5,0.2,9.6,0.2,12.3
			c0,4.3-0.1,8.1-0.4,11.6c0.8,0.8,1.3,1.5,1.5,2.2c0.5,0.1,1.5,0.2,3,0.6c1.4,0.3,2.5,0.5,3.1,0.5c3.3,0,6.7-1.4,9.9-4.2
			c3.3-2.8,4.9-5.8,4.9-9.1c0-3.7-0.8-6.5-2.3-8.5C685.3,840,682.8,838.4,679.2,837z M673.8,828.8c0-4.2,0.2-7.8,0.7-10.9h0.6
			c3,0,4.5,1.8,4.5,5.5c0,3.9-1.9,7.4-5.8,10.2l-0.1-2.9V828.8z M678.2,853.6c-1.5,2.5-2.9,3.8-3.9,3.8c-0.3,0-0.4-0.4-0.4-1.1
			c0-0.4,0-0.9,0.1-1.7c0.1-0.7,0.1-1.3,0.1-1.7c0-0.6-0.1-1-0.2-1.2c0-1.4-0.1-4.2-0.2-8.5c0.3-0.3,0.7-0.5,1.2-0.5
			c0.4,0,1.5,0.5,3.4,1.4l1.5,1.7c0.4,0.5,0.7,1.3,0.7,2.3C680.3,849.5,679.6,851.3,678.2,853.6z M639.7,742.5
			c-1.4-0.1-2.2-0.2-2.5-0.5c-0.4-0.1-0.9,0.2-1.3,0.8c-0.5,0.8-0.9,1.3-1,1.3c0.3,0.4,0.5,0.8,0.5,1.2c0,0.3-0.1,0.8-0.2,1.4
			c-0.2,0.6-0.2,1.1-0.2,1.4v0.6c-0.1,0.2-0.1,0.7-0.1,1.6c-0.1,0.6-0.2,1.1-0.4,1.4c-0.9,8.7-2.1,18.3-3.6,28.8
			c-2-7.8-3.7-14.7-5-20.5l-2-1c-1.8,0-3.2,1.6-4.2,4.9c-0.6,1.7-1.2,5-2,10c-0.7,4.2-1.3,6.7-2,7.7c-1.8-8.4-3-14.2-3.6-17.4
			c-1.2-7.2-1.8-13.1-1.8-17.6c0-1.8,0-2.8-0.1-3c-0.3-0.7-1.4-1.1-3.2-1.1c-1.4,0-2.7,0.4-3.8,1.1l4.3,23.7
			c2.3,12.6,3.9,19.7,4.8,21.4c0.1,0.2,0.8,0.5,1.9,0.9c1.2,0.4,1.9,0.6,2.3,0.6c0.3,0,0.7-0.2,1.2-0.5c0.5-0.3,0.9-0.5,1.2-0.5
			c1-1.9,1.9-4.4,2.5-7.6c0.8-4.1,1.5-6.6,1.9-7.7c0.9,3.5,1.5,6,1.8,7.3c0.9,3.5,1.7,5.7,2.6,6.6c0.3,0.3,1,0.5,2.1,0.8
			c1.1,0.3,1.8,0.6,2.1,0.9c1.6-0.1,2.6-0.2,2.8-0.5c1.1-1.4,2.7-8.4,4.8-21.2c2.4-14.5,3.8-22.5,4.3-24.1l-1.8-0.9
			C641.2,742.7,640.5,742.5,639.7,742.5z M581.1,812.5c-1.6,0-2.6,0.1-2.9,0.2c-0.6,0.2-0.9,0.6-0.9,1.2c0,0.1,0,0.3,0.1,0.6v0.7
			c0,0.4-0.1,0.7-0.2,0.9c0.3,0.2,0.4,0.4,0.2,0.7l-0.2,0.8c0,0.3,0.1,0.4,0.3,0.4c0.3,4.6,0.4,8.7,0.4,12.3v31.1
			c1.4,1.5,3.2,2.2,5.5,2.2c6.4,0,11.6-2.5,15.7-7.6c3.9-4.7,5.8-10.3,5.8-16.8c0-7.1-2.2-13.2-6.6-18.4
			C593.8,815.3,588,812.5,581.1,812.5z M586.3,857.2c-0.5-9.6-0.8-15-0.9-16.1c-0.9-9.3-1.3-15.7-1.2-19.3v-3.5
			c3.9,1.6,6.8,4.9,8.7,9.6c1.5,3.8,2.3,8.2,2.3,13.2C595.3,846.4,592.3,851.8,586.3,857.2z M629.7,846.4
			c-1.5-7.7-2.3-12.7-2.3-15.1c0-1.4-0.2-3.5-0.7-6.3c-0.5-2.7-0.7-4.8-0.7-6.3c0-1,0.1-1.9,0.3-2.9c-2.6-2-4.1-3.1-4.4-3.4
			c-0.4-0.1-1-0.2-1.8-0.6c-0.8-0.3-1.4-0.5-1.9-0.5c-0.5,0-1,0.2-1.4,0.7c-0.5,4.5-2.3,12.6-5.3,24.4c-2.7,10.8-4.1,18.7-4.1,23.9
			c0,0.2,0.2,0.4,0.6,0.7c0.4,0.2,0.6,0.4,0.7,0.7c0.8,0.9,1.8,1.3,3,1.3c0.9,0,2.1-0.2,3.5-0.6c1.8-0.5,2.6-1,2.6-1.6
			c0-0.4-0.2-0.8-0.6-1.2c0.2-3.3,0.5-5.4,1.1-6.3c3.3-0.5,4.8-0.7,4.4-0.7c0.5,0,0.9,0.1,1.3,0.2c0.2,2,0.4,4,0.6,6
			c0.4,2.3,1.6,3.5,3.6,3.5c2.8,0,4,0,3.7-0.1l1.6-1.2C632.5,859,631.3,854.1,629.7,846.4z M621,848c-1,0.1-1.7,0.3-2.1,0.7
			c1.5-7.6,2.4-12.5,2.5-14.7c0.9,6,1.5,10.6,1.7,13.6C622.7,847.8,622,847.9,621,848z M742.5,856.1c0-1.5-1.3-2.3-3.8-2.3
			c-4.3,2.1-7.6,3.2-10,3.2c-0.2-2.6-0.5-10.8-0.7-24.4c-0.2-12.2-0.7-19.3-1.4-21.5c-0.3-1-1.4-1.6-3.2-1.6c-1.4,0-2.5,0.5-3.4,1.6
			c0.1,2.1,0.1,4.3,0,6.5c-0.1,4.2-0.2,6.4-0.2,6.5c0,3.2,0.3,8.6,0.9,16.2c0.5,6.9,0.7,12.2,0.6,16.1v4.9c0.9,1.5,2,2.3,3.4,2.3
			c0.8,0,3.8-0.6,9.1-1.7c5.3-1.2,8.1-1.9,8.4-2.1c-0.2-0.4-0.2-1.1-0.1-1.8C742.4,857,742.5,856.3,742.5,856.1z M800.6,764.4
			c6.4-5.8,9.5-11.3,9.5-16.7c0-3.2-0.9-5.7-2.6-7.7c-1.7-1.9-4.1-2.9-7.2-2.9c-0.9,0-2.2,0.1-3.8,0.4c-1.7,0.3-2.9,0.4-3.8,0.4
			c-0.3,0-0.8-0.1-1.5-0.3c-0.7-0.2-1.2-0.3-1.5-0.3c-0.4,0-0.8,0.1-1.2,0.4c-0.4,3.8-0.6,8.4-0.6,13.6c0,2.7,0.1,6.9,0.2,12.3
			c0.1,5.5,0.2,9.6,0.2,12.3c0,4.3-0.1,8.1-0.4,11.6c0.8,0.8,1.3,1.5,1.5,2.2c0.5,0.1,1.5,0.2,3,0.6c1.4,0.3,2.5,0.5,3.1,0.5
			c3.3,0,6.7-1.4,9.9-4.2c3.3-2.8,4.9-5.8,4.9-9.1c0-3.7-0.8-6.5-2.3-8.5C806.6,767.4,804.1,765.8,800.6,764.4z M795.2,756.2
			c0-4.2,0.2-7.8,0.7-10.9h0.6c3,0,4.5,1.8,4.5,5.5c0,3.9-1.9,7.4-5.8,10.2l-0.1-2.9V756.2z M799.6,781c-1.5,2.5-2.9,3.8-3.9,3.8
			c-0.3,0-0.4-0.4-0.4-1.1c0-0.4,0-0.9,0.1-1.7c0.1-0.7,0.1-1.3,0.1-1.7c0-0.6-0.1-1-0.2-1.2c0-1.4-0.1-4.2-0.2-8.5
			c0.3-0.3,0.7-0.5,1.2-0.5c0.4,0,1.5,0.5,3.4,1.4l1.5,1.7c0.4,0.5,0.7,1.3,0.7,2.3C801.6,776.9,800.9,778.7,799.6,781z
			 M835.4,786.7c0-0.5,0.1-0.9,0.2-1.3c-0.3-0.2-0.5-0.5-0.5-0.9c0-0.2,0.1-0.5,0.2-0.8c-0.9-1.5-1.7-2.2-2.4-2.2
			c-1.1,0-3.1,0.5-6,1.6c-2.9,1.1-5,1.6-6.4,1.6c-0.3-1.2-0.4-2.8-0.4-4.9c0-2.4-0.1-4-0.2-5c4.7-1.2,7.9-1.8,9.8-1.8h0.7
			c0.2-0.1,0.6-0.5,1-1.3c0.5-0.7,0.7-1.2,0.7-1.5c0-0.6-0.2-1.1-0.7-1.6c-0.1-1.5-1.2-2.8-3.3-3.8c-1.2,2-3.3,2.9-6.3,2.7l-1.6-0.1
			c-0.2-2-0.4-5.3-0.5-10c-0.2-4.3-0.4-7.6-0.7-9.9c1.5-1,3.5-1.6,6.2-1.6l6.5-0.2c0.5-0.5,0.8-1.2,0.8-1.9c0-0.4-0.1-0.9-0.3-1.6
			c-0.2-0.7-0.3-1.2-0.3-1.6c0-0.4,0.1-0.8,0.3-1.2c-0.6-1.2-1.4-2.1-2.5-2.6c-0.7,0.3-2.6,0.7-5.7,1.4c-3.1,0.6-5.1,0.9-5.8,0.9
			c-0.4,0-1.1-0.2-2-0.5c-0.9-0.3-1.5-0.5-2-0.5c-1.1,0-1.6,0.6-1.6,1.7c0,0.7,0.2,1.6,0.5,2.8c0.3,1.2,0.5,2.2,0.5,2.8
			c0,0.7-0.2,1.4-0.5,2c1.2,11.5,1.7,23.3,1.7,35.5v3c0,3.5,1.1,5.3,3.4,5.3c0.3,0,0.7-0.1,1.1-0.4c2.8-0.4,5.1-0.8,7-1.2
			c2.3-0.4,4-0.6,5.2-0.7c2.7-0.4,4.1-0.8,4.1-1.3c0-0.1,0-0.2-0.1-0.4V786.7z M775.5,854.6c-0.9,0-2.1,0.6-3.4,1.7
			c-1.3,1.1-2,2.2-2,3.1c0,0.9,0.5,1.7,1.4,2.4c0.9,0.7,1.8,1.1,2.8,1.1c1,0,2-0.6,3-1.9c1-1.3,1.5-2.5,1.5-3.5c0-0.2,0-0.4-0.1-0.7
			C777.1,855.4,776.1,854.6,775.5,854.6z M767.6,856.1c0-1.5-1.3-2.3-3.8-2.3c-4.3,2.1-7.6,3.2-10,3.2c-0.2-2.6-0.5-10.8-0.7-24.4
			c-0.2-12.2-0.7-19.3-1.4-21.5c-0.3-1-1.4-1.6-3.2-1.6c-1.4,0-2.5,0.5-3.4,1.6c0.1,2.1,0.1,4.3,0,6.5c-0.1,4.2-0.2,6.4-0.2,6.5
			c0,3.2,0.3,8.6,0.9,16.2c0.5,6.9,0.7,12.2,0.6,16.1v4.9c0.9,1.5,2,2.3,3.4,2.3c0.8,0,3.8-0.6,9.1-1.7c5.3-1.2,8.1-1.9,8.4-2.1
			c-0.2-0.4-0.2-1.1-0.1-1.8C767.5,857,767.6,856.3,767.6,856.1z M418.9,790.3c1.3-0.4,2.2-0.8,2.7-1.2c0.1-0.3,0.1-0.6,0.1-0.9
			c0-0.4-0.3-1-0.8-1.7c-0.5-0.7-0.8-1.2-0.9-1.5c-0.6-2.4-0.9-6.9-0.9-13.5c0.6,0,1.5-0.1,2.6-0.2c1.1-0.1,2-0.2,2.6-0.2
			c0.8,0,1.6,0.1,2.3,0.2l0.6-0.7c0-0.3,0.2-0.8,0.6-1.5c0.4-0.7,0.6-1.2,0.6-1.6c0-1.5-1.2-2.2-3.5-2.2c-0.5,0-1.4,0.1-2.4,0.3
			c-1.1,0.2-1.9,0.3-2.4,0.3c-0.5,0-1-0.1-1.4-0.2c-0.7-5.1-1-9.5-1-13.3c0-3.3,0.2-6.5,0.7-9.4c0.9,0.1,2.2,0,3.8-0.1
			c1.9-0.1,3.1-0.2,3.8-0.2c0.4,0,1.1,0.2,1.9,0.5c0.8,0.3,1.4,0.5,1.9,0.5c0.3,0,0.5-0.1,0.7-0.2c-0.1-0.4,0.1-1.1,0.5-1.9
			c0.4-0.8,0.6-1.4,0.6-1.8c0-0.8-0.8-1.8-2.4-2.8c-6.1,1.2-10.1,1.7-12.1,1.6h-1.6c-0.2,0.3-0.7,0.6-1.6,0.9
			c-0.9,0.4-1.3,0.6-1.3,0.8c0,4.8,0.4,12.1,1.1,21.8c0.6,8.2,0.9,15.5,0.9,21.9v4.9l-0.5,0.5c0,0.7,0.8,1.3,2.3,2
			C416.8,791.1,417.7,790.7,418.9,790.3z M568.7,784.1c-0.7-0.7-1.3-1-2-1c-0.8,0-1.8,0.4-2.9,1.1c-1.1,0.7-1.6,1.5-1.6,2.2
			c0,0.9,1.1,2.1,3.3,3.6c0,0.3-0.4,1-1.1,2c-0.7,1-1.1,1.7-1.1,2.1c0,0.9,0.6,1.3,1.8,1.3c0.8,0,1.8-0.8,3-2.5
			c1.2-1.6,1.7-2.9,1.7-3.8c0-0.2,0-0.5-0.1-0.9c-0.1-0.4-0.1-0.7-0.1-0.9c0-0.4,0.1-0.8,0.4-1.2
			C569.8,785.4,569.3,784.7,568.7,784.1z M463,858c-0.3-0.2-0.5-0.5-0.5-0.9c0-0.2,0.1-0.5,0.2-0.8c-0.9-1.5-1.7-2.2-2.4-2.2
			c-1.1,0-3.1,0.5-6,1.6c-2.9,1.1-5,1.6-6.4,1.6c-0.3-1.2-0.4-2.8-0.4-4.9c0-2.4-0.1-4-0.2-5c4.7-1.2,7.9-1.8,9.8-1.8h0.7
			c0.2-0.1,0.6-0.5,1-1.3c0.5-0.7,0.7-1.2,0.7-1.5c0-0.6-0.2-1.1-0.7-1.6c-0.1-1.5-1.2-2.8-3.3-3.8c-1.2,2-3.3,2.9-6.3,2.7l-1.6-0.1
			c-0.2-2-0.4-5.3-0.5-10c-0.2-4.3-0.4-7.6-0.7-9.9c1.5-1,3.5-1.6,6.2-1.6l6.5-0.2c0.5-0.5,0.8-1.2,0.8-1.9c0-0.4-0.1-0.9-0.3-1.6
			c-0.2-0.7-0.3-1.2-0.3-1.6c0-0.4,0.1-0.8,0.3-1.2c-0.6-1.2-1.4-2.1-2.5-2.6c-0.7,0.3-2.6,0.7-5.7,1.4c-3.1,0.6-5.1,0.9-5.8,0.9
			c-0.4,0-1.1-0.2-2-0.5c-0.9-0.3-1.5-0.5-2-0.5c-1.1,0-1.6,0.6-1.6,1.7c0,0.7,0.2,1.6,0.5,2.8c0.3,1.2,0.5,2.2,0.5,2.8
			c0,0.7-0.2,1.4-0.5,2c1.2,11.5,1.7,23.3,1.7,35.5v3c0,3.5,1.1,5.3,3.4,5.3c0.3,0,0.7-0.1,1.1-0.4c2.8-0.4,5.1-0.8,7-1.2
			c2.3-0.4,4-0.6,5.2-0.7c2.7-0.4,4.1-0.8,4.1-1.3c0-0.1,0-0.2-0.1-0.4v-0.5C462.7,858.8,462.8,858.4,463,858z M468.8,748.2
			c-0.5-0.3-1-0.6-1.6-0.9h-0.3c-0.6,0.1-1,0.1-1.3,0.2c-0.4,0.7-0.9,1.1-1.6,1.1c-0.1,0-0.4-0.1-1.2-0.2c-0.4-0.1-0.7-0.1-1.1,0
			c-0.4,0.1-0.7,0.2-1,0.5c0.1,0.3,0.1,0.7,0,1.2c-0.1,0.5-0.2,1-0.2,1.2c0,0.5,0.2,0.9,0.6,1.2v3.9c0.1,3.3-0.1,7.7-0.3,12.9
			c-0.3,6-0.5,10.3-0.5,13v4c-0.1,1.1-0.5,2.4-1.2,3.8c0.1,0.7,0.6,1.2,1.6,1.6c0.8,0.4,1.6,0.6,2.4,0.6c0.4,0,1-0.2,1.7-0.5
			c0.8-0.4,1.4-0.5,1.8-0.5c0.3,0,0.7,0.1,1,0.2c0.9-0.2,1.3-1.1,1.3-2.7v-12.3c0-2.2,0-6.3,0.1-12.3c0.1-4.6,0.2-8.7,0.5-12.3
			c0.4-0.5,0.5-1,0.5-1.4C470.1,749.5,469.7,748.7,468.8,748.2z M443,788.9c-0.2-0.5-0.6-3-1.1-7.6c-0.5-4.4-0.7-7.1-0.7-8.1
			c0-0.9,0.4-1.4,1.3-1.4c0.3,2,1.2,4.6,2.6,7.7c2.1,4.8,3.2,7.4,3.2,7.6c0.2,1.4,0.3,2.2,0.4,2.5c0.3,0.9,0.9,1.4,1.7,1.5l3.5,0.2
			c1.9,0.1,2.9-0.5,2.9-1.8c0-0.2-1.4-3.3-4.2-9.4c-3-6.5-4.7-10.4-5-11.5c0.7-0.3,1.4-1.1,2.2-2.3c0.8-1.2,1.5-1.9,1.9-2.3
			c0.7-2.1,1-4.4,1-6.8c0-4.7-1-8.5-3-11.5c-2.3-3.5-5.7-5.3-10.1-5.3c-1.9,0-3.2,0.1-3.7,0.2c-1.3,0.4-2,1.3-2,2.7
			c0,2.7,0.2,6.7,0.7,11.8c0.4,5.3,0.6,9.2,0.7,11.8c0,2.1,0.3,5.4,0.8,9.7c0.5,4.4,0.8,7.7,0.8,9.9c0,0.7-0.2,1.1-0.7,1.3
			c0.2,0.5,0.8,1.2,1.8,1.8c1,0.7,1.9,1,2.5,1C441.5,790.7,442.4,790.1,443,788.9z M444.1,748.3c1.2,1.7,1.9,3.3,1.9,4.6
			c0,6.9-1.6,11.7-4.9,14.6c-0.2-2-0.3-4.3-0.3-6.9c0-3.1-0.1-8.3-0.3-15.5C441.6,745.6,442.8,746.6,444.1,748.3z M437.6,856.1
			c0-1.5-1.3-2.3-3.8-2.3c-4.3,2.1-7.6,3.2-10,3.2c-0.2-2.6-0.5-10.8-0.7-24.4c-0.2-12.2-0.7-19.3-1.4-21.5c-0.3-1-1.4-1.6-3.2-1.6
			c-1.4,0-2.5,0.5-3.4,1.6c0.1,2.1,0.1,4.3,0,6.5c-0.1,4.2-0.2,6.4-0.2,6.5c0,3.2,0.3,8.6,0.9,16.2c0.5,6.9,0.7,12.2,0.6,16.1v4.9
			c0.9,1.5,2,2.3,3.4,2.3c0.8,0,3.8-0.6,9.1-1.7c5.3-1.2,8.1-1.9,8.4-2.1c-0.2-0.4-0.2-1.1-0.1-1.8
			C437.5,857,437.6,856.3,437.6,856.1z M497.8,787.6c0-0.1,0-0.2-0.1-0.4v-0.5c0-0.5,0.1-0.9,0.2-1.3c-0.3-0.2-0.5-0.5-0.5-0.9
			c0-0.2,0.1-0.5,0.2-0.8c-0.9-1.5-1.7-2.2-2.4-2.2c-1.1,0-3.1,0.5-6,1.6c-2.9,1.1-5,1.6-6.4,1.6c-0.3-1.2-0.4-2.8-0.4-4.9
			c0-2.4-0.1-4-0.2-5c4.7-1.2,7.9-1.8,9.8-1.8h0.7c0.2-0.1,0.6-0.5,1-1.3c0.5-0.7,0.7-1.2,0.7-1.5c0-0.6-0.2-1.1-0.7-1.6
			c-0.1-1.5-1.2-2.8-3.3-3.8c-1.2,2-3.3,2.9-6.3,2.7l-1.6-0.1c-0.2-2-0.4-5.3-0.5-10c-0.2-4.3-0.4-7.6-0.7-9.9
			c1.5-1,3.5-1.6,6.2-1.6l6.5-0.2c0.5-0.5,0.8-1.2,0.8-1.9c0-0.4-0.1-0.9-0.3-1.6c-0.2-0.7-0.3-1.2-0.3-1.6c0-0.4,0.1-0.8,0.3-1.2
			c-0.6-1.2-1.4-2.1-2.5-2.6c-0.7,0.3-2.6,0.7-5.7,1.4c-3.1,0.6-5.1,0.9-5.8,0.9c-0.4,0-1.1-0.2-2-0.5c-0.9-0.3-1.5-0.5-2-0.5
			c-1.1,0-1.6,0.6-1.6,1.7c0,0.7,0.2,1.6,0.5,2.8c0.3,1.2,0.5,2.2,0.5,2.8c0,0.7-0.2,1.4-0.5,2c1.2,11.5,1.7,23.3,1.7,35.5v3
			c0,3.5,1.1,5.3,3.4,5.3c0.3,0,0.7-0.1,1.1-0.4c2.8-0.4,5.1-0.8,7-1.2c2.3-0.4,4-0.6,5.2-0.7C496.5,788.5,497.8,788.1,497.8,787.6z
			 M535.9,739.9c-1.6,0-2.6,0.1-2.9,0.2c-0.6,0.2-0.9,0.6-0.9,1.2c0,0.1,0,0.3,0.1,0.6v0.7c0,0.4-0.1,0.7-0.2,0.9
			c0.3,0.2,0.4,0.4,0.2,0.7L532,745c0,0.3,0.1,0.4,0.3,0.4c0.3,4.6,0.4,8.7,0.4,12.3v31.1c1.4,1.5,3.2,2.2,5.5,2.2
			c6.4,0,11.6-2.5,15.7-7.6c3.9-4.7,5.8-10.3,5.8-16.8c0-7.1-2.2-13.2-6.6-18.4C548.6,742.7,542.8,739.9,535.9,739.9z M541.1,784.6
			c-0.5-9.6-0.8-15-0.9-16.1c-0.9-9.3-1.3-15.7-1.2-19.3v-3.5c3.9,1.6,6.8,4.9,8.7,9.6c1.5,3.8,2.3,8.2,2.3,13.2
			C550.1,773.8,547.1,779.2,541.1,784.6z M541.6,809.6c-6.1,1.2-10.1,1.7-12.1,1.6h-1.6c-0.2,0.3-0.7,0.6-1.6,0.9
			c-0.9,0.4-1.3,0.6-1.3,0.8c0,4.8,0.4,12.1,1.1,21.8c0.6,8.2,0.9,15.5,0.9,21.9v4.9l-0.5,0.5c0,0.7,0.8,1.3,2.3,2
			c0.5-0.3,1.4-0.7,2.6-1.1c1.3-0.4,2.2-0.8,2.7-1.2c0.1-0.3,0.1-0.6,0.1-0.9c0-0.4-0.3-1-0.8-1.7c-0.5-0.7-0.8-1.2-0.9-1.5
			c-0.6-2.4-0.9-6.9-0.9-13.5c0.6,0,1.5-0.1,2.6-0.2c1.1-0.1,2-0.2,2.6-0.2c0.8,0,1.6,0.1,2.3,0.2l0.6-0.7c0-0.3,0.2-0.8,0.6-1.5
			c0.4-0.7,0.6-1.2,0.6-1.6c0-1.5-1.2-2.2-3.5-2.2c-0.5,0-1.4,0.1-2.4,0.3c-1.1,0.2-1.9,0.3-2.4,0.3c-0.5,0-1-0.1-1.4-0.2
			c-0.7-5.1-1-9.5-1-13.3c0-3.3,0.2-6.5,0.7-9.4c0.9,0.1,2.2,0,3.8-0.1c1.9-0.1,3.1-0.2,3.8-0.2c0.4,0,1.1,0.2,1.9,0.5
			c0.8,0.3,1.4,0.5,1.9,0.5c0.3,0,0.5-0.1,0.7-0.2c-0.1-0.4,0.1-1.1,0.5-1.9c0.4-0.8,0.6-1.4,0.6-1.8
			C544,811.6,543.2,810.7,541.6,809.6z M529.6,788.4c0-4.4-0.4-11.4-1.1-20.8c-0.9-9.1-1.3-16.1-1.2-20.9v-5
			c0.3-0.1,0.4-0.3,0.4-0.5c0-0.1-0.1-0.4-0.2-0.7c-0.2-0.4-0.2-0.7-0.2-0.8c-0.5-1.5-1.8-2.3-3.8-2.3c-1.1,0-2,0.2-2.8,0.7
			l-0.1,2.1c-0.2,4.3,0.1,10.1,0.7,17.4c0.8,8.4,1.2,14.2,1.2,17.4v1.6c-1.4-2.4-4.3-9.4-8.5-21.1c-3.8-10.6-6.4-16.4-7.7-17.4
			l-1.6-0.3c-0.7,0-1.9,0.3-3.5,0.8c-0.6,1.1-0.9,2-0.9,2.8c0,0.5,0.1,0.9,0.2,1.2c-0.2,3.8-0.2,7.6-0.2,11.5
			c0,10.9,0.6,22.4,1.9,34.5c1,1,1.7,1.8,2.1,2.3c-0.1,0.1,1,0.1,3.3,0.1c1.4,0,2-0.5,2-1.6l-0.7-27.1c0.9,1,3.3,5.8,7.2,14.3
			c3.6,7.7,6,11.7,7.4,12c1.5,1.6,2.7,2.4,3.7,2.4C528.9,790.8,529.6,790,529.6,788.4z M506.9,810.7c-7.2,0-10.8,8.6-10.8,25.9
			c0,6.4,1.1,12.1,3.4,17.1c2.9,6.5,7.2,9.7,12.8,9.7c3.9,0,6.7-3.9,8.6-11.6c1.2-5.1,1.8-10.6,1.8-16.3c0-5.5-1.2-10.8-3.7-15.7
			C515.9,813.7,511.9,810.7,506.9,810.7z M513.1,848.9c-1.2,5.4-2.4,8.5-3.5,9.4c-3.8-8.4-5.7-16.3-5.7-23.5c0-6.7,1.1-12.7,3.2-18
			c2,1.8,3.8,5.1,5.3,10.1c1.4,4.4,2.1,8.3,2.1,11.4C514.6,840.8,514.1,844.3,513.1,848.9z"/>
	</g>
</g>
</svg>
