<?xml version="1.0" encoding="utf-8"?>
<!-- Generator: Adobe Illustrator 21.0.0, SVG Export Plug-In . SVG Version: 6.00 Build 0)  -->
<svg version="1.1" id="Слой_1" xmlns="http://www.w3.org/2000/svg" xmlns:xlink="http://www.w3.org/1999/xlink" x="0px" y="0px"
	 viewBox="0 0 500 500" style="enable-background:new 0 0 500 500;" xml:space="preserve">
<g>
	<g>
		<path d="M135.9,365.9c-2.3-0.5-1.7,1.8-2,3c-0.4,1.8-0.6,3.7-1,5.5c-0.2,1-0.7,2-2,1.7c-1.2-0.3-0.9-1.3-0.8-2.1
			c0.3-1.8,0.8-3.7,0.8-5.5c0.1-2-1.5-3-3.2-3.6c-1.2-0.4-1.4,0.6-1.5,1.5c-0.9,6.4-1.8,12.8-2.5,19.2c-0.2,1.9,1.2,3.1,2.7,3.3
			c1.9,0.3,1.3-1.8,1.7-2.8c0.2-0.5,0.1-1.1,0.2-1.7c0.2-1.3,0.2-2.8,2-2.7c2.2,0.1,1.2,1.9,1.1,2.9c-0.3,2.8-0.2,5.2,3.4,6.1
			c1.5-3.6,1.5-7.5,2.2-11.2c0.6-3.2,1.2-6.5,1.7-9.7C139.1,367.6,137.6,366.3,135.9,365.9z M124.1,366.2c-0.3-1.6-1-3-3-3.2
			c-1.8-0.2-3.7-0.4-5.5-0.7c-1.7,0.5-4-1.1-5,1.1c-0.5,1.2,0.4,3.4,1.6,3.6c3.6,0.7,2.2,3,2,4.8c-0.4,3.7-1,7.4-1.4,11.1
			c-0.2,2.1,1,3.5,2.8,3.8c2.5,0.4,1.4-1.9,1.6-3c0.9-4.5,1.6-9,2.4-13.5c0.2-1.1,0.2-2.3,1.8-2.5
			C122.6,367.7,124.5,368.5,124.1,366.2z M245.7,228.1c-1.7-0.5-7-2.4-9.8-1.2C238.4,228.3,243.8,229,245.7,228.1z M362.4,389
			c7.2-3,12.1-17.7,8.1-24.4c-1.4-2.3-3.4-3.7-6.1-2.9c-2.7,0.7-5.6,1.4-5.9,5.2c-0.4,5.3-1,10.5-1.4,14.7
			C356.8,387.5,359.2,390.3,362.4,389z M363.4,369.8c0.2-1.1,0.5-2.4,2.1-2.2c1.4,0.2,1.7,1.5,1.6,2.6c-0.1,4.7-1.6,8.9-5.7,13
			C362.2,378.1,362.8,373.9,363.4,369.8z M351.9,390.6c1.4,0.3,1.7-0.7,1.9-1.7c1.1-7.2,2.2-14.4,3.2-21.6c0.3-2.1-1.4-2.7-2.9-3.1
			c-1.6-0.4-1.9,1-2,2.1c-0.9,6.9-1.8,13.9-2.7,20.8C349.2,389,350.1,390.2,351.9,390.6z M480.8,384.5c-0.7-1.6-2.7-1.7-4.5-1.3
			c-4.9,1-9.8,1.8-14.9,1.7c-10-0.3-10.5,2.4-5.7-9.5c3.2-7.9,5.5-15.9,5.6-24.5c0-1.2,0.5-3-0.9-3.5c-1.5-0.5-2,1.3-2.8,2.2
			c-8.7,10.4-18.8,19.1-31.1,25c-3.9,1.9-4.5,1.5-4.8-3c-0.8-13-3-25.9-3.1-38.9c-0.1-10.3-1.4-20.7,0.1-30.9
			c2.4-16.5-1.2-32.4-6-47.8c-3.3-10.6-5.6-21-6.1-31.9c-0.3-6.5-3-11-8.6-13.8c-12.1-5.9-24-12.2-37.4-15
			c-9.5-2-17.8-6.6-25.1-12.6c-5.6-4.6-11.2-8.7-17.8-11.7c-3.7-1.7-8.4-2.9-8.9-8.3c0-0.4-0.7-0.8-1.2-1c-4.2-2-5-4-2.1-7.5
			c4.3-5.1,7-10.6,6.8-17.3c0-0.3,0.1-0.6,0.2-0.8c0.7-2.7,2-3.5,4.5-0.6c-0.8-3.4-0.3-5.7,2-7.3c2.6-1.8,2.5-3.9,1.9-6.8
			c-0.6-3-3.5-4.9-3.6-7.6c-0.2-5.6,0.1-11.7,1.8-16.6c2.6-7.4,2.5-14.5,2.2-21.8c-0.1-2-0.4-4.1-1.6-5.7
			c-5.9-7.7-11-16.1-18.9-22.1c-1.8-1.3-2.4-3.3-3.1-5.4c-1.7-5.5-5.1-10.3-10.6-12.2c-5.5-1.8-11.5-2.9-17.2-3
			c-4.5,0-9.4-3.5-13.7,0.5c-0.2,0.2-1,0-1.2-0.2c-1.9-2.9-5.5-1.9-7.9-3.6c-1.9-1.4-4-1.2-5.4,1.3c-1.1,2.1-2.7,2.2-4.5,0.5
			c-2.8-2.6-5.9-1.7-8.5,0.1c-1.7,1.2-3.5,2.3-5.1,3.3c-3.2,2-5.7,3.8-9.9,1.8c2.9,2.3,1.5,3.9-0.6,5.4c7.1,0.7,11.4-4.8,17.5-6.9
			c-0.7,2.3-1.6,3.5-3.3,4c-1.3,0.4-2.6,0.9-2.8,2.3c-0.8,4.4-4.4,5.7-8,6.7c-2.1,0.6-3.4,1.7-4.8,3.3c-2.3,2.7-3.4,6.6-7.4,7.8
			c-2.2,0.7-3.8,2.4-5.6,3.8c-0.3,0.2-0.4,0.6-0.6,0.9c0.9,1.2,2.8,0.1,3.2,1.4c-3.5,6.3-8.1,11.9-8.1,19.5c0,0.9-0.1,2.1-1.6,2
			c-1.3-0.1-1.8,1-2,1.9c-1.2,4.8-2.4,9.8-1.1,14.7c0.7,2.7,0.1,6.2,3.4,7.8c0.3,1.1,0.6,2.2,1,3.2c-1.2,1.1-3.8-0.1-4.1,2.1
			c-0.2,1.9-0.8,2.5-2.6,2.3c-1.1-0.1-2,0.4-2,1.7c0,1.3,1.1,1.8,2,1.8c4.7,0.3,5.6,4,6.2,7.5c0.4,2.2,1.1,3.9,3.2,5.2
			c0.3-1.4,0.3-2.4,0.3-3.6c-0.2-3.9-2.5-8-0.6-11.5c2.3-4.3,3.4-9,5.5-13.3c2-4.1,4.6-8.1,4.7-12.7c0-5.4-0.3-5.6,5.3-6.2
			c1.3-0.1,2.6-0.3,3.8-0.7c14.8-5.1,30-8.2,45.6-9.7c3.6-0.3,7.6-1.6,10.6-3.6c2.6-1.7,4.5-2.7,7.7-1.9c4.4,1.1,7,5.2,11.2,6.3
			c5.7,1.5,8.1,6,10.9,10.3c0.9,1.3,0.4,2.8-0.6,3.5c-3.2,1.9-2.7,4.6-2.4,7.5c0.3,3.8,0,7.9-3.7,9.8c-3.4,1.8-1.6,3.5-0.2,4.2
			c3.9,1.9,2.7,5.2,3,8.3c-3-8.7-10-11-18.1-11.1c-4.1-0.1-8.3,0-12.4,0c-3.2,0-6.6,1-6.8,5.5c-0.1,2-1.4,3.7-2.7,5.2
			c-3.1,3.4-4.2,7.3-2.7,11.8c0,0,0,0,0,0c0,0.1,0,0.1,0.1,0.2c-0.5,6.2-1.1,12.4-1.5,18.6c-0.1,1.2,0.5,3.6,0.9,3.4
			c2.8-2.1,4.1,1.6,6.2,1.5c0.6-1.8-0.4-3.1-1.1-4.1c-2.9-3.8-3.6-8.2-3.5-12.8c0-1.9,0-3.8-0.5-5.6c0-0.3,0-0.7,0-1
			c0-0.1,0-0.3,0-0.4c5.4-3.7,11.1-6.9,17.3-9.2c2.8-1,5.9-0.9,8.9,0.3c1.1,0.4,2.4,0.8,2.1,2.3c-0.4,1.5-1.8,1.1-2.9,0.9
			c-1.1-0.2-2.2-0.8-3.3-0.8c-2.4-0.1-5.2-1.7-6.4,2.1c-0.8,2.5-0.3,4.4,2,5.9c3.1,2.1,5,0.3,6.8-2c0.1-0.2,0.5-0.2,0.8-0.3
			c1.2,1.9,2.8,3.3-0.3,5.5c-1.6,1.1-3.1,2.6-5.7,3.5c4.4,0.9,7.3-0.5,10.1-2.9c3.5-3,1.7-6.9,2-10.3c4.5,0.3,7.1,4.1,11.1,5.3
			c1.6,0.5,2.1,2.2,2.2,3.9c0.2,2.5-0.4,4.8-0.9,7.2c-1.2,5.9-6,11.4-1.9,17.8c0.2,0.3,0,0.8,0,1.3c-0.4,6.2-3.1,11.8-4.7,17.7
			c-0.6,2.1-2.1,4.2-4.9,5c-2.1,0.6-3.8,2.3-4.9,4.5c-2.3,4.8-4.9,9.5-9.7,12.3c-2.1,1.3-4.1,2.6-5.6,4.5
			c-5.9,7.8-14.5,9.3-23.5,9.1c-11.8-0.3-20.5-6.4-26.8-16.1c-1.8-2.8-3.7-5.5-5.2-8.5c-2.2-4.2-5.8-7.7-6.8-12.7
			c-0.2-1.1-0.9-1.8-2.1-1.7c-4.5,0.5-5.8-2.2-6.2-6c-0.2-2.1-1-4.1-0.7-6.3c0.3-2.5-0.5-3.6-3.5-3c-8,1.5-14.7,6.3-22.5,8.3
			c-2.6,0.7-4.6,3.6-7.2,4.5c-9.8,3.5-18,9.9-27,14.7c-14,7.5-27,16.6-41.3,23.6c-1.3,0.6-2.8,1.3-4.1,0.5c-3.8-2-4.8,1.3-5.4,3.3
			c-1.5,5.1-2.2,10.3-3.4,15.5c-0.3,1.3-0.1,2.9-2.3,4c0.6-2.9,1.1-5.4,1.6-7.8c0.1-0.7,0.2-1.5-0.6-1.9c-1.1-0.5-1.6,0.4-1.8,1.2
			c-1,3.6-3,7.2,0.3,10.8c1.9,2.1,1.9,4.7,1.5,7.3c-0.3,1.7-0.6,3,1.5,3.8c0.9,0.3,2.6,0.9,1.5,2.3c-0.8,1.1-2.2,0.6-3.1-0.2
			c-2.4-2.3-2.8,0.1-3.5,1.5c-0.7,1.5-0.2,3,0.4,4.5c1.3,3-0.3,6.3,0.6,9.4c-4.2,0.7-2,3.7-2.3,6c-0.4,2.7-0.1,5.3-1.1,8
			c-1.6,4.3-0.6,9.1-0.7,13.6c-0.1,5.9,2.7,11.8,1.1,18c-0.3,1.1,0.6,1.8,1.7,2.1c1,0.2,2.3-0.3,3.1,1.1c-1.4,1.9-4.5,3.9-3.2,6
			c1.8,3.1,0.4,5.4,0,8.1c-0.4,1.9-1.1,5.4-0.5,5.7c4.4,2,0.7,3.2-0.3,4.5c-0.6,0.8-1.9,1.5-0.8,2.4c2.5,2.1,0.5,2.9-0.8,4.2
			c-0.7,0.7-1.8,1.5-1.1,2.5c2.3,2.1,4.2-2.2,6.5-0.1c-1.5,1.6-3.3,2.4-5.1,3.3c-2,1-3.8,2.6-1.3,4.9c1,0.9,0.8,1.6,0.3,2.6
			c-2.3,5.1-3.5,10.6-4.5,16c-1.7,9.1-1.6,9-10.3,4.6c-11.9-6-21.2-14.9-29.9-24.7c-0.6-0.7-1.1-2-2.3-1.6c-1.1,0.4-1,1.6-1,2.6
			c-0.1,4.5,0.1,8.9,1.2,13.2c1.6,6.3,3.2,12.5,6,18.4c0.9,1.9,0.8,3.1-1.7,2.9c-8.5-0.6-17.2-0.2-25.5-2.9C2.5,381,1.1,381,0,382.2
			v0.9c7.2,6.6,14.5,13,22.6,18.4c22.7,15.3,47.5,25,74.7,28.2c6.5,0.8,6.5,0.8,8-6.1c1.3-6.5,1.3-6.5,7.6-4.9
			c0.7,0.2,1.4,0.3,2.1,0.5c10.1,2,20.4,3,30.7,3.5c8.7,0.5,8.7,0.4,9.3-8.1c0.2-2.1,0.6-4.3,0.6-6.4c-0.1-4,1.5-5,5.4-4.3
			c31.1,5.1,62.5,5.8,93.9,5.6c23.7-0.2,47.3-2.1,70.7-5.4c2.9-0.4,4.2,0,4.4,3.1c0.1,3.1,0.7,6.3,1.1,9.4c0.9,6.5,1.3,6.9,8,6.6
			c10.3-0.4,20.6-1.7,30.7-3.8c3-0.6,6.7-3.2,8.8-1.4c2,1.6,2,5.7,2.6,8.8c0.5,2.6,1.5,3.5,4.3,3.2c14.3-1.5,28.1-5.3,41.6-10.2
			c19.4-7,36.5-17.7,51.9-31.3C480.2,387.3,481.4,385.8,480.8,384.5z M192,103.3c-0.2-0.7-0.2-1.4-0.2-2.1c0.2,0.3,0.5,0.5,0.7,0.8
			c0.1,0.1,0.1,0.1,0.1,0.2C192.5,102.6,192.3,103,192,103.3z M194.6,109.1c-0.4,0.6-0.9,1.6-1.5,1.2c-0.9-0.5-1-1.2-0.8-1.8
			c0.3-0.3,0.7-0.6,1.1-0.9c0.1-0.2,0.2-0.3,0.3-0.5C194.6,107.3,195.4,107.6,194.6,109.1z M206.4,71.3c-1.1,0.8-3.1,1-3.5,0.2
			c-1.4-3.1,1.7-4.1,3.3-6.3C207.4,67.4,208.9,69.3,206.4,71.3z M210,60.9c-0.6,1-2.1,1.4-3,0.4c-1.5-1.7-0.6-3.5,0.4-5.1
			c0.7-1.2,1.6-1.5,2.6,0c1.5,2.4,3.8-1.2,5.6,1.1C213.6,58.3,211.3,58.8,210,60.9z M219.7,49.8c-0.9,0.3-1.1-0.6-1.1-1.3
			c0-1.2,0.8-1.7,1.9-1.8c0.7,0,1.4,0.1,1.7,1C221.7,48.9,220.8,49.5,219.7,49.8z M239.9,29c-0.3,0.7-0.9,1.1-1.7,1.1
			c-0.7-0.1-1-0.5-0.7-1.1c0.3-0.7,0.9-1.1,1.7-1.1C239.8,27.9,240.2,28.3,239.9,29z M291.7,117.7c-0.8,1.1-1.9,1.2-3,0.5
			c-2.7-1.8-5.4-3.5-7.5-6.6c4.2-1,7.2,0.5,10.1,2.7C292.5,115.3,292.6,116.5,291.7,117.7z M95.5,304.8c4-11.1,8.9-22.1,12-33.5
			c2.6-9.7,8.3-18.1,10.3-28c1-4.9,4.9-7.8,8.3-11.1c1.3-1.3,3-2.2,4.4-3.5c14.4-12.8,31.1-22.3,47.7-31.7c4.5-2.6,8.7-0.6,12.9,0
			c6.3,0.9,6.8,0.7,6.7-5.8c-0.1-5.8,0-11.7,0-18.3c3.5,2.9,4.2,6.5,5,9.7c1.2,5,4.4,9,6.3,13.6c0.6,1.5,1.8,1.3,2.9,1.2
			c6.3-0.5,9.7,3.2,12.3,8.2c0.2,0.4,0.2,0.9,0.5,1.2c2.3,2.7,2.4,6.2,8.5,5.7c8.6-0.7,17.3-1.5,26-2.1c4.8-0.4,7.4-4.7,12-5
			c3.6-0.3,7.1-1.6,10.9-0.7c3,0.7,6,0.3,7.7-3.1c0.6-1.1,1.7-2,2.5-2.9c0.6-0.6,1.1-1.5,2.1-1.1c1.2,0.4,1.2,1.4,1.3,2.4
			c0.9,6.1,1,6.4,6.9,5.2c6.7-1.4,10.7,1.5,14.4,6.6c3.5,4.8,7.6,9.2,11.7,13.6c6.4,7,12.9,13.9,17.1,22.6c1.2,2.5,2.8,4.7,4.8,6.6
			c2.8,2.5,3.7,5.2,2.2,8.9c-1,2.4,1.8,3.9,2.1,6.1c0.7,5.1,5.5,9.4,2.6,15.1c-0.8,1.7-0.2,3.6,0.5,5.4c0.7,1.9,2.3,2.4,4,2.8
			c2,0.4,2.7-1.1,3.6-2.4c0.9-1.4,0.7-3.3,2.7-4.8c1.9,5.3,4.1,10.2,5.4,15.4c1.2,4.4-1.5,8.3-3.1,12.2c-2,4.9-4.7,9.5-7.1,14.2
			c-1.6,3.1-2.6,6.3-3.7,9.6c-0.5,1.5,0.7,5.3-3.5,3.6c-0.2-0.1-1.1,1.5-1.6,2.3c-2.9,5-6.7,8.6-12.9,9.5c-4.3,0.6-7.1-0.8-8.9-4.3
			c-2.6-5.2-5.1-10.6-7.2-16c-2.2-5.4-0.8-10.4,3.2-14.5c0.6-0.7,1.2-1.2,1.2-2.1c-0.3-7.4,2.5-14.7,0-22.2c-0.9-2.6-1.3-5.6,0-8.4
			c0.7-1.3,0.1-1.8-1.1-2.1c-6.2-1.4-11.1-5.9-17.4-7.2c-1.7-0.4-4.4-0.7-2.5-3.8c0.1-0.2,0.1-0.4,0.1-0.7c-0.4,0-0.8,0-1.3,0
			c-1.1,0-2.3,0.2-3.1-1c1.4-1.2,3.5-0.1,4.7-1.5c-3.7-1.1-6.2-4.3-9-6.5c-3.5-2.8-7.6-4.1-11.2-6.4c-2.1-1.3-4.5-1.9-2.8-5.2
			c0.7-1.3-0.8-2-1.7-2.5c-2.1-1.2-4.4-2-6.9-2.3c-8.6-1-17.1-3.4-25.8-3.6c-0.6,0-1.4,0.2-1.7-0.1c-5.4-6.4-12.2-1.7-18.3-2
			c-10.1-0.6-20.3-0.2-30.4-0.4c-3.6-0.1-6.9,1.5-10.6,1.1c-0.6-0.1-1.5,0.5-1.8,1.1c-3.5,8.2-11.8,8.6-18.5,11.4
			c-2.8,1.1-5.8,1.7-8.6,2.7c-3,1.1-5.6,2.5-1.3,5.9c-2.2,0.3-3-1.3-4.3-1.6c-1.4-0.4-2.7-2.5-4.2-1c-1.8,1.9,1.6,2.2,1.5,3.9
			c-2.1,0.3-3.7,2.2-6.2,1.9c-0.9-0.1-2.1,0.6-1.8,1.4c1.8,4.5,1,9.2,1.2,14c2-0.8,1.2-2.9,3.6-3.8c-1.9,7.5,4.4,10.4,7.8,15
			c2,2.7,2.3,4.9,0.6,8.1c-2.7,5-4.4,10.5-6.5,15.9c-2,5.1-5.5,5.9-9.3,1.8c-1.2-1.2-2-2.8-2.9-4.2c-1.6-2.5-3.3-4.4-6.5-5
			c-3.3-0.6-5.1-3.6-6.9-6.2c-6-8.6-12.4-16.8-19.4-24.9c-3.3,12.7-9.5,24-11.7,36.6c-0.5,2.8-4.2,4.9-6.3,7.6
			C91.7,315.9,93.5,310.3,95.5,304.8z M262.6,283c1-1.1,2.1-2.2,3.7-1.6c1.4,0.5,1.3,2,1.5,3.3c2.9,14.2-0.7,28-2.5,41.9
			c-0.6,4.5-0.7,9.1-1,13.7c-0.3,5.8-0.7,11.7-0.9,17.5c-0.1,2.2-1.1,2.8-3.2,2.9c-9.7,0.6-19.5,0.7-29.2,0.5
			c-3.3-0.1-4.5-1.2-4.7-4.8c-0.5-11.1-2-22.2-2.3-33.3c-0.3-10.3-2.4-20.4-2.9-30.7c-0.3-6.6-2.2-13-2.4-19.6c0-1.3-0.8-3,1-3.8
			c1.5-0.7,2.6,0.1,3.9,1c2.5,1.9,3.8,1.9,6.1-1.4c3.3-4.7,9.2-0.9,13.9-1.7c2.6-0.4,2.6,2.1,3.1,3.8c1.3,4.3,2.6,8.7,4.1,13.8
			c1.6-3,2.7-5,3.8-7c0.8-1.5,2.3-2.1,3.6-1.4c1.8,0.9,0.1,2.2-0.3,3.2c-1.6,4-3.3,7.9-5,11.9C258.3,290.6,259.8,286,262.6,283z
			 M81.3,349.8c1.9-3.9,3.8-7.8,6.8-11.8c0.6,6.3-5.8,9.8-3.7,16C81.6,353.1,80.2,352,81.3,349.8z M104.5,419.2
			c-2.5,9.5-2.3,9.4-12.3,7.9c-12.8-2-24.8-6.8-36.5-11.9c-8.4-3.7-16.6-8-24.4-12.9c-6.7-4.3-13.6-8.6-19-14.1c5.5,0,11.2,0,16.8,0
			c1.4,0,2.9,0,4.3-0.2c4.3-0.6,4.5-1.2,2.7-5.3c-3.4-7.7-6.3-15.6-7.8-24c-0.2-0.9-0.6-1.9,0.1-2.9c3.8,1.2,5.4,4.8,8.2,7.2
			c9.6,8.1,19.7,15.3,32.1,18.4c1.7,0.4,1.6,1.1,1.1,2.4c-1.1,2.8-1.7,5.8-3,8.5c-1.7,3.6-1.6,6.3,1.1,9.7c3.2,4.1,6.3,8.1,9.9,11.9
			c1.3,1.4,2.8,2.6,4.9,3c-3.8-3.9-7.4-7.9-10.2-12.8c2.9,0.1,4.8,2.1,7,3.1c7.2,3.2,14.6,5.9,22.2,7.7
			C104.2,415.4,105.3,416.3,104.5,419.2z M153.3,406.4c-0.5,3.1-1,6.3-0.9,9.4c0.1,3.9-1.9,5.1-5.2,5c-9-0.3-17.9-1.2-26.8-3.2
			c-11.5-2.7-22.6-6.8-33.7-10.6c-5.7-2-10.8-5.7-16.2-8.5c-2.3-1.2-1.3-3-0.8-4.4c3-8.6,6.1-17.2,9.1-25.7c1-2.8,1.3-6.7,3.3-8.1
			c2.3-1.6,5.2,2,8.1,2.5c1.4,0.2,2.7,1,4,1.3c7.9,2.2,7.9,2.2,6.1,10.2c-1.1,4.9-2.3,9.7-3.7,14.6c-0.5,1.9-0.1,2.8,1.5,4.2
			c7.7,6.7,15.4,13.3,24.4,18.1c1.9,1,3.7,2.2,6.8,2c-9.8-5.6-18.6-11.1-26.6-19.9c9.6,2,18.1,3.8,26.5,5.6c6.9,1.4,13.7,3,20.7,3.6
			C152.6,402.6,153.7,403.6,153.3,406.4z M327.6,401.3c-9.2,1-18.4,2.2-27.7,3.1c-24.7,2.5-49.5,2.8-74.3,2.3
			c-30-0.5-59.8-3.7-89.4-8.5c-11.3-1.8-22.4-4.9-33.8-6.2c-2.5-0.3-4.4-1.6-3.4-4.9c3.2-11.7,6.3-23.4,9.3-35.2
			c0.5-2.1,1.6-2.3,3.4-1.8c5.6,1.4,11.2,3,17,4c11,1.9,21.7,5.3,33.1,5.9c4.9,0.3,10.2,1.8,15.4,2.3c10.7,1.1,21.4,2.4,32.3,2.2
			c4.4-0.1,9.1,1.2,13.6,1.3c22.1,0.4,44.1,0.3,66.1-1.8c23.5-2.2,46.8-5.3,69.9-10.1c5-1,10-2.3,14.9-3.6c2-0.5,2.7-0.1,3.2,2
			c2.7,11.7,5.5,23.3,8.5,35c0.7,2.8-1.1,2.8-2.7,3.1c-13.1,3-26.2,6.2-39.4,8.3C338.2,399.4,333,401.2,327.6,401.3z M333.9,419.6
			c-0.5-4.7-1-9.6-1.6-14.5c-0.2-1.4,0.5-2,1.9-2.2c16.7-2.6,33.2-5.6,49.7-9.9C369.9,406.6,352.9,414.6,333.9,419.6z M363.3,418.1
			c-7.3,1.7-14.9,1.8-22.4,2.7c10.3-2.9,19.4-8.4,28.5-13.7c6-3.5,10.7-8.5,15.9-12.8c5.3-4.4,3-8.9,2.5-13.6
			c-0.4-3.2-1.1-6.4-2.1-9.5c-1.2-3.4-0.2-5,3.2-5.6c4.2-0.7,8.1-2.2,11.7-4.4c2.1-1.2,3-0.7,3.8,1.4c3.9,10.7,7.7,21.4,11.8,32.1
			c1,2.5,0.3,3.3-1.8,4.6C398.7,409.3,381.1,413.9,363.3,418.1z M456.5,402.3c-19.6,12.6-41,20.9-64,24.9c-4,0.7-6.7,0.7-8.5-0.4
			c-0.9-0.8-1.5-2-2-3.8c-0.3-1-0.5-1.9-0.8-2.9c-0.2-0.8-0.4-1.4-0.5-1.9c0-0.2,0-0.3,0-0.5c-0.1-2,1.3-1.9,2.5-2.2
			c11.4-2.7,22.1-7.4,33-13.5c-2.4,4.3-5.4,7.3-7.6,10.8c5.4-3.9,9.4-9.1,12.6-14.9c0.7-1.3,1.1-2.9-0.2-4.4
			c-0.5-0.6-0.6-1.5-0.9-2.3c-3.5-8.6-3.4-9.3,5.4-12c10.9-3.3,18.9-10.7,26.8-18.2c1.4-1.3,2.6-2.9,4.4-4.1
			c0.1,5.5-1.3,10.6-2.9,15.6c-1.3,3.9-3,7.7-4.7,11.5c-1.2,2.5-0.5,3.3,2.1,3.6c7.3,0.9,14.5,0.2,21.7-1.3c1.4-0.3,2.6-1.1,4.3,0
			C471.1,393,463.7,397.6,456.5,402.3z M344.3,388c0.3,1.7,0.2,3.8,2.7,3.6c2.7-0.2,1.7-2.5,1.7-4.1c0-5.6-0.2-11.1-0.2-16.7
			c0-2.4,0.6-4.9-3-5.5c-3.7-0.6-4.8,1.6-5.6,4.4c-2.2,7-4.5,14.1-6.7,21.1c0,0,0,0,0,0c0,0,0,0,0,0c0,0,0.1-0.1,0.1-0.1
			c0.5,1.2,1.3,2.5,2.7,2.4c1.7-0.1,1.6-1.8,1.8-3c0.8-3.4,3.5-3.7,6.3-4.3C344.1,386.6,344.2,387.3,344.3,388z M340.6,380.8
			c0.9-2.6,1.6-4.4,2.6-7.4C343.5,376.8,345.7,379.5,340.6,380.8z M329.4,382.4c-3.4-2.7-3.3-5.5,0.1-8.6c0,1.6-0.1,3.2,0,4.7
			c0.1,1.2,1.2,2,2.3,2.2c0.8,0.2,1.4-0.4,1.5-1.2c0.7-2.8,1.6-5.5,0.8-8.4c-0.6-2.2-2.2-3.3-4.3-3.8c-1.9-0.5-3.2,0.6-4.4,2
			c-5.4,6.2-5,11.5,1.2,17.4c0.7,0.7,2.4,1.2,1.3,2.6c-0.8,1-1.8-0.1-2.7-0.4c-0.5-0.2-1-0.6-1.5-0.9c-1.2-0.9-2.4-0.9-3.4,0.3
			c-0.9,1.2,0,2.1,0.7,3c3.3,4.5,7.7,4.3,11.8-0.6C334.1,387,332.2,384.6,329.4,382.4z M236.6,101.8c-7.2-1.6-14.5-1.8-21.7-0.5
			c-4.6,0.8-5.2,5.2-6.6,8.8c-1,2.5,2.9,2.9,2.3,5.2c3.6,0.1,3.5,3,4.1,5.5c0.2,0.9,0.9,1.8,1.5,2.6c0.3,0.5,0.8,0.8,1.4,0.5
			c0.5-0.3,1-0.7,0.5-1.4c-1.9-3.1,1.3-3.6,2.4-5.5c4.3,6.6,5,6.7,9.9,1.5c1.3-1.4,1.9-0.3,2.7,0.4c1.4,1.1,3,3.7,3.7-0.5
			c2.1,0.8,4.1,2.3,6.5,1.4c0.9-0.4,0.8-1.4,0.7-2.3c-0.3-1.8-1-3.4-2.5-4.4c-3.1-1.9-3.7-4.6-3.1-7.8
			C238.9,103.5,238.6,102.2,236.6,101.8z M216.1,114.1c5.8-4.3,10.5-2.8,15.2-0.3C226.5,113.3,221.9,113.7,216.1,114.1z
			 M262.4,123.9c1.7-1.3,3.5-2.6,5.2-3.9C264.9,120.1,262.7,120.8,262.4,123.9z M229.3,127.6c-2.9-0.1-5.8-0.3-9.9-0.5
			C223.4,129.3,226.4,128.7,229.3,127.6z M250.7,155.3c-3.6,3.3-6.1,3.4-9.4-0.1c-1.4-1.5-2.9-1.7-4.4-1.5c-1.5-0.2-3-0.5-3.4,1.2
			c-0.5,1.9-0.1,3.9,1.5,5.1c2.5,1.8,4.2,4.2,6,6.7c1.4,2,2.9,4,5.4,4.7c2.5,0.8,4.4,1.1,6.6-1.8c1.8-2.3,3.7-5.2,7-6.4
			c3.3-1.2,2.6-4.1,1.4-6.5C260.1,154.3,252.6,153.5,250.7,155.3z M310.5,370c-5.4,0.4-7.9,2.6-8.5,8.1c-0.4,3.7-0.7,7.4-1.3,11.1
			c-0.4,2.8-1.1,5.6,1.8,7.4c2.5,1.5,4.6-0.7,6.8-1.4c1.4-0.4,2.1-1.3,1.5-3c-0.5-1.5-1.1-2.7-3.3-2c-0.5-0.5-1.8,1.5-2.1-0.5
			c-0.2-1.1,0.1-2.3,1.5-2.7c0.8-0.2,1.6-0.6,2.4-0.9c1.1-0.4,2.3-0.8,1.9-2.3c-0.3-1.2-0.5-2.9-2.1-2.8c-2.6,0.3-1.8-1.2-1.8-2.6
			c0.1-2.8,2.4-2.8,4.2-3.4c1.4-0.4,2.3-1.1,1.9-2.8C313.1,370.7,312.3,369.9,310.5,370z M254.7,175.6c-7.7,1.9-15.6,1.6-22.6-2.7
			c-3.8-2.3-8.4-2.3-11.4,0.7c-0.6,0.6-1.2,1.3-0.9,2.2c0.4,1.2,1.4,0.6,2.2,0.5c1.4-0.2,2.8-0.5,3.7-0.6c1.1,0,1.8-0.1,2.3,0
			c9.5,3,19.3,3.8,29.2,3.7c1.5,0,3.2,0,3.6,1.6c0.4,1.4-1.3,2.1-2.3,2.7c-5.3,2.9-11,3.8-17,2.7c-1.2-0.2-3.4-1.2-3.6,0.7
			c-0.2,1.9,2,1.4,3.4,1.3c3.8-0.1,7.4,0.4,11.1,1.3c4.2,1,9.2-1.5,10.9-5.5c1.5-3.7,3.7-6.1,8.2-4.6c1,0.3,2,0.1,2.6-0.9
			c0.4-0.7,0.2-1.3-0.2-2c-2.2-3.3-8.6-5.6-12.6-4.4C258.7,173,256.6,175.1,254.7,175.6z M261.6,373.5c-2.8,0.4-5.6,0.8-8.4,1.3
			c-0.9,0.2-2.3,0.1-2.3,1.4c0,1.3,0.5,3.3,1.5,3.3c4.6,0.2,2.3,3.3,2.2,5.2c-0.1,2.8-0.7,5.7-1.1,8.5c0,0,0.1,0,0.1,0
			c-0.1,0.8-0.2,1.7-0.3,2.5c-0.3,2,0.6,3.5,2.6,3.7c2.4,0.3,1.6-1.9,1.9-3c0.9-4.9,1.6-9.8,2.4-14.8c0.2-1.6,0.4-3.1,2.5-3.4
			c1.3-0.2,2.7-0.6,2-2.4C264.2,374.5,263.4,373.2,261.6,373.5z M184.9,371.5c-2.5-0.9-3.9,1.1-5.2,2.7c-3.6,4.6-3.3,9.1,0.7,13.5
			c1.2,1.4,3,2.4,3.6,4.6c-2.6,0.1-3.6-1.6-5.1-2.6c-0.9-0.6-1.9-0.9-2.8-0.2c-1.1,0.8-0.4,1.8,0.1,2.6c1.6,2.5,3.3,4.7,6.5,5.1
			c2.4,0.3,4.2-0.5,5.4-2.6c1.2-2,0.9-3.9-0.5-5.5c-1.1-1.3-2.3-2.5-3.5-3.8c-2.6-2.7-2.1-5.2,0.7-8.5c0,2.3-0.1,3.6,0,4.9
			c0.2,1.7,1.2,3.2,2.9,3.3c1.8,0.1,1.6-1.8,1.7-2.9c0.3-1.7,0.5-3.4,0.4-5.1C189.6,373.9,187.4,372.4,184.9,371.5z M173.9,367.1
			c-2.4,0-1.8,2.6-1.7,4c0.2,2.1-2.9,5.7,0.7,6.1c3.5,0.4,2.3-4.1,3.2-6C176.3,368.9,175.3,367.1,173.9,367.1z M162.6,369.8
			c-1.7,0-2.7-0.1-3.7,0c-1.2,0.2-3-0.6-3.4,1c-0.4,1.5,0.3,3.6,1.8,3.9c2.9,0.6,2.2,2.2,1.9,4.1c-0.6,3.8-0.9,7.7-1.4,11.5
			c-0.3,2.3,0.9,3.8,2.9,4c2,0.1,1.5-2,1.8-3.3c0.7-4.2,1.3-8.5,2-12.7c0.3-1.9,0.4-4.1,3.4-3.8c1.8,0.1,1.5-1.1,1-2.3
			C167.6,368.4,164.4,370.3,162.6,369.8z M298,371.5c-2-0.6-1.9,1.2-2.1,2.4c-0.4,2.5-0.7,5.1-1.2,7.6c-0.2,1.2-0.8,2.4-2.2,2.1
			c-1.4-0.3-0.6-1.7-0.6-2.5c0.2-1.8,0.7-3.7,0.9-5.5c0.2-1.8-1.2-2.4-2.6-2.9c-1.2-0.4-2,0.1-2.1,1.3c-0.9,7.2-1.8,14.4-2.6,21.7
			c-0.2,1.6,1.2,2.3,2.5,2.5c1.8,0.4,1.6-1.3,1.8-2.3c0.3-1.2,0.3-2.6,0.5-3.8c0.2-1.3,0.5-2.9,2.1-2.8c2,0.2,0.7,2,1,3
			c0,1.2-0.2,2.4,0.1,3.5c0.3,1.2,1.4,1.8,2.6,1.8c1.1,0,1.3-1,1.5-1.8c1.1-7,2.3-14.1,3.3-21.2C301.2,372.6,299.5,371.9,298,371.5z
			 M216.9,374c-1.6-0.4-1.6,1.3-1.9,2.3c-1.2,3.4-2.3,6.8-3.4,10.3c-0.5-2.4-0.3-4.7-0.2-7c0.1-1.8-0.7-3.1-2.5-3.5
			c-1.9-0.4-2,1.2-2.5,2.3c-1,2.6-1.9,5.3-3.1,8.4c0-3.8,0-7.1,0-10.3c0-1.7-0.9-2.6-2.4-3.1c-1.5-0.4-1.9,0.6-1.9,1.6
			c-0.5,7-0.6,14-0.1,21.1c0.1,1.6,1.6,2.3,3.1,2.6c1.8,0.4,2.1-1.1,2.5-2.2c0.8-2,1.4-4,2.6-7.2c0.4,3.3,0.5,5.3,0.8,7.3
			c0.3,1.8,2,2.3,3.5,2.8c1,0.3,1.7-0.4,1.9-1.3c2.1-6.9,4.2-13.7,6.1-20.6C219.9,375.7,218.5,374.4,216.9,374z M153,381.6
			c-0.2,0-0.3,0-0.5,0c0-3.4,0-6.9,0-10.3c0-2.5-1.9-3-3.6-3.6c-1.3-0.5-3-1-3.8,0.6c-3.1,6.3-5.4,12.9-7.3,19.7
			c-0.4,1.4,0.8,2.4,1.9,3.1c1.2,0.7,1.7-0.2,1.8-1c0.6-2.8,2.2-3.7,4.9-3.5c3.4,0.2,1.8,2.9,2.4,4.5c0.5,1.4,1.4,2.2,2.8,2.2
			c1.7-0.1,1.3-1.5,1.3-2.6C153,387.7,153,384.7,153,381.6z M146.3,381.3c-1.4-0.1-1.1-1-0.8-1.8c0.6-1.6,1.2-3.1,1.8-4.6
			c0.2,0,0.4,0.1,0.6,0.1c0,1.6,0,3.3,0,4.9C148,381.1,147.3,381.3,146.3,381.3z M281.1,387.6c-3.9-3.5-4-5.4-0.5-8.8
			c0.1,1.7,0,3.4,0.3,5c0.2,1.1,1.3,1.9,2.5,2.2c0.7,0.2,1.1-0.3,1.3-0.8c0.9-3.2,1.9-6.4,0.5-9.6c-1.2-2.8-5-3.9-7.2-2.4
			c-5.6,3.6-6.3,12.1-1.6,16.7c1.2,1.2,2.9,1.9,3.3,4.2c-2.3,0.3-3.4-1.3-4.9-1.9c-1.5-0.7-3.8-0.8-3.3,1.4c0.6,2.8,2.9,4.9,6,5.6
			c2.7,0.6,4.7-0.6,6.2-2.8C286.3,392.4,283.8,390,281.1,387.6z M231.2,374.1c-2.4-0.6-1.8,1.8-2.1,2.8c-0.7,2.3-0.8,4.8-1.2,7.2
			c-0.2,1-0.9,1.5-1.8,1.4c-1.4-0.1-0.9-1.1-0.8-1.9c0.3-1.8,0.7-3.7,0.9-5.5c0.3-2.4-1.5-3.5-3.3-3.7c-1.8-0.2-1.6,1.6-1.7,2.8
			c-0.8,6.1-1.6,12.2-2.5,18.3c-0.3,2.1,0.7,3.5,2.5,3.8c2.4,0.5,1.6-1.8,2-2.9c0.2-0.7,0.2-1.4,0.3-2.1c0.2-1.6,0.4-3.6,2.6-3.1
			c1.7,0.4,0.4,2.1,0.3,3.3c0.1,1.1-0.1,2.3,0.3,3.3c0.4,1.1,1.5,1.8,2.7,1.7c1.1,0,1.2-1.1,1.3-1.9c1.1-6.6,2.2-13.3,3.3-19.9
			C234.5,375.5,232.9,374.5,231.2,374.1z M247.9,388.7c0-4.1-0.2-7.2,0.1-10.3c0.3-3.1-1.6-3.8-4-4.5c-2.6-0.7-3.6,0.8-4.4,2.9
			c-0.7,1.9-1.5,3.7-2.1,5.6c-1.5,4.5-2.9,8.9-4.3,13.4c-0.5,1.6,0,2.9,1.5,3.6c2,0.9,2.2-0.9,2.4-2c0.5-3,2.9-3.5,5.1-3.6
			c2.8-0.1,1.5,2.5,1.9,3.9c0.5,1.7,1.6,2.5,3.1,2.2c1.8-0.3,1.3-1.9,1.2-3.1C248.3,393.8,248.1,390.8,247.9,388.7z M242.5,388.1
			c-0.4,0.4-1.9,0.3-1.8-0.1c0.5-2.1,1.2-4.1,2-6.5c0.4,0.6,0.6,0.7,0.5,0.8C243.1,384.2,244.3,386.4,242.5,388.1z"/>
	</g>
</g>
</svg>
