<?xml version="1.0" standalone="no"?>
<!DOCTYPE svg PUBLIC "-//W3C//DTD SVG 20010904//EN"
 "http://www.w3.org/TR/2001/REC-SVG-20010904/DTD/svg10.dtd">
<svg version="1.0" xmlns="http://www.w3.org/2000/svg"
 width="1074.000000pt" height="934.000000pt" viewBox="0 0 1074.000000 934.000000"
 preserveAspectRatio="xMidYMid meet">

<g transform="translate(0.000000,934.000000) scale(0.100000,-0.100000)"
fill="#ffffff" stroke="none">
<path d="M3531 9290 c-186 -50 -424 -144 -502 -197 -24 -17 -81 -49 -126 -73
-88 -45 -139 -93 -148 -138 -6 -26 -16 -52 -71 -182 -45 -107 -95 -327 -107
-473 l-11 -138 -45 -52 c-24 -29 -56 -77 -70 -107 -26 -54 -26 -59 -26 -280 0
-278 2 -285 112 -343 l71 -37 -5 -118 c-6 -149 -14 -178 -61 -228 -21 -23 -74
-95 -119 -160 -148 -216 -219 -289 -357 -371 -99 -58 -422 -223 -437 -223 -30
0 -600 -292 -704 -361 -123 -81 -284 -236 -349 -333 -21 -32 -47 -86 -58 -118
-49 -159 -69 -525 -34 -628 26 -77 32 -369 15 -749 -8 -163 -14 -388 -14 -501
1 -180 5 -230 34 -415 96 -619 111 -719 126 -825 22 -151 47 -249 91 -352 47
-108 62 -184 70 -343 8 -163 -1 -209 -78 -389 -74 -174 -109 -310 -148 -573
-17 -114 -37 -251 -45 -303 -8 -52 -18 -137 -21 -187 l-7 -93 2246 0 2247 0 4
22 c3 13 7 124 10 248 3 124 15 313 27 420 26 241 28 524 5 694 -8 65 -13 123
-10 127 8 14 69 27 244 53 204 31 285 58 442 148 68 39 222 119 343 178 288
141 397 221 416 308 5 21 27 89 50 152 52 147 56 225 14 340 -25 67 -28 94
-34 245 -3 94 -9 175 -14 182 -4 6 -9 60 -12 119 -5 103 -6 109 -47 183 -24
41 -45 80 -47 86 -2 5 -57 126 -122 268 -66 142 -119 260 -119 263 0 2 -18 41
-41 87 -22 45 -49 114 -59 152 -10 39 -24 82 -31 98 -7 15 -10 30 -7 33 3 3
966 0 2139 -7 1174 -7 2169 -9 2211 -5 l77 8 7 41 c6 40 -4 1338 -11 1345 -6
7 -830 21 -1230 22 -220 0 -607 -3 -859 -7 l-459 -6 6 -180 c4 -99 11 -185 16
-190 6 -6 35 1 76 18 53 21 83 26 149 26 96 1 136 -13 195 -67 76 -68 92 -107
102 -251 4 -71 8 -176 9 -234 0 -58 3 -140 6 -182 l7 -76 52 -16 c29 -8 56
-22 59 -31 11 -30 6 -91 -9 -104 -19 -16 -196 -25 -309 -15 -94 7 -126 24
-126 66 0 28 63 87 97 91 51 6 55 28 49 293 -3 132 -10 257 -16 278 -23 77
-136 117 -224 79 -40 -18 -50 -29 -72 -76 -42 -93 -57 -201 -51 -371 6 -170
15 -205 50 -205 36 0 92 -41 95 -70 1 -15 -8 -37 -22 -55 l-24 -30 -148 -3
c-195 -5 -225 0 -248 39 -28 47 -15 76 48 105 44 20 55 30 60 55 10 53 27 812
19 873 l-8 59 -46 16 c-81 28 -97 58 -63 122 8 17 13 34 9 37 -4 4 -373 7
-820 7 -654 0 -817 -3 -827 -13 -10 -10 -14 -133 -16 -587 -3 -453 -6 -575
-16 -575 -7 0 -30 15 -52 34 l-39 34 19 36 c33 62 21 118 -69 316 -44 97 -48
113 -55 210 -6 107 -8 110 -70 220 -11 19 -20 51 -20 70 -1 98 -68 294 -122
356 -37 42 -175 97 -390 155 -87 23 -158 46 -158 50 0 21 799 22 2158 3 433
-6 2575 11 2759 23 56 3 107 10 115 14 11 7 14 146 16 747 l2 739 -1072 6
c-590 4 -1758 7 -2595 7 l-1523 0 0 -756 0 -756 -42 7 c-110 18 -242 60 -336
106 -65 32 -145 61 -215 79 -122 30 -147 39 -147 49 0 11 35 64 99 151 35 47
89 140 122 206 56 114 63 123 109 148 27 15 58 40 70 55 11 16 49 103 84 193
121 308 146 417 111 478 -25 44 -16 88 56 272 39 99 80 217 91 261 33 130 24
162 -111 417 -22 41 -47 102 -55 135 -53 225 -129 292 -562 493 -218 102 -257
113 -399 118 -98 3 -134 1 -194 -16z m-178 -725 c43 -14 92 -25 108 -25 17 0
54 -7 82 -14 29 -8 99 -20 157 -25 167 -17 262 -30 298 -42 18 -6 70 -14 116
-18 89 -9 140 -29 209 -83 73 -58 99 -146 86 -290 -5 -54 -14 -109 -19 -123
-17 -44 -13 -75 10 -75 26 0 26 -29 1 -62 -12 -15 -21 -44 -23 -73 -4 -66 -17
-72 -122 -57 -47 7 -128 15 -179 19 -93 6 -94 6 -123 -23 -17 -16 -45 -41 -64
-55 -31 -24 -35 -32 -52 -130 -10 -57 -21 -180 -24 -274 -7 -174 -13 -203 -53
-239 -15 -13 -29 -17 -51 -13 -44 9 -70 -20 -70 -77 0 -25 -4 -48 -10 -51 -15
-9 -12 -35 3 -35 8 0 24 11 37 25 30 32 47 32 62 -1 8 -16 29 -34 55 -45 46
-20 56 -45 28 -73 -20 -20 -77 -15 -285 27 -191 38 -266 48 -295 39 -42 -12
-34 -26 22 -35 178 -29 234 -40 287 -59 34 -11 86 -23 116 -27 51 -6 55 -8 58
-35 5 -44 -10 -51 -113 -51 -63 0 -98 -4 -107 -13 -17 -17 8 -34 41 -27 12 3
39 1 58 -6 46 -15 27 -29 -39 -29 -66 0 -60 -16 10 -30 31 -6 72 -16 90 -22
27 -8 37 -7 51 6 25 23 54 20 80 -8 l23 -24 -72 -86 c-40 -47 -75 -86 -79 -86
-30 0 -138 -23 -148 -31 -14 -12 -64 -4 -106 18 -16 8 -53 18 -83 23 -60 10
-72 17 -223 138 -117 94 -146 126 -203 229 -50 92 -63 101 -54 39 13 -84 -25
-48 -89 85 -26 54 -35 87 -35 124 0 89 -10 123 -36 129 -24 6 -24 6 -24 160
l0 154 -47 18 c-63 23 -100 49 -118 83 -15 30 -30 116 -40 224 l-6 67 46 0
c49 0 49 0 46 70 -3 56 22 129 52 153 22 17 22 17 3 32 -11 8 -28 15 -38 15
-39 0 -9 50 38 64 46 14 109 -98 124 -223 11 -81 37 -144 63 -149 18 -4 36 51
58 168 17 96 52 163 110 212 158 135 159 136 136 239 -21 88 -29 198 -19 234
22 77 137 97 285 50z m5436 -970 c47 -41 65 -100 59 -203 -8 -130 -74 -276
-138 -302 -59 -24 -65 14 -20 127 17 41 30 90 30 109 0 31 -5 37 -35 50 -48
20 -75 66 -75 129 0 79 33 113 112 114 25 1 46 -7 67 -24z m-2475 5 c2 -3 8
-85 12 -183 4 -98 11 -180 16 -183 4 -3 32 6 61 20 62 30 161 48 208 37 77
-18 151 -77 189 -152 24 -46 39 -209 40 -419 0 -69 3 -155 7 -193 l6 -67 39
-11 c21 -5 48 -19 59 -30 26 -26 25 -80 -2 -105 -19 -17 -38 -19 -183 -19
-138 0 -166 3 -189 18 -20 13 -27 26 -27 48 0 46 16 67 60 79 72 19 70 11 70
302 0 289 -2 302 -66 358 -29 25 -43 30 -87 30 -63 0 -114 -24 -143 -67 -37
-56 -49 -142 -48 -358 0 -222 7 -255 50 -255 33 0 84 -50 84 -83 0 -14 -9 -35
-19 -48 -18 -23 -26 -24 -171 -27 -195 -5 -216 -1 -237 44 -16 32 -16 36 3 62
11 15 40 36 63 48 24 12 48 30 54 40 7 13 11 168 11 459 1 527 3 513 -88 527
-10 2 -28 15 -39 30 -18 24 -18 30 -7 58 7 17 20 35 29 40 16 10 235 10 245 0z
m-687 -52 c20 -18 23 -32 23 -92 1 -74 12 -152 24 -164 4 -4 49 -10 99 -13 82
-6 93 -9 114 -33 36 -43 29 -87 -18 -111 -18 -10 -57 -15 -108 -15 -72 0 -81
-2 -92 -22 -29 -54 -19 -538 12 -604 11 -23 22 -30 50 -32 56 -5 75 35 85 181
8 114 20 137 74 137 52 0 60 -17 60 -127 0 -186 -41 -310 -114 -347 -49 -25
-119 -31 -174 -17 -56 16 -119 73 -132 120 -5 20 -13 181 -18 358 -9 341 -11
353 -58 353 -35 0 -64 37 -64 81 0 56 8 68 51 75 22 4 44 14 49 24 5 9 14 64
19 121 10 92 14 107 36 127 33 28 52 28 82 0z m2493 4 c21 -17 24 -30 29 -135
4 -64 10 -119 14 -123 5 -5 119 -20 184 -23 46 -3 58 -87 18 -126 -22 -23 -32
-25 -109 -25 l-84 0 -7 -73 c-4 -40 -5 -179 -3 -310 l3 -237 26 -26 c20 -19
32 -24 49 -19 31 10 47 57 59 170 11 108 30 148 72 153 16 2 33 -6 49 -23 22
-24 25 -35 24 -103 -2 -100 -30 -248 -55 -289 -42 -67 -145 -99 -239 -73 -57
15 -114 72 -129 128 -16 58 -30 268 -31 448 0 83 -3 172 -6 197 -6 42 -9 46
-50 62 -72 27 -86 84 -33 129 17 14 36 26 42 26 32 1 40 20 48 118 4 56 13
111 20 124 26 50 70 61 109 30z m-4066 -57 c35 -46 69 -54 106 -26 34 25 40
26 40 7 0 -7 -10 -20 -21 -28 -18 -11 -20 -20 -14 -47 7 -33 9 -35 59 -46 16
-3 30 -14 33 -25 8 -30 33 -24 40 10 6 30 33 46 66 38 12 -3 12 -15 -3 -90
-24 -115 -60 -192 -120 -253 -53 -55 -100 -135 -100 -172 0 -16 -10 -30 -34
-44 -30 -17 -65 -71 -80 -121 -9 -30 -23 -20 -41 30 -12 32 -19 89 -22 183 -5
124 -3 139 18 188 19 45 21 58 11 85 -7 18 -12 41 -12 52 0 10 -9 55 -20 99
-11 44 -20 97 -20 119 0 34 2 38 20 33 14 -4 25 2 36 19 21 32 27 31 58 -11z
m5381 -225 c22 -11 44 -20 51 -20 6 0 19 9 29 20 11 12 31 20 49 20 66 0 76
-26 76 -199 0 -77 -4 -151 -9 -164 -12 -30 -40 -41 -81 -32 -26 6 -32 14 -45
63 -31 113 -48 145 -90 169 -51 29 -74 29 -134 -2 -56 -28 -61 -37 -61 -112 0
-48 4 -58 31 -84 17 -16 47 -31 67 -34 66 -11 197 -55 250 -86 35 -20 60 -44
79 -76 25 -43 28 -57 28 -143 0 -111 -15 -150 -83 -218 -87 -88 -193 -108
-328 -63 l-71 24 -39 -27 c-47 -32 -65 -33 -90 -5 -17 19 -19 38 -19 188 1
195 12 230 72 231 31 0 51 -35 74 -127 24 -95 38 -117 91 -144 114 -58 238 5
238 121 0 61 -43 101 -140 129 -202 59 -211 62 -251 98 -63 57 -73 84 -74 193
0 79 4 102 22 136 44 82 100 129 183 155 50 15 134 10 175 -11z m-1876 -20
c86 -48 96 -93 109 -521 5 -146 12 -272 17 -279 14 -23 27 17 35 111 8 99 24
129 71 129 51 0 59 -19 59 -148 0 -135 -11 -185 -49 -223 -63 -62 -151 -61
-226 4 l-39 34 -74 -38 c-95 -48 -148 -57 -217 -35 -63 20 -132 84 -169 158
-28 57 -35 150 -16 218 30 109 95 159 270 206 122 32 151 50 169 100 20 56 8
109 -34 151 -28 28 -40 33 -82 33 -28 0 -58 -7 -71 -16 -20 -14 -22 -24 -22
-98 0 -104 -9 -118 -83 -124 -50 -4 -58 -2 -81 21 -22 22 -26 35 -26 88 0 82
16 130 59 180 57 68 96 80 236 77 105 -3 125 -7 164 -28z m-4843 -550 c19 -43
56 -86 167 -195 78 -77 189 -176 247 -221 58 -44 174 -133 258 -197 84 -65
159 -120 167 -123 8 -4 15 -13 15 -22 0 -26 -359 -362 -387 -362 -18 0 -63 73
-178 290 -54 102 -118 217 -143 255 -25 39 -69 111 -98 161 -185 321 -216 449
-147 621 l26 66 24 -109 c14 -60 36 -134 49 -164z m1310 -75 c6 -16 -38 -120
-63 -147 -9 -10 -28 -18 -43 -18 -14 0 -31 -5 -37 -11 -15 -15 -27 129 -12
147 7 8 31 14 59 14 30 0 52 6 60 15 16 19 29 19 36 0z m-135 -464 c-14 -26
-2 -33 47 -25 l40 6 -13 -70 c-8 -39 -23 -100 -34 -136 -11 -37 -26 -96 -32
-131 -6 -36 -12 -65 -14 -65 -2 0 -52 48 -111 106 l-107 106 55 56 c30 31 82
93 114 137 48 65 59 76 62 58 2 -12 -2 -31 -7 -42z m5880 -439 c20 -17 23 -30
28 -130 3 -61 11 -115 16 -121 6 -5 51 -11 101 -13 73 -2 96 -7 113 -22 30
-27 28 -76 -4 -106 -24 -22 -33 -24 -121 -22 l-95 3 3 -310 3 -309 24 -26 c66
-70 108 -8 131 194 6 52 16 98 23 102 20 13 75 9 91 -7 23 -23 30 -97 19 -205
-13 -134 -56 -215 -130 -246 -38 -17 -160 -18 -200 -3 -45 17 -82 60 -99 114
-18 61 -33 293 -34 517 l0 167 -38 11 c-52 13 -74 40 -70 81 3 34 19 47 81 69
26 9 27 12 27 82 1 97 14 148 45 176 32 27 55 28 86 4z m-5879 -64 c40 -15 54
-70 83 -333 16 -148 55 -636 55 -695 0 -58 -18 -22 -49 96 -16 60 -45 150 -65
199 -43 110 -126 447 -126 512 0 46 14 157 26 216 6 29 12 30 76 5z m-483 -43
c29 -77 62 -248 62 -320 0 -35 -7 -80 -17 -104 -13 -33 -15 -58 -10 -114 6
-62 5 -70 -8 -57 -16 18 -92 168 -165 326 -72 158 -73 162 -59 183 16 23 157
141 168 141 5 0 18 -25 29 -55z m5758 -175 c74 -37 110 -83 118 -150 3 -25 10
-168 15 -319 9 -250 16 -308 36 -288 4 3 10 42 14 85 9 88 23 120 58 129 27 7
70 -21 90 -58 19 -34 8 -182 -18 -252 -30 -81 -57 -101 -141 -105 -79 -5 -114
6 -154 48 l-28 29 -44 -30 c-59 -41 -150 -56 -243 -42 -92 14 -150 56 -188
132 -24 50 -27 67 -27 157 0 93 2 104 27 141 50 76 111 109 253 139 169 35
185 49 185 155 0 53 -3 64 -29 89 -36 37 -72 46 -121 31 -61 -18 -73 -36 -64
-90 18 -103 -1 -138 -76 -148 -51 -7 -102 16 -119 53 -13 30 -15 133 -2 167
15 39 70 96 115 119 109 57 238 59 343 8z m-2492 11 c60 -13 59 -106 -1 -126
-84 -27 -84 -28 2 -412 26 -121 46 -112 69 31 32 202 77 412 96 452 22 46 52
64 109 64 65 0 71 -13 155 -388 30 -136 59 -250 64 -255 5 -5 13 11 19 35 19
78 72 374 72 406 0 32 -29 62 -59 62 -25 0 -61 42 -61 70 0 15 9 35 21 46 19
17 38 19 205 19 175 0 184 -1 205 -22 17 -17 20 -28 15 -55 -5 -29 -14 -38
-59 -59 -30 -14 -61 -37 -73 -55 -13 -20 -35 -99 -58 -205 -121 -562 -127
-579 -221 -579 -82 0 -92 21 -169 325 -69 274 -67 265 -76 265 -9 0 -35 -103
-84 -338 -20 -94 -44 -180 -58 -205 -23 -41 -25 -42 -80 -45 -91 -5 -93 -1
-217 485 -38 149 -77 285 -85 301 -10 20 -28 34 -53 42 -51 17 -83 48 -83 80
0 34 19 57 50 63 39 7 322 5 355 -2z m-1335 -1946 c41 -30 45 -30 77 -5 29 22
63 26 96 9 27 -14 56 -49 57 -68 0 -8 -51 -66 -113 -130 -75 -78 -130 -145
-166 -204 -31 -52 -64 -93 -80 -102 -15 -7 -68 -21 -117 -29 -49 -9 -99 -19
-111 -22 -30 -8 -29 4 2 46 24 32 34 80 17 80 -27 0 -82 -85 -82 -127 0 -29
-28 -43 -96 -50 -36 -4 -59 -2 -69 7 -16 14 -21 50 -6 50 5 0 13 10 17 23 10
31 51 90 185 263 125 160 200 236 264 265 54 25 85 24 125 -6z m-2417 -649
c54 -19 103 -39 109 -42 7 -4 -2 -18 -22 -34 -41 -34 -33 -50 25 -50 35 0 52
-6 79 -31 37 -32 73 -36 68 -6 -2 13 4 17 27 17 20 0 35 7 43 20 13 21 38 27
38 10 0 -16 87 -70 148 -92 31 -11 77 -21 101 -22 42 -1 45 -3 54 -36 6 -23 5
-46 -3 -70 -19 -56 -10 -103 23 -118 34 -16 35 -45 2 -60 -14 -6 -25 -16 -25
-21 0 -19 42 -116 57 -133 30 -33 -22 -144 -79 -171 -49 -23 -267 -50 -350
-45 -62 5 -87 14 -205 72 -74 37 -151 82 -171 100 -20 18 -58 44 -84 59 -26
15 -63 43 -84 62 -35 34 -36 36 -20 54 17 19 17 20 -6 34 -12 8 -48 17 -80 20
-74 7 -98 21 -98 55 0 15 -9 38 -20 52 -36 45 -22 92 35 126 23 13 12 34 -18
34 -30 0 -77 61 -77 99 0 40 20 57 85 72 30 7 55 15 55 17 0 3 -10 16 -22 29
-36 39 -12 45 162 40 147 -5 160 -7 253 -41z m1170 -383 c38 -74 137 -306 137
-323 0 -6 18 -52 39 -103 21 -51 42 -107 46 -126 l7 -34 -73 6 c-92 8 -259 43
-272 56 -7 7 -5 18 6 34 8 13 25 57 38 97 18 61 22 98 23 229 0 86 -3 173 -7
194 -13 61 16 46 56 -30z m-326 -558 c20 -14 22 -19 12 -32 -30 -36 -167 9
-144 47 10 17 99 6 132 -15z m691 -560 c5 -34 -53 -109 -107 -138 -85 -47 -98
-32 -60 65 37 94 42 99 107 96 48 -3 57 -6 60 -23z"/>
<path d="M3215 7858 c-93 -17 -125 -29 -135 -48 -9 -17 -7 -22 15 -30 15 -6
41 -10 58 -10 52 0 63 -14 30 -38 -37 -27 -23 -41 50 -51 37 -5 70 -17 97 -37
64 -46 114 -74 132 -74 30 0 123 47 136 69 9 15 22 21 47 21 35 0 35 0 35 45
0 76 -45 106 -185 121 -33 3 -91 15 -130 25 -76 21 -76 21 -150 7z m281 -204
c8 -30 -6 -47 -32 -42 -23 4 -30 34 -14 53 19 23 39 18 46 -11z"/>
<path d="M2639 7730 c-27 -27 -32 -50 -10 -50 15 0 61 49 61 65 0 23 -18 18
-51 -15z"/>
<path d="M3491 7046 c-25 -30 30 -72 80 -61 35 8 38 29 7 49 -38 24 -73 29
-87 12z"/>
<path d="M7341 6720 c-83 -25 -128 -66 -137 -128 -10 -65 9 -117 54 -147 60
-41 128 -29 195 33 43 41 83 215 57 247 -17 20 -90 18 -169 -5z"/>
<path d="M8993 4920 c-138 -36 -173 -69 -173 -163 0 -55 3 -62 35 -93 42 -39
89 -51 142 -34 86 28 104 53 133 196 11 53 20 100 20 105 0 14 -79 9 -157 -11z"/>
<path d="M5185 3299 c-136 -136 -162 -169 -134 -169 12 0 266 259 282 287 5 8
6 17 3 20 -3 4 -71 -59 -151 -138z"/>
<path d="M2600 2846 c0 -32 45 -66 108 -82 70 -18 104 -11 139 28 18 21 18 21
-37 16 -46 -5 -65 -1 -119 23 -72 33 -91 36 -91 15z"/>
<path d="M7088 3771 c-98 -4 -152 -11 -160 -19 -10 -10 -14 -180 -16 -792 l-3
-780 1690 0 1691 0 0 788 0 789 -107 6 c-156 9 -2920 17 -3095 8z m1348 -36
c8 -2 14 -68 19 -194 4 -105 11 -194 16 -197 5 -3 40 7 77 22 58 25 81 28 172
29 124 0 158 -13 232 -93 73 -78 79 -107 88 -452 4 -187 11 -304 18 -317 8
-14 26 -24 53 -28 47 -8 89 -43 89 -74 0 -11 -12 -33 -26 -50 l-26 -31 -171 0
c-189 0 -236 8 -266 46 -33 42 5 100 72 111 69 11 70 17 64 321 -5 280 -11
323 -51 369 -22 25 -32 28 -104 31 -57 3 -87 0 -109 -11 -35 -18 -77 -92 -97
-172 -33 -125 -29 -429 6 -502 9 -20 25 -30 56 -38 24 -5 50 -19 58 -29 21
-29 18 -80 -7 -102 -19 -17 -39 -19 -224 -19 -228 0 -235 2 -235 67 0 59 13
75 73 89 l54 11 6 271 c4 149 7 379 7 512 0 269 1 265 -69 279 -47 9 -71 33
-71 71 0 42 27 75 70 85 31 7 198 3 226 -5z m-693 -351 c54 -17 56 -17 92 4
45 27 89 28 115 2 18 -18 20 -33 20 -189 0 -93 -4 -181 -9 -194 -11 -28 -49
-41 -92 -32 -25 6 -31 14 -50 78 -43 151 -55 167 -132 188 -56 15 -102 4 -145
-36 -35 -31 -37 -37 -37 -96 l0 -63 55 -28 c30 -15 98 -39 150 -54 146 -40
194 -62 248 -113 39 -37 52 -58 62 -100 37 -155 -33 -313 -168 -377 -86 -40
-226 -42 -320 -3 -31 13 -37 12 -93 -19 -65 -36 -80 -34 -118 14 -19 25 -21
40 -21 200 0 102 4 183 11 197 15 33 46 49 79 42 43 -9 60 -36 85 -130 13 -47
30 -97 39 -110 25 -38 74 -58 151 -62 89 -5 130 15 163 80 43 82 3 152 -104
182 -159 44 -287 90 -323 116 -54 38 -83 98 -89 180 -9 125 39 219 148 289
100 64 164 72 283 34z m2090 -14 c127 -64 206 -224 207 -416 0 -100 -14 -116
-111 -125 -41 -4 -150 -8 -244 -9 -229 -1 -219 3 -213 -81 7 -88 39 -153 98
-197 41 -32 48 -34 107 -30 57 4 67 8 102 42 22 22 49 62 61 90 34 82 41 93
67 105 39 18 63 13 95 -20 28 -28 30 -34 25 -79 -13 -108 -103 -232 -204 -281
-66 -32 -217 -39 -294 -14 -75 25 -140 94 -189 198 -52 111 -63 178 -58 339 5
159 34 256 103 353 83 117 164 157 310 153 72 -3 100 -8 138 -28z"/>
<path d="M9595 3224 c-49 -27 -82 -63 -105 -116 -25 -59 -20 -95 16 -108 38
-15 317 -13 332 2 33 33 -12 170 -70 212 -37 27 -132 32 -173 10z"/>
<path d="M7465 1749 c-847 -5 -1550 -12 -1562 -14 l-23 -5 0 -779 0 -778 28
-13 c30 -15 1343 -28 2903 -29 l847 -1 13 32 c15 36 16 63 12 999 -3 450 -6
559 -17 574 -12 17 -34 19 -337 21 -178 1 -1017 -2 -1864 -7z m1776 -66 c11
-13 15 -124 20 -587 4 -382 9 -580 16 -597 9 -20 22 -28 50 -33 21 -4 48 -14
61 -22 20 -13 23 -22 20 -67 -4 -72 -21 -79 -163 -73 -60 2 -125 10 -143 16
-29 11 -44 9 -110 -11 -197 -60 -337 4 -428 196 -50 106 -64 173 -64 310 1
112 3 127 38 230 21 61 50 129 65 152 30 48 114 118 167 141 47 19 211 12 257
-11 18 -10 37 -17 43 -17 11 0 14 148 4 187 -5 16 -20 26 -58 37 -78 23 -104
63 -76 116 21 38 59 49 176 50 92 0 114 -3 125 -17z m-1023 -39 c33 -23 52
-67 52 -120 0 -41 -5 -51 -39 -85 -45 -45 -84 -51 -136 -19 -75 46 -85 149
-21 207 29 27 44 33 79 33 23 0 53 -7 65 -16z m-1494 -299 l26 -24 0 -170 c0
-93 -4 -181 -10 -196 -12 -32 -56 -50 -87 -36 -32 15 -60 64 -68 120 -16 106
-63 151 -159 151 -32 0 -70 -7 -87 -16 -53 -27 -75 -114 -44 -174 15 -29 73
-53 235 -96 87 -23 153 -57 205 -105 57 -52 68 -89 63 -203 -3 -77 -8 -99 -30
-136 -36 -62 -94 -115 -153 -142 -67 -30 -213 -32 -294 -4 l-54 19 -52 -28
c-37 -20 -59 -26 -78 -21 -47 11 -52 35 -52 244 0 192 0 194 24 213 56 46 109
8 137 -99 24 -93 52 -140 99 -167 59 -34 105 -40 164 -20 70 23 111 71 111
131 0 25 -5 54 -10 65 -16 29 -79 57 -204 89 -62 16 -134 38 -159 49 -63 27
-123 84 -143 136 -23 62 -16 194 15 253 31 61 85 117 137 142 62 31 179 37
263 16 l64 -16 36 24 c46 32 72 32 105 1z m676 10 c39 -8 88 -24 108 -34 51
-26 108 -90 122 -138 7 -22 16 -168 21 -349 5 -171 13 -322 18 -335 l9 -24 10
25 c6 14 16 61 22 105 15 99 29 125 73 125 40 0 50 -7 70 -45 40 -80 28 -226
-26 -316 -67 -111 -181 -122 -299 -27 l-27 21 -73 -37 c-92 -47 -187 -58 -266
-32 -61 20 -144 92 -173 147 -41 81 -42 226 -1 305 44 86 106 120 286 158 65
14 128 32 141 40 35 23 58 82 51 133 -13 97 -56 131 -152 119 -97 -11 -105
-23 -84 -124 15 -68 2 -98 -55 -123 -56 -25 -92 -19 -129 20 -37 39 -50 99
-36 168 21 100 105 177 232 214 79 22 73 22 158 4z m845 -32 c3 -10 9 -205 12
-434 l6 -417 58 -16 c31 -8 64 -23 73 -31 23 -23 20 -60 -8 -92 l-24 -28 -200
0 c-227 0 -232 2 -232 70 0 49 7 56 75 83 48 19 50 22 58 68 12 72 4 593 -10
625 -9 21 -21 28 -56 33 -52 8 -66 21 -74 69 -4 29 -1 40 20 61 25 25 29 26
160 26 119 0 136 -2 142 -17z"/>
<path d="M8814 1161 c-46 -28 -72 -67 -97 -145 -19 -60 -22 -93 -21 -216 0
-128 3 -152 24 -205 42 -107 122 -159 209 -135 81 21 113 75 152 249 24 109
24 130 -6 256 -29 122 -43 153 -85 189 -26 21 -42 26 -88 26 -38 0 -67 -6 -88
-19z"/>
<path d="M7330 759 c-147 -34 -189 -67 -198 -157 -8 -92 42 -152 133 -160 74
-6 140 29 172 92 14 26 53 199 53 232 0 19 -55 17 -160 -7z"/>
</g>
</svg>
