<?xml version="1.0" standalone="no"?>
<!DOCTYPE svg PUBLIC "-//W3C//DTD SVG 20010904//EN"
 "http://www.w3.org/TR/2001/REC-SVG-20010904/DTD/svg10.dtd">
<svg version="1.0" xmlns="http://www.w3.org/2000/svg"
 width="509.000000pt" height="349.000000pt" viewBox="0 0 509.000000 349.000000"
 preserveAspectRatio="xMidYMid meet">

<g transform="translate(0.000000,349.000000) scale(0.100000,-0.100000)"
fill="#ffffff" stroke="none">
<path d="M1277 2929 c-158 -24 -256 -118 -257 -249 l-1 -55 -24 50 c-58 120
-146 179 -297 199 -106 15 -178 6 -246 -28 -94 -48 -142 -123 -142 -223 0 -32
-9 -139 -19 -238 -24 -232 -22 -561 4 -645 40 -129 184 -264 336 -316 41 -14
105 -28 142 -31 37 -3 70 -9 72 -13 8 -13 -51 -225 -62 -223 -170 35 -276 10
-375 -88 -65 -65 -90 -119 -96 -206 -11 -178 110 -379 259 -428 45 -15 75 -17
203 -12 239 9 316 39 457 175 l79 77 0 -55 c1 -198 56 -308 182 -366 59 -26
72 -28 193 -29 141 0 233 14 335 52 89 34 118 53 170 118 41 50 49 55 85 55
43 0 176 40 237 71 34 17 108 100 108 120 0 5 4 9 8 9 4 0 14 -21 20 -47 18
-67 98 -145 171 -167 30 -9 75 -16 100 -16 48 0 184 41 217 64 16 12 25 11 64
-9 98 -49 273 -68 406 -44 74 14 178 67 229 119 22 22 43 39 46 40 3 0 11 -11
17 -24 6 -13 25 -40 43 -60 99 -114 278 -112 434 5 l68 51 39 -18 c59 -27 189
-25 248 4 154 75 204 117 242 202 29 64 43 316 23 411 -8 37 -19 126 -25 198
-6 72 -12 136 -15 143 -2 7 -11 72 -20 143 -9 72 -22 164 -30 205 -8 41 -17
100 -20 130 -6 61 -14 106 -50 294 -14 71 -25 141 -25 155 0 35 -63 212 -94
265 -43 73 -112 142 -166 165 -98 42 -274 49 -345 13 -52 -26 -115 -84 -141
-129 -14 -23 -27 -43 -29 -43 -1 0 -19 7 -39 15 -20 9 -66 16 -102 17 -60 2
-67 5 -90 35 -38 50 -95 102 -135 123 -104 55 -277 64 -389 21 -102 -39 -211
-136 -269 -239 -5 -10 -23 -7 -82 13 -139 48 -148 49 -349 49 -326 -1 -407
-22 -511 -131 l-62 -65 -46 13 c-47 14 -167 18 -256 9 l-50 -5 -8 79 c-21 217
-159 327 -370 295z m128 -235 c38 -58 37 -115 -10 -699 -18 -222 -20 -246 -45
-385 -11 -58 -28 -177 -40 -266 -11 -89 -29 -188 -40 -220 -12 -32 -21 -61
-20 -64 1 -31 -73 -183 -124 -254 -38 -54 -137 -133 -176 -142 -14 -3 -40 -10
-58 -16 -18 -5 -82 -11 -142 -11 l-109 -2 -41 40 c-61 60 -89 173 -55 222 33
47 109 76 143 55 10 -7 10 -14 -2 -37 -13 -25 -13 -32 4 -64 21 -43 84 -111
101 -111 12 0 74 66 121 129 34 47 112 278 137 411 38 197 58 350 47 350 -6 0
-54 -7 -106 -16 -158 -26 -287 -5 -376 63 -56 43 -77 65 -102 108 -25 44 -24
441 2 645 10 80 19 160 21 178 3 47 18 57 83 55 129 -3 182 -38 182 -122 0
-45 -19 -263 -41 -471 -6 -58 -12 -147 -12 -198 l-2 -94 41 -38 c55 -51 129
-68 229 -50 105 18 113 20 120 38 6 17 28 225 45 437 6 77 18 187 26 245 8 58
20 146 26 195 7 50 13 92 14 94 5 7 69 19 105 20 29 1 40 -4 54 -25z m2143 10
c90 -37 141 -156 158 -366 9 -111 3 -133 -38 -147 -28 -10 -35 -9 -45 6 -7 9
-13 24 -13 32 -1 9 -5 62 -10 117 -12 130 -40 218 -88 267 -69 71 -94 40 -96
-113 -1 -135 21 -212 121 -409 171 -338 215 -464 291 -836 4 -16 7 -79 6 -140
0 -178 -45 -307 -137 -396 -66 -63 -111 -80 -219 -81 -147 -1 -235 42 -273
137 -11 27 -18 198 -17 420 0 87 26 443 32 447 59 37 112 38 145 2 l23 -25 2
-387 c1 -390 6 -467 31 -483 77 -50 165 19 210 165 19 61 21 83 15 190 -3 67
-12 146 -20 176 -20 81 -73 227 -90 252 -9 12 -16 32 -16 43 0 11 -14 40 -30
64 -36 54 -224 434 -256 518 -29 78 -48 224 -41 324 6 98 35 145 119 200 56
36 67 39 130 39 39 0 84 -7 106 -16z m877 -34 c27 -6 50 -21 72 -47 42 -49 92
-179 103 -268 5 -39 16 -105 24 -146 8 -40 22 -119 31 -174 9 -55 22 -138 30
-185 16 -92 58 -424 75 -585 6 -55 14 -116 19 -135 11 -49 4 -276 -10 -301 -6
-11 -27 -28 -47 -36 -20 -8 -47 -24 -61 -34 -13 -10 -39 -19 -57 -19 -38 0
-33 -13 -83 201 -17 69 -35 138 -41 153 -5 15 -24 96 -41 179 -17 84 -34 156
-37 162 -3 5 -9 30 -13 55 -5 42 -28 160 -34 186 -2 7 -36 0 -97 -21 l-93 -32
0 -39 c0 -22 7 -77 16 -124 9 -47 22 -123 28 -170 7 -47 19 -125 27 -175 8
-49 18 -115 23 -145 5 -30 16 -87 26 -126 16 -68 16 -71 -2 -105 -11 -19 -32
-40 -46 -47 -15 -7 -27 -17 -27 -21 0 -12 -48 -31 -79 -31 -18 0 -31 7 -36 18
-15 38 -57 278 -80 457 -25 185 -67 509 -85 650 -5 39 -20 122 -34 185 -13 63
-34 178 -45 255 -23 158 -44 229 -72 249 -19 13 -19 14 -1 36 13 17 32 24 70
28 44 4 58 1 92 -22 67 -44 88 -87 115 -237 13 -74 33 -174 45 -224 28 -123
60 -317 54 -327 -15 -24 16 -23 96 4 82 27 90 32 90 55 0 32 -37 337 -51 423
-6 36 -15 115 -20 175 -5 61 -12 145 -15 187 -7 75 -6 77 22 102 32 28 77 33
149 16z m-1721 -150 c39 -6 77 -16 85 -24 9 -7 43 -18 76 -26 33 -7 68 -17 79
-22 30 -16 102 -183 127 -298 23 -100 24 -121 22 -425 -2 -176 -5 -365 -8
-420 -20 -441 -27 -555 -35 -586 -9 -31 -17 -39 -70 -62 -50 -21 -66 -24 -90
-15 -19 6 -32 19 -36 34 -10 38 -10 232 0 483 l9 233 -39 -6 c-59 -10 -271
-26 -341 -26 l-63 0 -1 -77 c-1 -43 -2 -96 -3 -118 -1 -22 2 -123 7 -225 8
-196 3 -230 -35 -230 -10 0 -18 -4 -18 -10 0 -5 -6 -7 -13 -4 -7 2 -27 -2 -43
-11 -39 -20 -77 -19 -96 3 -17 19 -44 165 -53 292 -3 47 -10 146 -16 220 -12
178 -12 776 1 876 6 43 14 126 20 184 10 114 21 150 62 198 32 38 79 51 233
61 160 12 164 12 239 1z m-758 -194 c82 -30 94 -40 72 -62 -12 -13 -39 -17
-112 -18 -53 -1 -100 -6 -106 -12 -10 -10 0 -44 32 -107 19 -37 21 -210 5
-332 -9 -66 -18 -169 -19 -228 l-3 -108 85 7 85 7 -23 -26 c-18 -19 -38 -27
-83 -32 -56 -7 -59 -8 -63 -38 -3 -18 -5 -39 -5 -47 0 -8 -2 -185 -5 -392 -6
-426 -11 -398 75 -379 53 13 146 14 153 3 10 -17 -61 -69 -124 -92 -55 -20
-85 -24 -197 -24 -147 -1 -158 3 -172 65 -12 55 -13 1119 -1 1404 13 294 21
353 53 384 28 26 128 49 219 50 48 1 86 -6 134 -23z"/>
<path d="M2555 2422 c-17 -4 -38 -20 -51 -40 -20 -29 -22 -45 -23 -171 0 -76
-5 -179 -11 -228 -5 -48 -14 -153 -20 -233 -6 -80 -13 -185 -17 -234 l-6 -89
199 6 c109 4 209 9 220 13 24 6 26 28 40 469 7 199 -7 319 -49 423 -22 56 -23
57 -77 69 -74 16 -168 23 -205 15z"/>
</g>
</svg>
