<?xml version="1.0" encoding="utf-8"?>
<!-- Generator: Adobe Illustrator 21.0.0, SVG Export Plug-In . SVG Version: 6.00 Build 0)  -->
<svg version="1.1" id="Слой_1" xmlns="http://www.w3.org/2000/svg" xmlns:xlink="http://www.w3.org/1999/xlink" x="0px" y="0px"
	 viewBox="0 0 1000 1000" style="enable-background:new 0 0 1000 1000;" xml:space="preserve">
<style type="text/css">
	.st0{fill:#E5A10A;}
	.st1{fill:#FEFEFD;}
	.st2{fill:#E7AD8F;}
	.st3{fill:#DF9664;}
	.st4{fill:#2B1810;}
</style>
<g>
	<g>
		<path class="st0" d="M449.8,842.2c-31-16.3-60.6-34.3-85.3-59.8c-3.3-3.4-5.1-11.9-11-9.6c-5.7,2.2-6.6,10.1-8.1,16
			c-1.2,4.6-1,9.6-1,14.5c0,18-0.3,35.9-2,53.8c-2.4,24.5-1.9,24.6,23.1,24.8c7.8,0.1,15.7-0.9,23.3,0.2c9.6,1.4,17.9-2,24.3-7.4
			c9.9-8.3,21.2-13.3,32.9-18c7-1.5,14.6-1.4,22.8-7C461,846.6,455.4,844.4,449.8,842.2L449.8,842.2z M671.5,786.3
			c-1.4-16.9-6-19-19.3-9.5c-5.5,3.9-10.5,8.4-15.7,12.7c-6.6,2.5-12.3,6.4-17.3,11.4h0c0,0,0,0,0,0c-33.6,20-69,36.2-105.9,49.3
			c-0.2,0.3-0.4,0.5-0.6,0.7c-0.6,0.7-1.2,1.5-1.9,2.2c-0.4,0.5-0.9,1.1-1.3,1.6c-0.8,1-1.7,2-2.5,3c0,0,0,0,0,0c0,0,0,0,0,0
			c6.4,2.5,12.7,5,19.1,7.5c5.5,4.6,11.1,9.2,16.6,13.8c0,0,0,0,0,0c5.8,4.6,12.6,2.7,19.1,3.2c9.4,0.7,19.2-2.9,28,2.4
			c0.3,0.2,0.5,0.3,0.8,0.5c0,0,0,0,0,0c5.8-2.9,12.9,4.1,18.2-2.4c0.3,0,0.7,0,1,0c9.2-0.3,18.3-0.6,27.5-0.8
			c13.1-2,10.4-13.2,12.5-21.6c0,0,0,0,0,0c3.4-6.7,5.3-13.9,8.2-20.8C665.4,822.7,673.1,805.4,671.5,786.3z"/>
	</g>
</g>
<g>
	<g>
		<path class="st1" d="M391.8,355.9C391.8,355.9,391.8,355.9,391.8,355.9C391.8,355.9,391.8,355.9,391.8,355.9
			c-3,3.1-9.5,8.2-3.1,10.4c6.6,2.2,16.8,10.9,22.8-0.2c3.7-6.9,9.4-9,15-12.3c0.8-0.9,1.7-1.8,2.5-2.7h0c-1.8-0.4-3.5-0.9-5.3-1.3
			C412.9,350.8,403.6,359.7,391.8,355.9z M584,353.1c-5.4,1.8-14,3-14.1,8.2c-0.2,7.2,9.1,6.9,14.6,9.2c8.5,3.5,16.5,4.9,21-6.6
			c1.1-2.9,5.7-4.5,9.4-7.2C604.8,350.5,594.6,349.5,584,353.1z"/>
	</g>
</g>
<g>
	<g>
		<path class="st2" d="M401.2,376.4c-2.2-2.5-5.3-1.8-8.1-2c-5.6-0.5-11.1-2.3-13.3-7.5c-2.6-6.1,3.3-9.7,6.7-13.4
			c9-9.9,33-12.7,48.6-6.1c12.7,5.4,14.6,10.7,8.3,23c16.3-6,20.3-13.8,11.7-22.4c-23.6-23.7-58.1-20.9-78.1,6.1
			c-6.1,8.2-4.8,15.4,1.3,22.3C384,382.9,393.4,382.6,401.2,376.4z M391.9,355.9C391.8,355.9,391.8,355.9,391.9,355.9
			c11.7,3.8,21-5.1,31.9-6.1C411.9,345.6,401.3,347.9,391.9,355.9z M591.5,338.6c-12.1-0.7-23.1,1.9-31.9,10.7
			c-12.1,11.9-11.7,14.4,7.3,24.9c-14.7-18-0.4-21.1,9.1-25.9c10.9-5.5,22.7-3.8,34.3-2.5v0c0.1-2.4,0.1-4.8,0.2-7.2
			C604.1,338.6,597.7,338.9,591.5,338.6z M475.2,398.5c17.3,3.2,34.7,1.5,51.5-3.8c6.1-1.9,9.5-6.2,5.9-12.2
			c-6.1-10-12.5-20.5-27.4-16.1h0c-3.9,6.9,3,7.6,6,10.6c0,0,0,0,0,0c8.2,0.8,11.5,6.8,15.6,14.8c-7.9-0.6-14.5-9.8-20.9-1.1
			c-5.1-2.3-10.6,7.1-15.4-0.7v0c-1.2-0.5-2.3-1-3.5-1.4c0,0,0,0,0,0c-0.7-0.8-1.5-1.7-2.2-2.5c-5.8-1-6.9,8.4-13.1,6
			c-0.9-0.3-1.9-2.6-1.5-3.4c2.7-6.3,7.2-11.1,13.7-13.4c1.7-0.6,4.3,1.1,6.5,1.8c0.2-3.3,0.4-6.7,0.6-10h0c0,0,0,0,0,0
			c-3.9-0.3-8-1.7-11.5-0.8c-10.4,2.5-14.5,11.7-16.5,20.4C461.1,394.3,469.4,397.5,475.2,398.5z M638.1,388.8
			c7.1-0.5,12.5-3.3,9.5-12.1h0c-4-0.2-7.7,4.7-11.9,0.8c-13.5,0.6-27,1.2-44.3,1.9C608.5,388.4,623.1,389.9,638.1,388.8z
			 M550.7,346.9c8.7-9.2,19.2-14.1,31.7-15.3c7-0.6,14-1.3,20.9-1.9c-12.6-1.5-23.5-11.4-36.6-7.2c-7.9,7.9-15.6,16.3-27.3,18.7
			c0,0,0,0,0,0c0,0,0,0,0,0c-1.5,4.5-0.9,9.6,2.7,11.6C546.6,355.4,548.3,349.4,550.7,346.9z M317,396c8.5-6.1,15.3-14.3,17.6-24.3
			c6.1-25.5,23.9-43.9,38-64.4c8.5-12.3,21-19.9,37.2-18.7c7,0.5,11.4-3.4,15.1-9.3c6.8-11,16.6-16.9,30.3-16.2
			c19.9,1,36.2-4.9,45.3-24.6c6-12.9,16.6-17.3,30.9-16.8c26.1,0.8,52.1,1.1,77.8,8.8c-7.5-9.3-10.8-21.1-21.6-27c0,0,0,0,0,0
			c0,0-0.1,0-0.1,0c-3.1,3.1,7,15.1-5.3,10.7c-19.1-6.7-38.4-1.4-57.4-4.3c-10.3-1.6-17.5,1.9-22.8,11.2
			c-11.6,20.3-28.5,32.5-52.8,33.4c-6.1,0.2-14.1,1.2-17.7,5.1c-11.6,12.6-25.7,18.1-41.9,20.8c-4.1,0.7-8.3,3.1-11.6,5.7
			c-23.5,17.9-35.2,44.1-47.8,69.5c-6.1,12.3-6.7,27.7-20.3,35.7C307.7,399.7,311.4,400,317,396z M610.7,668.4
			c2.9-11.1,14.4-5.4,20.6-10.4c2.4-1.9,5.2-2.9,4.1-6.4c-1-3.1-3.9-1.9-6.2-1.9c-9.2-0.2-18.3-0.3-27.5-0.5c0,0,0,0,0,0
			c-0.8,4.3,7.2,6.3,2.1,12.7C600.5,666.2,604.2,670.5,610.7,668.4z M411.2,641.3h-19.4c15.3,13.3,31.8,22.6,51.8,24.7c0,0,0,0,0,0
			c7-6,6.3-11.1-3.1-11.1C428.2,654.9,419.9,648.2,411.2,641.3z M655.4,654.4C655.4,654.4,655.4,654.4,655.4,654.4
			c5.5,2.1,16-6.9,16.3,6.8c0.3,18.7,1.4,37.6-0.5,56.2c-1.2,12.3-4.1,26.7-13.3,34.8c-18,15.7-38.1,29.2-58,42.6
			c-16.7,11.3-36,17.9-53.9,27c-21.1,10.7-43.2,24.8-69.3,13.6c-10.9-4.7-21.5-9.9-32.7-13.9c-17.3-6.2-32.2-16.8-45.2-28.8
			c-5.9-5.5-9-4.1-14.1-3c0,0,0,0,0,0.1c0,0,0,0,0,0.1c23.6,25.5,54.1,40.3,85.4,53.4c11.2,4.7,23.4,4.7,35.7,1.4
			c54.1-14.7,101.2-42.8,145.9-75.4c10.2-7.5,23.5-15.2,24.8-28.6c3.4-33,7.6-66.4-1.3-101.8C667.9,644.4,661.6,649.4,655.4,654.4z
			 M446.7,626.8c10-3.1,19-8.7,29.6-10.5c38.1-6.8,73.5,2,107.4,18.2c25.8,12.3,52.1,10.6,78.4,4.2c8-1.9,14.6-7.8,17.5-17.7
			c4.2-14.3,10.9-27.9,16.7-41.7c1.9-4.5,5.2-8.8-1.1-12.5c0,0,0,0,0,0c-12.6,12-17.7,28-23.6,43.7c-3.1,8.2-4.6,19.8-15.5,20.2
			c-17.3,0.7-34.9,2.9-52.1-2c-18.6-5.3-35.5-15.8-53.9-20.2c-37.4-9-74-4.2-110.3,9.6c-29.7,11.4-58.5,8.7-85.4-12.3
			c-10.6-8.3-18.1-18.6-27.6-27.3c-0.2,5.2,0.3,10.2,2.4,15c0.5,0.5,0.7,1.1,0.7,1.8c0,0,0,0,0,0c4.4,8.2,15,11.3,17.4,21.1
			c1.4,0.2,3.1,0,4.1,0.8C381.1,640.1,413.4,637.3,446.7,626.8z M750.4,519.9c-3.1-2.2-2.6-5.5-2.6-8.6c-0.8-0.9-1.5-1.8-2.3-2.7
			l0,0c-1.3,3.9-2.5,7.7-3.8,11.6c1.3,0.9,2.2,2,2.7,3.5c0,0,0,0,0,0c-0.4,8.8,7.1,18.3-2.3,26.3c0,0,0,0,0,0
			c-1.5,19.8-8.2,36.9-22.9,51c-10.3,9.8-14.7,9.7-21.7-3.7c-2.8,4.6-11.3,7.5-5.2,15c9.8,12.1,25.4,10.4,34.4-2.1
			C746.5,582.9,754.4,553.1,750.4,519.9z M288.1,558.7c1.7,5.6,3.2,11.2,8.7,14.5c0,0,0,0,0,0C297.5,563.2,295.7,560.2,288.1,558.7z
			 M298.5,510c1.8-1.4,4.6-4.7,1.3-7c-3.2-2.1-5.6-1.9-8.8,2.7c-6.5,9.1-10.5,17.9-8.2,29.1c0,0,0,0,0,0c2-1,4.1-2,6.1-3.1
			C290.9,523.9,291.2,515.5,298.5,510z M317.5,554C317.5,554,317.5,554,317.5,554c0.9-5.3,7.5-3.9,9.4-7.9
			c-5.7-8.6-5.6-20.9-17.1-27.3C310.4,531.9,310.5,543.7,317.5,554z M300.8,516.4c-1.7,0.3-2.8,3.6-4.2,5.5c-4,5-1.9,10.6-1.5,15.9
			c0,0,0,0,0,0c0,0,0,0,0,0c0,1.8,0.1,3.7,0.1,5.5v0c3.9,0.1,7.8,0.1,11.7,0.2c-0.9-7.2-1.6-14.3-2.7-21.4
			C303.9,519.9,305.7,515.3,300.8,516.4z M338.8,546.6c1.6,2.4,7.3,1.9,10.9,3.2c20.4,7,42.6,2.3,62.8,8.9
			c37.2,12.2,74.9,8.1,112.6,6.3c34.9-1.7,69.7-6.2,103.8,6.6c10.4,3.9,21.4,2.5,28.6-8.2c3.1-4.6,6.8-9,12-10.2
			c11.6-2.6,16.3-11,20.5-20.7c14.7-34.3,21.1-70.5,26-107.2c4-29.4-3.8-55.8-19-80.7c-3.8-6.2-8.1-12.7-9.6-19.6
			c-7.5-33.9-26.4-58.2-57.2-74.3c-8.2-4.3-13.8-13.8-25-12.2c-10.4-5.1-21.2-8.1-32.8-7.5l0,0c-2-0.2-4.1-0.4-6.1-0.6
			c-13.2-3.8-26.8-2.6-40.2-2.2c-7.4,0.2-14.1,3.2-17.3,10.9c0,0,0,0,0,0c0,0,0,0,0,0c-10.8,23.9-30.8,32.1-55.5,32.4
			c-10.4,0.1-18.7,3.8-24.2,13.4c-4.5,7.9-11.9,10.9-21,10.4c-10.3-0.6-19.9,3-26.1,10.8c-15,19-31.5,37.4-39.5,60.7
			c-5.4,15.9-13.2,29.1-27.5,38c-6.5,4-8.5,9.4-9,16.9c-1.4,22.9-1,45.7,0.3,68.6C307.7,514.4,326.6,528.6,338.8,546.6z
			 M566.6,478.3c-15.7,9.1-33.6,10.5-50.6,7.3c-22.2-4.2-44.3-2.8-66.5-4.3c-8.5-0.6-17.3-0.4-21.7-8.8c-4.8-9.2,1.1-16.3,7-23
			c13.8-15.6,28.4-29.4,55.3-28.8c13-0.4,26.9,7.2,40.2,16.6c12.6,8.9,23.8,19.3,38.4,25.7C578.6,467.4,572.9,474.7,566.6,478.3z
			 M532.8,335.7c4.1-13,20.5-21.1,39.9-20.5c24.1,0,45.7,7,65,22.1c15.4,12.1,17.2,29.2,17.5,45.9c0.2,9.4-10.2,14.3-19.4,14.1
			c-33.3-0.5-65-7.8-91.2-29.4C535.4,360.2,528.6,349,532.8,335.7z M377.7,340c23.8-25,52.4-35.3,86.7-27
			c13.2,3.2,17.5,14.5,11.6,28.6c-4.3,10.1-14.1,17.4-14.8,29.3c0,0,0,0,0,0c0,0,0,0,0,0c15.8-17.1,36.3-11.6,55.4-10.6
			c11.1,0.6,24.1,17.2,22.7,26.8c-1.9,13.1-12.1,15.3-23.4,16.8c-13.1,1.7-25.9,3-39,0.5c-19-3.7-22.8-10.3-16.2-28
			c0.6-1.7,0.4-3.6,0.6-5.5c0,0,0,0,0,0c0,0,0,0,0,0c-5-4-6,2.2-8.9,3.6c-0.8,0.8-1.5,1.5-2.3,2.3l-0.6,0.5c0,0,0,0,0,0
			c0.1,5.9-1.9,9.4-8.3,11.3c-15.3,4.4-31.4,1.3-46.7,5.3c-4.6,1.2-8.2-1.9-9.3-6.9C364.6,376.6,361.3,357.2,377.7,340z
			 M323.3,599.1c-6.3-1.9-8.8,5.7-14.3,5.8c2.4,8.2,8.5,6.8,14,4.6C329.6,606.7,325.4,602.6,323.3,599.1
			C323.3,599.1,323.3,599.1,323.3,599.1z"/>
	</g>
</g>
<g>
	<g>
		<path class="st3" d="M461.1,343.3c2,2.4,3.6,4.4,6.6,0.9c5-5.8,2.7-22.3-4.2-23.8c-12.2-2.6-24.5-6.8-37.2-2
			c-3.8,1.4-7.6,2.9-11.8,4.5c3.8,2.9,7.7,1.4,11.3,1.6c0,0,0,0,0,0c0,0,0,0,0,0C439.1,328,452,332.1,461.1,343.3z M455.2,473.2
			c21.6,5.5,44.3,0.2,66,6.6c6.9,2,15.3,0.5,22.5-3.3c5.2,0.2,10.9,0.8,14.5-3.3c4.6-5.2,1.3-6-3.7-4.6c-4-1-8-0.8-11.7,1.1
			c0,0,0,0,0,0c0,0,0,0,0,0c-1.7-0.2-3.5-0.5-5.2-0.7c0,0,0,0,0,0c-15.7-4.5-30.2-14-46.5-14.8c-15.3-0.8-30.5,7-50,5.3
			c38.1-19,71.5-7.2,105.1,2.4c-4-8.3-11.5-10-16.7-15.1c-27.4-26.5-72.2-27.6-89.5,12.4c-0.9,2-3.2,3.3-4.8,5
			c-2.7,11.4,5.1,9.3,11.5,9c1-0.1,2-0.2,3-0.2l0,0c0,0,0,0,0,0C451.5,473.1,453.3,473.2,455.2,473.2z M429,351.1L429,351.1
			c-0.8,0.9-1.7,1.8-2.5,2.7c4.1,2,7.8,5.4,13.3,4.3C437.7,353.2,434.1,350.9,429,351.1z M739.5,533.2c-1-7.7-4.3-12.3-12.1-10.5
			c-7.6,1.7-7.8,9-6,14.3c3.3,9.5,2.7,19,2.5,28.6c-0.1,5.7-3.6,10.5-8.3,10.2c-16.6-1.1-16.2,10.8-17.9,21.5
			c7,13.5,11.4,13.6,21.7,3.7c14.7-14.1,21.5-31.2,22.9-51c0,0,0,0,0,0C737.8,545,740.2,538.8,739.5,533.2z M394.4,393.9
			c15.3-4,31.4-0.9,46.7-5.3c6.5-1.9,8.4-5.4,8.3-11.3c0,0,0,0,0,0c-20.9,7.1-42.7,7.5-64.3,9.7C386.2,392,389.8,395.1,394.4,393.9z
			 M630.1,359.7c4.4,5.4,10.7,9.7,5.5,17.8c4.3,3.9,7.9-1,11.9-0.8c0,0,0,0,0,0c-0.3-8.3-3-16.1-6.4-23.5
			c-5.9-12.9-18.7-18.7-30.8-14.6c-0.1,2.4-0.1,4.8-0.2,7.2c0,0,0,0,0,0C617.1,350,624.7,353.1,630.1,359.7z M330.2,355.6
			c12.7-25.4,24.3-51.6,47.8-69.5c3.4-2.6,7.5-5,11.6-5.7c16.2-2.7,30.3-8.2,41.9-20.8c3.6-3.9,11.6-4.9,17.7-5.1
			c24.3-0.8,41.2-13,52.8-33.4c5.3-9.3,12.5-12.7,22.8-11.2c19,2.9,38.3-2.5,57.4,4.3c12.3,4.3,2.2-7.6,5.3-10.7c0,0,0-0.1,0-0.1
			c0,0,0,0,0,0c0,0,0,0,0,0l0.2,0c-3.2-6.4-10.1-7.5-15.4-10.9c-13.7-16-34.5-20-51.6-18c-56.5,6.4-108.2,25.6-146.4,71.3
			c-15.8,18.8-27.2,40.2-37.5,62.1c-12.5,26.5-26.4,52.9-26.9,83.3C323.5,383.3,324.1,367.9,330.2,355.6z M505.1,366.5
			c-4.8,0.2-9.5,0.4-14.3,0.6h0c-0.2,3.3-0.4,6.7-0.6,10c0,0.1,0,0.1,0,0.2c-0.8,3.5,4.2,7,2.4,10.6c-0.4,0.8-1.1,1.5-2.2,2.3v0
			c4.8,7.8,10.4-1.5,15.4,0.7c-0.7-1.5-0.9-2.7-0.9-3.9c0.2-3.2,2.7-5.6,4.8-8.1c0.5-0.6,0.9-1.1,1.4-1.7c0,0,0,0,0,0c0,0,0,0,0,0
			C508.2,374.1,501.2,373.3,505.1,366.5L505.1,366.5z M663,567c-10.3,14.8-24.7,15.7-37.4,10.6c-29.5-11.7-59.3-7.2-89.2-6
			c-36.9,1.5-73.9,4.8-110.5-1.8c-13.2-2.4-26.2-5.7-39.8-7.3c-20.4-2.6-42.2-1.6-59.3-16.4c-2,4.1-8.5,2.6-9.4,7.9c0,0,0,0,0,0
			c0,0,0,0,0,0c-0.4,9.4,6.7,16.1,9.1,24.5c9.5,8.7,17,19,27.6,27.3c27,21,55.7,23.7,85.4,12.3c36.3-13.9,73-18.6,110.3-9.6
			c18.4,4.4,35.3,14.9,53.9,20.2c17.2,4.9,34.8,2.6,52.1,2c11-0.4,12.5-12,15.5-20.2c5.9-15.7,11-31.7,23.6-43.7l0,0
			c-2.5-5.5-5-10.9-7.7-16.8C678.5,555.9,668.1,559.7,663,567z M655.4,654.4C655.4,654.4,655.4,654.4,655.4,654.4
			C655.4,654.4,655.4,654.4,655.4,654.4c-15,4.4-27.3,17.2-44.7,14c-6.5,2.1-10.2-2.2-6.8-6.5c5.1-6.4-2.9-8.4-2.1-12.7c0,0,0,0,0,0
			c-13.3-5.7-26.3-12.2-39.9-16.9c-29-10.2-58.6-16.6-89.2-6.6c-20.1,6.5-39.9,14.4-61.4,15.6c8.7,6.9,16.9,13.6,29.3,13.6
			c9.5,0,10.2,5.1,3.1,11.1c0,0,0,0,0,0c-6.2,14-15.2,3.9-21.4,1.2c-25.5-11.1-47.7-27.9-70.7-43.2c-2.3-1.6-6.5-2.7-4.7-7.1
			c-3.3,1.6-7.2-2.4-10.6,1c8,15,10.8,31.8,14.4,48.3c2.5,0.5,5.1,1.6,5,4.2c-0.6,25.8,2.5,51.6-1.8,77.3v0c0,0,0,0,0,0
			c-3.7,18.9,13.5,24.5,22.4,35.3c0.6,0.7,1.4,1,2.3,1c0,0,0,0,0,0l0-0.3c0,0,0,0,0,0c0,0,0,0,0,0c0,0,0,0,0,0c0.8,3.2,3,4.9,6,6
			l-0.1-0.1c0,0,0,0,0,0c0,0,0,0,0.1,0c5.1-1.1,8.2-2.5,14.1,3c13,12,27.9,22.6,45.2,28.8c11.1,4,21.8,9.3,32.7,13.9
			c26.1,11.2,48.2-2.9,69.3-13.6c17.9-9.1,37.2-15.7,53.9-27c19.9-13.4,40-26.9,58-42.6c9.3-8.1,12.1-22.5,13.3-34.8
			c1.9-18.6,0.8-37.4,0.5-56.2C671.4,647.5,660.9,656.5,655.4,654.4z M517.5,789.9c-13.7,9.6-26,3.4-38.2-3.8l0,0v0
			c-4.9-0.2-7.6-2.4-5.2-7.4c2.3-4.6,7.7-9.3,11.4-6.5c9.6,7.3,21.2,4.2,31.2,8.1C525.4,782.8,521.8,786.8,517.5,789.9z
			 M566.7,322.5c-13.1,0.4-23.6,4.6-27.3,18.7c0,0,0,0,0,0C551.1,338.8,558.8,330.4,566.7,322.5z M295.2,543.3L295.2,543.3
			c-8.8-0.2-4.6-7.6-6.4-11.7c-2,1-4.1,2-6.1,3.1c0,0,0,0,0,0c-2.2,8.9,0.4,16.7,5.4,24c7.5,1.4,9.4,4.5,8.7,14.5l0,0
			c9.3,8.5,7.6,21.2,12.1,31.6c5.5-0.1,8-7.6,14.3-5.8c0,0,0,0,0,0c-0.8-19.9-12.2-36.7-16.4-55.5
			C303,543.4,299.1,543.4,295.2,543.3z"/>
	</g>
</g>
<g>
	<g>
		<path class="st4" d="M568.7,463.1c-14.6-6.4-25.9-16.8-38.4-25.7c-13.3-9.4-27.2-17-40.2-16.6c-26.8-0.7-41.5,13.2-55.3,28.8
			c-5.9,6.7-11.8,13.7-7,23c4.4,8.4,13.2,8.2,21.7,8.8c22.1,1.5,44.3,0.1,66.5,4.3c17,3.2,34.9,1.8,50.6-7.3
			C572.9,474.7,578.6,467.4,568.7,463.1z M558.2,473.3c-3.6,4.1-9.3,3.5-14.5,3.3c-7.1,3.7-15.5,5.3-22.5,3.3
			c-21.7-6.4-44.4-1.2-66-6.6c-1.9,0-3.7-0.1-5.6-0.1c0,0,0,0,0,0c0,0,0,0,0,0c-1,0.1-2,0.2-3,0.2c-6.4,0.3-14.2,2.4-11.5-9
			c1.6-1.6,3.9-3,4.8-5c17.3-40,62-38.9,89.5-12.4c5.2,5.1,12.7,6.8,16.7,15.1c-33.6-9.6-66.9-21.4-105.1-2.4
			c19.5,1.7,34.7-6.1,50-5.3c16.4,0.9,30.8,10.3,46.5,14.8c0,0,0,0,0,0c1.7,0.2,3.5,0.5,5.2,0.7c0,0,0,0,0,0c0,0,0,0,0,0
			c3.8-1.9,7.7-2,11.7-1.1C559.5,467.3,562.8,468.1,558.2,473.3z M516.7,780.2c-10-3.9-21.5-0.8-31.2-8.1c-3.8-2.8-9.1,1.9-11.4,6.5
			c-2.5,4.9,0.2,7.1,5.2,7.4v0l0,0c12.1,7.3,24.5,13.4,38.2,3.8C521.8,786.8,525.4,782.8,516.7,780.2z M907.4,857.3
			c-0.9-0.4-1.8-0.7-2.7-1c-24.3-8.5-48.6-16.7-72.7-25.7c-22.7-8.6-46.6-14.1-71.3-12c-10.6,0.9-19.1-3.1-26.5-9.7
			c-18.2-16.1-35.5-33-46.6-55.3c-3.4-6.8-3.6-10.8,3.2-15.7c11.2-8.1,16.8-19.1,16.1-33.9c-1.2-24.7,12.7-45.1,22.3-66.2
			c5.1-11.1,11.7-21.6,14.9-33.6c4.8-18.2,12.2-35.5,18.6-53.2c8.1-22.1,19.8-43.6,17-68.3c-2.1-19.2,2.9-37.4,5.6-56.1
			c2.3-15.7,12.5-32,5.6-47c-10.2-22.2-9-45.4-12.1-68.3c-3.8-28.1-9.5-57-31.1-76.7c-19.5-17.8-40.3-35-61.9-50.5
			c-19.9-14.3-42.2-25.5-58.9-43.9c-7.3-8-15.2-13.2-25.8-14.9c-12-1.9-23.8-4.7-35.9-6c-11.3-1.3-23.5-0.8-31.5,7.9
			c-9.5,10.4-17.2,7.2-26.6,1c-17.4-11.5-34.8-22.7-56.9-23.4c-22.1-0.7-40.2,8.8-58,20.2c-22.5,14.4-28,40.2-41.6,60.6
			c-0.5,0.7,0,2-0.3,2.9c-5.9,16.7-10.2,34.6-27.2,44.1c-17.7,10-27,26.3-33.6,44.2c-6.8,18.6-15.4,35.5-30.4,48.9
			c-5.3,4.8-5.7,9.9,0.4,14.7c0.1,2.1,0.3,4.2,0.4,6.3c-9.6,11.4-25.8,15.9-31.9,30.8c13.6,7.4,13.6,25.7,26.7,33.6
			c0.7,0.4,0.5,2.8,0.2,4.1c-4.1,19.5,1.1,40.1-6.8,59c-6.2,14.7,11.8,23.3,8.2,37c-0.1,0.3,2.2,2,3,1.7
			c17.3-5.6,15.2,9.6,15.5,16.9c0.7,23.3,11.1,43.9,15.6,65.9c5.6,27,18.8,50.9,27.3,76.7c6.5,19.7,10.2,41.6,25.6,58.1
			c4,4.3,7.1,13.8,1.2,17.2c-14.5,8.3-19.7,23.5-30.2,34.6c-6.5,6.9-14.9,11.3-24.7,10.7c-57.8-3.2-111.4,15.7-165.6,31.3
			c0,0,0,0,0,0c-6.4-2.6-9.8,1.3-13,5.8c-5-5.1-9.9-0.2-14.5,0.6c-20.4,3.6-23.7,22.8-21.3,41.2c2.3,17.5,16.4,13.3,27.3,13.4
			c78.9,0.9,157.7,1.5,236.6,2.2c5.3,1.5,10.6,1.6,16,0.3c7.3-0.1,14.6-0.3,21.8-0.4l0.8,0.6c0,0,0.9-0.6,0.9-0.6c0,0,0,0,0,0
			c7.2,0,14.5,0,21.7-0.1l0.8,0.6c0,0,0.7-0.6,0.7-0.6c32-0.1,63.9-0.1,95.9-0.2c3,1.7,6,1.6,9,0.1c3.5,0,7,0,10.5,0l0.8,0.6
			c0,0,0.7-0.6,0.7-0.6c6.5,0.3,13,0.5,19.5,0.8c1.2,0,2.3,0,3.5,0.1c0,0,0,0,0,0c12.2-0.3,24.4-0.7,36.6-1
			c21.2,2.4,42.4,1.5,63.6,0.7c0,0,0,0,0,0c12-0.3,24.1-0.6,36.1-0.9c1.4,2.1,3,2,4.8,0.5c7.8,0,15.5-0.2,23.3-0.1
			c66.1,0.7,132.1-0.1,198.1-2.9c8.4-0.4,20-0.5,21-11.1C926.3,863.8,915.2,860.9,907.4,857.3z M727.3,522.7
			c7.8-1.7,11.1,2.9,12.1,10.5c0.8,5.6-1.7,11.8,2.8,16.8c9.4-8,1.8-17.5,2.3-26.3c0,0,0,0,0,0c-0.5-1.5-1.5-2.6-2.7-3.5
			c1.3-3.9,2.5-7.7,3.8-11.6l0,0c0.8,0.9,1.5,1.8,2.3,2.7c0,3.1-0.5,6.4,2.6,8.6c4,33.1-3.9,63-23.5,90.2
			c-9,12.5-24.7,14.2-34.4,2.1c-6.1-7.5,2.4-10.3,5.2-15c1.7-10.7,1.3-22.5,17.9-21.5c4.7,0.3,8.2-4.5,8.3-10.2
			c0.2-9.6,0.8-19.1-2.5-28.6C719.5,531.7,719.7,524.4,727.3,522.7z M310,391.3c0.5-30.5,14.4-56.8,26.9-83.3
			c10.3-21.9,21.7-43.3,37.5-62.1c38.3-45.7,89.9-64.9,146.4-71.3c17.1-1.9,37.9,2,51.6,18c5.3,3.4,12.2,4.5,15.4,10.9l-0.2,0
			c0,0,0,0,0,0c0,0,0,0,0,0c0,0,0,0.1,0,0.1c0,0,0.1,0,0.1,0c0,0,0,0,0,0c10.7,5.9,14.1,17.8,21.6,27c-25.7-7.8-51.7-8-77.8-8.8
			c-14.3-0.5-25,4-30.9,16.8c-9.1,19.7-25.5,25.6-45.3,24.6c-13.7-0.7-23.4,5.2-30.3,16.2c-3.7,5.9-8,9.8-15.1,9.3
			c-16.2-1.2-28.8,6.4-37.2,18.7c-14.1,20.5-31.9,38.9-38,64.4c-2.4,10-9.1,18.2-17.6,24.3C311.4,400,307.7,399.7,310,391.3z
			 M306,421.7c0.5-7.5,2.5-12.9,9-16.9c14.3-8.9,22.1-22.1,27.5-38c8-23.3,24.5-41.7,39.5-60.7c6.2-7.8,15.8-11.4,26.1-10.8
			c9.1,0.5,16.5-2.5,21-10.4c5.5-9.6,13.9-13.2,24.2-13.4c24.7-0.3,44.7-8.5,55.5-32.4c0,0,0,0,0,0c0,0,0,0,0,0
			c3.2-7.7,9.9-10.7,17.3-10.9c13.4-0.4,27-1.6,40.2,2.2c2,0.2,4.1,0.4,6.1,0.6l0,0c11.6-0.6,22.5,2.5,32.8,7.5
			c11.2-1.6,16.7,7.9,25,12.2c30.8,16.1,49.6,40.4,57.2,74.3c1.5,6.9,5.9,13.4,9.6,19.6c15.2,24.9,22.9,51.3,19,80.7
			c-5,36.6-11.3,72.9-26,107.2c-4.2,9.7-8.9,18.1-20.5,20.7c-5.2,1.2-8.9,5.6-12,10.2c-7.2,10.7-18.1,12.1-28.6,8.2
			c-34.1-12.8-68.9-8.3-103.8-6.6c-37.7,1.9-75.4,6-112.6-6.3c-20.1-6.6-42.4-1.9-62.8-8.9c-3.6-1.2-9.3-0.8-10.9-3.2
			c-12.1-18-31.1-32.2-32.5-56.3C305,467.4,304.5,444.6,306,421.7z M322.9,609.4c-5.4,2.2-11.5,3.6-14-4.6
			c-4.5-10.4-2.8-23.1-12.1-31.6c0,0,0,0,0,0c0,0,0,0,0,0c-5.5-3.3-7-8.9-8.7-14.5c-5-7.3-7.7-15.1-5.4-24c0,0,0,0,0,0c0,0,0,0,0,0
			c-2.3-11.1,1.7-20,8.2-29.1c3.3-4.6,5.6-4.8,8.8-2.7c3.3,2.2,0.5,5.6-1.3,7c-7.3,5.6-7.6,14-9.7,21.7c1.8,4.1-2.4,11.4,6.4,11.7
			c0-1.9-0.1-3.7-0.1-5.5c0,0,0,0,0,0c0,0,0,0,0,0c-0.3-5.4-2.5-11,1.5-15.9c1.4-1.9,2.5-5.1,4.2-5.5c4.9-1,3,3.5,3.4,5.7
			c1.1,7.1,1.8,14.3,2.7,21.4c4.2,18.9,15.6,35.7,16.4,55.5c0,0,0,0,0,0c0,0,0,0,0,0C325.4,602.6,329.6,606.7,322.9,609.4z
			 M445.9,856.6c-11.7,4.7-22.9,9.7-32.9,18c-6.4,5.4-14.7,8.8-24.3,7.4c-7.6-1.1-15.5-0.1-23.3-0.2c-25-0.2-25.5-0.2-23.1-24.8
			c1.8-17.9,2-35.8,2-53.8c0-4.8-0.1-9.9,1-14.5c1.5-5.9,2.3-13.8,8.1-16c5.9-2.3,7.7,6.2,11,9.6c24.7,25.5,54.3,43.5,85.3,59.8v0
			c5.6,2.2,11.2,4.4,18.9,7.4C460.5,855.2,452.9,855.1,445.9,856.6z M658.2,839.5c-3,6.9-4.9,14.1-8.2,20.8c0,0,0,0,0,0
			c-2.1,8.4,0.6,19.6-12.5,21.6c-9.2,0.3-18.3,0.6-27.5,0.8c-0.3,0-0.7,0-1,0c-5.3,6.5-12.4-0.5-18.2,2.4c0,0,0,0,0,0
			c-0.3-0.2-0.5-0.3-0.8-0.5c-8.9-5.4-18.7-1.7-28-2.4c-6.5-0.5-13.3,1.4-19.1-3.2c0,0,0,0,0,0c-5.5-4.6-11.1-9.2-16.6-13.8
			c-6.4-2.5-12.7-5-19.1-7.5c0,0,0,0,0,0c0,0,0,0,0,0c0.8-1,1.7-2,2.5-3c0.4-0.5,0.9-1.1,1.3-1.6c0.6-0.7,1.2-1.5,1.9-2.2
			c0.2-0.2,0.4-0.5,0.6-0.7c36.8-13.1,72.3-29.3,105.9-49.3c0,0,0,0,0,0h0c5-4.9,10.7-8.9,17.3-11.4c5.2-4.2,10.3-8.8,15.7-12.7
			c13.3-9.5,17.9-7.3,19.3,9.5C673.1,805.4,665.4,822.7,658.2,839.5z M676.5,740.4c-1.4,13.4-14.6,21.1-24.8,28.6
			c-44.6,32.7-91.8,60.8-145.9,75.4c-12.4,3.4-24.6,3.3-35.7-1.4c-31.3-13.1-61.8-27.8-85.4-53.4c0,0,0,0,0-0.1c0,0,0,0,0-0.1
			c0,0,0,0-0.1,0c0,0,0,0,0,0l0.1,0.1c-3-1-5.1-2.8-6-6c0,0,0,0,0,0c0,0,0,0,0,0c0,0,0,0,0,0l0,0.3c0,0,0,0,0,0
			c-0.9,0.1-1.7-0.3-2.3-1c-8.9-10.9-26.1-16.5-22.4-35.3c0,0,0,0,0,0v0c4.3-25.7,1.2-51.5,1.8-77.3c0.1-2.7-2.5-3.8-5-4.2
			c-3.6-16.5-6.4-33.3-14.4-48.3c3.4-3.5,7.2,0.6,10.6-1c-1.7,4.4,2.4,5.5,4.7,7.1c23,15.3,45.2,32.1,70.7,43.2
			c6.2,2.7,15.1,12.9,21.4-1.2c-20-2.1-36.5-11.4-51.8-24.7h19.4c21.5-1.2,41.3-9.1,61.4-15.6c30.6-9.9,60.2-3.6,89.2,6.6
			c13.6,4.8,26.6,11.2,39.9,16.9c9.2,0.2,18.3,0.3,27.5,0.5c2.2,0,5.2-1.2,6.2,1.9c1.1,3.5-1.8,4.4-4.1,6.4
			c-6.2,5-17.7-0.7-20.6,10.4c17.4,3.2,29.7-9.7,44.7-14c0,0,0,0,0,0c6.3-5,12.5-10,19.8-15.8C684.1,674,679.9,707.4,676.5,740.4z
			 M679.5,620.9c-2.9,9.9-9.5,15.8-17.5,17.7c-26.3,6.4-52.5,8.1-78.4-4.2c-33.9-16.1-69.3-24.9-107.4-18.2
			c-10.6,1.9-19.6,7.4-29.6,10.5c-33.4,10.5-65.6,13.3-95.5-9.6c-1-0.8-2.7-0.6-4.1-0.8c-2.4-9.8-13-12.9-17.4-21.1c0,0,0,0,0,0
			c0-0.7-0.3-1.3-0.7-1.8c-2.2-4.8-2.6-9.8-2.4-15c-2.4-8.4-9.5-15.1-9.1-24.5c0,0,0,0,0,0c-7-10.3-7.1-22.1-7.6-35.2
			c11.5,6.4,11.4,18.7,17.1,27.3c17.1,14.8,39,13.9,59.3,16.4c13.5,1.7,26.5,4.9,39.8,7.3c36.6,6.6,73.6,3.3,110.5,1.8
			c29.9-1.2,59.6-5.7,89.2,6c12.7,5,27.1,4.1,37.4-10.6c5.1-7.4,15.5-11.1,24.4-17.1c2.7,5.9,5.2,11.4,7.7,16.8c0,0,0,0,0,0
			c0,0,0,0,0,0c6.3,3.7,2.9,8,1.1,12.5C690.4,593.1,683.7,606.6,679.5,620.9z M379.1,778.3c0.1-0.1,0.2-0.2,0.4-0.3
			c-0.2,0-0.3,0.1-0.5,0.1C379,778.2,379.1,778.3,379.1,778.3z M476.8,404.4c13,2.5,25.9,1.1,39-0.5c11.3-1.4,21.6-3.7,23.4-16.8
			c1.4-9.6-11.6-26.2-22.7-26.8c-19-1-39.6-6.5-55.4,10.6c-0.2,1.8,0,3.8-0.6,5.5C454.1,394.1,457.9,400.7,476.8,404.4z
			 M462.8,386.7c2-8.7,6.2-17.9,16.5-20.4c3.6-0.9,7.7,0.5,11.5,0.8c0,0,0,0,0,0c4.8-0.2,9.5-0.4,14.3-0.6
			c14.9-4.4,21.3,6.1,27.4,16.1c3.7,6,0.2,10.3-5.9,12.2c-16.9,5.2-34.2,6.9-51.5,3.8C469.4,397.5,461.1,394.3,462.8,386.7z
			 M471.6,392.1c6.2,2.4,7.3-6.9,13.1-6c0.7,0.8,1.5,1.7,2.2,2.5c0,0,0,0,0,0c1.2,0.5,2.3,1,3.5,1.4c1.2-0.8,1.9-1.5,2.2-2.3
			c1.8-3.5-3.2-7-2.4-10.6c0-0.1,0-0.1,0-0.2c-2.2-0.7-4.8-2.4-6.5-1.8c-6.5,2.3-10.9,7.2-13.7,13.4
			C469.7,389.5,470.7,391.7,471.6,392.1z M461.2,370.9C461.2,370.9,461.2,370.9,461.2,370.9C461.2,370.9,461.2,370.9,461.2,370.9
			C461.2,370.9,461.2,370.9,461.2,370.9C461.2,370.9,461.2,370.9,461.2,370.9z M544.5,367.8c26.2,21.6,57.9,28.9,91.2,29.4
			c9.1,0.1,19.5-4.7,19.4-14.1c-0.3-16.7-2-33.8-17.5-45.9c-19.3-15.1-40.8-22-65-22.1c-19.4-0.6-35.8,7.5-39.9,20.5
			C528.6,349,535.4,360.2,544.5,367.8z M569.9,361.3c0.1-5.2,8.8-6.4,14.1-8.2c10.6-3.6,20.8-2.6,30.9,3.6c-3.7,2.7-8.3,4.3-9.4,7.2
			c-4.5,11.5-12.6,10.1-21,6.6C579,368.3,569.7,368.5,569.9,361.3z M641.1,353.2c3.4,7.4,6.1,15.2,6.4,23.5c0,0,0,0,0,0h0
			c3,8.8-2.4,11.6-9.5,12.1c-14.9,1.1-29.6-0.4-46.7-9.4c17.2-0.8,30.8-1.3,44.3-1.9c5.2-8.1-1.1-12.4-5.5-17.8
			c-5.4-6.6-12.9-9.7-19.9-13.9c0,0,0,0,0,0v0c-11.6-1.3-23.4-3-34.3,2.5c-9.5,4.8-23.8,7.9-9.1,25.9c-18.9-10.6-19.3-13-7.3-24.9
			c8.9-8.8,19.8-11.4,31.9-10.7c6.3,0.4,12.6,0,18.9,0C622.4,334.5,635.3,340.3,641.1,353.2z M539.4,341.2
			C539.4,341.2,539.4,341.2,539.4,341.2c3.7-14.1,14.2-18.3,27.3-18.7c13.1-4.3,23.9,5.7,36.6,7.2c-7,0.7-14,1.3-20.9,1.9
			c-12.5,1.1-23,6.1-31.7,15.3c-2.4,2.5-4.1,8.5-8.6,6C538.6,350.9,537.9,345.7,539.4,341.2z M526.7,391.9
			c-4.1-8.1-7.4-14-15.6-14.8c0,0,0,0,0,0c-0.4,0.6-0.9,1.2-1.4,1.7c-2.1,2.5-4.6,4.8-4.8,8.1c-0.1,1.2,0.2,2.5,0.9,3.9
			C512.2,382.1,518.8,391.2,526.7,391.9z M385.1,387c21.6-2.2,43.5-2.6,64.3-9.7l0.6-0.5c0.8-0.8,1.5-1.5,2.3-2.3
			c2.9-1.4,3.9-7.6,8.9-3.6c0.8-11.8,10.6-19.1,14.8-29.3c5.9-14.1,1.6-25.4-11.6-28.6c-34.3-8.4-62.9,2-86.7,27
			C361.3,357.2,364.6,376.6,385.1,387z M426.5,353.7c-5.7,3.3-11.3,5.4-15,12.3c-6,11.1-16.1,2.4-22.8,0.2
			c-6.4-2.1,0.2-7.2,3.1-10.4c0,0,0,0,0,0c9.5-8,20.1-10.3,31.9-6.1c1.8,0.4,3.5,0.9,5.3,1.3c5.1-0.2,8.7,2.1,10.8,7
			C434.3,359.1,430.6,355.7,426.5,353.7z M426.4,318.3c12.7-4.8,25-0.6,37.2,2c6.9,1.5,9.2,18,4.2,23.8c-3.1,3.5-4.6,1.5-6.6-0.9
			c-9.1-11.1-22-15.3-35.2-18.8c0,0,0,0,0,0c0,0,0,0,0,0c-3.6-0.3-7.5,1.3-11.3-1.6C418.7,321.2,422.6,319.8,426.4,318.3z
			 M377,354.1c20-26.9,54.5-29.8,78.1-6.1c8.6,8.7,4.6,16.4-11.7,22.4c6.3-12.3,4.4-17.7-8.3-23c-15.6-6.6-39.7-3.8-48.6,6.1
			c-3.4,3.7-9.3,7.3-6.7,13.4c2.2,5.2,7.7,6.9,13.3,7.5c2.8,0.3,5.9-0.5,8.1,2c-7.9,6.2-17.2,6.5-23,0
			C372.1,369.5,370.9,362.3,377,354.1z"/>
	</g>
</g>
</svg>
