<?xml version="1.0" encoding="utf-8"?>
<!-- Generator: Adobe Illustrator 21.0.0, SVG Export Plug-In . SVG Version: 6.00 Build 0)  -->
<svg version="1.1" id="Слой_1" xmlns="http://www.w3.org/2000/svg" xmlns:xlink="http://www.w3.org/1999/xlink" x="0px" y="0px"
	 viewBox="0 0 1000 1000" style="enable-background:new 0 0 1000 1000;" xml:space="preserve">
<g>
	<g>
		<path d="M481.8,216.8c-2.2,3.6-5.4,6.9-5.1,12.2c4.7-5.1,5.4-6.9,5.3-12.5c0-0.1,0.1-0.1,0.1-0.2c0,0,0,0,0-0.1c0,0,0,0,0,0
			c0,0,0,0,0,0c-0.1,0-0.1-0.1-0.2-0.1C482,216.3,481.9,216.6,481.8,216.8z M449.4,276.3c1.9,2,1.2,6.9,6,5.7
			c20-4.9,40.1-2.3,60.2-1.6c2.3,0.1,5.5-0.2,5.8,2.9c0.4,3.2-3,3.5-5.1,4.1c-9.6,2.7-19.3,2.7-29.2,1c-5.7-0.9-11.4-3.7-18.1-1.4
			c4,3.7,9.5,5.7,7.8,12.6c-0.8,3.3,3.3,3.4,5.9,3.6c9.1,0.8,18.2,1,27.4,0.9c13.7-0.1,15.3-1,18.8-13.9c1.4-5,2.2-10.4,10.1-9
			c2.7,0.5,6-1.6,8-4.2c1-1.3,1.9-2.7,0.6-4.5c-6.3-8.6-23.1-9.2-30.3-1.1c-0.3,0.4-1.3,0.5-1.9,0.4c-3.7-0.7-7.1,1.4-10.6,1.3
			c-7.4-0.2-16.3,1.2-21.6-2.5c-4.6-3.2-9.7-2.4-13.8-5.4c-1.7-1.2-5.2-1.6-6.4,1.2c-2.7,6.4-8.5,7.6-14,9.6c-0.1,0-0.1,0-0.2,0
			c0,0,0,0,0,0c0,0,0,0,0,0c-0.1,0-0.1,0.1-0.2,0.1c0,0,0.1,0.1,0.1,0.1C449,276.2,449.2,276.3,449.4,276.3z M485.4,298.7
			c9.5-2.7,18.1,0.4,26.5-1C504.5,302.5,494.7,302.9,485.4,298.7z M878.4,576.2c-4.3-8.8-9.6-17.1-18.7-21.9
			c-4.8-2.6-9.5-5.9-10.2-11.5c-1-8.2-6-13.4-11.7-18.3c-5.6-4.8-9.3-10.6-11.9-17.6c-2.9-8-1.7-18.9-13.5-21.6
			c-0.4-0.1-0.7-1.2-1-1.8c-3.8-10.7-7.5-21.5-14.6-30.7c-0.8-1.1-1.4-2.7-1.3-4c0.8-7.9-1.2-15.3-4.6-22.2
			c-6.1-12.7-9-26.9-18-38.3c-2.4-3-5.1-4.5-8.5-6c-9.7-4.3-20-6.7-29.7-10.6c-23.1-9.2-46.1-17.9-71.1-20.2
			c-2.8-0.3-5.7-0.3-8.2-2.1c-16.8-12.1-35.3-20.4-56.1-22.8c-2-0.2-3.7-0.8-5.3-2c-7.6-5.2-14.7-10.8-21.1-17.4
			c-3.7-3.8-5.1-7.3-1.5-11.9c8.4-10.6,4.3-25.9,13.2-36.3c-0.1-0.2-0.2-0.5-0.3-0.7c4.2-2.8,7.2-7.9,9.5-12.6
			c2.2-4.4,4.4-8.9,6.7-13.3c2.1-4.2,4.2-8.4,5.9-12.7c2-5,3.6-10.5,2.8-15.9c-0.3-2.1-1.5-5.3-3.3-7.6c-0.5-1.3-1.4-2.6-2-3.8
			c-2.3-4.4-4-8.4-2.8-13.6c6.7-29.3,2-57.8-7.9-85.4c-5.9-16.4-14.6-31.2-30.5-40.7c-5.5-3.3-12.2-5-16.7-9.2
			c-7.3-6.8-17.3-9.1-24.4-16c-0.9-0.9-2.7-1.4-4-1.4c-11,0-22.2-2.6-33.1-0.6c-19.5,3.5-38.3,10-55.1,20.5
			c-9.1,5.7-19.6,11.2-23.3,22.7c-2.3,7.4-5.1,14.5-8.9,21.2c-14,24.2-16.6,49.9-11.4,77.1c1.5,7.9,5,16.9-3.2,24.4
			c-0.9,0.9-1.7,2-2.1,3.1c-5.6,3.7-8.5,13.8-6.7,19.7c1.7,5.5,6,9.8,9.1,14.8c2.9,4.7,4.6,10.1,7.1,15c2.5,4.9,6.2,9.7,11.3,11.6
			c1.4,0.5,3,0.8,4.4,0.4c1.3,1.3,2.3,3.2,2.8,5.7c2.3,9.8,4.8,19.5,8.5,29c4.7,12.2-7.1,27.6-20.3,28.4c-12,0.7-24.4,3.1-31.4,13.3
			c-5.2,7.7-11.9,8.9-19,9.2c-29.7,1.2-57.8,8.8-85.2,19.6c-7.8,3.1-15.1,7.5-23.7,8c-1.8,0.1-3.5,0.8-4.2,2.4
			c-3.3,7.4-8.9,14.8-9.8,21.9c-1.1,8.3-3.5,18.1,1.6,26.7c1.4,2.4,1.7,5.1-0.5,7.3c-6.6,6.8-8.5,17.2-17.2,22.6
			c-2,1.2-2.9,4.3-4,6.7c-4.1,9.4-8.9,18.3-15.1,26.5c-2,2.7-5.6,2.6-6.9,5.9c-3.4,8.1-9.9,13.5-16.4,18.8
			c-5.4,4.3-9.7,9.7-11.7,16.2c-4.7,15.2-15.2,26.8-25.3,38c-8.2,9.1-12.6,20.1-19.7,29.7h339.4c-5.3-55.2-8.2-110.6-14.1-165.7
			c3.9,7,8.9,13.4,14.7,19c2.7,2.5,6.3,5,9.7,3.7c1.4-0.6,2.4-1.7,3.3-3c-0.3,0.7-0.5,1.4-0.8,2.1c5.8-11,11.5-22.1,17.3-33.3
			c2.2,2.3,2.9,4.9,2.9,7.6c-0.2,11.7-1.8,23.1-8.1,33.1c-5.2,8.3-8.8,17-10.6,26.6c-6.7,36.4-6.8,73.2-7.1,110H478
			c-0.6-1.3-1-2.7-1.8-3.8c-4.8-7.3-6.2-14.5,0.7-21.7c1.7,8.8,7.2,16.4,8.4,25.5h17.3c-6.4-11.1-9.8-22.4-2.7-34.6
			c0.1-0.2,0-0.5,0-0.7c-0.7-10.1,0-19.6,5.4-27.5c1.8-1,3.5-2.3,4.9-3.9c2.5-2.9,4-6.8,3.5-10.5c-0.1-0.9-0.3-1.7-0.5-2.6
			c0.4-1.2,1.3-1.9,2.7-1.8c2.6,0.2,4.3,3.5,4,6c-0.5,4.9-0.6,9.9-3,14.5c-2.8,5.3-5.1,10.8-7.7,16.2c-0.4,0.9-1.3,1.8-1.2,2.6
			c1.3,6.4,0.6,12.2-4.2,17.3c-0.6,0.7-0.7,2.8,1.5,3.1c3.1,0.5,4.1,2.1,3.3,5.2c-1.3,4.7,0,6.7,5.1,5c-2.6,3.6,0.1,8.3-2.6,11.8
			h8.7c4.5-3.6,9-8.6,14.6-8.6c6.9,0,9.1-2.1,8.5-8.6c-1.6-19.7-3.5-39.3-4.3-59c-1-26.2-11.5-47.8-30-65.8c-3.1-3-3.8-6.1-3.1-10.3
			c1.4-8.3,6.3-15,9.6-22.3c2.6-5.6,5.5-5.2,9.1,0.1c4.6,6.8,9.2,13.6,13.8,20.4c1.3,3.6,5.2,8.3,6.7,10.8c0.5,0.9,1.1,1.8,1.9,2.4
			c1.4,1.1,3.3,1.1,5,1.1c1.3,0,2.6,0,4,0c1,0,2,0,2.9-0.4c0.1,0,0.1-0.1,0.2-0.1c-2.4,39.3-3.6,78.6-7.4,117.8
			c-0.8,8.5,4.6,12.5,13.1,10c2.5-0.7,5-2.1,7.7-1.1c10.7,3.8,21.8,6.9,31.2,13.7h284.5C886.7,585.6,881.1,581.9,878.4,576.2z
			 M392.8,201.9c0.1,0,0.2,0,0.3,0.1C393,202,392.9,202,392.8,201.9C392.8,202,392.8,201.9,392.8,201.9z M388.1,193.6
			C388.1,193.6,388.1,193.6,388.1,193.6c0-0.3,0-0.5,0-0.8C388,193.1,388.1,193.3,388.1,193.6z M389.5,224.5
			c-0.7-0.1-1.3-0.5-1.9-0.8c-4.8-2.9-9.6-6.8-11.1-12.2c-1.3-4.7,1.2-10.6,5.6-12.1c0.8,0.6,2,1.1,3.6,1.4c0.7,0.1,1.2,0.4,1.5,0.7
			c-0.1,0.5-0.3,1-0.5,1.5c-1.2,3.1,0.2,7.1,3.1,8.7c-0.2-2.4,0.4-4.8,1.5-6.9c0.1-0.2,0.3-0.4,0.4-0.6c0.7-0.1,1.7,0.6,2.8,1.5
			c1.9,1.7,3.2,3.8,2.1,6.4c-1.1,2.6-0.9,5-0.4,7.4C393.8,220.7,392.3,224.8,389.5,224.5z M404.6,250.6c-0.1,0-0.3,0.1-0.4,0.1
			c-1.1,0.2-2.3-0.3-3.3-0.9c-4.2-2.3-7.6-5.9-9.7-10.2c-0.7-1.5-1.3-3.1-1.2-4.7c0.2-3.1,2.8-5.4,4.9-7.7c0.9-1,1.8-2.1,2.4-3.3
			c1.9,6.9,4.8,13.4,7.1,20C405.4,246.9,405.9,249.3,404.6,250.6z M407.6,250.9C407.6,250.9,407.6,250.9,407.6,250.9
			c0.2-0.2,0.3-0.4,0.4-0.6C407.9,250.6,407.7,250.8,407.6,250.9z M524.6,564.7c-0.5-6.8,3.7-10.7,7.6-14.8
			C529.9,554.8,530.7,561.2,524.6,564.7z M526.2,516.8c0.5,1.9-1,4.2,2.2,6c-3.9-0.1-5.9-1.4-6.3-3
			C521.9,518.5,524.1,517.4,526.2,516.8z M590.3,233.6c-4.1-1-2.3-4-2.5-6.1c-0.4-5.8,0.8-11.3,2.6-16.9c1.9-5.8,8.1-6.2,11.4-7.7
			c0.4-0.2,0.7-0.3,1-0.5c3.9,5.8,2.6,14.1-0.6,20.5c-3.5,7-8.8,13.1-11.3,20.5c-1.5,4.3-2.4,9.4-6.3,11.6c-0.3,0.2-0.7,0.3-1,0.5
			c-1.3-6.9,3.1-12.2,6.8-17.8C591.2,236.3,591.5,233.9,590.3,233.6z M423.8,191.9c5.4-3.2,11.7-1.3,15.2,1.4
			c9.2,7.2,18.5,8.8,28.9,2c-5.2-0.3-10.2,2.5-15-1.1c3.5-1.4,7.1-0.3,10.8-3.2c-5.3-1.8-13,1.4-15.2-7.8c8.8,8,12,7.8,18-0.9
			c1.5-2.2,2.6-1.4,4.1-0.5c4.5,2.8,8.9,5.7,14.7,3.8c3-1,4.1,1.6,3.4,3.9c-2.9,8.7,0.9,19.1-6.7,26.7c3.2,1.5,3.7,5.4,6.8,8
			c0.8-3.5,3.6-6.4,0.1-9.8c-0.5-0.5-0.6-2-0.2-2.6c6.8-10.6,1.5-22.1,2.8-33c1.1-9.8-6.8-15-10.1-22.5c-1.9-4.2-10.5-5.4-15.2-3.4
			c-8.6,3.7-18.2,1.3-26.4,5.7c-2.3,1.2-4.9,1.8-8.2,2.9c1.3-5,0.2-8.9-2.2-12.9c-2-3.3-2.9-7.1-2.1-11.5c1-5.3-0.5-10.6-3.7-15.3
			c-2.5-3.6-0.6-14.7,2.8-17.4c1-0.8,1.7-0.6,2.4,0.3c3.8,4.7,7.7-0.7,7.7-1.7c0.5-8.9,7.9-6.5,12.5-7.9c9.6-3,19.5-4.4,29.2-7.1
			c7.3-2.1,14.7-6.2,22.9-2.6c1.4,0.6,4,0,5.5-0.9c8.5-5,17-2.1,25.5-0.3c-0.6,1,4.6,0.4,0.6,2.5c-1.3,0.7-2,2.2-1,3.7
			c0.8,1.3,2.1,2,3.7,1.7c3.7-0.7,7.2-2.3,10.8,0.6c5.6,4.4,9.9,9.8,10,17c0,9.5,3.9,17.3,8.5,25.1c3.6,6,2.5,15.9-1.9,20.2
			c-1,1-2.1,0.7-3.3,0.5c-8.1-1-16.2-1.9-24.2-3c-14.3-2-19.2,1.1-23.9,14.7c-5.5,15.9-4.7,32-1.5,48.2c0.5,2.3,1.3,4.6,1.9,6.9
			c1.3,5.5-0.3,10.8-4.9,13.1c-4.5,2.3-10.1,3-14.5-1.9c-1.8-2-3-4.2-4.7-6.5c-2.3,1.7-2.2,6.3-6.6,5.1c-3.9-1.1-5.7,0.9-6.5,4.6
			c-0.9,4.3-1.4,9.2,3.4,10.4c8.3,2.2,13,8.3,18.6,13.8c3.9,3.9,7.9,3,11-1.7c3.2-4.8,6.9-9.1,13.1-10.2c3.5-0.6,5.6-2.7,5.5-6.4
			c0-3.4-0.4-6.5-4-8.5c-8-4.4-9.2-7.5-7.2-16.2c1.1-5-1.1-9.5-2-14.1c-2.3-11.4-2.4-11.4,5.8-21.1c2.1,1.8-1.9,3.4,0.4,5.1
			c1.8,0.3,3.6-1.1,5.3-2.2c3.4-2,5.4-3.4,7.6,2.1c2.7,6.7,10.2,5.6,15.9-1.7c2.2,1,2.9,3.9,1.5,4.4c-5.2,1.6-7.5,6.8-12.2,9.2
			c6.2,2.7,12.1,2,17.1-1.7c3.6-2.7,9.3-2.6,10.7-8.3c0.3-1.2,2.7-0.9,3.9,0c3.3,2.4,6.9,5,6.9,9.5c0,3.8,0.3,7.9-1.5,11.3
			c-4.7,8.7-3.1,18.4-4.2,27.7c-0.9,7.3-2.9,14.2-5.8,20.7c-1.6,3.6-7.4,3.7-9.9,7.7c-1.2,2-3.3,3.6-3.1,6.3
			c0.9,10.1-2.5,17.5-9.6,25.4c-5.9,6.5-12.4,13.2-16.9,21c-5.7,10-15.9,9.9-24.5,10.3c-11.8,0.6-22.1-6-31.7-12.6
			c-1-0.7-2.6-1.6-2.6-2.3c0.4-15-15.3-18.6-20.5-29.5c-1.5-3.1-1.9-7.7,3.2-9.4c-2.5-2.3,2.7-4.4-0.5-8.2
			c-6.6-7.7-9.3-18.3-19.1-24c-2.4-1.4-3.1-7-3.2-10.7c-0.1-9.8-5-18.4-6.2-27.8C419.1,200.2,418.5,195.1,423.8,191.9z M483,463
			c-2,14.6-1.7,28.9,2.7,43c-6.5-7.4-10.5-15.9-11-25.1C474.3,474.3,480.5,469.3,483,463z M493,525.4c-5,11.1-10,22.3-15.1,33.4
			c-0.6,1.4-2.3,2.2-3.7,3.5c-0.2-1-0.5-1.5-0.4-1.9c1.2-8.4,6.4-15.8,4.8-25.2c-0.9-5.4,5.8-9.1,9.9-12.8c1.1-1,2.6-1.3,4-0.2
			C493.5,523.1,493.6,524.1,493,525.4z M499.8,527c-0.9,1-2.3,0.5-3.2-0.4c-1.1-1.1-0.7-2.8,0.3-3c7.1-1.3,7.8-9.4,13.4-12.5
			C511.5,519.8,504.2,522.4,499.8,527z M497.3,471.7c0.8,3.2,2.5,6.3,1.6,9.9C495.7,478.6,496.5,475.1,497.3,471.7z M511.2,485.5
			c-2.2,4.5-4.3,8.7-1.7,13.9c-3.1-2.3-5.4-5.4-5.5-8.7C503.9,486.8,509.4,488.3,511.2,485.5z M565.7,377.2c-3,22.9-4.9,46-6.4,69
			c-1.6,1.1-3.4,2-5.3,2.5c-1.4,0.4-2.9,0.6-4.3,0.2c-0.3-0.1-0.6-0.2-0.9-0.3c-1.1-1-2.2-1.8-2.9-2.9c-7-10.7-13.6-21.5-19.1-33.1
			c-4.9-10.3-11.3-19.6-19-28c-3.7-4-15.6-5.4-17.9-2.1c-10.1,14.7-16.8,30.9-22.9,47.4c-2.1,4.6-4.2,9.1-6.3,13.7
			c-0.4,0.8-0.8,1.7-1.6,2.2c-0.8,0.5-1.8,0.5-2.7,0.4c-6.9-0.9-11.7-7.1-15.7-12.7c-2.5-3.6-5.1-7.2-7.6-10.8
			c-0.4-3.8-0.9-7.6-1.3-11.4c-2.7-22.5-9.2-44.3-12.2-66.7c-1.2-8.5-2.6-17.1,0.3-25.6c0.6,0,1.3-0.1,1.4,0
			c9.2,18.5,25.9,29.3,42.1,40.6c7.3,5.1,14.6,10.1,22.2,14.8c8.9,5.5,17.3,5.6,25.8-1.6c17.4-14.8,35.1-29.3,50.6-47.1
			c2.9,3.4,4.4,6.9,4.6,11C567.2,350.4,567.4,364.2,565.7,377.2z"/>
	</g>
</g>
<g>
	<g>
		<path d="M279.7,873h-2.2v-45.8h2.2c0.5,0,0.9-0.4,0.9-0.9V820c0-0.5-0.4-0.9-0.9-0.9h-12.6c-0.5,0-0.9,0.4-0.9,0.9v6.3
			c0,0.5,0.4,0.9,0.9,0.9h2.2V873h-2.2c-0.5,0-0.9,0.4-0.9,0.9v6.3c0,0.5,0.4,0.9,0.9,0.9h12.6c0.5,0,0.9-0.4,0.9-0.9v-6.3
			C280.6,873.4,280.2,873,279.7,873z M737.2,725.4h9.4c5.7,0,10.3-4.6,10.3-10.3l0-41.3c0-5.7-4.6-10.3-10.3-10.3h-9.4
			c-0.5,0-0.9,0.4-0.9,0.9v60.2C736.3,725,736.7,725.4,737.2,725.4z M744.4,671.6h2.2c1.2,0,2.2,1,2.2,2.2l0,41.3
			c0,1.2-1,2.2-2.2,2.2h-2.2V671.6z M263.2,741.3h-18.9c-0.5,0-0.9,0.4-0.9,0.9v6.3c0,0.5,0.4,0.9,0.9,0.9h5.4l0,53
			c0,0.5,0.4,0.9,0.9,0.9l6.3,0c0.2,0,0.5-0.1,0.6-0.3c0.2-0.2,0.3-0.4,0.3-0.6l0-53h5.4c0.5,0,0.9-0.4,0.9-0.9v-6.3
			C264.1,741.7,263.7,741.3,263.2,741.3z M740.8,803.3c5.7,0,10.3-4.6,10.3-10.3v-18.4c0-8.1-5-11-8.3-13c-2.9-1.7-4.3-2.5-4.3-5.9
			v-4c0-1.2,1-2.2,2.2-2.2c1.2,0,2.2,1,2.2,2.2v3.1c0,0.5,0.4,0.9,0.9,0.9h6.3c0.5,0,0.9-0.4,0.9-0.9v-3.1c0-5.7-4.6-10.3-10.3-10.3
			c-5.7,0-10.3,4.6-10.3,10.3v4c0,8.1,5,11,8.3,12.9c2.9,1.7,4.3,2.5,4.3,6v18.4c0,1.2-1,2.2-2.2,2.2c-1.2,0-2.2-1-2.2-2.2v-3.1
			c0-0.5-0.4-0.9-0.9-0.9h-6.3c-0.5,0-0.9,0.4-0.9,0.9v3.1C730.5,798.6,735.1,803.3,740.8,803.3z M243.9,724.5v-6.3
			c0-0.5-0.4-0.9-0.9-0.9h-2.2v-45.8h2.2c0.5,0,0.9-0.4,0.9-0.9v-6.3c0-0.5-0.4-0.9-0.9-0.9h-12.6c-0.5,0-0.9,0.4-0.9,0.9v6.3
			c0,0.5,0.4,0.9,0.9,0.9h2.2v45.8h-2.2c-0.5,0-0.9,0.4-0.9,0.9v6.3c0,0.5,0.4,0.9,0.9,0.9H243C243.5,725.4,243.9,725,243.9,724.5z
			 M205.8,741.3h-9.4c-0.5,0-0.9,0.4-0.9,0.9v60.2c0,0.5,0.4,0.9,0.9,0.9h9.4c5.7,0,10.3-4.6,10.3-10.3l0-21.6
			c0-2.3-0.8-4.5-2.1-6.3c1.4-1.8,2.1-4,2.1-6.3l0-7.2v0C216.1,745.9,211.5,741.3,205.8,741.3z M208,792.9c0,1.2-1,2.2-2.2,2.2h-2.2
			v-26h2.2c1.2,0,2.2,1,2.2,2.2L208,792.9z M208,758.8c0,1.2-1,2.2-2.2,2.2h-2.2v-11.7h2.2c1.2,0,2.2,1,2.2,2.2L208,758.8z
			 M240.2,741.3H234c-0.5,0-0.9,0.4-0.9,0.9v50.7c0,1.2-1,2.2-2.2,2.2c-1.2,0-2.2-1-2.2-2.2v-50.7c0-0.5-0.4-0.9-0.9-0.9h-6.3
			c-0.5,0-0.9,0.4-0.9,0.9v50.7c0,5.7,4.6,10.3,10.3,10.3c5.7,0,10.3-4.6,10.3-10.3v-50.7C241.1,741.7,240.7,741.3,240.2,741.3z
			 M293.3,795.2h-2.2v-45.8h2.2c0.5,0,0.9-0.4,0.9-0.9v-6.3c0-0.5-0.4-0.9-0.9-0.9h-12.6c-0.5,0-0.9,0.4-0.9,0.9v6.3
			c0,0.5,0.4,0.9,0.9,0.9h2.2v45.8h-2.2c-0.5,0-0.9,0.4-0.9,0.9v6.3c0,0.5,0.4,0.9,0.9,0.9h12.6c0.5,0,0.9-0.4,0.9-0.9v-6.3
			C294.2,795.6,293.8,795.2,293.3,795.2z M792,727c3.1,0,5.6-2.5,5.6-5.6c0-3.1-2.5-5.6-5.6-5.6c-3.1,0-5.6,2.5-5.6,5.6
			C786.4,724.5,788.9,727,792,727z M342.2,803.3c0.5,0,0.8-0.3,0.9-0.8l1.4-11.8h4.3l1.4,11.8c0.1,0.5,0.4,0.8,0.9,0.8h6.3
			c0.3,0,0.5-0.1,0.7-0.3c0.2-0.2,0.2-0.5,0.2-0.7l-7.6-60.2c-0.1-0.4-0.4-0.8-0.9-0.8h-6.2c-0.5,0-0.8,0.3-0.9,0.8l-7.6,60.2
			c0,0.3,0,0.5,0.2,0.7c0.2,0.2,0.4,0.3,0.7,0.3H342.2z M346.6,772.7l1.2,9.9h-2.3L346.6,772.7z M336.1,819.1h-6.2
			c-0.5,0-0.8,0.3-0.9,0.8l-7.6,60.2c0,0.3,0,0.5,0.2,0.7c0.2,0.2,0.4,0.3,0.7,0.3h6.3c0.5,0,0.8-0.3,0.9-0.8l1.4-11.8h4.3l1.4,11.8
			c0.1,0.5,0.4,0.8,0.9,0.8h6.3c0.3,0,0.5-0.1,0.7-0.3c0.2-0.2,0.2-0.5,0.2-0.7l-7.6-60.2C336.9,819.4,336.5,819.1,336.1,819.1z
			 M331.8,860.4l1.2-9.9l1.2,9.9H331.8z M771.7,725.4c5.7,0,10.3-4.6,10.3-10.3v-41.3c0-5.7-4.6-10.3-10.3-10.3s-10.3,4.6-10.3,10.3
			v41.3C761.3,720.8,766,725.4,771.7,725.4z M769.4,673.8c0-1.2,1-2.2,2.2-2.2c1.2,0,2.2,1,2.2,2.2v41.3c0,1.2-1,2.2-2.2,2.2
			c-1.2,0-2.2-1-2.2-2.2V673.8z M318.2,819.1l-6.3,0c-0.2,0-0.5,0.1-0.6,0.3c-0.2,0.2-0.3,0.4-0.3,0.6l0,18.9h-4.5l0-18.9
			c0-0.5-0.4-0.9-0.9-0.9l-6.3,0c-0.2,0-0.5,0.1-0.6,0.3c-0.2,0.2-0.3,0.4-0.3,0.6l0,60.2c0,0.5,0.4,0.9,0.9,0.9l6.3,0
			c0.2,0,0.5-0.1,0.6-0.3c0.2-0.2,0.3-0.4,0.3-0.6l0-33.2h4.5l0,33.2c0,0.5,0.4,0.9,0.9,0.9l6.3,0c0.2,0,0.5-0.1,0.6-0.3
			c0.2-0.2,0.3-0.4,0.3-0.6l0-60.2C319.1,819.5,318.7,819.1,318.2,819.1z M318.4,741.3l-6.3,0c-0.2,0-0.5,0.1-0.6,0.3
			c-0.2,0.2-0.3,0.4-0.3,0.6l0,23.4l-4.5-23.6c-0.1-0.4-0.5-0.7-0.9-0.7l-6.3,0c-0.2,0-0.5,0.1-0.6,0.3c-0.2,0.2-0.3,0.4-0.3,0.6
			l0,60.2c0,0.5,0.4,0.9,0.9,0.9l6.3,0c0.5,0,0.9-0.4,0.9-0.9l0-23.9l4.5,24c0.1,0.4,0.4,0.7,0.9,0.7l6.3,0c0.2,0,0.5-0.1,0.6-0.3
			c0.2-0.2,0.3-0.4,0.3-0.6l0-60.2C319.3,741.7,318.9,741.3,318.4,741.3z M299.8,724.7c0.1,0.4,0.5,0.7,0.9,0.7l6.3,0
			c0.2,0,0.5-0.1,0.6-0.3c0.2-0.2,0.3-0.4,0.3-0.6l0-60.2c0-0.5-0.4-0.9-0.9-0.9l-6.3,0c-0.2,0-0.5,0.1-0.6,0.3
			c-0.2,0.2-0.3,0.4-0.3,0.6l0,23.4l-4.5-23.6c-0.1-0.4-0.5-0.7-0.9-0.7l-6.3,0c-0.2,0-0.5,0.1-0.6,0.3c-0.2,0.2-0.3,0.4-0.3,0.6
			l0,60.2c0,0.5,0.4,0.9,0.9,0.9l6.3,0c0.5,0,0.9-0.4,0.9-0.9l0-23.9L299.8,724.7z M389.3,725.4H406c0.5,0,0.9-0.4,0.9-0.9v-6.3
			c0-0.5-0.4-0.9-0.9-0.9h-9.5v-26h5.4c0.5,0,0.9-0.4,0.9-0.9v-6.3c0-0.5-0.4-0.9-0.9-0.9h-5.4v-11.7h9.5c0.5,0,0.9-0.4,0.9-0.9
			v-6.3c0-0.5-0.4-0.9-0.9-0.9h-16.7c-0.5,0-0.9,0.4-0.9,0.9v60.2C388.4,725,388.8,725.4,389.3,725.4z M567,725.4h6.2
			c0.4,0,0.8-0.3,0.9-0.7l1.4-8l1.4,8c0.1,0.4,0.4,0.7,0.9,0.7h6.2c0.4,0,0.8-0.3,0.9-0.7l10.5-60.2c0-0.3,0-0.5-0.2-0.7
			c-0.2-0.2-0.4-0.3-0.7-0.3h-6.4c-0.4,0-0.8,0.3-0.9,0.8l-6.4,39l-1.5-9l5.2-29.7c0-0.3,0-0.5-0.2-0.7c-0.2-0.2-0.4-0.3-0.7-0.3
			h-6.4c-0.5,0-0.8,0.3-0.9,0.8l-1,7.4l-1-7.4c-0.1-0.4-0.4-0.8-0.9-0.8h-6.4c-0.3,0-0.5,0.1-0.7,0.3c-0.2,0.2-0.2,0.5-0.2,0.7
			l5.2,29.7l-1.5,9l-6.3-39c-0.1-0.4-0.4-0.8-0.9-0.8h-6.4c-0.3,0-0.5,0.1-0.7,0.3c-0.2,0.2-0.2,0.5-0.2,0.7l10.5,60.2
			C566.2,725.1,566.6,725.4,567,725.4z M583.5,771.4l0-19.8c0-5.7-4.6-10.3-10.3-10.3h-9.4c-0.5,0-0.9,0.4-0.9,0.9v60.2
			c0,0.5,0.4,0.9,0.9,0.9h6.3c0.5,0,0.9-0.4,0.9-0.9v-18l5.3,18.2c0.1,0.4,0.5,0.6,0.9,0.6h6.5c0.3,0,0.5-0.1,0.7-0.4
			c0.2-0.2,0.2-0.5,0.1-0.8l-6.3-21.7C581.4,778.6,583.5,775.1,583.5,771.4z M573.2,773.6h-2.2v-24.2h2.2c1.2,0,2.2,1,2.2,2.2
			l0,19.8C575.4,772.6,574.4,773.6,573.2,773.6z M357.1,819.1h-9.4c-0.5,0-0.9,0.4-0.9,0.9v60.2c0,0.5,0.4,0.9,0.9,0.9h9.4
			c5.7,0,10.3-4.6,10.3-10.3l0-41.3C367.5,823.7,362.8,819.1,357.1,819.1z M359.4,870.7c0,1.2-1,2.2-2.2,2.2h-2.2v-45.8h2.2
			c1.2,0,2.2,1,2.2,2.2L359.4,870.7z M648,742.2v60.2c0,0.5,0.4,0.9,0.9,0.9h16.7c0.5,0,0.9-0.4,0.9-0.9v-6.3c0-0.5-0.4-0.9-0.9-0.9
			h-9.5v-26h5.4c0.5,0,0.9-0.4,0.9-0.9v-6.3c0-0.5-0.4-0.9-0.9-0.9h-5.4v-11.7h9.5c0.5,0,0.9-0.4,0.9-0.9v-6.3
			c0-0.5-0.4-0.9-0.9-0.9h-16.7C648.4,741.3,648,741.7,648,742.2z M656.7,826.3V820c0-0.5-0.4-0.9-0.9-0.9H637
			c-0.5,0-0.9,0.4-0.9,0.9v6.3c0,0.5,0.4,0.9,0.9,0.9h5.4l0,53c0,0.5,0.4,0.9,0.9,0.9l6.3,0c0.2,0,0.5-0.1,0.6-0.3
			c0.2-0.2,0.3-0.4,0.3-0.6l0-53h5.4C656.3,827.2,656.7,826.8,656.7,826.3z M642.4,671.6h5.4l0,53c0,0.5,0.4,0.9,0.9,0.9l6.3,0
			c0.2,0,0.5-0.1,0.6-0.3c0.2-0.2,0.3-0.4,0.3-0.6l0-53h5.4c0.5,0,0.9-0.4,0.9-0.9v-6.3c0-0.5-0.4-0.9-0.9-0.9h-18.9
			c-0.5,0-0.9,0.4-0.9,0.9v6.3C641.5,671.2,641.9,671.6,642.4,671.6z M621.3,725.4h6.3c0.5,0,0.8-0.3,0.9-0.8l1.4-11.8h4.3l1.4,11.8
			c0.1,0.5,0.4,0.8,0.9,0.8h6.3c0.3,0,0.5-0.1,0.7-0.3c0.2-0.2,0.2-0.5,0.2-0.7l-7.6-60.2c-0.1-0.4-0.4-0.8-0.9-0.8h-6.2
			c-0.5,0-0.8,0.3-0.9,0.8l-7.6,60.2c0,0.3,0,0.5,0.2,0.7S621.1,725.4,621.3,725.4z M632.1,694.9l1.2,9.9h-2.3L632.1,694.9z
			 M604.9,749.4c0.5,0,0.9-0.4,0.9-0.9v-6.3c0-0.5-0.4-0.9-0.9-0.9h-16.7c-0.5,0-0.9,0.4-0.9,0.9v60.2c0,0.5,0.4,0.9,0.9,0.9h16.7
			c0.5,0,0.9-0.4,0.9-0.9v-6.3c0-0.5-0.4-0.9-0.9-0.9h-9.5v-26h5.4c0.5,0,0.9-0.4,0.9-0.9v-6.3c0-0.5-0.4-0.9-0.9-0.9h-5.4v-11.7
			H604.9z M708.1,725.4c5.7,0,10.3-4.6,10.3-10.3v-41.3c0-5.7-4.6-10.3-10.3-10.3s-10.3,4.6-10.3,10.3v41.3
			C697.8,720.8,702.4,725.4,708.1,725.4z M705.8,673.8c0-1.2,1-2.2,2.2-2.2c1.2,0,2.2,1,2.2,2.2v41.3c0,1.2-1,2.2-2.2,2.2
			c-1.2,0-2.2-1-2.2-2.2V673.8z M598.5,725.4l6.3,0c0.2,0,0.5-0.1,0.6-0.3c0.2-0.2,0.3-0.4,0.3-0.6l0-33.2h4.5l0,33.2
			c0,0.5,0.4,0.9,0.9,0.9l6.3,0c0.2,0,0.5-0.1,0.6-0.3s0.3-0.4,0.3-0.6l0-60.2c0-0.5-0.4-0.9-0.9-0.9l-6.3,0c-0.2,0-0.5,0.1-0.6,0.3
			c-0.2,0.2-0.3,0.4-0.3,0.6l0,18.9h-4.5l0-18.9c0-0.5-0.4-0.9-0.9-0.9l-6.3,0c-0.2,0-0.5,0.1-0.6,0.3c-0.2,0.2-0.3,0.4-0.3,0.6
			l0,60.2C597.6,725,598,725.4,598.5,725.4z M313.2,725.4h16.7c0.5,0,0.9-0.4,0.9-0.9v-6.3c0-0.5-0.4-0.9-0.9-0.9h-9.5v-26h5.4
			c0.5,0,0.9-0.4,0.9-0.9v-6.3c0-0.5-0.4-0.9-0.9-0.9h-5.4v-11.7h9.5c0.5,0,0.9-0.4,0.9-0.9v-6.3c0-0.5-0.4-0.9-0.9-0.9h-16.7
			c-0.5,0-0.9,0.4-0.9,0.9v60.2C312.3,725,312.7,725.4,313.2,725.4z M262.7,725.4h6.3c0.5,0,0.9-0.4,0.9-0.9v-28.3l6,28.5
			c0.1,0.4,0.5,0.7,0.9,0.7h6.4c0.3,0,0.5-0.1,0.7-0.3c0.2-0.2,0.2-0.5,0.2-0.8l-7.8-36.9l7.3-22.8c0.1-0.3,0-0.6-0.1-0.8
			c-0.2-0.2-0.4-0.4-0.7-0.4h-6.6c-0.4,0-0.7,0.3-0.9,0.6l-5.4,16.9v-16.6c0-0.5-0.4-0.9-0.9-0.9h-6.3c-0.5,0-0.9,0.4-0.9,0.9v60.2
			C261.8,725,262.2,725.4,262.7,725.4z M701.3,741.3H695c-0.5,0-0.9,0.4-0.9,0.9v60.2c0,0.5,0.4,0.9,0.9,0.9h16.7
			c0.5,0,0.9-0.4,0.9-0.9v-6.3c0-0.5-0.4-0.9-0.9-0.9h-9.5v-53C702.2,741.7,701.8,741.3,701.3,741.3z M644.2,771.4l0-19.8
			c0-5.7-4.6-10.3-10.3-10.3h-9.4c-0.5,0-0.9,0.4-0.9,0.9v60.2c0,0.5,0.4,0.9,0.9,0.9h6.3c0.5,0,0.9-0.4,0.9-0.9v-18l5.3,18.2
			c0.1,0.4,0.5,0.6,0.9,0.6h6.5c0.3,0,0.5-0.1,0.7-0.4c0.2-0.2,0.2-0.5,0.1-0.8l-6.3-21.7C642.2,778.6,644.2,775.1,644.2,771.4z
			 M633.9,773.6h-2.2v-24.2h2.2c1.2,0,2.2,1,2.2,2.2l0,19.8C636.2,772.6,635.2,773.6,633.9,773.6z M466.3,725.4
			c5.7,0,10.3-4.6,10.3-10.3V712c0-0.5-0.4-0.9-0.9-0.9h-6.3c-0.5,0-0.9,0.4-0.9,0.9v3.1c0,1.2-1,2.2-2.2,2.2c-1.2,0-2.2-1-2.2-2.2
			v-41.3c0-1.2,1-2.2,2.2-2.2c1.2,0,2.2,1,2.2,2.2v3.1c0,0.5,0.4,0.9,0.9,0.9h6.3c0.5,0,0.9-0.4,0.9-0.9v-3.1
			c0-5.7-4.6-10.3-10.3-10.3c-5.7,0-10.3,4.6-10.3,10.3v41.3C455.9,720.8,460.6,725.4,466.3,725.4z M501.7,725.4h16.7
			c0.5,0,0.9-0.4,0.9-0.9v-6.3c0-0.5-0.4-0.9-0.9-0.9h-9.5v-53c0-0.5-0.4-0.9-0.9-0.9h-6.3c-0.5,0-0.9,0.4-0.9,0.9v60.2
			C500.8,725,501.2,725.4,501.7,725.4z M474.3,802.4c0,0.5,0.4,0.9,0.9,0.9l6.3,0c0.2,0,0.5-0.1,0.6-0.3c0.2-0.2,0.3-0.4,0.3-0.6
			l0-60.2c0-0.5-0.4-0.9-0.9-0.9l-6.3,0c-0.2,0-0.5,0.1-0.6,0.3c-0.2,0.2-0.3,0.4-0.3,0.6l0,18.9h-4.5l0-18.9c0-0.5-0.4-0.9-0.9-0.9
			l-6.3,0c-0.2,0-0.5,0.1-0.6,0.3c-0.2,0.2-0.3,0.4-0.3,0.6l0,60.2c0,0.5,0.4,0.9,0.9,0.9l6.3,0c0.2,0,0.5-0.1,0.6-0.3
			c0.2-0.2,0.3-0.4,0.3-0.6l0-33.2h4.5L474.3,802.4z M676.6,671.6h5.4l0,53c0,0.5,0.4,0.9,0.9,0.9l6.3,0c0.2,0,0.5-0.1,0.6-0.3
			c0.2-0.2,0.3-0.4,0.3-0.6l0-53h5.4c0.5,0,0.9-0.4,0.9-0.9v-6.3c0-0.5-0.4-0.9-0.9-0.9h-18.9c-0.5,0-0.9,0.4-0.9,0.9v6.3
			C675.7,671.2,676.1,671.6,676.6,671.6z M629.8,819.1h-6.2c-0.5,0-0.8,0.3-0.9,0.8l-7.6,60.2c0,0.3,0,0.5,0.2,0.7s0.4,0.3,0.7,0.3
			h6.3c0.5,0,0.8-0.3,0.9-0.8l1.4-11.8h4.3l1.4,11.8c0.1,0.5,0.4,0.8,0.9,0.8h6.3c0.3,0,0.5-0.1,0.7-0.3c0.2-0.2,0.2-0.5,0.2-0.7
			l-7.6-60.2C630.6,819.4,630.2,819.1,629.8,819.1z M625.5,860.4l1.2-9.9l1.2,9.9H625.5z M733.6,939.6c-3.3,0-6,2.7-6,6v23.8
			c0,3.3,2.7,6,6,6s6-2.7,6-6v-1.8c0-0.3-0.2-0.5-0.5-0.5h-3.6c-0.3,0-0.5,0.2-0.5,0.5v1.8c0,0.7-0.6,1.3-1.3,1.3s-1.3-0.6-1.3-1.3
			v-23.8c0-0.7,0.6-1.3,1.3-1.3s1.3,0.6,1.3,1.3v1.8c0,0.3,0.2,0.5,0.5,0.5h3.6c0.3,0,0.5-0.2,0.5-0.5v-1.8
			C739.6,942.2,736.9,939.6,733.6,939.6z M713,829.4c0-5.7-4.6-10.3-10.3-10.3c-5.7,0-10.3,4.6-10.3,10.3v41.3
			c0,5.7,4.6,10.3,10.3,10.3c5.7,0,10.3-4.6,10.3-10.3V829.4z M704.9,870.7c0,1.2-1,2.2-2.2,2.2c-1.2,0-2.2-1-2.2-2.2v-41.3
			c0-1.2,1-2.2,2.2-2.2c1.2,0,2.2,1,2.2,2.2V870.7z M717.3,939.6c-3.3,0-6,2.7-6,6v2.3c0,4.7,2.9,6.3,4.8,7.4c1.7,1,2.5,1.4,2.5,3.4
			v10.6c0,0.7-0.6,1.3-1.3,1.3s-1.3-0.6-1.3-1.3v-1.8c0-0.3-0.2-0.5-0.5-0.5h-3.6c-0.3,0-0.5,0.2-0.5,0.5v1.8c0,3.3,2.7,6,6,6
			c3.3,0,6-2.7,6-6v-10.6c0-4.7-2.9-6.4-4.8-7.5c-1.7-1-2.5-1.4-2.5-3.4v-2.3c0-0.7,0.6-1.3,1.3-1.3s1.3,0.6,1.3,1.3v1.8
			c0,0.3,0.2,0.5,0.5,0.5h3.6c0.3,0,0.5-0.2,0.5-0.5v-1.8C723.3,942.2,720.6,939.6,717.3,939.6z M748.6,939.6c-3.3,0-6,2.7-6,6v23.8
			c0,3.3,2.7,6,6,6c3.3,0,6-2.7,6-6v-23.8C754.6,942.2,751.9,939.6,748.6,939.6z M749.9,969.3c0,0.7-0.6,1.3-1.3,1.3
			c-0.7,0-1.3-0.6-1.3-1.3v-23.8c0-0.7,0.6-1.3,1.3-1.3c0.7,0,1.3,0.6,1.3,1.3V969.3z M751.5,870.7l0-41.3c0-5.7-4.6-10.3-10.3-10.3
			h-9.4c-0.5,0-0.9,0.4-0.9,0.9v60.2c0,0.5,0.4,0.9,0.9,0.9h9.4C746.9,881.1,751.5,876.4,751.5,870.7z M743.4,870.7
			c0,1.2-1,2.2-2.2,2.2H739v-45.8h2.2c1.2,0,2.2,1,2.2,2.2L743.4,870.7z M681.9,939.6h-9.6c-0.3,0-0.5,0.2-0.5,0.5v34.7
			c0,0.3,0.2,0.5,0.5,0.5h9.6c0.3,0,0.5-0.2,0.5-0.5v-3.6c0-0.3-0.2-0.5-0.5-0.5h-5.5v-15h3.1c0.3,0,0.5-0.2,0.5-0.5v-3.6
			c0-0.3-0.2-0.5-0.5-0.5h-3.1v-6.7h5.5c0.3,0,0.5-0.2,0.5-0.5v-3.6C682.5,939.8,682.2,939.6,681.9,939.6z M651.7,939.6l-3.6,0
			c-0.1,0-0.3,0.1-0.4,0.2c-0.1,0.1-0.2,0.2-0.2,0.4l0,10.9h-2.6l0-10.9c0-0.3-0.2-0.5-0.5-0.5l-3.6,0c-0.1,0-0.3,0.1-0.4,0.2
			c-0.1,0.1-0.2,0.2-0.2,0.4l0,34.7c0,0.3,0.2,0.5,0.5,0.5h3.6c0.1,0,0.3-0.1,0.4-0.2c0.1-0.1,0.2-0.2,0.2-0.4l0-19.2h2.6l0,19.2
			c0,0.3,0.2,0.5,0.5,0.5h3.6c0.1,0,0.3-0.1,0.4-0.2c0.1-0.1,0.2-0.2,0.2-0.4l0-34.7C652.2,939.8,652,939.6,651.7,939.6z
			 M676.8,802.5l1.4-11.8h4.3l1.4,11.8c0.1,0.5,0.4,0.8,0.9,0.8h6.3c0.3,0,0.5-0.1,0.7-0.3c0.2-0.2,0.2-0.5,0.2-0.7l-7.6-60.2
			c-0.1-0.4-0.4-0.8-0.9-0.8h-6.2c-0.5,0-0.8,0.3-0.9,0.8l-7.6,60.2c0,0.3,0,0.5,0.2,0.7c0.2,0.2,0.4,0.3,0.7,0.3h6.3
			C676.3,803.3,676.7,802.9,676.8,802.5z M680.3,772.7l1.2,9.9h-2.3L680.3,772.7z M663.8,939.6h-3.6c-0.3,0-0.5,0.2-0.5,0.5
			l-4.4,34.7c0,0.1,0,0.3,0.1,0.4c0.1,0.1,0.2,0.2,0.4,0.2h3.7c0.3,0,0.5-0.2,0.5-0.5l0.8-6.8h2.5l0.8,6.8c0,0.3,0.3,0.5,0.5,0.5
			h3.7c0.1,0,0.3-0.1,0.4-0.2c0.1-0.1,0.1-0.3,0.1-0.4l-4.4-34.7C664.3,939.8,664,939.6,663.8,939.6z M661.3,963.4l0.7-5.7l0.7,5.7
			H661.3z M773.1,803.3c0.5,0,0.9-0.4,0.9-0.9v-6.3c0-0.5-0.4-0.9-0.9-0.9h-9.5v-26h5.4c0.5,0,0.9-0.4,0.9-0.9v-6.3
			c0-0.5-0.4-0.9-0.9-0.9h-5.4v-11.7h9.5c0.5,0,0.9-0.4,0.9-0.9v-6.3c0-0.5-0.4-0.9-0.9-0.9h-16.7c-0.5,0-0.9,0.4-0.9,0.9v60.2
			c0,0.5,0.4,0.9,0.9,0.9H773.1z M690,827.2c0.5,0,0.9-0.4,0.9-0.9V820c0-0.5-0.4-0.9-0.9-0.9h-18.9c-0.5,0-0.9,0.4-0.9,0.9v6.3
			c0,0.5,0.4,0.9,0.9,0.9h5.4l0,53c0,0.5,0.4,0.9,0.9,0.9l6.3,0c0.2,0,0.5-0.1,0.6-0.3s0.3-0.4,0.3-0.6l0-53H690z M696.9,970.6h-5.5
			v-30.5c0-0.3-0.2-0.5-0.5-0.5h-3.6c-0.3,0-0.5,0.2-0.5,0.5v34.7c0,0.3,0.2,0.5,0.5,0.5h9.6c0.3,0,0.5-0.2,0.5-0.5v-3.6
			C697.5,970.9,697.2,970.6,696.9,970.6z M823.2,715.8c-3.1,0-5.6,2.5-5.6,5.6c0,3.1,2.5,5.6,5.6,5.6c3.1,0,5.6-2.5,5.6-5.6
			C828.8,718.3,826.3,715.8,823.2,715.8z M813.7,741.3c-5.7,0-10.3,4.6-10.3,10.3v4c0,8.1,5,11,8.3,12.9c2.9,1.7,4.3,2.5,4.3,6v18.4
			c0,1.2-1,2.2-2.2,2.2c-1.2,0-2.2-1-2.2-2.2v-3.1c0-0.5-0.4-0.9-0.9-0.9h-6.3c-0.5,0-0.9,0.4-0.9,0.9v3.1c0,5.7,4.6,10.3,10.3,10.3
			c5.7,0,10.3-4.6,10.3-10.3v-18.4c0-8.1-5-11-8.3-13c-2.9-1.7-4.3-2.5-4.3-5.9v-4c0-1.2,1-2.2,2.2-2.2c1.2,0,2.2,1,2.2,2.2v3.1
			c0,0.5,0.4,0.9,0.9,0.9h6.3c0.5,0,0.9-0.4,0.9-0.9v-3.1C824.1,745.9,819.4,741.3,813.7,741.3z M371.8,663.5h-6.4
			c-0.4,0-0.8,0.3-0.9,0.8l-6.4,39l-1.5-9l5.2-29.7c0-0.3,0-0.5-0.2-0.7c-0.2-0.2-0.4-0.3-0.7-0.3h-6.4c-0.5,0-0.8,0.3-0.9,0.8
			l-1,7.4l-1-7.4c-0.1-0.4-0.4-0.8-0.9-0.8h-6.4c-0.3,0-0.5,0.1-0.7,0.3c-0.2,0.2-0.2,0.5-0.2,0.7l5.2,29.7l-1.5,9l-6.3-39
			c-0.1-0.4-0.4-0.8-0.9-0.8h-6.4c-0.3,0-0.5,0.1-0.7,0.3c-0.2,0.2-0.2,0.5-0.2,0.7l10.5,60.2c0.1,0.4,0.4,0.7,0.9,0.7h6.2
			c0.4,0,0.8-0.3,0.9-0.7l1.4-8l1.4,8c0.1,0.4,0.4,0.7,0.9,0.7h6.2c0.4,0,0.8-0.3,0.9-0.7l10.5-60.2c0-0.3,0-0.5-0.2-0.7
			C372.3,663.6,372.1,663.5,371.8,663.5z M807.6,727c3.1,0,5.6-2.5,5.6-5.6c0-3.1-2.5-5.6-5.6-5.6c-3.1,0-5.6,2.5-5.6,5.6
			C802,724.5,804.5,727,807.6,727z M846.1,741.3h-16.7c-0.5,0-0.9,0.4-0.9,0.9v60.2c0,0.5,0.4,0.9,0.9,0.9h16.7
			c0.5,0,0.9-0.4,0.9-0.9v-6.3c0-0.5-0.4-0.9-0.9-0.9h-9.5v-26h5.4c0.5,0,0.9-0.4,0.9-0.9v-6.3c0-0.5-0.4-0.9-0.9-0.9h-5.4v-11.7
			h9.5c0.5,0,0.9-0.4,0.9-0.9v-6.3C847,741.7,846.6,741.3,846.1,741.3z M766.2,881.1c5.7,0,10.3-4.6,10.3-10.3v-41.3
			c0-5.7-4.6-10.3-10.3-10.3c-5.7,0-10.3,4.6-10.3,10.3v41.3C755.9,876.4,760.6,881.1,766.2,881.1z M764,829.4c0-1.2,1-2.2,2.2-2.2
			c1.2,0,2.2,1,2.2,2.2v41.3c0,1.2-1,2.2-2.2,2.2c-1.2,0-2.2-1-2.2-2.2V829.4z M798.1,741.3l-6.3,0c-0.2,0-0.5,0.1-0.6,0.3
			c-0.2,0.2-0.3,0.4-0.3,0.6l0,23.4l-4.5-23.6c-0.1-0.4-0.5-0.7-0.9-0.7l-6.3,0c-0.2,0-0.5,0.1-0.6,0.3c-0.2,0.2-0.3,0.4-0.3,0.6
			l0,60.2c0,0.5,0.4,0.9,0.9,0.9l6.3,0c0.5,0,0.9-0.4,0.9-0.9l0-23.9l4.5,24c0.1,0.4,0.5,0.7,0.9,0.7l6.3,0c0.2,0,0.5-0.1,0.6-0.3
			c0.2-0.2,0.3-0.4,0.3-0.6l0-60.2C799,741.7,798.6,741.3,798.1,741.3z M782.3,939.6h-10.9c-0.3,0-0.5,0.2-0.5,0.5v3.6
			c0,0.3,0.2,0.5,0.5,0.5h3.1l0,30.5c0,0.3,0.2,0.5,0.5,0.5h3.6c0.1,0,0.3-0.1,0.4-0.2c0.1-0.1,0.2-0.2,0.2-0.4l0-30.5h3.1
			c0.3,0,0.5-0.2,0.5-0.5v-3.6C782.8,939.8,782.6,939.6,782.3,939.6z M768.5,939.6h-10.9c-0.3,0-0.5,0.2-0.5,0.5v3.6
			c0,0.3,0.2,0.5,0.5,0.5h3.1l0,30.5c0,0.3,0.2,0.5,0.5,0.5h3.6c0.1,0,0.3-0.1,0.4-0.2c0.1-0.1,0.2-0.2,0.2-0.4l0-30.5h3.1
			c0.3,0,0.5-0.2,0.5-0.5v-3.6C769,939.8,768.8,939.6,768.5,939.6z M786.6,871.4c-3.1,0-5.6,2.5-5.6,5.6c0,3.1,2.5,5.6,5.6,5.6
			c3.1,0,5.6-2.5,5.6-5.6C792.2,873.9,789.7,871.4,786.6,871.4z M857.4,793.6c-3.1,0-5.6,2.5-5.6,5.6c0,1.5,0.6,2.9,1.6,3.9l-2,5.8
			c-0.1,0.3-0.1,0.6,0.1,0.8c0.2,0.2,0.4,0.4,0.7,0.4h6.7c0.4,0,0.7-0.2,0.8-0.6l3-8.4c0,0,0,0,0,0c0.2-0.6,0.3-1.2,0.3-1.8
			C863,796.1,860.5,793.6,857.4,793.6z M439.5,724.6l1.4-11.8h4.3l1.4,11.8c0.1,0.5,0.4,0.8,0.9,0.8h6.3c0.3,0,0.5-0.1,0.7-0.3
			c0.2-0.2,0.2-0.5,0.2-0.7l-7.6-60.2c-0.1-0.4-0.4-0.8-0.9-0.8h-6.2c-0.5,0-0.8,0.3-0.9,0.8l-7.6,60.2c0,0.3,0,0.5,0.2,0.7
			s0.4,0.3,0.7,0.3h6.3C439,725.4,439.4,725.1,439.5,724.6z M443,694.9l1.2,9.9h-2.3L443,694.9z M431.3,741.3H425
			c-0.5,0-0.9,0.4-0.9,0.9v50.7c0,1.2-1,2.2-2.2,2.2c-1.2,0-2.2-1-2.2-2.2v-50.7c0-0.5-0.4-0.9-0.9-0.9h-6.3c-0.5,0-0.9,0.4-0.9,0.9
			v50.7c0,5.7,4.6,10.3,10.3,10.3c5.7,0,10.3-4.6,10.3-10.3v-50.7C432.2,741.7,431.8,741.3,431.3,741.3z M497.7,671.6
			c0.5,0,0.9-0.4,0.9-0.9v-6.3c0-0.5-0.4-0.9-0.9-0.9h-18.9c-0.5,0-0.9,0.4-0.9,0.9v6.3c0,0.5,0.4,0.9,0.9,0.9h5.4l0,53
			c0,0.5,0.4,0.9,0.9,0.9l6.3,0c0.2,0,0.5-0.1,0.6-0.3c0.2-0.2,0.3-0.4,0.3-0.6l0-53H497.7z M478,819.1h-9.4c-0.5,0-0.9,0.4-0.9,0.9
			v60.2c0,0.5,0.4,0.9,0.9,0.9h9.4c5.7,0,10.3-4.6,10.3-10.3l0-41.3C488.4,823.7,483.7,819.1,478,819.1z M480.3,870.7
			c0,1.2-1,2.2-2.2,2.2h-2.2v-45.8h2.2c1.2,0,2.2,1,2.2,2.2L480.3,870.7z M462.4,873h-2.2v-45.8h2.2c0.5,0,0.9-0.4,0.9-0.9V820
			c0-0.5-0.4-0.9-0.9-0.9h-12.6c-0.5,0-0.9,0.4-0.9,0.9v6.3c0,0.5,0.4,0.9,0.9,0.9h2.2V873h-2.2c-0.5,0-0.9,0.4-0.9,0.9v6.3
			c0,0.5,0.4,0.9,0.9,0.9h12.6c0.5,0,0.9-0.4,0.9-0.9v-6.3C463.3,873.4,462.9,873,462.4,873z M457.3,792.9v-3.1
			c0-0.5-0.4-0.9-0.9-0.9h-6.3c-0.5,0-0.9,0.4-0.9,0.9v3.1c0,1.2-1,2.2-2.2,2.2c-1.2,0-2.2-1-2.2-2.2v-41.3c0-1.2,1-2.2,2.2-2.2
			c1.2,0,2.2,1,2.2,2.2v3.1c0,0.5,0.4,0.9,0.9,0.9h6.3c0.5,0,0.9-0.4,0.9-0.9v-3.1c0-5.7-4.6-10.3-10.3-10.3s-10.3,4.6-10.3,10.3
			v41.3c0,5.7,4.6,10.3,10.3,10.3S457.3,798.6,457.3,792.9z M405.1,819.1l-6.3,0c-0.2,0-0.5,0.1-0.6,0.3c-0.2,0.2-0.3,0.4-0.3,0.6
			l0,23.4l-4.5-23.6c-0.1-0.4-0.5-0.7-0.9-0.7l-6.3,0c-0.2,0-0.5,0.1-0.6,0.3c-0.2,0.2-0.3,0.4-0.3,0.6l0,60.2
			c0,0.5,0.4,0.9,0.9,0.9l6.3,0c0.5,0,0.9-0.4,0.9-0.9l0-23.9l4.5,24c0.1,0.4,0.4,0.7,0.9,0.7l6.3,0c0.2,0,0.5-0.1,0.6-0.3
			c0.2-0.2,0.3-0.4,0.3-0.6l0-60.2C406,819.5,405.6,819.1,405.1,819.1z M420.7,819.1c-5.7,0-10.3,4.6-10.3,10.3v41.3
			c0,5.7,4.6,10.3,10.3,10.3c5.7,0,10.3-4.6,10.3-10.3v-41.3C431.1,823.7,426.4,819.1,420.7,819.1z M423,870.7c0,1.2-1,2.2-2.2,2.2
			c-1.2,0-2.2-1-2.2-2.2v-41.3c0-1.2,1-2.2,2.2-2.2c1.2,0,2.2,1,2.2,2.2V870.7z M406.3,741.7H400c-0.4,0-0.8,0.3-0.9,0.7l-8.6,40.1
			l-8.6-40.1c-0.1-0.4-0.5-0.7-0.9-0.7h-6.2c-0.5,0-0.9,0.4-0.9,0.9l0,59.8c0,0.2,0.1,0.5,0.3,0.6c0.2,0.2,0.4,0.3,0.6,0.3l6.3,0
			c0.2,0,0.5-0.1,0.6-0.3c0.2-0.2,0.3-0.4,0.3-0.6l0-24l4.6,24.2c0.1,0.4,0.5,0.7,0.9,0.7h6.1c0.4,0,0.8-0.3,0.9-0.7l4.6-24.1l0,24
			c0,0.5,0.4,0.9,0.9,0.9l6.3,0c0.5,0,0.9-0.4,0.9-0.9l0-59.8c0-0.2-0.1-0.5-0.3-0.6C406.7,741.7,406.5,741.7,406.3,741.7z
			 M417.3,724.7l2.9-13.9l2.9,13.9c0.1,0.4,0.5,0.7,0.9,0.7l6.5,0c0.3,0,0.5-0.1,0.7-0.3c0.2-0.2,0.2-0.5,0.2-0.8l-7-29.9l7-29.9
			c0.1-0.3,0-0.5-0.2-0.8c-0.2-0.2-0.4-0.3-0.7-0.3H424c-0.4,0-0.8,0.3-0.9,0.7l-2.9,13.9l-2.9-13.9c-0.1-0.4-0.5-0.7-0.9-0.7h-6.5
			c-0.3,0-0.5,0.1-0.7,0.3c-0.2,0.2-0.2,0.5-0.2,0.8l7,29.9l-7,29.9c-0.1,0.3,0,0.5,0.2,0.8c0.2,0.2,0.4,0.3,0.7,0.3h6.5
			C416.8,725.4,417.2,725.1,417.3,724.7z M620.4,970.6h-1.3v-26.4h1.3c0.3,0,0.5-0.2,0.5-0.5v-3.6c0-0.3-0.2-0.5-0.5-0.5h-7.2
			c-0.3,0-0.5,0.2-0.5,0.5v3.6c0,0.3,0.2,0.5,0.5,0.5h1.3v26.4h-1.3c-0.3,0-0.5,0.2-0.5,0.5v3.6c0,0.3,0.2,0.5,0.5,0.5h7.2
			c0.3,0,0.5-0.2,0.5-0.5v-3.6C620.9,970.9,620.7,970.6,620.4,970.6z M584.3,959.8h-10.9c-0.3,0-0.5,0.2-0.5,0.5v3.6
			c0,0.3,0.2,0.5,0.5,0.5h10.9c0.3,0,0.5-0.2,0.5-0.5v-3.6C584.8,960,584.6,959.8,584.3,959.8z M607.8,939.8h-3.6
			c-0.2,0-0.5,0.2-0.5,0.4l-5,23.1l-5-23.1c-0.1-0.2-0.3-0.4-0.5-0.4h-3.6c-0.3,0-0.5,0.2-0.5,0.5l0,34.5c0,0.1,0.1,0.3,0.2,0.4
			c0.1,0.1,0.2,0.2,0.4,0.2h3.6c0.1,0,0.3-0.1,0.4-0.2c0.1-0.1,0.2-0.2,0.2-0.4l0-13.8l2.6,13.9c0,0.2,0.3,0.4,0.5,0.4h3.5
			c0.2,0,0.5-0.2,0.5-0.4l2.6-13.9l0,13.8c0,0.3,0.2,0.5,0.5,0.5h3.6c0.3,0,0.5-0.2,0.5-0.5l0-34.5c0-0.1-0.1-0.3-0.2-0.4
			C608.1,939.8,607.9,939.8,607.8,939.8z M630,939.6c-3.3,0-6,2.7-6,6v23.8c0,3.3,2.7,6,6,6c3.3,0,6-2.7,6-6v-1.8
			c0-0.3-0.2-0.5-0.5-0.5h-3.6c-0.3,0-0.5,0.2-0.5,0.5v1.8c0,0.7-0.6,1.3-1.3,1.3c-0.7,0-1.3-0.6-1.3-1.3v-23.8
			c0-0.7,0.6-1.3,1.3-1.3c0.7,0,1.3,0.6,1.3,1.3v1.8c0,0.3,0.2,0.5,0.5,0.5h3.6c0.3,0,0.5-0.2,0.5-0.5v-1.8
			C635.9,942.2,633.3,939.6,630,939.6z M612.8,820c0-0.5-0.4-0.9-0.9-0.9l-6.3,0c-0.2,0-0.5,0.1-0.6,0.3c-0.2,0.2-0.3,0.4-0.3,0.6
			l0,18.9h-4.5l0-18.9c0-0.5-0.4-0.9-0.9-0.9l-6.3,0c-0.2,0-0.5,0.1-0.6,0.3c-0.2,0.2-0.3,0.4-0.3,0.6l0,60.2c0,0.5,0.4,0.9,0.9,0.9
			l6.3,0c0.2,0,0.5-0.1,0.6-0.3c0.2-0.2,0.3-0.4,0.3-0.6l0-33.2h4.5l0,33.2c0,0.5,0.4,0.9,0.9,0.9l6.3,0c0.2,0,0.5-0.1,0.6-0.3
			s0.3-0.4,0.3-0.6L612.8,820z M579.4,880.3l10.5-60.2c0-0.3,0-0.5-0.2-0.7c-0.2-0.2-0.4-0.3-0.7-0.3h-6.4c-0.4,0-0.8,0.3-0.9,0.8
			l-6.4,39l-1.5-9l5.2-29.7c0-0.3,0-0.5-0.2-0.7c-0.2-0.2-0.4-0.3-0.7-0.3h-6.4c-0.5,0-0.8,0.3-0.9,0.8l-1,7.4l-1-7.4
			c-0.1-0.4-0.4-0.8-0.9-0.8h-6.4c-0.3,0-0.5,0.1-0.7,0.3c-0.2,0.2-0.2,0.5-0.2,0.7l5.2,29.7l-1.5,9l-6.3-39
			c-0.1-0.4-0.4-0.8-0.9-0.8h-6.4c-0.3,0-0.5,0.1-0.7,0.3c-0.2,0.2-0.2,0.5-0.2,0.7l10.5,60.2c0.1,0.4,0.4,0.7,0.9,0.7h6.2
			c0.4,0,0.8-0.3,0.9-0.7l1.4-8l1.4,8c0.1,0.4,0.4,0.7,0.9,0.7h6.2C579,881.1,579.4,880.8,579.4,880.3z M510.4,819.1h-16.7
			c-0.5,0-0.9,0.4-0.9,0.9v60.2c0,0.5,0.4,0.9,0.9,0.9h16.7c0.5,0,0.9-0.4,0.9-0.9v-6.3c0-0.5-0.4-0.9-0.9-0.9h-9.5v-26h5.4
			c0.5,0,0.9-0.4,0.9-0.9v-6.3c0-0.5-0.4-0.9-0.9-0.9h-5.4v-11.7h9.5c0.5,0,0.9-0.4,0.9-0.9V820
			C511.3,819.5,510.9,819.1,510.4,819.1z M528.2,819.1h-6.2c-0.5,0-0.8,0.3-0.9,0.8l-7.6,60.2c0,0.3,0,0.5,0.2,0.7s0.4,0.3,0.7,0.3
			h6.3c0.5,0,0.8-0.3,0.9-0.8l1.4-11.8h4.3l1.4,11.8c0.1,0.5,0.4,0.8,0.9,0.8h6.3c0.3,0,0.5-0.1,0.7-0.3c0.2-0.2,0.2-0.5,0.2-0.7
			l-7.6-60.2C529,819.4,528.6,819.1,528.2,819.1z M523.9,860.4l1.2-9.9l1.2,9.9H523.9z M558.4,792.9v-41.3c0-5.7-4.6-10.3-10.3-10.3
			c-5.7,0-10.3,4.6-10.3,10.3v41.3c0,5.7,4.6,10.3,10.3,10.3C553.8,803.3,558.4,798.6,558.4,792.9z M550.4,792.9
			c0,1.2-1,2.2-2.2,2.2c-1.2,0-2.2-1-2.2-2.2v-41.3c0-1.2,1-2.2,2.2-2.2c1.2,0,2.2,1,2.2,2.2V792.9z M519.9,803.2
			c0.4,0,0.8-0.3,0.9-0.7l4.6-24.1l0,24c0,0.5,0.4,0.9,0.9,0.9l6.3,0c0.5,0,0.9-0.4,0.9-0.9l0-59.8c0-0.2-0.1-0.5-0.3-0.6
			c-0.2-0.2-0.4-0.3-0.6-0.3h-6.2c-0.4,0-0.8,0.3-0.9,0.7l-8.6,40.1l-8.6-40.1c-0.1-0.4-0.5-0.7-0.9-0.7h-6.2
			c-0.5,0-0.9,0.4-0.9,0.9l0,59.8c0,0.2,0.1,0.5,0.3,0.6c0.2,0.2,0.4,0.3,0.6,0.3l6.3,0c0.2,0,0.5-0.1,0.6-0.3
			c0.2-0.2,0.3-0.4,0.3-0.6l0-24l4.6,24.2c0.1,0.4,0.5,0.7,0.9,0.7H519.9z M539.9,664.4c0-0.5-0.4-0.9-0.9-0.9h-6.3
			c-0.5,0-0.9,0.4-0.9,0.9v29.2c0,1.2-1,2.2-2.2,2.2c-1.2,0-2.2-1-2.2-2.2v-29.2c0-0.5-0.4-0.9-0.9-0.9h-6.3c-0.5,0-0.9,0.4-0.9,0.9
			v29.2c0,4.1,2.5,7.9,6.3,9.5v21.5c0,0.5,0.4,0.9,0.9,0.9h6.3c0.5,0,0.9-0.4,0.9-0.9v-21.5c3.8-1.6,6.3-5.4,6.3-9.5V664.4z"/>
	</g>
</g>
</svg>
