<?xml version="1.0" standalone="no"?>
<!DOCTYPE svg PUBLIC "-//W3C//DTD SVG 20010904//EN"
 "http://www.w3.org/TR/2001/REC-SVG-20010904/DTD/svg10.dtd">
<svg version="1.0" xmlns="http://www.w3.org/2000/svg"
 width="250px" height="250px" viewBox="160 -175 300 250"
 preserveAspectRatio="xMidYMid meet">

<g transform="translate(0.000000,250.000000) scale(0.1,-0.1)"
fill="#000000" stroke="none">
<path d="M3065 4234 c-184 -28 -286 -69 -402 -161 -90 -71 -171 -167 -179
-212 -14 -73 -8 -433 8 -516 15 -78 69 -205 87 -205 25 0 30 107 6 116 -32 13
-68 93 -73 164 -6 83 9 125 51 147 65 33 147 9 147 -44 0 -25 0 -26 20 -8 19
18 20 17 20 -7 0 -14 7 -31 15 -38 12 -10 15 -9 15 6 0 16 2 15 23 -4 30 -28
49 -29 39 -1 -4 11 -5 45 -2 76 6 50 11 60 57 104 49 47 50 49 39 84 -6 20
-16 33 -23 31 -8 -3 -11 10 -10 44 3 73 46 111 142 125 28 4 65 14 83 21 54
22 179 28 293 14 141 -17 163 -33 206 -143 31 -79 32 -81 33 -41 0 52 -24 134
-50 167 -18 23 -19 31 -9 72 10 38 9 53 -5 89 -13 35 -26 49 -69 72 -43 23
-69 29 -152 35 -201 14 -281 17 -310 13z"/>
<path d="M3480 3675 c0 -15 4 -24 10 -20 6 3 10 12 10 20 0 8 -4 17 -10 20 -6
4 -10 -5 -10 -20z"/>
<path d="M3147 3631 c-62 -32 -66 -36 -47 -46 11 -6 18 -13 15 -16 -3 -3 6
-12 20 -19 20 -11 28 -10 49 3 30 20 63 13 45 -9 -9 -11 -8 -15 5 -20 19 -7
46 12 46 32 0 8 5 14 10 14 6 0 10 -11 10 -24 0 -30 28 -39 51 -17 14 14 14
17 -4 31 -18 15 -18 17 -3 33 13 13 21 14 41 5 19 -8 28 -8 40 2 8 7 15 16 15
20 0 17 -61 34 -140 40 -82 5 -87 4 -153 -29z"/>
<path d="M3547 3629 c-9 -6 -17 -17 -17 -24 0 -8 -9 -24 -20 -35 -26 -26 -18
-60 22 -90 16 -12 31 -20 32 -18 2 1 9 14 16 28 l14 25 9 -35 10 -35 8 29 c4
15 14 36 22 45 27 31 26 48 -1 74 -35 34 -73 48 -95 36z"/>
<path d="M3216 3483 c21 -15 50 -17 58 -4 3 5 -12 11 -35 13 -35 3 -38 2 -23
-9z"/>
<path d="M3530 3436 c0 -4 7 -22 14 -41 16 -38 32 -48 21 -15 -4 12 -1 27 5
35 8 9 8 15 2 15 -6 0 -17 3 -26 6 -9 3 -16 3 -16 0z"/>
<path d="M3248 3423 c7 -3 16 -2 19 1 4 3 -2 6 -13 5 -11 0 -14 -3 -6 -6z"/>
<path d="M3307 3268 c-6 -17 10 -48 25 -48 7 0 6 5 -2 15 -6 8 -9 19 -6 24 4
5 2 12 -3 15 -5 4 -11 0 -14 -6z"/>
<path d="M3381 3266 c-8 -9 -8 -16 -2 -20 11 -7 61 14 61 26 0 14 -47 9 -59
-6z"/>
<path d="M3533 3272 c-13 -2 -24 -13 -27 -28 -4 -14 -14 -24 -24 -24 -10 0
-28 -7 -40 -16 -17 -12 -20 -19 -12 -33 5 -10 8 -20 7 -22 -1 -3 2 -1 8 3 5 5
17 8 27 8 10 0 18 4 18 10 0 5 16 28 36 50 39 43 41 57 7 52z"/>
<path d="M3265 3080 c-3 -5 -1 -10 4 -10 6 0 11 5 11 10 0 6 -2 10 -4 10 -3 0
-8 -4 -11 -10z"/>
<path d="M3368 3070 c-56 -5 -72 -12 -105 -40 -50 -44 -55 -53 -42 -87 23 -62
58 -77 105 -47 13 9 27 14 31 10 3 -3 19 17 35 44 31 55 48 64 48 24 0 -32
-80 -157 -115 -180 -23 -15 -33 -16 -77 -5 -38 8 -53 8 -58 0 -4 -6 -20 -9
-35 -7 -16 2 -30 -2 -32 -9 -3 -9 8 -13 35 -13 24 0 49 -8 65 -20 14 -11 33
-20 43 -20 52 0 143 115 205 257 21 49 21 53 5 78 -9 14 -22 24 -29 24 -6 -1
-42 -5 -79 -9z"/>
<path d="M3527 3046 c-10 -14 -13 -26 -8 -26 13 0 33 28 29 41 -2 6 -12 0 -21
-15z"/>
<path d="M2620 3021 c0 -28 8 -49 27 -73 59 -71 111 -128 144 -154 19 -15 4 4
-32 42 -89 93 -119 140 -119 186 0 21 -4 38 -10 38 -5 0 -10 -18 -10 -39z"/>
<path d="M3175 3020 c-10 -11 -13 -20 -8 -20 13 0 38 29 31 35 -3 3 -13 -4
-23 -15z"/>
<path d="M2524 2997 c-11 -12 -36 -43 -55 -69 -42 -60 -137 -115 -225 -134
-36 -7 -77 -21 -92 -32 -15 -10 -47 -24 -72 -31 -25 -7 -88 -31 -140 -53 -52
-22 -122 -45 -155 -51 -33 -6 -66 -15 -72 -20 -9 -7 -13 -46 -13 -133 l0 -124
493 2 c486 3 492 3 489 23 -2 11 -17 40 -33 64 -20 31 -29 57 -29 86 0 23 -12
73 -26 111 -27 71 -34 99 -55 221 -10 58 -10 81 0 114 15 49 11 56 -15 26z"/>
<path d="M2998 2864 c-13 -12 5 -160 24 -197 l19 -39 -23 7 c-23 6 -23 6 2
-15 14 -11 47 -32 74 -46 47 -25 53 -26 103 -14 29 7 61 22 70 32 17 19 17 19
-9 8 -36 -17 -78 -5 -78 20 0 14 -7 20 -22 20 -13 0 -36 7 -52 15 -22 12 -32
12 -43 4 -18 -15 -18 -15 -37 64 -11 43 -15 84 -11 108 6 35 -1 49 -17 33z"/>
<path d="M3462 2832 c-7 -21 -23 -49 -37 -62 -13 -13 -28 -39 -31 -59 -4 -20
-16 -47 -26 -61 -18 -22 -19 -35 -14 -105 5 -52 15 -95 29 -122 l22 -43 335 1
c184 0 369 -4 410 -10 43 -5 79 -6 84 -1 11 11 -33 86 -71 121 -15 14 -57 36
-93 49 -36 12 -77 33 -91 45 -15 12 -55 27 -90 34 -118 24 -214 52 -254 75
-22 13 -51 27 -65 31 -14 4 -42 19 -63 33 -37 25 -38 27 -32 69 8 53 2 55 -13
5z"/>
<path d="M2920 2719 c0 -16 46 -66 54 -58 3 2 -9 20 -25 39 -18 22 -29 29 -29
19z"/>
<path d="M2965 2547 c6 -31 2 -41 -53 -104 l-60 -69 195 -17 c107 -10 198 -15
203 -12 6 3 -6 37 -25 75 -25 49 -42 71 -58 74 -100 21 -132 32 -167 57 l-41
30 6 -34z"/>
<path d="M1998 2171 c-27 -24 -32 -36 -36 -89 -9 -121 23 -182 93 -182 77 0
105 41 105 156 0 73 -1 77 -34 110 -44 44 -83 45 -128 5z m86 -47 c19 -18 22
-114 6 -145 -16 -28 -49 -24 -61 9 -14 36 -6 131 12 143 19 12 25 11 43 -7z"/>
<path d="M2259 2185 c-24 -13 -38 -37 -54 -93 -4 -12 -3 -48 1 -79 12 -96 86
-143 153 -97 64 45 69 212 8 262 -24 20 -79 24 -108 7z m69 -57 c29 -37 21
-160 -11 -166 -33 -7 -47 17 -47 80 0 83 27 123 58 86z"/>
<path d="M2513 2190 c-39 -16 -63 -68 -63 -138 0 -103 35 -152 110 -152 45 0
79 37 90 98 25 137 -41 230 -137 192z m67 -69 c14 -27 13 -134 -2 -149 -15
-15 -45 -15 -54 0 -12 19 -7 137 6 153 17 21 37 19 50 -4z"/>
<path d="M2751 2186 c-37 -21 -50 -55 -51 -134 0 -105 29 -152 94 -152 70 0
106 51 106 150 0 118 -69 180 -149 136z m76 -76 c15 -30 17 -89 3 -124 -10
-28 -38 -34 -58 -14 -15 15 -16 122 -1 149 13 26 40 21 56 -11z"/>
<path d="M3000 2187 c-75 -37 -81 -220 -9 -271 37 -25 86 -21 119 12 60 61 47
222 -21 257 -34 18 -56 19 -89 2z m69 -61 c7 -9 11 -41 9 -82 -3 -70 -18 -94
-52 -81 -13 5 -16 21 -16 80 0 71 10 97 36 97 6 0 17 -6 23 -14z"/>
<path d="M3224 2166 c-33 -33 -34 -37 -34 -110 0 -110 28 -156 95 -156 76 0
110 56 103 172 -3 64 -7 73 -36 99 -45 40 -84 39 -128 -5z m85 -35 c18 -12 26
-107 12 -143 -12 -33 -45 -37 -61 -9 -13 25 -13 102 0 135 10 27 25 32 49 17z"/>
<path d="M3493 2190 c-50 -21 -77 -123 -54 -207 33 -121 177 -106 196 20 10
65 -2 132 -28 163 -24 27 -79 39 -114 24z m65 -62 c12 -12 17 -124 6 -152 -7
-19 -35 -21 -52 -4 -7 7 -12 40 -12 78 0 63 10 90 35 90 6 0 16 -5 23 -12z"/>
<path d="M3745 2191 c-40 -17 -59 -50 -63 -111 -9 -119 23 -180 93 -180 77 0
105 41 105 156 0 73 -1 77 -34 110 -34 34 -61 41 -101 25z m59 -67 c19 -18 22
-114 6 -145 -16 -28 -49 -24 -61 9 -14 36 -6 131 12 143 19 12 25 11 43 -7z"/>
<path d="M3979 2185 c-25 -13 -38 -37 -54 -94 -4 -13 -4 -48 0 -79 12 -95 88
-142 154 -96 64 45 69 212 8 262 -24 20 -79 24 -108 7z m71 -60 c13 -16 17
-135 5 -155 -8 -14 -38 -13 -53 2 -15 15 -16 122 -2 149 13 23 33 25 50 4z"/>
<path d="M1710 2045 l0 -145 30 0 29 0 3 88 3 87 35 -85 c33 -80 37 -85 68
-88 l32 -3 0 145 0 146 -30 0 -29 0 -3 -82 -3 -83 -34 83 c-32 80 -34 82 -67
82 l-34 0 0 -145z"/>
<path d="M4180 2090 l0 -100 25 0 25 0 0 100 0 100 -25 0 -25 0 0 -100z"/>
<path d="M4280 2090 l0 -100 30 0 30 0 0 100 0 100 -30 0 -30 0 0 -100z"/>
<path d="M4390 2090 l0 -100 30 0 30 0 0 100 0 100 -30 0 -30 0 0 -100z"/>
<path d="M4500 2090 l0 -100 30 0 30 0 0 100 0 100 -30 0 -30 0 0 -100z"/>
<path d="M4179 1954 c-9 -11 -10 -20 -2 -32 14 -22 43 -22 57 1 9 15 7 21 -8
33 -25 18 -31 18 -47 -2z"/>
<path d="M4292 1958 c-30 -30 1 -73 36 -51 23 14 25 29 7 47 -20 19 -27 20
-43 4z"/>
<path d="M4402 1961 c-8 -4 -12 -19 -10 -32 2 -18 9 -24 28 -24 28 0 39 27 20
50 -14 17 -20 18 -38 6z"/>
<path d="M4506 1955 c-20 -21 -5 -55 25 -55 24 0 36 27 22 48 -14 23 -29 25
-47 7z"/>
</g>
</svg>
