<?xml version="1.0" standalone="no"?>
<!DOCTYPE svg PUBLIC "-//W3C//DTD SVG 20010904//EN"
 "http://www.w3.org/TR/2001/REC-SVG-20010904/DTD/svg10.dtd">
<svg version="1.0" xmlns="http://www.w3.org/2000/svg"
 width="498.000000pt" height="316.000000pt" viewBox="0 0 498.000000 316.000000"
 preserveAspectRatio="xMidYMid meet">

<g transform="translate(0.000000,316.000000) scale(0.100000,-0.100000)"
fill="#000000" stroke="none">
<path d="M430 2750 c-137 -24 -218 -171 -161 -295 20 -45 89 -112 123 -119 13
-3 34 -7 48 -8 l25 -3 3 -261 2 -261 -50 -7 c-39 -5 -60 -15 -92 -44 -76 -69
-98 -163 -57 -252 26 -57 44 -77 94 -103 37 -19 59 -21 315 -22 306 -2 341 3
396 56 l33 32 33 -32 c86 -84 266 -79 363 10 53 49 74 92 87 179 l10 69 31
-62 c18 -35 57 -87 94 -125 114 -113 254 -161 443 -149 162 10 256 53 363 167
l67 70 0 -44 c0 -42 -2 -45 -34 -56 -55 -18 -112 -87 -126 -154 -6 -31 -9 -65
-6 -76 3 -11 8 -28 11 -38 4 -14 -6 -22 -49 -36 -52 -18 -57 -18 -97 -2 -32
13 -65 16 -134 14 l-92 -3 -52 57 c-44 48 -60 58 -103 67 -100 22 -190 -18
-236 -104 -9 -17 -23 -20 -94 -23 -105 -4 -108 -4 -198 1 -41 2 -94 0 -118 -5
-69 -13 -130 7 -177 60 -62 71 -67 72 -387 72 -254 0 -287 -2 -323 -19 -46
-21 -79 -54 -94 -94 -15 -40 -14 -113 3 -146 19 -36 79 -89 111 -97 14 -3 37
-25 55 -51 l30 -46 -30 -33 c-74 -84 -57 -201 38 -264 l45 -30 161 0 c115 1
168 5 185 14 20 11 30 11 55 1 104 -43 209 -39 309 12 l48 24 57 -28 c56 -28
59 -28 238 -27 186 2 220 8 254 49 12 14 15 14 34 -3 41 -38 63 -42 206 -42
123 0 146 3 182 21 l41 21 46 -21 c72 -33 136 -43 197 -32 77 15 123 42 186
109 l55 60 36 -48 c20 -27 57 -61 83 -76 46 -27 168 -59 185 -48 6 3 64 7 130
9 65 2 123 7 129 10 6 3 44 -1 84 -10 62 -14 84 -15 132 -5 74 15 689 16 758
0 52 -12 98 -7 164 17 39 14 46 13 84 -2 168 -67 328 75 277 246 -15 47 -74
106 -125 124 -33 11 -40 19 -45 47 -17 94 -78 172 -170 213 -54 24 -70 27
-148 23 -71 -2 -97 -8 -140 -30 l-52 -28 -52 27 c-51 27 -55 27 -233 26 -102
0 -189 -5 -199 -11 -13 -7 -31 -5 -63 6 -33 11 -69 13 -143 9 -98 -5 -99 -5
-105 19 -8 32 -78 93 -114 101 -44 8 -40 38 8 54 74 24 138 63 199 121 l62 60
61 -60 c98 -99 209 -142 360 -142 144 0 252 39 338 123 50 49 55 51 65 33 26
-43 93 -109 132 -128 56 -29 164 -29 220 0 197 101 187 374 -17 462 -61 26
-151 24 -207 -4 -38 -20 -44 -17 -42 21 12 200 12 215 -4 275 -39 153 -171
289 -322 333 -127 36 -280 27 -391 -25 -38 -18 -89 -54 -128 -91 l-64 -62 -68
65 c-37 36 -86 75 -109 87 -100 51 -257 66 -363 35 -30 -8 -62 -15 -70 -15
-127 6 -342 6 -367 0 -18 -4 -49 -21 -68 -37 l-34 -31 -53 29 c-88 47 -161 64
-283 64 -121 0 -187 -15 -285 -64 -69 -35 -177 -147 -214 -221 l-26 -54 3 89
2 89 48 12 c55 14 121 70 143 122 19 43 18 125 -1 171 -20 47 -50 79 -99 104
-36 18 -62 20 -300 22 -289 3 -344 -2 -392 -39 -35 -26 -59 -32 -69 -15 -4 6
-24 19 -46 31 -36 18 -62 20 -232 22 -106 2 -208 0 -227 -3z m412 -178 c13
-11 122 -217 243 -456 121 -240 222 -436 225 -436 3 0 3 176 0 391 -6 457 5
421 -122 418 -86 -3 -118 13 -118 57 0 48 24 52 303 50 280 -2 277 -1 277 -57
0 -42 -23 -53 -104 -51 -118 4 -110 39 -116 -474 -5 -429 -5 -434 -27 -455
-15 -16 -38 -24 -76 -27 -49 -4 -57 -1 -85 24 -19 18 -79 124 -158 279 -70
138 -172 336 -226 440 l-98 190 2 -398 c3 -467 -7 -429 122 -425 85 2 106 -9
106 -59 0 -46 -25 -51 -296 -49 -273 1 -284 3 -284 56 0 43 22 54 103 52 77
-2 88 1 106 35 16 31 16 745 0 776 -18 34 -29 37 -106 35 -81 -2 -103 9 -103
53 0 52 21 57 226 55 172 -2 185 -4 206 -24z m1402 -257 c82 -22 158 -75 205
-145 50 -76 66 -141 65 -265 -2 -156 -52 -261 -158 -333 -74 -49 -141 -65
-260 -60 -126 4 -190 32 -265 113 -76 84 -95 143 -96 290 0 142 22 216 87 290
95 108 262 151 422 110z m1009 -1 c144 -49 235 -224 224 -429 -8 -145 -59
-251 -151 -315 -66 -45 -118 -60 -205 -60 -90 0 -135 11 -185 45 -20 14 -42
25 -48 25 -7 0 -9 -34 -6 -104 4 -132 10 -141 94 -133 45 5 66 2 83 -9 26 -19
29 -69 4 -82 -14 -7 -408 -9 -455 -3 -5 1 -8 19 -8 41 0 49 21 62 82 54 81
-11 78 -28 78 419 0 295 -3 398 -13 417 -11 22 -21 26 -78 31 -36 3 -70 9 -77
13 -16 10 -15 61 1 73 6 5 73 9 147 9 l135 -1 3 -42 c2 -24 5 -43 8 -43 3 0
16 13 30 29 13 16 48 41 76 55 43 22 66 26 133 26 48 0 101 -6 128 -16z m817
0 c106 -31 186 -108 215 -207 18 -61 20 -168 3 -185 -9 -9 -86 -12 -286 -12
l-275 0 5 -65 c7 -81 48 -158 107 -200 39 -28 50 -30 126 -30 76 0 87 3 127
30 30 21 52 48 73 91 39 78 52 94 81 94 36 0 58 -40 45 -85 -26 -96 -117 -194
-204 -220 -68 -20 -201 -19 -263 2 -34 11 -67 35 -110 77 -77 77 -103 142
-111 273 -11 184 41 318 157 398 77 53 207 70 310 39z m601 -643 c61 -62 14
-161 -77 -161 -39 0 -84 51 -84 95 0 51 44 95 95 95 27 0 44 -8 66 -29z
m-2774 -513 c31 -39 18 -110 -27 -161 -25 -28 -30 -30 -35 -15 -4 11 1 28 14
44 27 34 27 57 -1 69 -27 12 -35 40 -18 60 15 18 54 19 67 3z m-1217 -18 c0
-11 -6 -20 -12 -21 -7 -1 -24 -2 -38 -2 -35 -3 -31 -22 26 -112 l48 -78 18 23
c35 43 89 149 83 161 -4 6 -18 9 -31 6 -30 -5 -49 7 -41 27 5 13 25 16 122 16
115 0 116 0 113 -22 -2 -19 -9 -23 -38 -23 -33 0 -38 -5 -112 -115 l-77 -115
2 -70 2 -70 43 -3 c43 -3 68 -26 44 -41 -6 -4 -64 -7 -129 -6 -114 0 -118 1
-121 23 -3 19 1 22 35 22 51 0 63 14 63 75 0 46 -7 62 -66 156 -87 136 -101
150 -139 147 -25 -2 -31 1 -33 20 -3 22 -2 22 117 22 114 0 121 -1 121 -20z
m2560 -185 c0 -192 1 -205 19 -215 11 -5 29 -10 41 -10 15 0 20 -5 18 -17 -3
-14 -15 -19 -62 -21 -39 -2 -62 1 -67 9 -6 10 -13 10 -34 1 -14 -7 -50 -12
-80 -12 -92 0 -149 67 -148 175 1 71 27 132 70 160 42 28 123 26 162 -3 l31
-23 0 49 c0 55 -10 69 -55 74 -19 2 -31 9 -33 21 -3 15 5 17 67 17 l71 0 0
-205z m-2055 66 c70 -39 98 -175 52 -255 -30 -54 -76 -79 -146 -80 -109 0
-164 54 -169 169 -4 78 14 124 60 158 52 39 142 42 203 8z m1364 19 c47 -13
89 -56 102 -103 19 -72 14 -76 -124 -79 l-122 -3 3 -30 c4 -44 34 -79 76 -90
47 -11 80 5 114 55 28 42 46 45 50 8 4 -37 -48 -95 -99 -108 -77 -21 -156 16
-185 87 -18 42 -18 147 0 181 19 37 58 71 92 82 40 11 54 12 93 0z m1066 -19
c83 -47 108 -188 47 -270 -49 -66 -162 -87 -234 -43 -99 61 -106 245 -11 307
55 37 139 39 198 6z m816 19 c46 -13 88 -58 99 -106 17 -72 14 -74 -126 -74
-137 0 -137 0 -110 -64 37 -88 146 -87 188 2 17 35 42 35 46 0 4 -37 -48 -95
-99 -108 -77 -21 -156 16 -185 87 -18 42 -18 134 0 177 31 75 104 109 187 86z
m-3011 -134 c5 -126 5 -128 34 -153 24 -21 37 -24 69 -20 58 8 76 32 89 115
14 93 5 142 -25 142 -31 0 -51 15 -44 34 5 12 19 15 64 13 l58 -2 5 -145 5
-145 35 -5 c32 -5 36 -9 32 -40 -1 -7 -25 -10 -59 -8 -51 3 -58 6 -61 25 l-3
22 -36 -25 c-24 -16 -50 -24 -79 -24 -104 0 -127 32 -134 184 l-5 110 -33 7
c-40 8 -46 14 -39 33 5 11 20 15 64 13 l58 -2 5 -129z m687 113 c5 -18 6 -18
30 1 38 30 107 27 138 -5 35 -34 35 -98 1 -120 -19 -13 -29 -14 -45 -5 -27 14
-27 37 0 59 20 16 20 18 4 34 -26 27 -71 22 -92 -10 -14 -21 -18 -48 -18 -128
l0 -100 37 -3 c37 -3 57 -25 35 -39 -18 -12 -201 -11 -209 0 -13 20 5 37 38
37 l34 0 0 125 0 125 -29 0 c-33 0 -56 21 -41 36 6 6 33 11 61 11 42 1 52 -3
56 -18z m1753 1 c0 -10 5 -22 10 -25 6 -3 10 -2 10 2 0 18 60 43 104 43 101 0
126 -36 134 -191 l5 -109 32 0 c35 0 53 -22 32 -37 -7 -5 -52 -9 -102 -9 -83
1 -90 3 -90 21 0 15 8 21 33 23 l32 3 0 102 c0 118 -11 142 -65 153 -86 16
-125 -36 -125 -169 l0 -86 33 -3 c24 -2 32 -8 32 -23 0 -18 -7 -20 -95 -21
-53 0 -98 4 -102 9 -13 20 5 37 38 37 l34 0 0 125 0 125 -29 0 c-32 0 -56 21
-41 36 6 6 35 10 65 11 47 1 55 -1 55 -17z m840 -265 c7 -8 10 -25 6 -39 -11
-44 -76 -38 -76 7 0 43 44 63 70 32z"/>
<path d="M2046 2219 c-38 -9 -98 -47 -124 -79 -74 -89 -90 -287 -32 -400 25
-49 89 -104 139 -118 48 -15 134 -15 185 -1 49 14 118 77 147 137 20 40 23 63
24 157 0 94 -3 117 -23 160 -44 96 -112 143 -215 150 -34 2 -80 0 -101 -6z"/>
<path d="M3032 2217 c-51 -19 -98 -62 -123 -114 -22 -44 -24 -61 -24 -198 0
-140 2 -153 24 -192 37 -65 87 -95 170 -101 83 -6 130 9 181 54 60 54 83 120
84 239 1 135 -14 186 -78 251 -69 70 -149 91 -234 61z"/>
<path d="M3890 2219 c-73 -22 -130 -86 -148 -167 l-10 -42 220 0 221 0 -5 44
c-7 60 -41 111 -93 142 -50 29 -131 39 -185 23z"/>
<path d="M3031 984 c-47 -33 -65 -122 -37 -189 27 -63 112 -85 163 -41 26 23
28 30 28 99 0 43 -6 84 -14 99 -24 47 -96 63 -140 32z"/>
<path d="M1024 981 c-75 -46 -71 -196 7 -236 41 -22 103 -15 135 16 64 60 52
194 -22 227 -37 17 -85 14 -120 -7z"/>
<path d="M2439 971 c-16 -16 -29 -39 -29 -51 0 -20 4 -21 92 -18 107 3 121 17
70 68 -42 41 -92 41 -133 1z"/>
<path d="M3450 973 c-56 -50 -59 -158 -7 -210 32 -32 93 -41 136 -18 80 41 81
199 2 239 -47 25 -96 20 -131 -11z"/>
<path d="M4319 971 c-16 -16 -29 -39 -29 -51 0 -20 4 -21 93 -18 92 3 92 3 89
28 -6 68 -101 93 -153 41z"/>
</g>
</svg>
