<?xml version="1.0" encoding="utf-8"?>
<!-- Generator: Adobe Illustrator 21.0.0, SVG Export Plug-In . SVG Version: 6.00 Build 0)  -->
<svg version="1.1" id="Слой_1" xmlns="http://www.w3.org/2000/svg" xmlns:xlink="http://www.w3.org/1999/xlink" x="0px" y="0px"
	 viewBox="125 125 1000 1000" style="enable-background:new 0 0 1000 1000;" xml:space="preserve">
<g>
	<g>
		<path d="M549.2,618.6c1.1,1.8,2.6,3.2,4.2,4.7c7.1,6.6,17.3,6.3,23.8-0.9c2.8-3.1,4.9-6.7,7.1-10.2c2.1-3.3,4.8-5.5,8.6-6.2
			c1.5-0.3,3.1-0.5,4.6-0.8c10.3-1.7,18.4-7.2,25-15c2.4-2.8,4.1-6.1,6.4-8.9c1.3-1.6,2.9-3.3,4.7-3.9c4.1-1.4,5.5-4.4,5.9-8.3
			c0.2-2.3,1.6-3.9,3.7-4.5c4.5-1.4,9.1-2.5,13.5-4c2.9-1,5.8-2.4,8.6-3.8c2.3-1.2,3.4-4.7,2.3-6.7c-0.9-1.6-3.5-3-5.2-2.7
			c-1.5,0.3-3.1,0.5-4.6,0.9c-3.5,1-7,2.3-10.5,3.2c-2.5,0.6-5.1,0.8-7.7,0.9c-3.7,0.1-7.1-3.7-6.3-7.3c1.2-5.1,2.8-10,4.1-15.1
			c0.8-3,1.7-6,2.4-9c0.5-2.2-1.8-5.4-4.1-6c-2-0.5-4.6,0.3-5.7,1.7c-0.9,1.3-1.9,2.5-2.5,3.9c-1.3,2.9-2.2,5.9-3.5,8.7
			c-0.4,0.8-1.4,1.7-2.2,1.9c-0.8,0.1-2.2-0.4-2.6-1c-2.1-3-3.9-6.2-5.9-9.2c-1.9-2.9-5.5-3.7-8.2-2c-2.5,1.6-3.2,5.2-1.5,8.4
			c1.7,3.2,3.6,6.3,5.4,9.5c3,5.5,6.2,10.9,8.9,16.5c6,12.3,5.7,12.2-0.6,24.4c-3.9,7.5-9.9,11.9-17.5,14.7
			c-8.8,3.2-16-0.9-17.1-10.1c-0.4-3-0.1-6.3,0.5-9.3c1.1-5.1,3.4-9.8,6.6-14.1c1.5-2.1,2.7-4.5,3.7-6.8c1.1-2.4-2.3-6.8-5.2-6.4
			c-2,0.3-4.1,1-5.7,2.2c-3.9,2.9-6.3,7-7.7,11.6c-1.6,5.3-4.3,9.2-9.3,11.9c-3.4,1.8-3.7,5.2-1.7,8c2.1,3,4.5,5.8,6.4,8.9
			c2.3,3.6,3.3,7.6,3.2,11.4c0,5.4-1.3,9.8-5.2,13.1c-1.9,1.6-5.6,2-7.2,0.3c-1.8-1.8-3.8-3.7-5-5.9c-2.6-4.5-4.6-9.4-7-14
			c-1-1.8-2.2-3.6-3.7-5c-1.6-1.6-3.9-1.7-5.8-0.7c-1.3,0.7-2.8,1.9-3.1,3.2c-0.5,1.9-0.7,4.4,0.1,6
			C540.7,604.3,544.9,611.5,549.2,618.6z M439.1,617.7c-1.2,0-2.9,1.2-3.4,2.4c-0.6,1.2-0.4,3-0.3,4.4c0.4,5.5,5.2,7.7,9.9,4.6
			c1.1-0.7,1.6-2.4,2.2-3.2C446.8,621.2,443.3,617.7,439.1,617.7z M494.4,641.8c5-1.4,10-2.9,15-4.6c4.5-1.5,8.8-3.4,13.2-5
			c2-0.7,4-1,6.1-1.5c2.2-0.4,5,0.6,5.3,2.3c0.2,1.4,0.2,3.2-0.6,4.4c-1.4,2.2-3,4.4-5,6c-4.9,3.9-10,7.5-15.1,11.2
			c-2.1,1.5-4.4,2.7-6.6,4.2c-2.2,1.5-2.7,5-1.2,6.9c1.1,1.4,3.9,2.4,5.6,1.9c1-0.3,2.1-0.5,3-0.9c12.2-6.3,22.9-14.7,31.8-25.2
			c1.3-1.6,2.4-3.5,3.3-5.3c2.6-5.2,0.4-12.1-5-14.8c-2.3-1.1-4.9-1.8-7.4-2.2c-5.3-0.7-10.4,0.5-15.4,2.3c-5.4,2-10.8,4.1-16.2,5.8
			c-4,1.3-8.1,2.2-12.3,1c-1.8-0.5-3.6-3-3.2-4.8c1.3-6.4,4.8-11.5,9.8-15.6c4.5-3.7,9.7-6.2,15.3-7.6c3.5-0.9,7.1-1.6,10.6-2.5
			c1.7-0.4,3.1-2.8,3.2-4.9c0.1-1.9-1.4-4.6-3.1-5c-2.5-0.6-5.1-1.5-7.6-1.3c-19.9,2-37.2,20.1-41.1,40.1c-0.2,1,0,2.1,0,3.1
			c-0.2,6.6,4.9,12.2,11.5,12.5C490.2,642.3,492.4,642.3,494.4,641.8z M790.8,657.2c-10.6-12.3-20.9-24.8-31.3-37.2
			c-1.3-1.6-2.9-3-4.4-4.4c-1.5-1.4-3.9-1.5-5.9-0.5c-2.3,1.2-3.9,4.4-2.9,6.6c1.1,2.3,2.2,4.9,4,6.6c10,9.4,18,20.4,27,30.6
			c2.1,2.3,3.9,4.9,5.9,7.3c3,3.5,6.8,4.6,11.3,4.2l0.1-0.1C795.8,665.1,794.1,661,790.8,657.2z M888.6,753.3
			c-1.6-4.4-3.3-8.8-5.3-13.1c-6.1-13.3-12.3-26.6-18.4-39.9c-6-13.2-5.9-26.3,0.4-39.4c1.8-3.8,4-7.4,5.6-11.2
			c4.2-9.9,5.6-20,3.4-30.7c-1.5-7.2-4.2-14-6.9-20.8c-6.4-16.1-11.1-32.7-12.4-50.1c-1.6-20.8-11.8-37.6-24.2-53.5
			c-1.6-2-3.7-3.8-5.8-5.3c-14.5-10.7-25.7-24.5-35.5-39.4c-2.6-4-5.5-7.6-9.2-10.7c-17.8-15.1-31.3-33.6-41.9-54.3
			c-2.9-5.6-6-11-9.3-16.4c-6-9.7-14.3-16.8-25.1-20.4c-9.1-3.1-17.1-7.6-24.5-13.6c-10.4-8.5-22.6-12.8-35.8-15
			c-6.9-1.2-13.6-0.6-20.1,1.4c-3,0.9-6,2-8.7,3.5c-10.7,5.8-22,9.4-33.8,12.2c-14.6,3.5-27.3,10.8-36.3,23.2
			c-5.7,7.9-12.7,13.6-21.1,18.4c-16.5,9.4-31,21.3-44.1,35c-3.2,3.4-6.6,6.7-9.8,10.2c-4,4.3-8.9,7.3-14.4,9.2
			c-2.5,0.8-5,1.5-7.5,2.4c-5,1.9-9.1,5-12.4,9.3c-1.3,1.7-2.5,3.4-3.6,5.1c-6.2,9.2-14,16.9-22.8,23.6c-4.2,3.2-8.3,6.4-12.4,9.6
			c-8.4,6.5-15.1,14.5-20.1,23.8c-4,7.4-7.7,14.9-11.5,22.3c-3.7,7.2-5.1,14.8-4.5,22.8c0.2,2.6,0.5,5.2,0.7,7.8
			c0.7,7.8,1.3,15.6,2,23.4c-0.7,9-0.5,17.8,1.6,26.5c5.9,24.4,11.2,48.9,17.2,73.3c4.2,17.3,9.1,34.4,13.7,51.6
			c4.1,15.3,13.3,27,26.1,36.1c4.7,3.3,9.2,6.9,13.5,10.7c12.9,11.5,26.1,22.7,40.5,32.2c7.9,5.2,12.8,11.9,15.9,20.6
			c5,13.8,10.4,27.4,15.8,41c1.7,4.4,3.6,8.7,5.7,12.9c2.1,4.2,6.1,6.1,10.4,5.1c3.1-0.7,6.1-1.5,9.1-2.4c8-2.3,16.1-4.5,24.1-7.1
			c6.3-2,12.3-1.6,18.2,1.4c9.3,4.8,18.5,9.8,26.7,16.4c4,3.3,8.3,6.4,12.7,9.2c4.5,2.9,8.5,6.1,11,10.9c4.1,8.1,11,12.2,19.4,14.6
			c9.6,2.7,18.9,6.1,28.5,8.9c14.1,4.2,28.5,6.6,43.3,6.2c8.1-0.2,15.6-2,22.4-6.2c10.3-6.4,19.5-14.1,25.2-25.2
			c2.9-5.7,6.6-10.7,11.2-15c14.1-13.4,23-30,28.2-48.3c6.2-21.8,16.2-41.9,26.2-62c2.9-5.9,7.2-10,13.3-12.6
			c10.6-4.4,21.1-9.1,31.6-13.8c3.3-1.5,6.6-3.2,9.7-5C888.1,760.9,889.8,756.6,888.6,753.3z M818.6,505.3c4.6-0.5,8.2,1.5,10.9,5
			c5.2,6.7,8.9,14.2,11,22.4c1.4,5.6,2.6,11.2,3.1,16.9c1.6,16.3,5.5,31.9,11,47.3c2,5.4,3.9,10.8,5.9,16.2c1.9,5,2.5,10.1,2.5,15.4
			c0.1,6.4-1.2,12.5-4.5,18.1c-2.6,4.5-5,9.2-7.6,13.7c-0.2,0.4-1,1-1.2,0.9c-0.9-0.4-1.8-0.9-2.3-1.6c-0.9-1.3-1.4-2.8-2.1-4.2
			c-15.3-32.2-29.5-64.8-43.3-97.6c-5.1-12.1-10.3-24.1-15.3-36.1c-1-2.4-1.7-4.9-2.5-7.4c-0.4-1.4,1.6-4.5,3.2-5c1-0.3,2-0.8,3-0.9
			C799.9,507.3,809.3,506.3,818.6,505.3z M769.8,450.3c3,2.8,5.4,6.4,7.7,9.8c4.1,6.1,8.6,11.8,14.4,16.4c1.9,1.5,5.1,3,3.6,6
			c-1.3,2.6-4.6,1.6-7.1,1.8c-0.5,0-1,0-1.6,0c-16.5,0-17.6-0.2-24.4-16.1c-4.5-10.6-10-20.7-14.9-31.1c-3.3-7-6.3-14-9.4-21.1
			C748,428.2,758.4,439.6,769.8,450.3z M435.3,730.3c-4.4,1.7-8.9,3-13.2,4.9c-6.6,2.9-10.5,2.8-13.1-5.5c-0.8-2.5-1.6-5-2.3-7.5
			c-7.9-31.5-15.9-62.9-23.6-94.4c-2.7-11.2-5-22.5-7.2-33.8c-0.9-4.6-1.3-9.3-1.6-14c-0.6-9.9-0.4-19.9-2.2-29.7
			c-0.8-4.2-0.1-8.4,1.5-12.3c1.6-3.8,3.3-7.7,5.2-11.4c2.1-4.2,4.8-8.2,6.7-12.4c4.7-10.3,12-18.4,20.9-25.1
			c13.1-9.8,24.8-20.9,34.8-33.8c3.9-5.1,9-8.7,15-11.1c2.9-1.1,5.9-2.3,8.8-3.5c5.9-2.5,11.2-5.9,15.1-10.9
			c12.8-16.5,29.8-27.7,47.2-38.4c1.8-1.1,3.6-2.1,5.4-3.1c8.7-5,16.4-11,22.4-19.3c7.4-10.1,17.5-16.3,29.8-18.8
			c11.9-2.4,23.3-5.9,33.7-12.4c3.6-2.3,7.7-3.1,11.9-3.5c14-1.4,27.1,1.1,38.5,9.9c1.7,1.3,3.4,2.5,5,3.8
			c7.8,6.3,16.2,11.4,25.9,14.4c7.9,2.4,13.9,7.8,17.5,15c5.8,11.6,12.4,22.9,17.1,35.1c-12.3,0.9-24.2,4.2-36.1,7
			c-12,2.9-23.9,5.8-35.9,8.7c0.2-2,0.6-4,0.4-6c-0.4-6.1-3.9-9.9-9.5-10.1c-4.1-0.2-8.2-0.1-12.3,0.2c-6.5,0.5-12.3-0.7-16.8-5.9
			c-1-1.2-2.3-2.1-3.5-3c-4.6-3.3-9.8-3.4-14.3,0c-2.4,1.8-4.6,3.9-6.9,5.9c0.3-4.6-0.2-9.1-2-13.5c-2.3-5.9-6.6-8.9-13.2-9.1
			c-5.9-0.2-11.4,1.1-16,4.9c-2.4,2-4.8,4-7.1,6.1c-1.9,1.8-3.1,4.2-3.3,6.9c-0.2,1.5-0.3,3.1-0.2,4.7c0.2,4.9-1.2,9-4.8,12.6
			c-2.9,2.9-2.5,4.1,0.6,7.9c0.6,0.8,1.7,1.5,1.9,2.4c0.3,1.4,0.6,3.2,0.1,4.4c-1.5,3.6-4.3,5.8-8.5,5.3c-1-0.1-2-0.5-3.1-0.5
			c-4-0.2-7.1,2.2-7.6,6.1c-0.4,3.1-0.6,6.2-0.6,9.3c0,3.1,0.5,6.1,0.8,9.2c-8.1-0.5-15.2,2.7-22.1,6.4c-2.5,1.3-5.1,1-7.4-0.6
			c-2.1-1.5-4.1-3.2-6.3-4.6c-1.9-1.2-4.2-1.3-6-0.2c-4.4,2.8-8.5,6-13,8.7c-5.1,3.1-7.4,7-5.7,13.1c0.7,2.7-0.3,4.3-2.4,5.1
			c-8.3,3.3-16.6,6.5-24.8,9.7c-15.1,5.9-30.2,11.8-45.2,17.9c-4.4,1.8-8.6,3.9-12.7,6.1c-4,2.1-5.9,6.3-5.1,10.6
			c0.7,3.6,1.6,7.1,2.6,10.7c13.7,49.4,28.8,98.4,43.8,147.4c2.6,8.5,5.1,17,7.5,25.6C441.1,725.8,439.4,728.7,435.3,730.3z
			 M471.8,741.8c-0.5-1.5-1.1-2.9-1.6-4.4c-13.9-40.6-27.8-81.2-41.8-121.7c-8-23.2-16.3-46.4-24.4-69.6c-0.9-2.5-1.7-4.9-2.5-7.4
			c-0.6-1.9,0.4-4.7,2-5.5c2.3-1.1,4.7-2.3,7.1-3.2c39.3-14.5,78.5-28.9,117.9-43.3c40.3-14.7,80.8-28.8,121.8-41.6
			c20-6.2,40.2-11.7,60.3-17.4c5-1.4,10.2-2.4,15.3-3.6c1.4,0.9,3.3,1.5,3.9,2.6c7.6,15.5,15,31.1,22.3,46.7
			c0.9,1.9,1.6,3.9,2.3,5.9c1.2,3.4,0.5,6.9-2.4,8.3c-8.6,4.4-14.9,11.3-21.4,18.1c-10.1,10.7-20.8,20.6-32,30.1
			c-16.8,14.2-32.9,29.1-47.6,45.5c-17.5,19.5-36.6,37.4-56,55c-13.9,12.6-27.3,26-40.6,39.3c-12.9,13-25.8,26-39.8,37.8
			c-4.4,3.7-8.3,7.9-12.5,11.9c-6.8,6.5-13.5,13.1-20.4,19.5C476.9,749.5,474.3,748.6,471.8,741.8z M611.3,665.6
			c1,0.2,2.1,0.3,3,0.7c9,4.6,11.7,15.9,5.8,23.8c-3.1,4.2-8.7,4.3-12.1,0.3c-3.9-4.5-5.7-9.8-5.7-15.7
			C602.3,670.2,607.1,665.5,611.3,665.6z M810,803.3c-1.5,3.3-3,6.7-4.8,9.9c-3.7,6.4-6.3,13.2-8.6,20.2c-2.8,8.4-5.7,16.8-8.5,25.3
			c-4.4,13.1-11.2,24.8-21.1,34.5c-6.4,6.3-11.6,13.4-16.1,21.1c-5.5,9.4-13.5,15.8-23.5,19.9c-6.6,2.7-13.2,2.9-19.8,0.2
			c-3.4-1.4-6.7-2.9-10.1-4.3c-9.1-3.9-18.5-7.3-28.2-9.6c-8.4-2-15.7-6.1-20.8-13.2c-10.3-14.3-23.3-25.3-39.3-32.9
			c-0.8-0.4-1.2-1.6-1.7-2.4c-0.4-0.9,1.7-2.5,3.4-2.7c1.6-0.2,3.1-0.4,4.7-0.4c1.6-0.1,3.1,0,4.7,0v0.1c2.6,0,5.2,0.2,7.8,0
			c4.8-0.5,9.3-1.8,12.5-5.8c3.8-4.8,9-7.1,14.4-9c20.3-6.9,40.6-13.8,60.9-20.6c3-1,6-1.9,9.1-2.3c4.2-0.6,8.1-1.5,11.6-4.2
			c2-1.6,4.5-2.6,7-3.5c20.4-8.1,40.9-16.1,61.3-24c1.3-0.5,3-0.3,4.4-0.2c0.3,0,0.8,0.7,0.8,1.1C810.4,801.2,810.4,802.4,810,803.3
			z M870.1,759c-2.3,1.2-4.7,2.4-7.1,3.4c-18.9,7.8-37.7,15.5-56.6,23.2c-54.7,22.4-110.5,41.8-166.7,60
			c-33.3,10.8-66.7,21.3-100.1,32c-3.5,1.1-7,2.1-10.6,3c-3.2,0.8-6.1-0.8-7.6-4.1c-0.9-1.9-1.7-3.8-2.5-5.8
			c-10.8-29.4-21.7-58.9-32.5-88.3c-1.6-4.4-3.2-8.9-4.5-13.4c-0.7-2.6-0.5-5.4,1.3-7.5c5.3-6.4,10.7-12.8,18.9-15.7
			c-0.3,6.1-0.6,12.2-0.9,18.3c-0.1,2-0.7,4.1-0.7,6.1c0,0.8,0.8,2.1,1.5,2.3c0.8,0.2,2.3-0.3,2.6-0.9c5.2-9.5,6.8-19.2,0.8-29
			c0,0,0,0,0-0.1c3.2-3.4,6-7.2,9.5-10.2c24.2-21.2,48.4-42.2,72.7-63.3c0.7-0.6,1.6-1.1,2.4-1.7c0,3.6-0.4,7.2,0,10.7
			c1.1,9.8,5.8,17.8,13.6,23.7c10,7.6,23.6,4.1,28.9-7.4c7.1-15.4-0.4-34.3-16.1-40.2c-3.4-1.3-7-1.9-10.4-2.8
			c19.2-19.2,37.9-39,57.7-57.5c18-16.8,35.7-33.8,53.2-51.1c7.4-7.4,14.6-14.9,20.7-23.5c4.3-6,9.5-11.2,16-14.8
			c1.3-0.8,2.9-1.2,4.3-1.7c1.6-0.5,4.7,0.6,5.5,2.1c1.3,2.3,2.6,4.5,3.6,6.9c7.9,18.8,15.7,37.6,23.7,56.4
			c18.4,43.3,37.1,86.5,57.3,129c7.6,16.1,15.2,32.1,22.8,48.2c0.9,1.9,1.7,3.8,2.5,5.8C874.6,754.1,873.2,757.4,870.1,759z
			 M802.2,669.7c-2.5-0.3-5.1,0.3-7.6,0.4c0,0-0.1,0.1-0.1,0.1c-0.5,2.5-1.5,5-1.4,7.4c0.1,4.3,4.1,7.1,8.7,6.6
			c3.7-0.3,6.6-3.4,6.7-7.1C808.6,673.4,806,670.1,802.2,669.7z M748.3,829.4c-2.2-0.1-4,1.3-4.3,3.3c-0.5,2.6,1.6,4.9,4.3,4.9
			c2,0,3.5-1.8,3.5-4.1C751.8,831.2,750.3,829.4,748.3,829.4z M723,728.6c-4-4.9-9.4-8.2-15.5-10.3c-11-3.9-18.5-1.2-25.2,9.2
			c-0.3,0.4-0.5,0.9-0.8,1.4c-2,3.1-3.7,3.1-5.7-0.2c-3-4.9-5.8-10-8.8-14.8c-1.1-1.7-2.6-3.2-4-4.7c-1.1-1.2-4.3-1.3-5.9-0.4
			c-1.9,1.2-3.2,3.5-2.8,5.2c0.6,2,1,4.1,2.1,5.8c3,4.9,6.2,9.7,9.6,14.3c9.2,12.7,8.7,11-2.7,20.9c-2.7,2.4-5.6,4.7-8.7,6.5
			c-1,0.6-3.4,0.3-4.3-0.6c-2.3-2.1-4-4.7-6-7.2c-1.9-2.4-3.7-5.1-5.9-7.3c-1.5-1.5-3.7-1.7-5.8-0.9c-2.2,0.9-3.9,4.3-3.2,6.5
			c0.7,1.9,1.5,3.9,2.6,5.6c2.5,4,5.4,7.7,7.9,11.7c1.1,1.8,1.2,4.2-0.4,5.9c-4,4.1-8.1,8.1-12.2,12.1c-1.9,1.8-3.9,3.5-5.7,5.3
			c-1.1,1.1-1.2,4.4-0.3,6c1.3,2.2,4.7,3.8,6.7,2.9c1.4-0.6,3-1.1,4.2-2.1c2.4-2,4.7-4.1,6.9-6.4c9.9-10.5,12.3-10.3,21.4,1.8
			c2.8,3.8,6,7.2,9.1,10.7c1,1.1,2.4,2,3.6,2.9c1.8,1.4,5.7,0.8,7.2-1c1.2-1.5,1.7-4.6,0.7-5.9c-1.9-2.5-3.8-5-5.9-7.2
			c-4.7-4.9-9.5-9.7-13.1-15.5c-1.7-2.7-1.3-6.4,0.8-8.7c4.7-5,10.3-8.8,16.2-12.3c1.6-1,4.3-0.4,5.7,1.2c1.7,1.9,3.5,3.9,5.1,6
			c3.5,4.5,6.8,9.2,10.5,13.7c1.3,1.6,3,3,4.9,3.8c1.2,0.6,3.1,0.4,4.4-0.1c2-0.7,3.4-3.5,2.9-5c-0.8-2.5-1.5-5-2.8-7.2
			c-3.3-5.3-7-10.4-10.4-15.7c-3.3-4.9-5-10.3-4.8-16.4c0.1-0.9,0.2-1.9,0.4-3c0.6-4.6,5-7.1,9.3-5.5c4.6,1.6,8.3,4.4,11.6,7.8
			c4.4,4.5,8,9.6,11.1,15.1c1.3,2.2,3.1,4.1,4.8,6.1c1,1.1,4.7,1.1,5.9-0.1c1-1,2-2.6,2-4c0-2-0.4-4.3-1.5-5.9
			C733.2,741.8,728.3,735,723,728.6z M708.9,687c1.6,1.4,3.5,2,5.7,1.3c2.5-0.8,4.3-3.2,4.4-5.8c0.1-3.9-2.6-7.1-6.2-7.6
			c-2.3-0.3-4.1,0.6-5.4,2.3C705.2,680.1,705.9,684.4,708.9,687z M768.8,684.6c-3.4-1.5-7-2-10.7-1.4c-4.6,0.7-9.2,2.2-13.9,1.3
			c-0.5-0.1-1.2-0.4-1.3-0.8c-0.2-0.9-0.6-2.2-0.2-2.9c1.8-2.5,4-4.8,5.7-7.3c1.2-1.8,1-4.1-0.2-5.9c-1.3-1.8-3.4-2.6-5.5-2.2
			c-8.3,1.6-14.7,9.1-15.3,17.5c-0.6,7.9,5,14.5,12.8,14.7c2.6,0.1,5.2-0.3,7.8-0.5c0-0.2,0-0.3,0-0.5c3.1,0,6.2-0.1,9.3,0.1
			c0.8,0.1,1.9,1,2.1,1.8c0.3,0.8,0,2.1-0.5,2.8c-2,2.6-5.1,3.6-8.1,4.5c-3.5,1-7.5,1-10.5,2.7c-3.9,2.3-6.7,1.6-9.9-0.9
			c-0.4-0.3-1-0.4-1.5-0.5c-1.9-0.6-4.6,0.2-5.6,1.7c-1.3,1.8-1.8,3.8-0.9,5.9c3.2,7.2,7.5,13.7,12.5,19.7c0.3,0.4,0.8,0.7,1.3,0.8
			c1.5,0.2,3,0.7,4.4,0.4c2.1-0.4,3.6-2.7,3.5-4.6c0-0.5,0.1-1.1-0.1-1.6c-0.2-1-0.5-2-0.9-3c-2.2-5.6-1.3-8,4.6-8.2
			c6.5-0.3,12.1-3,17.4-6.4c4.5-2.8,7.8-6.8,9.9-11.8C777.6,694.2,774.9,687.2,768.8,684.6z M646,679.6c1.7,1.8,5.1,2.3,7.2,1
			c2.2-1.4,3.8-4.5,3.2-6.6c-0.8-2.5-1.6-5-2.8-7.2c-2.2-4.2-4.6-8.2-6.9-12.3c-2.1-3.8-2.5-7.9-1.5-12.1c1-4.1,6.5-6.3,10.1-4
			c4.5,2.9,7.7,6.9,10.9,11.1c1.6,2,3.5,3.8,5.4,5.6c1.1,1.1,4.4,1,6,0.1c1.5-0.9,2.6-3.9,2.1-5.5c-0.1-0.5-0.1-1.1-0.4-1.5
			c-5.2-8.6-11.1-16.4-20.2-21.3c-2.7-1.4-5.9-1.9-7.6-2.4c-8.1,0-13.5,2.5-17.2,8.3c-1.7,2.6-3,5.5-4.5,8.2
			c-1.9,3.5-2.1,7.1-0.2,10.5c5,9.1,10.3,18.1,15.5,27.1C645.2,679,645.7,679.2,646,679.6z M709.2,884.4c-6-3.3-12.1-6.3-15.8-12.5
			c-0.4-0.7-1.8-1-2.7-1.4c-1,0.1-2.2-0.2-3.1,0.2c-3.3,1.5-6.6,3.2-9.8,4.9c-2.1,1.1-3.1,4.2-2.5,6.9c0.9,4.2,2.1,8.1,7.2,9.1
			c2.1,0.4,3.6,1.9,4.7,3.8c0.5,0.9,1,1.8,1.7,2.6c3,3.6,6.9,4.6,11.2,2.8c1.4-0.6,3.1-1.2,4-2.3c2.4-2.8,4.4-5.8,6.5-8.8
			C711.8,888.4,710.9,885.3,709.2,884.4z M736.9,853.7c-4.8-3.9-9.7-7.8-14.7-11.5c-2.2-1.7-6.9-1.1-8.6,1.2c-1.5,2-3,4.3-3.6,6.7
			c-0.8,3-0.6,6.2-1,10.4c0-0.1-0.1,0.9-0.2,2c-0.3,6.3,2.9,9.3,9.6,8.9c2.7-0.1,5.1-0.9,7.3-2.4c3.4-2.3,6.9-4.5,10.5-6.7
			C740.1,860,740.5,856.5,736.9,853.7z"/>
	</g>
</g>
</svg>
