<?xml version="1.0" encoding="utf-8"?>
<!-- Generator: Adobe Illustrator 21.0.0, SVG Export Plug-In . SVG Version: 6.00 Build 0)  -->
<svg version="1.1" id="Слой_1" xmlns="http://www.w3.org/2000/svg" xmlns:xlink="http://www.w3.org/1999/xlink" x="0px" y="0px"
	 viewBox="0 0 500 500" style="enable-background:new 0 0 500 500;" xml:space="preserve">
<style type="text/css">
	.st0{fill:#4AB152;}
	.st1{fill:#FFDD2A;}
	.st2{fill:#EA5743;}
</style>
<path class="st0" d="M452.6,115.9C419.8,51.3,352.7,7,275.3,7C165.6,7,76.6,96,76.6,205.7c0,75.2,41.7,140.6,103.3,174.3l91.8-190.7
	L452.6,115.9z"/>
<path class="st1" d="M452.6,115.9l-180.9,73.4L179.9,380c28.3,15.5,60.8,24.4,95.4,24.4c109.7,0,198.7-89,198.7-198.7
	C474,173.4,466.3,142.8,452.6,115.9z"/>
<rect x="119.9" y="280.9" transform="matrix(0.4336 -0.9011 0.9011 0.4336 -128.6284 364.6604)" class="st2" width="211.7" height="7.6"/>
<g>
	<g>
		<path d="M276.8,118.7c0.6,0.3,1.2,0.3,1.8,0.1c0.6-0.2,1.1-0.6,1.3-1.2c0.3-0.6,0.3-1.2,0.1-1.8c-0.2-0.6-0.6-1.1-1.2-1.3
			c-0.6-0.3-1.2-0.3-1.8-0.1c-0.6,0.2-1.1,0.6-1.3,1.2c-0.3,0.6-0.3,1.2-0.1,1.8C275.8,118,276.2,118.4,276.8,118.7z M146.4,388
			c0.5,1.3,1,2.7,1.5,4.3c0.5,1.5,1.1,3.1,1.7,4.8c0.6,1.6,1.1,3.2,1.7,4.7c0.5,1.5,1,2.9,1.5,4.2c0.4,1.3,0.8,2.3,1.1,3.2
			c0.1,0.5,0.5,0.8,0.9,1c0.5,0.2,0.9,0.3,1.4,0.1l0,0c0.5-0.2,0.8-0.5,1-0.9c0.2-0.5,0.2-0.9,0.1-1.4c-0.3-0.8-0.6-1.9-1.1-3.2
			c-0.4-1.3-0.9-2.7-1.5-4.2c-0.5-1.5-1.1-3.1-1.7-4.7c-0.6-1.6-1.1-3.2-1.7-4.8c-0.5-1.5-1-3-1.5-4.3c-0.5-1.3-0.9-2.4-1.2-3.3
			c-0.2-0.5-0.5-0.8-1-1.1c-0.5-0.2-0.9-0.2-1.4-0.1c-0.5,0.2-0.8,0.5-1.1,1c-0.2,0.5-0.2,0.9-0.1,1.4
			C145.5,385.6,145.9,386.7,146.4,388z M97.2,184.4c0.5,1.6,1.1,3.3,1.8,5.1c0.6,1.8,1.3,3.7,2,5.7c0.7,2,1.3,3.8,1.9,5.6
			c0.6,1.8,1.2,3.5,1.7,5c0.5,1.5,0.9,2.8,1.3,3.8c0.2,0.6,0.6,1.1,1.2,1.4c0.6,0.3,1.2,0.3,1.8,0.1l0.1,0c0.6-0.2,1-0.6,1.3-1.2
			c0.3-0.6,0.3-1.2,0.1-1.8c-0.3-1-0.7-2.2-1.2-3.7c-0.5-1.5-1-3.1-1.6-4.9c1.2-0.8,2.3-1.7,3.3-2.6c1-0.9,1.8-1.8,2.6-2.7
			c0.7-0.9,1.4-1.7,2-2.5c0.6-0.8,1-1.6,1.4-2.3c1.1-1.9,1.8-3.7,2.2-5.6c0.5-2,0.6-3.7,0.4-5.2c-0.2-1.3-0.6-2.5-1.2-3.5
			c-0.7-1.1-1.7-1.9-3-2.4c-2.1-0.8-4.7-0.4-7.7,1.1c-1.1,0.6-2.2,1.2-3.4,2.1c-1.2,0.8-2.4,1.8-3.7,2.9c-0.2-0.6-0.7-1-1.2-1.3
			c-0.6-0.3-1.2-0.3-1.8-0.1l0,0c-0.6,0.2-1,0.6-1.3,1.2c-0.3,0.6-0.3,1.2-0.1,1.8C96.2,181.6,96.6,182.9,97.2,184.4z M105.9,180.4
			c1.3-0.9,2.4-1.7,3.5-2.2c1.2-0.6,2.1-0.9,2.7-1c0.6,0,1.1,0,1.3,0.1c0.6,0.2,1,0.9,1.1,2c0.1,1.1,0,2.3-0.4,3.7
			c-0.4,1.4-1,2.8-1.8,4.2c-0.6,1.1-1.4,2.3-2.5,3.7c-1.1,1.4-2.5,2.7-4.2,4l-3.8-11.2C103.3,182.4,104.7,181.3,105.9,180.4z
			 M150.2,184.5c1,2.6,2.5,4.6,4.5,5.9c1.1,0.7,2.2,1.2,3.5,1.4c1.3,0.3,2.6,0.2,4-0.3c0.1,0,0.3,0,0.5-0.1c1.1-0.4,2-1,2.9-1.8
			c0.8-0.8,1.5-1.8,2.1-3c0.5-1,0.7-2.1,0.9-3.3c0.1-1.2,0.1-2.4-0.1-3.6c-0.4-2.3-1.2-4.1-2.6-5.6c-0.8-0.8-1.6-1.4-2.6-1.9
			c-1-0.4-2.1-0.6-3.4-0.6c-0.5,0-1,0.2-1.3,0.5c0.4-0.7,0.4-1.4,0-2.1c-0.3-0.6-0.7-1-1.3-1.2c-0.6-0.2-1.2-0.2-1.8,0.1
			c-0.8,0.4-1.5,0.8-2.1,1.3c-0.6,0.5-1.2,1.1-1.7,1.7c-0.9,1.2-1.5,2.6-1.9,4c-0.3,1.4-0.5,2.8-0.4,4.2
			C149.3,181.6,149.6,183.1,150.2,184.5z M154,177.3c0.2-0.9,0.5-1.7,1.1-2.4c0.5-0.7,1.3-1.3,2.2-1.8c0.1-0.1,0.2-0.1,0.4-0.2
			c-0.1,0.2-0.2,0.4-0.2,0.6c0,0.2,0,0.4,0,0.5c0,0.7,0.3,1.2,0.7,1.7c0.5,0.4,1.1,0.6,1.7,0.6c0.9,0,1.7,0.3,2.3,1
			c0.7,0.8,1.2,1.8,1.4,3.1c0.1,0.7,0.1,1.3,0.1,2c0,0.7-0.2,1.3-0.4,1.9c-0.2,0.6-0.6,1.1-1,1.6c-0.4,0.5-0.9,0.8-1.5,1l-0.2,0.1
			c-1.2,0.3-2.4,0.1-3.4-0.6c-0.6-0.4-1.1-0.9-1.6-1.5c-0.5-0.6-0.9-1.4-1.2-2.2c-0.3-0.9-0.5-1.8-0.6-2.7
			C153.8,179.1,153.9,178.2,154,177.3z M254.7,124.9l1.3,3.8l-0.5,0.3c-0.6,0.3-1,0.7-1.1,1.4c-0.2,0.6-0.1,1.2,0.1,1.8
			c0.3,0.6,0.7,1,1.3,1.2c0.6,0.2,1.1,0.2,1.7,0l0.2-0.1c0.9,2.4,1.8,4.8,2.9,7.2c1,2.4,2.2,4.5,3.4,6.4c1.1,1.7,2.4,2.9,3.8,3.6
			c1.6,0.8,3.1,0.9,4.7,0.3l0.2-0.1c0.9-0.4,1.7-1,2.4-1.9c0.7-0.8,1.2-1.9,1.5-3.1c0.7-2.4,0.6-5.3-0.1-8.6c-0.1-0.6-0.5-1.1-1-1.5
			c-0.6-0.4-1.1-0.5-1.8-0.4c-0.6,0.1-1.1,0.5-1.5,1c-0.4,0.6-0.5,1.1-0.4,1.8c0.3,1.3,0.4,2.5,0.5,3.4c0,1,0,1.8-0.2,2.5
			c-0.1,0.7-0.3,1.2-0.6,1.6c-0.2,0.4-0.5,0.6-0.8,0.7c-0.3,0.1-0.8,0-1.3-0.3c-0.5-0.3-1.1-0.9-1.6-1.7c-1.1-1.8-2.2-3.9-3.2-6.2
			c-1-2.3-1.9-4.7-2.8-7.1l8.9-4.6c0.6-0.3,0.9-0.7,1.1-1.4c0.2-0.6,0.1-1.2-0.1-1.8c-0.3-0.6-0.8-0.9-1.4-1.1
			c-0.6-0.2-1.2-0.2-1.8,0.2l-8.2,4.2c-0.2-0.5-0.4-1-0.5-1.5c-0.2-0.5-0.3-1-0.5-1.5c-0.3-1-0.7-2-0.9-2.8
			c-0.3-0.9-0.5-1.6-0.8-2.3c-0.2-0.6-0.6-1.1-1.2-1.3c-0.6-0.3-1.2-0.3-1.8-0.1c-0.6,0.2-1.1,0.6-1.3,1.2c-0.3,0.6-0.3,1.2-0.1,1.8
			C253.6,121.3,254.1,123,254.7,124.9z M416.5,225.4c-1.2-2.2-2.6-3.7-4-4.4c-0.7-0.3-1.4-0.5-2.1-0.6c-0.7,0-1.4,0.1-2.1,0.3
			c-0.6,0.2-1.3,0.6-1.9,1.2c-0.6,0.6-1.2,1.4-1.6,2.5l-0.1-0.3c-0.2-0.5-0.5-0.9-1-1.1c-0.5-0.2-1-0.3-1.4-0.1
			c-0.5,0.2-0.9,0.5-1.1,1c-0.2,0.5-0.3,1-0.1,1.4c0.6,1.6,1.1,3.1,1.6,4.6c0.5,1.4,1,2.8,1.4,4.3c0.3,0.9,0.6,1.8,0.9,2.7
			c0.3,0.9,0.6,1.9,1,2.9c0.2,0.5,0.5,0.8,0.9,1.1c0.5,0.2,1,0.3,1.4,0.1c0.5-0.2,0.8-0.5,1.1-0.9c0.2-0.5,0.3-0.9,0.2-1.4
			c-0.6-2.1-1.1-4-1.4-5.8c-0.3-1.8-0.4-3.3-0.3-4.6c0-0.4,0.1-0.8,0.1-1.2c0.1-0.4,0.2-0.8,0.3-1.2c0.1-0.4,0.3-0.7,0.5-1
			c0.2-0.3,0.5-0.5,0.8-0.6c0.4-0.2,0.8-0.1,1.2,0c0.3,0.1,0.6,0.4,1.1,0.9c0.4,0.4,0.9,1.2,1.5,2.2c0.5,1,1,2.2,1.6,3.6
			c0.5,1.4,1.1,3,1.6,4.8c0.1,0.5,0.4,0.9,0.9,1.1c0.5,0.2,1,0.3,1.5,0.2l0.1,0c0.5-0.2,0.8-0.5,1-0.9c0.2-0.4,0.3-0.9,0.1-1.4
			C418.9,230.7,417.7,227.6,416.5,225.4z M394,221.8c0.2-0.5,0.2-1,0.1-1.5c-0.2-0.5-0.5-0.9-1-1.1c-0.5-0.2-1-0.2-1.5,0
			s-0.9,0.5-1.1,1c-0.2,0.5-0.2,1-0.1,1.5c0.2,0.5,0.5,0.9,1,1.1c0.5,0.2,1,0.2,1.5,0.1C393.4,222.6,393.7,222.3,394,221.8z
			 M117,406c-0.6,0.8-1,1.8-1.3,2.8c-0.3,1.1-0.4,2.2-0.3,3.4c0.1,1.2,0.3,2.4,0.8,3.5c0.8,2.2,2.1,3.7,3.9,4.7
			c1.6,0.9,3.3,1.1,5.1,0.9c0.5-0.1,1-0.3,1.5-0.4c0.5-0.2,1-0.4,1.5-0.7c0.5-0.3,0.9-0.6,1.3-1c0.6-0.6,1.1-1.3,1.5-2
			c0.4-0.7,0.5-1.5,0.6-2.3c0-0.5-0.1-1-0.5-1.3c-0.3-0.4-0.8-0.5-1.3-0.6c-0.5,0-1,0.1-1.3,0.5c-0.4,0.3-0.5,0.8-0.6,1.3
			c0,0.4-0.1,0.7-0.3,1c-0.2,0.3-0.4,0.5-0.6,0.7c-0.3,0.3-0.6,0.5-1,0.7c-0.4,0.2-0.8,0.3-1.3,0.4c-0.3,0-0.6,0.1-1,0.1
			c-0.4,0-0.9-0.1-1.4-0.3c-0.5-0.2-1-0.5-1.4-1c-0.5-0.5-0.8-1.1-1.2-2c-0.6-1.7-0.7-3.2-0.3-4.7c0.2-0.6,0.4-1.1,0.6-1.5
			c0.3-0.4,0.6-0.7,1-0.9c0.4-0.2,0.8-0.3,1.2-0.2c0.4,0.1,0.7,0.3,1.1,0.5s0.6,0.5,0.9,0.8c0.3,0.3,0.5,0.6,0.6,0.8
			c0.3,0.4,0.7,0.7,1.2,0.7c0.5,0.1,1,0,1.4-0.3c0.4-0.3,0.7-0.7,0.7-1.2c0.1-0.5,0-1-0.3-1.4c-0.7-1-1.4-1.8-2.2-2.3
			c-0.8-0.5-1.5-0.9-2.3-1.1c-0.7-0.2-1.5-0.2-2.2-0.1c-0.7,0.1-1.3,0.3-1.9,0.6C118.3,404.6,117.6,405.2,117,406z M127.7,187.8
			c0.6,1.8,1.2,3.5,1.8,5.3l2.3,6.9c0.2,0.6,0.6,1,1.2,1.3c0.6,0.3,1.2,0.3,1.8,0.2l0.1,0c0.6-0.2,1-0.6,1.3-1.2
			c0.3-0.6,0.3-1.1,0.2-1.7c-0.8-2.6-1.4-5-1.8-7.2c-0.4-2.2-0.5-4.1-0.5-5.7c0-0.4,0-0.8,0.1-1.3c0.1-0.5,0.2-1,0.3-1.4
			c0.1-0.5,0.3-0.9,0.6-1.2c0.2-0.4,0.5-0.6,0.9-0.8c0.5-0.2,0.9-0.1,1.4,0.1c0.3,0.2,0.6,0.5,1,0.9c0.4,0.4,0.9,1.1,1.4,2
			c0.3,0.5,0.7,0.9,1.3,1.1c0.5,0.2,1.1,0.2,1.6,0c0.1,0,0.1-0.1,0.2-0.1c0.1,0,0.1-0.1,0.2-0.1c0.5-0.3,0.9-0.8,1.1-1.5
			c0.2-0.6,0.1-1.2-0.3-1.8c-1.3-2.2-2.7-3.8-4.2-4.7c-1.8-1-3.6-1.1-5.4-0.4c-0.7,0.3-1.4,0.7-2.2,1.3c-0.7,0.6-1.4,1.6-1.9,2.8
			l0-0.1c-0.2-0.6-0.6-1-1.2-1.3c-0.6-0.3-1.2-0.3-1.8-0.1c-0.6,0.2-1.1,0.6-1.3,1.2c-0.3,0.6-0.3,1.2-0.1,1.8
			C126.5,184.2,127.2,186,127.7,187.8z M278.6,124c-0.3,0.6-0.3,1.2-0.1,1.8c0.7,2,1.4,3.9,2,5.6c0.6,1.8,1.2,3.5,1.8,5.3l2.3,6.9
			c0.2,0.6,0.6,1,1.2,1.3c0.6,0.3,1.2,0.3,1.8,0.1l0,0c0.6-0.2,1-0.6,1.3-1.2c0.3-0.6,0.3-1.2,0.1-1.8l-2.3-6.8
			c-0.6-1.8-1.2-3.6-1.8-5.4c-0.6-1.8-1.3-3.7-2-5.7c-0.2-0.6-0.6-1-1.2-1.3c-0.6-0.3-1.2-0.3-1.8-0.1
			C279.3,123,278.9,123.4,278.6,124z M399.5,236.1c-0.5-1.5-1-2.9-1.4-4.4c-0.5-1.4-1-3-1.6-4.6c-0.2-0.5-0.5-0.8-0.9-1.1
			c-0.5-0.2-1-0.3-1.5-0.1c-0.5,0.2-0.9,0.5-1.1,1c-0.2,0.5-0.2,1-0.1,1.5c0.6,1.6,1.1,3.1,1.6,4.5c0.5,1.4,0.9,2.9,1.4,4.3l1.9,5.5
			c0.2,0.5,0.5,0.8,0.9,1.1c0.5,0.2,1,0.3,1.5,0.1l0,0c0.5-0.2,0.8-0.5,1-1c0.2-0.5,0.3-1,0.1-1.4L399.5,236.1z M138.9,427.5
			c-0.5-0.2-0.9-0.2-1.4,0c-0.5,0.2-0.8,0.5-1,1c-0.2,0.5-0.2,0.9,0,1.4c0.2,0.5,0.5,0.8,1,1c0.5,0.2,0.9,0.2,1.4,0
			c0.5-0.2,0.8-0.5,1-1c0.2-0.5,0.2-0.9,0-1.4C139.6,428.1,139.3,427.8,138.9,427.5z M142.8,397.6c-0.9-0.5-1.9-0.6-3-0.5
			c-1.4,0.1-2.8,0.8-4,1.9c-1.3,1.1-2.2,2.6-2.8,4.5c-0.2,0.5-0.2,1,0.1,1.4c0.2,0.4,0.6,0.7,1.1,0.9c0.5,0.2,1,0.2,1.4-0.1
			c0.4-0.2,0.7-0.6,0.9-1.1c0.4-1.3,1-2.3,1.7-2.8c0.7-0.6,1.3-0.9,1.9-1c0.7-0.1,1.3,0.1,1.7,0.8c0.2,0.4,0.4,0.8,0.6,1.3
			c0.2,0.5,0.4,1,0.6,1.6c-1.8,0.6-3.2,1.3-4.5,2.1c-1.2,0.8-2.1,1.8-2.7,2.8c-0.7,1.3-0.8,2.5-0.4,3.7c0.2,0.8,0.6,1.4,1.3,1.9
			c0.6,0.5,1.3,0.8,2.1,1c0.4,0.1,0.9,0.1,1.4,0.1c0.5,0,1.2-0.2,1.9-0.4c0.6-0.2,1.2-0.5,1.9-1c0.7-0.4,1.4-1,2.1-1.7
			c0.2,0.3,0.5,0.4,0.9,0.5c0.4,0.1,0.7,0.1,1.1-0.1l0,0c0.5-0.2,0.8-0.5,1-0.9c0.2-0.5,0.2-0.9,0.1-1.4c-0.4-1-0.7-2-1-2.8
			c-0.3-0.9-0.5-1.7-0.8-2.4c-0.4-1.3-0.8-2.4-1.1-3.4c-0.3-1-0.8-1.8-1.2-2.7C144.5,398.7,143.8,398,142.8,397.6z M144.6,409
			c-0.5,0.6-1,1.2-1.6,1.6c-0.5,0.4-1,0.8-1.5,1.1c-0.5,0.3-0.9,0.4-1.3,0.5c-0.3,0-0.6,0-0.7,0c-0.3-0.1-0.5-0.2-0.5-0.4
			c0-0.1,0-0.2,0-0.4c0-0.1,0.1-0.3,0.2-0.3c0.3-0.5,0.8-1,1.6-1.6c0.8-0.6,2-1.1,3.5-1.6L144.6,409z M164,395.6l19.2-13.9l-6.8-3.3
			l-16.3,10.8L164,395.6z M355.6,95.6c-0.3,0.6-0.3,1.2-0.1,1.8c0.7,2,1.4,3.9,2,5.6c0.6,1.8,1.2,3.5,1.8,5.3l2.3,6.9
			c0.2,0.6,0.6,1,1.2,1.3c0.6,0.3,1.2,0.3,1.8,0.1l0,0c0.6-0.2,1-0.6,1.3-1.2c0.3-0.6,0.3-1.2,0.1-1.8l-2.3-6.8
			c-0.6-1.8-1.2-3.6-1.8-5.4c-0.6-1.8-1.3-3.7-2-5.7c-0.2-0.6-0.6-1-1.2-1.3c-0.6-0.3-1.2-0.3-1.8-0.1
			C356.3,94.6,355.9,95,355.6,95.6z M344.3,255.9c-0.7,1.3-0.8,2.6-0.4,3.8c0.2,0.8,0.7,1.4,1.3,2c0.6,0.5,1.4,0.9,2.2,1
			c0.4,0.1,0.9,0.1,1.4,0.1c0.6,0,1.2-0.2,1.9-0.4c0.6-0.2,1.3-0.6,2-1c0.7-0.4,1.4-1,2.2-1.8c0.2,0.3,0.5,0.4,0.9,0.5
			c0.4,0.1,0.7,0.1,1.1-0.1l0,0c0.5-0.2,0.8-0.5,1.1-1c0.2-0.5,0.3-1,0.1-1.5c-0.4-1.1-0.7-2-1-2.9c-0.3-0.9-0.6-1.7-0.8-2.5
			c-0.4-1.3-0.8-2.5-1.2-3.5c-0.4-1-0.8-1.9-1.3-2.8c-0.6-0.9-1.3-1.6-2.3-2.1c-1-0.5-2-0.6-3.1-0.5c-1.5,0.1-2.8,0.8-4.1,1.9
			c-1.3,1.2-2.3,2.7-2.9,4.6c-0.2,0.5-0.2,1,0.1,1.5c0.2,0.5,0.6,0.8,1.1,0.9c0.5,0.2,1,0.2,1.5-0.1c0.5-0.2,0.8-0.6,1-1.1
			c0.4-1.4,1-2.3,1.8-2.9c0.7-0.6,1.4-0.9,2-1c0.8-0.1,1.3,0.1,1.7,0.8c0.2,0.4,0.4,0.8,0.7,1.3c0.2,0.5,0.4,1,0.6,1.6
			c-1.8,0.6-3.3,1.3-4.6,2.2C345.9,253.8,344.9,254.8,344.3,255.9z M347.5,258.1c0.1-0.2,0.1-0.3,0.2-0.3c0.3-0.5,0.8-1.1,1.7-1.7
			c0.8-0.6,2-1.2,3.6-1.7l0.4,1.2c-0.5,0.7-1.1,1.2-1.6,1.7c-0.5,0.5-1.1,0.8-1.6,1.1c-0.5,0.3-0.9,0.5-1.3,0.5c-0.4,0-0.6,0-0.7,0
			c-0.3-0.1-0.5-0.2-0.6-0.4C347.5,258.4,347.5,258.2,347.5,258.1z M353.8,90.3c0.6,0.3,1.2,0.3,1.8,0.1c0.6-0.2,1.1-0.6,1.3-1.2
			c0.3-0.6,0.3-1.2,0.1-1.8c-0.2-0.6-0.6-1.1-1.2-1.3c-0.6-0.3-1.2-0.3-1.8-0.1c-0.6,0.2-1.1,0.6-1.3,1.2c-0.3,0.6-0.3,1.2-0.1,1.8
			C352.8,89.6,353.2,90,353.8,90.3z M367.8,99.2c0.6,1.8,1.2,3.5,1.8,5.3c0.3,1.1,0.7,2.2,1.1,3.4c0.4,1.1,0.8,2.3,1.2,3.6
			c0.2,0.6,0.6,1,1.2,1.3c0.6,0.3,1.2,0.3,1.8,0.1c0.6-0.2,1-0.6,1.3-1.2c0.3-0.6,0.4-1.2,0.2-1.8c-0.8-2.6-1.4-5-1.7-7.2
			c-0.4-2.2-0.5-4.1-0.4-5.7c0-0.5,0.1-1,0.2-1.5c0.1-0.5,0.2-1,0.4-1.4c0.2-0.4,0.4-0.8,0.6-1.2c0.3-0.3,0.6-0.6,1-0.8
			c0.5-0.2,1-0.2,1.5,0.1c0.3,0.2,0.8,0.5,1.3,1.1c0.5,0.5,1.1,1.5,1.8,2.8c0.6,1.2,1.3,2.7,2,4.4c0.7,1.7,1.3,3.7,2,6
			c0.2,0.6,0.5,1.1,1.1,1.4c0.6,0.3,1.2,0.4,1.8,0.2l0.1,0c0.6-0.2,1-0.6,1.3-1.2c0.3-0.6,0.3-1.1,0.2-1.7c-1.5-5-3-8.9-4.5-11.6
			c-1.5-2.8-3.2-4.6-5-5.5c-0.8-0.4-1.7-0.7-2.6-0.7c-0.9,0-1.8,0.1-2.7,0.4c-0.8,0.3-1.6,0.8-2.4,1.5c-0.8,0.7-1.5,1.7-2,3.1
			l-0.1-0.3c-0.2-0.6-0.6-1.1-1.2-1.4c-0.6-0.3-1.2-0.3-1.8-0.1c-0.6,0.2-1.1,0.6-1.4,1.2c-0.3,0.6-0.3,1.2-0.1,1.8
			C366.5,95.6,367.2,97.5,367.8,99.2z M440.7,234.9c-0.4-1.4-1.3-2.5-2.5-3.1c-0.4-0.2-0.9-0.4-1.5-0.5s-1.4-0.1-2.3,0
			c0,0,0-0.1,0-0.2c0-0.1,0-0.1,0-0.2c-0.1-0.5-0.3-1-0.4-1.5c-0.1-0.5-0.3-1-0.4-1.5c0.4-0.4,0.8-0.7,1.2-1.2
			c0.4-0.4,0.7-0.9,1-1.4c0.4-0.8,0.7-1.6,0.9-2.5c0.1-0.9,0.1-1.8-0.1-2.6c-0.3-1.5-1-2.7-2.1-3.5c-1.2-1-2.6-1.3-4.4-1.2
			c-0.2,0-0.4,0.1-0.5,0.1c0-0.3-0.1-0.5-0.2-0.7c-0.2-0.5-0.5-0.8-1-1c-0.5-0.2-1-0.2-1.5,0.1c-1.3,0.5-2.3,1.2-3.1,2.1
			c-0.8,0.9-1.4,1.8-1.7,2.8c-0.4,1-0.5,2-0.5,3c0,1,0.2,2,0.5,2.9c0.7,1.8,1.9,3.1,3.4,4c1.4,0.7,2.9,0.9,4.5,0.7
			c0.1,0.4,0.2,0.8,0.3,1.2c0.1,0.4,0.2,0.8,0.3,1.2l0.3,1.2c-0.4,0.3-0.7,0.6-1,1c-0.3,0.4-0.5,0.7-0.8,1.1
			c-0.4,0.8-0.6,1.5-0.7,2.3c-0.1,0.8,0,1.6,0.3,2.3c0.3,0.7,0.7,1.3,1.2,1.8c0.5,0.5,1.1,0.9,1.8,1.2c1.4,0.6,3,0.6,4.7,0l0.2-0.1
			c1.6-0.6,2.8-1.7,3.6-3.3c0.4-0.7,0.6-1.5,0.6-2.3C441,236.4,440.9,235.6,440.7,234.9z M431.6,224.7c-0.4,0.3-0.8,0.6-1.3,0.8
			l-0.2,0.1c-0.6,0.2-1.1,0.3-1.6,0.2c-0.5-0.1-0.9-0.2-1.3-0.4c-0.4-0.2-0.7-0.5-1-0.8c-0.3-0.3-0.5-0.7-0.6-1.1
			c-0.2-0.5-0.3-1-0.3-1.6c0-0.5,0.1-1.1,0.3-1.6c0.2-0.5,0.5-1,1-1.5c0.4-0.5,1-0.9,1.8-1.2l0,0.2c0.1,0.5,0.3,0.9,0.7,1.3
			c0.4,0.3,0.9,0.5,1.4,0.4c0.8-0.1,1.4,0.1,1.7,0.4c0.3,0.4,0.5,0.8,0.6,1.2c0.1,0.4,0.1,0.8,0.1,1.3c-0.1,0.4-0.2,0.9-0.4,1.3
			C432.2,224,431.9,224.3,431.6,224.7z M436.9,237.8c-0.1,0.3-0.3,0.5-0.5,0.8c-0.2,0.3-0.6,0.5-1.1,0.6c-0.7,0.2-1.3,0.3-1.8,0.1
			c-0.5-0.1-0.9-0.4-1.1-0.8c-0.2-0.5-0.1-0.9,0.2-1.5c0.1-0.3,0.3-0.6,0.7-0.9c0.3-0.3,0.8-0.7,1.5-1c1.3-0.3,2,0,2.3,0.9
			C437.2,236.6,437.2,237.2,436.9,237.8z M396.1,97.8c1.8,0.9,3.7,1.2,5.7,0.8c0.1,0.5,0.3,1,0.4,1.5c0.1,0.5,0.3,1,0.4,1.5l0.4,1.5
			c-0.5,0.4-0.9,0.8-1.2,1.2c-0.3,0.4-0.7,0.9-1,1.4c-0.5,0.9-0.7,1.9-0.8,2.9c-0.1,1,0,1.9,0.4,2.9c0.3,0.8,0.8,1.6,1.4,2.2
			c0.6,0.6,1.4,1.1,2.2,1.5c1.8,0.7,3.7,0.7,5.9,0l0.3-0.1c2-0.7,3.5-2.1,4.5-4.1c0.4-0.9,0.7-1.8,0.8-2.8c0.1-1,0-1.9-0.3-2.8
			c-0.6-1.8-1.6-3.1-3.1-3.8c-0.5-0.3-1.1-0.5-1.9-0.7c-0.8-0.2-1.7-0.1-2.8,0c0-0.1,0-0.1-0.1-0.2c0-0.1,0-0.2-0.1-0.2
			c-0.2-0.6-0.3-1.2-0.5-1.8c-0.2-0.6-0.3-1.2-0.5-1.8c0.5-0.4,1-0.9,1.5-1.4c0.5-0.5,0.9-1.1,1.2-1.7c0.5-1,0.9-2,1.1-3.1
			c0.2-1.1,0.1-2.2-0.1-3.3c-0.4-1.8-1.3-3.3-2.6-4.4c-1.4-1.2-3.3-1.7-5.4-1.4c-0.3,0-0.5,0.1-0.6,0.1c0-0.3-0.1-0.6-0.2-0.9
			c-0.2-0.6-0.7-1-1.3-1.2c-0.6-0.2-1.2-0.2-1.8,0.1c-1.6,0.7-2.8,1.6-3.8,2.6c-1,1.1-1.7,2.2-2.2,3.4c-0.5,1.2-0.7,2.5-0.7,3.7
			s0.2,2.5,0.7,3.6C392.7,95.1,394.1,96.7,396.1,97.8z M407.7,105.6c1.6-0.4,2.5,0,2.9,1.1c0.2,0.8,0.1,1.5-0.2,2.3
			c-0.1,0.3-0.4,0.7-0.7,1c-0.3,0.3-0.7,0.6-1.3,0.8c-0.9,0.3-1.6,0.3-2.3,0.2c-0.6-0.1-1.1-0.5-1.3-1.1c-0.2-0.6-0.1-1.2,0.2-1.8
			c0.1-0.3,0.4-0.7,0.8-1.1C406.2,106.4,406.8,106,407.7,105.6z M396.3,87.2c0.3-0.7,0.7-1.3,1.2-1.9c0.6-0.6,1.3-1.1,2.2-1.5l0,0.2
			c0.1,0.6,0.4,1.2,0.9,1.6c0.5,0.4,1.1,0.6,1.7,0.5c1-0.1,1.8,0.1,2.2,0.5c0.4,0.5,0.7,1,0.8,1.5c0.1,0.5,0.1,1,0.1,1.6
			c-0.1,0.5-0.2,1.1-0.5,1.6c-0.3,0.5-0.6,1-1.1,1.4c-0.5,0.4-1,0.7-1.7,1l-0.2,0.1c-0.8,0.2-1.4,0.3-2,0.3
			c-0.6-0.1-1.1-0.2-1.6-0.5c-0.5-0.3-0.9-0.6-1.2-1c-0.3-0.4-0.6-0.9-0.7-1.3c-0.2-0.6-0.4-1.3-0.4-2
			C395.9,88.5,396,87.8,396.3,87.2z M282.4,274.4c0.5,1.4,0.9,2.9,1.4,4.3l1.9,5.5c0.2,0.5,0.5,0.8,0.9,1.1c0.5,0.2,1,0.3,1.5,0.1
			l0,0c0.5-0.2,0.8-0.5,1-1c0.2-0.5,0.3-1,0.1-1.4l-1.9-5.5c-0.5-1.5-1-2.9-1.4-4.4c-0.5-1.4-1-3-1.6-4.6c-0.2-0.5-0.5-0.8-0.9-1.1
			c-0.5-0.2-1-0.3-1.5-0.1c-0.5,0.2-0.9,0.5-1.1,1c-0.2,0.5-0.2,1-0.1,1.5C281.4,271.4,281.9,272.9,282.4,274.4z M290.7,127.7
			c0.6,1.8,1.2,3.5,1.8,5.3c0.3,1.1,0.7,2.2,1.1,3.4c0.4,1.1,0.8,2.3,1.2,3.6c0.2,0.6,0.6,1,1.2,1.3c0.6,0.3,1.2,0.3,1.8,0.1
			c0.6-0.2,1-0.6,1.3-1.2c0.3-0.6,0.4-1.2,0.2-1.8c-0.8-2.6-1.4-5-1.7-7.2c-0.4-2.2-0.5-4.1-0.4-5.7c0-0.5,0.1-1,0.2-1.5
			c0.1-0.5,0.2-1,0.4-1.4c0.2-0.4,0.4-0.8,0.6-1.2c0.3-0.3,0.6-0.6,1-0.8c0.5-0.2,1-0.2,1.5,0.1c0.3,0.2,0.8,0.5,1.3,1.1
			c0.5,0.5,1.1,1.5,1.8,2.8c0.6,1.2,1.3,2.7,2,4.4c0.7,1.7,1.3,3.7,2,6c0.2,0.6,0.5,1.1,1.1,1.4c0.6,0.3,1.2,0.4,1.8,0.2l0.1,0
			c0.6-0.2,1-0.6,1.3-1.2c0.3-0.6,0.3-1.1,0.2-1.7c-1.5-5-3-8.9-4.5-11.6c-1.5-2.8-3.2-4.6-5-5.5c-0.8-0.4-1.7-0.7-2.6-0.7
			c-0.9,0-1.8,0.1-2.7,0.4c-0.8,0.3-1.6,0.8-2.4,1.5c-0.8,0.7-1.5,1.7-2,3.1l-0.1-0.3c-0.2-0.6-0.6-1.1-1.2-1.4
			c-0.6-0.3-1.2-0.3-1.8-0.1c-0.6,0.2-1.1,0.6-1.4,1.2c-0.3,0.6-0.3,1.2-0.1,1.8C289.5,124,290.2,125.9,290.7,127.7z M281.9,263.2
			c0.2-0.5,0.2-1,0-1.5c-0.2-0.5-0.5-0.9-1-1.1c-0.5-0.2-1-0.2-1.5,0c-0.5,0.2-0.9,0.5-1.1,1c-0.2,0.5-0.2,1-0.1,1.5
			c0.2,0.5,0.5,0.9,1,1.1c0.5,0.2,1,0.2,1.5,0.1C281.3,264,281.7,263.7,281.9,263.2z M306.2,260.2c0.7,2,1.5,3.9,2.3,5.8
			c0.8,1.9,1.7,3.6,2.7,5.1c0.9,1.4,1.9,2.3,3.1,2.9c1.3,0.6,2.5,0.7,3.8,0.2l0.1-0.1c0.7-0.3,1.4-0.8,2-1.5c0.6-0.7,1-1.5,1.2-2.5
			c0.5-2,0.5-4.3-0.1-6.9c-0.1-0.5-0.4-0.9-0.8-1.2c-0.4-0.3-0.9-0.4-1.4-0.3c-0.5,0.1-0.9,0.4-1.2,0.8c-0.3,0.4-0.4,0.9-0.3,1.4
			c0.2,1.1,0.3,2,0.4,2.8c0,0.8,0,1.5-0.1,2c-0.1,0.5-0.3,1-0.5,1.3c-0.2,0.3-0.4,0.5-0.6,0.6c-0.3,0.1-0.6,0-1-0.2
			c-0.4-0.2-0.9-0.7-1.3-1.3c-0.9-1.4-1.8-3.1-2.6-5c-0.8-1.9-1.6-3.8-2.2-5.7l7.1-3.7c0.5-0.2,0.8-0.6,0.9-1.1
			c0.2-0.5,0.1-1-0.1-1.5c-0.2-0.4-0.6-0.8-1.1-0.9c-0.5-0.2-1-0.1-1.4,0.1l-6.6,3.4c-0.1-0.4-0.3-0.8-0.4-1.2
			c-0.1-0.4-0.3-0.8-0.4-1.2c-0.3-0.8-0.5-1.6-0.8-2.3c-0.2-0.7-0.4-1.3-0.6-1.9c-0.2-0.5-0.5-0.9-1-1.1c-0.5-0.2-1-0.2-1.4-0.1
			c-0.5,0.2-0.9,0.5-1.1,1c-0.2,0.5-0.2,1-0.1,1.5c0.4,1.1,0.9,2.4,1.3,4l1,3.1l-0.4,0.2c-0.5,0.2-0.8,0.6-0.9,1.1
			c-0.2,0.5-0.1,1,0.1,1.4c0.2,0.5,0.6,0.8,1,0.9c0.5,0.2,0.9,0.2,1.4,0L306.2,260.2z M300.9,276.5c-0.3,0.2-0.7,0.3-1,0.5
			c-0.4,0.1-0.8,0.2-1.2,0.2c-0.4,0-0.8,0-1.1-0.1c-0.5-0.1-0.8-0.3-1-0.6c-0.2-0.3-0.3-0.5-0.4-0.7c-0.1-0.5-0.4-0.9-0.9-1.1
			c-0.5-0.2-1-0.3-1.5-0.2c-0.5,0.2-0.9,0.5-1.1,0.9c-0.3,0.5-0.3,0.9-0.2,1.5c0.3,1.1,0.9,1.9,1.7,2.6c0.7,0.6,1.5,1,2.5,1.3
			c1.3,0.3,2.8,0.3,4.2-0.2c0.1,0,0.2,0,0.3-0.1c0.1,0,0.2-0.1,0.3-0.1c1.2-0.4,2.2-1.1,2.9-1.9c0.6-0.6,1-1.3,1.3-2.1
			c0.2-0.8,0.2-1.5,0-2.3c-0.5-1.6-1.7-2.8-3.6-3.6c-0.7-0.3-1.4-0.5-2.2-0.7c-0.8-0.2-1.5-0.3-2.3-0.4c-0.6-0.1-1.1-0.2-1.7-0.3
			c-0.5-0.1-1-0.2-1.4-0.4c-0.3-0.1-0.5-0.2-0.6-0.3s-0.2-0.1-0.2-0.2c0-0.1,0-0.2,0.1-0.4c0.1-0.2,0.2-0.4,0.4-0.6
			c0.2-0.2,0.5-0.5,0.8-0.6c0.3-0.2,0.6-0.3,0.9-0.4c0.3-0.1,0.6-0.2,0.9-0.2c0.3,0,0.6,0,0.8,0c0.1,0,0.2,0.1,0.5,0.2
			c0.2,0.1,0.4,0.5,0.5,1c0.1,0.5,0.4,0.9,0.9,1.2c0.5,0.3,0.9,0.4,1.4,0.2c0.5-0.1,0.9-0.4,1.2-0.9c0.3-0.4,0.3-0.9,0.2-1.4
			c-0.2-1-0.7-1.9-1.3-2.6c-0.6-0.7-1.4-1.2-2.4-1.4c-1.2-0.3-2.5-0.2-4,0.3c-0.6,0.2-1.2,0.5-1.7,0.8c-0.5,0.3-1,0.8-1.5,1.2
			c-0.7,0.7-1.1,1.5-1.4,2.4c-0.2,0.8-0.2,1.7,0,2.5c0.4,1.3,1.5,2.3,3.1,2.9c0.6,0.2,1.2,0.4,1.8,0.5c0.6,0.1,1.3,0.2,1.9,0.3
			c0.5,0.1,1.1,0.2,1.7,0.3c0.6,0.1,1.1,0.2,1.5,0.4c0.5,0.1,0.9,0.3,1.2,0.5c0.3,0.2,0.5,0.5,0.6,0.8c0,0,0,0.1,0,0.2
			c0,0.1-0.1,0.3-0.3,0.5C301.5,276.1,301.3,276.3,300.9,276.5z M315.7,118.6c0.7,0.2,1.3,0.2,1.8-0.1c0.6-0.3,1-0.8,1.2-1.4
			c0.6-1.7,1.3-2.9,2.2-3.7c0.9-0.8,1.7-1.2,2.5-1.2c1-0.2,1.7,0.2,2.2,1c0.3,0.5,0.6,1.1,0.8,1.7c0.3,0.6,0.5,1.3,0.7,2
			c-2.3,0.7-4.2,1.6-5.7,2.7c-1.6,1.1-2.7,2.3-3.5,3.6c-0.8,1.6-1,3.2-0.5,4.7c0.3,1,0.8,1.8,1.6,2.4c0.8,0.7,1.7,1.1,2.7,1.3
			c0.5,0.1,1.1,0.1,1.8,0.1c0.7,0,1.5-0.2,2.4-0.5c0.8-0.3,1.6-0.7,2.4-1.2c0.9-0.5,1.8-1.3,2.7-2.2c0.3,0.3,0.7,0.6,1.1,0.7
			c0.5,0.1,0.9,0.1,1.4-0.1l0,0c0.6-0.2,1-0.6,1.3-1.2c0.3-0.6,0.3-1.2,0.1-1.8c-0.5-1.3-0.9-2.5-1.3-3.6c-0.4-1.1-0.7-2.1-1-3.1
			c-0.5-1.6-1-3.1-1.5-4.3c-0.4-1.2-1-2.4-1.6-3.4c-0.7-1.2-1.6-2-2.8-2.6c-1.2-0.6-2.5-0.8-3.9-0.7c-1.9,0.2-3.5,1-5.1,2.4
			c-1.6,1.5-2.8,3.4-3.6,5.8c-0.2,0.7-0.2,1.3,0.1,1.8C314.6,118,315,118.4,315.7,118.6z M328.6,121.3l0.5,1.5
			c-0.7,0.8-1.3,1.5-2,2.1c-0.7,0.6-1.3,1-2,1.4c-0.6,0.4-1.2,0.6-1.6,0.6c-0.4,0-0.7,0-0.9,0c-0.4-0.1-0.7-0.2-0.7-0.5
			c-0.1-0.1-0.1-0.3,0-0.5c0.1-0.2,0.1-0.3,0.2-0.4c0.3-0.6,1-1.3,2.1-2.1C325.2,122.6,326.6,121.9,328.6,121.3z M331.7,96.5
			l1.3,3.8l-0.5,0.3c-0.6,0.3-1,0.7-1.1,1.4c-0.2,0.6-0.1,1.2,0.1,1.8c0.3,0.6,0.7,1,1.3,1.2c0.6,0.2,1.1,0.2,1.7,0l0.2-0.1
			c0.9,2.4,1.8,4.8,2.9,7.2c1,2.4,2.2,4.5,3.4,6.4c1.1,1.7,2.4,2.9,3.8,3.6c1.6,0.8,3.1,0.9,4.7,0.3l0.2-0.1c0.9-0.4,1.7-1,2.4-1.9
			c0.7-0.8,1.2-1.9,1.5-3.1c0.7-2.4,0.6-5.3-0.1-8.6c-0.1-0.6-0.5-1.1-1-1.5c-0.6-0.4-1.1-0.5-1.8-0.4c-0.6,0.1-1.1,0.5-1.5,1
			c-0.4,0.6-0.5,1.1-0.4,1.8c0.3,1.3,0.4,2.5,0.5,3.4c0,1,0,1.8-0.2,2.5c-0.1,0.7-0.3,1.2-0.6,1.6c-0.2,0.4-0.5,0.6-0.8,0.7
			c-0.3,0.1-0.8,0-1.3-0.3c-0.5-0.3-1.1-0.9-1.6-1.7c-1.1-1.8-2.2-3.9-3.2-6.2c-1-2.3-1.9-4.7-2.8-7.1l8.9-4.6
			c0.6-0.3,0.9-0.7,1.1-1.4c0.2-0.6,0.1-1.2-0.1-1.8c-0.3-0.6-0.8-0.9-1.4-1.1c-0.6-0.2-1.2-0.2-1.8,0.2l-8.2,4.2
			c-0.2-0.5-0.4-1-0.5-1.5c-0.2-0.5-0.3-1-0.5-1.5c-0.3-1-0.7-2-0.9-2.8c-0.3-0.9-0.5-1.6-0.8-2.3c-0.2-0.6-0.6-1.1-1.2-1.3
			c-0.6-0.3-1.2-0.3-1.8-0.1c-0.6,0.2-1.1,0.6-1.3,1.2c-0.3,0.6-0.3,1.2-0.1,1.8C330.6,92.9,331.1,94.6,331.7,96.5z M52.5,447.8
			c0.6,0,1.2-0.1,1.8-0.2c0.7-0.1,1.3-0.3,1.9-0.5c1.5-0.5,2.8-1.4,3.9-2.5c0.8-0.8,1.4-1.8,1.9-2.8c0.4-1,0.6-2.1,0.6-3.2
			c0-0.5-0.2-1-0.5-1.3c-0.4-0.4-0.8-0.5-1.3-0.5c-0.5,0-1,0.2-1.3,0.5c-0.4,0.4-0.5,0.8-0.5,1.3c0,0.7-0.2,1.4-0.5,2
			c-0.3,0.6-0.7,1.2-1.2,1.6c-0.5,0.5-1.1,0.9-1.7,1.2c-0.6,0.3-1.3,0.5-1.9,0.6c-0.4,0.1-0.9,0.1-1.7,0.1c-0.7,0-1.5-0.2-2.4-0.5
			c-0.9-0.4-1.7-1-2.6-1.9c-0.9-0.9-1.6-2.2-2.3-3.9c-0.6-1.4-0.9-2.9-1-4.3c-0.1-1.4-0.1-2.8,0.2-4.1c0.2-1,0.6-1.9,1.1-2.7
			c0.5-0.8,1.1-1.3,1.7-1.7c0.9-0.5,1.8-0.5,2.9-0.1c0.7,0.3,1.4,0.7,2,1.3c0.7,0.6,1.3,1.4,2,2.3c0.3,0.4,0.7,0.7,1.2,0.8
			c0.5,0.1,1,0,1.4-0.3c0.4-0.3,0.7-0.7,0.8-1.2c0.1-0.5,0-1-0.3-1.4c-1.7-2.6-3.6-4.2-5.7-5c-1.1-0.4-2.1-0.6-3.1-0.6
			c-1,0-1.9,0.3-2.9,0.7c-1.2,0.6-2.2,1.5-3,2.8c-0.4,0.6-0.7,1.2-1,1.9c-0.3,0.7-0.5,1.4-0.7,2.2c-0.3,1.6-0.4,3.2-0.3,5
			c0.1,0.9,0.2,1.8,0.4,2.7c0.2,0.9,0.5,1.9,0.9,2.8c0.6,1.7,1.4,3.1,2.4,4.4c1,1.2,2,2.1,3.3,2.8c1.1,0.7,2.4,1.1,3.7,1.4
			C51.3,447.8,51.9,447.8,52.5,447.8z M206.8,152.2c-1.8-1-3.6-1.1-5.4-0.4c-0.7,0.3-1.4,0.7-2.2,1.3c-0.7,0.6-1.4,1.6-1.9,2.8
			l0-0.1c-0.2-0.6-0.6-1-1.2-1.3c-0.6-0.3-1.2-0.3-1.8-0.1c-0.6,0.2-1.1,0.6-1.3,1.2c-0.3,0.6-0.3,1.2-0.1,1.8c0.7,2,1.4,3.9,2,5.6
			c0.6,1.8,1.2,3.5,1.8,5.3l2.3,6.9c0.2,0.6,0.6,1,1.2,1.3c0.6,0.3,1.2,0.3,1.8,0.2l0.1,0c0.6-0.2,1-0.6,1.3-1.2
			c0.3-0.6,0.3-1.1,0.2-1.7c-0.8-2.6-1.4-5-1.8-7.2c-0.4-2.2-0.5-4.1-0.5-5.7c0-0.4,0-0.8,0.1-1.3c0.1-0.5,0.2-1,0.3-1.4
			c0.1-0.5,0.3-0.9,0.6-1.2c0.2-0.4,0.5-0.6,0.9-0.8c0.5-0.2,0.9-0.1,1.4,0.1c0.3,0.2,0.6,0.5,1,0.9c0.4,0.4,0.9,1.1,1.4,2
			c0.3,0.5,0.7,0.9,1.3,1.1c0.5,0.2,1.1,0.2,1.6,0c0.1,0,0.1-0.1,0.2-0.1c0.1,0,0.1-0.1,0.2-0.1c0.5-0.3,0.9-0.8,1.1-1.5
			c0.2-0.6,0.1-1.2-0.3-1.8C209.7,154.6,208.3,153.1,206.8,152.2z M362.6,280.5c-1.4-0.8-2.9-0.9-4.3-0.3c-0.6,0.2-1.2,0.6-1.8,1.1
			c-0.6,0.5-1.1,1.3-1.5,2.3l0-0.1c-0.2-0.5-0.5-0.8-0.9-1.1c-0.5-0.2-1-0.3-1.5-0.1c-0.5,0.2-0.8,0.5-1.1,1c-0.2,0.5-0.2,1-0.1,1.5
			c0.6,1.6,1.1,3.1,1.6,4.5c0.5,1.4,0.9,2.9,1.4,4.3l1.9,5.6c0.2,0.5,0.5,0.8,0.9,1.1c0.5,0.2,1,0.3,1.4,0.1l0.1,0
			c0.5-0.2,0.8-0.5,1-0.9s0.3-0.9,0.1-1.4c-0.6-2.1-1.1-4-1.4-5.8c-0.3-1.8-0.4-3.3-0.4-4.6c0-0.3,0-0.6,0.1-1
			c0.1-0.4,0.1-0.8,0.2-1.1c0.1-0.4,0.3-0.7,0.4-1c0.2-0.3,0.4-0.5,0.7-0.6c0.4-0.1,0.8-0.1,1.1,0.1c0.2,0.1,0.5,0.4,0.8,0.7
			c0.3,0.3,0.7,0.9,1.2,1.6c0.2,0.4,0.6,0.7,1,0.9c0.4,0.2,0.9,0.1,1.3,0c0,0,0.1,0,0.2-0.1c0.1,0,0.1-0.1,0.2-0.1
			c0.4-0.3,0.7-0.7,0.9-1.2c0.1-0.5,0.1-1-0.2-1.4C364.9,282.5,363.8,281.2,362.6,280.5z M235.2,157.9c-0.4-1.1-0.7-2.1-1-3.1
			c-0.5-1.6-1-3.1-1.5-4.3c-0.4-1.2-1-2.4-1.6-3.4c-0.7-1.2-1.6-2-2.8-2.6c-1.2-0.6-2.5-0.8-3.9-0.7c-1.9,0.2-3.5,1-5.1,2.4
			c-1.6,1.5-2.8,3.4-3.6,5.8c-0.2,0.7-0.2,1.3,0.1,1.8c0.3,0.6,0.7,1,1.4,1.2c0.7,0.2,1.3,0.2,1.8-0.1c0.6-0.3,1-0.8,1.2-1.4
			c0.6-1.7,1.3-2.9,2.2-3.7c0.9-0.8,1.7-1.2,2.5-1.2c1-0.2,1.7,0.2,2.2,1c0.3,0.5,0.6,1.1,0.8,1.7c0.3,0.6,0.5,1.3,0.7,2
			c-2.3,0.7-4.2,1.6-5.7,2.7c-1.6,1.1-2.7,2.3-3.5,3.6c-0.8,1.6-1,3.2-0.5,4.7c0.3,1,0.8,1.8,1.6,2.4c0.8,0.7,1.7,1.1,2.7,1.3
			c0.5,0.1,1.1,0.1,1.8,0.1c0.7,0,1.5-0.2,2.4-0.5c0.8-0.3,1.6-0.7,2.4-1.2c0.9-0.5,1.8-1.3,2.7-2.2c0.3,0.3,0.7,0.6,1.1,0.7
			c0.5,0.1,0.9,0.1,1.4-0.1l0,0c0.6-0.2,1-0.6,1.3-1.2c0.3-0.6,0.3-1.2,0.1-1.8C236,160.2,235.5,159,235.2,157.9z M228.6,161.2
			c-0.7,0.6-1.3,1-2,1.4c-0.6,0.4-1.2,0.6-1.6,0.6c-0.4,0-0.7,0-0.9,0c-0.4-0.1-0.7-0.2-0.7-0.5c-0.1-0.1,0-0.3,0-0.5
			c0.1-0.2,0.1-0.3,0.2-0.4c0.3-0.6,1-1.3,2.1-2.1c1.1-0.7,2.5-1.4,4.5-2.1l0.5,1.5C229.9,159.9,229.2,160.6,228.6,161.2z
			 M182.7,439.7c-0.4-0.2-0.9-0.4-1.5-0.5c-0.6-0.1-1.3-0.1-2.2,0c0,0,0-0.1,0-0.2c0-0.1,0-0.1,0-0.2c-0.1-0.5-0.2-1-0.4-1.4
			c-0.1-0.5-0.2-1-0.4-1.4c0.4-0.3,0.8-0.7,1.2-1.1c0.4-0.4,0.7-0.9,0.9-1.3c0.4-0.8,0.7-1.6,0.8-2.4c0.1-0.9,0.1-1.7-0.1-2.5
			c-0.3-1.4-1-2.6-2-3.4c-1.1-0.9-2.5-1.3-4.2-1.1c-0.2,0-0.4,0.1-0.5,0.1c0-0.3-0.1-0.5-0.2-0.7c-0.2-0.5-0.5-0.8-1-1
			c-0.5-0.2-0.9-0.2-1.4,0.1c-1.2,0.5-2.2,1.2-3,2c-0.8,0.8-1.3,1.7-1.7,2.7c-0.4,0.9-0.5,1.9-0.5,2.9c0,1,0.2,1.9,0.5,2.8
			c0.7,1.7,1.8,3,3.3,3.9c1.4,0.7,2.9,0.9,4.4,0.7c0.1,0.4,0.2,0.8,0.3,1.2c0.1,0.4,0.2,0.8,0.3,1.2l0.3,1.2c-0.4,0.3-0.7,0.6-0.9,1
			c-0.3,0.3-0.5,0.7-0.7,1.1c-0.4,0.7-0.6,1.5-0.6,2.3c-0.1,0.8,0,1.5,0.3,2.2c0.3,0.7,0.6,1.2,1.1,1.7c0.5,0.5,1.1,0.9,1.7,1.1
			c1.4,0.5,2.9,0.5,4.6,0l0.2-0.1c1.6-0.6,2.7-1.6,3.5-3.2c0.3-0.7,0.6-1.4,0.6-2.2c0.1-0.8,0-1.5-0.2-2.2
			C184.7,441.3,183.8,440.3,182.7,439.7z M176.2,432.7c-0.4,0.3-0.8,0.6-1.3,0.8l-0.2,0.1c-0.6,0.2-1.1,0.3-1.6,0.2
			c-0.5-0.1-0.9-0.2-1.2-0.4c-0.4-0.2-0.7-0.5-0.9-0.8c-0.3-0.3-0.4-0.7-0.6-1c-0.2-0.5-0.3-1-0.3-1.5c0-0.5,0.1-1.1,0.3-1.6
			c0.2-0.5,0.5-1,1-1.5c0.4-0.5,1-0.9,1.7-1.2l0,0.2c0.1,0.5,0.3,0.9,0.7,1.2c0.4,0.3,0.8,0.5,1.3,0.4c0.8-0.1,1.4,0.1,1.7,0.4
			c0.3,0.4,0.5,0.8,0.6,1.2c0.1,0.4,0.1,0.8,0.1,1.2c-0.1,0.4-0.2,0.8-0.4,1.2C176.8,432.1,176.6,432.4,176.2,432.7z M181.4,445.4
			c-0.1,0.3-0.3,0.5-0.5,0.8c-0.2,0.3-0.6,0.5-1,0.6c-0.7,0.2-1.3,0.2-1.8,0.1c-0.5-0.1-0.8-0.4-1-0.8c-0.2-0.4-0.1-0.9,0.2-1.4
			c0.1-0.3,0.3-0.5,0.7-0.9c0.3-0.3,0.8-0.6,1.5-0.9c1.2-0.3,2,0,2.2,0.8C181.7,444.3,181.7,444.9,181.4,445.4z M374.2,246.3
			c-0.5,0-1,0.2-1.4,0.5c-0.4,0.4-0.6,0.8-0.6,1.3c0,0.4-0.1,0.8-0.3,1.1c-0.2,0.3-0.4,0.5-0.6,0.7c-0.3,0.3-0.7,0.6-1.1,0.8
			c-0.4,0.2-0.9,0.3-1.3,0.4c-0.3,0-0.6,0.1-1.1,0.1c-0.4,0-0.9-0.1-1.4-0.3c-0.5-0.2-1-0.6-1.5-1c-0.5-0.5-0.9-1.2-1.2-2.1
			c-0.6-1.7-0.8-3.3-0.4-4.8c0.2-0.6,0.4-1.1,0.7-1.5c0.3-0.4,0.6-0.7,1-0.9c0.4-0.2,0.8-0.3,1.2-0.2c0.4,0.1,0.8,0.3,1.1,0.5
			c0.3,0.2,0.6,0.5,0.9,0.8c0.3,0.3,0.5,0.6,0.6,0.8c0.3,0.4,0.7,0.7,1.3,0.8c0.5,0.1,1,0,1.4-0.3c0.4-0.3,0.7-0.7,0.8-1.2
			c0.1-0.5,0-1-0.3-1.4c-0.7-1-1.5-1.8-2.3-2.4c-0.8-0.6-1.6-0.9-2.3-1.1c-0.8-0.2-1.5-0.2-2.2-0.1c-0.7,0.1-1.4,0.3-1.9,0.6
			c-0.9,0.5-1.6,1.1-2.2,1.9c-0.6,0.8-1.1,1.8-1.4,2.9c-0.3,1.1-0.4,2.3-0.3,3.5c0.1,1.2,0.3,2.4,0.8,3.6c0.9,2.2,2.2,3.9,4,4.9
			c1.6,0.9,3.4,1.2,5.3,0.9c0.5-0.1,1-0.3,1.5-0.4c0.5-0.2,1.1-0.4,1.5-0.7c0.5-0.3,0.9-0.6,1.3-1c0.6-0.6,1.1-1.3,1.5-2.1
			c0.4-0.8,0.6-1.6,0.6-2.4c0-0.5-0.2-1-0.5-1.4C375.2,246.6,374.8,246.4,374.2,246.3z M257,150.5c-0.6-2-2.1-3.5-4.4-4.5
			c-0.9-0.4-1.8-0.6-2.7-0.8c-0.9-0.2-1.9-0.4-2.8-0.5c-0.7-0.1-1.4-0.2-2.1-0.3c-0.7-0.1-1.3-0.3-1.8-0.5c-0.4-0.1-0.6-0.3-0.7-0.4
			c-0.1-0.1-0.2-0.2-0.2-0.2c0-0.1,0-0.3,0.1-0.5c0.1-0.2,0.3-0.5,0.5-0.8c0.3-0.3,0.6-0.6,1-0.8c0.4-0.2,0.8-0.4,1.1-0.5
			c0.4-0.1,0.8-0.2,1.2-0.3c0.4-0.1,0.7,0,1,0c0.1,0,0.3,0.1,0.6,0.3c0.3,0.2,0.5,0.6,0.6,1.2c0.2,0.6,0.5,1.1,1.1,1.5
			c0.6,0.3,1.2,0.4,1.8,0.3c0.6-0.2,1.1-0.5,1.5-1.1c0.3-0.6,0.4-1.2,0.3-1.8c-0.3-1.3-0.9-2.4-1.6-3.2c-0.8-0.9-1.8-1.4-3-1.8
			c-1.5-0.4-3.1-0.3-4.9,0.4c-0.8,0.3-1.5,0.6-2.2,1c-0.7,0.4-1.3,0.9-1.8,1.5c-0.8,0.9-1.4,1.9-1.7,2.9c-0.3,1-0.3,2.1,0,3.1
			c0.5,1.6,1.8,2.8,3.9,3.6c0.7,0.3,1.5,0.5,2.3,0.6c0.8,0.1,1.6,0.3,2.4,0.4c0.7,0.1,1.4,0.2,2.1,0.4c0.7,0.1,1.3,0.3,1.9,0.5
			c0.6,0.2,1.1,0.4,1.5,0.7c0.4,0.3,0.7,0.6,0.8,0.9c0,0.1,0,0.2,0,0.3c0,0.1-0.2,0.3-0.4,0.6c-0.3,0.3-0.6,0.5-1,0.7
			c-0.4,0.2-0.8,0.4-1.3,0.6c-0.5,0.2-0.9,0.2-1.4,0.3c-0.5,0-1,0-1.4-0.1c-0.6-0.1-1.1-0.4-1.3-0.7c-0.2-0.3-0.4-0.6-0.5-0.9
			c-0.2-0.6-0.5-1.1-1.1-1.4c-0.6-0.3-1.2-0.4-1.8-0.2c-0.6,0.2-1.1,0.6-1.4,1.1c-0.3,0.6-0.4,1.2-0.2,1.8c0.4,1.3,1.1,2.4,2.1,3.3
			c0.8,0.7,1.8,1.3,3.1,1.6c1.7,0.4,3.4,0.3,5.3-0.2c0.1,0,0.3,0,0.4-0.1c0.1,0,0.2-0.1,0.4-0.1c1.5-0.5,2.7-1.3,3.7-2.4
			c0.8-0.8,1.3-1.7,1.6-2.6C257.3,152.4,257.3,151.5,257,150.5z M190.2,172.1c-0.7,0-1.2,0.2-1.7,0.6c-0.5,0.4-0.7,1-0.7,1.7
			c0,0.5-0.1,1-0.4,1.3c-0.2,0.4-0.5,0.7-0.8,0.9c-0.4,0.4-0.8,0.7-1.3,0.9c-0.5,0.3-1.1,0.4-1.6,0.5c-0.3,0.1-0.8,0.1-1.3,0.1
			c-0.5,0-1.1-0.1-1.7-0.4c-0.6-0.3-1.2-0.7-1.8-1.3c-0.6-0.6-1.1-1.4-1.5-2.6c-0.8-2.2-0.9-4.2-0.4-6c0.2-0.7,0.5-1.4,0.8-1.9
			c0.4-0.5,0.8-0.9,1.3-1.2c0.5-0.3,1-0.4,1.5-0.3c0.5,0.1,1,0.3,1.4,0.6c0.4,0.3,0.8,0.7,1.1,1c0.3,0.4,0.6,0.7,0.8,1
			c0.4,0.5,0.9,0.8,1.6,0.9c0.6,0.1,1.2,0,1.8-0.4c0.5-0.4,0.9-0.9,0.9-1.5c0.1-0.7,0-1.3-0.4-1.8c-0.9-1.3-1.9-2.3-2.8-3
			c-1-0.7-1.9-1.2-2.9-1.4c-1-0.3-1.9-0.3-2.8-0.2c-0.9,0.1-1.7,0.4-2.4,0.8c-1.1,0.6-2,1.4-2.7,2.4c-0.8,1.1-1.3,2.3-1.7,3.6
			c-0.4,1.4-0.5,2.9-0.4,4.4c0.1,1.5,0.4,3,1,4.5c1.1,2.8,2.7,4.8,5,6.1c2.1,1.1,4.3,1.5,6.6,1.1c0.7-0.1,1.3-0.3,1.9-0.6
			c0.7-0.3,1.3-0.6,1.9-0.9c0.6-0.4,1.1-0.8,1.6-1.3c0.8-0.8,1.4-1.6,1.9-2.6c0.5-1,0.7-1.9,0.7-3c0-0.7-0.2-1.2-0.6-1.7
			C191.5,172.3,190.9,172.1,190.2,172.1z M311.4,306.4c-0.4-0.3-0.9-0.4-1.4-0.3c-0.5,0.1-0.9,0.4-1.2,0.8c-0.3,0.4-0.4,0.9-0.3,1.4
			c0.2,1.1,0.3,2,0.4,2.8c0,0.8,0,1.5-0.1,2c-0.1,0.5-0.3,1-0.5,1.3c-0.2,0.3-0.4,0.5-0.6,0.6c-0.3,0.1-0.6,0-1-0.2
			c-0.4-0.2-0.9-0.7-1.3-1.3c-0.9-1.4-1.8-3.1-2.6-5c-0.8-1.9-1.6-3.8-2.2-5.7l7.1-3.7c0.5-0.2,0.8-0.6,0.9-1.1
			c0.2-0.5,0.1-1-0.1-1.5c-0.2-0.4-0.6-0.8-1.1-0.9c-0.5-0.2-1-0.1-1.4,0.1l-6.6,3.4c-0.1-0.4-0.3-0.8-0.4-1.2
			c-0.1-0.4-0.3-0.8-0.4-1.2c-0.3-0.8-0.5-1.6-0.8-2.3c-0.2-0.7-0.4-1.3-0.6-1.9c-0.2-0.5-0.5-0.9-1-1.1c-0.5-0.2-1-0.2-1.4-0.1
			c-0.5,0.2-0.9,0.5-1.1,1c-0.2,0.5-0.2,1,0,1.5c0.4,1.1,0.9,2.4,1.3,4l1,3.1l-0.4,0.2c-0.5,0.2-0.8,0.6-0.9,1.1
			c-0.2,0.5-0.1,1,0.1,1.4c0.2,0.5,0.6,0.8,1,0.9c0.4,0.2,0.9,0.2,1.4,0l0.1-0.1c0.7,2,1.5,3.9,2.3,5.8c0.8,1.9,1.7,3.6,2.7,5.1
			c0.9,1.4,1.9,2.3,3.1,2.9c1.3,0.6,2.5,0.7,3.8,0.2l0.1-0.1c0.7-0.3,1.4-0.8,2-1.5s1-1.5,1.2-2.5c0.5-2,0.5-4.3-0.1-6.9
			C312.1,307.1,311.8,306.7,311.4,306.4z M329.7,298.4c-1.2-2.2-2.6-3.7-4-4.4c-0.7-0.3-1.4-0.5-2.1-0.6c-0.7,0-1.4,0.1-2.1,0.3
			c-0.6,0.2-1.3,0.6-2,1.2c-0.7,0.6-1.2,1.5-1.6,2.6l-4-11.3c-0.2-0.5-0.5-0.9-1-1.1c-0.5-0.2-1-0.3-1.4-0.1c-0.5,0.2-0.9,0.5-1.1,1
			c-0.2,0.5-0.3,1-0.1,1.5c0.3,0.9,0.7,2,1.2,3.4c0.5,1.3,1,2.8,1.6,4.4c0.6,1.6,1.1,3.2,1.7,4.9c0.6,1.7,1.2,3.3,1.7,4.9
			c0.6,1.6,1.1,3,1.5,4.3c0.5,1.3,0.8,2.4,1.1,3.3c0.2,0.5,0.5,0.8,0.9,1.1c0.5,0.2,1,0.3,1.4,0.1c0.5-0.2,0.8-0.5,1.1-0.9
			c0.2-0.5,0.3-0.9,0.2-1.4c-0.6-2.1-1.1-4-1.4-5.8c-0.3-1.8-0.4-3.3-0.3-4.6c0-0.4,0.1-0.8,0.1-1.2c0.1-0.4,0.2-0.8,0.3-1.2
			c0.1-0.4,0.3-0.7,0.5-1c0.2-0.3,0.5-0.5,0.8-0.6c0.4-0.2,0.8-0.1,1.2,0c0.3,0.1,0.6,0.4,1.1,0.9c0.4,0.4,0.9,1.2,1.5,2.2
			c0.5,1,1,2.2,1.6,3.6c0.5,1.4,1.1,3,1.6,4.8c0.1,0.5,0.4,0.9,0.9,1.1c0.5,0.2,1,0.3,1.5,0.2l0.1,0c0.5-0.2,0.8-0.5,1-0.9
			c0.2-0.4,0.3-0.9,0.1-1.4C332.1,303.7,330.9,300.6,329.7,298.4z M335.3,256.6c0.4,0.2,0.9,0.1,1.3,0c0,0,0.1,0,0.2-0.1
			c0.1,0,0.1-0.1,0.2-0.1c0.4-0.3,0.7-0.7,0.9-1.2c0.1-0.5,0.1-1-0.2-1.4c-1.1-1.8-2.2-3-3.4-3.7c-1.4-0.8-2.9-0.9-4.3-0.3
			c-0.6,0.2-1.2,0.6-1.8,1.1c-0.6,0.5-1.1,1.3-1.5,2.3l0-0.1c-0.2-0.5-0.5-0.8-0.9-1.1c-0.5-0.2-1-0.3-1.5-0.1
			c-0.5,0.2-0.8,0.5-1.1,1c-0.2,0.5-0.2,1-0.1,1.5c0.6,1.6,1.1,3.1,1.6,4.5c0.5,1.4,0.9,2.9,1.4,4.3l1.9,5.5
			c0.2,0.5,0.5,0.8,0.9,1.1c0.5,0.2,1,0.3,1.4,0.1l0.1,0c0.5-0.2,0.8-0.5,1-0.9c0.2-0.4,0.3-0.9,0.1-1.4c-0.6-2.1-1.1-4-1.4-5.8
			c-0.3-1.8-0.4-3.3-0.4-4.6c0-0.3,0-0.6,0.1-1c0.1-0.4,0.1-0.8,0.2-1.1c0.1-0.4,0.3-0.7,0.4-1c0.2-0.3,0.4-0.5,0.7-0.6
			c0.4-0.1,0.8-0.1,1.1,0.1c0.2,0.1,0.5,0.4,0.8,0.7c0.3,0.3,0.7,0.9,1.2,1.6C334.5,256.1,334.9,256.4,335.3,256.6z M390.3,236.3
			c-0.4-0.3-0.9-0.4-1.4-0.3c-0.5,0.1-0.9,0.4-1.2,0.8c-0.3,0.4-0.4,0.9-0.3,1.4c0.2,1.1,0.3,2,0.4,2.8c0,0.8,0,1.5-0.1,2
			c-0.1,0.5-0.3,1-0.5,1.3c-0.2,0.3-0.4,0.5-0.6,0.6c-0.3,0.1-0.6,0-1-0.2c-0.4-0.2-0.9-0.7-1.3-1.3c-0.9-1.4-1.8-3.1-2.6-5
			c-0.8-1.9-1.6-3.8-2.2-5.7l7.1-3.7c0.5-0.2,0.8-0.6,0.9-1.1c0.2-0.5,0.1-1-0.1-1.5c-0.2-0.4-0.6-0.8-1.1-0.9
			c-0.5-0.2-1-0.1-1.4,0.1l-6.6,3.4c-0.1-0.4-0.3-0.8-0.4-1.2c-0.1-0.4-0.3-0.8-0.4-1.2c-0.3-0.8-0.5-1.6-0.8-2.3
			c-0.2-0.7-0.4-1.3-0.6-1.9c-0.2-0.5-0.5-0.9-1-1.1c-0.5-0.2-1-0.2-1.4-0.1c-0.5,0.2-0.9,0.5-1.1,1c-0.2,0.5-0.2,1-0.1,1.5
			c0.4,1.1,0.9,2.4,1.3,4l1,3.1l-0.4,0.2c-0.5,0.2-0.8,0.6-0.9,1.1c-0.2,0.5-0.1,1,0.1,1.4c0.2,0.5,0.6,0.8,1,0.9
			c0.4,0.2,0.9,0.2,1.4,0l0.1-0.1c0.7,2,1.5,3.9,2.3,5.8c0.8,1.9,1.7,3.6,2.7,5.1c0.9,1.4,1.9,2.3,3.1,2.9c1.3,0.6,2.5,0.7,3.8,0.2
			l0.1-0.1c0.7-0.3,1.4-0.8,2-1.5c0.6-0.7,1-1.5,1.2-2.5c0.5-2,0.5-4.3-0.1-6.9C391,237,390.7,236.6,390.3,236.3z M291.5,308.6
			c-0.5-1.3-1.2-2.5-2-3.5c-0.5-0.6-0.9-1.1-1.4-1.5c-0.5-0.4-1-0.8-1.6-1.1c-1.2-0.7-2.5-1-4-1c-0.5,0-1,0.2-1.3,0.6
			c-0.3,0.4-0.5,0.8-0.5,1.4c0,0.5,0.2,1,0.5,1.4c0.4,0.4,0.8,0.5,1.4,0.5c1.4,0,2.7,0.7,3.9,2.2c0.6,0.8,1.1,1.6,1.5,2.7
			c0.4,1,0.7,2.1,0.9,3.2c0.1,1,0.2,2,0.2,3c0,1-0.2,2-0.5,2.9c-0.3,0.9-0.7,1.7-1.2,2.4c-0.5,0.7-1.2,1.2-2,1.5l-0.2,0.1
			c-1,0.3-1.9,0.3-2.9,0.1c-0.9-0.3-1.7-0.7-2.5-1.3c-0.8-0.6-1.4-1.4-2.1-2.3c-0.6-0.9-1.1-1.9-1.5-2.9c-0.5-1.3-0.8-2.6-1-4
			c-0.2-1.4-0.1-2.7,0.1-4c0.2-1.3,0.7-2.4,1.4-3.4c0.7-1,1.7-1.8,2.9-2.4c0.5-0.2,0.8-0.6,1-1.1c0.2-0.5,0.2-1-0.1-1.5
			c-0.2-0.5-0.6-0.8-1.1-1c-0.5-0.2-1-0.2-1.4,0.1c-1.7,0.9-3.2,2-4.3,3.5c-1,1.4-1.7,3-2.1,4.8c-0.2,0.8-0.3,1.7-0.3,2.5
			c0,0.9,0,1.8,0.1,2.7c0.1,1.7,0.5,3.4,1.2,5.1c0.6,1.5,1.3,2.9,2.2,4.1c0.9,1.2,1.9,2.2,3,3c1.2,0.9,2.5,1.5,3.9,1.8
			c1.5,0.3,3,0.2,4.5-0.2c0.1,0,0.3-0.1,0.5-0.1c1.1-0.4,2.2-1.1,3.1-2.1c0.9-0.9,1.6-2.1,2.1-3.5c0.5-1.2,0.7-2.5,0.8-4
			c0.1-1.4,0-2.9-0.2-4.4C292.4,311.3,292.1,309.9,291.5,308.6z M107.4,415.6c0.5,1.4,0.9,2.8,1.4,4.2l1.8,5.4
			c0.1,0.5,0.5,0.8,0.9,1c0.5,0.2,0.9,0.3,1.4,0.1l0,0c0.5-0.2,0.8-0.5,1-0.9c0.2-0.5,0.2-0.9,0.1-1.4l-1.8-5.3
			c-0.5-1.4-0.9-2.8-1.4-4.2c-0.5-1.4-1-2.9-1.6-4.5c-0.1-0.5-0.5-0.8-0.9-1c-0.5-0.2-0.9-0.2-1.4-0.1c-0.5,0.2-0.8,0.5-1,1
			c-0.2,0.5-0.2,0.9-0.1,1.4C106.4,412.7,106.9,414.2,107.4,415.6z M273.2,289.3c0.9-1,1.7-2,2.3-3.2c0.6-1.2,1.1-2.5,1.5-3.8
			c0.3-1.4,0.5-2.8,0.5-4.2c0-1.4-0.2-2.8-0.6-4.1c-0.4-1.4-0.9-2.7-1.6-3.9c-0.7-1.2-1.6-2.2-2.6-3c-0.5-0.4-1-0.7-1.5-1
			c-0.5-0.3-1.1-0.6-1.6-0.8c-1.2-0.5-2.5-0.7-3.8-0.7c-2.8-0.1-5.8,0.6-9.2,2.1c-0.5,0.2-0.8,0.6-1,1.1c-0.2,0.5-0.2,1,0.1,1.4
			c0.2,0.5,0.6,0.8,1.1,1c0.5,0.2,1,0.2,1.5-0.1c2.5-1.2,4.8-1.8,6.8-1.8c2,0,3.8,0.6,5.2,1.7c0.7,0.6,1.4,1.3,1.9,2.1
			c0.5,0.8,0.9,1.7,1.2,2.7c0.3,1,0.4,2,0.4,3.1c0,1.1-0.1,2.2-0.4,3.3c-0.1,0.5-0.4,1.2-0.7,2c-0.3,0.8-0.8,1.6-1.5,2.5
			c-0.6,0.8-1.5,1.6-2.5,2.3c-1,0.7-2.3,1.2-3.8,1.5c-0.5,0.1-0.9,0.4-1.2,0.8c-0.3,0.4-0.4,0.9-0.3,1.4c0.1,0.5,0.4,0.9,0.8,1.2
			c0.4,0.3,0.9,0.4,1.5,0.3c0.4-0.1,0.7-0.2,1.1-0.3s0.7-0.2,1.1-0.4c0.4-0.1,0.7-0.3,1-0.4c0.3-0.2,0.7-0.3,1-0.5
			c0.6-0.3,1.2-0.7,1.7-1.2C272.2,290.3,272.7,289.8,273.2,289.3z M264.1,289.2c0.5,0.2,1,0.3,1.5,0.1l0.1,0c0.5-0.2,0.8-0.5,1-1
			c0.2-0.5,0.3-0.9,0.1-1.4c-0.6-1.9-1.4-4.2-2.3-6.8c-0.9-2.6-1.9-5.6-3.1-8.9c-0.2-0.5-0.5-0.9-0.9-1.1c-0.5-0.2-1-0.2-1.5-0.1
			l0,0c-0.5,0.2-0.8,0.5-1,1c-0.2,0.5-0.3,1-0.1,1.4c1.2,3.3,2.2,6.3,3.1,8.9c0.9,2.6,1.6,4.9,2.3,6.8
			C263.3,288.6,263.6,289,264.1,289.2z M80.2,419.2c-0.2,0.5-0.2,0.9-0.1,1.4c0.6,1.5,1.1,3,1.5,4.4c0.5,1.4,0.9,2.8,1.4,4.2
			l1.8,5.4c0.1,0.5,0.5,0.8,0.9,1c0.5,0.2,0.9,0.3,1.4,0.1l0,0c0.5-0.2,0.8-0.5,1-0.9c0.2-0.5,0.2-0.9,0.1-1.4l-1.8-5.3
			c-0.5-1.4-0.9-2.8-1.4-4.2c-0.5-1.4-1-2.9-1.6-4.5c-0.1-0.5-0.5-0.8-0.9-1c-0.5-0.2-0.9-0.2-1.4-0.1
			C80.7,418.5,80.4,418.8,80.2,419.2z M78.7,415.1c0.5,0.2,0.9,0.2,1.4,0c0.5-0.2,0.8-0.5,1-1c0.2-0.5,0.2-0.9,0-1.4
			c-0.2-0.5-0.5-0.8-1-1c-0.5-0.2-0.9-0.2-1.4,0c-0.5,0.2-0.8,0.5-1,1c-0.2,0.5-0.2,0.9,0,1.4C78,414.6,78.3,414.9,78.7,415.1z
			 M349.1,297c-0.5,0-1,0.1-1.4,0.5c-0.4,0.3-0.6,0.8-0.6,1.3c0,0.7-0.3,1.3-0.9,1.8c-0.6,0.5-1.4,0.9-2.3,1c-0.2,0-0.4,0.1-0.7,0.1
			c-0.3,0-0.6,0-1-0.1c-0.4-0.1-0.7-0.2-1.1-0.4c-0.4-0.2-0.8-0.5-1.2-0.8c1-0.2,1.9-0.6,2.7-1c0.8-0.4,1.4-0.8,1.9-1.3
			c0.5-0.4,1-0.9,1.3-1.3c0.4-0.4,0.6-0.8,0.8-1.2c0.3-0.5,0.5-1,0.6-1.5c0.1-0.5,0.2-1.1,0.3-1.6c0.1-1-0.1-2-0.5-2.8
			c-0.4-0.7-0.9-1.3-1.5-1.8s-1.3-0.8-2.1-1c-1.4-0.4-2.9-0.2-4.3,0.4c-1,0.4-1.8,1.1-2.5,1.8c-0.7,0.8-1.3,1.7-1.7,2.7
			c-0.2,0.4-0.3,0.9-0.4,1.4c-0.1,0.5-0.2,1.1-0.2,1.7c0,0.6,0,1.3,0.1,2.1c0.1,0.8,0.3,1.6,0.7,2.4l0.1,0.2c0.9,2.2,2.2,3.8,4,4.8
			c1.7,0.9,3.5,1.2,5.4,0.9c0.3,0,0.5-0.1,0.8-0.2c0.3-0.1,0.5-0.2,0.8-0.2c1-0.4,1.9-0.9,2.7-1.7c1.3-1.3,2-2.7,2.1-4.4
			c0-0.5-0.1-1-0.5-1.4C350.1,297.2,349.7,297,349.1,297z M338.3,296.9c-0.3-1.4-0.2-2.6,0.2-3.6c0.4-1.2,1.2-2,2.3-2.5
			c0.1,0,0.3-0.1,0.5-0.2c0.2-0.1,0.5-0.1,0.8-0.1c0.3,0,0.6,0.1,0.9,0.2c0.3,0.1,0.6,0.4,0.8,0.8c0.1,0.1,0.1,0.4,0.1,0.8
			c0,0.4-0.2,0.9-0.5,1.5c-0.1,0.2-0.3,0.5-0.6,0.8c-0.2,0.3-0.6,0.6-1,0.9c-0.4,0.3-0.9,0.6-1.5,0.8
			C339.8,296.5,339.1,296.7,338.3,296.9z M161.6,433.5c-1.2-2.1-2.5-3.6-3.9-4.3c-0.6-0.3-1.3-0.5-2-0.6c-0.7,0-1.4,0.1-2.1,0.3
			c-0.6,0.2-1.2,0.6-1.8,1.1c-0.6,0.5-1.1,1.3-1.5,2.4l-0.1-0.2c-0.2-0.5-0.5-0.8-1-1.1c-0.5-0.2-0.9-0.2-1.4-0.1
			c-0.5,0.2-0.8,0.5-1.1,1c-0.2,0.5-0.2,0.9-0.1,1.4c0.6,1.6,1.1,3.1,1.5,4.4c0.5,1.4,0.9,2.8,1.4,4.2c0.3,0.9,0.6,1.7,0.8,2.6
			c0.3,0.9,0.6,1.8,0.9,2.8c0.1,0.5,0.5,0.8,0.9,1c0.5,0.2,0.9,0.3,1.4,0.1c0.5-0.1,0.8-0.4,1-0.9c0.2-0.5,0.3-0.9,0.2-1.4
			c-0.6-2-1.1-3.9-1.3-5.6c-0.3-1.7-0.4-3.2-0.3-4.5c0-0.4,0.1-0.8,0.1-1.2c0.1-0.4,0.2-0.8,0.3-1.1c0.1-0.3,0.3-0.7,0.5-0.9
			c0.2-0.3,0.5-0.5,0.8-0.6c0.4-0.2,0.8-0.1,1.2,0c0.3,0.1,0.6,0.4,1,0.8c0.4,0.4,0.9,1.1,1.4,2.1c0.5,0.9,1,2.1,1.5,3.4
			c0.5,1.4,1,2.9,1.6,4.7c0.1,0.5,0.4,0.8,0.9,1.1c0.5,0.2,0.9,0.3,1.4,0.2l0.1,0c0.5-0.2,0.8-0.5,1-0.9c0.2-0.4,0.2-0.9,0.1-1.4
			C164,438.6,162.8,435.6,161.6,433.5z M106.9,404.7c0.2-0.5,0.2-0.9,0-1.4c-0.2-0.5-0.5-0.8-1-1c-0.5-0.2-0.9-0.2-1.4,0
			c-0.5,0.2-0.8,0.5-1,1c-0.2,0.5-0.2,0.9,0,1.4c0.2,0.5,0.5,0.8,1,1c0.5,0.2,0.9,0.2,1.4,0C106.4,405.5,106.7,405.2,106.9,404.7z
			 M93.2,444.4c-0.5-0.2-0.9-0.2-1.4,0c-0.5,0.2-0.8,0.5-1,1c-0.2,0.5-0.2,0.9,0,1.4c0.2,0.5,0.5,0.8,1,1c0.5,0.2,0.9,0.2,1.4,0
			c0.5-0.2,0.8-0.5,1-1c0.2-0.5,0.2-0.9,0-1.4C93.9,445,93.6,444.6,93.2,444.4z M66.5,455.2c0.5-0.2,0.8-0.5,1-1s0.2-0.9,0-1.4
			c-0.2-0.5-0.5-0.8-1-1c-0.5-0.2-0.9-0.2-1.4,0c-1.1,0.5-2.3,0.9-3.5,1.4c-1.2,0.5-2.4,0.9-3.7,1.4c-0.2,0-0.4,0-0.7,0.1
			c-0.3,0.1-0.5,0.2-0.6,0.4c-1.1,0.4-2.2,0.8-3.4,1.2c-1.2,0.4-2.4,0.8-3.6,1.2c-0.5,0.1-0.8,0.4-1,0.9c-0.2,0.5-0.3,0.9-0.1,1.4
			c0.2,0.5,0.5,0.9,0.9,1.1c0.5,0.2,0.9,0.3,1.4,0.1c1.1-0.3,2.1-0.7,3.1-1c1-0.4,2-0.7,3-1c0.3,1,0.7,2,1.1,3.2
			c0.4,1.2,0.9,2.5,1.3,3.8s0.9,2.6,1.4,4c0.5,1.3,0.9,2.6,1.3,3.8c0.4,1.2,0.8,2.3,1.1,3.4c0.4,1,0.6,1.9,0.9,2.6
			c0.2,0.5,0.5,0.9,0.9,1.1c0.5,0.2,0.9,0.3,1.4,0.1l0.1,0c0.5-0.2,0.8-0.5,1-0.9c0.2-0.4,0.2-0.9,0.1-1.4c-0.2-0.7-0.5-1.5-0.9-2.6
			c-0.4-1-0.7-2.2-1.2-3.4c-0.4-1.2-0.9-2.5-1.3-3.9c-0.5-1.3-0.9-2.7-1.4-4c-0.5-1.3-0.9-2.6-1.3-3.8c-0.4-1.2-0.8-2.3-1.1-3.3
			c1.1-0.4,2.1-0.8,3.2-1.2C64.5,456,65.5,455.6,66.5,455.2z M87.3,410.5l1,3l-0.4,0.2c-0.4,0.2-0.7,0.6-0.9,1.1
			c-0.1,0.5-0.1,1,0.1,1.4c0.2,0.4,0.5,0.7,1,0.9c0.4,0.2,0.9,0.1,1.3,0l0.1-0.1c0.7,1.9,1.4,3.8,2.2,5.6c0.8,1.8,1.7,3.5,2.6,5
			c0.9,1.3,1.9,2.3,3,2.8c1.2,0.6,2.4,0.7,3.7,0.2l0.1-0.1c0.7-0.3,1.4-0.8,1.9-1.5c0.5-0.7,0.9-1.5,1.2-2.4
			c0.5-1.9,0.5-4.1-0.1-6.7c-0.1-0.5-0.4-0.9-0.8-1.2c-0.4-0.3-0.9-0.4-1.4-0.3c-0.5,0.1-0.9,0.4-1.2,0.8c-0.3,0.4-0.4,0.9-0.3,1.4
			c0.2,1,0.3,1.9,0.4,2.7c0,0.8,0,1.4-0.1,1.9c-0.1,0.5-0.3,0.9-0.4,1.2c-0.2,0.3-0.4,0.5-0.6,0.6c-0.3,0.1-0.6,0-1-0.2
			c-0.4-0.2-0.8-0.7-1.2-1.3c-0.9-1.4-1.7-3-2.5-4.8c-0.8-1.8-1.5-3.6-2.2-5.5l6.9-3.6c0.4-0.2,0.7-0.6,0.9-1.1
			c0.1-0.5,0.1-1-0.1-1.4c-0.2-0.4-0.6-0.7-1.1-0.9c-0.5-0.2-1-0.1-1.4,0.1l-6.4,3.3c-0.1-0.4-0.3-0.8-0.4-1.2
			c-0.1-0.4-0.3-0.8-0.4-1.2c-0.3-0.8-0.5-1.5-0.7-2.2c-0.2-0.7-0.4-1.3-0.6-1.8c-0.2-0.5-0.5-0.8-1-1c-0.5-0.2-0.9-0.2-1.4-0.1
			c-0.5,0.2-0.8,0.5-1,1c-0.2,0.5-0.2,0.9,0,1.4C86.4,407.7,86.8,409,87.3,410.5z M138.1,450.6c-1.4-0.1-2.9-0.2-4.7-0.3
			c-1.8-0.1-3.6-0.4-5.5-0.7c0-0.1,0.1-0.2,0.2-0.3c0.1-0.1,0.1-0.2,0.2-0.2c0.8-1.2,1.6-2.6,2.4-4c0.8-1.4,1.6-3.2,2.3-5.2
			c0.2-0.5,0.1-1-0.1-1.4c-0.2-0.4-0.6-0.8-1.1-0.9c-0.5-0.2-0.9-0.1-1.4,0.1c-0.5,0.2-0.8,0.6-0.9,1.1c-0.6,1.8-1.3,3.4-2.1,4.7
			c-0.7,1.3-1.5,2.5-2.2,3.7c-0.1,0.1-0.1,0.2-0.2,0.3c-0.1,0.1-0.1,0.2-0.2,0.3c-0.5-1.5-1-3-1.6-4.5c-0.5-1.5-1.1-3-1.6-4.4
			c-0.5-1.4-1-2.7-1.4-3.9c-0.4-1.2-0.8-2.2-1.1-3c-0.2-0.5-0.5-0.8-0.9-1.1c-0.5-0.2-0.9-0.2-1.4-0.1c-0.5,0.2-0.8,0.5-1,1
			c-0.2,0.5-0.2,0.9-0.1,1.4c0.3,0.9,0.7,2,1.2,3.3c0.5,1.3,1,2.7,1.5,4.3c0.5,1.5,1.1,3.1,1.7,4.8c0.6,1.6,1.1,3.2,1.7,4.8
			c0.5,1.5,1,2.9,1.5,4.2c0.4,1.3,0.8,2.3,1.1,3.2c0.2,0.5,0.5,0.8,0.9,1c0.5,0.2,0.9,0.3,1.4,0.1l0,0c0.5-0.2,0.8-0.5,1-0.9
			c0.2-0.5,0.2-0.9,0.1-1.4c-0.1-0.4-0.3-0.9-0.5-1.4c-0.2-0.5-0.4-1.1-0.6-1.8c2.1,0.4,4.1,0.7,6.1,0.9c2,0.2,3.8,0.3,5.3,0.3
			c0.2,0,0.5,0,0.7-0.1c0.3-0.1,0.6-0.3,0.9-0.7c0.2-0.3,0.4-0.6,0.4-1c0-0.5-0.1-0.9-0.5-1.3C139.1,450.8,138.6,450.6,138.1,450.6z
			 M71.7,440.9c0.2-0.4,0.2-0.9,0.1-1.4c-0.6-2-1.1-3.9-1.4-5.6c-0.3-1.7-0.4-3.2-0.4-4.5c0-0.3,0-0.6,0.1-1
			c0.1-0.4,0.1-0.8,0.2-1.1c0.1-0.4,0.2-0.7,0.4-1c0.2-0.3,0.4-0.5,0.7-0.6c0.4-0.1,0.7-0.1,1.1,0.1c0.2,0.1,0.5,0.4,0.8,0.7
			c0.3,0.3,0.7,0.9,1.1,1.6c0.2,0.4,0.6,0.7,1,0.8c0.4,0.1,0.8,0.1,1.3,0c0,0,0.1,0,0.1-0.1c0.1,0,0.1-0.1,0.1-0.1
			c0.4-0.3,0.7-0.6,0.8-1.1c0.1-0.5,0.1-1-0.2-1.4c-1-1.7-2.1-2.9-3.3-3.6c-1.4-0.7-2.8-0.9-4.2-0.3c-0.6,0.2-1.1,0.6-1.7,1
			c-0.6,0.5-1.1,1.2-1.5,2.2l0-0.1c-0.1-0.5-0.5-0.8-0.9-1c-0.5-0.2-0.9-0.2-1.4-0.1c-0.5,0.2-0.8,0.5-1,0.9
			c-0.2,0.5-0.2,0.9-0.1,1.4c0.6,1.5,1.1,3,1.5,4.4c0.5,1.4,0.9,2.8,1.4,4.2l1.8,5.4c0.1,0.5,0.5,0.8,0.9,1c0.5,0.2,0.9,0.3,1.4,0.1
			l0.1,0C71.2,441.7,71.5,441.4,71.7,440.9z M115.9,450.3c-1.2-2.1-2.5-3.6-3.9-4.3c-0.6-0.3-1.3-0.5-2-0.6c-0.7,0-1.4,0.1-2.1,0.3
			c-0.6,0.2-1.2,0.6-1.8,1.1c-0.6,0.5-1.1,1.3-1.5,2.4l-0.1-0.2c-0.2-0.5-0.5-0.8-1-1.1c-0.5-0.2-0.9-0.2-1.4-0.1
			c-0.5,0.2-0.8,0.5-1.1,1c-0.2,0.5-0.2,0.9-0.1,1.4c0.6,1.6,1.1,3.1,1.5,4.4c0.5,1.4,0.9,2.8,1.4,4.2c0.3,0.9,0.6,1.7,0.8,2.6
			c0.3,0.9,0.6,1.8,0.9,2.8c0.1,0.5,0.5,0.8,0.9,1c0.5,0.2,0.9,0.3,1.4,0.1c0.5-0.1,0.8-0.4,1-0.9c0.2-0.5,0.3-0.9,0.2-1.4
			c-0.6-2-1.1-3.9-1.3-5.6c-0.3-1.7-0.4-3.2-0.3-4.5c0-0.4,0.1-0.8,0.1-1.2c0.1-0.4,0.2-0.8,0.3-1.1c0.1-0.3,0.3-0.7,0.5-0.9
			c0.2-0.3,0.5-0.5,0.8-0.6c0.4-0.2,0.8-0.1,1.2,0c0.3,0.1,0.6,0.4,1,0.8c0.4,0.4,0.9,1.1,1.4,2.1c0.5,0.9,1,2.1,1.5,3.4
			c0.5,1.4,1,2.9,1.6,4.7c0.1,0.5,0.4,0.8,0.9,1.1c0.5,0.2,0.9,0.3,1.4,0.2l0.1,0c0.5-0.2,0.8-0.5,1-0.9c0.2-0.4,0.2-0.9,0.1-1.4
			C118.3,455.5,117.1,452.5,115.9,450.3z M145.1,443.9c-0.5-1.4-0.9-2.8-1.4-4.2c-0.5-1.4-1-2.9-1.6-4.5c-0.1-0.5-0.5-0.8-0.9-1
			c-0.5-0.2-0.9-0.2-1.4-0.1c-0.5,0.2-0.8,0.5-1,1c-0.2,0.5-0.2,0.9-0.1,1.4c0.6,1.5,1.1,3,1.5,4.4c0.5,1.4,0.9,2.8,1.4,4.2l1.8,5.4
			c0.1,0.5,0.5,0.8,0.9,1c0.5,0.2,0.9,0.3,1.4,0.1l0,0c0.5-0.2,0.8-0.5,1-0.9c0.2-0.5,0.2-0.9,0.1-1.4L145.1,443.9z M90.1,459.8
			c-1.2-2.1-2.5-3.6-3.9-4.3c-0.6-0.3-1.3-0.5-2-0.6c-0.7,0-1.4,0.1-2.1,0.3c-0.6,0.2-1.3,0.6-1.9,1.2c-0.6,0.6-1.2,1.4-1.6,2.6
			l-3.9-10.9c-0.2-0.5-0.5-0.8-1-1.1c-0.5-0.2-0.9-0.2-1.4-0.1c-0.5,0.2-0.8,0.5-1.1,1c-0.2,0.5-0.2,0.9-0.1,1.4
			c0.3,0.9,0.7,2,1.2,3.3c0.5,1.3,1,2.7,1.5,4.3c0.5,1.5,1.1,3.1,1.7,4.8c0.6,1.6,1.1,3.2,1.7,4.7c0.5,1.5,1,2.9,1.5,4.2
			c0.4,1.3,0.8,2.3,1.1,3.2c0.1,0.5,0.5,0.8,0.9,1c0.5,0.2,0.9,0.3,1.4,0.1c0.5-0.1,0.8-0.4,1-0.9c0.2-0.5,0.3-0.9,0.2-1.4
			c-0.6-2-1.1-3.9-1.3-5.6c-0.3-1.7-0.4-3.2-0.3-4.5c0-0.4,0.1-0.8,0.1-1.2c0.1-0.4,0.2-0.8,0.3-1.1c0.1-0.3,0.3-0.7,0.5-0.9
			c0.2-0.3,0.5-0.5,0.8-0.6c0.4-0.2,0.8-0.1,1.2,0c0.3,0.1,0.6,0.4,1,0.8c0.4,0.4,0.9,1.1,1.4,2.1c0.5,0.9,1,2.1,1.5,3.4
			c0.5,1.4,1,2.9,1.6,4.7c0.1,0.5,0.4,0.8,0.9,1.1c0.5,0.2,0.9,0.3,1.4,0.2l0.1,0c0.5-0.2,0.8-0.5,1-0.9c0.2-0.4,0.2-0.9,0.1-1.4
			C92.5,465,91.3,462,90.1,459.8z M99.4,460.7c-0.5-1.4-0.9-2.8-1.4-4.2c-0.5-1.4-1-2.9-1.6-4.5c-0.1-0.5-0.5-0.8-0.9-1
			c-0.5-0.2-0.9-0.2-1.4-0.1c-0.5,0.2-0.8,0.5-1,1c-0.2,0.5-0.2,0.9-0.1,1.4c0.6,1.5,1.1,3,1.5,4.4c0.5,1.4,0.9,2.8,1.4,4.2l1.8,5.4
			c0.1,0.5,0.5,0.8,0.9,1c0.5,0.2,0.9,0.3,1.4,0.1l0,0c0.5-0.2,0.8-0.5,1-0.9c0.2-0.5,0.2-0.9,0.1-1.4L99.4,460.7z"/>
	</g>
</g>
</svg>
