<?xml version="1.0" encoding="utf-8"?>
<!-- Generator: Adobe Illustrator 21.0.0, SVG Export Plug-In . SVG Version: 6.00 Build 0)  -->
<svg version="1.1" id="Слой_1" xmlns="http://www.w3.org/2000/svg" xmlns:xlink="http://www.w3.org/1999/xlink" x="0px" y="0px"
	 viewBox="0 0 1000 1000" style="enable-background:new 0 0 1000 1000;" xml:space="preserve">
<g>
	<g>
		<path d="M886.9,768.8c-1.1-4.1-2.6-8.1-4.2-12.1c-3-7.6-3.9-15.2-3-23.5c1.1-9.5,1.3-19.2,1-28.8c-0.4-16-8.3-27.2-23-33.5
			c-6.9-2.9-14-5.2-21.4-6.5c-8.4-1.5-16.8-3-25.1-4.8c-19.9-4.4-38.9-11.2-57.4-19.8c-24.2-11.3-48.9-21.3-75-27.5
			c-8.8-2.1-17.7-3.8-26.6-5.5c-13.6-2.7-25.1-8.8-33.8-19.8c-7-8.8-14-17.5-20.9-26.3c-2.7-3.4-4.8-7-6.2-11.1
			c-1.1-3.2-1-6.2-0.1-9.4c1.2-4.2,3.6-7.7,6-11.3c6.5-9.6,9.2-20.3,9.8-31.7c0.2-3.7-0.1-7.5,0.4-11.2c0.5-3.6,1.1-7.6,3-10.6
			c5.9-9.2,8.4-19.6,10.8-30c3.7-15.6,7.8-31,13.6-46c3.3-8.5,5.2-17.3,6.1-26.4c1.6-17.6,2.8-35.1,2.7-52.8c0-4.3,0-8.6-0.6-12.8
			c-2.5-15.8-5.3-31.6-8.1-47.3c-0.4-2.1-0.7-4.2-1.3-6.3c-3.4-12-9-22.7-18.3-31.4c-18.3-17.2-38.1-32.7-58-48
			c-8.5-6.6-18.2-11.1-29.1-12.6c-3.8-0.5-7.3-1.5-10.6-3.4c-6.2-3.4-12.2-3.2-18.2,0.4c-0.9,0.5-1.9,1-2.9,1.4
			c-2.7,1.1-5.3,0.6-7.5-1.3c-2.1-1.7-3.9-3.6-5.9-5.4c-4.6-4.2-10.1-5.8-16.2-5.5c-3.2,0.2-6.4,0.5-9.5,1.3
			c-8.8,2.3-17.4,5.1-25.5,9.3c-12.6,6.4-23.2,15.3-30.5,27.5c-9.9,16.5-21,32.1-32.8,47.4c-11.5,15-19.6,31.7-24.3,50.1
			c-4.7,18.7-7.7,37.6-10.8,56.6c-0.9,5.3-0.4,10.6,0.8,15.9c1.5,6.8,3.6,13.4,7.1,19.5c3,5.2,4.1,11,3.6,17
			c-0.2,2.1-0.2,4.3-0.4,6.4c-0.9,8.1,0.7,15.8,3.6,23.5c5.7,14.9,11,30.1,16.4,45.1c3.3,9.1,5.8,18.2,6.7,27.9
			c0.6,6.3,2.1,12.7,4.1,18.7c1.8,5.5,4.9,10.6,7.3,16c2.9,6.5,2.2,12.6-2.8,17.8c-5.6,5.7-11.5,11.2-17.3,16.7
			c-5.3,4.9-11.4,7.4-18.8,7.5c-16.7,0.3-32.7,4.4-48.1,10.8c-7.4,3.1-14.7,6.3-22,9.6c-24.6,11.1-50.3,17.4-77.4,17.8
			c-4.3,0.1-8.5,0.2-12.8,0.5c-15.5,1.2-30.8,3.2-45.4,9c-4.5,1.8-8.9,3.7-13.1,6c-7.9,4.3-13.2,10.7-14.9,19.8
			c-0.6,3.1-1.3,6.3-1.9,9.4c-4,21-9.1,41.7-19.9,60.5c-1.5,2.7-2.2,6-2.6,9.1c-1.3,8.6-4.5,16.4-10,23.2c-1.7,2.1-3.3,4.2-4.7,6.5
			c-4.3,6.8-7.8,14-9.8,21.8c-1.3,4.8,1.5,9.7,6.2,11.6c4.1,1.6,8.3,1.8,12.6,1.7c8.5-0.2,17.1-0.8,25.6-0.8
			c123.3-0.1,246.7-0.1,370-0.2c0-0.1,0-0.2,0-0.2c75.3-0.3,150.6-0.5,225.8-0.8c19.2-0.1,38.4-0.3,57.7-0.4
			c33.6-0.1,67.3-0.2,100.9-0.4c5.9,0,11.7-0.1,17.6-0.5c2.1-0.1,4.1-0.9,6.1-1.8c2.7-1.1,4.3-3.5,4.3-6.2
			C888,775.1,887.7,771.9,886.9,768.8z M609.6,423c-2.1-4.6-1-9.4,1.8-13.7c0.9-1.3,1.7-2.7,2.6-4c2.7-3.5,4-7.3,2.9-11.9
			c-0.4-1.9,0.1-4.2,0.6-6.2c0.2-0.9,1.3-1.6,2.1-2.3c1-0.8,3.3,0.1,4.1,1.4c2,3.3,3.5,6.7,2.3,10.5c-4.1,12.1-6,24.8-8.3,37.3
			c-1.1,5.8-2.6,11.4-6.8,15.9c-2.3,2.5-5,3.9-9.1,3.2c-0.7-0.7-2.4-1.5-2.9-2.7c-1.7-4.3-0.9-8.4,1.9-12c1.3-1.6,3-3.1,4.8-4.1
			C610.7,431.9,612.2,428.6,609.6,423z M601.7,320.3c1.1,5.8,1.8,11.6,2.4,17.4c0.3,2.6,0,5.3,0,8c0.2,9.1-1.5,18.1-3.2,26.9
			c-1.3,6.8-2.7,13.6-3.4,20.5c-0.4,4.2-1.3,8.4-2.4,12.5c-1.1,4.2-3.2,7.9-6,11.2c-5.5,6.5-13.8,8.9-21.7,5.9
			c-4-1.5-7.8-3.3-11.6-5.4c-6.4-3.5-12.8-5.1-19.9-2.2c-1.9,0.8-4.1,1-6.2,1.2c-4.8,0.6-9.6,0.8-14.3,1.7c-8.5,1.7-16.9,2.3-25-1.7
			c-2.5-1.2-5.2-0.8-7.8,0.2c-3,1.2-5.9,2.6-9,3.3c-3.6,0.9-7.3,1.5-11,1.7c-5.5,0.3-10.6-1.1-14.9-4.7c-2-1.7-3.9-3.7-6.2-5
			c-1.7-0.9-4.1-1.3-6.1-1c-2.6,0.3-5.1,1.4-7.6,2.3c-15.4,5.6-37-2.9-43.9-22.3c-1.6-4.5-2.9-9.2-2.9-14c-0.1-16.5-0.4-33.1,0-49.6
			c0.1-6.3,1.5-12.7,3-18.9c5.5-22.6,15.8-42.9,31.1-60.6c3.8-4.4,8.2-8.5,12.8-12c8.2-6.2,17.3-8,27.1-3.6c1.5,0.7,2.9,1.3,4.4,1.9
			c10.2,4,20.6,4.9,31.4,3.3c6.3-1,12.6-2,19-2.5c33.8-2.6,58.8,11.6,75.7,40.4C593.9,289.2,598.8,304.4,601.7,320.3z M356.4,377.5
			c0.6-0.6,2-0.9,2.8-0.7c0.8,0.2,2,1,2.2,1.8c1.3,5.7-1.5,10.4-7.2,12.1c-0.6-0.6-1.7-1.2-1.8-1.9
			C351.9,384.5,353.2,380.6,356.4,377.5z M374.4,440.7c-0.2,1.9-3.2,3.5-4.8,2.4c-1.7-1.2-3.7-2.2-5.1-3.7
			c-8.8-10-12.8-21.8-13.2-35.4c0.4-1.1,0.5-2.8,1.4-4c1.9-2.7,9.4-2.6,11.6,0c3.9,4.4,4.8,9.4,3,14.9c-1,3-2.8,5.7-4.1,8.6
			c-1,2.1-0.1,4.2,2.3,4.8c2.5,0.7,5.3,0.7,6.8,3.3C373.9,434.4,374.7,437.4,374.4,440.7z M439.3,682.8c-2.1,4.9-4.4,9.7-6.7,14.5
			c-10.8,22.7-20.5,45.8-26.4,70.3c-0.4,1.6-0.9,3.1-1.3,4.6c-2.9,10-12.4,11-20.8,6.6c-1.9-1-3-3.2-3-5.4c0-3.2-0.1-6.4,0.5-9.6
			c2.9-16.4,2.9-33,2.7-49.5c0-2.7-0.1-5.3-0.1-8c0.1-11.8,4.5-21.8,12.8-30.2c1.9-1.9,3.8-3.7,5.9-5.5c9.7-8.4,19.1-17.1,26.9-27.4
			c0.9-1.2,2.4-2,3.7-3c1-0.8,3.6-0.2,4.3,0.8c4.3,6.5,4.9,14,6.1,20.7C443.3,669.5,442.1,676.4,439.3,682.8z M456,610.6
			c-10.7,5.5-18.3,14.3-26.1,23.2c-12.3,14-25.4,27.3-38.2,40.8c-1.1,1.2-3.5,1.4-4.3,0.5c-0.7-0.8-1.2-1.7-1.7-2.6
			c-0.2-0.4-0.3-1-0.4-1.5c-0.1-1.1-0.2-2.1-0.2-3.2c-0.3-30.9-0.6-61.8-0.8-92.7c0-4.8,0.1-9.6,0.6-14.4c0.2-2,1.5-3.9,2.5-5.7
			c0.6-1.1,3.3-1.5,4.2-0.7c1.6,1.4,3.3,2.6,4.7,4.2c13.3,14.9,30,25.4,47.1,35.3c1,0.6,2.7,0.2,4.1,0.1c0.1,0.9,0.2,1.9,0.7,2.4
			c2.7,2.6,5.6,4.9,8.3,7.5C458.7,605.7,458.5,609.3,456,610.6z M563.9,701.9c-0.1,2.1-0.3,4.3-0.7,6.3c-4,18.8-4.3,38-5.7,57.1
			c-0.2,2.1-0.1,4.3-0.2,6.4c-0.4,6.7-3.2,9.5-10,9.7c-1.6,0.1-3.2,0-5.3,0c-3.2-0.4-6.9-0.7-10.6-1.3c-4.6-0.7-7.7-3.5-9.3-7.8
			c-1.1-3-2.2-6-2.9-9.1c-5.7-24.4-12.8-48.3-21-72c-1-3-1.9-6.1-2.6-9.2c-1.4-6.7,0.2-12.8,4.8-17.8c5.5-5.8,11.2-11.4,16.9-17
			c1.8-1.8,5.4-1.4,7,0.9c3.1,4.3,6.2,8.7,8.9,13.2c3.5,5.9,6.9,12,10,18.2c4,7.9,9,14.5,17.9,17
			C563.5,697.5,564.1,699.7,563.9,701.9z M587.4,586c-4.8,25.1-9.6,50.1-14.5,75.2c-1.1,5.7-2.6,11.4-4,17.1c-0.5,2-1.5,4-2.4,5.9
			c-1,2-2.8,3.2-5,3.5c-2.8,0.4-5.3-0.6-6.9-3c-9.1-13.8-18.1-27.6-27.1-41.3c-3.5-5.3-7.4-10.4-10.8-15.8
			c-4.8-7.5-10.9-13-20.2-13.9c-0.5,0-1.3-0.7-1.2-0.9c0.2-0.9,0.4-2.1,1-2.5c4.9-3.1,9.8-6.4,15-9c10.9-5.5,21.9-10.9,33.1-15.7
			c13.7-5.9,27.2-12.1,38-22.8c1-1,3.4-0.2,3.7,1.3c0.9,4.1,1.8,8.3,2.5,11.6C588.2,579.6,588,582.8,587.4,586z M574.4,464.4
			c-3.9,2.8-7.8,5.6-11.6,8.4c-0.4,0.3-0.7,1.3-0.7,1.4c0.8,0.6,1.7,1.4,2.6,1.4c1.5,0,3.3-0.2,4.5-1c3.1-2,6-4.3,9.1-6.4
			c1.4-1,4.6,0.3,5.3,2.1c0.6,1.4,1.6,3,1.5,4.4c-0.7,22.9-1.5,45.9-2.5,68.8c-0.2,5.5-3.1,10.2-6.8,14.1c-3,3-6.2,5.9-9.7,8.3
			c-4.8,3.3-9.9,6.4-15.1,9c-16.7,8.4-33.4,16.6-50.2,24.9c-2.4,1.2-4.8,2.3-7.3,3.3c-11.1,4.8-21.9,3.8-32.1-2.5
			c-3.2-2-6.2-4.2-9.5-6c-1.2-0.7-2.7-0.8-4.1-1.1c-0.3-2.2-2-3.3-3.5-4.5c-10.3-7.6-20.4-15.5-31-22.7c-14.6-9.8-21.3-23-21.1-40.6
			c0.2-14.4-0.6-28.8-1.1-43.2c-0.2-5,0.2-9.5,3.5-13.5c1.9-2.4,1.2-5.1-0.2-7.5c-1.1-1.8-2.3-3.6-3.6-5.3c-6.7-8.6-10.3-18.6-13-29
			c-6.4-23.9-8.4-48.2-7.1-73c0.9-16,2.1-31.9,3.7-47.9c1.1-11.3,4.1-22,8.5-32.4c4.4-10.4,9.7-20.2,16.6-29.1
			c7.2-9.3,14.8-18.2,22.3-27.3c1.4-1.6,2.9-3.1,4.5-4.5c5.5-4.9,11.5-7.6,19-4.8c3.5,1.3,7.2,1.9,11,1c2.3-0.5,4.7-4,3.7-6.1
			c-0.6-1.4-1.7-2.7-2.5-4.1c-0.5-0.9-1.2-1.9-1.2-2.9c0-0.9,0.6-1.8,1-2.7c0.2-0.4,0.7-0.9,1.2-1.1c20.9-9.9,42-11.1,63.3-1.2
			c6.5,3,11.7,7.4,15.2,13.7c1,1.9,2.1,3.7,3.2,5.5c3.8,6.6,9,11.8,15.4,16c5.8,3.8,11.4,7.9,17,12c3.9,2.9,7.2,6.4,9.2,10.9
			c0.4,0.8,0.1,2-0.2,3c-0.4,1.2-1.3,1.2-2.5,0.3c-0.8-0.6-1.7-1.2-2.5-1.9c-1.2-1-2.4-2.1-3.6-3.1c-17.5-15.2-37.9-21.2-60.8-19.8
			c-8,0.5-16,1.1-23.9,2.2c-10.9,1.6-21.3,0.5-31.3-3.8c-0.5-0.2-1-0.4-1.5-0.6c-9.7-5.3-18.6-2.9-27,3c-14.2,10-25.5,22.7-34,37.7
			c-4,7-7.1,14.3-9.7,21.9c-4.6,13.7-7.3,27.8-9.9,42c-0.9,5.2-0.6,10.6-0.7,16c-0.3,13.9,0.4,27.7,3.1,41.4
			c0.4,2.1,0.7,4.2,1.1,6.3c1.9,8.9,6.9,15.6,14.7,20c12.1,6.8,24.8,9.9,38.4,4.9c4.4-1.6,8.3-1.4,11.7,2.2c0.7,0.8,1.6,1.4,2.4,2.1
			c4.4,3.5,9.4,5,14.9,4.6c3.7-0.3,7.4-0.7,11.1-1.4c3.7-0.7,7.2-1.8,10.8-2.8c3.7-1,7.3-1.2,11,0.1c6.7,2.3,13.5,2.8,20.5,0.9
			c3-0.8,6.4-1,9.5-0.8c6.6,0.5,12.7-0.6,18.5-3.9c3.1-1.8,6.1-1.4,9.1,0.3c3.2,1.9,6.4,3.9,9.8,5.3c3.4,1.4,7,2.7,10.6,3.3
			c7.9,1.3,14.9-1,20.1-7.3c2.7-3.3,5-6.9,7.6-10.2c0.4-0.5,1.8-0.2,2.7,0c0.3,0.1,0.7,0.8,0.8,1.3c0.6,5.4-0.3,10.7-2.6,15.6
			c-3.2,6.7-6.4,13.5-10.1,20C586.2,455,580.5,460,574.4,464.4z M489.6,289.5c-4.7,0.5-9.4,1.4-14.2,2.1c-2,0.3-3.3-1-3.4-2.4
			c-0.4-4-2.3-6.8-5.5-9.2c-5.5-4.1-10.5-9-17.3-11.1c-3.1-0.9-6.3-1.5-9.4-0.4c-10.7,3.5-20.6,8.5-29.1,16
			c-1.2,1.1-2.2,2.3-3.2,3.5c-3.5,4.4-2.6,12.2,1.7,16c2.8,2.5,6,4.2,9.7,5.4c6.2,2,12.6,1.6,19,1.8c7.7,0.3,14.8-1.2,21-5.9
			c1.6-1.2,3.3-2.3,5.4-2c-0.4,2.5-1.1,5-1.2,7.5c-0.1,4.3,3.9,8.2,8.1,8.2c1.1,0,2.2,0.2,3.2,0c8.5-1.8,16.9-1.1,25.2,1.4
			c1,0.3,2.1,0.3,3.1,0.4c3.9,0.4,8.7-2.8,9.7-6.8c0.6-2.5,1.1-5.2,0.9-7.8c-0.3-3.6-1.1-7.1-1.8-10.7c-1.3-0.6-2.6-1.1-3.7-1.9
			C502.3,289.8,496.1,288.9,489.6,289.5z M449.6,301.9c-7.4,3.7-12.6,4.7-22.6,4.3c-1.5-0.3-4.1-0.7-6.6-1.4
			c-4.2-1.1-5.2-5.3-2.2-8.5c3.2-3.5,6.8-6.6,11.1-8.8c1.7-0.9,4,0.4,4.5,2.6c0.1,0.5,0,1.1,0,1.6c0.4,4.9,3.9,7.5,8.8,6.2
			c2-0.5,4.1-0.8,6.1-0.8c0.6,0,1.7,1.3,1.8,2.2C450.7,300,450.2,301.5,449.6,301.9z M458.9,294.7c-0.8,0.5-2.1,0.6-3,0.4
			c-0.9-0.3-1.8-1.1-2.5-1.8c-2.3-2.2-4.4-4.6-6.8-6.6c-6.3-5.5-13.4-5.7-20.6-2.1c-3.2,1.6-6.1,3.6-9.1,5.5c-0.1-1.4-0.5-3,0.2-3.8
			c9.1-11,25.1-14.3,37.1-7.5c2.6,1.5,4.8,4,6.8,6.4C463.3,287.9,462.2,292.7,458.9,294.7z M507.9,308.3c-0.2,2.7-3.8,6-6.5,6.1
			c-1.6,0-3.2,0.2-4.7-0.2c-7.3-1.8-14.6-2.1-22-1.9c-3.6,0.1-4.9-0.8-5.2-2.4c-0.3-2.3,0.8-4.1,2-5.7c3-4,6.8-6.5,12-6.7
			c4.2-0.2,8.4-0.7,12.6-1C502.4,295.9,508.4,302,507.9,308.3z M540.1,274.8c-9.4,1.2-18.6,4.3-27.9,6.7c-1.8,0.5-3,3.3-2.4,5.3
			c0.8,2.9,2.8,5.6,2.2,8.8c4,1.5,5.9,5.4,8.9,8c10.9,9.2,23.3,14.8,37.7,15.1c4.9,0.1,9.5-0.9,13.9-2.9c4.6-2.2,7.4-6.4,7.3-11.4
			c-0.1-7.9-3.2-14.5-8.9-19.8C562.3,276.3,551.5,273.4,540.1,274.8z M572.8,298.3c0.4,1,0.4,2.1,0.5,3.1c0.4,4.9-3.2,9.7-8,10.3
			c-2.6,0.3-5.3,0.4-6.6,0.5c-7.8-0.1-14.2-0.3-20.3-2.7c-2.5-1-4.9-2-7.2-3.3c-5.1-2.9-8.1-7-7.1-9.5c1.5-3.9,4.9-5.5,8.4-6.7
			c2.5-0.9,5.1-1.5,7.7-2.1c1.5-0.4,3.5,1,3.5,2.3c-0.1,2.6-0.4,5.3-0.4,7.9c0.2,5.8,6.4,9.3,11.6,6.7c3-1.5,5.1-3.8,6.3-6.9
			c1.1-2.8,0.3-6.9-2.1-8.7c-7.8-5.6-16.1-8.2-25.4-4.1c-3.9,1.7-7.8,3.4-11.7,4.9c-0.6,0.2-1.7-0.7-2.5-1.2c-0.2-0.1,0-1.1,0.3-1.5
			c0.6-0.8,1.2-1.9,2.1-2.2c11.8-4.4,23.7-5.8,36-2C565.7,285.3,570.1,290.9,572.8,298.3z M549.8,294c1.5-0.4,3-0.9,4.5-0.9
			c0.8,0,2.4,1.2,2.3,1.7c-0.2,1.4-0.9,2.9-1.8,4c-0.5,0.6-2,0.3-3,0.5c-0.5-0.1-1.2,0-1.5-0.3c-0.7-0.7-1.3-1.5-1.7-2.4
			C548.1,295.4,548.6,294.4,549.8,294z M531.3,356.8c-5.3-3.5-9.8-7.9-14.5-12.3c-8.2-7.7-17.5-13.6-28.5-16.8
			c-5.9-1.7-11.5-1.4-16.8,1.8c-9.2,5.4-18,11.2-25.9,18.4c-1.1,1-2.1,2.4-2.8,3.8c-0.7,1.5-0.4,3.1,0.7,4.4
			c1.5,1.7,3.4,2.4,7.5,2.5c1.8-0.3,5.5-0.9,9.1-1.7c6.7-1.4,13.5-2.8,20.2-4.6c6.4-1.6,12.6-1.2,18.7,1.3c3.9,1.6,8,2.9,11.9,4.4
			c5,1.9,10.2,2.9,15.5,3.3c1.1,0.1,2.2,0.1,3.2-0.2c0.9-0.3,2-0.9,2.4-1.7C532.2,358.7,531.9,357.1,531.3,356.8z M503.3,346.3
			c-1.6-0.1-3.1-0.7-4.7-1c-5.9-1-11.7-0.5-17.5,0.7c-6.8,1.4-13.5,2.6-20.3,3.9c-0.4,0.1-1.3-0.3-1.4-0.6c-0.2-0.9-0.5-2.2-0.1-2.8
			c8.2-11.8,22.1-16.1,35.1-10.5c3.8,1.6,7.1,4.5,10.6,7c0.7,0.5,0.8,1.8,1.2,2.8C505.3,345.9,504.2,346.3,503.3,346.3z
			 M511.5,295.5C511.4,295.4,511.4,295.4,511.5,295.5c0,0.1,0,0.2,0,0.3c0.2,0.1,0.3,0.1,0.5,0.2c0-0.1,0-0.2,0-0.3
			C511.8,295.6,511.6,295.5,511.5,295.5C511.4,295.4,511.4,295.4,511.5,295.5z M509.4,453.7c-2.6-0.4-5.2-1-7.7-0.9
			c-13.3,0.6-26.4-0.7-39-5c-1-0.3-2.1-0.2-3.1-0.1c-0.4,0-1.1,0.5-1.2,0.9c-0.2,0.9-0.6,2.3-0.1,2.8c1.4,1.5,2.9,3.2,4.7,4
			c5.3,2.4,10.9,4,16.8,4.1c4.2,0.1,8.5,0,12.7,0c0,0.1,0,0.2,0,0.3c4.2,0,8.5,0.1,12.7-0.1c1.5-0.1,3-0.8,4.5-1.2
			c1.2-0.4,1.4-1.3,1.4-2.5C510.9,454.8,510.7,453.9,509.4,453.7z"/>
	</g>
</g>
</svg>
