<?xml version="1.0" encoding="utf-8"?>
<!-- Generator: Adobe Illustrator 17.0.0, SVG Export Plug-In . SVG Version: 6.00 Build 0)  -->
<!DOCTYPE svg PUBLIC "-//W3C//DTD SVG 1.1//EN" "http://www.w3.org/Graphics/SVG/1.1/DTD/svg11.dtd">
<svg version="1.1" id="Layer_1" xmlns="http://www.w3.org/2000/svg" xmlns:xlink="http://www.w3.org/1999/xlink" x="0px" y="0px"
	 width="350px" height="350px" viewBox="0 0 350 350" enable-background="new 0 0 350 350" xml:space="preserve">
<g>
	<path fill="#0B0B0B" d="M236.456,290.371c-0.293-3.193-2.291-3.763-5.007-3.288c-1.855,0.324-4.002,0.488-4.239-1.927
		c-0.269-2.74,1.965-2.983,4.032-2.755c11.374,1.253,22.739,0.342,34.106-0.094c1.558-0.06,3.035,0.124,4.349,1.037
		c0.734,6.062-0.486,12.194,0.652,18.241c-0.54,0.867-1.036,1.78-2.164,2.016c-0.285,0.006-0.57,0.013-0.855,0.019
		c-0.539-0.126-1.077-0.251-1.616-0.377c-0.888-1.216-0.888-2.669-1.088-4.069c0.75-10.504-0.288-11.647-10.616-11.693
		c-0.278-0.001-0.556-0.003-0.834-0.003c-10.22-0.012-10.22-0.013-10.197,10.336c0.012,5.316,0.695,5.899,6,5.387
		c3.412-0.329,5.688-1.44,4.353-5.499c-0.17-0.516-0.194-1.1-0.186-1.652c0.029-1.921,0.324-3.802,2.817-3.73
		c2.267,0.065,2.504,1.803,2.438,3.596c-0.101,2.769-0.216,5.538-0.325,8.308c-0.495,1.402-0.382,2.802,0.019,4.2
		c0.043,1.922-0.127,3.879,0.184,5.757c0.371,2.24,0.563,4.494-2.154,4.876c-2.544,0.358-2.912-1.936-3.144-3.922
		c0.347-2.355,1.905-5.128-1.246-6.6c-5.227-2.44-8.723-0.188-8.711,5.369c0.004,1.528,0.094,3.056,0.145,4.584
		c0.012,1.67,0.025,3.34,0.037,5.011c-0.144,0.945-0.396,1.917,0.65,2.561c6.453,2.398,12.987,1.637,19.472,0.293
		c1.814-0.376,2.424-2.162,2.404-3.979c-0.029-2.64-0.06-5.282-0.154-7.92c-0.065-1.834,0.817-3.04,2.53-3.236
		c1.86-0.212,2.822,1.025,2.829,2.816c0.019,5.143-0.027,10.287-0.076,15.431c-0.024,2.528-1.874,2.913-3.758,2.84
		c-12.098-0.465-24.192-0.921-36.292,0.009c-2.164,0.166-3.579-1.19-4.646-2.934c1.461-1.897,3.465-2.044,5.602-1.716
		c3.759,0.577,5.075-1.542,5.12-4.806c0.038-2.771-0.171-5.546-0.271-8.319l-0.049-0.071
		C237.208,306.433,237.337,298.4,236.456,290.371z"/>
	<path fill="#0B0B0B" d="M186.854,333.741c-2.147-0.523-2.759-1.957-2.542-4.028c0.157-1.499,0.099-3.02,0.137-4.532
		c0.798-1.39,0.637-2.918,0.498-4.389c-0.307-3.24-1.092-6.459-0.237-9.725c4.18-1.71,5.519-0.839,5.283,3.921
		c-0.265,5.349,1.175,9.843,6.217,12.185c5.032,2.338,10.177,2.449,15.125-0.765c3.338-2.168,4.554-5.186,4.086-8.927
		c-0.477-3.816-3.152-5.825-6.58-6.719c-4.572-1.193-9.247-1.986-13.831-3.135c-5.639-1.413-8.904-5.187-9.387-10.922
		c-0.487-5.777,1.891-10.462,7.021-13.261c6.293-3.434,12.752-3.64,19.112,0.088c1.28,0.75,2.864,2.596,3.232-0.801
		c0.107-0.984,1.083-1.151,1.98-1.073c1.568,0.136,2.386,1.396,2.288,2.568c-0.431,5.158-0.26,10.285,0.005,15.439
		c0.083,1.611-1.301,2.891-3.096,2.704c-1.522-0.159-2.387-1.315-2.47-2.903c-0.029-0.555-0.013-1.121,0.062-1.671
		c0.622-4.548-0.408-8.327-4.862-10.522c-4.645-2.29-9.253-1.999-13.502,0.776c-4.887,3.191-4.508,10.219,0.491,13.208
		c3.473,2.076,7.458,2.127,11.246,2.964c6.44,1.424,12.599,3.211,14.266,10.887c0.574,6.902-1.114,12.825-7.774,16.12
		c-7.272,3.598-14.498,3.156-21.464-1.053c-0.575-0.348-1.151-0.695-2.137-1.29C189.987,331.397,189.997,333.801,186.854,333.741z"
		/>
	<path fill="#0B0B0B" d="M90.408,308.408c1.53-1.51,2.001-3.533,2.709-5.46c2.056-5.595,4.256-11.139,6.236-16.76
		c0.89-2.524,2.433-4.162,5.065-4.21c2.74-0.05,4.063,1.834,4.932,4.292c3.835,10.838,8.017,21.561,11.567,32.489
		c1.905,5.863,4.321,10.129,11.403,8.966c1.357,3.172,0.204,4.84-3.377,4.587c-3.603-0.255-7.178-1.058-10.809-0.348
		c-0.832,0.043-1.663,0.086-2.495,0.129c-1.341-0.169-2.684-0.354-3.944,0.361c-2.182-0.575-5.548,0.169-4.482-4.024
		c1.966-1.571,4.192-1.141,6.417-0.875c2.493,0.298,3.238-0.861,2.736-3.233c-1.922-9.079-2.966-9.945-12.288-9.888
		c-2.094,0.013-4.188,0.069-6.281,0.048c-2.009-0.02-3.139,0.91-3.379,2.91c-0.906,2.01-1.884,3.993-2.701,6.039
		c-1.025,2.567-0.152,4.029,2.697,4.126c0.417,0.014,0.835-0.022,1.252-0.022c2.277-0.005,5.823-1.651,5.606,2.453
		c-0.185,3.5-3.571,2.215-5.706,1.971c-4.604-0.528-9.163-0.334-13.745,0.123c-1.222,0.122-2.493-0.005-3.714-0.196
		c-1.123-0.176-1.553-1.202-1.655-2.158c-0.117-1.105,0.701-2.097,1.678-2.019c8.827,0.707,7.75-6.868,9.925-11.718
		C89.341,313.618,90.651,311.254,90.408,308.408z M104.075,287.998c-1.505,4.597-2.69,7.972-3.708,11.396
		c-0.974,3.277-4.3,7.472-2.586,9.498c1.919,2.267,6.803,0.481,10.389,0.703c0.278,0.017,0.557,0.022,0.835,0.036
		c1.479,0.071,2.067-0.522,1.569-2.017C108.52,301.445,106.483,295.272,104.075,287.998z"/>
	<path fill="#0B0B0B" d="M177.353,320.924c-0.513,1.651-0.213,3.311-0.028,4.962c0.651,5.835-0.018,6.534-6.028,6.201
		c-7.094-0.394-14.189-0.498-21.288-0.144c-4.112,0.042-8.224,0.067-12.335,0.132c-3.365,0.053-4.187-1.431-2.717-4.365
		c0.539-0.135,1.079-0.393,1.616-0.388c6.939,0.064,7.321-0.331,7.31-7.439c-0.014-8.781,0.054-17.563-0.009-26.344
		c-0.042-5.835-0.54-6.246-6.406-6.277c-1.623-0.008-3.273-0.273-3.355-2.265c-0.078-1.897,1.353-2.777,3.061-2.601
		c6.389,0.659,12.75,0.968,19.148-0.006c1.788-0.272,3.553,0.658,3.343,2.724c-0.174,1.712-1.749,2.177-3.515,2.113
		c-5.324-0.193-6.158,0.595-6.157,5.727c0.001,7.106,0.089,14.212,0.141,21.318c-0.036,2.328-0.169,4.66-0.078,6.982
		c0.075,1.917-0.599,4.183,1.845,5.31c5.495,1.506,11.033,0.993,16.547,0.226c2.731-0.38,4.083-2.147,3.936-4.959
		c0.018-0.28,0.035-0.559,0.053-0.839c-0.006-0.838-0.012-1.675-0.018-2.513c-0.011-0.279-0.023-0.558-0.034-0.837
		c0.232-1.861-0.538-3.788,0.37-5.604c3.986-1.397,5.419-0.386,5.088,3.609C177.699,317.408,177.518,319.165,177.353,320.924z"/>
	<path fill="#0B0B0B" d="M38.827,286.502c-0.991-4.279,1.876-4.26,4.735-4.25c1.062,0.087,2.125,0.174,3.187,0.261
		c6.197,1.273,12.397,0.647,18.597,0.031c4.007-0.061,8.013-0.145,12.02-0.173c1.893-0.013,4.013,0.335,3.978,2.626
		c-0.09,5.876-0.559,11.747-0.877,17.619c-3.744,1.112-4.984,0.308-4.958-3.308c0.01-1.389,0.243-2.774,0.293-4.164
		c0.204-5.671-1.2-7.304-6.801-7.574c-3.194-0.154-6.404,0.059-9.603-0.033c-3.693-0.105-5.367,1.436-4.994,5.249
		c0.216,2.206,0.011,4.451,0.026,6.678c0.032,4.671,0.755,5.21,6.27,4.728c3.886-0.339,5.087-1.88,4.501-5.781
		c-0.041-0.273-0.09-0.56-0.208-0.805c-0.699-1.457-0.477-2.7,0.834-3.688c0.848-0.639,1.915-0.867,2.74-0.306
		c1.359,0.924,1.737,2.387,1.557,4.031c-0.463,4.225-2.055,8.393-0.693,12.718c0.241,1.926,0.582,3.846,0.692,5.78
		c0.099,1.737-0.219,3.648-2.363,3.745c-2.182,0.098-3.179-1.408-3.005-3.591c0.022-0.275,0.147-0.541,0.176-0.816
		c0.218-2.044,1.136-4.672-0.972-5.762c-2.425-1.254-5.41-1.108-8.185-0.538c-1.213,0.249-1.317,1.329-1.322,2.309
		c-0.022,4.178-0.062,8.358,0.03,12.534c0.06,2.736,1.911,3.193,4.275,3.41c2.153,0.197,6.067-1.212,5.617,2.733
		c-0.396,3.48-3.945,2.027-6.17,1.717c-4.601-0.642-9.146-0.693-13.708,0.153c-0.82,0.152-1.659,0.347-2.481,0.311
		c-1.772-0.077-3.51-0.506-3.4-2.754c0.105-2.144,1.837-2.164,3.412-2.022c3.174,0.286,6.086,0.301,5.879-4.152
		c0.842-2.149,0.462-4.42,0.36-6.585c-0.407-8.591,0.651-17.206-0.463-25.778c0.081-3.036-1.464-4.176-4.359-3.735
		C41.812,287.569,40.195,287.741,38.827,286.502z"/>
	<path fill="#92D3E3" d="M47.804,291.056c1.114,8.572,0.056,17.187,0.463,25.778c0.103,2.164,0.482,4.436-0.36,6.585
		c-0.107-4.395-0.215-8.787-0.323-13.178c-0.015-3.458-0.029-6.918-0.043-10.376C47.63,296.929,47.717,293.992,47.804,291.056z"/>
	<path fill="#0B0B0B" d="M34.092,167.642c-0.877-3.636-1.755-7.272-2.632-10.908c-1.728-9.424-2.2-18.945-2.177-28.503
		c0.516-5.319,1.032-10.638,1.548-15.957c3.904-19.708,10.401-38.476,20.331-55.996c1.497-2.227,2.995-4.453,4.492-6.68
		C62.86,40.2,71.236,32.05,81.228,25.623c4.178-2.136,8.357-4.271,12.535-6.406c1.313-0.425,2.644-0.802,3.936-1.284
		c10.958-4.087,22.314-6.132,33.974-6.079c7.218,0.033,14.125,1.406,19.433,7.1c1.867,2.003,2.012,6.106,4.804,6.232
		c2.624,0.118,5.349-1.985,8.026-3.12c0.122-0.051,0.21-0.181,0.314-0.274c7.484-1.579,15.052-1.264,22.617-1.009
		c18.957,1.943,35.151,9.614,48.474,23.301c6.523,6.701,11.775,14.36,16.925,22.104c1.374,2.559,2.747,5.119,4.121,7.678
		c0.502,1.282,0.982,2.574,1.51,3.845c7.19,17.281,12.867,34.944,14.204,53.789c0.982,13.831-0.694,27.236-5.647,40.207
		c-1.395,2.421-2.601,4.925-3.328,7.637c-1.569,2.769-3.014,5.646-3.251,8.838c-1.113,14.933-2.102,29.876-3.136,44.815
		c-0.114,3.071-0.228,6.141-0.342,9.212c-0.093,0.261-0.286,0.53-0.266,0.782c0.884,10.85-7.094,14.634-14.809,18.671
		c-3.056,1.599-3.162,0.178-2.844-2.371c0.655-5.251,2.174-10.303,3.301-15.444c0.065-0.27,0.129-0.539,0.194-0.809
		c0.038-0.274,0.077-0.547,0.115-0.821c0.963-2.143,1.69-4.349,1.777-6.724c5.003-13.568,4.693-27.58,3.475-41.666
		c-0.227-2.626-2.278-2.392-4.055-2.451c-2.436-0.082-2.139,1.649-1.97,3.193c0.182,1.661,0.495,3.308,0.673,4.97
		c1.457,13.61-2.262,21.521-16.617,23.857c-6.079,0.99-12.171,1.595-18.265,1.864c-13.219,0.584-27.517-1.906-36.243-12.979
		c-1.249-1.585-3.343-4.35-4.053-6.223c-1.079-2.843-2.27-5.649-3.203-8.539c-0.854-2.644,0.623-6.312-2.454-7.878
		c-2.695-1.371-5.974-1.117-9.038-1.215c-0.696-0.022-1.396-0.093-2.089-0.053c-3.312,0.193-6.874-0.589-9.818,1.26
		c-2.77,1.739-1.335,5.163-2.221,7.694c-5.622,16.062-16.862,27.811-36.124,28.105c-12.418,0.189-24.655-1.034-36.476-5.144
		c-1.465-1.921-2.929-3.842-4.394-5.763c-1.41-3.403-1.867-6.95-1.562-10.601c0.244-2.909,0.533-5.813,0.816-8.718
		c0.195-2.004,0.01-3.476-2.671-3.55c-2.39-0.066-3.065,0.833-3.286,3.088c-1.184,12.087-1.42,24.084,2.457,35.813
		c2.72,9.937,4.936,19.99,6.918,30.097c0.013,0.555,0.027,1.11,0.04,1.666c-2.405,0.937-3.875-1.327-5.891-1.722
		c-2.066-1.393-4.131-2.788-6.199-4.178c-3.185-2.141-5.198-4.997-5.483-8.923c-0.314-4.314-0.698-8.623-0.951-12.94
		c-0.734-12.541-1.254-25.097-2.611-37.595c-0.081-2.81,0.229-5.649-0.632-8.401c0.328-3.09-1.181-5.625-2.396-8.286
		C37.64,176.105,35.901,171.858,34.092,167.642z M197.802,97.167l0.007,0.014c-1.249-3.318-2.722-6.483-5.851-8.509
		c0.059-0.258,0.006-0.49-0.159-0.696c-4.656-7.147-10.698-12.787-18.247-16.79c-2.862-1.923-5.924-3.403-9.298-4.188
		c-15.316-6.468-36.913,0.624-47.908,15.731c-2.836,3.022-5.052,6.444-6.639,10.274c-8.075,14.41-9.156,29.893-6.476,46.182
		c-2.96-0.853-3.536-2.961-4.276-4.828c-3.256-8.219-3.966-17.013-5.751-25.568c-0.274-1.311,0.739-3.66-1.41-3.828
		c-2.086-0.163-2.141,2.259-2.726,3.705c-0.567,1.4-0.801,2.954-1.044,4.462c-1.684,10.451-1.076,20.868,1.161,31.133
		c0.938,4.303,2.785,8.481,7.078,10.815c0.704,1.437,3.341,0.875,3.309,3.56c-7.561-1.222-11.987-6.891-17.194-11.945
		c-0.74,2.642,0.535,3.823,1.73,4.929c1.941,1.794,3.992,3.468,5.989,5.201c1.014,0.881,1.123,1.542-0.465,1.736
		c-8.987-5.115-15.482-11.917-17.073-22.771c-0.918-6.261,0.424-12.177,1.096-18.232c0.098-0.885,0.645-2.244-0.501-2.556
		c-1.435-0.391-1.718,0.979-1.93,2.106c-0.692,3.683-1.694,7.286-1.77,11.103c-0.114,5.741,0.186,11.417,1.284,17.052
		c0.154,0.787,0.59,1.794-0.42,2.208c-1.305,0.534-1.798-0.741-2.02-1.541c-0.403-1.449-0.195-3.089-0.7-4.483
		c-0.479-1.323,0.041-3.853-1.799-3.724c-1.833,0.128-1.247,2.468-1.245,3.89c0.014,9.122-2.132,17.66-6.807,25.509
		c-1.502,2.522-1.909,5.187-1.625,8.031c-0.383,2.324-0.853,4.638-1.121,6.975c-0.198,1.733-1.59,4.004,1.326,4.792
		c2.46,0.665,4.342,0.385,5.419-2.674c2.784-7.907,8.983-11.142,17.023-11.674c5.113-0.339,10.206-0.976,15.308-1.48
		c19.113-0.554,38.227-1.108,57.34-1.662c9.297,0.69,18.611,0.669,27.925,0.661c11.664,0.553,23.336,0.973,34.989,1.697
		c10.904,0.677,22.114,0.976,26.377,14.238c0.644,2.004,2.834,1.224,4.443,1.066c1.303-0.128,2.062-0.878,1.919-2.225
		c-0.755-7.07,0.302-14.574-4.861-20.605c-3.228-7.174-4.809-14.711-5.11-22.558c-0.05-1.304,1.142-3.58-1.171-3.69
		c-1.793-0.085-1.803,2.119-2.059,3.595c-0.095,0.545,0.125,1.244-0.142,1.643c-1.813,2.705-1.89,6.933-7.221,8.011
		c4.791-6.173,6.035-12.394,5.69-19.037c-0.052-1.008-0.1-2.241-1.272-2.266c-1.29-0.028-1.202,1.298-1.227,2.243
		c-0.216,8.111-3.373,15.023-8.552,21.119c-1.709,0.857-2.649,3.222-5.466,2.726c1.971-3.211,5.059-5.529,5.51-10.583
		c-5.431,5.413-9.106,11.784-16.633,12.594c1.983-3.263,5.078-5.644,5.896-9.493c1.35-2.081,2.169-4.354,2.457-6.818
		c3.78-9.446,3.772-18.984,0.697-28.597c-0.91-5.096-3.645-9.531-5.253-14.377c-0.187-0.562-0.909-1.345-1.373-1.339
		c-1.186,0.016-0.935,1.146-0.913,1.9c0.082,2.916,0.225,5.831,0.365,8.746c0.222,4.636-0.683,9.103-2.083,13.48
		c-0.278,0.868-0.796,1.912-1.93,1.77c-0.292-0.037-0.446-1.181-0.664-1.816c0.174-3.228,1.908-6.412,0.278-9.692
		c0.196-4.983-1.653-9.419-3.7-13.801C198.156,97.735,197.979,97.451,197.802,97.167z M176.012,175.393
		c-7.498,2.104-11.735,5.76-11.309,11.273c0.503,6.512,1.464,13.131,5.361,18.784c3.764,7.357,9.232,13.034,17.308,15.214
		c14.773,3.988,29.556,2.548,44.105-1.39c4.219-1.142,6.721-4.397,7.59-9.033c1.448-7.719,0.189-15.344-0.902-22.829
		c-1.117-7.665-5.798-11.237-13.835-12.17c-13.039-1.514-26.136-1.829-39.247-1.136
		C182.033,174.267,178.936,174.268,176.012,175.393z M97.911,174.234c-3.555,0-7.6,0.068-11.642-0.019
		c-4.091-0.088-8.02,0.742-11.936,1.765c-6.152,1.607-10.015,5.376-10.736,11.807c-0.651,5.81-1.221,11.645-1.446,17.483
		c-0.328,8.513,3.421,13.196,11.804,15.13c10.111,2.332,20.396,3.166,30.715,2.393c9.852-0.738,18.307-4.621,24.248-12.906
		c3.428-4.782,5.682-10.029,6.994-15.842c2.6-11.522-0.621-16.918-12.09-19.052C115.396,173.424,106.905,173.486,97.911,174.234z
		 M174.79,173.351c-0.126-0.321-0.252-0.642-0.377-0.962c-15.831,0-31.661,0-47.774,0c0.857,1.429,1.914,1.622,2.941,1.975
		c4.113,1.414,7.439,3.81,8.673,8.186c0.558,1.979,1.702,2.408,3.385,2.11c6.09-1.077,12.161-1.278,18.23,0.131
		c1.16,0.269,2.192,0.198,2.73-1.168C164.765,178.115,168.552,174.372,174.79,173.351z"/>
</g>
</svg>
