<?xml version="1.0" encoding="utf-8"?>
<!-- Generator: Adobe Illustrator 21.0.0, SVG Export Plug-In . SVG Version: 6.00 Build 0)  -->
<svg version="1.1" id="Слой_1" xmlns="http://www.w3.org/2000/svg" xmlns:xlink="http://www.w3.org/1999/xlink" x="0px" y="0px"
	 viewBox="0 0 618 352" style="enable-background:new 0 0 618 352;" xml:space="preserve">
<g>
	<g>
		<path d="M261,109.5c1.2-2.8,2-5.7,3.1-8.5c4.2-10.3,8.6-20.6,12.7-30.9c0.5-1.3,0-3.1-0.1-4.7c-1.2,1-2.9,1.8-3.4,3.1
			c-4.6,10.4-9.1,20.9-13.5,31.4c-1.2,2.9-2.1,5.9-3.2,9.3c0.7,0.9,1.3,1.7,1.9,2.5C259.3,110.9,260.6,110.4,261,109.5z
			 M300.6,101.3c0.6,4.4,3.5,6.6,7.9,6.6c4.8,0,8.6-2.4,10.2-6.6c2.2-5.6,3.4-11.5,5-17.3c-0.2-0.1-0.5-0.2-0.7-0.3
			c-0.4-3-0.5-6.1-1.4-8.9c-1.8-5.4-9-6.9-12.5-2.4C302.7,80.8,299.2,90.4,300.6,101.3z M304.5,96.6c1.1-5.4,2.3-10.9,4.4-16
			c0.9-2.3,4-3.9,6.3-5.4c0.4-0.3,2.4,0.7,2.7,1.5c0.6,1.4,0.6,3.2,0.9,4.7c-0.5,4.1-0.8,8.2-1.5,12.2c-0.4,2.1-1.2,4.1-2.3,6
			c-1.6,2.8-4.1,4.7-7.6,3.7C304.2,102.2,304,99.2,304.5,96.6z M543.7,189c0.1,0.9,0.9,1.9,1.7,2.6c0.3,0.2,2-0.6,2-1
			c0.2-3.6,0.2-7.2,0-10.8c0-0.5-1.8-0.9-2.7-1.4c-0.4,1.1-1,2.1-1.1,3.2c0,1.1,0.5,2.2,0.8,3.2C544.1,186.3,543.6,187.7,543.7,189z
			 M327.6,106.7c0.7-0.3,1.2-1.3,1.7-2c8.1-13.9,16.1-27.9,24-41.9c0.6-1,0-2.7,0-4.1c-1.2,0.3-2.7,0.4-3.7,1.1
			c-2.7,1.8-5.2,3.9-7.2,5.4c-1.7-1.9-2.6-3.9-4-4.3c-4.4-1.3-9.9,1.1-12,5.3c-0.9,1.8-1.5,5.2-0.5,6.1c1.3,1.3,4.5,1.7,6.4,1.1
			c4.3-1.3,8.4-3.5,12.6-5.3c0.3,0.3,0.6,0.6,0.9,0.8c-7.1,11.7-14.2,23.3-21.3,35.1c-0.4,0.7-0.4,2.5,0.1,2.8
			C325.4,107.2,326.7,107.1,327.6,106.7z M330.2,69.9c-0.4-0.5-0.7-1.1-1.1-1.6c2.1-1.3,4.2-2.7,6.3-4c0.3,0.5,0.6,0.9,0.9,1.4
			C334.3,67.2,332.2,68.6,330.2,69.9z M514.8,202.7c-0.4-1.3-0.7-2.7-1.2-4c-0.4-1-1.2-1.9-1.8-2.8c-0.4,1.1-1.1,2.1-1.1,3.2
			c0.1,5.8,2.2,7.6,8,6.9c-1.2,4.8-2.2,9.5-3.5,14.1c-0.4,1.3-1.7,2.3-2.7,3.4c-0.7,0.9-1.5,1.7-2.3,2.5c1.3,0.1,3.3,0.9,3.7,0.3
			c1.9-2.3,4.3-4.8,4.9-7.6c1.7-7.3,2.5-14.7,3.6-22.1c0.1-1-0.6-2.1-0.9-3.1c-0.8,0.9-1.8,1.8-2.3,2.9c-1,2.1-1.7,4.3-2.6,6.4
			C515.9,202.7,515.4,202.7,514.8,202.7z M533.5,189.8c0.6-0.8,1.6-1.5,1.8-2.4c0.3-1.3,0.1-2.8,0.1-4.2c-0.1,0-0.2,0-0.2,0
			c0.1-1.1,0.4-2.4,0.1-3.4c-0.3-1.1-1.2-2.1-1.8-3.1c-0.8,1-2,1.9-2.2,3c-0.3,2.5-0.3,5.1,0,7.6C531.4,188.3,532.8,189,533.5,189.8
			z M229.5,151.5c0.2,1.5,0.4,3,0.6,4.5c0.6,3.6,1.9,6.8,5.9,7.5c4.1,0.7,6.8-1.7,8.7-4.9c3.6-5.9,4.3-12.1,1.5-18.5
			c-2.8-6.3-9.5-7-13.1-1.2c-2.2,3.7-3,8.2-4.4,12.3C229,151.3,229.2,151.4,229.5,151.5z M235.6,142.5c0.6-2.2,2.4-3.1,4.4-2.3
			c1.2,0.5,2.9,1.9,3,2.9c0.2,3.7,0.1,7.5-0.5,11.1c-0.4,2.6-2.6,5-5.3,4.3c-1.5-0.4-2.3-3.4-3.2-5.3c-0.3-0.6-0.1-1.5-0.2-2.3
			c-0.1,0-0.2-0.1-0.3-0.1C234.1,148.1,234.8,145.3,235.6,142.5z M209.1,89.5c4.7,1,9.4,2.1,14,3.4c2.5,0.7,4.1,2.7,3.8,5.5
			c-0.3,3-2.3,4.5-5,4.9c-1.9,0.3-3.8-0.1-5.7,0.3c-0.9,0.2-1.6,1.2-2.4,1.9c0.8,0.8,1.6,2.3,2.4,2.3c2.9,0,5.9-0.2,8.7-0.9
			c3.4-0.9,5.8-3.2,6.2-6.9c0.5-4.1-0.6-7.7-4.3-9.8c-2.5-1.4-5.3-2.4-8.1-3.1c-3.7-1-7.4-1.5-11.8-2.3c1.4-3.2,2.6-6,4-9.3
			c1.5,0.9,2.3,1.7,3.1,1.8c1.1,0.2,2.2-0.2,3.4-0.3c-0.3-1-0.2-2.2-0.8-3c-3.1-3.7-6.7-3.6-9.4,0.3c-1.3,1.9-2.4,3.9-3.2,6
			C201.9,85.7,203.5,88.3,209.1,89.5z M275.2,158.7c1.6-3.6,2.2-7.8,2.3-11.8c0.2-3.6-0.7-7.2-1.4-10.8c-0.1-0.7-1.9-1-2.9-1.5
			c-0.4,1-1.2,2.2-1.1,3.1c0.4,3.1,1.2,6.1,1.6,8.1c-0.6,3.9-0.7,6.7-1.5,9.4c-1.5,5.1-7.1,6.4-10.8,2.5c-1.3-1.3-2.5-3.1-2.8-4.8
			c-0.7-4.6-0.8-9.2-1.4-13.8c-0.2-1.4-1.2-2.6-1.8-3.9c-0.8,0.6-2.2,1.2-2.3,1.9c-0.7,8.3-0.4,16.6,5.1,23.6
			C262.9,166.7,272.1,165.7,275.2,158.7z M209.4,174.4c-0.2,0.7-0.3,1.4-0.3,2.2c0,0.2,0,0.5-0.1,0.7c0.3,0,0.6,0,0.9,0.1
			c0.3,0,0.6,0.1,0.9,0.1c0.6,0,1.1,0,1.5-0.2c1-0.6,1.9-1.8,2.3-2.9c2.4-6.5,5.2-13,6.8-19.7c2-8.7,3-17.7,4.6-26.5
			c0.3-2,0.9-4.1-1.7-4.6c-0.6-0.1-2.1,2.4-2.4,3.8c-1.3,6.7-2.3,13.4-3.5,20.1c-0.3,0-0.6,0-0.9,0c-1.6-4.3-3.1-8.7-4.9-13
			c-0.8-1.9-2.1-3.7-3.5-5.4c-0.4-0.5-2.1-0.5-2.6,0c-0.5,0.4-0.6,1.9-0.3,2.6c3.2,7.4,6.5,14.8,9.8,22.1c0.2,0.4,0.4,1,0.2,1.5
			C214.1,161.7,211.7,168,209.4,174.4z M275,224.1c0.2,1,1.2,2.1,2.1,2.5c0.5,0.2,1.6-1,2.9-1.9c-1.3-1.2-2.1-2.3-3-2.5
			C276.4,222,274.9,223.5,275,224.1z M189.4,93.5c2.7,0.6,5.6,1.8,7.8,3.5c2.6,2,1.8,5-1.4,5.6c-2.9,0.5-5.9-0.1-8.9-0.1
			c-1,0-1.9,0.5-2.9,0.8c0.3,1,0.4,2.5,1,2.8c1.9,0.9,4,1.4,5.5,1.8c2.1-0.3,3.5-0.5,4.8-0.8c3.2-0.7,6.9-1.7,7-5.3
			c0-2.9-1.6-6.2-3.3-8.8c-0.9-1.4-3.4-1.9-5.3-2.6c-1.9-0.7-3.9-1-5.8-1.7c-2-0.6-2.7-1.9-2.1-4.1c1.6-6.4,3.7-7.5,9.9-5.2
			c0.8,0.3,2.2,0.1,2.7-0.4c0.4-0.4,0.3-2.3-0.1-2.5c-2.6-1.3-5.4-3.2-8.2-3.2c-4.4,0-8.9,7.2-8.9,13.1
			C181.2,90.6,183.2,92.1,189.4,93.5z M345.1,134.8c-0.3,0.1-0.7,0.3-1,0.1c-4-1.6-5.7,1.2-6.2,4c-0.8,4.3-1.5,8.9-0.7,13
			c1.7,9.1,10.5,11.8,17.7,5.9c3.4-2.8,4.9-6.4,4.7-10.7c-0.1-1.1-0.1-2.3-0.2-3.4C358.3,135.6,352.5,132,345.1,134.8z M355.5,147.5
			c-0.1,5.1-4.4,9.5-8.9,8.9c-3-0.4-4.7-2.3-5.6-5c-1.6-4.9-0.3-10.3,3.6-14.6c1.2,0.4,2.1,0.9,3,0.9
			C352.7,137.6,355.7,141.3,355.5,147.5z M363,162c0.7-1,1.8-2,1.9-3.1c0.2-3.6,0.1-7.3,0.1-12.1c1,2.6,1.5,4.2,2.3,5.8
			c2.3,4.8,4.7,9.5,7.3,14.2c0.6,1.1,2.9,2.3,3.5,1.9c1.2-0.7,2-2.4,2.5-3.9c0.4-1.1,0.2-2.5,0.1-3.8c-0.3-6-0.6-11.9-0.8-17.9
			c-0.1-1.8,0.3-4.1-2.3-3.8c-0.9,0.1-2.1,2.6-2.1,4c0,5.8,0.4,11.7,0.7,17.5c-0.3,0.1-0.7,0.2-1,0.2c-1.3-3-2.5-6-3.8-9
			c-2.1-4.7-4.2-9.5-6.6-14.1c-0.3-0.5-1-0.9-1.7-1.2c-0.4-0.2-0.9-0.4-1.3-0.6c-0.3,0.5-0.6,1-0.9,1.5s-0.5,1-0.5,1.5
			c0,6.6,0.1,13.2,0.4,19.8C361,160.1,362.3,161,363,162z M383.3,140.1c0.1,0.1,0.1,0.3,0.2,0.4c0.1-0.1,0.2-0.2,0.3-0.3
			c0.2-0.2,0.5-0.3,0.8-0.5c0.6-0.4,1.3-0.8,1.4-1.4c1.1-4.1,1.9-8.3,3-13.3c-0.8-1.1-1.8-2.5-2.8-3.8c-0.9,1-2.3,1.8-2.5,2.9
			c-0.8,4.4-1.3,8.9-1.7,13.3c0,0.2,0,0.5,0.1,0.7c0.1,0.2,0.2,0.5,0.4,0.7C382.8,139.4,383,139.8,383.3,140.1z M373.8,99.7
			c8,5.2,14.8,2.7,18-6.2c0.6-1.8,2.2-3.3,3.4-4.9c0.4,0.2,0.8,0.5,1.1,0.7c-0.9,5.6-1.9,11.2-2.6,16.9c-0.1,1,1.1,2.1,1.7,3.1
			c0.8-0.8,2-1.4,2.2-2.3c0.7-2.8,1.1-5.7,1.5-8.6c1.5-11.5,1.5-11.5,13-12.8c1-0.1,1.8-1.2,2.7-2c0.1-0.1,0.3-0.2,0.4-0.3
			c-0.4-0.2-0.9-0.5-1.3-0.8c-0.7-0.5-1.5-0.9-2.2-0.9c-3,0.1-6,0.8-9.3,1.3c0.5-7,0.4-7,6.6-8.7c2.3-0.6,4.7-1.2,7-1.7
			c3.5-0.7,7-1.1,10.5-2c0.9-0.2,1.4-1.9,2.1-2.9c-1.1-0.3-2.2-1.1-3.2-1c-6,1-12,2.1-17.9,3.4c-7.9,1.7-7.8,1.8-9,9.6
			c-0.4,2.6-0.5,5.5-4.6,5.2c-0.1-1.2-0.1-2.5-0.2-3.7c-0.7-5.1-2.5-6.8-7.7-6.9c-7.2-0.1-14.3,5.6-16.5,13.3
			C367.8,92.6,369.3,96.8,373.8,99.7z M386,78.6c4.3,0.2,2.6,3.1,3.4,5.7c-0.7,2.8-1.3,6.2-2.4,9.4c-1.1,3.4-3.6,4.8-7.2,4
			c-4.2-0.9-6.8-3.7-6.9-7C373,84.7,380.1,78.4,386,78.6z M460,195.1c-3.8-2-9.8,0.5-10.3,3.8c-0.4,3-1,6.1-0.9,9.1
			c0.1,1.9,0.8,4.7,2.1,5.5c1.4,0.8,4-0.1,5.9-0.8c0.6-0.2,1.1-0.9,1.5-1.7c0.3-0.4,0.5-0.9,0.8-1.3c-0.3,0-0.6,0.1-1,0.1
			c-1,0.1-1.9,0.2-2.9,0.2c-1.1,0-2.2-0.1-3.2-0.2c0.3-1.2,0.5-2.5,1-3.6c0.2-0.4,1.2-0.4,1.7-0.8c1.1-1,2.1-2.1,3.1-3.2
			c-1.4,0.1-2.8,0.2-4.2,0.2c-0.2,0-0.4-0.2-0.6-0.2C451.8,196.7,456.6,196.8,460,195.1z M402.8,132.9c-0.6-0.4-1.1-0.8-1.7-1.3
			c-0.2,0.3-0.4,0.6-0.6,0.9c-0.6,1-1.3,2-2.3,3.5c-2.4,0.5-5.6,0.9-8.6,1.9c-1.1,0.3-1.8,2-2.6,3.1c1.3,0.3,2.6,0.9,3.9,0.8
			c2.7-0.3,5.3-1,8-1.6c-0.8,8.7-1.7,16.8-2.3,24.9c-0.1,1.3,0.8,3.7,1.5,3.9c2.6,0.5,2.3-1.8,2.5-3.6c0.9-8.7,1.8-17.4,2.7-26.5
			c9-1.2,17.6-2.3,26.1-3.5c2.2-0.3,6.2,1.1,5.9-2.7c-0.3-3.4-3.9-1.7-6.1-1.4c-8.4,0.9-16.8,2.1-24.5,3.1
			C404,133.8,403.4,133.3,402.8,132.9z M402.4,197.1c0.4-0.2,0.8-0.3,1.2-0.5c2.1-0.8,4.2-1.8,6.3-2.7c-0.2-0.5-0.4-1.1-0.5-1.6
			c-3.8,1.4-8.1,2.2-11.3,4.5c-1.6,1.1-1.5,4.8-2,7.4c-0.3,1.9-0.3,3.8-0.5,5.7c-0.4,4.5,1.3,6.2,5.8,5.5c1.1-0.2,2.4-0.1,3.3-0.7
			c1.3-0.8,3.4-2.5,3.2-3.2c-0.9-2.6-2.3,0-3.5,0.1c-1.8,0.1-5.1-0.2-5.2-0.6c-0.2-2.5-1.5-5.6,2.6-6.7c1.4-0.4,2.3-2.4,3.4-3.6
			c-1.5,0.3-3,0.5-4.6,0.8c-0.2,0-0.4,0-0.7,0C399.4,198.8,400.7,197.9,402.4,197.1z M464.4,216.4c0.8-1,2-1.9,2.2-3
			c1.3-6.8,2.3-13.7,3.5-20.7c1.3-0.5,2.9-1.1,4.5-1.7c-0.2-0.5-0.3-1-0.5-1.5c-4.5,1.2-8.9,2.4-13.4,3.6c0,0.4,0.1,0.7,0.1,1.1h5.9
			c-1.1,6.3-2.2,12.4-3.1,18.5C463.6,213.8,464.2,215.2,464.4,216.4z M423.9,197.2c1-1.8,3.7-2.7,5.7-3.9c1.1-0.7,2.5-1.1,3.7-1.6
			c-1.5-0.5-3-1.2-4.6-1.4c-1-0.1-2.2,0.5-3.2,1c-5.5,2.9-9.8,11.8-8.6,17.9c1,5.4,6.1,7.6,10.2,4c2.2-2,3.1-5.3,4.6-8
			c0.6-1,1.5-1.8,2.2-2.8c0.5-0.6,1-1.3,1.4-2c-0.8-0.4-1.6-1.1-2.3-1.1c-1.5,0-3,0.3-4.5,0.6c-1.7,0.4-3.3,1.1-4.9,1.7
			c1.6,0.8,3.2,1.6,5.3,2.8c-1,1.7-2,4-3.5,5.9c-0.7,0.8-2.7,1.3-3.6,0.9c-0.9-0.5-1.9-2.4-1.6-3.4
			C421.1,204.1,422.1,200.4,423.9,197.2z M487.8,93.2c-0.5,1.5-0.8,3.1-1.2,4.6c-0.8,2.9-1.8,5.8-2.3,8.8c-0.5,2.9,1.1,5.4,4,5.4
			c4.4,0,8.7-0.9,13-1.7c0.6-0.1,0.9-1.7,1.3-2.7c-1-0.4-2-1.1-2.9-1c-1.5,0.1-2.9,1.1-4.4,1.2c-2,0-4.7,0.1-5.9-1.1
			c-0.9-0.8,0.1-3.7,0.3-5.6c0.1-0.7,0.6-1.4,0.9-2.1c1-3.2,2.9-4.7,6.4-4.2c2.4,0.3,4.9,0.3,7.2-0.2c1.1-0.2,1.8-1.8,2.7-2.8
			c-1.1-0.4-2.2-1.2-3.3-1.2c-2.6-0.1-5.3,0.2-8.7,0.4c1-2,2-3.3,2.3-4.7c0.9-3.9,3.7-4.7,7-5.1c3.4-0.4,6.8-0.7,10.2-1.4
			c0.4-0.1,0.7-0.4,1-0.9c0.2-0.3,0.5-0.7,0.7-1c0.1-0.1,0.2-0.2,0.2-0.3c-0.1-0.1-0.2-0.2-0.3-0.3c-0.8-0.6-1.6-1.6-2.2-1.5
			c-6.1,0.9-12.2,2.1-18.3,3.4c-0.8,0.2-2,1.7-2,2.6c-0.1,3.9-1.6,6.9-4.8,9.2C488.4,91.5,488,92.4,487.8,93.2z M498.4,198.9
			c0-2.4,0.1-4.6-0.1-6.7c-0.1-0.9-0.7-1.7-1.1-2.5c-0.6,0.8-1.8,1.5-1.8,2.4c-0.6,6.8-1.1,13.7-1.5,20.5c0,0.7,0.6,1.5,1.1,2.3
			c0.1,0.1,0.1,0.2,0.2,0.3l0,0v0c0.1-0.2,0.3-0.4,0.5-0.6c0.5-0.6,1.1-1.2,1.2-1.9c0.5-2.8,0.6-5.7,0.9-8.5c0.3-0.2,0.6-0.3,1-0.5
			c1.8,2.6,3.6,5.2,5.6,7.7c0.6,0.8,1.7,1.2,2.6,1.8c0-1.1,0.4-2.5-0.1-3.3c-2.1-3.2-4.4-6.3-6.9-9.7c2.8-1.8,5.7-3.8,8.7-5.8
			C504.2,193.3,501.8,196.9,498.4,198.9z M447.8,76.1c-1.6,11.7-3.3,23.1-4.7,34.6c-0.1,1,0.9,2,1.3,3.1c0.9-0.7,2.4-1.2,2.6-2
			c0.8-2.9,1.3-5.9,1.7-9c1.1-9.2,2-18.4,3-27.2c5.7-1.5,10.8-2.8,16-4.1c-0.2,1.5-0.3,3-0.5,4.4c-0.5,3.3,0.2,7.1-3.5,9.3
			c-0.5,0.3-0.2,2,0,3.1c0.1,0.8,0.8,1.6,0.7,2.3c-1.4,5.5-3,11-4.3,16.6c-0.3,1.2,0.2,2.5,0.3,3.8c1.2-0.8,3.1-1.3,3.5-2.3
			c1.4-3.7,2.2-7.5,3.2-11.3c2.3-8.7,2.2-8.7,11.3-8.4c0.1,0,0.2,0.1,0.8,0.4c-1.1,5.5-2.3,10.9-3.3,16.4c-0.2,0.9,0.5,1.9,0.9,2.9
			c1.1-0.4,2.4-0.6,3.1-1.3c0.7-0.8,0.7-2.1,0.9-3.2c0.7-3.6,1.3-7.2,1.9-10.9c0.4-2.7,1-5,4.6-4.4c0.6,0.1,2-1.2,2-1.6
			c-0.2-0.9-1-1.9-1.8-2.4c-0.6-0.4-1.7-0.3-2.5-0.5c0.9-4.9,2-9.6,2.6-14.3c0.2-1.3-1-2.9-1.6-4.3c-0.9,1.3-2.2,2.5-2.5,3.9
			c-1,4.2-1.6,8.5-2.6,12.7c-0.2,0.9-1.2,2.1-2,2.3c-2.8,0.5-5.6,0.5-8.4,0.8c0.1-5.1,3-9.8-0.2-14.4c0.2-0.1,0.6-0.2,0.9-0.3
			c1.8-0.8,5.7,0.4,4.8-3.1c-0.7-3-3.8-1.3-5.9-0.8c-5.7,1.4-11.4,2.9-17.4,4.5c0-0.9-0.1-1.3,0-1.6c0.7-1.6,1.3-3.5-1-3.9
			c-0.8-0.1-2.7,1.6-2.8,2.7c-0.3,3.7-2.9,3.6-5.4,3.7c-1.8,0.1-3.6-0.2-5.3,0.2c-1.4,0.3-2.6,1.3-3.9,2c1.4,0.7,2.7,1.9,4.1,2
			C441.3,76.3,444.4,76.1,447.8,76.1z M354.9,195.7c-1.7,3.3-2.5,7.1-3.5,10.8c-0.2,0.8,0.5,1.9,0.8,2.9c0.8-0.7,2.1-1.3,2.2-2.1
			c0.3-4.9,3.8-4.4,7.4-4.7c0,4-0.1,7.7,0.1,11.5c0,1,1,1.9,1.5,2.9c0.5-0.8,1.5-1.7,1.5-2.5c-0.1-5.8-0.4-11.6-0.7-17.5
			c-0.1-2.5-1.4-4.9-4-4.7C358.2,192.6,355.7,194.1,354.9,195.7z M359.3,195.2c1.8-0.7,2.3,0.9,2.8,2.4c0.1,0.3,0.2,0.6,0.1,0.9
			c-0.2,0.5-0.7,0.7-1.1,0.8l-3,0.9c-0.5,0.1-1,0.3-1.4,0c-0.4-0.3-0.5-0.8-0.5-1.3C356.3,197.3,357.9,195.8,359.3,195.2z M339,105
			c1.2,0.9,4.5,0.1,6.1-1c4.2-2.8,5.1-7.6,5.9-13.1c-0.4-0.8-0.7-3-1.8-3.4c-1.4-0.6-3.6-0.3-5,0.5c-4.2,2.4-6.8,6.3-7.5,10.9
			C336.5,100.9,337.5,104,339,105z M346,92.2c0.4,0.2,0.7,0.4,1.1,0.5c-1.6,3.1-3.2,6.1-4.8,9.2C340.7,98.4,342.2,95.4,346,92.2z
			 M391.8,209.5c0.3,0.2,0.6,0.4,0.9,0.6h0c0.2-0.3,0.4-0.6,0.7-0.9c0.7-0.9,1.5-1.8,1.5-2.7c0.3-4.9,0.2-9.8,0.1-14.7
			c0-0.5-0.9-1.2-1.5-1.4c-0.3-0.1-1.2,0.5-1.3,0.9c-0.3,1.3-0.4,2.7-0.3,4.1c0.1,3.1,0.3,6.3,0.5,9.4c-0.3,0.1-0.7,0.2-1,0.2
			c-1.5-3-2.9-6.1-4.6-9c-0.6-0.9-2.4-1.9-3.2-1.6c-0.9,0.3-1.8,2-1.9,3.2c-0.3,4-0.4,8.1-0.3,12.2c0,0.7,0.3,1.4,0.6,2.1
			c0.1,0.3,0.2,0.6,0.3,0.9c0.1,0.1,0.1,0.3,0.2,0.4h0c0.1-0.1,0.2-0.3,0.3-0.4c0.1-0.1,0.2-0.3,0.3-0.4c0.6-0.8,1.3-1.7,1.4-2.6
			c0.3-3.2,0.1-6.4,0.1-9.6c2.1,2.4,3.3,5.1,4.8,7.4C389.8,208.5,390.8,209,391.8,209.5z M416.6,289.3c-0.6-3.1-1.1-6.2-2.1-9.2
			c-0.4-1.1-1.9-2.6-2.8-2.5c-1.2,0-2.6,1.3-3.5,2.3c-0.8,0.9-1.2,2.3-1.5,3.5c-1.1,3.9-2,7.8-3.1,11.7c-3.4,0.4-6.7,0.9-10.4,1.4
			c0-1.9,0-3.5,0-5.1c-0.1-6.2,0-12.5-0.4-18.7c-0.1-1.1-1.6-2-2.5-3c-0.5,1.2-1.4,2.4-1.4,3.6c-0.1,8.1-0.1,16.2-0.1,24.3
			c-3,0.8-5.8,1.4-8.9,2.2c0-2,0-3.8,0-5.5c0.1-5.5,0.3-10.9,0.2-16.4c0-1-1.4-2-2.2-3c-0.7,1.2-1.8,2.3-1.9,3.5c-0.3,3,0,6.1,0,9.1
			c0,12.3-0.1,24.6,0.1,36.9c0,0.7,0.8,1.5,1.5,2.2c0.2,0.2,0.5,0.5,0.6,0.7c0.1-0.2,0.2-0.4,0.4-0.6c0.1-0.2,0.3-0.4,0.4-0.6
			c0.5-0.6,0.9-1.3,0.9-1.9c0.1-5.7-0.2-11.4,0-17.2c0-1.1,0.9-2.7,1.7-3.1c2.2-0.9,4.7-1.3,7.4-2c0,2.7-0.1,5,0,7.3
			c0.2,5.7,0.4,11.4,1,17.1c0.1,1,1.6,1.9,2.4,2.9c0.6-1.2,1.7-2.4,1.7-3.6c-0.2-6.3-0.8-12.7-0.9-19c-0.1-6.2,0.2-6.2,6.4-6.9
			c0.4,0,0.7,0.1,1.6,0.2c0,4,0.1,7.9,0,11.9c-0.1,3.9-0.7,7.9-0.8,11.8c0,1.7-1,4.4,2,4.3c0.7,0,1.7-2.6,1.9-4
			c0.8-6.9,1.4-13.8,2.1-20.8c2.5-0.4,4.5-0.7,6.8-1.1c0.3,8.4,0.6,16.4,1,24.4c0.1,1.1,1,2.2,1.6,3.3c0.8-1.1,2.2-2.1,2.3-3.2
			c0.2-5-0.2-9.9-0.1-14.9c0.1-4.3-2.4-8.7,0.9-12.8c0.2-0.3,0.1-1.2-0.2-1.4C416,295.2,417.1,292,416.6,289.3z M412.6,296.3
			c0,0.9-2.7,1.6-4.2,2.4c-0.3-0.4-0.5-0.7-0.8-1.1c0.9-4.2,1.8-8.4,2.7-12.7c0.1-0.6,0.4-1.1,1.6-1.7
			C412.2,287.6,412.8,292,412.6,296.3z M347.8,205.5c0.1-0.5,0.1-1,0.1-1.5c0-4.3,0-8.6-0.2-12.9c0-0.9-1.1-1.7-2.2-3.2
			c-2.5,7.6,1.6,14.7-2.7,21.9c-1-1.9-2-3.1-2.3-4.5c-0.8-2.8-1.2-5.7-2-8.5c-0.3-1-1.3-1.8-1.9-2.6c-0.4,0.9-1.2,1.8-1.3,2.8
			c-0.6,4.2-1,8.5-1.5,12.7c-0.5,0.1-0.9,0.1-1.4,0.2c-0.4-1.2-1-2.5-1.3-3.7c-0.8-3.6-1.4-7.2-2.3-10.8c-0.2-0.7-1.1-1.3-1.7-1.9
			c-0.4,0.7-1.4,1.4-1.2,2c1.4,5.6,2.6,11.3,4.5,16.8c1,2.9,3.9,2.6,5.3-0.4c0.7-1.4,1.1-3,1.3-3.6c2.1,1.5,4.3,4.5,6.4,4.4
			C346.9,212.5,347,208.4,347.8,205.5z M368.2,306.4c-0.7,1.1-1.8,2.1-2.1,3.3c-1.2,4.4-1.8,8.9-3.3,13.2c-0.6,1.7-2.5,2.9-3.9,4.3
			c-1.4-1.3-3.2-2.4-4-4.1c-5.3-11.5-6.8-23.7-4-36c0.9-4.1,3.3-8.2,6-11.5c2.9-3.6,6.5-3,9.5,0.3c0.4,0.5,1.4,0.9,2,0.7
			c0.7-0.2,1.5-1,1.6-1.7c0.6-3.1-1.3-4.7-3.9-5.7c-5.5-2.1-11.5,0.7-15.9,7.5c-4.1,6.3-4.9,13.5-5,20.8c0.4,4.2,0.7,8.4,1.3,12.5
			c1,6.8,2.8,13.4,7.1,19c3.7,4.8,7.8,4.7,11-0.3c3.6-5.8,6-12.1,5.4-19.1C369.9,308.5,368.8,307.5,368.2,306.4z M377.5,194.2
			c-0.5,0.7-1.3,1.4-1.5,2.2c-0.5,2.2-0.7,4.5-1,6.8c-0.5,0.2-0.9,0.3-1.4,0.5c-1.8-2.2-3.5-4.4-5.4-6.5c-0.6-0.6-1.5-0.9-2.3-1.4
			c-0.1,1-0.7,2.3-0.3,2.8c2.3,3,4.9,5.8,8.2,9.7c-0.6,1.6-1.5,4.3-2.6,7c-0.3,0.7-1.4,1.1-2,1.7c-0.6,0.7-1.1,1.5-1.6,2.2
			c1,0.5,2.4,1.5,3,1.2c1.4-0.7,3-2,3.4-3.3c1.9-6.8,3.6-13.6,5.1-20.5C379.2,195.9,378.1,195,377.5,194.2z M309.7,131v26.6
			c-1.3-0.4-2.9-1.1-4.5-1.3c-0.9-0.1-1.9,0.6-2.9,0.9c0.5,1,0.8,2.7,1.5,2.9c7.4,2.8,14.9,3.6,21.9-0.9
			c10.4-6.6,11.3-17.2,2.3-25.5c-4.2-3.9-9.2-6.3-15-6.7c-5.2-0.3-10.4-0.4-15.6-0.2c-1.2,0-2.4,1.5-3.6,2.2
			c1.1,0.7,2.2,1.8,3.4,1.9C301.2,131.2,305.1,131,309.7,131z M314.2,131.8c8.5,1.2,15.8,8,15.4,14.7c-0.4,6.3-7,11.5-15.4,11.6
			V131.8z M165.3,130.4c-2.3,1.7-4.8,3.5-4,6.7c0.9,3.4,3.9,4.1,6.9,4.4c3,0.3,6.1,0.3,9.1,0.8c2.3,0.4,5,0.9,4.9,4.2
			c0,4.4-5.2,8.2-9.4,6.8c-1.7-0.6-3.1-1.8-4.7-2.4c-0.9-0.3-2.1,0-3.2,0c0.3,1.1,0.2,2.6,0.9,3.3c6.5,6.2,16.2,4.2,20-3.9
			c2.5-5.5,0.6-10-5.1-11.6c-3-0.8-6.3-0.8-9.4-1.3c-1.7-0.2-3.3-0.6-5-0.9c0-0.4,0-0.9,0-1.3c3.7-3.7,8.2-4.6,13.4-3.7
			c1,0.2,2.3-0.6,3.4-0.9c-0.6-1-1.1-2.2-1.9-2.8c-0.9-0.6-2.1-0.8-3.2-0.9C173.2,126.5,169,127.7,165.3,130.4z M329,270.1
			c-0.1-1.9-1.9-3.7-3-5.6c-1.6,1.2-3.8,2.1-4.8,3.7c-2.2,3.6-3.9,7.5-5.9,11.6c-0.3-4.1-0.5-8-1-11.8c-0.4-2.9,0.1-6.9-4-7.2
			c-4-0.3-4.4,3.8-5,6.6c-2.4,10.6-5,21.3-6.6,32c-1.1,7.5-0.8,15.2-1,22.8c0,0.9,1.5,1.8,2.3,2.7c0.6-0.9,1.9-2,1.8-2.8
			c-1.5-9.4,0.4-18.5,1.9-27.7c1.4-8.6,3.4-17.1,5.2-25.6c0.5,0.1,1,0.1,1.4,0.2c0.5,14,1.1,28.1,1.7,42.1c0.1,2.2-1.1,5.8,2.4,5.7
			c3-0.1,2.3-3.7,2.3-6c0.3-6.9,0.1-13.7,0.6-20.6c0.5-6.7,3.5-12.6,7-18.3c0.4,1.3,0.3,2.5,0.4,3.8c0.4,14.6,0.7,29.2,1.2,43.8
			c0,1.2,1.5,2.4,2.4,3.6c0.6-1.3,1.8-2.6,1.8-3.9c-0.3-10.4-1.1-20.8-1.3-31.2C328.6,282.1,329.2,276.1,329,270.1z M340.3,312.9
			c-0.6-7.4-1-14.1-1.6-20.8c-0.1-0.9-1.4-1.7-2.2-2.5c-0.7,0.9-1.9,1.8-1.9,2.6c0.4,7.3,0.9,14.7,1.7,22c0.1,1,1.4,2,2.1,3
			c0.6-1,1.4-2,1.9-3.1C340.5,313.6,340.3,312.8,340.3,312.9z M340,262.2c-3.7,0.3-2,3.7-2.5,5.7c-0.2,0.7,1.3,1.9,2,2.8
			c1-1.5,2-2.9,3.3-4.8C341.6,264.3,340.7,262.2,340,262.2z M540.7,290.2c-3.2,2.7-5.5,6-6.2,10.1c-0.6,3.4-1,6.8-1.4,9.7
			c0.1,2.2,0.1,4,0.4,5.8c0.6,4.5,1.7,9.1,6.4,10.9c4.7,1.8,8.9-0.4,12.6-3.4c1-0.8,1.8-1.8,2.6-2.8c5.9-7.9,5-22.6-1.8-29.7
			C549.7,287.2,544.8,286.9,540.7,290.2z M545.9,322.6c-3.5,1.3-5.8,0.5-7.1-2.9c-2.9-8-1.5-15.9,2-23.3c1-2,4.1-4.1,6.2-4.1
			c1.8,0,4.2,2.6,5.2,4.7c1.6,3.2,2.2,6.9,3.3,10.4C555,314.8,551.6,320.4,545.9,322.6z M566.2,282c3.6-0.3,6.6-0.4,9.6-0.8
			c1-0.1,1.9-1,2.9-1.6c-0.8-0.8-1.4-2.1-2.3-2.4c-1.4-0.5-3-0.4-4.5-0.3c-8.7,0.7-17.4,1.3-26.1,2.2c-1.1,0.1-2,1.5-3.1,2.3
			c1.2,0.6,2.3,1.7,3.5,1.8c5.4,0.2,10.8,0.1,15.9,0.1c0,9.3-0.1,18.6,0,27.9c0.1,5.8,0.2,11.7,0.6,17.5c0.1,1.2,1.7,2.3,2.6,3.5
			c0.5-1.3,1.4-2.7,1.5-4c0.1-1.7-0.5-3.5-0.5-5.3C566.2,309.4,566.2,296.1,566.2,282z M602.7,276.8c-3.2,0.9-6.2,2.1-9.3,3.3
			c-5.6,2.3-11.2,4.7-16.7,7.2c-0.7,0.3-1.7,1.8-1.5,2.2c0.4,0.8,1.6,1.9,2.3,1.8c2.3-0.4,4.6-1.2,7.2-1.9c-0.4,4.1-1,8.2-1.2,12.2
			c-0.5,9.8-0.8,19.5-1,29.3c0,1.2,1.5,2.5,2.4,3.7c0.6-1.3,1.7-2.6,1.7-3.8c0.1-5.3-0.5-10.7-0.2-16c0.4-8.8,1.3-17.5,2.2-26.2
			c0.1-1.1,1.4-2.5,2.5-3c4.9-2.1,9.9-3.9,14.8-5.8v-2.3C604.9,277.2,603.7,276.5,602.7,276.8z M530.8,325.5
			c-4.4,2.8-7.4,2.3-10.3-2.1c-0.6-0.9-1.1-2-1.6-3c-5.3-12-1.5-27.2,8.8-35.2c0.4-0.3,0.9-0.6,1.3-0.5c2.3,0.6,3.5-0.7,2.8-2.5
			c-0.4-1-3-2.1-4.1-1.7c-1.9,0.7-3.6,2.3-5,3.9c-5.3,6.3-9.4,13.2-10.6,21.6c-2.1-1.5-3.7-2.9-5.5-4c-1.8-1.1-3.9-1.9-5.7-3.1
			c-3.4-2.4-6.9-4.8-9.8-7.7c-3.8-3.8-3.6-5.9,0.2-9.7c5.2-5.3,11.7-7.3,19-7.3c0.9,0,1.8-1.1,2.8-1.7c-0.8-0.8-1.5-1.7-2.5-2.4
			c-0.4-0.3-1.2-0.2-1.9-0.2c-9.1,0.5-16.8,3.7-22.5,11.1c-3.2,4.1-3.5,7.4,0.1,11.3c3.3,3.5,7.2,6.3,11,9.2
			c3.6,2.6,7.8,4.4,11.1,7.3c5.1,4.4,4.4,10.5-1.6,13.8c-2.5,1.4-5.4,2.1-8.1,3.1c-7.1,2.6-13.4-0.6-12.8-8.6c0.1-0.7-0.9-2-1.5-2.1
			c-0.7-0.1-2,0.7-2.3,1.4c-0.5,1.2-0.6,2.7-0.4,4.1c1.2,7.5,7.3,11.8,15,10.2c6.6-1.3,12.9-3.4,17.4-8.8c1.7,2.3,3.1,4.6,5,6.5
			c4.3,4.3,9.3,4.5,13.9,0.5c0.9-0.8,1-2.4,1.5-3.7C533.3,325.3,531.7,324.9,530.8,325.5z M443.7,205.8c2.1-3.7,4.1-6.8,5.6-10.1
			c0.9-2,0.9-4.4-2-5.3c-4.7-1.4-11,3.6-11,8.5c0,4.4-0.3,8.8-0.3,13.2c0,0.8,0.7,1.7,1.1,2.5c0.7-0.6,1.9-1.1,2.1-1.8
			c0.4-2,0.4-4,0.6-6.1c1.6,1.9,2.4,4,3.4,6c1.5,3.1,2.5,3.3,4.7,1.1C446.3,211.1,444.9,208.2,443.7,205.8z M441.4,202.8
			c-0.6-0.1-1.1-0.3-1.7-0.4c0.1-1.9-0.4-4.1,0.4-5.5c1.1-2,2.8-4.4,6.7-2.7C445,197.2,443.2,200,441.4,202.8z M440.9,325
			c-5.2,1.1-10.3,2.4-15.3,3.6c0-6.4,0.1-12.8-0.1-19.3c-0.1-2.4,1-3.4,3.2-3.9c3.2-0.7,6.5-1.2,9.6-2.3c1.1-0.4,1.8-2,2.6-3
			c-1.2-0.3-2.4-1.1-3.5-1c-3.8,0.6-7.6,1.6-10.9,2.3c0-6.2-0.1-12.4,0.1-18.6c0-0.9,1.3-2.2,2.2-2.5c3.9-1.4,8-2.3,12-3.7
			c1.1-0.4,1.9-1.6,2.8-2.4c-1.2-0.6-2.5-1.9-3.6-1.7c-3.2,0.6-6.4,1.6-9.5,2.6c-7.7,2.4-7.8,2.4-8.1,10.3c-0.6,15-1.2,30-1.7,45
			c-0.1,2.3,0.8,4.4,3.5,3.7c6-1.5,11.9-3.4,17.8-5.3c0.8-0.3,1.3-1.8,1.9-2.7C443,325.7,441.9,324.8,440.9,325z M469.1,325.4
			c-4.4,1.5-8.6,3.8-13.1,4.9c-4.1,1-5.5-0.2-5.5-4.5c0-7.2,0.3-14.5,0.9-21.7c0.7-8.9,1.8-17.7,2.5-26.5c0.1-1.3-1.1-2.6-1.8-3.9
			c-0.8,1.3-2.1,2.5-2.4,3.9c-0.5,2.3-0.4,4.8-0.6,7.2c-1.1,11-2.3,22-3.4,32.9c0.1,0,0.2,0,0.3,0c0.2,3.7,0.3,7.4,0.6,11
			c0.4,4.4,2.1,5.8,6.7,6c6.7,0.2,12.3-2.8,17.9-5.7c1-0.5,1.3-2.3,1.9-3.5C471.7,325.5,470.2,325,469.1,325.4z M490.7,209.4
			c0-0.5-0.1-1-0.1-1.5c-3.5-0.6-7-1.1-10.8-1.7c2.5-1.9,5-3.6,7.4-5.5c0.2-0.2,0.4-0.3,0.5-0.6c0.1-0.2,0.2-0.3,0.4-0.5
			c0.2-0.3,0.4-0.7,0.6-1c0.1-0.2,0.2-0.3,0.3-0.5v0c-0.1-0.1-0.3-0.1-0.4-0.2c-0.9-0.5-1.9-1.2-2.8-1.2c-4.4,0.1-8.9,0.3-13.3,0.7
			c-0.4,0-0.8,0.5-1.2,1c-0.1,0.1-0.2,0.3-0.3,0.4c-0.1,0.1-0.2,0.3-0.4,0.4h0l0,0c0.3,0.2,0.5,0.4,0.8,0.6c0.4,0.3,0.8,0.6,1.3,0.6
			c3.1,0,6.2-0.2,10.1-0.4c-3,2.3-5.5,4-7.7,6c-0.8,0.7-1.2,2-1.8,3c1.1,0.4,2.2,1.1,3.4,1.2c3.9,0.3,7.8,0.4,11.7,0.5
			C489.2,210.6,490,209.8,490.7,209.4z M319.4,197.4c-0.5-0.3-1.2,0-2.7,0c-3.5,0.4-7.7,0.9-12,1.5c-0.7,0.1-1.2,1.3-1.8,2
			c0.7,0.4,1.5,1.1,2.2,1c4.8-0.4,9.6-0.8,14.3-1.4c0.6-0.1,1.2-1,1.7-1.5C320.6,198.4,320.1,197.7,319.4,197.4z M115,107.8
			c2-0.3,4.6-2.9,5.2-5c1.4-4.7,1.6-9.7,2.3-14.5c-0.2,0-0.5-0.1-0.7-0.1c0-2.9,0.1-5.8-0.1-8.7c-0.1-1-1.1-1.9-1.7-2.9
			c-0.8,0.9-2,1.6-2.4,2.7c-0.4,1.1-0.2,2.5-0.1,3.8c0.1,3.9,0.5,7.9,0.3,11.8c-0.1,2.4-0.6,4.8-1.5,7c-1.2,2.8-3.2,3-4.7,0.4
			c-1.3-2.4-2.5-5.1-2.8-7.7c-0.4-3.7,0.1-7.6,0-11.4c0-0.9-1-1.7-1.5-2.6c-0.8,0.6-2.3,1.1-2.4,1.8c-1.2,7.9-2,15.8,3.3,22.6
			C109.8,106.5,113,108.2,115,107.8z M80.7,102.5c3.1,7.3,11.2,8.8,16.7,2.9c3.6-3.9,4.9-8.8,5.4-14.7c-0.4-1.8-0.7-4.5-1.5-7
			c-2-6.6-11.1-8.8-16.1-3.9C79.9,85,77.8,95.5,80.7,102.5z M88.2,83.1c1.8-1.2,5-0.6,7.4-0.1c1.1,0.2,2,2.2,2.5,3.6
			c0.5,1.3,0.2,2.8,0.3,4.1c0.2,4.5-0.9,8.5-4.2,11.8c-3.3,3.2-7.2,2.7-9.4-1.3C82.1,96.6,83.7,86,88.2,83.1z M78.8,66.9
			c-1,0.9-2.4,1.6-2.8,2.7c-2,5.6-3.8,11.2-5.6,16.9c-0.3,0-0.6,0-0.9,0c-1.6-4.8-3.2-9.6-4.9-14.3c-0.9-2.4-2-4.7-3.4-6.8
			c-0.4-0.6-2-0.5-3-0.7c-0.2,0.9-0.7,2-0.4,2.7c2.9,7.7,6,15.3,8.7,23.1c0.7,2,0.8,4.5,0.2,6.4c-2.2,6.8-4.9,13.5-7.2,20.3
			c-0.3,0.9,0.5,2.2,0.8,3.3c1-0.5,2.2-0.7,2.8-1.5c1-1.2,1.9-2.7,2.4-4.3c4.8-14.7,9.6-29.4,14.2-44.1
			C80.1,69.6,79.1,68.1,78.8,66.9z M50.2,69.8c-1.2-2.8-2.6-5.6-4-8.4c-0.3-0.7-0.9-1.3-1.4-1.9c-0.4,0-0.8-0.1-1.3-0.1
			c-0.5,1.3-1.6,2.8-1.2,3.8c1.2,3.3,2.7,6.5,4.5,9.5c0.4,0.6,2.4,0.3,3.7,0.3C50.4,72,50.6,70.7,50.2,69.8z M37.8,63
			c-0.7-2.8-2-3.5-4.5-2.5v3.8c1.7,4.1,3.4,8.2,5.2,12.3c0.3,0.8,1.3,1.9,1.8,1.8c0.8-0.1,2.1-1.2,2-1.7c-0.2-2.2-0.7-4.4-1.4-6.5
			C40,67.8,38.4,65.5,37.8,63z M298.8,68.1c-1-2.8-3.7-4.3-6.5-2.9c-2.2,1.1-3.9,3.2-5.4,5.2c-0.8,1.1-0.4,3-1.1,4.3
			c-3.4,7-6.5,14.1-6.7,22c-0.1,3.5,0.6,6.9,4,8.4c3.5,1.6,6.4-0.4,8.9-2.8c6.5-6.2,8.8-14.1,9.5-22.8
			C300.6,75.7,300.1,71.8,298.8,68.1z M289,99.3c-0.9,1-2.8,2-3.7,1.7c-1-0.4-2.1-2.5-2-3.6c1.3-9.1,2.9-18.2,10.2-24.9
			c0.6-0.6,1-1.3,1.9-2.6C298.1,81.2,297,91.1,289,99.3z M174.3,72.6c0.7,0.2,1.7-0.9,3.2-1.8c-1.3-1.1-2.1-2.1-2.9-2.2
			c-0.7-0.1-2.1,1.1-2,1.7C172.7,71.1,173.6,72.4,174.3,72.6z M174.6,107c0.1,0.8,1.4,1.9,2.3,2.1c0.5,0.1,1.4-1.3,1.5-1.5
			c-0.4-6.5-0.7-12.1-1-17.6c-0.1-1.4-0.2-2.8-0.4-4.2c-0.2-1.9-0.2-3.9-0.7-5.7c-0.3-0.9-1.6-1.5-2.4-2.2c-0.6,1-1.6,1.9-1.6,2.9
			c0,3.4,0.4,6.8,0.7,10.3C173.5,96.4,173.9,101.8,174.6,107z M142.1,114.1c2.4,0.1,2.8-1.9,2.7-4c-0.1-4.5-0.5-9,0-13.3
			c0.7-6.5,2.1-12.9,3.2-19.3c0.4,0.1,0.9,0.2,1.3,0.3c0.2,0.6,0.4,1.2,0.5,1.8c0.9,6.2,1.7,12.3,2.7,18.5c0.2,1.1,1.5,2,2.2,2.9
			c0.7-1,1.8-2,2.1-3.1c0.4-1.6-0.2-3.3,0.1-4.9c1-5.3,2.3-10.6,3.4-15.9c0.5,0.1,0.9,0.1,1.4,0.2c0.2,1.1,0.5,2.2,0.5,3.3
			c0.3,8.9,0.6,17.8,0.9,26.7c0.1,1.8-0.5,4.3,2.3,4.2c0.7,0,2-2.6,2-4c-0.1-9.2-0.4-18.3-0.7-27.5c-0.1-1.5-0.1-3.2-0.8-4.5
			c-0.9-1.6-2.3-3.7-3.8-4c-1.2-0.3-3.4,1.4-4.4,2.7c-1.3,1.7-2,3.9-2.9,5.9c-4.2-9.3-5.4-10-9.2-5.5c-1.4-0.7-2.6-1.4-3.8-2
			c-0.4,1.4-1,2.8-1.3,4.3c-0.1,0.7,0.3,1.5,0.3,2.2c-0.2,10.4-0.5,20.8-0.5,31.3C140.3,111.7,141.4,114.1,142.1,114.1z M270,224.4
			c-1.2-0.8-2.4-2.4-3.5-2.4c-4.5,0.2-9.1,1-13.6,1.5c-1.5,0.2-3.1,0.3-4.9,0.5c0.2-2.7,0.6-4.9,0.4-7c-0.4-3.7,1.6-5.2,4.7-6
			c3-0.7,6-1.2,8.8-2.3c1.1-0.4,1.9-2,2.8-3c-1.3-0.3-2.6-1-3.8-0.8c-3.9,0.7-7.7,1.8-11.3,2.6c-2.2-7,1.5-10.3,7.5-12
			c2.7-0.8,5.3-1.7,7.8-2.9c1.3-0.6,2.3-1.8,3.4-2.8c-1.5-0.4-3.2-1.5-4.4-1c-5.2,1.9-10.2,4.4-15.5,6.2c-2.7,0.9-3.1,2.2-3.2,4.7
			c-0.3,7.1-0.8,14.3-1.3,20.9c-4.9-5.3-9.9-10.6-14.9-16c0.5-0.4,1.7-1.4,2.9-2.3c5-3.7,10-7.4,14.9-11.2c0.8-0.7,0.9-2.2,1.4-3.4
			c-1.2-0.1-2.5-0.4-3.6-0.2c-0.8,0.1-1.4,1-2.2,1.5c-5.6,4.3-11.3,8.6-17.5,13.4c0-3.1,0.3-5.7-0.1-8.2c-0.2-1.8-1.1-3.6-2-5.1
			c-0.3-0.5-2-0.7-2.6-0.3c-0.6,0.4-1,1.7-1,2.5c0.3,4.1,1.2,8.2,1.2,12.3c0,7.2-0.6,14.5-0.8,21.7c0,0.5,0.3,1,0.7,1.5
			c0.1,0.1,0.2,0.3,0.3,0.4c0.3,0.4,0.7,0.8,0.9,1.1h0c0.1-0.1,0.2-0.2,0.3-0.4c0.1-0.1,0.2-0.2,0.3-0.4c0.2-0.2,0.4-0.5,0.6-0.7
			c0.2-0.2,0.4-0.5,0.5-0.7s0.2-0.5,0.3-0.8c0.4-4.3,0.5-8.6,0.6-13c0.1-3.3,1.8-3.6,3.8-1.9c3.1,2.7,6.1,5.7,8.8,8.8
			c2.7,3,4.9,6.3,7.5,9.4c0.4,0.5,1.6,0.7,2.3,0.6c6.6-0.9,13.2-1.8,19.8-2.9C267.8,226,268.9,225,270,224.4z M288,276.5
			c-1.6,0-3.3,0.3-4.9,0.7c-5.1,1.3-10.3,2.7-15.4,4l-0.6-1.1c-1.1,0.8-3.1,1.5-3.3,2.5c-0.4,2.6,2,2.4,3.7,2.4c0.5,0,1,0.1,1.5,0
			c6.5-1.5,13.1-3,19.6-4.7c0.7-0.2,1.5-1.6,1.4-2.3C290,277.4,288.8,276.5,288,276.5z M212.9,203c-0.3,0.1-0.6,0.2-0.9,0.2
			c-0.2-2.4-0.2-4.8-0.5-7.2c-0.5-3.8-0.8-7.6-1.8-11.2c-0.9-3.5-2.9-3.8-5.4-1.1c-1,1.1-1.9,2.4-2.5,3.8
			c-2.3,5.3-4.6,10.7-6.6,16.2c-0.8,2.1-1.5,3.8-3.8,4.7c-1.2,0.4-1.9,2.1-2.8,3.2c1.2,0.7,2.4,1.5,3.6,2.2c0,2.4-0.2,5.2,0.1,7.9
			c0.1,0.8,1.6,1.5,2.5,2.2c0.6-0.8,1.5-1.6,1.6-2.5c0.4-3,0.5-6.1,0.9-9.1c0.1-0.8,1-1.8,1.8-2c2.8-0.7,5.7-1.2,8.6-1.8
			c0.7,5.7,1.2,11.3,2,16.7c0.1,0.8,0.7,1.5,1.4,2.1c0.2,0.2,0.4,0.4,0.6,0.6c0.2,0.2,0.4,0.4,0.5,0.6h0c0.1-0.2,0.1-0.3,0.2-0.5
			c0.2-0.3,0.3-0.7,0.5-1c0.4-0.8,0.8-1.6,0.7-2.4c-0.4-5.5-1.1-11-1.6-15.5c2-1.2,3.2-2,4.5-2.8L212.9,203z M198.7,206.1
			c2.5-6.3,4.6-11.9,6.8-17.4c0.4,0,0.8,0.1,1.2,0.1c0.4,5,0.7,10,1.1,15.3C204.8,204.8,202.2,205.4,198.7,206.1z M163,126.4
			c-1-0.6-1.9-1.2-3-1.6c-0.4-0.1-1,0.2-1.4,0.4c-8.3,2.9-16.6,5.8-24.8,8.8c-0.6,0.2-1,0.7-1.4,1.2c-4.5,4.7-6.4,18.9-3.4,24.7
			c2.4,4.5,6.8,5.2,10.2,1.3c1.2-1.4,2.3-3.2,2.5-5c0.5-4.9,0.9-9.9,0.8-14.8c-0.1-5.8-0.1-6.1,5.5-8.1c0.8-0.3,1.7-0.5,3.1-0.9
			c-0.2,2.2-0.3,3.8-0.5,5.5c-0.7,6.8-1.4,13.6-1.9,20.5c-0.1,0.9,1.1,1.9,1.7,2.8c0.7-0.8,2-1.6,2.1-2.5c0.9-7.1,1.7-14.1,2.3-21.2
			c0.5-6.2,0.4-6.1,6.3-8.3C161.9,128.8,162.3,127.4,163,126.4z M136.9,156.6c-0.2,0.9-2,2.4-2.5,2.2c-1.1-0.4-2.6-1.9-2.5-2.7
			c0.7-5.6,1.7-11.1,2.8-16.6c0.1-0.7,1.4-1.4,2.2-1.5c0.4-0.1,1.3,1.2,1.4,1.9c0.3,1.8,0.4,3.8,0.6,6.5
			C138.3,149.2,137.8,153,136.9,156.6z M125,130.3c0.1-1.9,0.2-3.9-2.3-3.8c-0.7,0-1.7,2.2-1.8,3.4c-0.4,3.4-0.5,6.8-0.7,10.6
			c-2.5,0.1-4.8,0.2-7.4,0.3c0-2.9,0.2-5.3-0.1-7.6c-0.1-1.1-1.2-2.1-1.8-3.1c-0.9,1.1-2.4,2-2.6,3.2c-0.5,3.5-0.6,7.1-0.7,10.6
			c-0.1,6.4,0,12.9,0.1,19.3c0,1.7-0.4,4.1,2.3,3.8c0.8-0.1,1.8-2.4,1.9-3.8c0.4-5.9,0.6-11.8,0.8-17.8c2.6-0.3,4.6-0.5,6.9-0.7
			c0,3.2-0.2,6,0,8.8c0.3,3.8,0.8,7.6,1.6,11.3c0.2,1,1.8,1.6,2.7,2.4c0.4-1.1,1.3-2.2,1.2-3.3c-0.3-5.6-1.1-11.1-1.1-16.7
			C124,141.5,124.6,135.9,125,130.3z M197.3,180.7c-0.9-0.6-1.8-1.6-2.8-1.9c-0.9-0.2-2,0.3-3,0.5c-10.4,2.2-20.1,6.2-29.4,11.4
			c-0.9,0.5-1.4,1.5-2,2.5c-0.2,0.3-0.4,0.6-0.6,0.9c0.4,0,0.8,0.1,1.2,0.1c0.4,0.1,0.8,0.1,1.2,0.2c0.8,0.1,1.6,0.1,2.2-0.2
			c3.5-1.4,6.8-3.4,10.1-5.1c0.4,0.2,0.8,0.4,1.2,0.5c-1.2,12.2-2.4,24.5-3.5,36.7c-0.1,1.1,0.6,2.3,1,3.5c1-0.8,2.4-1.5,3-2.6
			c0.7-1.3,0.8-2.9,0.9-4.5c0.8-10.9,1.6-21.8,2.3-32.7c0.1-2.1,0.6-3.2,2.8-3.7c4.4-1.1,8.8-2.3,13.2-3.6
			C196,182.5,196.6,181.4,197.3,180.7z M96.5,141.7c-3.7-1.2-7.5-2-11.3-3c-0.2-0.4-0.3-0.7-0.5-1.1c4.2-2.8,8.3-5.7,12.5-8.4
			c0.4-0.2,1.2,0.5,1.9,0.5c1,0,2.5,0,2.9-0.6c0.5-0.7,0.3-2.7-0.2-2.9c-1.4-0.8-3.7-1.8-4.7-1.2c-5.6,3.5-11.2,7.2-16.3,11.5
			c-2.3,2-1.2,4.7,1.8,5.9c1,0.4,2.2,0.6,3.3,0.9c4.1,1.2,8.4,2,12.3,3.8c4.4,2,4.6,5.8,0.9,8.7c-5.6,4.3-11.8,5.6-18.6,3
			c-1.6-0.6-3.5-2.4-4.3,0.3c-0.3,0.9,1.5,3,2.8,3.6c6.6,2.9,13.2,2.1,19.4-1.4c4.2-2.3,8.1-5.3,7.6-10.9
			C105.5,144.8,100.9,143.1,96.5,141.7z"/>
	</g>
</g>
</svg>
